ISO-10303-21;
HEADER;
/* Generated by software containing ST-Developer
 * from STEP Tools, Inc. (www.steptools.com) 
 */
/* OPTION: using custom schema-name function */

FILE_DESCRIPTION(
/* description */ (''),
/* implementation_level */ '2;1');

FILE_NAME(
/* name */ 'Drawsting.stp',
/* time_stamp */ '2026-09-08T16:07:07+02:00',
/* author */ (''),
/* organization */ (''),
/* preprocessor_version */ 'ST-DEVELOPER v20',
/* originating_system */ 'SIEMENS PLM Software NX2406.3002',
/* authorisation */ '');

FILE_SCHEMA (('AUTOMOTIVE_DESIGN { 1 0 10303 214 3 1 1 1 }'));
ENDSEC;

DATA;
#10=SHAPE_REPRESENTATION_RELATIONSHIP('None',
'relationship between Drawsting-None and Drawsting-None',#22,#11);
#11=ADVANCED_BREP_SHAPE_REPRESENTATION('Drawsting-None',(#32),#657);
#12=SHAPE_DEFINITION_REPRESENTATION(#13,#22);
#13=PRODUCT_DEFINITION_SHAPE('','',#14);
#14=PRODUCT_DEFINITION(' ','',#16,#15);
#15=PRODUCT_DEFINITION_CONTEXT('part definition',#21,'design');
#16=PRODUCT_DEFINITION_FORMATION_WITH_SPECIFIED_SOURCE(' ',' ',#18,
 .NOT_KNOWN.);
#17=PRODUCT_RELATED_PRODUCT_CATEGORY('part','',(#18));
#18=PRODUCT('Drawsting','Drawsting',' ',(#19));
#19=PRODUCT_CONTEXT(' ',#21,'mechanical');
#20=APPLICATION_PROTOCOL_DEFINITION('international standard',
'automotive_design',2010,#21);
#21=APPLICATION_CONTEXT(
'core data for automotive mechanical design processes');
#22=SHAPE_REPRESENTATION('Drawsting-None',(#376),#657);
#23=PRESENTATION_LAYER_ASSIGNMENT('1','Layer 1',(#32));
#24=STYLED_ITEM('',(#25),#32);
#25=PRESENTATION_STYLE_ASSIGNMENT((#26));
#26=SURFACE_STYLE_USAGE(.BOTH.,#27);
#27=SURFACE_SIDE_STYLE('',(#28));
#28=SURFACE_STYLE_FILL_AREA(#29);
#29=FILL_AREA_STYLE('',(#30));
#30=FILL_AREA_STYLE_COLOUR('',#31);
#31=COLOUR_RGB('medium steel',0.596078431372549,0.666666666666667,0.686274509803922);
#32=MANIFOLD_SOLID_BREP('',#33);
#33=CLOSED_SHELL('',(#54,#55,#56,#57,#58,#59,#60,#61,#62,#63,#64,#65,#66,
#67,#68,#69,#70,#71,#72,#73,#74));
#34=CONICAL_SURFACE('',#396,22.1941378290193,24.3743833735842);
#35=CONICAL_SURFACE('',#407,22.1941378290193,24.3743833735842);
#36=CONICAL_SURFACE('',#418,22.1941378290193,24.3743833735842);
#37=TOROIDAL_SURFACE('',#394,20.499886483714,4.00021724087485);
#38=TOROIDAL_SURFACE('',#399,20.499886483714,2.5);
#39=TOROIDAL_SURFACE('',#405,20.499886483714,4.00021724087485);
#40=TOROIDAL_SURFACE('',#410,20.499886483714,2.5);
#41=TOROIDAL_SURFACE('',#416,20.499886483714,4.00021724087485);
#42=TOROIDAL_SURFACE('',#421,20.499886483714,2.5);
#43=PLANE('',#386);
#44=PLANE('',#387);
#45=PLANE('',#388);
#46=PLANE('',#389);
#47=PLANE('',#390);
#48=PLANE('',#400);
#49=PLANE('',#401);
#50=PLANE('',#411);
#51=PLANE('',#412);
#52=PLANE('',#422);
#53=PLANE('',#423);
#54=ADVANCED_FACE('',(#76),#75,.T.);
#55=ADVANCED_FACE('',(#77),#43,.T.);
#56=ADVANCED_FACE('',(#78),#44,.F.);
#57=ADVANCED_FACE('',(#79),#45,.T.);
#58=ADVANCED_FACE('',(#80),#46,.T.);
#59=ADVANCED_FACE('',(#81),#47,.F.);
#60=ADVANCED_FACE('',(#82),#37,.T.);
#61=ADVANCED_FACE('',(#83),#34,.F.);
#62=ADVANCED_FACE('',(#84),#38,.F.);
#63=ADVANCED_FACE('',(#85),#48,.T.);
#64=ADVANCED_FACE('',(#86),#49,.F.);
#65=ADVANCED_FACE('',(#87),#39,.T.);
#66=ADVANCED_FACE('',(#88),#35,.F.);
#67=ADVANCED_FACE('',(#89),#40,.F.);
#68=ADVANCED_FACE('',(#90),#50,.T.);
#69=ADVANCED_FACE('',(#91),#51,.F.);
#70=ADVANCED_FACE('',(#92),#41,.T.);
#71=ADVANCED_FACE('',(#93),#36,.F.);
#72=ADVANCED_FACE('',(#94),#42,.F.);
#73=ADVANCED_FACE('',(#95),#52,.T.);
#74=ADVANCED_FACE('',(#96),#53,.F.);
#75=CYLINDRICAL_SURFACE('',#382,18.);
#76=FACE_OUTER_BOUND('',#97,.T.);
#77=FACE_OUTER_BOUND('',#98,.T.);
#78=FACE_OUTER_BOUND('',#99,.T.);
#79=FACE_OUTER_BOUND('',#100,.T.);
#80=FACE_OUTER_BOUND('',#101,.T.);
#81=FACE_OUTER_BOUND('',#102,.T.);
#82=FACE_OUTER_BOUND('',#103,.T.);
#83=FACE_OUTER_BOUND('',#104,.T.);
#84=FACE_OUTER_BOUND('',#105,.T.);
#85=FACE_OUTER_BOUND('',#106,.T.);
#86=FACE_OUTER_BOUND('',#107,.T.);
#87=FACE_OUTER_BOUND('',#108,.T.);
#88=FACE_OUTER_BOUND('',#109,.T.);
#89=FACE_OUTER_BOUND('',#110,.T.);
#90=FACE_OUTER_BOUND('',#111,.T.);
#91=FACE_OUTER_BOUND('',#112,.T.);
#92=FACE_OUTER_BOUND('',#113,.T.);
#93=FACE_OUTER_BOUND('',#114,.T.);
#94=FACE_OUTER_BOUND('',#115,.T.);
#95=FACE_OUTER_BOUND('',#116,.T.);
#96=FACE_OUTER_BOUND('',#117,.T.);
#97=EDGE_LOOP('',(#165,#166,#167,#168,#169,#170,#171,#172,#173,#174));
#98=EDGE_LOOP('',(#175,#176,#177,#178,#179,#180,#181,#182,#183,#184,#185,
#186,#187,#188,#189,#190));
#99=EDGE_LOOP('',(#191,#192,#193,#194));
#100=EDGE_LOOP('',(#195,#196,#197,#198));
#101=EDGE_LOOP('',(#199,#200,#201,#202));
#102=EDGE_LOOP('',(#203,#204,#205,#206));
#103=EDGE_LOOP('',(#207,#208,#209,#210));
#104=EDGE_LOOP('',(#211,#212,#213,#214));
#105=EDGE_LOOP('',(#215,#216,#217,#218));
#106=EDGE_LOOP('',(#219,#220,#221,#222));
#107=EDGE_LOOP('',(#223,#224,#225,#226));
#108=EDGE_LOOP('',(#227,#228,#229,#230));
#109=EDGE_LOOP('',(#231,#232,#233,#234));
#110=EDGE_LOOP('',(#235,#236,#237,#238));
#111=EDGE_LOOP('',(#239,#240,#241,#242));
#112=EDGE_LOOP('',(#243,#244,#245,#246));
#113=EDGE_LOOP('',(#247,#248,#249,#250));
#114=EDGE_LOOP('',(#251,#252,#253,#254));
#115=EDGE_LOOP('',(#255,#256,#257,#258));
#116=EDGE_LOOP('',(#259,#260,#261,#262));
#117=EDGE_LOOP('',(#263,#264,#265,#266));
#118=LINE('',#567,#140);
#119=LINE('',#571,#141);
#120=LINE('',#573,#142);
#121=LINE('',#575,#143);
#122=LINE('',#577,#144);
#123=LINE('',#579,#145);
#124=LINE('',#580,#146);
#125=LINE('',#584,#147);
#126=LINE('',#585,#148);
#127=LINE('',#589,#149);
#128=LINE('',#590,#150);
#129=LINE('',#594,#151);
#130=LINE('',#596,#152);
#131=LINE('',#598,#153);
#132=LINE('',#600,#154);
#133=LINE('',#602,#155);
#134=LINE('',#614,#156);
#135=LINE('',#615,#157);
#136=LINE('',#631,#158);
#137=LINE('',#632,#159);
#138=LINE('',#648,#160);
#139=LINE('',#649,#161);
#140=VECTOR('',#434,1.);
#141=VECTOR('',#437,1.);
#142=VECTOR('',#440,1.);
#143=VECTOR('',#441,1.);
#144=VECTOR('',#442,1.);
#145=VECTOR('',#443,1.);
#146=VECTOR('',#444,1.);
#147=VECTOR('',#447,1.);
#148=VECTOR('',#448,1.);
#149=VECTOR('',#451,1.);
#150=VECTOR('',#452,1.);
#151=VECTOR('',#457,1.);
#152=VECTOR('',#458,1.);
#153=VECTOR('',#459,1.);
#154=VECTOR('',#462,1.);
#155=VECTOR('',#465,1.);
#156=VECTOR('',#480,1.);
#157=VECTOR('',#481,1.);
#158=VECTOR('',#504,1.);
#159=VECTOR('',#505,1.);
#160=VECTOR('',#528,1.);
#161=VECTOR('',#529,1.);
#162=B_SPLINE_CURVE_WITH_KNOTS('',3,(#546,#547,#548,#549),.UNSPECIFIED.,
 .F.,.F.,(4,4),(0.,1.),.UNSPECIFIED.);
#163=B_SPLINE_CURVE_WITH_KNOTS('',3,(#553,#554,#555,#556),.UNSPECIFIED.,
 .F.,.F.,(4,4),(0.,1.),.UNSPECIFIED.);
#164=B_SPLINE_CURVE_WITH_KNOTS('',3,(#560,#561,#562,#563),.UNSPECIFIED.,
 .F.,.F.,(4,4),(0.,1.),.UNSPECIFIED.);
#165=ORIENTED_EDGE('',*,*,#299,.F.);
#166=ORIENTED_EDGE('',*,*,#300,.T.);
#167=ORIENTED_EDGE('',*,*,#301,.F.);
#168=ORIENTED_EDGE('',*,*,#302,.T.);
#169=ORIENTED_EDGE('',*,*,#303,.F.);
#170=ORIENTED_EDGE('',*,*,#304,.T.);
#171=ORIENTED_EDGE('',*,*,#305,.F.);
#172=ORIENTED_EDGE('',*,*,#306,.T.);
#173=ORIENTED_EDGE('',*,*,#307,.T.);
#174=ORIENTED_EDGE('',*,*,#308,.T.);
#175=ORIENTED_EDGE('',*,*,#309,.T.);
#176=ORIENTED_EDGE('',*,*,#299,.T.);
#177=ORIENTED_EDGE('',*,*,#310,.F.);
#178=ORIENTED_EDGE('',*,*,#311,.T.);
#179=ORIENTED_EDGE('',*,*,#312,.T.);
#180=ORIENTED_EDGE('',*,*,#305,.T.);
#181=ORIENTED_EDGE('',*,*,#313,.F.);
#182=ORIENTED_EDGE('',*,*,#314,.F.);
#183=ORIENTED_EDGE('',*,*,#315,.T.);
#184=ORIENTED_EDGE('',*,*,#303,.T.);
#185=ORIENTED_EDGE('',*,*,#316,.F.);
#186=ORIENTED_EDGE('',*,*,#317,.F.);
#187=ORIENTED_EDGE('',*,*,#318,.T.);
#188=ORIENTED_EDGE('',*,*,#301,.T.);
#189=ORIENTED_EDGE('',*,*,#319,.F.);
#190=ORIENTED_EDGE('',*,*,#320,.F.);
#191=ORIENTED_EDGE('',*,*,#321,.T.);
#192=ORIENTED_EDGE('',*,*,#307,.F.);
#193=ORIENTED_EDGE('',*,*,#322,.F.);
#194=ORIENTED_EDGE('',*,*,#323,.T.);
#195=ORIENTED_EDGE('',*,*,#306,.F.);
#196=ORIENTED_EDGE('',*,*,#312,.F.);
#197=ORIENTED_EDGE('',*,*,#324,.T.);
#198=ORIENTED_EDGE('',*,*,#322,.T.);
#199=ORIENTED_EDGE('',*,*,#308,.F.);
#200=ORIENTED_EDGE('',*,*,#321,.F.);
#201=ORIENTED_EDGE('',*,*,#325,.T.);
#202=ORIENTED_EDGE('',*,*,#310,.T.);
#203=ORIENTED_EDGE('',*,*,#324,.F.);
#204=ORIENTED_EDGE('',*,*,#311,.F.);
#205=ORIENTED_EDGE('',*,*,#325,.F.);
#206=ORIENTED_EDGE('',*,*,#323,.F.);
#207=ORIENTED_EDGE('',*,*,#326,.F.);
#208=ORIENTED_EDGE('',*,*,#327,.F.);
#209=ORIENTED_EDGE('',*,*,#314,.T.);
#210=ORIENTED_EDGE('',*,*,#328,.T.);
#211=ORIENTED_EDGE('',*,*,#329,.F.);
#212=ORIENTED_EDGE('',*,*,#330,.F.);
#213=ORIENTED_EDGE('',*,*,#326,.T.);
#214=ORIENTED_EDGE('',*,*,#331,.T.);
#215=ORIENTED_EDGE('',*,*,#332,.F.);
#216=ORIENTED_EDGE('',*,*,#329,.T.);
#217=ORIENTED_EDGE('',*,*,#333,.T.);
#218=ORIENTED_EDGE('',*,*,#304,.F.);
#219=ORIENTED_EDGE('',*,*,#332,.T.);
#220=ORIENTED_EDGE('',*,*,#315,.F.);
#221=ORIENTED_EDGE('',*,*,#327,.T.);
#222=ORIENTED_EDGE('',*,*,#330,.T.);
#223=ORIENTED_EDGE('',*,*,#313,.T.);
#224=ORIENTED_EDGE('',*,*,#333,.F.);
#225=ORIENTED_EDGE('',*,*,#331,.F.);
#226=ORIENTED_EDGE('',*,*,#328,.F.);
#227=ORIENTED_EDGE('',*,*,#334,.F.);
#228=ORIENTED_EDGE('',*,*,#335,.F.);
#229=ORIENTED_EDGE('',*,*,#317,.T.);
#230=ORIENTED_EDGE('',*,*,#336,.T.);
#231=ORIENTED_EDGE('',*,*,#337,.F.);
#232=ORIENTED_EDGE('',*,*,#338,.F.);
#233=ORIENTED_EDGE('',*,*,#334,.T.);
#234=ORIENTED_EDGE('',*,*,#339,.T.);
#235=ORIENTED_EDGE('',*,*,#340,.F.);
#236=ORIENTED_EDGE('',*,*,#337,.T.);
#237=ORIENTED_EDGE('',*,*,#341,.T.);
#238=ORIENTED_EDGE('',*,*,#302,.F.);
#239=ORIENTED_EDGE('',*,*,#340,.T.);
#240=ORIENTED_EDGE('',*,*,#318,.F.);
#241=ORIENTED_EDGE('',*,*,#335,.T.);
#242=ORIENTED_EDGE('',*,*,#338,.T.);
#243=ORIENTED_EDGE('',*,*,#316,.T.);
#244=ORIENTED_EDGE('',*,*,#341,.F.);
#245=ORIENTED_EDGE('',*,*,#339,.F.);
#246=ORIENTED_EDGE('',*,*,#336,.F.);
#247=ORIENTED_EDGE('',*,*,#342,.F.);
#248=ORIENTED_EDGE('',*,*,#343,.F.);
#249=ORIENTED_EDGE('',*,*,#320,.T.);
#250=ORIENTED_EDGE('',*,*,#344,.T.);
#251=ORIENTED_EDGE('',*,*,#345,.F.);
#252=ORIENTED_EDGE('',*,*,#346,.F.);
#253=ORIENTED_EDGE('',*,*,#342,.T.);
#254=ORIENTED_EDGE('',*,*,#347,.T.);
#255=ORIENTED_EDGE('',*,*,#348,.F.);
#256=ORIENTED_EDGE('',*,*,#345,.T.);
#257=ORIENTED_EDGE('',*,*,#349,.T.);
#258=ORIENTED_EDGE('',*,*,#300,.F.);
#259=ORIENTED_EDGE('',*,*,#348,.T.);
#260=ORIENTED_EDGE('',*,*,#309,.F.);
#261=ORIENTED_EDGE('',*,*,#343,.T.);
#262=ORIENTED_EDGE('',*,*,#346,.T.);
#263=ORIENTED_EDGE('',*,*,#319,.T.);
#264=ORIENTED_EDGE('',*,*,#349,.F.);
#265=ORIENTED_EDGE('',*,*,#347,.F.);
#266=ORIENTED_EDGE('',*,*,#344,.F.);
#267=VERTEX_POINT('',#544);
#268=VERTEX_POINT('',#545);
#269=VERTEX_POINT('',#550);
#270=VERTEX_POINT('',#552);
#271=VERTEX_POINT('',#557);
#272=VERTEX_POINT('',#559);
#273=VERTEX_POINT('',#564);
#274=VERTEX_POINT('',#566);
#275=VERTEX_POINT('',#568);
#276=VERTEX_POINT('',#570);
#277=VERTEX_POINT('',#574);
#278=VERTEX_POINT('',#576);
#279=VERTEX_POINT('',#578);
#280=VERTEX_POINT('',#581);
#281=VERTEX_POINT('',#583);
#282=VERTEX_POINT('',#586);
#283=VERTEX_POINT('',#588);
#284=VERTEX_POINT('',#591);
#285=VERTEX_POINT('',#595);
#286=VERTEX_POINT('',#597);
#287=VERTEX_POINT('',#606);
#288=VERTEX_POINT('',#607);
#289=VERTEX_POINT('',#612);
#290=VERTEX_POINT('',#613);
#291=VERTEX_POINT('',#623);
#292=VERTEX_POINT('',#624);
#293=VERTEX_POINT('',#629);
#294=VERTEX_POINT('',#630);
#295=VERTEX_POINT('',#640);
#296=VERTEX_POINT('',#641);
#297=VERTEX_POINT('',#646);
#298=VERTEX_POINT('',#647);
#299=EDGE_CURVE('',#267,#268,#350,.T.);
#300=EDGE_CURVE('',#267,#269,#162,.T.);
#301=EDGE_CURVE('',#270,#269,#351,.T.);
#302=EDGE_CURVE('',#270,#271,#163,.T.);
#303=EDGE_CURVE('',#272,#271,#352,.T.);
#304=EDGE_CURVE('',#272,#273,#164,.T.);
#305=EDGE_CURVE('',#274,#273,#353,.T.);
#306=EDGE_CURVE('',#274,#275,#118,.T.);
#307=EDGE_CURVE('',#275,#276,#354,.T.);
#308=EDGE_CURVE('',#276,#268,#119,.T.);
#309=EDGE_CURVE('',#277,#267,#120,.T.);
#310=EDGE_CURVE('',#278,#268,#121,.T.);
#311=EDGE_CURVE('',#278,#279,#122,.T.);
#312=EDGE_CURVE('',#279,#274,#123,.T.);
#313=EDGE_CURVE('',#280,#273,#124,.T.);
#314=EDGE_CURVE('',#281,#280,#355,.T.);
#315=EDGE_CURVE('',#281,#272,#125,.T.);
#316=EDGE_CURVE('',#282,#271,#126,.T.);
#317=EDGE_CURVE('',#283,#282,#356,.T.);
#318=EDGE_CURVE('',#283,#270,#127,.T.);
#319=EDGE_CURVE('',#284,#269,#128,.T.);
#320=EDGE_CURVE('',#277,#284,#357,.T.);
#321=EDGE_CURVE('',#285,#276,#129,.T.);
#322=EDGE_CURVE('',#286,#275,#130,.T.);
#323=EDGE_CURVE('',#286,#285,#131,.T.);
#324=EDGE_CURVE('',#279,#286,#132,.T.);
#325=EDGE_CURVE('',#285,#278,#133,.T.);
#326=EDGE_CURVE('',#287,#288,#358,.T.);
#327=EDGE_CURVE('',#281,#287,#359,.T.);
#328=EDGE_CURVE('',#280,#288,#360,.T.);
#329=EDGE_CURVE('',#289,#290,#361,.T.);
#330=EDGE_CURVE('',#287,#289,#134,.T.);
#331=EDGE_CURVE('',#288,#290,#135,.T.);
#332=EDGE_CURVE('',#289,#272,#362,.T.);
#333=EDGE_CURVE('',#290,#273,#363,.T.);
#334=EDGE_CURVE('',#291,#292,#364,.T.);
#335=EDGE_CURVE('',#283,#291,#365,.T.);
#336=EDGE_CURVE('',#282,#292,#366,.T.);
#337=EDGE_CURVE('',#293,#294,#367,.T.);
#338=EDGE_CURVE('',#291,#293,#136,.T.);
#339=EDGE_CURVE('',#292,#294,#137,.T.);
#340=EDGE_CURVE('',#293,#270,#368,.T.);
#341=EDGE_CURVE('',#294,#271,#369,.T.);
#342=EDGE_CURVE('',#295,#296,#370,.T.);
#343=EDGE_CURVE('',#277,#295,#371,.T.);
#344=EDGE_CURVE('',#284,#296,#372,.T.);
#345=EDGE_CURVE('',#297,#298,#373,.T.);
#346=EDGE_CURVE('',#295,#297,#138,.T.);
#347=EDGE_CURVE('',#296,#298,#139,.T.);
#348=EDGE_CURVE('',#297,#267,#374,.T.);
#349=EDGE_CURVE('',#298,#269,#375,.T.);
#350=CIRCLE('',#377,18.);
#351=CIRCLE('',#378,18.);
#352=CIRCLE('',#379,18.);
#353=CIRCLE('',#380,18.);
#354=CIRCLE('',#381,18.);
#355=CIRCLE('',#383,16.4996692428393);
#356=CIRCLE('',#384,16.4996692428393);
#357=CIRCLE('',#385,16.4996692428393);
#358=CIRCLE('',#391,22.1941378290193);
#359=CIRCLE('',#392,4.00021724087485);
#360=CIRCLE('',#393,4.00021724087485);
#361=CIRCLE('',#395,21.5749317530228);
#362=CIRCLE('',#397,2.5);
#363=CIRCLE('',#398,2.5);
#364=CIRCLE('',#402,22.1941378290193);
#365=CIRCLE('',#403,4.00021724087485);
#366=CIRCLE('',#404,4.00021724087485);
#367=CIRCLE('',#406,21.5749317530228);
#368=CIRCLE('',#408,2.5);
#369=CIRCLE('',#409,2.5);
#370=CIRCLE('',#413,22.1941378290193);
#371=CIRCLE('',#414,4.00021724087485);
#372=CIRCLE('',#415,4.00021724087485);
#373=CIRCLE('',#417,21.5749317530228);
#374=CIRCLE('',#419,2.5);
#375=CIRCLE('',#420,2.5);
#376=AXIS2_PLACEMENT_3D('',#542,#424,#425);
#377=AXIS2_PLACEMENT_3D('',#543,#426,#427);
#378=AXIS2_PLACEMENT_3D('',#551,#428,#429);
#379=AXIS2_PLACEMENT_3D('',#558,#430,#431);
#380=AXIS2_PLACEMENT_3D('',#565,#432,#433);
#381=AXIS2_PLACEMENT_3D('',#569,#435,#436);
#382=AXIS2_PLACEMENT_3D('',#572,#438,#439);
#383=AXIS2_PLACEMENT_3D('',#582,#445,#446);
#384=AXIS2_PLACEMENT_3D('',#587,#449,#450);
#385=AXIS2_PLACEMENT_3D('',#592,#453,#454);
#386=AXIS2_PLACEMENT_3D('',#593,#455,#456);
#387=AXIS2_PLACEMENT_3D('',#599,#460,#461);
#388=AXIS2_PLACEMENT_3D('',#601,#463,#464);
#389=AXIS2_PLACEMENT_3D('',#603,#466,#467);
#390=AXIS2_PLACEMENT_3D('',#604,#468,#469);
#391=AXIS2_PLACEMENT_3D('',#605,#470,#471);
#392=AXIS2_PLACEMENT_3D('',#608,#472,#473);
#393=AXIS2_PLACEMENT_3D('',#609,#474,#475);
#394=AXIS2_PLACEMENT_3D('',#610,#476,#477);
#395=AXIS2_PLACEMENT_3D('',#611,#478,#479);
#396=AXIS2_PLACEMENT_3D('',#616,#482,#483);
#397=AXIS2_PLACEMENT_3D('',#617,#484,#485);
#398=AXIS2_PLACEMENT_3D('',#618,#486,#487);
#399=AXIS2_PLACEMENT_3D('',#619,#488,#489);
#400=AXIS2_PLACEMENT_3D('',#620,#490,#491);
#401=AXIS2_PLACEMENT_3D('',#621,#492,#493);
#402=AXIS2_PLACEMENT_3D('',#622,#494,#495);
#403=AXIS2_PLACEMENT_3D('',#625,#496,#497);
#404=AXIS2_PLACEMENT_3D('',#626,#498,#499);
#405=AXIS2_PLACEMENT_3D('',#627,#500,#501);
#406=AXIS2_PLACEMENT_3D('',#628,#502,#503);
#407=AXIS2_PLACEMENT_3D('',#633,#506,#507);
#408=AXIS2_PLACEMENT_3D('',#634,#508,#509);
#409=AXIS2_PLACEMENT_3D('',#635,#510,#511);
#410=AXIS2_PLACEMENT_3D('',#636,#512,#513);
#411=AXIS2_PLACEMENT_3D('',#637,#514,#515);
#412=AXIS2_PLACEMENT_3D('',#638,#516,#517);
#413=AXIS2_PLACEMENT_3D('',#639,#518,#519);
#414=AXIS2_PLACEMENT_3D('',#642,#520,#521);
#415=AXIS2_PLACEMENT_3D('',#643,#522,#523);
#416=AXIS2_PLACEMENT_3D('',#644,#524,#525);
#417=AXIS2_PLACEMENT_3D('',#645,#526,#527);
#418=AXIS2_PLACEMENT_3D('',#650,#530,#531);
#419=AXIS2_PLACEMENT_3D('',#651,#532,#533);
#420=AXIS2_PLACEMENT_3D('',#652,#534,#535);
#421=AXIS2_PLACEMENT_3D('',#653,#536,#537);
#422=AXIS2_PLACEMENT_3D('',#654,#538,#539);
#423=AXIS2_PLACEMENT_3D('',#655,#540,#541);
#424=DIRECTION('',(0.,0.,1.));
#425=DIRECTION('',(1.,0.,0.));
#426=DIRECTION('',(0.,0.,1.));
#427=DIRECTION('',(-1.,0.,0.));
#428=DIRECTION('',(0.,0.,1.));
#429=DIRECTION('',(-1.,0.,0.));
#430=DIRECTION('',(0.,0.,1.));
#431=DIRECTION('',(-1.,0.,0.));
#432=DIRECTION('',(0.,0.,1.));
#433=DIRECTION('',(-1.,0.,0.));
#434=DIRECTION('',(0.,0.,-1.));
#435=DIRECTION('',(0.,0.,1.));
#436=DIRECTION('',(-1.,0.,0.));
#437=DIRECTION('',(0.,0.,1.));
#438=DIRECTION('',(0.,0.,-1.));
#439=DIRECTION('',(-1.,0.,0.));
#440=DIRECTION('',(-0.64278760968654,-0.766044443118978,0.));
#441=DIRECTION('',(-0.90630778703665,-0.422618261740699,0.));
#442=DIRECTION('',(-0.422618261740699,0.90630778703665,-5.42101086242752E-16));
#443=DIRECTION('',(-0.90630778703665,-0.422618261740699,0.));
#444=DIRECTION('',(-1.,0.,0.));
#445=DIRECTION('',(0.,0.,-1.));
#446=DIRECTION('',(-1.,0.,0.));
#447=DIRECTION('',(-0.984807753012208,-0.17364817766693,0.));
#448=DIRECTION('',(-0.939692620785909,-0.342020143325668,0.));
#449=DIRECTION('',(0.,0.,-1.));
#450=DIRECTION('',(-0.939692620785909,-0.342020143325668,0.));
#451=DIRECTION('',(-0.866025403784439,-0.5,0.));
#452=DIRECTION('',(-0.766044443118978,-0.642787609686539,0.));
#453=DIRECTION('',(0.,0.,-1.));
#454=DIRECTION('',(-0.766044443118978,-0.642787609686539,0.));
#455=DIRECTION('',(0.,0.,1.));
#456=DIRECTION('',(1.,0.,0.));
#457=DIRECTION('',(-0.90630778703665,-0.422618261740699,0.));
#458=DIRECTION('',(-0.90630778703665,-0.422618261740699,0.));
#459=DIRECTION('',(0.422618261740699,-0.90630778703665,-1.00150723165785E-16));
#460=DIRECTION('',(0.,0.,1.));
#461=DIRECTION('',(1.,0.,0.));
#462=DIRECTION('',(0.,0.,-1.));
#463=DIRECTION('',(-0.422618261740699,0.90630778703665,0.));
#464=DIRECTION('',(-0.90630778703665,-0.422618261740699,0.));
#465=DIRECTION('',(-5.00401002685617E-16,6.67201336914156E-16,1.));
#466=DIRECTION('',(0.422618261740699,-0.90630778703665,8.16168369094862E-16));
#467=DIRECTION('',(0.90630778703665,0.422618261740699,0.));
#468=DIRECTION('',(-0.90630778703665,-0.422618261740699,0.));
#469=DIRECTION('',(0.422618261740699,-0.90630778703665,0.));
#470=DIRECTION('',(0.,0.,-1.));
#471=DIRECTION('',(-1.,0.,0.));
#472=DIRECTION('',(0.17364817766693,-0.984807753012208,0.));
#473=DIRECTION('',(0.984807753012208,0.17364817766693,-5.42071646213088E-17));
#474=DIRECTION('',(0.,-1.,0.));
#475=DIRECTION('',(1.,0.,-5.42071646213088E-17));
#476=DIRECTION('',(0.,0.,-1.));
#477=DIRECTION('',(-1.,0.,0.));
#478=DIRECTION('',(0.,0.,-1.));
#479=DIRECTION('',(-1.,0.,0.));
#480=DIRECTION('',(0.406427428714665,0.0716641213823617,0.910868266488014));
#481=DIRECTION('',(0.412697226917167,0.,0.910868266488014));
#482=DIRECTION('',(0.,0.,-1.));
#483=DIRECTION('',(-1.,0.,-1.18622862024242E-17));
#484=DIRECTION('',(-0.17364817766693,0.984807753012208,0.));
#485=DIRECTION('',(0.984807753012208,0.17364817766693,8.67361737988405E-17));
#486=DIRECTION('',(0.,1.,0.));
#487=DIRECTION('',(0.999999999999999,0.,8.67361737988405E-17));
#488=DIRECTION('',(0.,0.,-1.));
#489=DIRECTION('',(-1.,0.,0.));
#490=DIRECTION('',(0.17364817766693,-0.984807753012208,0.));
#491=DIRECTION('',(0.,0.,-1.));
#492=DIRECTION('',(0.,-1.,0.));
#493=DIRECTION('',(0.,0.,-1.));
#494=DIRECTION('',(0.,0.,-1.));
#495=DIRECTION('',(-0.939692620785908,-0.342020143325668,0.));
#496=DIRECTION('',(0.5,-0.866025403784439,0.));
#497=DIRECTION('',(0.866025403784439,0.5,-5.42071646213088E-17));
#498=DIRECTION('',(0.342020143325668,-0.939692620785909,0.));
#499=DIRECTION('',(0.939692620785909,0.342020143325668,-5.42071646213088E-17));
#500=DIRECTION('',(0.,0.,-1.));
#501=DIRECTION('',(-0.939692620785909,-0.342020143325668,0.));
#502=DIRECTION('',(0.,0.,-1.));
#503=DIRECTION('',(-0.939692620785909,-0.342020143325668,0.));
#504=DIRECTION('',(0.357406282581658,0.206348613458584,0.910868266488014));
#505=DIRECTION('',(0.38780853875287,0.141150764700315,0.910868266488014));
#506=DIRECTION('',(0.,0.,-1.));
#507=DIRECTION('',(-0.939692620785909,-0.342020143325668,-1.18622862024242E-17));
#508=DIRECTION('',(-0.5,0.866025403784439,0.));
#509=DIRECTION('',(0.866025403784439,0.5,8.67361737988405E-17));
#510=DIRECTION('',(-0.342020143325668,0.939692620785909,0.));
#511=DIRECTION('',(0.939692620785909,0.342020143325668,8.67361737988405E-17));
#512=DIRECTION('',(0.,0.,-1.));
#513=DIRECTION('',(-0.939692620785909,-0.342020143325668,0.));
#514=DIRECTION('',(0.5,-0.866025403784439,0.));
#515=DIRECTION('',(0.,0.,-1.));
#516=DIRECTION('',(0.342020143325668,-0.939692620785909,0.));
#517=DIRECTION('',(0.,0.,-1.));
#518=DIRECTION('',(0.,0.,-1.));
#519=DIRECTION('',(-0.766044443118978,-0.642787609686539,0.));
#520=DIRECTION('',(0.766044443118978,-0.64278760968654,0.));
#521=DIRECTION('',(0.64278760968654,0.766044443118977,-5.42071646213088E-17));
#522=DIRECTION('',(0.642787609686539,-0.766044443118978,0.));
#523=DIRECTION('',(0.766044443118978,0.642787609686539,-5.42071646213088E-17));
#524=DIRECTION('',(0.,0.,-1.));
#525=DIRECTION('',(-0.766044443118978,-0.642787609686539,0.));
#526=DIRECTION('',(0.,0.,-1.));
#527=DIRECTION('',(-0.766044443118978,-0.642787609686539,0.));
#528=DIRECTION('',(0.26527666401435,0.316144417370508,0.910868266488014));
#529=DIRECTION('',(0.316144417370508,0.265276664014349,0.910868266488014));
#530=DIRECTION('',(0.,0.,-1.));
#531=DIRECTION('',(-0.766044443118978,-0.642787609686539,-1.18622862024242E-17));
#532=DIRECTION('',(-0.766044443118978,0.64278760968654,0.));
#533=DIRECTION('',(0.64278760968654,0.766044443118978,8.67361737988405E-17));
#534=DIRECTION('',(-0.642787609686539,0.766044443118978,0.));
#535=DIRECTION('',(0.766044443118978,0.642787609686539,8.67361737988405E-17));
#536=DIRECTION('',(0.,0.,-1.));
#537=DIRECTION('',(-0.766044443118978,-0.642787609686539,0.));
#538=DIRECTION('',(0.766044443118978,-0.64278760968654,0.));
#539=DIRECTION('',(0.,0.,-1.));
#540=DIRECTION('',(0.642787609686539,-0.766044443118978,0.));
#541=DIRECTION('',(0.,0.,-1.));
#542=CARTESIAN_POINT('',(0.,0.,0.));
#543=CARTESIAN_POINT('',(0.,0.,1.3));
#544=CARTESIAN_POINT('',(-11.5701668471961,-13.788787909609,1.3));
#545=CARTESIAN_POINT('',(16.6732229797942,6.78259798794401,1.3));
#546=CARTESIAN_POINT('',(-11.5701769726951,-13.7887999775367,1.3));
#547=CARTESIAN_POINT('',(-12.3723065867817,-13.1157333143651,1.3));
#548=CARTESIAN_POINT('',(-13.1155442072169,-12.3725070539243,1.3));
#549=CARTESIAN_POINT('',(-13.7886231305311,-11.5703877274784,1.3));
#550=CARTESIAN_POINT('',(-13.7886253029536,-11.5703895504139,1.3));
#551=CARTESIAN_POINT('',(0.,0.,1.3));
#552=CARTESIAN_POINT('',(-15.5885194725886,-9.00003593224432,1.3));
#553=CARTESIAN_POINT('',(-15.588457258748,-9.00000001623254,1.3));
#554=CARTESIAN_POINT('',(-16.1119499261382,-8.09328412110343,1.3));
#555=CARTESIAN_POINT('',(-16.5561245356359,-7.14079257840519,1.3));
#556=CARTESIAN_POINT('',(-16.9142494083501,-6.15696085354848,1.3));
#557=CARTESIAN_POINT('',(-16.914282620147,-6.15697294298435,1.3));
#558=CARTESIAN_POINT('',(0.,0.,1.3));
#559=CARTESIAN_POINT('',(-17.7265918647757,-3.12567642974238,1.3));
#560=CARTESIAN_POINT('',(-17.726539552596,-3.12566720721357,1.3));
#561=CARTESIAN_POINT('',(-17.9083567661868,-2.09453055241463,1.3));
#562=CARTESIAN_POINT('',(-17.9999731279053,-1.04750546285675,1.3));
#563=CARTESIAN_POINT('',(-17.9999999940745,-0.000461863331821546,1.3));
#564=CARTESIAN_POINT('',(-18.0000618360665,-0.000461864918619897,1.3));
#565=CARTESIAN_POINT('',(0.,0.,1.3));
#566=CARTESIAN_POINT('',(15.8178287368791,8.59047693965598,1.3));
#567=CARTESIAN_POINT('',(15.8178287368791,8.59047693965599,1.3));
#568=CARTESIAN_POINT('',(15.8178287368791,8.59047693965598,-1.0842021724855E-15));
#569=CARTESIAN_POINT('',(0.,0.,-1.0842021724855E-15));
#570=CARTESIAN_POINT('',(16.6732229797942,6.78259798794401,-1.33518758602293E-15));
#571=CARTESIAN_POINT('',(16.6732229797942,6.78259798794401,1.3));
#572=CARTESIAN_POINT('',(0.,0.,1.3));
#573=CARTESIAN_POINT('',(1.32887527912007E-15,-1.11505875659026E-15,1.3));
#574=CARTESIAN_POINT('',(-10.6057829532232,-12.6394799367782,1.30000129727807));
#575=CARTESIAN_POINT('',(100.073911742165,45.6729778532391,1.3));
#576=CARTESIAN_POINT('',(100.073911742165,45.6729778532391,1.3));
#577=CARTESIAN_POINT('',(100.073911742165,45.6729778532391,1.3));
#578=CARTESIAN_POINT('',(99.2286752186837,47.4855934273124,1.3));
#579=CARTESIAN_POINT('',(99.2286752186837,47.4855934273124,1.3));
#580=CARTESIAN_POINT('',(0.,0.,1.3));
#581=CARTESIAN_POINT('',(-16.4996692428393,0.,1.3));
#582=CARTESIAN_POINT('',(0.,0.,1.30000129727807));
#583=CARTESIAN_POINT('',(-16.2490021924852,-2.86513749612614,1.30000129727807));
#584=CARTESIAN_POINT('',(0.,0.,1.3));
#585=CARTESIAN_POINT('',(-2.96655185941995E-16,8.15053424739743E-16,1.3));
#586=CARTESIAN_POINT('',(-15.5046174329043,-5.64321923926202,1.3));
#587=CARTESIAN_POINT('',(0.,0.,1.30000129727807));
#588=CARTESIAN_POINT('',(-14.2891327183396,-8.24983462141964,1.30000129727807));
#589=CARTESIAN_POINT('',(0.,0.,1.3));
#590=CARTESIAN_POINT('',(0.,0.,1.3));
#591=CARTESIAN_POINT('',(-12.639479936778,-10.605782953223,1.3));
#592=CARTESIAN_POINT('',(0.,0.,1.30000129727807));
#593=CARTESIAN_POINT('',(0.,0.,1.3));
#594=CARTESIAN_POINT('',(100.073911742165,45.6729778532391,-1.654462957641E-15));
#595=CARTESIAN_POINT('',(100.073911742165,45.6729778532391,-1.654462957641E-15));
#596=CARTESIAN_POINT('',(99.2286752186837,47.4855934273124,-1.0842021724855E-15));
#597=CARTESIAN_POINT('',(99.2286752186837,47.4855934273124,-1.0842021724855E-15));
#598=CARTESIAN_POINT('',(99.2286752186837,47.4855934273124,-1.45416151130943E-15));
#599=CARTESIAN_POINT('',(0.,0.,0.));
#600=CARTESIAN_POINT('',(99.2286752186837,47.4855934273124,1.3));
#601=CARTESIAN_POINT('',(99.2286752186837,47.4855934273124,1.3));
#602=CARTESIAN_POINT('',(100.073911742165,45.6729778532391,0.));
#603=CARTESIAN_POINT('',(100.073911742165,45.6729778532391,0.));
#604=CARTESIAN_POINT('',(99.6938565740315,46.4880087914769,0.));
#605=CARTESIAN_POINT('',(0.,0.,-2.32370671455672));
#606=CARTESIAN_POINT('',(-21.8569590054397,-3.85397158889788,-2.32370671455672));
#607=CARTESIAN_POINT('',(-22.1941378290193,0.,-2.32370671455672));
#608=CARTESIAN_POINT('',(-20.1884471450317,-3.55976793027586,1.3));
#609=CARTESIAN_POINT('',(-20.499886483714,0.,1.3));
#610=CARTESIAN_POINT('',(0.,0.,1.3));
#611=CARTESIAN_POINT('',(0.,0.,-0.957050657148963));
#612=CARTESIAN_POINT('',(-21.2471600610862,-3.7464475822008,-0.957050657148963));
#613=CARTESIAN_POINT('',(-21.5749317530228,0.,-0.957050657148963));
#614=CARTESIAN_POINT('',(-21.8569590054397,-3.85397158889788,-2.32370671455672));
#615=CARTESIAN_POINT('',(-22.1941378290193,0.,-2.32370671455672));
#616=CARTESIAN_POINT('',(0.,0.,-2.32370671455672));
#617=CARTESIAN_POINT('',(-20.1884471450317,-3.55976793027586,1.3));
#618=CARTESIAN_POINT('',(-20.4998864837139,0.,1.3));
#619=CARTESIAN_POINT('',(0.,0.,1.3));
#620=CARTESIAN_POINT('',(-20.1884471450317,-3.55976793027586,1.3));
#621=CARTESIAN_POINT('',(-20.499886483714,0.,1.3));
#622=CARTESIAN_POINT('',(0.,0.,-2.32370671455672));
#623=CARTESIAN_POINT('',(-19.2206871750239,-11.0970689145096,-2.32370671455672));
#624=CARTESIAN_POINT('',(-20.8556675426348,-7.59084220127082,-2.32370671455672));
#625=CARTESIAN_POINT('',(-17.7534224695935,-10.249943241857,1.3));
#626=CARTESIAN_POINT('',(-19.2635920556948,-7.01137411331978,1.3));
#627=CARTESIAN_POINT('',(0.,0.,1.3));
#628=CARTESIAN_POINT('',(0.,0.,-0.957050657148963));
#629=CARTESIAN_POINT('',(-18.6844389830333,-10.7874658765114,-0.957050657148963));
#630=CARTESIAN_POINT('',(-20.2738041622751,-7.37906125041038,-0.957050657148963));
#631=CARTESIAN_POINT('',(-19.2206871750239,-11.0970689145096,-2.32370671455672));
#632=CARTESIAN_POINT('',(-20.8556675426348,-7.59084220127081,-2.32370671455672));
#633=CARTESIAN_POINT('',(0.,0.,-2.32370671455672));
#634=CARTESIAN_POINT('',(-17.7534224695935,-10.249943241857,1.3));
#635=CARTESIAN_POINT('',(-19.2635920556948,-7.01137411331978,1.3));
#636=CARTESIAN_POINT('',(0.,0.,1.3));
#637=CARTESIAN_POINT('',(-17.7534224695935,-10.249943241857,1.3));
#638=CARTESIAN_POINT('',(-19.2635920556948,-7.01137411331978,1.3));
#639=CARTESIAN_POINT('',(0.,0.,-2.32370671455672));
#640=CARTESIAN_POINT('',(-14.2661168041689,-17.0016959537369,-2.32370671455672));
#641=CARTESIAN_POINT('',(-17.0016959537369,-14.2661168041689,-2.32370671455672));
#642=CARTESIAN_POINT('',(-13.1770730317119,-15.7038241254189,1.3));
#643=CARTESIAN_POINT('',(-15.7038241254189,-13.1770730317119,1.3));
#644=CARTESIAN_POINT('',(0.,0.,1.3));
#645=CARTESIAN_POINT('',(0.,0.,-0.957050657148963));
#646=CARTESIAN_POINT('',(-13.8680988106758,-16.5273565800743,-0.957050657148963));
#647=CARTESIAN_POINT('',(-16.5273565800743,-13.8680988106758,-0.957050657148963));
#648=CARTESIAN_POINT('',(-14.2661168041689,-17.0016959537369,-2.32370671455672));
#649=CARTESIAN_POINT('',(-17.0016959537369,-14.2661168041689,-2.32370671455672));
#650=CARTESIAN_POINT('',(0.,0.,-2.32370671455672));
#651=CARTESIAN_POINT('',(-13.1770730317119,-15.7038241254189,1.3));
#652=CARTESIAN_POINT('',(-15.7038241254189,-13.1770730317119,1.3));
#653=CARTESIAN_POINT('',(0.,0.,1.3));
#654=CARTESIAN_POINT('',(-13.1770730317119,-15.7038241254189,1.3));
#655=CARTESIAN_POINT('',(-15.7038241254189,-13.1770730317119,1.3));
#656=MECHANICAL_DESIGN_GEOMETRIC_PRESENTATION_REPRESENTATION('',(#24),#657);
#657=(
GEOMETRIC_REPRESENTATION_CONTEXT(3)
GLOBAL_UNCERTAINTY_ASSIGNED_CONTEXT((#658))
GLOBAL_UNIT_ASSIGNED_CONTEXT((#664,#660,#659))
REPRESENTATION_CONTEXT('Drawsting','TOP_LEVEL_ASSEMBLY_PART')
);
#658=UNCERTAINTY_MEASURE_WITH_UNIT(LENGTH_MEASURE(0.0508),#664,
'DISTANCE_ACCURACY_VALUE','Maximum Tolerance applied to model');
#659=(
NAMED_UNIT(*)
SI_UNIT($,.STERADIAN.)
SOLID_ANGLE_UNIT()
);
#660=(
CONVERSION_BASED_UNIT('DEGREE',#662)
NAMED_UNIT(#661)
PLANE_ANGLE_UNIT()
);
#661=DIMENSIONAL_EXPONENTS(0.,0.,0.,0.,0.,0.,0.);
#662=PLANE_ANGLE_MEASURE_WITH_UNIT(PLANE_ANGLE_MEASURE(0.0174532925),#663);
#663=(
NAMED_UNIT(*)
PLANE_ANGLE_UNIT()
SI_UNIT($,.RADIAN.)
);
#664=(
LENGTH_UNIT()
NAMED_UNIT(*)
SI_UNIT(.MILLI.,.METRE.)
);
ENDSEC;
END-ISO-10303-21;
