ISO-10303-21;
HEADER;
/* Generated by software containing ST-Developer
 * from STEP Tools, Inc. (www.steptools.com) 
 */
/* OPTION: using custom schema-name function */

FILE_DESCRIPTION(
/* description */ (''),
/* implementation_level */ '2;1');

FILE_NAME(
/* name */ 'balloon_pipe_mold.stp',
/* time_stamp */ '2026-09-08T16:05:04+02:00',
/* author */ (''),
/* organization */ (''),
/* preprocessor_version */ 'ST-DEVELOPER v20',
/* originating_system */ 'SIEMENS PLM Software NX2406.3002',
/* authorisation */ '');

FILE_SCHEMA (('AUTOMOTIVE_DESIGN { 1 0 10303 214 3 1 1 1 }'));
ENDSEC;

DATA;
#10=SHAPE_REPRESENTATION_RELATIONSHIP('None',
'relationship between balloon_pipe_mold-None and balloon_pipe_mold-Non
e',#22,#11);
#11=ADVANCED_BREP_SHAPE_REPRESENTATION('balloon_pipe_mold-None',(#58,#59,
#60),#1903);
#12=SHAPE_DEFINITION_REPRESENTATION(#13,#22);
#13=PRODUCT_DEFINITION_SHAPE('','',#14);
#14=PRODUCT_DEFINITION(' ','',#16,#15);
#15=PRODUCT_DEFINITION_CONTEXT('part definition',#21,'design');
#16=PRODUCT_DEFINITION_FORMATION_WITH_SPECIFIED_SOURCE(' ',' ',#18,
 .NOT_KNOWN.);
#17=PRODUCT_RELATED_PRODUCT_CATEGORY('part','',(#18));
#18=PRODUCT('balloon_pipe_mold','balloon_pipe_mold',' ',(#19));
#19=PRODUCT_CONTEXT(' ',#21,'mechanical');
#20=APPLICATION_PROTOCOL_DEFINITION('international standard',
'automotive_design',2010,#21);
#21=APPLICATION_CONTEXT(
'core data for automotive mechanical design processes');
#22=SHAPE_REPRESENTATION('balloon_pipe_mold-None',(#1086),#1903);
#23=FACE_BOUND('',#292,.T.);
#24=FACE_BOUND('',#293,.T.);
#25=FACE_BOUND('',#294,.T.);
#26=FACE_BOUND('',#295,.T.);
#27=FACE_BOUND('',#297,.T.);
#28=FACE_BOUND('',#298,.T.);
#29=FACE_BOUND('',#299,.T.);
#30=FACE_BOUND('',#300,.T.);
#31=FACE_BOUND('',#301,.T.);
#32=FACE_BOUND('',#302,.T.);
#33=FACE_BOUND('',#304,.T.);
#34=FACE_BOUND('',#305,.T.);
#35=PRESENTATION_LAYER_ASSIGNMENT('1','Layer 1',(#58,#59,#60));
#36=STYLED_ITEM('',(#39),#58);
#37=STYLED_ITEM('',(#40),#59);
#38=STYLED_ITEM('',(#41),#60);
#39=PRESENTATION_STYLE_ASSIGNMENT((#42));
#40=PRESENTATION_STYLE_ASSIGNMENT((#43));
#41=PRESENTATION_STYLE_ASSIGNMENT((#44));
#42=SURFACE_STYLE_USAGE(.BOTH.,#45);
#43=SURFACE_STYLE_USAGE(.BOTH.,#46);
#44=SURFACE_STYLE_USAGE(.BOTH.,#47);
#45=SURFACE_SIDE_STYLE('',(#48));
#46=SURFACE_SIDE_STYLE('',(#49));
#47=SURFACE_SIDE_STYLE('',(#50));
#48=SURFACE_STYLE_FILL_AREA(#51);
#49=SURFACE_STYLE_FILL_AREA(#52);
#50=SURFACE_STYLE_FILL_AREA(#53);
#51=FILL_AREA_STYLE('',(#54));
#52=FILL_AREA_STYLE('',(#55));
#53=FILL_AREA_STYLE('',(#56));
#54=FILL_AREA_STYLE_COLOUR('',#57);
#55=FILL_AREA_STYLE_COLOUR('',#57);
#56=FILL_AREA_STYLE_COLOUR('',#57);
#57=COLOUR_RGB('medium steel',0.596078431372549,0.666666666666667,0.686274509803922);
#58=MANIFOLD_SOLID_BREP('',#61);
#59=MANIFOLD_SOLID_BREP('',#62);
#60=MANIFOLD_SOLID_BREP('',#63);
#61=CLOSED_SHELL('',(#103,#104,#105,#106,#107,#108,#109,#110,#111,#112,
#113,#114,#115,#116,#117,#118,#119,#120,#121,#122,#123,#124));
#62=CLOSED_SHELL('',(#125,#126,#127,#128,#129,#130,#131,#132,#133,#134,
#135,#136,#137,#138,#139,#140,#141,#142,#143,#144,#145,#146));
#63=CLOSED_SHELL('',(#147,#148,#149,#150,#151,#152,#153,#154,#155,#156,
#157,#158,#159,#160,#161,#162));
#64=CONICAL_SURFACE('',#1122,0.25,59.);
#65=CONICAL_SURFACE('',#1125,0.25,59.);
#66=CONICAL_SURFACE('',#1128,0.25,59.);
#67=CONICAL_SURFACE('',#1165,0.25,59.);
#68=CONICAL_SURFACE('',#1168,0.25,59.);
#69=CONICAL_SURFACE('',#1171,0.25,59.);
#70=B_SPLINE_CURVE_WITH_KNOTS('',3,(#1590,#1591,#1592,#1593,#1594,#1595,
#1596,#1597,#1598,#1599,#1600,#1601,#1602),.UNSPECIFIED.,.F.,.F.,(4,3,3,
3,4),(0.,0.326864548670992,0.552038171086817,0.840340356103404,1.),
 .UNSPECIFIED.);
#71=B_SPLINE_CURVE_WITH_KNOTS('',3,(#1608,#1609,#1610,#1611,#1612,#1613,
#1614),.UNSPECIFIED.,.F.,.F.,(4,3,4),(0.,0.750161911419529,1.),
 .UNSPECIFIED.);
#72=B_SPLINE_CURVE_WITH_KNOTS('',3,(#1619,#1620,#1621,#1622,#1623,#1624,
#1625),.UNSPECIFIED.,.F.,.F.,(4,3,4),(0.,0.455578869612381,1.),
 .UNSPECIFIED.);
#73=B_SPLINE_CURVE_WITH_KNOTS('',3,(#1769,#1770,#1771,#1772,#1773,#1774,
#1775),.UNSPECIFIED.,.F.,.F.,(4,3,4),(0.,0.455578869612348,1.),
 .UNSPECIFIED.);
#74=B_SPLINE_CURVE_WITH_KNOTS('',3,(#1780,#1781,#1782,#1783,#1784,#1785,
#1786,#1787,#1788,#1789,#1790,#1791,#1792),.UNSPECIFIED.,.F.,.F.,(4,3,3,
3,4),(0.,0.326864548671042,0.552038171086914,0.840340356103648,1.),
 .UNSPECIFIED.);
#75=B_SPLINE_CURVE_WITH_KNOTS('',3,(#1797,#1798,#1799,#1800,#1801,#1802,
#1803),.UNSPECIFIED.,.F.,.F.,(4,3,4),(0.,0.750161911419503,1.),
 .UNSPECIFIED.);
#76=CYLINDRICAL_SURFACE('',#1098,2.57454210575602);
#77=CYLINDRICAL_SURFACE('',#1101,3.15);
#78=CYLINDRICAL_SURFACE('',#1105,2.72);
#79=CYLINDRICAL_SURFACE('',#1119,2.57454210575602);
#80=CYLINDRICAL_SURFACE('',#1120,2.57454210575602);
#81=CYLINDRICAL_SURFACE('',#1123,0.25);
#82=CYLINDRICAL_SURFACE('',#1126,0.25);
#83=CYLINDRICAL_SURFACE('',#1129,0.25);
#84=CYLINDRICAL_SURFACE('',#1142,2.57454210575602);
#85=CYLINDRICAL_SURFACE('',#1153,2.72);
#86=CYLINDRICAL_SURFACE('',#1156,3.15);
#87=CYLINDRICAL_SURFACE('',#1162,2.57454210575602);
#88=CYLINDRICAL_SURFACE('',#1163,2.57454210575602);
#89=CYLINDRICAL_SURFACE('',#1166,0.25);
#90=CYLINDRICAL_SURFACE('',#1169,0.25);
#91=CYLINDRICAL_SURFACE('',#1172,0.25);
#92=CYLINDRICAL_SURFACE('',#1183,2.57454210575602);
#93=CYLINDRICAL_SURFACE('',#1185,2.57454210575602);
#94=CYLINDRICAL_SURFACE('',#1187,2.57454210575602);
#95=CYLINDRICAL_SURFACE('',#1201,2.43);
#96=CYLINDRICAL_SURFACE('',#1204,2.);
#97=CYLINDRICAL_SURFACE('',#1205,2.57454210575602);
#98=CYLINDRICAL_SURFACE('',#1206,2.57454210575602);
#99=CYLINDRICAL_SURFACE('',#1207,0.25);
#100=CYLINDRICAL_SURFACE('',#1208,0.25);
#101=CYLINDRICAL_SURFACE('',#1209,0.25);
#102=CYLINDRICAL_SURFACE('',#1210,0.25);
#103=ADVANCED_FACE('',(#190),#163,.T.);
#104=ADVANCED_FACE('',(#191),#164,.F.);
#105=ADVANCED_FACE('',(#192),#76,.F.);
#106=ADVANCED_FACE('',(#193),#77,.F.);
#107=ADVANCED_FACE('',(#194),#165,.F.);
#108=ADVANCED_FACE('',(#195),#78,.F.);
#109=ADVANCED_FACE('',(#196),#166,.T.);
#110=ADVANCED_FACE('',(#197),#167,.T.);
#111=ADVANCED_FACE('',(#198),#168,.T.);
#112=ADVANCED_FACE('',(#199),#169,.F.);
#113=ADVANCED_FACE('',(#200),#170,.F.);
#114=ADVANCED_FACE('',(#201),#171,.F.);
#115=ADVANCED_FACE('',(#202),#172,.F.);
#116=ADVANCED_FACE('',(#203),#173,.T.);
#117=ADVANCED_FACE('',(#204),#79,.F.);
#118=ADVANCED_FACE('',(#205),#80,.F.);
#119=ADVANCED_FACE('',(#206),#64,.F.);
#120=ADVANCED_FACE('',(#207),#81,.F.);
#121=ADVANCED_FACE('',(#208),#65,.F.);
#122=ADVANCED_FACE('',(#209),#82,.F.);
#123=ADVANCED_FACE('',(#210),#66,.F.);
#124=ADVANCED_FACE('',(#211),#83,.F.);
#125=ADVANCED_FACE('',(#212),#174,.T.);
#126=ADVANCED_FACE('',(#213),#175,.F.);
#127=ADVANCED_FACE('',(#214),#84,.F.);
#128=ADVANCED_FACE('',(#215),#176,.T.);
#129=ADVANCED_FACE('',(#216),#177,.T.);
#130=ADVANCED_FACE('',(#217),#178,.T.);
#131=ADVANCED_FACE('',(#218),#179,.F.);
#132=ADVANCED_FACE('',(#219),#85,.F.);
#133=ADVANCED_FACE('',(#220),#180,.F.);
#134=ADVANCED_FACE('',(#221),#86,.F.);
#135=ADVANCED_FACE('',(#222),#181,.T.);
#136=ADVANCED_FACE('',(#223),#182,.F.);
#137=ADVANCED_FACE('',(#224),#183,.T.);
#138=ADVANCED_FACE('',(#225),#184,.T.);
#139=ADVANCED_FACE('',(#226),#87,.F.);
#140=ADVANCED_FACE('',(#227),#88,.F.);
#141=ADVANCED_FACE('',(#228),#67,.F.);
#142=ADVANCED_FACE('',(#229),#89,.F.);
#143=ADVANCED_FACE('',(#230),#68,.F.);
#144=ADVANCED_FACE('',(#231),#90,.F.);
#145=ADVANCED_FACE('',(#232),#69,.F.);
#146=ADVANCED_FACE('',(#233),#91,.F.);
#147=ADVANCED_FACE('',(#234),#185,.T.);
#148=ADVANCED_FACE('',(#235),#92,.T.);
#149=ADVANCED_FACE('',(#236),#93,.T.);
#150=ADVANCED_FACE('',(#237),#94,.T.);
#151=ADVANCED_FACE('',(#23,#24),#186,.T.);
#152=ADVANCED_FACE('',(#25,#26),#187,.F.);
#153=ADVANCED_FACE('',(#238),#188,.F.);
#154=ADVANCED_FACE('',(#27,#28),#95,.T.);
#155=ADVANCED_FACE('',(#29,#30),#189,.T.);
#156=ADVANCED_FACE('',(#31,#32),#96,.T.);
#157=ADVANCED_FACE('',(#239),#97,.T.);
#158=ADVANCED_FACE('',(#33,#34),#98,.T.);
#159=ADVANCED_FACE('',(#240),#99,.F.);
#160=ADVANCED_FACE('',(#241),#100,.F.);
#161=ADVANCED_FACE('',(#242),#101,.F.);
#162=ADVANCED_FACE('',(#243),#102,.F.);
#163=PLANE('',#1092);
#164=PLANE('',#1097);
#165=PLANE('',#1103);
#166=PLANE('',#1106);
#167=PLANE('',#1107);
#168=PLANE('',#1108);
#169=PLANE('',#1110);
#170=PLANE('',#1111);
#171=PLANE('',#1112);
#172=PLANE('',#1116);
#173=PLANE('',#1118);
#174=PLANE('',#1135);
#175=PLANE('',#1140);
#176=PLANE('',#1143);
#177=PLANE('',#1144);
#178=PLANE('',#1147);
#179=PLANE('',#1151);
#180=PLANE('',#1155);
#181=PLANE('',#1157);
#182=PLANE('',#1159);
#183=PLANE('',#1160);
#184=PLANE('',#1161);
#185=PLANE('',#1181);
#186=PLANE('',#1190);
#187=PLANE('',#1197);
#188=PLANE('',#1199);
#189=PLANE('',#1203);
#190=FACE_OUTER_BOUND('',#244,.T.);
#191=FACE_OUTER_BOUND('',#245,.T.);
#192=FACE_OUTER_BOUND('',#246,.T.);
#193=FACE_OUTER_BOUND('',#247,.T.);
#194=FACE_OUTER_BOUND('',#248,.T.);
#195=FACE_OUTER_BOUND('',#249,.T.);
#196=FACE_OUTER_BOUND('',#250,.T.);
#197=FACE_OUTER_BOUND('',#251,.T.);
#198=FACE_OUTER_BOUND('',#252,.T.);
#199=FACE_OUTER_BOUND('',#253,.T.);
#200=FACE_OUTER_BOUND('',#254,.T.);
#201=FACE_OUTER_BOUND('',#255,.T.);
#202=FACE_OUTER_BOUND('',#256,.T.);
#203=FACE_OUTER_BOUND('',#257,.T.);
#204=FACE_OUTER_BOUND('',#258,.T.);
#205=FACE_OUTER_BOUND('',#259,.T.);
#206=FACE_OUTER_BOUND('',#260,.T.);
#207=FACE_OUTER_BOUND('',#261,.T.);
#208=FACE_OUTER_BOUND('',#262,.T.);
#209=FACE_OUTER_BOUND('',#263,.T.);
#210=FACE_OUTER_BOUND('',#264,.T.);
#211=FACE_OUTER_BOUND('',#265,.T.);
#212=FACE_OUTER_BOUND('',#266,.T.);
#213=FACE_OUTER_BOUND('',#267,.T.);
#214=FACE_OUTER_BOUND('',#268,.T.);
#215=FACE_OUTER_BOUND('',#269,.T.);
#216=FACE_OUTER_BOUND('',#270,.T.);
#217=FACE_OUTER_BOUND('',#271,.T.);
#218=FACE_OUTER_BOUND('',#272,.T.);
#219=FACE_OUTER_BOUND('',#273,.T.);
#220=FACE_OUTER_BOUND('',#274,.T.);
#221=FACE_OUTER_BOUND('',#275,.T.);
#222=FACE_OUTER_BOUND('',#276,.T.);
#223=FACE_OUTER_BOUND('',#277,.T.);
#224=FACE_OUTER_BOUND('',#278,.T.);
#225=FACE_OUTER_BOUND('',#279,.T.);
#226=FACE_OUTER_BOUND('',#280,.T.);
#227=FACE_OUTER_BOUND('',#281,.T.);
#228=FACE_OUTER_BOUND('',#282,.T.);
#229=FACE_OUTER_BOUND('',#283,.T.);
#230=FACE_OUTER_BOUND('',#284,.T.);
#231=FACE_OUTER_BOUND('',#285,.T.);
#232=FACE_OUTER_BOUND('',#286,.T.);
#233=FACE_OUTER_BOUND('',#287,.T.);
#234=FACE_OUTER_BOUND('',#288,.T.);
#235=FACE_OUTER_BOUND('',#289,.T.);
#236=FACE_OUTER_BOUND('',#290,.T.);
#237=FACE_OUTER_BOUND('',#291,.T.);
#238=FACE_OUTER_BOUND('',#296,.T.);
#239=FACE_OUTER_BOUND('',#303,.T.);
#240=FACE_OUTER_BOUND('',#306,.T.);
#241=FACE_OUTER_BOUND('',#307,.T.);
#242=FACE_OUTER_BOUND('',#308,.T.);
#243=FACE_OUTER_BOUND('',#309,.T.);
#244=EDGE_LOOP('',(#470,#471,#472,#473,#474,#475,#476,#477,#478,#479));
#245=EDGE_LOOP('',(#480,#481,#482,#483));
#246=EDGE_LOOP('',(#484,#485,#486,#487));
#247=EDGE_LOOP('',(#488,#489,#490,#491));
#248=EDGE_LOOP('',(#492,#493,#494,#495));
#249=EDGE_LOOP('',(#496,#497,#498,#499,#500,#501,#502,#503,#504,#505,#506,
#507));
#250=EDGE_LOOP('',(#508,#509,#510,#511));
#251=EDGE_LOOP('',(#512,#513,#514,#515));
#252=EDGE_LOOP('',(#516,#517,#518,#519));
#253=EDGE_LOOP('',(#520,#521,#522,#523,#524,#525));
#254=EDGE_LOOP('',(#526,#527,#528,#529,#530,#531,#532,#533,#534,#535));
#255=EDGE_LOOP('',(#536,#537,#538,#539,#540,#541,#542,#543,#544,#545));
#256=EDGE_LOOP('',(#546,#547,#548,#549));
#257=EDGE_LOOP('',(#550,#551,#552,#553));
#258=EDGE_LOOP('',(#554,#555,#556,#557));
#259=EDGE_LOOP('',(#558,#559,#560,#561));
#260=EDGE_LOOP('',(#562,#563,#564));
#261=EDGE_LOOP('',(#565,#566,#567,#568,#569,#570));
#262=EDGE_LOOP('',(#571,#572,#573));
#263=EDGE_LOOP('',(#574,#575,#576,#577,#578,#579));
#264=EDGE_LOOP('',(#580,#581));
#265=EDGE_LOOP('',(#582,#583,#584,#585,#586,#587,#588,#589));
#266=EDGE_LOOP('',(#590,#591,#592,#593,#594,#595,#596,#597,#598,#599));
#267=EDGE_LOOP('',(#600,#601,#602,#603));
#268=EDGE_LOOP('',(#604,#605,#606,#607));
#269=EDGE_LOOP('',(#608,#609,#610,#611,#612,#613,#614,#615,#616,#617));
#270=EDGE_LOOP('',(#618,#619,#620,#621,#622,#623,#624,#625,#626,#627));
#271=EDGE_LOOP('',(#628,#629,#630,#631));
#272=EDGE_LOOP('',(#632,#633,#634,#635));
#273=EDGE_LOOP('',(#636,#637,#638,#639,#640,#641,#642,#643,#644,#645,#646,
#647));
#274=EDGE_LOOP('',(#648,#649,#650,#651));
#275=EDGE_LOOP('',(#652,#653,#654,#655));
#276=EDGE_LOOP('',(#656,#657,#658,#659));
#277=EDGE_LOOP('',(#660,#661,#662,#663,#664,#665));
#278=EDGE_LOOP('',(#666,#667,#668,#669));
#279=EDGE_LOOP('',(#670,#671,#672,#673));
#280=EDGE_LOOP('',(#674,#675,#676,#677));
#281=EDGE_LOOP('',(#678,#679,#680,#681));
#282=EDGE_LOOP('',(#682,#683));
#283=EDGE_LOOP('',(#684,#685,#686,#687,#688,#689,#690,#691));
#284=EDGE_LOOP('',(#692,#693,#694));
#285=EDGE_LOOP('',(#695,#696,#697,#698,#699,#700));
#286=EDGE_LOOP('',(#701,#702,#703));
#287=EDGE_LOOP('',(#704,#705,#706,#707,#708,#709));
#288=EDGE_LOOP('',(#710,#711,#712,#713,#714,#715,#716,#717));
#289=EDGE_LOOP('',(#718,#719,#720,#721));
#290=EDGE_LOOP('',(#722,#723,#724,#725));
#291=EDGE_LOOP('',(#726,#727,#728,#729));
#292=EDGE_LOOP('',(#730));
#293=EDGE_LOOP('',(#731));
#294=EDGE_LOOP('',(#732,#733,#734,#735,#736,#737,#738,#739));
#295=EDGE_LOOP('',(#740));
#296=EDGE_LOOP('',(#741));
#297=EDGE_LOOP('',(#742));
#298=EDGE_LOOP('',(#743));
#299=EDGE_LOOP('',(#744));
#300=EDGE_LOOP('',(#745));
#301=EDGE_LOOP('',(#746));
#302=EDGE_LOOP('',(#747));
#303=EDGE_LOOP('',(#748,#749,#750,#751));
#304=EDGE_LOOP('',(#752));
#305=EDGE_LOOP('',(#753));
#306=EDGE_LOOP('',(#754,#755,#756,#757));
#307=EDGE_LOOP('',(#758,#759,#760,#761));
#308=EDGE_LOOP('',(#762,#763,#764,#765));
#309=EDGE_LOOP('',(#766,#767,#768,#769));
#310=LINE('',#1551,#390);
#311=LINE('',#1553,#391);
#312=LINE('',#1555,#392);
#313=LINE('',#1557,#393);
#314=LINE('',#1559,#394);
#315=LINE('',#1572,#395);
#316=LINE('',#1573,#396);
#317=LINE('',#1578,#397);
#318=LINE('',#1582,#398);
#319=LINE('',#1584,#399);
#320=LINE('',#1588,#400);
#321=LINE('',#1605,#401);
#322=LINE('',#1606,#402);
#323=LINE('',#1616,#403);
#324=LINE('',#1617,#404);
#325=LINE('',#1627,#405);
#326=LINE('',#1631,#406);
#327=LINE('',#1633,#407);
#328=LINE('',#1635,#408);
#329=LINE('',#1637,#409);
#330=LINE('',#1639,#410);
#331=LINE('',#1641,#411);
#332=LINE('',#1643,#412);
#333=LINE('',#1645,#413);
#334=LINE('',#1647,#414);
#335=LINE('',#1651,#415);
#336=LINE('',#1653,#416);
#337=LINE('',#1655,#417);
#338=LINE('',#1656,#418);
#339=LINE('',#1658,#419);
#340=LINE('',#1660,#420);
#341=LINE('',#1662,#421);
#342=LINE('',#1663,#422);
#343=LINE('',#1665,#423);
#344=LINE('',#1675,#424);
#345=LINE('',#1676,#425);
#346=LINE('',#1693,#426);
#347=LINE('',#1695,#427);
#348=LINE('',#1697,#428);
#349=LINE('',#1699,#429);
#350=LINE('',#1701,#430);
#351=LINE('',#1718,#431);
#352=LINE('',#1722,#432);
#353=LINE('',#1724,#433);
#354=LINE('',#1727,#434);
#355=LINE('',#1729,#435);
#356=LINE('',#1731,#436);
#357=LINE('',#1733,#437);
#358=LINE('',#1735,#438);
#359=LINE('',#1737,#439);
#360=LINE('',#1739,#440);
#361=LINE('',#1740,#441);
#362=LINE('',#1742,#442);
#363=LINE('',#1745,#443);
#364=LINE('',#1746,#444);
#365=LINE('',#1748,#445);
#366=LINE('',#1750,#446);
#367=LINE('',#1752,#447);
#368=LINE('',#1754,#448);
#369=LINE('',#1756,#449);
#370=LINE('',#1758,#450);
#371=LINE('',#1777,#451);
#372=LINE('',#1778,#452);
#373=LINE('',#1794,#453);
#374=LINE('',#1795,#454);
#375=LINE('',#1809,#455);
#376=LINE('',#1811,#456);
#377=LINE('',#1813,#457);
#378=LINE('',#1816,#458);
#379=LINE('',#1817,#459);
#380=LINE('',#1821,#460);
#381=LINE('',#1822,#461);
#382=LINE('',#1851,#462);
#383=LINE('',#1855,#463);
#384=LINE('',#1857,#464);
#385=LINE('',#1861,#465);
#386=LINE('',#1863,#466);
#387=LINE('',#1865,#467);
#388=LINE('',#1894,#468);
#389=LINE('',#1895,#469);
#390=VECTOR('',#1221,1.);
#391=VECTOR('',#1222,1.);
#392=VECTOR('',#1223,1.);
#393=VECTOR('',#1224,1.);
#394=VECTOR('',#1225,1.);
#395=VECTOR('',#1240,1.);
#396=VECTOR('',#1241,1.);
#397=VECTOR('',#1246,1.);
#398=VECTOR('',#1249,1.);
#399=VECTOR('',#1252,1.);
#400=VECTOR('',#1255,1.);
#401=VECTOR('',#1258,1.);
#402=VECTOR('',#1259,1.);
#403=VECTOR('',#1260,1.);
#404=VECTOR('',#1261,1.);
#405=VECTOR('',#1262,1.);
#406=VECTOR('',#1265,1.);
#407=VECTOR('',#1268,1.);
#408=VECTOR('',#1269,1.);
#409=VECTOR('',#1270,1.);
#410=VECTOR('',#1273,1.);
#411=VECTOR('',#1274,1.);
#412=VECTOR('',#1277,1.);
#413=VECTOR('',#1278,1.);
#414=VECTOR('',#1281,1.);
#415=VECTOR('',#1284,1.);
#416=VECTOR('',#1287,1.);
#417=VECTOR('',#1288,1.);
#418=VECTOR('',#1289,1.);
#419=VECTOR('',#1290,1.);
#420=VECTOR('',#1293,1.);
#421=VECTOR('',#1294,1.);
#422=VECTOR('',#1295,1.);
#423=VECTOR('',#1296,1.);
#424=VECTOR('',#1311,1.);
#425=VECTOR('',#1312,1.);
#426=VECTOR('',#1339,1.);
#427=VECTOR('',#1340,1.);
#428=VECTOR('',#1341,1.);
#429=VECTOR('',#1342,1.);
#430=VECTOR('',#1343,1.);
#431=VECTOR('',#1362,1.);
#432=VECTOR('',#1365,1.);
#433=VECTOR('',#1368,1.);
#434=VECTOR('',#1369,1.);
#435=VECTOR('',#1370,1.);
#436=VECTOR('',#1371,1.);
#437=VECTOR('',#1372,1.);
#438=VECTOR('',#1373,1.);
#439=VECTOR('',#1374,1.);
#440=VECTOR('',#1375,1.);
#441=VECTOR('',#1376,1.);
#442=VECTOR('',#1379,1.);
#443=VECTOR('',#1380,1.);
#444=VECTOR('',#1381,1.);
#445=VECTOR('',#1382,1.);
#446=VECTOR('',#1383,1.);
#447=VECTOR('',#1384,1.);
#448=VECTOR('',#1385,1.);
#449=VECTOR('',#1386,1.);
#450=VECTOR('',#1387,1.);
#451=VECTOR('',#1404,1.);
#452=VECTOR('',#1405,1.);
#453=VECTOR('',#1406,1.);
#454=VECTOR('',#1407,1.);
#455=VECTOR('',#1418,1.);
#456=VECTOR('',#1419,1.);
#457=VECTOR('',#1420,1.);
#458=VECTOR('',#1425,1.);
#459=VECTOR('',#1426,1.);
#460=VECTOR('',#1433,1.);
#461=VECTOR('',#1434,1.);
#462=VECTOR('',#1475,1.);
#463=VECTOR('',#1478,1.);
#464=VECTOR('',#1481,1.);
#465=VECTOR('',#1484,1.);
#466=VECTOR('',#1487,1.);
#467=VECTOR('',#1488,1.);
#468=VECTOR('',#1527,1.);
#469=VECTOR('',#1528,1.);
#470=ORIENTED_EDGE('',*,*,#872,.T.);
#471=ORIENTED_EDGE('',*,*,#873,.T.);
#472=ORIENTED_EDGE('',*,*,#874,.T.);
#473=ORIENTED_EDGE('',*,*,#875,.T.);
#474=ORIENTED_EDGE('',*,*,#876,.T.);
#475=ORIENTED_EDGE('',*,*,#877,.T.);
#476=ORIENTED_EDGE('',*,*,#878,.T.);
#477=ORIENTED_EDGE('',*,*,#879,.T.);
#478=ORIENTED_EDGE('',*,*,#880,.T.);
#479=ORIENTED_EDGE('',*,*,#881,.T.);
#480=ORIENTED_EDGE('',*,*,#882,.F.);
#481=ORIENTED_EDGE('',*,*,#883,.T.);
#482=ORIENTED_EDGE('',*,*,#884,.F.);
#483=ORIENTED_EDGE('',*,*,#885,.T.);
#484=ORIENTED_EDGE('',*,*,#884,.T.);
#485=ORIENTED_EDGE('',*,*,#886,.T.);
#486=ORIENTED_EDGE('',*,*,#872,.F.);
#487=ORIENTED_EDGE('',*,*,#887,.T.);
#488=ORIENTED_EDGE('',*,*,#888,.F.);
#489=ORIENTED_EDGE('',*,*,#889,.T.);
#490=ORIENTED_EDGE('',*,*,#890,.T.);
#491=ORIENTED_EDGE('',*,*,#891,.T.);
#492=ORIENTED_EDGE('',*,*,#888,.T.);
#493=ORIENTED_EDGE('',*,*,#892,.F.);
#494=ORIENTED_EDGE('',*,*,#893,.T.);
#495=ORIENTED_EDGE('',*,*,#894,.F.);
#496=ORIENTED_EDGE('',*,*,#895,.T.);
#497=ORIENTED_EDGE('',*,*,#896,.T.);
#498=ORIENTED_EDGE('',*,*,#882,.T.);
#499=ORIENTED_EDGE('',*,*,#897,.T.);
#500=ORIENTED_EDGE('',*,*,#898,.T.);
#501=ORIENTED_EDGE('',*,*,#899,.T.);
#502=ORIENTED_EDGE('',*,*,#893,.F.);
#503=ORIENTED_EDGE('',*,*,#900,.T.);
#504=ORIENTED_EDGE('',*,*,#901,.T.);
#505=ORIENTED_EDGE('',*,*,#902,.T.);
#506=ORIENTED_EDGE('',*,*,#903,.T.);
#507=ORIENTED_EDGE('',*,*,#904,.T.);
#508=ORIENTED_EDGE('',*,*,#905,.F.);
#509=ORIENTED_EDGE('',*,*,#879,.F.);
#510=ORIENTED_EDGE('',*,*,#906,.F.);
#511=ORIENTED_EDGE('',*,*,#907,.T.);
#512=ORIENTED_EDGE('',*,*,#878,.F.);
#513=ORIENTED_EDGE('',*,*,#908,.F.);
#514=ORIENTED_EDGE('',*,*,#909,.T.);
#515=ORIENTED_EDGE('',*,*,#906,.T.);
#516=ORIENTED_EDGE('',*,*,#910,.F.);
#517=ORIENTED_EDGE('',*,*,#911,.T.);
#518=ORIENTED_EDGE('',*,*,#908,.T.);
#519=ORIENTED_EDGE('',*,*,#877,.F.);
#520=ORIENTED_EDGE('',*,*,#912,.T.);
#521=ORIENTED_EDGE('',*,*,#913,.F.);
#522=ORIENTED_EDGE('',*,*,#914,.T.);
#523=ORIENTED_EDGE('',*,*,#907,.F.);
#524=ORIENTED_EDGE('',*,*,#909,.F.);
#525=ORIENTED_EDGE('',*,*,#911,.F.);
#526=ORIENTED_EDGE('',*,*,#915,.T.);
#527=ORIENTED_EDGE('',*,*,#916,.T.);
#528=ORIENTED_EDGE('',*,*,#900,.F.);
#529=ORIENTED_EDGE('',*,*,#892,.T.);
#530=ORIENTED_EDGE('',*,*,#891,.F.);
#531=ORIENTED_EDGE('',*,*,#917,.T.);
#532=ORIENTED_EDGE('',*,*,#918,.T.);
#533=ORIENTED_EDGE('',*,*,#912,.F.);
#534=ORIENTED_EDGE('',*,*,#910,.T.);
#535=ORIENTED_EDGE('',*,*,#876,.F.);
#536=ORIENTED_EDGE('',*,*,#899,.F.);
#537=ORIENTED_EDGE('',*,*,#919,.T.);
#538=ORIENTED_EDGE('',*,*,#920,.T.);
#539=ORIENTED_EDGE('',*,*,#880,.F.);
#540=ORIENTED_EDGE('',*,*,#905,.T.);
#541=ORIENTED_EDGE('',*,*,#914,.F.);
#542=ORIENTED_EDGE('',*,*,#921,.T.);
#543=ORIENTED_EDGE('',*,*,#922,.T.);
#544=ORIENTED_EDGE('',*,*,#889,.F.);
#545=ORIENTED_EDGE('',*,*,#894,.T.);
#546=ORIENTED_EDGE('',*,*,#923,.F.);
#547=ORIENTED_EDGE('',*,*,#924,.T.);
#548=ORIENTED_EDGE('',*,*,#903,.F.);
#549=ORIENTED_EDGE('',*,*,#925,.T.);
#550=ORIENTED_EDGE('',*,*,#926,.T.);
#551=ORIENTED_EDGE('',*,*,#917,.F.);
#552=ORIENTED_EDGE('',*,*,#890,.F.);
#553=ORIENTED_EDGE('',*,*,#922,.F.);
#554=ORIENTED_EDGE('',*,*,#874,.F.);
#555=ORIENTED_EDGE('',*,*,#927,.T.);
#556=ORIENTED_EDGE('',*,*,#923,.T.);
#557=ORIENTED_EDGE('',*,*,#928,.T.);
#558=ORIENTED_EDGE('',*,*,#926,.F.);
#559=ORIENTED_EDGE('',*,*,#921,.F.);
#560=ORIENTED_EDGE('',*,*,#913,.T.);
#561=ORIENTED_EDGE('',*,*,#918,.F.);
#562=ORIENTED_EDGE('',*,*,#916,.F.);
#563=ORIENTED_EDGE('',*,*,#929,.T.);
#564=ORIENTED_EDGE('',*,*,#901,.F.);
#565=ORIENTED_EDGE('',*,*,#875,.F.);
#566=ORIENTED_EDGE('',*,*,#928,.F.);
#567=ORIENTED_EDGE('',*,*,#925,.F.);
#568=ORIENTED_EDGE('',*,*,#902,.F.);
#569=ORIENTED_EDGE('',*,*,#929,.F.);
#570=ORIENTED_EDGE('',*,*,#915,.F.);
#571=ORIENTED_EDGE('',*,*,#930,.T.);
#572=ORIENTED_EDGE('',*,*,#919,.F.);
#573=ORIENTED_EDGE('',*,*,#898,.F.);
#574=ORIENTED_EDGE('',*,*,#930,.F.);
#575=ORIENTED_EDGE('',*,*,#897,.F.);
#576=ORIENTED_EDGE('',*,*,#885,.F.);
#577=ORIENTED_EDGE('',*,*,#887,.F.);
#578=ORIENTED_EDGE('',*,*,#881,.F.);
#579=ORIENTED_EDGE('',*,*,#920,.F.);
#580=ORIENTED_EDGE('',*,*,#931,.T.);
#581=ORIENTED_EDGE('',*,*,#895,.F.);
#582=ORIENTED_EDGE('',*,*,#931,.F.);
#583=ORIENTED_EDGE('',*,*,#904,.F.);
#584=ORIENTED_EDGE('',*,*,#924,.F.);
#585=ORIENTED_EDGE('',*,*,#927,.F.);
#586=ORIENTED_EDGE('',*,*,#873,.F.);
#587=ORIENTED_EDGE('',*,*,#886,.F.);
#588=ORIENTED_EDGE('',*,*,#883,.F.);
#589=ORIENTED_EDGE('',*,*,#896,.F.);
#590=ORIENTED_EDGE('',*,*,#932,.T.);
#591=ORIENTED_EDGE('',*,*,#933,.T.);
#592=ORIENTED_EDGE('',*,*,#934,.T.);
#593=ORIENTED_EDGE('',*,*,#935,.T.);
#594=ORIENTED_EDGE('',*,*,#936,.T.);
#595=ORIENTED_EDGE('',*,*,#937,.T.);
#596=ORIENTED_EDGE('',*,*,#938,.T.);
#597=ORIENTED_EDGE('',*,*,#939,.T.);
#598=ORIENTED_EDGE('',*,*,#940,.T.);
#599=ORIENTED_EDGE('',*,*,#941,.T.);
#600=ORIENTED_EDGE('',*,*,#942,.F.);
#601=ORIENTED_EDGE('',*,*,#943,.T.);
#602=ORIENTED_EDGE('',*,*,#944,.F.);
#603=ORIENTED_EDGE('',*,*,#945,.T.);
#604=ORIENTED_EDGE('',*,*,#940,.F.);
#605=ORIENTED_EDGE('',*,*,#946,.T.);
#606=ORIENTED_EDGE('',*,*,#947,.T.);
#607=ORIENTED_EDGE('',*,*,#948,.T.);
#608=ORIENTED_EDGE('',*,*,#949,.F.);
#609=ORIENTED_EDGE('',*,*,#950,.F.);
#610=ORIENTED_EDGE('',*,*,#951,.T.);
#611=ORIENTED_EDGE('',*,*,#952,.F.);
#612=ORIENTED_EDGE('',*,*,#953,.T.);
#613=ORIENTED_EDGE('',*,*,#954,.T.);
#614=ORIENTED_EDGE('',*,*,#955,.F.);
#615=ORIENTED_EDGE('',*,*,#956,.T.);
#616=ORIENTED_EDGE('',*,*,#934,.F.);
#617=ORIENTED_EDGE('',*,*,#957,.F.);
#618=ORIENTED_EDGE('',*,*,#958,.F.);
#619=ORIENTED_EDGE('',*,*,#959,.F.);
#620=ORIENTED_EDGE('',*,*,#938,.F.);
#621=ORIENTED_EDGE('',*,*,#960,.T.);
#622=ORIENTED_EDGE('',*,*,#961,.F.);
#623=ORIENTED_EDGE('',*,*,#962,.T.);
#624=ORIENTED_EDGE('',*,*,#963,.T.);
#625=ORIENTED_EDGE('',*,*,#964,.F.);
#626=ORIENTED_EDGE('',*,*,#965,.T.);
#627=ORIENTED_EDGE('',*,*,#966,.F.);
#628=ORIENTED_EDGE('',*,*,#967,.T.);
#629=ORIENTED_EDGE('',*,*,#953,.F.);
#630=ORIENTED_EDGE('',*,*,#968,.F.);
#631=ORIENTED_EDGE('',*,*,#963,.F.);
#632=ORIENTED_EDGE('',*,*,#947,.F.);
#633=ORIENTED_EDGE('',*,*,#969,.T.);
#634=ORIENTED_EDGE('',*,*,#970,.F.);
#635=ORIENTED_EDGE('',*,*,#971,.T.);
#636=ORIENTED_EDGE('',*,*,#950,.T.);
#637=ORIENTED_EDGE('',*,*,#972,.T.);
#638=ORIENTED_EDGE('',*,*,#973,.T.);
#639=ORIENTED_EDGE('',*,*,#942,.T.);
#640=ORIENTED_EDGE('',*,*,#974,.T.);
#641=ORIENTED_EDGE('',*,*,#975,.T.);
#642=ORIENTED_EDGE('',*,*,#976,.T.);
#643=ORIENTED_EDGE('',*,*,#970,.T.);
#644=ORIENTED_EDGE('',*,*,#977,.T.);
#645=ORIENTED_EDGE('',*,*,#978,.T.);
#646=ORIENTED_EDGE('',*,*,#966,.T.);
#647=ORIENTED_EDGE('',*,*,#979,.F.);
#648=ORIENTED_EDGE('',*,*,#965,.F.);
#649=ORIENTED_EDGE('',*,*,#980,.T.);
#650=ORIENTED_EDGE('',*,*,#951,.F.);
#651=ORIENTED_EDGE('',*,*,#979,.T.);
#652=ORIENTED_EDGE('',*,*,#952,.T.);
#653=ORIENTED_EDGE('',*,*,#980,.F.);
#654=ORIENTED_EDGE('',*,*,#964,.T.);
#655=ORIENTED_EDGE('',*,*,#968,.T.);
#656=ORIENTED_EDGE('',*,*,#936,.F.);
#657=ORIENTED_EDGE('',*,*,#981,.F.);
#658=ORIENTED_EDGE('',*,*,#982,.T.);
#659=ORIENTED_EDGE('',*,*,#983,.T.);
#660=ORIENTED_EDGE('',*,*,#955,.T.);
#661=ORIENTED_EDGE('',*,*,#984,.F.);
#662=ORIENTED_EDGE('',*,*,#961,.T.);
#663=ORIENTED_EDGE('',*,*,#985,.F.);
#664=ORIENTED_EDGE('',*,*,#982,.F.);
#665=ORIENTED_EDGE('',*,*,#986,.F.);
#666=ORIENTED_EDGE('',*,*,#935,.F.);
#667=ORIENTED_EDGE('',*,*,#956,.F.);
#668=ORIENTED_EDGE('',*,*,#986,.T.);
#669=ORIENTED_EDGE('',*,*,#981,.T.);
#670=ORIENTED_EDGE('',*,*,#985,.T.);
#671=ORIENTED_EDGE('',*,*,#960,.F.);
#672=ORIENTED_EDGE('',*,*,#937,.F.);
#673=ORIENTED_EDGE('',*,*,#983,.F.);
#674=ORIENTED_EDGE('',*,*,#944,.T.);
#675=ORIENTED_EDGE('',*,*,#987,.T.);
#676=ORIENTED_EDGE('',*,*,#932,.F.);
#677=ORIENTED_EDGE('',*,*,#988,.T.);
#678=ORIENTED_EDGE('',*,*,#967,.F.);
#679=ORIENTED_EDGE('',*,*,#962,.F.);
#680=ORIENTED_EDGE('',*,*,#984,.T.);
#681=ORIENTED_EDGE('',*,*,#954,.F.);
#682=ORIENTED_EDGE('',*,*,#989,.T.);
#683=ORIENTED_EDGE('',*,*,#975,.F.);
#684=ORIENTED_EDGE('',*,*,#989,.F.);
#685=ORIENTED_EDGE('',*,*,#974,.F.);
#686=ORIENTED_EDGE('',*,*,#945,.F.);
#687=ORIENTED_EDGE('',*,*,#988,.F.);
#688=ORIENTED_EDGE('',*,*,#941,.F.);
#689=ORIENTED_EDGE('',*,*,#948,.F.);
#690=ORIENTED_EDGE('',*,*,#971,.F.);
#691=ORIENTED_EDGE('',*,*,#976,.F.);
#692=ORIENTED_EDGE('',*,*,#958,.T.);
#693=ORIENTED_EDGE('',*,*,#978,.F.);
#694=ORIENTED_EDGE('',*,*,#990,.T.);
#695=ORIENTED_EDGE('',*,*,#959,.T.);
#696=ORIENTED_EDGE('',*,*,#990,.F.);
#697=ORIENTED_EDGE('',*,*,#977,.F.);
#698=ORIENTED_EDGE('',*,*,#969,.F.);
#699=ORIENTED_EDGE('',*,*,#946,.F.);
#700=ORIENTED_EDGE('',*,*,#939,.F.);
#701=ORIENTED_EDGE('',*,*,#949,.T.);
#702=ORIENTED_EDGE('',*,*,#991,.T.);
#703=ORIENTED_EDGE('',*,*,#972,.F.);
#704=ORIENTED_EDGE('',*,*,#957,.T.);
#705=ORIENTED_EDGE('',*,*,#933,.F.);
#706=ORIENTED_EDGE('',*,*,#987,.F.);
#707=ORIENTED_EDGE('',*,*,#943,.F.);
#708=ORIENTED_EDGE('',*,*,#973,.F.);
#709=ORIENTED_EDGE('',*,*,#991,.F.);
#710=ORIENTED_EDGE('',*,*,#992,.T.);
#711=ORIENTED_EDGE('',*,*,#993,.T.);
#712=ORIENTED_EDGE('',*,*,#994,.T.);
#713=ORIENTED_EDGE('',*,*,#995,.T.);
#714=ORIENTED_EDGE('',*,*,#996,.T.);
#715=ORIENTED_EDGE('',*,*,#997,.T.);
#716=ORIENTED_EDGE('',*,*,#998,.T.);
#717=ORIENTED_EDGE('',*,*,#999,.T.);
#718=ORIENTED_EDGE('',*,*,#1000,.F.);
#719=ORIENTED_EDGE('',*,*,#1001,.T.);
#720=ORIENTED_EDGE('',*,*,#1002,.F.);
#721=ORIENTED_EDGE('',*,*,#994,.F.);
#722=ORIENTED_EDGE('',*,*,#1003,.F.);
#723=ORIENTED_EDGE('',*,*,#1004,.T.);
#724=ORIENTED_EDGE('',*,*,#1005,.F.);
#725=ORIENTED_EDGE('',*,*,#996,.F.);
#726=ORIENTED_EDGE('',*,*,#1006,.F.);
#727=ORIENTED_EDGE('',*,*,#992,.F.);
#728=ORIENTED_EDGE('',*,*,#1007,.F.);
#729=ORIENTED_EDGE('',*,*,#1008,.T.);
#730=ORIENTED_EDGE('',*,*,#1009,.T.);
#731=ORIENTED_EDGE('',*,*,#1010,.T.);
#732=ORIENTED_EDGE('',*,*,#1001,.F.);
#733=ORIENTED_EDGE('',*,*,#1011,.T.);
#734=ORIENTED_EDGE('',*,*,#1008,.F.);
#735=ORIENTED_EDGE('',*,*,#1012,.T.);
#736=ORIENTED_EDGE('',*,*,#1013,.F.);
#737=ORIENTED_EDGE('',*,*,#1014,.T.);
#738=ORIENTED_EDGE('',*,*,#1004,.F.);
#739=ORIENTED_EDGE('',*,*,#1015,.T.);
#740=ORIENTED_EDGE('',*,*,#1016,.T.);
#741=ORIENTED_EDGE('',*,*,#1017,.F.);
#742=ORIENTED_EDGE('',*,*,#1009,.F.);
#743=ORIENTED_EDGE('',*,*,#1018,.F.);
#744=ORIENTED_EDGE('',*,*,#1019,.F.);
#745=ORIENTED_EDGE('',*,*,#1018,.T.);
#746=ORIENTED_EDGE('',*,*,#1019,.T.);
#747=ORIENTED_EDGE('',*,*,#1016,.F.);
#748=ORIENTED_EDGE('',*,*,#1020,.F.);
#749=ORIENTED_EDGE('',*,*,#998,.F.);
#750=ORIENTED_EDGE('',*,*,#1021,.F.);
#751=ORIENTED_EDGE('',*,*,#1013,.T.);
#752=ORIENTED_EDGE('',*,*,#1017,.T.);
#753=ORIENTED_EDGE('',*,*,#1010,.F.);
#754=ORIENTED_EDGE('',*,*,#1021,.T.);
#755=ORIENTED_EDGE('',*,*,#997,.F.);
#756=ORIENTED_EDGE('',*,*,#1005,.T.);
#757=ORIENTED_EDGE('',*,*,#1014,.F.);
#758=ORIENTED_EDGE('',*,*,#1007,.T.);
#759=ORIENTED_EDGE('',*,*,#999,.F.);
#760=ORIENTED_EDGE('',*,*,#1020,.T.);
#761=ORIENTED_EDGE('',*,*,#1012,.F.);
#762=ORIENTED_EDGE('',*,*,#1003,.T.);
#763=ORIENTED_EDGE('',*,*,#995,.F.);
#764=ORIENTED_EDGE('',*,*,#1002,.T.);
#765=ORIENTED_EDGE('',*,*,#1015,.F.);
#766=ORIENTED_EDGE('',*,*,#1000,.T.);
#767=ORIENTED_EDGE('',*,*,#993,.F.);
#768=ORIENTED_EDGE('',*,*,#1006,.T.);
#769=ORIENTED_EDGE('',*,*,#1011,.F.);
#770=VERTEX_POINT('',#1543);
#771=VERTEX_POINT('',#1544);
#772=VERTEX_POINT('',#1546);
#773=VERTEX_POINT('',#1548);
#774=VERTEX_POINT('',#1550);
#775=VERTEX_POINT('',#1552);
#776=VERTEX_POINT('',#1554);
#777=VERTEX_POINT('',#1556);
#778=VERTEX_POINT('',#1558);
#779=VERTEX_POINT('',#1560);
#780=VERTEX_POINT('',#1564);
#781=VERTEX_POINT('',#1565);
#782=VERTEX_POINT('',#1567);
#783=VERTEX_POINT('',#1569);
#784=VERTEX_POINT('',#1576);
#785=VERTEX_POINT('',#1577);
#786=VERTEX_POINT('',#1579);
#787=VERTEX_POINT('',#1581);
#788=VERTEX_POINT('',#1585);
#789=VERTEX_POINT('',#1587);
#790=VERTEX_POINT('',#1603);
#791=VERTEX_POINT('',#1604);
#792=VERTEX_POINT('',#1607);
#793=VERTEX_POINT('',#1615);
#794=VERTEX_POINT('',#1618);
#795=VERTEX_POINT('',#1626);
#796=VERTEX_POINT('',#1628);
#797=VERTEX_POINT('',#1630);
#798=VERTEX_POINT('',#1634);
#799=VERTEX_POINT('',#1636);
#800=VERTEX_POINT('',#1640);
#801=VERTEX_POINT('',#1644);
#802=VERTEX_POINT('',#1648);
#803=VERTEX_POINT('',#1650);
#804=VERTEX_POINT('',#1654);
#805=VERTEX_POINT('',#1657);
#806=VERTEX_POINT('',#1661);
#807=VERTEX_POINT('',#1664);
#808=VERTEX_POINT('',#1668);
#809=VERTEX_POINT('',#1669);
#810=VERTEX_POINT('',#1689);
#811=VERTEX_POINT('',#1690);
#812=VERTEX_POINT('',#1692);
#813=VERTEX_POINT('',#1694);
#814=VERTEX_POINT('',#1696);
#815=VERTEX_POINT('',#1698);
#816=VERTEX_POINT('',#1700);
#817=VERTEX_POINT('',#1702);
#818=VERTEX_POINT('',#1704);
#819=VERTEX_POINT('',#1706);
#820=VERTEX_POINT('',#1710);
#821=VERTEX_POINT('',#1711);
#822=VERTEX_POINT('',#1713);
#823=VERTEX_POINT('',#1715);
#824=VERTEX_POINT('',#1719);
#825=VERTEX_POINT('',#1721);
#826=VERTEX_POINT('',#1725);
#827=VERTEX_POINT('',#1726);
#828=VERTEX_POINT('',#1728);
#829=VERTEX_POINT('',#1730);
#830=VERTEX_POINT('',#1732);
#831=VERTEX_POINT('',#1734);
#832=VERTEX_POINT('',#1736);
#833=VERTEX_POINT('',#1738);
#834=VERTEX_POINT('',#1743);
#835=VERTEX_POINT('',#1744);
#836=VERTEX_POINT('',#1747);
#837=VERTEX_POINT('',#1749);
#838=VERTEX_POINT('',#1751);
#839=VERTEX_POINT('',#1753);
#840=VERTEX_POINT('',#1755);
#841=VERTEX_POINT('',#1757);
#842=VERTEX_POINT('',#1764);
#843=VERTEX_POINT('',#1766);
#844=VERTEX_POINT('',#1776);
#845=VERTEX_POINT('',#1779);
#846=VERTEX_POINT('',#1793);
#847=VERTEX_POINT('',#1796);
#848=VERTEX_POINT('',#1810);
#849=VERTEX_POINT('',#1812);
#850=VERTEX_POINT('',#1835);
#851=VERTEX_POINT('',#1836);
#852=VERTEX_POINT('',#1838);
#853=VERTEX_POINT('',#1840);
#854=VERTEX_POINT('',#1842);
#855=VERTEX_POINT('',#1844);
#856=VERTEX_POINT('',#1846);
#857=VERTEX_POINT('',#1848);
#858=VERTEX_POINT('',#1852);
#859=VERTEX_POINT('',#1854);
#860=VERTEX_POINT('',#1858);
#861=VERTEX_POINT('',#1860);
#862=VERTEX_POINT('',#1864);
#863=VERTEX_POINT('',#1866);
#864=VERTEX_POINT('',#1870);
#865=VERTEX_POINT('',#1872);
#866=VERTEX_POINT('',#1876);
#867=VERTEX_POINT('',#1878);
#868=VERTEX_POINT('',#1882);
#869=VERTEX_POINT('',#1885);
#870=VERTEX_POINT('',#1888);
#871=VERTEX_POINT('',#1891);
#872=EDGE_CURVE('',#770,#771,#1022,.T.);
#873=EDGE_CURVE('',#771,#772,#1023,.T.);
#874=EDGE_CURVE('',#772,#773,#1024,.T.);
#875=EDGE_CURVE('',#773,#774,#1025,.T.);
#876=EDGE_CURVE('',#774,#775,#310,.T.);
#877=EDGE_CURVE('',#775,#776,#311,.T.);
#878=EDGE_CURVE('',#776,#777,#312,.T.);
#879=EDGE_CURVE('',#777,#778,#313,.T.);
#880=EDGE_CURVE('',#778,#779,#314,.T.);
#881=EDGE_CURVE('',#779,#770,#1026,.T.);
#882=EDGE_CURVE('',#780,#781,#1027,.T.);
#883=EDGE_CURVE('',#780,#782,#1028,.T.);
#884=EDGE_CURVE('',#783,#782,#1029,.T.);
#885=EDGE_CURVE('',#783,#781,#1030,.T.);
#886=EDGE_CURVE('',#782,#771,#315,.T.);
#887=EDGE_CURVE('',#770,#783,#316,.T.);
#888=EDGE_CURVE('',#784,#785,#1031,.T.);
#889=EDGE_CURVE('',#784,#786,#317,.T.);
#890=EDGE_CURVE('',#786,#787,#1032,.T.);
#891=EDGE_CURVE('',#787,#785,#318,.T.);
#892=EDGE_CURVE('',#788,#785,#319,.T.);
#893=EDGE_CURVE('',#788,#789,#1033,.T.);
#894=EDGE_CURVE('',#784,#789,#320,.T.);
#895=EDGE_CURVE('',#790,#791,#70,.T.);
#896=EDGE_CURVE('',#791,#780,#321,.T.);
#897=EDGE_CURVE('',#781,#792,#322,.T.);
#898=EDGE_CURVE('',#792,#793,#71,.T.);
#899=EDGE_CURVE('',#793,#789,#323,.T.);
#900=EDGE_CURVE('',#788,#794,#324,.T.);
#901=EDGE_CURVE('',#794,#795,#72,.T.);
#902=EDGE_CURVE('',#795,#796,#325,.T.);
#903=EDGE_CURVE('',#796,#797,#1034,.T.);
#904=EDGE_CURVE('',#797,#790,#326,.T.);
#905=EDGE_CURVE('',#778,#798,#327,.T.);
#906=EDGE_CURVE('',#799,#777,#328,.T.);
#907=EDGE_CURVE('',#799,#798,#329,.T.);
#908=EDGE_CURVE('',#800,#776,#330,.T.);
#909=EDGE_CURVE('',#800,#799,#331,.T.);
#910=EDGE_CURVE('',#801,#775,#332,.T.);
#911=EDGE_CURVE('',#801,#800,#333,.T.);
#912=EDGE_CURVE('',#801,#802,#334,.T.);
#913=EDGE_CURVE('',#803,#802,#1035,.T.);
#914=EDGE_CURVE('',#803,#798,#335,.T.);
#915=EDGE_CURVE('',#774,#804,#336,.T.);
#916=EDGE_CURVE('',#804,#794,#337,.T.);
#917=EDGE_CURVE('',#787,#805,#338,.T.);
#918=EDGE_CURVE('',#805,#802,#339,.T.);
#919=EDGE_CURVE('',#793,#806,#340,.T.);
#920=EDGE_CURVE('',#806,#779,#341,.T.);
#921=EDGE_CURVE('',#803,#807,#342,.T.);
#922=EDGE_CURVE('',#807,#786,#343,.T.);
#923=EDGE_CURVE('',#808,#809,#1036,.T.);
#924=EDGE_CURVE('',#808,#797,#1037,.T.);
#925=EDGE_CURVE('',#796,#809,#1038,.T.);
#926=EDGE_CURVE('',#807,#805,#1039,.T.);
#927=EDGE_CURVE('',#772,#808,#344,.T.);
#928=EDGE_CURVE('',#809,#773,#345,.T.);
#929=EDGE_CURVE('',#804,#795,#1040,.T.);
#930=EDGE_CURVE('',#792,#806,#1041,.T.);
#931=EDGE_CURVE('',#790,#791,#1042,.T.);
#932=EDGE_CURVE('',#810,#811,#1043,.T.);
#933=EDGE_CURVE('',#811,#812,#1044,.T.);
#934=EDGE_CURVE('',#812,#813,#346,.T.);
#935=EDGE_CURVE('',#813,#814,#347,.T.);
#936=EDGE_CURVE('',#814,#815,#348,.T.);
#937=EDGE_CURVE('',#815,#816,#349,.T.);
#938=EDGE_CURVE('',#816,#817,#350,.T.);
#939=EDGE_CURVE('',#817,#818,#1045,.T.);
#940=EDGE_CURVE('',#818,#819,#1046,.T.);
#941=EDGE_CURVE('',#819,#810,#1047,.T.);
#942=EDGE_CURVE('',#820,#821,#1048,.T.);
#943=EDGE_CURVE('',#820,#822,#1049,.T.);
#944=EDGE_CURVE('',#823,#822,#1050,.T.);
#945=EDGE_CURVE('',#823,#821,#1051,.T.);
#946=EDGE_CURVE('',#818,#824,#351,.T.);
#947=EDGE_CURVE('',#824,#825,#1052,.T.);
#948=EDGE_CURVE('',#825,#819,#352,.T.);
#949=EDGE_CURVE('',#826,#827,#353,.T.);
#950=EDGE_CURVE('',#828,#826,#354,.T.);
#951=EDGE_CURVE('',#828,#829,#355,.T.);
#952=EDGE_CURVE('',#830,#829,#356,.T.);
#953=EDGE_CURVE('',#830,#831,#357,.T.);
#954=EDGE_CURVE('',#831,#832,#358,.T.);
#955=EDGE_CURVE('',#833,#832,#359,.T.);
#956=EDGE_CURVE('',#833,#813,#360,.T.);
#957=EDGE_CURVE('',#827,#812,#361,.T.);
#958=EDGE_CURVE('',#834,#835,#362,.T.);
#959=EDGE_CURVE('',#817,#834,#363,.T.);
#960=EDGE_CURVE('',#816,#836,#364,.T.);
#961=EDGE_CURVE('',#837,#836,#365,.T.);
#962=EDGE_CURVE('',#837,#838,#366,.T.);
#963=EDGE_CURVE('',#838,#839,#367,.T.);
#964=EDGE_CURVE('',#840,#839,#368,.T.);
#965=EDGE_CURVE('',#840,#841,#369,.T.);
#966=EDGE_CURVE('',#835,#841,#370,.T.);
#967=EDGE_CURVE('',#838,#831,#1053,.T.);
#968=EDGE_CURVE('',#839,#830,#1054,.T.);
#969=EDGE_CURVE('',#824,#842,#1055,.T.);
#970=EDGE_CURVE('',#843,#842,#1056,.T.);
#971=EDGE_CURVE('',#843,#825,#1057,.T.);
#972=EDGE_CURVE('',#826,#844,#73,.T.);
#973=EDGE_CURVE('',#844,#820,#371,.T.);
#974=EDGE_CURVE('',#821,#845,#372,.T.);
#975=EDGE_CURVE('',#845,#846,#74,.T.);
#976=EDGE_CURVE('',#846,#843,#373,.T.);
#977=EDGE_CURVE('',#842,#847,#374,.T.);
#978=EDGE_CURVE('',#847,#835,#75,.T.);
#979=EDGE_CURVE('',#828,#841,#1058,.T.);
#980=EDGE_CURVE('',#840,#829,#1059,.T.);
#981=EDGE_CURVE('',#848,#814,#375,.T.);
#982=EDGE_CURVE('',#848,#849,#376,.T.);
#983=EDGE_CURVE('',#849,#815,#377,.T.);
#984=EDGE_CURVE('',#837,#832,#1060,.T.);
#985=EDGE_CURVE('',#849,#836,#378,.T.);
#986=EDGE_CURVE('',#833,#848,#379,.T.);
#987=EDGE_CURVE('',#822,#811,#380,.T.);
#988=EDGE_CURVE('',#810,#823,#381,.T.);
#989=EDGE_CURVE('',#845,#846,#1061,.T.);
#990=EDGE_CURVE('',#847,#834,#1062,.T.);
#991=EDGE_CURVE('',#827,#844,#1063,.T.);
#992=EDGE_CURVE('',#850,#851,#1064,.T.);
#993=EDGE_CURVE('',#851,#852,#1065,.T.);
#994=EDGE_CURVE('',#852,#853,#1066,.T.);
#995=EDGE_CURVE('',#853,#854,#1067,.T.);
#996=EDGE_CURVE('',#854,#855,#1068,.T.);
#997=EDGE_CURVE('',#855,#856,#1069,.T.);
#998=EDGE_CURVE('',#856,#857,#1070,.T.);
#999=EDGE_CURVE('',#857,#850,#1071,.T.);
#1000=EDGE_CURVE('',#858,#852,#382,.T.);
#1001=EDGE_CURVE('',#858,#859,#1072,.T.);
#1002=EDGE_CURVE('',#853,#859,#383,.T.);
#1003=EDGE_CURVE('',#860,#854,#384,.T.);
#1004=EDGE_CURVE('',#860,#861,#1073,.T.);
#1005=EDGE_CURVE('',#855,#861,#385,.T.);
#1006=EDGE_CURVE('',#851,#862,#386,.T.);
#1007=EDGE_CURVE('',#863,#850,#387,.T.);
#1008=EDGE_CURVE('',#863,#862,#1074,.T.);
#1009=EDGE_CURVE('',#864,#864,#1075,.T.);
#1010=EDGE_CURVE('',#865,#865,#1076,.T.);
#1011=EDGE_CURVE('',#858,#862,#1077,.T.);
#1012=EDGE_CURVE('',#863,#866,#1078,.T.);
#1013=EDGE_CURVE('',#867,#866,#1079,.T.);
#1014=EDGE_CURVE('',#867,#861,#1080,.T.);
#1015=EDGE_CURVE('',#860,#859,#1081,.T.);
#1016=EDGE_CURVE('',#868,#868,#1082,.T.);
#1017=EDGE_CURVE('',#869,#869,#1083,.T.);
#1018=EDGE_CURVE('',#870,#870,#1084,.T.);
#1019=EDGE_CURVE('',#871,#871,#1085,.T.);
#1020=EDGE_CURVE('',#857,#866,#388,.T.);
#1021=EDGE_CURVE('',#867,#856,#389,.T.);
#1022=CIRCLE('',#1087,2.57454210575602);
#1023=CIRCLE('',#1088,0.25);
#1024=CIRCLE('',#1089,2.57454210575602);
#1025=CIRCLE('',#1090,0.25);
#1026=CIRCLE('',#1091,0.25);
#1027=CIRCLE('',#1093,2.72);
#1028=CIRCLE('',#1094,0.25);
#1029=CIRCLE('',#1095,2.57454210575602);
#1030=CIRCLE('',#1096,0.25);
#1031=CIRCLE('',#1099,3.15);
#1032=CIRCLE('',#1100,3.15);
#1033=CIRCLE('',#1102,2.72);
#1034=CIRCLE('',#1104,2.72);
#1035=CIRCLE('',#1109,2.57454210575602);
#1036=CIRCLE('',#1113,2.57454210575602);
#1037=CIRCLE('',#1114,0.25);
#1038=CIRCLE('',#1115,0.25);
#1039=CIRCLE('',#1117,2.57454210575602);
#1040=CIRCLE('',#1121,0.25);
#1041=CIRCLE('',#1124,0.25);
#1042=CIRCLE('',#1127,0.25);
#1043=CIRCLE('',#1130,2.57454210575602);
#1044=CIRCLE('',#1131,0.25);
#1045=CIRCLE('',#1132,0.25);
#1046=CIRCLE('',#1133,2.57454210575602);
#1047=CIRCLE('',#1134,0.25);
#1048=CIRCLE('',#1136,2.72);
#1049=CIRCLE('',#1137,0.25);
#1050=CIRCLE('',#1138,2.57454210575602);
#1051=CIRCLE('',#1139,0.25);
#1052=CIRCLE('',#1141,2.57454210575602);
#1053=CIRCLE('',#1145,2.57454210575602);
#1054=CIRCLE('',#1146,3.15);
#1055=CIRCLE('',#1148,0.25);
#1056=CIRCLE('',#1149,2.72);
#1057=CIRCLE('',#1150,0.25);
#1058=CIRCLE('',#1152,2.72);
#1059=CIRCLE('',#1154,3.15);
#1060=CIRCLE('',#1158,2.57454210575602);
#1061=CIRCLE('',#1164,0.25);
#1062=CIRCLE('',#1167,0.25);
#1063=CIRCLE('',#1170,0.25);
#1064=CIRCLE('',#1173,2.57454210575602);
#1065=CIRCLE('',#1174,0.25);
#1066=CIRCLE('',#1175,2.57454210575602);
#1067=CIRCLE('',#1176,0.25);
#1068=CIRCLE('',#1177,2.57454210575602);
#1069=CIRCLE('',#1178,0.25);
#1070=CIRCLE('',#1179,2.57454210575602);
#1071=CIRCLE('',#1180,0.25);
#1072=CIRCLE('',#1182,2.57454210575602);
#1073=CIRCLE('',#1184,2.57454210575602);
#1074=CIRCLE('',#1186,2.57454210575602);
#1075=CIRCLE('',#1188,2.43);
#1076=CIRCLE('',#1189,2.57454210575602);
#1077=CIRCLE('',#1191,0.25);
#1078=CIRCLE('',#1192,0.25);
#1079=CIRCLE('',#1193,2.57454210575602);
#1080=CIRCLE('',#1194,0.25);
#1081=CIRCLE('',#1195,0.25);
#1082=CIRCLE('',#1196,2.);
#1083=CIRCLE('',#1198,2.57454210575602);
#1084=CIRCLE('',#1200,2.43);
#1085=CIRCLE('',#1202,2.);
#1086=AXIS2_PLACEMENT_3D('',#1541,#1211,#1212);
#1087=AXIS2_PLACEMENT_3D('',#1542,#1213,#1214);
#1088=AXIS2_PLACEMENT_3D('',#1545,#1215,#1216);
#1089=AXIS2_PLACEMENT_3D('',#1547,#1217,#1218);
#1090=AXIS2_PLACEMENT_3D('',#1549,#1219,#1220);
#1091=AXIS2_PLACEMENT_3D('',#1561,#1226,#1227);
#1092=AXIS2_PLACEMENT_3D('',#1562,#1228,#1229);
#1093=AXIS2_PLACEMENT_3D('',#1563,#1230,#1231);
#1094=AXIS2_PLACEMENT_3D('',#1566,#1232,#1233);
#1095=AXIS2_PLACEMENT_3D('',#1568,#1234,#1235);
#1096=AXIS2_PLACEMENT_3D('',#1570,#1236,#1237);
#1097=AXIS2_PLACEMENT_3D('',#1571,#1238,#1239);
#1098=AXIS2_PLACEMENT_3D('',#1574,#1242,#1243);
#1099=AXIS2_PLACEMENT_3D('',#1575,#1244,#1245);
#1100=AXIS2_PLACEMENT_3D('',#1580,#1247,#1248);
#1101=AXIS2_PLACEMENT_3D('',#1583,#1250,#1251);
#1102=AXIS2_PLACEMENT_3D('',#1586,#1253,#1254);
#1103=AXIS2_PLACEMENT_3D('',#1589,#1256,#1257);
#1104=AXIS2_PLACEMENT_3D('',#1629,#1263,#1264);
#1105=AXIS2_PLACEMENT_3D('',#1632,#1266,#1267);
#1106=AXIS2_PLACEMENT_3D('',#1638,#1271,#1272);
#1107=AXIS2_PLACEMENT_3D('',#1642,#1275,#1276);
#1108=AXIS2_PLACEMENT_3D('',#1646,#1279,#1280);
#1109=AXIS2_PLACEMENT_3D('',#1649,#1282,#1283);
#1110=AXIS2_PLACEMENT_3D('',#1652,#1285,#1286);
#1111=AXIS2_PLACEMENT_3D('',#1659,#1291,#1292);
#1112=AXIS2_PLACEMENT_3D('',#1666,#1297,#1298);
#1113=AXIS2_PLACEMENT_3D('',#1667,#1299,#1300);
#1114=AXIS2_PLACEMENT_3D('',#1670,#1301,#1302);
#1115=AXIS2_PLACEMENT_3D('',#1671,#1303,#1304);
#1116=AXIS2_PLACEMENT_3D('',#1672,#1305,#1306);
#1117=AXIS2_PLACEMENT_3D('',#1673,#1307,#1308);
#1118=AXIS2_PLACEMENT_3D('',#1674,#1309,#1310);
#1119=AXIS2_PLACEMENT_3D('',#1677,#1313,#1314);
#1120=AXIS2_PLACEMENT_3D('',#1678,#1315,#1316);
#1121=AXIS2_PLACEMENT_3D('',#1679,#1317,#1318);
#1122=AXIS2_PLACEMENT_3D('',#1680,#1319,#1320);
#1123=AXIS2_PLACEMENT_3D('',#1681,#1321,#1322);
#1124=AXIS2_PLACEMENT_3D('',#1682,#1323,#1324);
#1125=AXIS2_PLACEMENT_3D('',#1683,#1325,#1326);
#1126=AXIS2_PLACEMENT_3D('',#1684,#1327,#1328);
#1127=AXIS2_PLACEMENT_3D('',#1685,#1329,#1330);
#1128=AXIS2_PLACEMENT_3D('',#1686,#1331,#1332);
#1129=AXIS2_PLACEMENT_3D('',#1687,#1333,#1334);
#1130=AXIS2_PLACEMENT_3D('',#1688,#1335,#1336);
#1131=AXIS2_PLACEMENT_3D('',#1691,#1337,#1338);
#1132=AXIS2_PLACEMENT_3D('',#1703,#1344,#1345);
#1133=AXIS2_PLACEMENT_3D('',#1705,#1346,#1347);
#1134=AXIS2_PLACEMENT_3D('',#1707,#1348,#1349);
#1135=AXIS2_PLACEMENT_3D('',#1708,#1350,#1351);
#1136=AXIS2_PLACEMENT_3D('',#1709,#1352,#1353);
#1137=AXIS2_PLACEMENT_3D('',#1712,#1354,#1355);
#1138=AXIS2_PLACEMENT_3D('',#1714,#1356,#1357);
#1139=AXIS2_PLACEMENT_3D('',#1716,#1358,#1359);
#1140=AXIS2_PLACEMENT_3D('',#1717,#1360,#1361);
#1141=AXIS2_PLACEMENT_3D('',#1720,#1363,#1364);
#1142=AXIS2_PLACEMENT_3D('',#1723,#1366,#1367);
#1143=AXIS2_PLACEMENT_3D('',#1741,#1377,#1378);
#1144=AXIS2_PLACEMENT_3D('',#1759,#1388,#1389);
#1145=AXIS2_PLACEMENT_3D('',#1760,#1390,#1391);
#1146=AXIS2_PLACEMENT_3D('',#1761,#1392,#1393);
#1147=AXIS2_PLACEMENT_3D('',#1762,#1394,#1395);
#1148=AXIS2_PLACEMENT_3D('',#1763,#1396,#1397);
#1149=AXIS2_PLACEMENT_3D('',#1765,#1398,#1399);
#1150=AXIS2_PLACEMENT_3D('',#1767,#1400,#1401);
#1151=AXIS2_PLACEMENT_3D('',#1768,#1402,#1403);
#1152=AXIS2_PLACEMENT_3D('',#1804,#1408,#1409);
#1153=AXIS2_PLACEMENT_3D('',#1805,#1410,#1411);
#1154=AXIS2_PLACEMENT_3D('',#1806,#1412,#1413);
#1155=AXIS2_PLACEMENT_3D('',#1807,#1414,#1415);
#1156=AXIS2_PLACEMENT_3D('',#1808,#1416,#1417);
#1157=AXIS2_PLACEMENT_3D('',#1814,#1421,#1422);
#1158=AXIS2_PLACEMENT_3D('',#1815,#1423,#1424);
#1159=AXIS2_PLACEMENT_3D('',#1818,#1427,#1428);
#1160=AXIS2_PLACEMENT_3D('',#1819,#1429,#1430);
#1161=AXIS2_PLACEMENT_3D('',#1820,#1431,#1432);
#1162=AXIS2_PLACEMENT_3D('',#1823,#1435,#1436);
#1163=AXIS2_PLACEMENT_3D('',#1824,#1437,#1438);
#1164=AXIS2_PLACEMENT_3D('',#1825,#1439,#1440);
#1165=AXIS2_PLACEMENT_3D('',#1826,#1441,#1442);
#1166=AXIS2_PLACEMENT_3D('',#1827,#1443,#1444);
#1167=AXIS2_PLACEMENT_3D('',#1828,#1445,#1446);
#1168=AXIS2_PLACEMENT_3D('',#1829,#1447,#1448);
#1169=AXIS2_PLACEMENT_3D('',#1830,#1449,#1450);
#1170=AXIS2_PLACEMENT_3D('',#1831,#1451,#1452);
#1171=AXIS2_PLACEMENT_3D('',#1832,#1453,#1454);
#1172=AXIS2_PLACEMENT_3D('',#1833,#1455,#1456);
#1173=AXIS2_PLACEMENT_3D('',#1834,#1457,#1458);
#1174=AXIS2_PLACEMENT_3D('',#1837,#1459,#1460);
#1175=AXIS2_PLACEMENT_3D('',#1839,#1461,#1462);
#1176=AXIS2_PLACEMENT_3D('',#1841,#1463,#1464);
#1177=AXIS2_PLACEMENT_3D('',#1843,#1465,#1466);
#1178=AXIS2_PLACEMENT_3D('',#1845,#1467,#1468);
#1179=AXIS2_PLACEMENT_3D('',#1847,#1469,#1470);
#1180=AXIS2_PLACEMENT_3D('',#1849,#1471,#1472);
#1181=AXIS2_PLACEMENT_3D('',#1850,#1473,#1474);
#1182=AXIS2_PLACEMENT_3D('',#1853,#1476,#1477);
#1183=AXIS2_PLACEMENT_3D('',#1856,#1479,#1480);
#1184=AXIS2_PLACEMENT_3D('',#1859,#1482,#1483);
#1185=AXIS2_PLACEMENT_3D('',#1862,#1485,#1486);
#1186=AXIS2_PLACEMENT_3D('',#1867,#1489,#1490);
#1187=AXIS2_PLACEMENT_3D('',#1868,#1491,#1492);
#1188=AXIS2_PLACEMENT_3D('',#1869,#1493,#1494);
#1189=AXIS2_PLACEMENT_3D('',#1871,#1495,#1496);
#1190=AXIS2_PLACEMENT_3D('',#1873,#1497,#1498);
#1191=AXIS2_PLACEMENT_3D('',#1874,#1499,#1500);
#1192=AXIS2_PLACEMENT_3D('',#1875,#1501,#1502);
#1193=AXIS2_PLACEMENT_3D('',#1877,#1503,#1504);
#1194=AXIS2_PLACEMENT_3D('',#1879,#1505,#1506);
#1195=AXIS2_PLACEMENT_3D('',#1880,#1507,#1508);
#1196=AXIS2_PLACEMENT_3D('',#1881,#1509,#1510);
#1197=AXIS2_PLACEMENT_3D('',#1883,#1511,#1512);
#1198=AXIS2_PLACEMENT_3D('',#1884,#1513,#1514);
#1199=AXIS2_PLACEMENT_3D('',#1886,#1515,#1516);
#1200=AXIS2_PLACEMENT_3D('',#1887,#1517,#1518);
#1201=AXIS2_PLACEMENT_3D('',#1889,#1519,#1520);
#1202=AXIS2_PLACEMENT_3D('',#1890,#1521,#1522);
#1203=AXIS2_PLACEMENT_3D('',#1892,#1523,#1524);
#1204=AXIS2_PLACEMENT_3D('',#1893,#1525,#1526);
#1205=AXIS2_PLACEMENT_3D('',#1896,#1529,#1530);
#1206=AXIS2_PLACEMENT_3D('',#1897,#1531,#1532);
#1207=AXIS2_PLACEMENT_3D('',#1898,#1533,#1534);
#1208=AXIS2_PLACEMENT_3D('',#1899,#1535,#1536);
#1209=AXIS2_PLACEMENT_3D('',#1900,#1537,#1538);
#1210=AXIS2_PLACEMENT_3D('',#1901,#1539,#1540);
#1211=DIRECTION('',(0.,0.,1.));
#1212=DIRECTION('',(1.,0.,0.));
#1213=DIRECTION('',(0.,1.,0.));
#1214=DIRECTION('',(0.,0.,-1.));
#1215=DIRECTION('',(0.,1.,0.));
#1216=DIRECTION('',(0.,0.,1.));
#1217=DIRECTION('',(0.,1.,0.));
#1218=DIRECTION('',(0.,0.,-1.));
#1219=DIRECTION('',(0.,1.,0.));
#1220=DIRECTION('',(0.,0.,1.));
#1221=DIRECTION('',(5.2340794533783E-16,0.,-1.));
#1222=DIRECTION('',(1.,0.,4.27271792112514E-16));
#1223=DIRECTION('',(-5.2340794533783E-16,0.,1.));
#1224=DIRECTION('',(-1.,0.,0.));
#1225=DIRECTION('',(5.2340794533783E-16,0.,-1.));
#1226=DIRECTION('',(0.,1.,0.));
#1227=DIRECTION('',(0.,0.,1.));
#1228=DIRECTION('',(0.,-1.,0.));
#1229=DIRECTION('',(0.,0.,-1.));
#1230=DIRECTION('',(0.,-1.,0.));
#1231=DIRECTION('',(1.,0.,-6.12323399573677E-17));
#1232=DIRECTION('',(0.,-1.,0.));
#1233=DIRECTION('',(0.,0.,-1.));
#1234=DIRECTION('',(0.,1.,0.));
#1235=DIRECTION('',(0.,0.,-1.));
#1236=DIRECTION('',(0.,-1.,0.));
#1237=DIRECTION('',(0.,0.,-1.));
#1238=DIRECTION('',(0.,-1.,0.));
#1239=DIRECTION('',(0.,0.,-1.));
#1240=DIRECTION('',(0.,-1.,0.));
#1241=DIRECTION('',(0.,1.,0.));
#1242=DIRECTION('',(0.,-1.,0.));
#1243=DIRECTION('',(0.,0.,-1.));
#1244=DIRECTION('',(0.,1.,0.));
#1245=DIRECTION('',(0.,0.,1.));
#1246=DIRECTION('',(0.,1.,0.));
#1247=DIRECTION('',(0.,1.,0.));
#1248=DIRECTION('',(0.,0.,1.));
#1249=DIRECTION('',(0.,-1.,0.));
#1250=DIRECTION('',(0.,-1.,0.));
#1251=DIRECTION('',(0.,0.,-1.));
#1252=DIRECTION('',(5.2340794533783E-16,0.,-1.));
#1253=DIRECTION('',(0.,-1.,0.));
#1254=DIRECTION('',(0.,0.,-1.));
#1255=DIRECTION('',(5.2340794533783E-16,0.,-1.));
#1256=DIRECTION('',(0.,-1.,0.));
#1257=DIRECTION('',(0.,0.,-1.));
#1258=DIRECTION('',(0.,-1.,0.));
#1259=DIRECTION('',(0.,1.,0.));
#1260=DIRECTION('',(0.,1.,0.));
#1261=DIRECTION('',(0.,-1.,0.));
#1262=DIRECTION('',(0.,-1.,0.));
#1263=DIRECTION('',(0.,-1.,0.));
#1264=DIRECTION('',(1.,0.,-6.12323399573677E-17));
#1265=DIRECTION('',(0.,1.,0.));
#1266=DIRECTION('',(0.,-1.,0.));
#1267=DIRECTION('',(0.,0.,-1.));
#1268=DIRECTION('',(0.,1.,0.));
#1269=DIRECTION('',(0.,-1.,0.));
#1270=DIRECTION('',(-1.,0.,0.));
#1271=DIRECTION('',(0.,0.,1.));
#1272=DIRECTION('',(1.,0.,0.));
#1273=DIRECTION('',(0.,-1.,0.));
#1274=DIRECTION('',(-5.2340794533783E-16,0.,1.));
#1275=DIRECTION('',(1.,0.,5.2340794533783E-16));
#1276=DIRECTION('',(5.23452808876002E-16,0.,-1.));
#1277=DIRECTION('',(0.,-1.,0.));
#1278=DIRECTION('',(1.,0.,4.27271792112514E-16));
#1279=DIRECTION('',(4.27271792112514E-16,0.,-1.));
#1280=DIRECTION('',(-1.,0.,-4.26741975090295E-16));
#1281=DIRECTION('',(-5.2340794533783E-16,0.,1.));
#1282=DIRECTION('',(0.,1.,0.));
#1283=DIRECTION('',(0.,0.,-1.));
#1284=DIRECTION('',(-5.2340794533783E-16,0.,1.));
#1285=DIRECTION('',(0.,-1.,0.));
#1286=DIRECTION('',(0.,0.,-1.));
#1287=DIRECTION('',(0.,1.,0.));
#1288=DIRECTION('',(-4.48648175671266E-16,0.515038074910054,0.857167300702112));
#1289=DIRECTION('',(-5.2340794533783E-16,0.,1.));
#1290=DIRECTION('',(0.,1.,0.));
#1291=DIRECTION('',(1.,0.,5.2340794533783E-16));
#1292=DIRECTION('',(5.23886489744996E-16,0.,-1.));
#1293=DIRECTION('',(-4.48648175671266E-16,-0.515038074910054,0.857167300702112));
#1294=DIRECTION('',(0.,-1.,0.));
#1295=DIRECTION('',(0.,-1.,0.));
#1296=DIRECTION('',(-5.2340794533783E-16,0.,1.));
#1297=DIRECTION('',(1.,0.,5.2340794533783E-16));
#1298=DIRECTION('',(5.23886489744996E-16,0.,-1.));
#1299=DIRECTION('',(0.,1.,0.));
#1300=DIRECTION('',(0.,0.,-1.));
#1301=DIRECTION('',(0.,-1.,0.));
#1302=DIRECTION('',(0.,0.,-1.));
#1303=DIRECTION('',(0.,-1.,0.));
#1304=DIRECTION('',(0.,0.,-1.));
#1305=DIRECTION('',(0.,-1.,0.));
#1306=DIRECTION('',(0.,0.,-1.));
#1307=DIRECTION('',(0.,1.,0.));
#1308=DIRECTION('',(0.,0.,-1.));
#1309=DIRECTION('',(0.,-1.,0.));
#1310=DIRECTION('',(0.,0.,-1.));
#1311=DIRECTION('',(0.,1.,0.));
#1312=DIRECTION('',(0.,-1.,0.));
#1313=DIRECTION('',(0.,-1.,0.));
#1314=DIRECTION('',(0.,0.,-1.));
#1315=DIRECTION('',(0.,-1.,0.));
#1316=DIRECTION('',(0.,0.,-1.));
#1317=DIRECTION('',(0.,-1.,0.));
#1318=DIRECTION('',(0.,0.,1.));
#1319=DIRECTION('',(0.,-1.,0.));
#1320=DIRECTION('',(0.,-1.25060456618203E-17,-1.));
#1321=DIRECTION('',(0.,1.,0.));
#1322=DIRECTION('',(0.,0.,1.));
#1323=DIRECTION('',(0.,-1.,0.));
#1324=DIRECTION('',(0.,0.,1.));
#1325=DIRECTION('',(0.,-1.,0.));
#1326=DIRECTION('',(0.,-1.25060456618203E-17,-1.));
#1327=DIRECTION('',(0.,1.,0.));
#1328=DIRECTION('',(0.,0.,1.));
#1329=DIRECTION('',(0.,-1.,0.));
#1330=DIRECTION('',(0.,0.,1.));
#1331=DIRECTION('',(0.,-1.,0.));
#1332=DIRECTION('',(0.,-1.25060456618203E-17,-1.));
#1333=DIRECTION('',(0.,1.,0.));
#1334=DIRECTION('',(0.,0.,1.));
#1335=DIRECTION('',(0.,1.,0.));
#1336=DIRECTION('',(0.,0.,-1.));
#1337=DIRECTION('',(0.,1.,0.));
#1338=DIRECTION('',(0.,0.,1.));
#1339=DIRECTION('',(-5.2340794533783E-16,0.,1.));
#1340=DIRECTION('',(-1.,0.,0.));
#1341=DIRECTION('',(0.,0.,-1.));
#1342=DIRECTION('',(1.,0.,4.27271792112514E-16));
#1343=DIRECTION('',(-5.2340794533783E-16,0.,1.));
#1344=DIRECTION('',(0.,1.,0.));
#1345=DIRECTION('',(0.,0.,1.));
#1346=DIRECTION('',(0.,1.,0.));
#1347=DIRECTION('',(0.,0.,-1.));
#1348=DIRECTION('',(0.,1.,0.));
#1349=DIRECTION('',(0.,0.,1.));
#1350=DIRECTION('',(0.,-1.,0.));
#1351=DIRECTION('',(0.,0.,-1.));
#1352=DIRECTION('',(0.,-1.,0.));
#1353=DIRECTION('',(1.,0.,-6.12323399573677E-17));
#1354=DIRECTION('',(0.,-1.,0.));
#1355=DIRECTION('',(0.,0.,-1.));
#1356=DIRECTION('',(0.,1.,0.));
#1357=DIRECTION('',(0.,0.,-1.));
#1358=DIRECTION('',(0.,-1.,0.));
#1359=DIRECTION('',(0.,0.,-1.));
#1360=DIRECTION('',(0.,-1.,0.));
#1361=DIRECTION('',(0.,0.,-1.));
#1362=DIRECTION('',(0.,1.,0.));
#1363=DIRECTION('',(0.,1.,0.));
#1364=DIRECTION('',(0.,0.,-1.));
#1365=DIRECTION('',(0.,-1.,0.));
#1366=DIRECTION('',(0.,-1.,0.));
#1367=DIRECTION('',(0.,0.,-1.));
#1368=DIRECTION('',(-4.48648175671266E-16,-0.515038074910054,0.857167300702112));
#1369=DIRECTION('',(0.,-1.,0.));
#1370=DIRECTION('',(-5.2340794533783E-16,0.,1.));
#1371=DIRECTION('',(0.,-1.,0.));
#1372=DIRECTION('',(5.2340794533783E-16,0.,-1.));
#1373=DIRECTION('',(0.,1.,0.));
#1374=DIRECTION('',(5.2340794533783E-16,0.,-1.));
#1375=DIRECTION('',(0.,-1.,0.));
#1376=DIRECTION('',(0.,-1.,0.));
#1377=DIRECTION('',(1.,0.,5.2340794533783E-16));
#1378=DIRECTION('',(5.23886489744996E-16,0.,-1.));
#1379=DIRECTION('',(-4.48648175671266E-16,0.515038074910054,0.857167300702112));
#1380=DIRECTION('',(0.,1.,0.));
#1381=DIRECTION('',(0.,1.,0.));
#1382=DIRECTION('',(5.2340794533783E-16,0.,-1.));
#1383=DIRECTION('',(0.,-1.,0.));
#1384=DIRECTION('',(5.2340794533783E-16,0.,-1.));
#1385=DIRECTION('',(0.,1.,0.));
#1386=DIRECTION('',(-5.2340794533783E-16,0.,1.));
#1387=DIRECTION('',(0.,1.,0.));
#1388=DIRECTION('',(1.,0.,5.2340794533783E-16));
#1389=DIRECTION('',(5.23886489744996E-16,0.,-1.));
#1390=DIRECTION('',(0.,1.,0.));
#1391=DIRECTION('',(0.,0.,-1.));
#1392=DIRECTION('',(0.,1.,0.));
#1393=DIRECTION('',(0.,0.,1.));
#1394=DIRECTION('',(0.,-1.,0.));
#1395=DIRECTION('',(0.,0.,-1.));
#1396=DIRECTION('',(0.,-1.,0.));
#1397=DIRECTION('',(0.,0.,-1.));
#1398=DIRECTION('',(0.,-1.,0.));
#1399=DIRECTION('',(1.,0.,-6.12323399573677E-17));
#1400=DIRECTION('',(0.,-1.,0.));
#1401=DIRECTION('',(0.,0.,-1.));
#1402=DIRECTION('',(0.,-1.,0.));
#1403=DIRECTION('',(0.,0.,-1.));
#1404=DIRECTION('',(0.,-1.,0.));
#1405=DIRECTION('',(0.,1.,0.));
#1406=DIRECTION('',(0.,-1.,0.));
#1407=DIRECTION('',(0.,1.,0.));
#1408=DIRECTION('',(0.,-1.,0.));
#1409=DIRECTION('',(0.,0.,-1.));
#1410=DIRECTION('',(0.,-1.,0.));
#1411=DIRECTION('',(0.,0.,-1.));
#1412=DIRECTION('',(0.,1.,0.));
#1413=DIRECTION('',(0.,0.,1.));
#1414=DIRECTION('',(0.,-1.,0.));
#1415=DIRECTION('',(0.,0.,-1.));
#1416=DIRECTION('',(0.,-1.,0.));
#1417=DIRECTION('',(0.,0.,-1.));
#1418=DIRECTION('',(0.,-1.,0.));
#1419=DIRECTION('',(0.,0.,-1.));
#1420=DIRECTION('',(0.,-1.,0.));
#1421=DIRECTION('',(-1.,0.,0.));
#1422=DIRECTION('',(0.,0.,1.));
#1423=DIRECTION('',(0.,1.,0.));
#1424=DIRECTION('',(0.,0.,-1.));
#1425=DIRECTION('',(1.,0.,4.27271792112514E-16));
#1426=DIRECTION('',(-1.,0.,0.));
#1427=DIRECTION('',(0.,-1.,0.));
#1428=DIRECTION('',(0.,0.,-1.));
#1429=DIRECTION('',(0.,0.,1.));
#1430=DIRECTION('',(1.,0.,0.));
#1431=DIRECTION('',(4.27271792112514E-16,0.,-1.));
#1432=DIRECTION('',(-1.,0.,-4.26741975090295E-16));
#1433=DIRECTION('',(0.,-1.,0.));
#1434=DIRECTION('',(0.,1.,0.));
#1435=DIRECTION('',(0.,-1.,0.));
#1436=DIRECTION('',(0.,0.,-1.));
#1437=DIRECTION('',(0.,-1.,0.));
#1438=DIRECTION('',(0.,0.,-1.));
#1439=DIRECTION('',(0.,-1.,0.));
#1440=DIRECTION('',(0.,0.,1.));
#1441=DIRECTION('',(0.,-1.,0.));
#1442=DIRECTION('',(0.,-1.25060456618203E-17,-1.));
#1443=DIRECTION('',(0.,1.,0.));
#1444=DIRECTION('',(0.,0.,1.));
#1445=DIRECTION('',(0.,-1.,0.));
#1446=DIRECTION('',(0.,0.,1.));
#1447=DIRECTION('',(0.,-1.,0.));
#1448=DIRECTION('',(0.,-1.25060456618203E-17,-1.));
#1449=DIRECTION('',(0.,1.,0.));
#1450=DIRECTION('',(0.,0.,1.));
#1451=DIRECTION('',(0.,-1.,0.));
#1452=DIRECTION('',(0.,0.,1.));
#1453=DIRECTION('',(0.,-1.,0.));
#1454=DIRECTION('',(0.,-1.25060456618203E-17,-1.));
#1455=DIRECTION('',(0.,1.,0.));
#1456=DIRECTION('',(0.,0.,1.));
#1457=DIRECTION('',(0.,-1.,0.));
#1458=DIRECTION('',(0.,0.,-1.));
#1459=DIRECTION('',(0.,1.,0.));
#1460=DIRECTION('',(0.,0.,1.));
#1461=DIRECTION('',(0.,-1.,0.));
#1462=DIRECTION('',(0.,0.,-1.));
#1463=DIRECTION('',(0.,1.,0.));
#1464=DIRECTION('',(0.,0.,1.));
#1465=DIRECTION('',(0.,-1.,0.));
#1466=DIRECTION('',(0.,0.,-1.));
#1467=DIRECTION('',(0.,1.,0.));
#1468=DIRECTION('',(0.,0.,1.));
#1469=DIRECTION('',(0.,-1.,0.));
#1470=DIRECTION('',(0.,0.,-1.));
#1471=DIRECTION('',(0.,1.,0.));
#1472=DIRECTION('',(0.,0.,1.));
#1473=DIRECTION('',(0.,-1.,0.));
#1474=DIRECTION('',(0.,0.,-1.));
#1475=DIRECTION('',(0.,-1.,0.));
#1476=DIRECTION('',(0.,-1.,0.));
#1477=DIRECTION('',(0.,0.,-1.));
#1478=DIRECTION('',(0.,1.,0.));
#1479=DIRECTION('',(0.,-1.,0.));
#1480=DIRECTION('',(0.,0.,-1.));
#1481=DIRECTION('',(0.,-1.,0.));
#1482=DIRECTION('',(0.,-1.,0.));
#1483=DIRECTION('',(0.,0.,-1.));
#1484=DIRECTION('',(0.,1.,0.));
#1485=DIRECTION('',(0.,-1.,0.));
#1486=DIRECTION('',(0.,0.,-1.));
#1487=DIRECTION('',(0.,1.,0.));
#1488=DIRECTION('',(0.,-1.,0.));
#1489=DIRECTION('',(0.,-1.,0.));
#1490=DIRECTION('',(0.,0.,-1.));
#1491=DIRECTION('',(0.,-1.,0.));
#1492=DIRECTION('',(0.,0.,-1.));
#1493=DIRECTION('',(0.,1.,0.));
#1494=DIRECTION('',(0.,0.,1.));
#1495=DIRECTION('',(0.,-1.,0.));
#1496=DIRECTION('',(0.,0.,-1.));
#1497=DIRECTION('',(0.,-1.,0.));
#1498=DIRECTION('',(0.,0.,-1.));
#1499=DIRECTION('',(0.,-1.,0.));
#1500=DIRECTION('',(0.,0.,-1.));
#1501=DIRECTION('',(0.,-1.,0.));
#1502=DIRECTION('',(0.,0.,-1.));
#1503=DIRECTION('',(0.,-1.,0.));
#1504=DIRECTION('',(0.,0.,-1.));
#1505=DIRECTION('',(0.,-1.,0.));
#1506=DIRECTION('',(0.,0.,-1.));
#1507=DIRECTION('',(0.,-1.,0.));
#1508=DIRECTION('',(0.,0.,-1.));
#1509=DIRECTION('',(0.,-1.,0.));
#1510=DIRECTION('',(1.,0.,-6.12323399573677E-17));
#1511=DIRECTION('',(0.,-1.,0.));
#1512=DIRECTION('',(0.,0.,-1.));
#1513=DIRECTION('',(0.,-1.,0.));
#1514=DIRECTION('',(0.,0.,-1.));
#1515=DIRECTION('',(0.,-1.,0.));
#1516=DIRECTION('',(0.,0.,-1.));
#1517=DIRECTION('',(0.,-1.,0.));
#1518=DIRECTION('',(0.,0.,-1.));
#1519=DIRECTION('',(0.,-1.,0.));
#1520=DIRECTION('',(0.,0.,-1.));
#1521=DIRECTION('',(0.,-1.,0.));
#1522=DIRECTION('',(1.,0.,-6.12323399573677E-17));
#1523=DIRECTION('',(0.,-1.,0.));
#1524=DIRECTION('',(0.,0.,-1.));
#1525=DIRECTION('',(0.,-1.,0.));
#1526=DIRECTION('',(0.,0.,-1.));
#1527=DIRECTION('',(0.,1.,0.));
#1528=DIRECTION('',(0.,-1.,0.));
#1529=DIRECTION('',(0.,-1.,0.));
#1530=DIRECTION('',(0.,0.,-1.));
#1531=DIRECTION('',(0.,-1.,0.));
#1532=DIRECTION('',(0.,0.,-1.));
#1533=DIRECTION('',(0.,1.,0.));
#1534=DIRECTION('',(0.,0.,1.));
#1535=DIRECTION('',(0.,1.,0.));
#1536=DIRECTION('',(0.,0.,1.));
#1537=DIRECTION('',(0.,1.,0.));
#1538=DIRECTION('',(0.,0.,1.));
#1539=DIRECTION('',(0.,1.,0.));
#1540=DIRECTION('',(0.,0.,1.));
#1541=CARTESIAN_POINT('',(0.,0.,0.));
#1542=CARTESIAN_POINT('',(-8.30000000000007,-30.,-7.88860905221012E-31));
#1543=CARTESIAN_POINT('',(-8.05029483987026,-30.,2.5624040249959));
#1544=CARTESIAN_POINT('',(-5.72642342227589,-30.,-0.0705028573895669));
#1545=CARTESIAN_POINT('',(-5.74539503184003,-30.,-0.319781974105239));
#1546=CARTESIAN_POINT('',(-5.78845480942784,-30.,-0.566045766722197));
#1547=CARTESIAN_POINT('',(-8.30000000000007,-30.,-7.88860905221012E-31));
#1548=CARTESIAN_POINT('',(-8.05029483987025,-30.,-2.56240402499589));
#1549=CARTESIAN_POINT('',(-8.30000000000007,-30.,-2.57454210575602));
#1550=CARTESIAN_POINT('',(-8.30000000000007,-30.,-2.82454210575602));
#1551=CARTESIAN_POINT('',(-8.30000000000007,-30.,-4.34428594630403E-15));
#1552=CARTESIAN_POINT('',(-8.30000000000007,-30.,-10.15));
#1553=CARTESIAN_POINT('',(-18.4500000000001,-30.,-10.15));
#1554=CARTESIAN_POINT('',(1.84999999999993,-30.,-10.15));
#1555=CARTESIAN_POINT('',(1.84999999999993,-30.,-10.15));
#1556=CARTESIAN_POINT('',(1.84999999999992,-30.,10.15));
#1557=CARTESIAN_POINT('',(1.84999999999992,-30.,10.15));
#1558=CARTESIAN_POINT('',(-8.30000000000008,-30.,10.15));
#1559=CARTESIAN_POINT('',(-8.30000000000007,-30.,-4.34428594630403E-15));
#1560=CARTESIAN_POINT('',(-8.30000000000008,-30.,2.82454210575602));
#1561=CARTESIAN_POINT('',(-8.30000000000008,-30.,2.57454210575602));
#1562=CARTESIAN_POINT('',(0.,-30.,0.));
#1563=CARTESIAN_POINT('',(-8.30000000000007,-23.,0.));
#1564=CARTESIAN_POINT('',(-5.58309077096606,-23.,-0.129631173680545));
#1565=CARTESIAN_POINT('',(-8.0911620263618,-23.,2.71197099924882));
#1566=CARTESIAN_POINT('',(-5.74539503184003,-23.,-0.319781974105239));
#1567=CARTESIAN_POINT('',(-5.72642342227589,-23.,-0.0705028573895671));
#1568=CARTESIAN_POINT('',(-8.30000000000007,-23.,-7.88860905221012E-31));
#1569=CARTESIAN_POINT('',(-8.05029483987026,-23.,2.5624040249959));
#1570=CARTESIAN_POINT('',(-8.30000000000008,-23.,2.57454210575602));
#1571=CARTESIAN_POINT('',(-8.30000000000007,-23.,0.));
#1572=CARTESIAN_POINT('',(-5.72642342227589,-26.,-0.0705028573895669));
#1573=CARTESIAN_POINT('',(-8.05029483987026,-26.,2.5624040249959));
#1574=CARTESIAN_POINT('',(-8.30000000000007,78.,-7.88860905221012E-31));
#1575=CARTESIAN_POINT('',(-8.30000000000008,-20.,0.));
#1576=CARTESIAN_POINT('',(-8.30000000000008,-20.,3.15));
#1577=CARTESIAN_POINT('',(-8.30000000000007,-20.,-3.15));
#1578=CARTESIAN_POINT('',(-8.30000000000008,20.,3.15));
#1579=CARTESIAN_POINT('',(-8.30000000000008,20.,3.15));
#1580=CARTESIAN_POINT('',(-8.30000000000008,20.,0.));
#1581=CARTESIAN_POINT('',(-8.30000000000007,20.,-3.15));
#1582=CARTESIAN_POINT('',(-8.30000000000007,20.,-3.15));
#1583=CARTESIAN_POINT('',(-8.30000000000008,20.,0.));
#1584=CARTESIAN_POINT('',(-8.30000000000007,-20.,9.07968050290318E-31));
#1585=CARTESIAN_POINT('',(-8.30000000000007,-20.,-2.72));
#1586=CARTESIAN_POINT('',(-8.30000000000007,-20.,0.));
#1587=CARTESIAN_POINT('',(-8.30000000000008,-20.,2.72));
#1588=CARTESIAN_POINT('',(-8.30000000000007,-20.,9.07968050290318E-31));
#1589=CARTESIAN_POINT('',(-8.30000000000008,-20.,0.));
#1590=CARTESIAN_POINT('',(-5.63496999199637,-22.,-0.54407265731684));
#1591=CARTESIAN_POINT('',(-5.6263079068682,-21.979426473111,-0.501643183076555));
#1592=CARTESIAN_POINT('',(-5.61844567069829,-21.9597533495453,-0.458057794423763));
#1593=CARTESIAN_POINT('',(-5.61141760886253,-21.9475879074137,-0.412219269400551));
#1594=CARTESIAN_POINT('',(-5.60660551127347,-21.9392582574876,-0.380833737954674));
#1595=CARTESIAN_POINT('',(-5.6020968686733,-21.9353084146956,-0.347545501795288));
#1596=CARTESIAN_POINT('',(-5.59830930311116,-21.9382082585357,-0.315067260031695));
#1597=CARTESIAN_POINT('',(-5.59345491360921,-21.9419248863442,-0.273441040426481));
#1598=CARTESIAN_POINT('',(-5.58969265092476,-21.9555787406907,-0.232708537390932));
#1599=CARTESIAN_POINT('',(-5.58691511296795,-21.9714195346122,-0.193830843154245));
#1600=CARTESIAN_POINT('',(-5.58536638769082,-21.9802521908485,-0.172153059189756));
#1601=CARTESIAN_POINT('',(-5.58410063451604,-21.9899330839802,-0.150796665908367));
#1602=CARTESIAN_POINT('',(-5.58309077096606,-22.,-0.129631173680542));
#1603=CARTESIAN_POINT('',(-5.63496999199637,-22.,-0.54407265731684));
#1604=CARTESIAN_POINT('',(-5.58309077096606,-22.,-0.129631173680542));
#1605=CARTESIAN_POINT('',(-5.58309077096606,-26.,-0.129631173680543));
#1606=CARTESIAN_POINT('',(-8.0911620263618,-26.,2.71197099924882));
#1607=CARTESIAN_POINT('',(-8.0911620263618,-22.,2.71197099924882));
#1608=CARTESIAN_POINT('',(-8.0911620263618,-22.,2.71197099924882));
#1609=CARTESIAN_POINT('',(-8.14050600572728,-21.9764878506826,2.71577078053881));
#1610=CARTESIAN_POINT('',(-8.1914126345983,-21.9537090169489,2.7183623358184));
#1611=CARTESIAN_POINT('',(-8.24511393816746,-21.9428885233358,2.71944617895198));
#1612=CARTESIAN_POINT('',(-8.26314279954927,-21.9392558148824,2.71981005201122));
#1613=CARTESIAN_POINT('',(-8.28160519592297,-21.937184765621,2.72));
#1614=CARTESIAN_POINT('',(-8.30000000000008,-21.937184765621,2.72));
#1615=CARTESIAN_POINT('',(-8.30000000000008,-21.937184765621,2.72));
#1616=CARTESIAN_POINT('',(-8.30000000000008,-17.,2.72));
#1617=CARTESIAN_POINT('',(-8.30000000000007,-17.,-2.72));
#1618=CARTESIAN_POINT('',(-8.30000000000007,-21.937184765621,-2.72));
#1619=CARTESIAN_POINT('',(-8.30000000000007,-21.937184765621,-2.72));
#1620=CARTESIAN_POINT('',(-8.26677228121645,-21.937184765621,-2.72));
#1621=CARTESIAN_POINT('',(-8.23344013150165,-21.944197666127,-2.71936956129873));
#1622=CARTESIAN_POINT('',(-8.20182173765953,-21.9543492316711,-2.7182275528005));
#1623=CARTESIAN_POINT('',(-8.16380044345328,-21.9665565456206,-2.71685428123857));
#1624=CARTESIAN_POINT('',(-8.12714608059156,-21.9828537854673,-2.71474198646466));
#1625=CARTESIAN_POINT('',(-8.09116202636179,-22.,-2.71197099924882));
#1626=CARTESIAN_POINT('',(-8.09116202636179,-22.,-2.71197099924882));
#1627=CARTESIAN_POINT('',(-8.09116202636178,-26.,-2.71197099924882));
#1628=CARTESIAN_POINT('',(-8.09116202636178,-23.,-2.71197099924882));
#1629=CARTESIAN_POINT('',(-8.30000000000007,-23.,0.));
#1630=CARTESIAN_POINT('',(-5.63496999199637,-23.,-0.544072657316836));
#1631=CARTESIAN_POINT('',(-5.63496999199637,-26.,-0.544072657316839));
#1632=CARTESIAN_POINT('',(-8.30000000000007,-17.,0.));
#1633=CARTESIAN_POINT('',(-8.30000000000008,24.,10.15));
#1634=CARTESIAN_POINT('',(-8.30000000000008,24.,10.15));
#1635=CARTESIAN_POINT('',(1.84999999999992,24.,10.15));
#1636=CARTESIAN_POINT('',(1.84999999999992,24.,10.15));
#1637=CARTESIAN_POINT('',(1.84999999999992,24.,10.15));
#1638=CARTESIAN_POINT('',(1.84999999999992,24.,10.15));
#1639=CARTESIAN_POINT('',(1.84999999999993,24.,-10.15));
#1640=CARTESIAN_POINT('',(1.84999999999993,24.,-10.15));
#1641=CARTESIAN_POINT('',(1.84999999999993,24.,-10.15));
#1642=CARTESIAN_POINT('',(1.84999999999993,24.,-10.15));
#1643=CARTESIAN_POINT('',(-8.30000000000007,24.,-10.15));
#1644=CARTESIAN_POINT('',(-8.30000000000007,24.,-10.15));
#1645=CARTESIAN_POINT('',(-18.4500000000001,24.,-10.15));
#1646=CARTESIAN_POINT('',(-18.4500000000001,24.,-10.15));
#1647=CARTESIAN_POINT('',(-8.30000000000007,24.,-4.34428594630403E-15));
#1648=CARTESIAN_POINT('',(-8.30000000000007,24.,-2.57454210575602));
#1649=CARTESIAN_POINT('',(-8.30000000000007,24.,-7.88860905221012E-31));
#1650=CARTESIAN_POINT('',(-8.30000000000008,24.,2.57454210575602));
#1651=CARTESIAN_POINT('',(-8.30000000000007,24.,-4.34428594630403E-15));
#1652=CARTESIAN_POINT('',(0.,24.,0.));
#1653=CARTESIAN_POINT('',(-8.30000000000007,-30.,-2.82454210575602));
#1654=CARTESIAN_POINT('',(-8.30000000000007,-22.,-2.82454210575602));
#1655=CARTESIAN_POINT('',(-8.30000000000007,-21.8497848452431,-2.57454210575602));
#1656=CARTESIAN_POINT('',(-8.30000000000007,20.,9.07968050290318E-31));
#1657=CARTESIAN_POINT('',(-8.30000000000007,20.,-2.57454210575602));
#1658=CARTESIAN_POINT('',(-8.30000000000007,78.,-2.57454210575602));
#1659=CARTESIAN_POINT('',(-8.30000000000007,-3.,-2.6480553860786E-15));
#1660=CARTESIAN_POINT('',(-8.30000000000008,-21.8497848452431,2.57454210575602));
#1661=CARTESIAN_POINT('',(-8.30000000000008,-22.,2.82454210575602));
#1662=CARTESIAN_POINT('',(-8.30000000000008,-30.,2.82454210575602));
#1663=CARTESIAN_POINT('',(-8.30000000000008,78.,2.57454210575602));
#1664=CARTESIAN_POINT('',(-8.30000000000008,20.,2.57454210575602));
#1665=CARTESIAN_POINT('',(-8.30000000000007,20.,9.07968050290318E-31));
#1666=CARTESIAN_POINT('',(-8.30000000000007,-3.,-2.6480553860786E-15));
#1667=CARTESIAN_POINT('',(-8.30000000000007,-23.,-7.88860905221012E-31));
#1668=CARTESIAN_POINT('',(-5.78845480942784,-23.,-0.566045766722198));
#1669=CARTESIAN_POINT('',(-8.05029483987025,-23.,-2.56240402499589));
#1670=CARTESIAN_POINT('',(-5.74539503184003,-23.,-0.319781974105239));
#1671=CARTESIAN_POINT('',(-8.30000000000007,-23.,-2.57454210575602));
#1672=CARTESIAN_POINT('',(-8.30000000000007,-23.,0.));
#1673=CARTESIAN_POINT('',(-8.30000000000007,20.,-7.88860905221012E-31));
#1674=CARTESIAN_POINT('',(-8.30000000000008,20.,0.));
#1675=CARTESIAN_POINT('',(-5.78845480942784,-26.,-0.566045766722197));
#1676=CARTESIAN_POINT('',(-8.05029483987025,-26.,-2.56240402499589));
#1677=CARTESIAN_POINT('',(-8.30000000000007,78.,-7.88860905221012E-31));
#1678=CARTESIAN_POINT('',(-8.30000000000007,78.,-7.88860905221012E-31));
#1679=CARTESIAN_POINT('',(-8.30000000000007,-22.,-2.57454210575602));
#1680=CARTESIAN_POINT('',(-8.30000000000007,-22.,-2.57454210575602));
#1681=CARTESIAN_POINT('',(-8.30000000000007,-30.,-2.57454210575602));
#1682=CARTESIAN_POINT('',(-8.30000000000008,-22.,2.57454210575602));
#1683=CARTESIAN_POINT('',(-8.30000000000008,-22.,2.57454210575602));
#1684=CARTESIAN_POINT('',(-8.30000000000008,-30.,2.57454210575602));
#1685=CARTESIAN_POINT('',(-5.74539503184003,-22.,-0.319781974105239));
#1686=CARTESIAN_POINT('',(-5.74539503184003,-22.,-0.319781974105239));
#1687=CARTESIAN_POINT('',(-5.74539503184003,-30.,-0.319781974105239));
#1688=CARTESIAN_POINT('',(-8.30000000000007,-30.,-7.88860905221012E-31));
#1689=CARTESIAN_POINT('',(-10.8665297068477,-30.,0.202958907612272));
#1690=CARTESIAN_POINT('',(-8.5497051601299,-30.,2.56240402499589));
#1691=CARTESIAN_POINT('',(-8.30000000000008,-30.,2.57454210575602));
#1692=CARTESIAN_POINT('',(-8.30000000000008,-30.,2.82454210575602));
#1693=CARTESIAN_POINT('',(-8.30000000000007,-30.,-4.34428594630403E-15));
#1694=CARTESIAN_POINT('',(-8.30000000000007,-30.,10.15));
#1695=CARTESIAN_POINT('',(1.84999999999992,-30.,10.15));
#1696=CARTESIAN_POINT('',(-18.4500000000001,-30.,10.15));
#1697=CARTESIAN_POINT('',(-18.4500000000001,-30.,10.15));
#1698=CARTESIAN_POINT('',(-18.4500000000001,-30.,-10.15));
#1699=CARTESIAN_POINT('',(-18.4500000000001,-30.,-10.15));
#1700=CARTESIAN_POINT('',(-8.30000000000007,-30.,-10.15));
#1701=CARTESIAN_POINT('',(-8.30000000000007,-30.,-4.34428594630403E-15));
#1702=CARTESIAN_POINT('',(-8.30000000000007,-30.,-2.82454210575602));
#1703=CARTESIAN_POINT('',(-8.30000000000007,-30.,-2.57454210575602));
#1704=CARTESIAN_POINT('',(-8.54970516012989,-30.,-2.56240402499589));
#1705=CARTESIAN_POINT('',(-8.30000000000007,-30.,-7.88860905221012E-31));
#1706=CARTESIAN_POINT('',(-10.8574269876363,-30.,-0.296368448422627));
#1707=CARTESIAN_POINT('',(-10.8741144115711,-30.,-0.0469260104085219));
#1708=CARTESIAN_POINT('',(0.,-30.,0.));
#1709=CARTESIAN_POINT('',(-8.30000000000007,-23.,0.));
#1710=CARTESIAN_POINT('',(-8.50883797363837,-23.,2.71197099924882));
#1711=CARTESIAN_POINT('',(-11.0153269508487,-23.,0.159372362708631));
#1712=CARTESIAN_POINT('',(-8.30000000000008,-23.,2.57454210575602));
#1713=CARTESIAN_POINT('',(-8.5497051601299,-23.,2.56240402499589));
#1714=CARTESIAN_POINT('',(-8.30000000000007,-23.,-7.88860905221012E-31));
#1715=CARTESIAN_POINT('',(-10.8665297068477,-23.,0.202958907612273));
#1716=CARTESIAN_POINT('',(-10.8741144115711,-23.,-0.0469260104085219));
#1717=CARTESIAN_POINT('',(-8.30000000000007,-23.,0.));
#1718=CARTESIAN_POINT('',(-8.54970516012989,-26.,-2.56240402499589));
#1719=CARTESIAN_POINT('',(-8.54970516012989,-23.,-2.56240402499589));
#1720=CARTESIAN_POINT('',(-8.30000000000007,-23.,-7.88860905221012E-31));
#1721=CARTESIAN_POINT('',(-10.8574269876363,-23.,-0.296368448422626));
#1722=CARTESIAN_POINT('',(-10.8574269876363,-26.,-0.296368448422627));
#1723=CARTESIAN_POINT('',(-8.30000000000007,78.,-7.88860905221012E-31));
#1724=CARTESIAN_POINT('',(-8.30000000000008,-21.8497848452431,2.57454210575602));
#1725=CARTESIAN_POINT('',(-8.30000000000008,-21.937184765621,2.72));
#1726=CARTESIAN_POINT('',(-8.30000000000008,-22.,2.82454210575602));
#1727=CARTESIAN_POINT('',(-8.30000000000008,-17.,2.72));
#1728=CARTESIAN_POINT('',(-8.30000000000008,-20.,2.72));
#1729=CARTESIAN_POINT('',(-8.30000000000007,-20.,9.07968050290318E-31));
#1730=CARTESIAN_POINT('',(-8.30000000000008,-20.,3.15));
#1731=CARTESIAN_POINT('',(-8.30000000000008,20.,3.15));
#1732=CARTESIAN_POINT('',(-8.30000000000008,20.,3.15));
#1733=CARTESIAN_POINT('',(-8.30000000000007,20.,9.07968050290318E-31));
#1734=CARTESIAN_POINT('',(-8.30000000000008,20.,2.57454210575602));
#1735=CARTESIAN_POINT('',(-8.30000000000008,78.,2.57454210575602));
#1736=CARTESIAN_POINT('',(-8.30000000000008,24.,2.57454210575602));
#1737=CARTESIAN_POINT('',(-8.30000000000007,24.,-4.34428594630403E-15));
#1738=CARTESIAN_POINT('',(-8.30000000000008,24.,10.15));
#1739=CARTESIAN_POINT('',(-8.30000000000008,24.,10.15));
#1740=CARTESIAN_POINT('',(-8.30000000000008,-30.,2.82454210575602));
#1741=CARTESIAN_POINT('',(-8.30000000000007,-3.,-2.6480553860786E-15));
#1742=CARTESIAN_POINT('',(-8.30000000000007,-21.8497848452431,-2.57454210575602));
#1743=CARTESIAN_POINT('',(-8.30000000000007,-22.,-2.82454210575602));
#1744=CARTESIAN_POINT('',(-8.30000000000007,-21.937184765621,-2.72));
#1745=CARTESIAN_POINT('',(-8.30000000000007,-30.,-2.82454210575602));
#1746=CARTESIAN_POINT('',(-8.30000000000007,24.,-10.15));
#1747=CARTESIAN_POINT('',(-8.30000000000007,24.,-10.15));
#1748=CARTESIAN_POINT('',(-8.30000000000007,24.,-4.34428594630403E-15));
#1749=CARTESIAN_POINT('',(-8.30000000000007,24.,-2.57454210575602));
#1750=CARTESIAN_POINT('',(-8.30000000000007,78.,-2.57454210575602));
#1751=CARTESIAN_POINT('',(-8.30000000000007,20.,-2.57454210575602));
#1752=CARTESIAN_POINT('',(-8.30000000000007,20.,9.07968050290318E-31));
#1753=CARTESIAN_POINT('',(-8.30000000000007,20.,-3.15));
#1754=CARTESIAN_POINT('',(-8.30000000000007,20.,-3.15));
#1755=CARTESIAN_POINT('',(-8.30000000000007,-20.,-3.15));
#1756=CARTESIAN_POINT('',(-8.30000000000007,-20.,9.07968050290318E-31));
#1757=CARTESIAN_POINT('',(-8.30000000000007,-20.,-2.72));
#1758=CARTESIAN_POINT('',(-8.30000000000007,-17.,-2.72));
#1759=CARTESIAN_POINT('',(-8.30000000000007,-3.,-2.6480553860786E-15));
#1760=CARTESIAN_POINT('',(-8.30000000000007,20.,-7.88860905221012E-31));
#1761=CARTESIAN_POINT('',(-8.30000000000008,20.,0.));
#1762=CARTESIAN_POINT('',(-8.30000000000008,20.,0.));
#1763=CARTESIAN_POINT('',(-8.30000000000007,-23.,-2.57454210575602));
#1764=CARTESIAN_POINT('',(-8.50883797363835,-23.,-2.71197099924882));
#1765=CARTESIAN_POINT('',(-8.30000000000007,-23.,0.));
#1766=CARTESIAN_POINT('',(-11.0077139987025,-23.,-0.258234198414356));
#1767=CARTESIAN_POINT('',(-10.8741144115711,-23.,-0.0469260104085219));
#1768=CARTESIAN_POINT('',(-8.30000000000007,-23.,0.));
#1769=CARTESIAN_POINT('',(-8.30000000000008,-21.937184765621,2.72));
#1770=CARTESIAN_POINT('',(-8.33322771878369,-21.937184765621,2.72));
#1771=CARTESIAN_POINT('',(-8.3665598684985,-21.9441976661269,2.71936956129873));
#1772=CARTESIAN_POINT('',(-8.39817826234061,-21.9543492316711,2.7182275528005));
#1773=CARTESIAN_POINT('',(-8.43619955654686,-21.9665565456206,2.71685428123857));
#1774=CARTESIAN_POINT('',(-8.47285391940859,-21.9828537854673,2.71474198646466));
#1775=CARTESIAN_POINT('',(-8.50883797363837,-22.,2.71197099924882));
#1776=CARTESIAN_POINT('',(-8.50883797363837,-22.,2.71197099924882));
#1777=CARTESIAN_POINT('',(-8.50883797363837,-26.,2.71197099924882));
#1778=CARTESIAN_POINT('',(-11.0153269508487,-26.,0.159372362708631));
#1779=CARTESIAN_POINT('',(-11.0153269508487,-22.,0.159372362708631));
#1780=CARTESIAN_POINT('',(-11.0153269508487,-22.,0.159372362708631));
#1781=CARTESIAN_POINT('',(-11.0178642902174,-21.979426473111,0.116142119683604));
#1782=CARTESIAN_POINT('',(-11.0194454602437,-21.9597533495453,0.0718815191120499));
#1783=CARTESIAN_POINT('',(-11.0198803781245,-21.9475879074137,0.0255093844198843));
#1784=CARTESIAN_POINT('',(-11.0201781653858,-21.9392582574876,-0.0062415083249516));
#1785=CARTESIAN_POINT('',(-11.0199048784318,-21.9353084146956,-0.0398325761695479));
#1786=CARTESIAN_POINT('',(-11.0190330912514,-21.9382082585357,-0.0725192986735611));
#1787=CARTESIAN_POINT('',(-11.0179157522993,-21.9419248863443,-0.114412720707644));
#1788=CARTESIAN_POINT('',(-11.01584454946,-21.9555787406907,-0.155266136022001));
#1789=CARTESIAN_POINT('',(-11.0130625310822,-21.9714195346122,-0.194143509904632));
#1790=CARTESIAN_POINT('',(-11.0115113075706,-21.9802521908486,-0.215821115243104));
#1791=CARTESIAN_POINT('',(-11.0097257162311,-21.9899330839802,-0.237140339634614));
#1792=CARTESIAN_POINT('',(-11.0077139987025,-22.,-0.258234198414355));
#1793=CARTESIAN_POINT('',(-11.0077139987025,-22.,-0.258234198414355));
#1794=CARTESIAN_POINT('',(-11.0077139987025,-26.,-0.258234198414355));
#1795=CARTESIAN_POINT('',(-8.50883797363835,-26.,-2.71197099924882));
#1796=CARTESIAN_POINT('',(-8.50883797363835,-22.,-2.71197099924882));
#1797=CARTESIAN_POINT('',(-8.50883797363835,-22.,-2.71197099924882));
#1798=CARTESIAN_POINT('',(-8.45949399427287,-21.9764878506826,-2.71577078053881));
#1799=CARTESIAN_POINT('',(-8.40858736540186,-21.9537090169489,-2.7183623358184));
#1800=CARTESIAN_POINT('',(-8.35488606183269,-21.9428885233358,-2.71944617895198));
#1801=CARTESIAN_POINT('',(-8.33685720045088,-21.9392558148824,-2.71981005201122));
#1802=CARTESIAN_POINT('',(-8.31839480407718,-21.937184765621,-2.72));
#1803=CARTESIAN_POINT('',(-8.30000000000007,-21.937184765621,-2.72));
#1804=CARTESIAN_POINT('',(-8.30000000000007,-20.,0.));
#1805=CARTESIAN_POINT('',(-8.30000000000007,-17.,0.));
#1806=CARTESIAN_POINT('',(-8.30000000000008,-20.,0.));
#1807=CARTESIAN_POINT('',(-8.30000000000008,-20.,0.));
#1808=CARTESIAN_POINT('',(-8.30000000000008,20.,0.));
#1809=CARTESIAN_POINT('',(-18.4500000000001,24.,10.15));
#1810=CARTESIAN_POINT('',(-18.4500000000001,24.,10.15));
#1811=CARTESIAN_POINT('',(-18.4500000000001,24.,10.15));
#1812=CARTESIAN_POINT('',(-18.4500000000001,24.,-10.15));
#1813=CARTESIAN_POINT('',(-18.4500000000001,24.,-10.15));
#1814=CARTESIAN_POINT('',(-18.4500000000001,24.,10.15));
#1815=CARTESIAN_POINT('',(-8.30000000000007,24.,-7.88860905221012E-31));
#1816=CARTESIAN_POINT('',(-18.4500000000001,24.,-10.15));
#1817=CARTESIAN_POINT('',(1.84999999999992,24.,10.15));
#1818=CARTESIAN_POINT('',(0.,24.,0.));
#1819=CARTESIAN_POINT('',(1.84999999999992,24.,10.15));
#1820=CARTESIAN_POINT('',(-18.4500000000001,24.,-10.15));
#1821=CARTESIAN_POINT('',(-8.54970516012991,-26.,2.56240402499589));
#1822=CARTESIAN_POINT('',(-10.8665297068477,-26.,0.202958907612272));
#1823=CARTESIAN_POINT('',(-8.30000000000007,78.,-7.88860905221012E-31));
#1824=CARTESIAN_POINT('',(-8.30000000000007,78.,-7.88860905221012E-31));
#1825=CARTESIAN_POINT('',(-10.8741144115711,-22.,-0.0469260104085219));
#1826=CARTESIAN_POINT('',(-10.8741144115711,-22.,-0.0469260104085219));
#1827=CARTESIAN_POINT('',(-10.8741144115711,-30.,-0.0469260104085219));
#1828=CARTESIAN_POINT('',(-8.30000000000007,-22.,-2.57454210575602));
#1829=CARTESIAN_POINT('',(-8.30000000000007,-22.,-2.57454210575602));
#1830=CARTESIAN_POINT('',(-8.30000000000007,-30.,-2.57454210575602));
#1831=CARTESIAN_POINT('',(-8.30000000000008,-22.,2.57454210575602));
#1832=CARTESIAN_POINT('',(-8.30000000000008,-22.,2.57454210575602));
#1833=CARTESIAN_POINT('',(-8.30000000000008,-30.,2.57454210575602));
#1834=CARTESIAN_POINT('',(-8.30000000000007,-30.,-7.88860905221012E-31));
#1835=CARTESIAN_POINT('',(-8.05029483987025,-30.,-2.56240402499589));
#1836=CARTESIAN_POINT('',(-5.78845480942784,-30.,-0.566045766722197));
#1837=CARTESIAN_POINT('',(-5.74539503184003,-30.,-0.319781974105239));
#1838=CARTESIAN_POINT('',(-5.72642342227589,-30.,-0.0705028573895669));
#1839=CARTESIAN_POINT('',(-8.30000000000007,-30.,-7.88860905221012E-31));
#1840=CARTESIAN_POINT('',(-8.05029483987026,-30.,2.5624040249959));
#1841=CARTESIAN_POINT('',(-8.30000000000008,-30.,2.57454210575602));
#1842=CARTESIAN_POINT('',(-8.54970516012991,-30.,2.56240402499589));
#1843=CARTESIAN_POINT('',(-8.30000000000007,-30.,-7.88860905221012E-31));
#1844=CARTESIAN_POINT('',(-10.8665297068477,-30.,0.202958907612273));
#1845=CARTESIAN_POINT('',(-10.8741144115711,-30.,-0.0469260104085219));
#1846=CARTESIAN_POINT('',(-10.8574269876363,-30.,-0.296368448422627));
#1847=CARTESIAN_POINT('',(-8.30000000000007,-30.,-7.88860905221012E-31));
#1848=CARTESIAN_POINT('',(-8.54970516012989,-30.,-2.56240402499589));
#1849=CARTESIAN_POINT('',(-8.30000000000007,-30.,-2.57454210575602));
#1850=CARTESIAN_POINT('',(0.,-30.,0.));
#1851=CARTESIAN_POINT('',(-5.72642342227589,-26.,-0.0705028573895669));
#1852=CARTESIAN_POINT('',(-5.72642342227589,-23.,-0.0705028573895654));
#1853=CARTESIAN_POINT('',(-8.30000000000007,-23.,-7.88860905221012E-31));
#1854=CARTESIAN_POINT('',(-8.05029483987026,-23.,2.5624040249959));
#1855=CARTESIAN_POINT('',(-8.05029483987026,-26.,2.5624040249959));
#1856=CARTESIAN_POINT('',(-8.30000000000007,78.,-7.88860905221012E-31));
#1857=CARTESIAN_POINT('',(-8.54970516012991,-26.,2.56240402499589));
#1858=CARTESIAN_POINT('',(-8.54970516012991,-23.,2.56240402499589));
#1859=CARTESIAN_POINT('',(-8.30000000000007,-23.,-7.88860905221012E-31));
#1860=CARTESIAN_POINT('',(-10.8665297068477,-23.,0.202958907612273));
#1861=CARTESIAN_POINT('',(-10.8665297068477,-26.,0.202958907612272));
#1862=CARTESIAN_POINT('',(-8.30000000000007,78.,-7.88860905221012E-31));
#1863=CARTESIAN_POINT('',(-5.78845480942784,-26.,-0.566045766722197));
#1864=CARTESIAN_POINT('',(-5.78845480942784,-23.,-0.566045766722199));
#1865=CARTESIAN_POINT('',(-8.05029483987025,-26.,-2.56240402499589));
#1866=CARTESIAN_POINT('',(-8.05029483987024,-23.,-2.56240402499589));
#1867=CARTESIAN_POINT('',(-8.30000000000007,-23.,-7.88860905221012E-31));
#1868=CARTESIAN_POINT('',(-8.30000000000007,78.,-7.88860905221012E-31));
#1869=CARTESIAN_POINT('',(-8.30000000000008,20.,0.));
#1870=CARTESIAN_POINT('',(-8.30000000000008,20.,2.43));
#1871=CARTESIAN_POINT('',(-8.30000000000007,20.,-7.88860905221012E-31));
#1872=CARTESIAN_POINT('',(-8.30000000000007,20.,-2.57454210575602));
#1873=CARTESIAN_POINT('',(-8.30000000000008,20.,0.));
#1874=CARTESIAN_POINT('',(-5.74539503184003,-23.,-0.319781974105239));
#1875=CARTESIAN_POINT('',(-8.30000000000007,-23.,-2.57454210575602));
#1876=CARTESIAN_POINT('',(-8.54970516012989,-23.,-2.56240402499589));
#1877=CARTESIAN_POINT('',(-8.30000000000007,-23.,-7.88860905221012E-31));
#1878=CARTESIAN_POINT('',(-10.8574269876363,-23.,-0.296368448422628));
#1879=CARTESIAN_POINT('',(-10.8741144115711,-23.,-0.0469260104085219));
#1880=CARTESIAN_POINT('',(-8.30000000000008,-23.,2.57454210575602));
#1881=CARTESIAN_POINT('',(-8.30000000000007,-23.,0.));
#1882=CARTESIAN_POINT('',(-6.30000000000007,-23.,-1.22464679914735E-16));
#1883=CARTESIAN_POINT('',(-8.30000000000007,-23.,0.));
#1884=CARTESIAN_POINT('',(-8.30000000000007,24.,-7.88860905221012E-31));
#1885=CARTESIAN_POINT('',(-8.30000000000007,24.,-2.57454210575602));
#1886=CARTESIAN_POINT('',(0.,24.,0.));
#1887=CARTESIAN_POINT('',(-8.30000000000008,-17.,0.));
#1888=CARTESIAN_POINT('',(-8.30000000000008,-17.,-2.43));
#1889=CARTESIAN_POINT('',(-8.30000000000008,20.,0.));
#1890=CARTESIAN_POINT('',(-8.30000000000007,-17.,0.));
#1891=CARTESIAN_POINT('',(-6.30000000000007,-17.,-1.22464679914735E-16));
#1892=CARTESIAN_POINT('',(-8.30000000000007,-17.,0.));
#1893=CARTESIAN_POINT('',(-8.30000000000007,-17.,0.));
#1894=CARTESIAN_POINT('',(-8.54970516012989,-26.,-2.56240402499589));
#1895=CARTESIAN_POINT('',(-10.8574269876363,-26.,-0.296368448422627));
#1896=CARTESIAN_POINT('',(-8.30000000000007,78.,-7.88860905221012E-31));
#1897=CARTESIAN_POINT('',(-8.30000000000007,78.,-7.88860905221012E-31));
#1898=CARTESIAN_POINT('',(-10.8741144115711,-30.,-0.0469260104085219));
#1899=CARTESIAN_POINT('',(-8.30000000000007,-30.,-2.57454210575602));
#1900=CARTESIAN_POINT('',(-8.30000000000008,-30.,2.57454210575602));
#1901=CARTESIAN_POINT('',(-5.74539503184003,-30.,-0.319781974105239));
#1902=MECHANICAL_DESIGN_GEOMETRIC_PRESENTATION_REPRESENTATION('',(#36,#37,
#38),#1903);
#1903=(
GEOMETRIC_REPRESENTATION_CONTEXT(3)
GLOBAL_UNCERTAINTY_ASSIGNED_CONTEXT((#1904))
GLOBAL_UNIT_ASSIGNED_CONTEXT((#1910,#1906,#1905))
REPRESENTATION_CONTEXT('balloon_pipe_mold','TOP_LEVEL_ASSEMBLY_PART')
);
#1904=UNCERTAINTY_MEASURE_WITH_UNIT(LENGTH_MEASURE(0.0508),#1910,
'DISTANCE_ACCURACY_VALUE','Maximum Tolerance applied to model');
#1905=(
NAMED_UNIT(*)
SI_UNIT($,.STERADIAN.)
SOLID_ANGLE_UNIT()
);
#1906=(
CONVERSION_BASED_UNIT('DEGREE',#1908)
NAMED_UNIT(#1907)
PLANE_ANGLE_UNIT()
);
#1907=DIMENSIONAL_EXPONENTS(0.,0.,0.,0.,0.,0.,0.);
#1908=PLANE_ANGLE_MEASURE_WITH_UNIT(PLANE_ANGLE_MEASURE(0.0174532925),#1909);
#1909=(
NAMED_UNIT(*)
PLANE_ANGLE_UNIT()
SI_UNIT($,.RADIAN.)
);
#1910=(
LENGTH_UNIT()
NAMED_UNIT(*)
SI_UNIT(.MILLI.,.METRE.)
);
ENDSEC;
END-ISO-10303-21;
