ISO-10303-21;
HEADER;
/* Generated by software containing ST-Developer
 * from STEP Tools, Inc. (www.steptools.com) 
 */
/* OPTION: using custom schema-name function */

FILE_DESCRIPTION(
/* description */ (''),
/* implementation_level */ '2;1');

FILE_NAME(
/* name */ 'balloon_pipe.stp',
/* time_stamp */ '2026-09-08T16:04:44+02:00',
/* author */ (''),
/* organization */ (''),
/* preprocessor_version */ 'ST-DEVELOPER v20',
/* originating_system */ 'SIEMENS PLM Software NX2406.3002',
/* authorisation */ '');

FILE_SCHEMA (('AUTOMOTIVE_DESIGN { 1 0 10303 214 3 1 1 1 }'));
ENDSEC;

DATA;
#10=SHAPE_REPRESENTATION_RELATIONSHIP('None',
'relationship between balloon_pipe-None and balloon_pipe-None',#22,#11);
#11=ADVANCED_BREP_SHAPE_REPRESENTATION('balloon_pipe-None',(#32),#199);
#12=SHAPE_DEFINITION_REPRESENTATION(#13,#22);
#13=PRODUCT_DEFINITION_SHAPE('','',#14);
#14=PRODUCT_DEFINITION(' ','',#16,#15);
#15=PRODUCT_DEFINITION_CONTEXT('part definition',#21,'design');
#16=PRODUCT_DEFINITION_FORMATION_WITH_SPECIFIED_SOURCE(' ',' ',#18,
 .NOT_KNOWN.);
#17=PRODUCT_RELATED_PRODUCT_CATEGORY('part','',(#18));
#18=PRODUCT('balloon_pipe','balloon_pipe',' ',(#19));
#19=PRODUCT_CONTEXT(' ',#21,'mechanical');
#20=APPLICATION_PROTOCOL_DEFINITION('international standard',
'automotive_design',2010,#21);
#21=APPLICATION_CONTEXT(
'core data for automotive mechanical design processes');
#22=SHAPE_REPRESENTATION('balloon_pipe-None',(#122),#199);
#23=PRESENTATION_LAYER_ASSIGNMENT('1','Layer 1',(#32));
#24=STYLED_ITEM('',(#25),#32);
#25=PRESENTATION_STYLE_ASSIGNMENT((#26));
#26=SURFACE_STYLE_USAGE(.BOTH.,#27);
#27=SURFACE_SIDE_STYLE('',(#28));
#28=SURFACE_STYLE_FILL_AREA(#29);
#29=FILL_AREA_STYLE('',(#30));
#30=FILL_AREA_STYLE_COLOUR('',#31);
#31=COLOUR_RGB('medium steel',0.596078431372549,0.666666666666667,0.686274509803922);
#32=MANIFOLD_SOLID_BREP('',#33);
#33=CLOSED_SHELL('',(#38,#39,#40,#41,#42,#43,#44,#45));
#34=PLANE('',#129);
#35=PLANE('',#131);
#36=PLANE('',#133);
#37=PLANE('',#138);
#38=ADVANCED_FACE('',(#50,#51),#46,.F.);
#39=ADVANCED_FACE('',(#52,#53),#47,.T.);
#40=ADVANCED_FACE('',(#54,#55),#34,.F.);
#41=ADVANCED_FACE('',(#56,#57),#35,.T.);
#42=ADVANCED_FACE('',(#58,#59),#36,.F.);
#43=ADVANCED_FACE('',(#60,#61),#48,.T.);
#44=ADVANCED_FACE('',(#62,#63),#49,.F.);
#45=ADVANCED_FACE('',(#64,#65),#37,.T.);
#46=CYLINDRICAL_SURFACE('',#125,2.43);
#47=CYLINDRICAL_SURFACE('',#128,3.15);
#48=CYLINDRICAL_SURFACE('',#135,2.72);
#49=CYLINDRICAL_SURFACE('',#137,2.);
#50=FACE_BOUND('',#66,.T.);
#51=FACE_BOUND('',#67,.T.);
#52=FACE_BOUND('',#68,.T.);
#53=FACE_BOUND('',#69,.T.);
#54=FACE_BOUND('',#70,.T.);
#55=FACE_BOUND('',#71,.T.);
#56=FACE_BOUND('',#72,.T.);
#57=FACE_BOUND('',#73,.T.);
#58=FACE_BOUND('',#74,.T.);
#59=FACE_BOUND('',#75,.T.);
#60=FACE_BOUND('',#76,.T.);
#61=FACE_BOUND('',#77,.T.);
#62=FACE_BOUND('',#78,.T.);
#63=FACE_BOUND('',#79,.T.);
#64=FACE_BOUND('',#80,.T.);
#65=FACE_BOUND('',#81,.T.);
#66=EDGE_LOOP('',(#82));
#67=EDGE_LOOP('',(#83));
#68=EDGE_LOOP('',(#84));
#69=EDGE_LOOP('',(#85));
#70=EDGE_LOOP('',(#86));
#71=EDGE_LOOP('',(#87));
#72=EDGE_LOOP('',(#88));
#73=EDGE_LOOP('',(#89));
#74=EDGE_LOOP('',(#90));
#75=EDGE_LOOP('',(#91));
#76=EDGE_LOOP('',(#92));
#77=EDGE_LOOP('',(#93));
#78=EDGE_LOOP('',(#94));
#79=EDGE_LOOP('',(#95));
#80=EDGE_LOOP('',(#96));
#81=EDGE_LOOP('',(#97));
#82=ORIENTED_EDGE('',*,*,#106,.F.);
#83=ORIENTED_EDGE('',*,*,#107,.F.);
#84=ORIENTED_EDGE('',*,*,#108,.T.);
#85=ORIENTED_EDGE('',*,*,#109,.F.);
#86=ORIENTED_EDGE('',*,*,#108,.F.);
#87=ORIENTED_EDGE('',*,*,#106,.T.);
#88=ORIENTED_EDGE('',*,*,#110,.T.);
#89=ORIENTED_EDGE('',*,*,#109,.T.);
#90=ORIENTED_EDGE('',*,*,#111,.F.);
#91=ORIENTED_EDGE('',*,*,#107,.T.);
#92=ORIENTED_EDGE('',*,*,#110,.F.);
#93=ORIENTED_EDGE('',*,*,#112,.T.);
#94=ORIENTED_EDGE('',*,*,#111,.T.);
#95=ORIENTED_EDGE('',*,*,#113,.F.);
#96=ORIENTED_EDGE('',*,*,#112,.F.);
#97=ORIENTED_EDGE('',*,*,#113,.T.);
#98=VERTEX_POINT('',#175);
#99=VERTEX_POINT('',#177);
#100=VERTEX_POINT('',#180);
#101=VERTEX_POINT('',#182);
#102=VERTEX_POINT('',#186);
#103=VERTEX_POINT('',#189);
#104=VERTEX_POINT('',#192);
#105=VERTEX_POINT('',#195);
#106=EDGE_CURVE('',#98,#98,#114,.T.);
#107=EDGE_CURVE('',#99,#99,#115,.T.);
#108=EDGE_CURVE('',#100,#100,#116,.T.);
#109=EDGE_CURVE('',#101,#101,#117,.T.);
#110=EDGE_CURVE('',#102,#102,#118,.T.);
#111=EDGE_CURVE('',#103,#103,#119,.T.);
#112=EDGE_CURVE('',#104,#104,#120,.T.);
#113=EDGE_CURVE('',#105,#105,#121,.T.);
#114=CIRCLE('',#123,2.43);
#115=CIRCLE('',#124,2.43);
#116=CIRCLE('',#126,3.15);
#117=CIRCLE('',#127,3.15);
#118=CIRCLE('',#130,2.72);
#119=CIRCLE('',#132,2.);
#120=CIRCLE('',#134,2.72);
#121=CIRCLE('',#136,2.);
#122=AXIS2_PLACEMENT_3D('',#173,#139,#140);
#123=AXIS2_PLACEMENT_3D('',#174,#141,#142);
#124=AXIS2_PLACEMENT_3D('',#176,#143,#144);
#125=AXIS2_PLACEMENT_3D('',#178,#145,#146);
#126=AXIS2_PLACEMENT_3D('',#179,#147,#148);
#127=AXIS2_PLACEMENT_3D('',#181,#149,#150);
#128=AXIS2_PLACEMENT_3D('',#183,#151,#152);
#129=AXIS2_PLACEMENT_3D('',#184,#153,#154);
#130=AXIS2_PLACEMENT_3D('',#185,#155,#156);
#131=AXIS2_PLACEMENT_3D('',#187,#157,#158);
#132=AXIS2_PLACEMENT_3D('',#188,#159,#160);
#133=AXIS2_PLACEMENT_3D('',#190,#161,#162);
#134=AXIS2_PLACEMENT_3D('',#191,#163,#164);
#135=AXIS2_PLACEMENT_3D('',#193,#165,#166);
#136=AXIS2_PLACEMENT_3D('',#194,#167,#168);
#137=AXIS2_PLACEMENT_3D('',#196,#169,#170);
#138=AXIS2_PLACEMENT_3D('',#197,#171,#172);
#139=DIRECTION('',(0.,0.,1.));
#140=DIRECTION('',(1.,0.,0.));
#141=DIRECTION('',(0.,-1.,0.));
#142=DIRECTION('',(0.,0.,1.));
#143=DIRECTION('',(0.,1.,0.));
#144=DIRECTION('',(0.,0.,-1.));
#145=DIRECTION('',(0.,-1.,0.));
#146=DIRECTION('',(0.,0.,-1.));
#147=DIRECTION('',(0.,-1.,0.));
#148=DIRECTION('',(0.,0.,1.));
#149=DIRECTION('',(0.,-1.,0.));
#150=DIRECTION('',(0.,0.,1.));
#151=DIRECTION('',(0.,-1.,0.));
#152=DIRECTION('',(0.,0.,-1.));
#153=DIRECTION('',(0.,-1.,0.));
#154=DIRECTION('',(0.,0.,-1.));
#155=DIRECTION('',(0.,1.,0.));
#156=DIRECTION('',(0.,0.,-1.));
#157=DIRECTION('',(0.,-1.,0.));
#158=DIRECTION('',(0.,0.,-1.));
#159=DIRECTION('',(0.,1.,0.));
#160=DIRECTION('',(1.,0.,-6.12323399573677E-17));
#161=DIRECTION('',(0.,-1.,0.));
#162=DIRECTION('',(0.,0.,-1.));
#163=DIRECTION('',(0.,1.,0.));
#164=DIRECTION('',(1.,0.,-6.12323399573677E-17));
#165=DIRECTION('',(0.,-1.,0.));
#166=DIRECTION('',(0.,0.,-1.));
#167=DIRECTION('',(0.,1.,0.));
#168=DIRECTION('',(1.,0.,-6.12323399573677E-17));
#169=DIRECTION('',(0.,-1.,0.));
#170=DIRECTION('',(0.,0.,-1.));
#171=DIRECTION('',(0.,-1.,0.));
#172=DIRECTION('',(0.,0.,-1.));
#173=CARTESIAN_POINT('',(0.,0.,0.));
#174=CARTESIAN_POINT('',(-8.30000000000008,20.,0.));
#175=CARTESIAN_POINT('',(-8.30000000000008,20.,2.43));
#176=CARTESIAN_POINT('',(-8.30000000000008,-17.,0.));
#177=CARTESIAN_POINT('',(-8.30000000000008,-17.,-2.43));
#178=CARTESIAN_POINT('',(-8.30000000000008,20.,0.));
#179=CARTESIAN_POINT('',(-8.30000000000008,20.,0.));
#180=CARTESIAN_POINT('',(-8.30000000000008,20.,3.15));
#181=CARTESIAN_POINT('',(-8.30000000000008,-20.,0.));
#182=CARTESIAN_POINT('',(-8.30000000000008,-20.,3.15));
#183=CARTESIAN_POINT('',(-8.30000000000008,20.,0.));
#184=CARTESIAN_POINT('',(-8.30000000000008,20.,0.));
#185=CARTESIAN_POINT('',(-8.30000000000007,-20.,0.));
#186=CARTESIAN_POINT('',(-8.30000000000007,-20.,-2.72));
#187=CARTESIAN_POINT('',(-8.30000000000008,-20.,0.));
#188=CARTESIAN_POINT('',(-8.30000000000007,-17.,0.));
#189=CARTESIAN_POINT('',(-6.30000000000007,-17.,-1.22464679914735E-16));
#190=CARTESIAN_POINT('',(-8.30000000000007,-17.,0.));
#191=CARTESIAN_POINT('',(-8.30000000000007,-23.,0.));
#192=CARTESIAN_POINT('',(-5.58000000000007,-23.,-1.6655196468404E-16));
#193=CARTESIAN_POINT('',(-8.30000000000007,-17.,0.));
#194=CARTESIAN_POINT('',(-8.30000000000007,-23.,0.));
#195=CARTESIAN_POINT('',(-6.30000000000007,-23.,-1.22464679914735E-16));
#196=CARTESIAN_POINT('',(-8.30000000000007,-17.,0.));
#197=CARTESIAN_POINT('',(-8.30000000000007,-23.,0.));
#198=MECHANICAL_DESIGN_GEOMETRIC_PRESENTATION_REPRESENTATION('',(#24),#199);
#199=(
GEOMETRIC_REPRESENTATION_CONTEXT(3)
GLOBAL_UNCERTAINTY_ASSIGNED_CONTEXT((#200))
GLOBAL_UNIT_ASSIGNED_CONTEXT((#206,#202,#201))
REPRESENTATION_CONTEXT('balloon_pipe','TOP_LEVEL_ASSEMBLY_PART')
);
#200=UNCERTAINTY_MEASURE_WITH_UNIT(LENGTH_MEASURE(2.E-5),#206,
'DISTANCE_ACCURACY_VALUE','Maximum Tolerance applied to model');
#201=(
NAMED_UNIT(*)
SI_UNIT($,.STERADIAN.)
SOLID_ANGLE_UNIT()
);
#202=(
CONVERSION_BASED_UNIT('DEGREE',#204)
NAMED_UNIT(#203)
PLANE_ANGLE_UNIT()
);
#203=DIMENSIONAL_EXPONENTS(0.,0.,0.,0.,0.,0.,0.);
#204=PLANE_ANGLE_MEASURE_WITH_UNIT(PLANE_ANGLE_MEASURE(0.0174532925),#205);
#205=(
NAMED_UNIT(*)
PLANE_ANGLE_UNIT()
SI_UNIT($,.RADIAN.)
);
#206=(
LENGTH_UNIT()
NAMED_UNIT(*)
SI_UNIT(.MILLI.,.METRE.)
);
ENDSEC;
END-ISO-10303-21;
