ISO-10303-21;
HEADER;
/* Generated by software containing ST-Developer
 * from STEP Tools, Inc. (www.steptools.com) 
 */
/* OPTION: using custom schema-name function */

FILE_DESCRIPTION(
/* description */ (''),
/* implementation_level */ '2;1');

FILE_NAME(
/* name */ 'umbrella_contain_silicone.stp',
/* time_stamp */ '2026-09-08T16:17:24+02:00',
/* author */ (''),
/* organization */ (''),
/* preprocessor_version */ 'ST-DEVELOPER v20',
/* originating_system */ 'SIEMENS PLM Software NX2406.3002',
/* authorisation */ '');

FILE_SCHEMA (('AUTOMOTIVE_DESIGN { 1 0 10303 214 3 1 1 1 }'));
ENDSEC;

DATA;
#10=SHAPE_REPRESENTATION_RELATIONSHIP('None',
'relationship between umbrella_contain_silicone-None and umbrella_cont
ain_silicone-None',#22,#11);
#11=ADVANCED_BREP_SHAPE_REPRESENTATION('umbrella_contain_silicone-None',
(#39,#40),#510);
#12=SHAPE_DEFINITION_REPRESENTATION(#13,#22);
#13=PRODUCT_DEFINITION_SHAPE('','',#14);
#14=PRODUCT_DEFINITION(' ','',#16,#15);
#15=PRODUCT_DEFINITION_CONTEXT('part definition',#21,'design');
#16=PRODUCT_DEFINITION_FORMATION_WITH_SPECIFIED_SOURCE(' ',' ',#18,
 .NOT_KNOWN.);
#17=PRODUCT_RELATED_PRODUCT_CATEGORY('part','',(#18));
#18=PRODUCT('umbrella_contain_silicone','umbrella_contain_silicone',' ',
(#19));
#19=PRODUCT_CONTEXT(' ',#21,'mechanical');
#20=APPLICATION_PROTOCOL_DEFINITION('international standard',
'automotive_design',2010,#21);
#21=APPLICATION_CONTEXT(
'core data for automotive mechanical design processes');
#22=SHAPE_REPRESENTATION('umbrella_contain_silicone-None',(#308),#510);
#23=PRESENTATION_LAYER_ASSIGNMENT('1','Layer 1',(#39,#40));
#24=STYLED_ITEM('',(#26),#39);
#25=STYLED_ITEM('',(#27),#40);
#26=PRESENTATION_STYLE_ASSIGNMENT((#28));
#27=PRESENTATION_STYLE_ASSIGNMENT((#29));
#28=SURFACE_STYLE_USAGE(.BOTH.,#30);
#29=SURFACE_STYLE_USAGE(.BOTH.,#31);
#30=SURFACE_SIDE_STYLE('',(#32));
#31=SURFACE_SIDE_STYLE('',(#33));
#32=SURFACE_STYLE_FILL_AREA(#34);
#33=SURFACE_STYLE_FILL_AREA(#35);
#34=FILL_AREA_STYLE('',(#36));
#35=FILL_AREA_STYLE('',(#37));
#36=FILL_AREA_STYLE_COLOUR('',#38);
#37=FILL_AREA_STYLE_COLOUR('',#38);
#38=COLOUR_RGB('medium steel',0.596078431372549,0.666666666666667,0.686274509803922);
#39=MANIFOLD_SOLID_BREP('',#41);
#40=MANIFOLD_SOLID_BREP('',#42);
#41=CLOSED_SHELL('',(#99,#100,#101,#102,#103,#104,#105,#106,#107,#108,#109,
#110,#111,#112));
#42=CLOSED_SHELL('',(#113,#114,#115,#116));
#43=FACE_OUTER_BOUND('',#149,.T.);
#44=FACE_OUTER_BOUND('',#152,.T.);
#45=FACE_OUTER_BOUND('',#153,.T.);
#46=FACE_OUTER_BOUND('',#154,.T.);
#47=FACE_OUTER_BOUND('',#155,.T.);
#48=FACE_OUTER_BOUND('',#156,.T.);
#49=FACE_OUTER_BOUND('',#157,.T.);
#50=FACE_OUTER_BOUND('',#158,.T.);
#51=CYLINDRICAL_SURFACE('',#320,3.75);
#52=CYLINDRICAL_SURFACE('',#328,2.75);
#53=CYLINDRICAL_SURFACE('',#338,6.5);
#54=CYLINDRICAL_SURFACE('',#343,5.2);
#55=LINE('',#447,#71);
#56=LINE('',#451,#72);
#57=LINE('',#455,#73);
#58=LINE('',#459,#74);
#59=LINE('',#464,#75);
#60=LINE('',#466,#76);
#61=LINE('',#470,#77);
#62=LINE('',#474,#78);
#63=LINE('',#478,#79);
#64=LINE('',#482,#80);
#65=LINE('',#484,#81);
#66=LINE('',#485,#82);
#67=LINE('',#487,#83);
#68=LINE('',#488,#84);
#69=LINE('',#492,#85);
#70=LINE('',#493,#86);
#71=VECTOR('',#362,1.);
#72=VECTOR('',#365,1.);
#73=VECTOR('',#368,1.);
#74=VECTOR('',#371,1.);
#75=VECTOR('',#378,1.);
#76=VECTOR('',#379,1.);
#77=VECTOR('',#384,1.);
#78=VECTOR('',#387,1.);
#79=VECTOR('',#390,1.);
#80=VECTOR('',#393,1.);
#81=VECTOR('',#396,1.);
#82=VECTOR('',#397,1.);
#83=VECTOR('',#400,1.);
#84=VECTOR('',#401,1.);
#85=VECTOR('',#408,1.);
#86=VECTOR('',#409,1.);
#87=PLANE('',#315);
#88=PLANE('',#322);
#89=PLANE('',#324);
#90=PLANE('',#329);
#91=PLANE('',#330);
#92=PLANE('',#331);
#93=PLANE('',#332);
#94=PLANE('',#333);
#95=PLANE('',#334);
#96=PLANE('',#335);
#97=PLANE('',#340);
#98=PLANE('',#342);
#99=ADVANCED_FACE('',(#119,#120),#117,.T.);
#100=ADVANCED_FACE('',(#121,#122),#118,.F.);
#101=ADVANCED_FACE('',(#123,#124),#87,.F.);
#102=ADVANCED_FACE('',(#125,#126),#51,.T.);
#103=ADVANCED_FACE('',(#127,#128),#88,.F.);
#104=ADVANCED_FACE('',(#43),#89,.T.);
#105=ADVANCED_FACE('',(#129,#130),#52,.F.);
#106=ADVANCED_FACE('',(#44),#90,.T.);
#107=ADVANCED_FACE('',(#45),#91,.T.);
#108=ADVANCED_FACE('',(#46),#92,.F.);
#109=ADVANCED_FACE('',(#47),#93,.F.);
#110=ADVANCED_FACE('',(#48),#94,.T.);
#111=ADVANCED_FACE('',(#49),#95,.F.);
#112=ADVANCED_FACE('',(#50),#96,.F.);
#113=ADVANCED_FACE('',(#131,#132),#53,.T.);
#114=ADVANCED_FACE('',(#133,#134),#97,.T.);
#115=ADVANCED_FACE('',(#135,#136),#98,.F.);
#116=ADVANCED_FACE('',(#137,#138),#54,.F.);
#117=CONICAL_SURFACE('',#311,6.49174720352954,47.0988701826365);
#118=CONICAL_SURFACE('',#314,2.75101578754436,47.0988701826365);
#119=FACE_BOUND('',#139,.T.);
#120=FACE_BOUND('',#140,.T.);
#121=FACE_BOUND('',#141,.T.);
#122=FACE_BOUND('',#142,.T.);
#123=FACE_BOUND('',#143,.T.);
#124=FACE_BOUND('',#144,.T.);
#125=FACE_BOUND('',#145,.T.);
#126=FACE_BOUND('',#146,.T.);
#127=FACE_BOUND('',#147,.T.);
#128=FACE_BOUND('',#148,.T.);
#129=FACE_BOUND('',#150,.T.);
#130=FACE_BOUND('',#151,.T.);
#131=FACE_BOUND('',#159,.T.);
#132=FACE_BOUND('',#160,.T.);
#133=FACE_BOUND('',#161,.T.);
#134=FACE_BOUND('',#162,.T.);
#135=FACE_BOUND('',#163,.T.);
#136=FACE_BOUND('',#164,.T.);
#137=FACE_BOUND('',#165,.T.);
#138=FACE_BOUND('',#166,.T.);
#139=EDGE_LOOP('',(#167));
#140=EDGE_LOOP('',(#168));
#141=EDGE_LOOP('',(#169));
#142=EDGE_LOOP('',(#170));
#143=EDGE_LOOP('',(#171));
#144=EDGE_LOOP('',(#172));
#145=EDGE_LOOP('',(#173,#174,#175,#176,#177,#178,#179,#180));
#146=EDGE_LOOP('',(#181));
#147=EDGE_LOOP('',(#182));
#148=EDGE_LOOP('',(#183));
#149=EDGE_LOOP('',(#184,#185,#186,#187));
#150=EDGE_LOOP('',(#188,#189,#190,#191,#192,#193,#194,#195));
#151=EDGE_LOOP('',(#196));
#152=EDGE_LOOP('',(#197,#198,#199,#200));
#153=EDGE_LOOP('',(#201,#202,#203,#204));
#154=EDGE_LOOP('',(#205,#206,#207,#208));
#155=EDGE_LOOP('',(#209,#210,#211,#212));
#156=EDGE_LOOP('',(#213,#214,#215,#216));
#157=EDGE_LOOP('',(#217,#218,#219,#220));
#158=EDGE_LOOP('',(#221,#222,#223,#224));
#159=EDGE_LOOP('',(#225));
#160=EDGE_LOOP('',(#226));
#161=EDGE_LOOP('',(#227));
#162=EDGE_LOOP('',(#228));
#163=EDGE_LOOP('',(#229));
#164=EDGE_LOOP('',(#230));
#165=EDGE_LOOP('',(#231));
#166=EDGE_LOOP('',(#232));
#167=ORIENTED_EDGE('',*,*,#258,.T.);
#168=ORIENTED_EDGE('',*,*,#259,.F.);
#169=ORIENTED_EDGE('',*,*,#260,.F.);
#170=ORIENTED_EDGE('',*,*,#261,.F.);
#171=ORIENTED_EDGE('',*,*,#258,.F.);
#172=ORIENTED_EDGE('',*,*,#260,.T.);
#173=ORIENTED_EDGE('',*,*,#262,.F.);
#174=ORIENTED_EDGE('',*,*,#263,.T.);
#175=ORIENTED_EDGE('',*,*,#264,.F.);
#176=ORIENTED_EDGE('',*,*,#265,.T.);
#177=ORIENTED_EDGE('',*,*,#266,.F.);
#178=ORIENTED_EDGE('',*,*,#267,.T.);
#179=ORIENTED_EDGE('',*,*,#268,.F.);
#180=ORIENTED_EDGE('',*,*,#269,.T.);
#181=ORIENTED_EDGE('',*,*,#259,.T.);
#182=ORIENTED_EDGE('',*,*,#270,.T.);
#183=ORIENTED_EDGE('',*,*,#261,.T.);
#184=ORIENTED_EDGE('',*,*,#271,.F.);
#185=ORIENTED_EDGE('',*,*,#264,.T.);
#186=ORIENTED_EDGE('',*,*,#272,.F.);
#187=ORIENTED_EDGE('',*,*,#273,.F.);
#188=ORIENTED_EDGE('',*,*,#274,.F.);
#189=ORIENTED_EDGE('',*,*,#275,.T.);
#190=ORIENTED_EDGE('',*,*,#276,.F.);
#191=ORIENTED_EDGE('',*,*,#277,.T.);
#192=ORIENTED_EDGE('',*,*,#278,.F.);
#193=ORIENTED_EDGE('',*,*,#279,.T.);
#194=ORIENTED_EDGE('',*,*,#280,.F.);
#195=ORIENTED_EDGE('',*,*,#273,.T.);
#196=ORIENTED_EDGE('',*,*,#270,.F.);
#197=ORIENTED_EDGE('',*,*,#281,.F.);
#198=ORIENTED_EDGE('',*,*,#268,.T.);
#199=ORIENTED_EDGE('',*,*,#282,.F.);
#200=ORIENTED_EDGE('',*,*,#277,.F.);
#201=ORIENTED_EDGE('',*,*,#266,.T.);
#202=ORIENTED_EDGE('',*,*,#283,.F.);
#203=ORIENTED_EDGE('',*,*,#279,.F.);
#204=ORIENTED_EDGE('',*,*,#284,.F.);
#205=ORIENTED_EDGE('',*,*,#284,.T.);
#206=ORIENTED_EDGE('',*,*,#278,.T.);
#207=ORIENTED_EDGE('',*,*,#282,.T.);
#208=ORIENTED_EDGE('',*,*,#267,.F.);
#209=ORIENTED_EDGE('',*,*,#271,.T.);
#210=ORIENTED_EDGE('',*,*,#280,.T.);
#211=ORIENTED_EDGE('',*,*,#283,.T.);
#212=ORIENTED_EDGE('',*,*,#265,.F.);
#213=ORIENTED_EDGE('',*,*,#262,.T.);
#214=ORIENTED_EDGE('',*,*,#285,.F.);
#215=ORIENTED_EDGE('',*,*,#275,.F.);
#216=ORIENTED_EDGE('',*,*,#286,.F.);
#217=ORIENTED_EDGE('',*,*,#286,.T.);
#218=ORIENTED_EDGE('',*,*,#274,.T.);
#219=ORIENTED_EDGE('',*,*,#272,.T.);
#220=ORIENTED_EDGE('',*,*,#263,.F.);
#221=ORIENTED_EDGE('',*,*,#281,.T.);
#222=ORIENTED_EDGE('',*,*,#276,.T.);
#223=ORIENTED_EDGE('',*,*,#285,.T.);
#224=ORIENTED_EDGE('',*,*,#269,.F.);
#225=ORIENTED_EDGE('',*,*,#287,.F.);
#226=ORIENTED_EDGE('',*,*,#288,.T.);
#227=ORIENTED_EDGE('',*,*,#289,.F.);
#228=ORIENTED_EDGE('',*,*,#287,.T.);
#229=ORIENTED_EDGE('',*,*,#290,.T.);
#230=ORIENTED_EDGE('',*,*,#288,.F.);
#231=ORIENTED_EDGE('',*,*,#289,.T.);
#232=ORIENTED_EDGE('',*,*,#290,.F.);
#233=VERTEX_POINT('',#434);
#234=VERTEX_POINT('',#436);
#235=VERTEX_POINT('',#439);
#236=VERTEX_POINT('',#441);
#237=VERTEX_POINT('',#445);
#238=VERTEX_POINT('',#446);
#239=VERTEX_POINT('',#448);
#240=VERTEX_POINT('',#450);
#241=VERTEX_POINT('',#452);
#242=VERTEX_POINT('',#454);
#243=VERTEX_POINT('',#456);
#244=VERTEX_POINT('',#458);
#245=VERTEX_POINT('',#462);
#246=VERTEX_POINT('',#465);
#247=VERTEX_POINT('',#467);
#248=VERTEX_POINT('',#471);
#249=VERTEX_POINT('',#473);
#250=VERTEX_POINT('',#475);
#251=VERTEX_POINT('',#477);
#252=VERTEX_POINT('',#479);
#253=VERTEX_POINT('',#481);
#254=VERTEX_POINT('',#498);
#255=VERTEX_POINT('',#500);
#256=VERTEX_POINT('',#503);
#257=VERTEX_POINT('',#506);
#258=EDGE_CURVE('',#233,#233,#291,.T.);
#259=EDGE_CURVE('',#234,#234,#292,.T.);
#260=EDGE_CURVE('',#235,#235,#293,.T.);
#261=EDGE_CURVE('',#236,#236,#294,.T.);
#262=EDGE_CURVE('',#237,#238,#295,.T.);
#263=EDGE_CURVE('',#237,#239,#55,.T.);
#264=EDGE_CURVE('',#240,#239,#296,.T.);
#265=EDGE_CURVE('',#240,#241,#56,.T.);
#266=EDGE_CURVE('',#242,#241,#297,.T.);
#267=EDGE_CURVE('',#242,#243,#57,.T.);
#268=EDGE_CURVE('',#244,#243,#298,.T.);
#269=EDGE_CURVE('',#244,#238,#58,.T.);
#270=EDGE_CURVE('',#245,#245,#299,.T.);
#271=EDGE_CURVE('',#240,#246,#59,.T.);
#272=EDGE_CURVE('',#247,#239,#60,.T.);
#273=EDGE_CURVE('',#246,#247,#300,.T.);
#274=EDGE_CURVE('',#248,#247,#61,.T.);
#275=EDGE_CURVE('',#248,#249,#301,.T.);
#276=EDGE_CURVE('',#250,#249,#62,.T.);
#277=EDGE_CURVE('',#250,#251,#302,.T.);
#278=EDGE_CURVE('',#252,#251,#63,.T.);
#279=EDGE_CURVE('',#252,#253,#303,.T.);
#280=EDGE_CURVE('',#246,#253,#64,.T.);
#281=EDGE_CURVE('',#244,#250,#65,.T.);
#282=EDGE_CURVE('',#251,#243,#66,.T.);
#283=EDGE_CURVE('',#253,#241,#67,.T.);
#284=EDGE_CURVE('',#242,#252,#68,.T.);
#285=EDGE_CURVE('',#249,#238,#69,.T.);
#286=EDGE_CURVE('',#237,#248,#70,.T.);
#287=EDGE_CURVE('',#254,#254,#304,.T.);
#288=EDGE_CURVE('',#255,#255,#305,.T.);
#289=EDGE_CURVE('',#256,#256,#306,.T.);
#290=EDGE_CURVE('',#257,#257,#307,.T.);
#291=CIRCLE('',#309,6.49174720352954);
#292=CIRCLE('',#310,3.75);
#293=CIRCLE('',#312,5.19633925094905);
#294=CIRCLE('',#313,2.93917426054275);
#295=CIRCLE('',#316,3.75);
#296=CIRCLE('',#317,3.75);
#297=CIRCLE('',#318,3.75);
#298=CIRCLE('',#319,3.75);
#299=CIRCLE('',#321,2.75);
#300=CIRCLE('',#323,2.75);
#301=CIRCLE('',#325,2.75);
#302=CIRCLE('',#326,2.75);
#303=CIRCLE('',#327,2.75);
#304=CIRCLE('',#336,6.5);
#305=CIRCLE('',#337,6.5);
#306=CIRCLE('',#339,5.2);
#307=CIRCLE('',#341,5.2);
#308=AXIS2_PLACEMENT_3D('',#432,#344,#345);
#309=AXIS2_PLACEMENT_3D('',#433,#346,#347);
#310=AXIS2_PLACEMENT_3D('',#435,#348,#349);
#311=AXIS2_PLACEMENT_3D('',#437,#350,#351);
#312=AXIS2_PLACEMENT_3D('',#438,#352,#353);
#313=AXIS2_PLACEMENT_3D('',#440,#354,#355);
#314=AXIS2_PLACEMENT_3D('',#442,#356,#357);
#315=AXIS2_PLACEMENT_3D('',#443,#358,#359);
#316=AXIS2_PLACEMENT_3D('',#444,#360,#361);
#317=AXIS2_PLACEMENT_3D('',#449,#363,#364);
#318=AXIS2_PLACEMENT_3D('',#453,#366,#367);
#319=AXIS2_PLACEMENT_3D('',#457,#369,#370);
#320=AXIS2_PLACEMENT_3D('',#460,#372,#373);
#321=AXIS2_PLACEMENT_3D('',#461,#374,#375);
#322=AXIS2_PLACEMENT_3D('',#463,#376,#377);
#323=AXIS2_PLACEMENT_3D('',#468,#380,#381);
#324=AXIS2_PLACEMENT_3D('',#469,#382,#383);
#325=AXIS2_PLACEMENT_3D('',#472,#385,#386);
#326=AXIS2_PLACEMENT_3D('',#476,#388,#389);
#327=AXIS2_PLACEMENT_3D('',#480,#391,#392);
#328=AXIS2_PLACEMENT_3D('',#483,#394,#395);
#329=AXIS2_PLACEMENT_3D('',#486,#398,#399);
#330=AXIS2_PLACEMENT_3D('',#489,#402,#403);
#331=AXIS2_PLACEMENT_3D('',#490,#404,#405);
#332=AXIS2_PLACEMENT_3D('',#491,#406,#407);
#333=AXIS2_PLACEMENT_3D('',#494,#410,#411);
#334=AXIS2_PLACEMENT_3D('',#495,#412,#413);
#335=AXIS2_PLACEMENT_3D('',#496,#414,#415);
#336=AXIS2_PLACEMENT_3D('',#497,#416,#417);
#337=AXIS2_PLACEMENT_3D('',#499,#418,#419);
#338=AXIS2_PLACEMENT_3D('',#501,#420,#421);
#339=AXIS2_PLACEMENT_3D('',#502,#422,#423);
#340=AXIS2_PLACEMENT_3D('',#504,#424,#425);
#341=AXIS2_PLACEMENT_3D('',#505,#426,#427);
#342=AXIS2_PLACEMENT_3D('',#507,#428,#429);
#343=AXIS2_PLACEMENT_3D('',#508,#430,#431);
#344=DIRECTION('',(0.,0.,1.));
#345=DIRECTION('',(1.,0.,0.));
#346=DIRECTION('',(0.,0.,-1.));
#347=DIRECTION('',(-1.,0.,0.));
#348=DIRECTION('',(0.,0.,-1.));
#349=DIRECTION('',(1.,0.,0.));
#350=DIRECTION('',(0.,0.,1.));
#351=DIRECTION('',(1.,0.,3.36375194886542E-17));
#352=DIRECTION('',(0.,0.,-1.));
#353=DIRECTION('',(-1.,0.,0.));
#354=DIRECTION('',(0.,0.,1.));
#355=DIRECTION('',(-1.,0.,0.));
#356=DIRECTION('',(0.,0.,1.));
#357=DIRECTION('',(1.,0.,5.02486728083111E-17));
#358=DIRECTION('',(0.,0.,-1.));
#359=DIRECTION('',(-1.,0.,0.));
#360=DIRECTION('',(0.,0.,-1.));
#361=DIRECTION('',(-1.,0.,0.));
#362=DIRECTION('',(0.,0.,-1.));
#363=DIRECTION('',(0.,0.,-1.));
#364=DIRECTION('',(-1.,0.,0.));
#365=DIRECTION('',(0.,0.,1.));
#366=DIRECTION('',(0.,0.,-1.));
#367=DIRECTION('',(-1.,0.,0.));
#368=DIRECTION('',(0.,0.,-1.));
#369=DIRECTION('',(0.,0.,-1.));
#370=DIRECTION('',(-1.,0.,0.));
#371=DIRECTION('',(0.,0.,1.));
#372=DIRECTION('',(0.,0.,1.));
#373=DIRECTION('',(1.,0.,0.));
#374=DIRECTION('',(0.,0.,-1.));
#375=DIRECTION('',(-1.,0.,0.));
#376=DIRECTION('',(0.,0.,-1.));
#377=DIRECTION('',(-1.,0.,0.));
#378=DIRECTION('',(1.,0.,0.));
#379=DIRECTION('',(1.,0.,0.));
#380=DIRECTION('',(0.,0.,-1.));
#381=DIRECTION('',(-1.,0.,0.));
#382=DIRECTION('',(0.,0.,-1.));
#383=DIRECTION('',(-1.,0.,0.));
#384=DIRECTION('',(0.,0.,-1.));
#385=DIRECTION('',(0.,0.,-1.));
#386=DIRECTION('',(-1.,0.,0.));
#387=DIRECTION('',(0.,0.,1.));
#388=DIRECTION('',(0.,0.,-1.));
#389=DIRECTION('',(-1.,0.,0.));
#390=DIRECTION('',(0.,0.,-1.));
#391=DIRECTION('',(0.,0.,-1.));
#392=DIRECTION('',(-1.,0.,0.));
#393=DIRECTION('',(0.,0.,1.));
#394=DIRECTION('',(0.,0.,1.));
#395=DIRECTION('',(1.,0.,0.));
#396=DIRECTION('',(-1.,0.,0.));
#397=DIRECTION('',(-1.,0.,0.));
#398=DIRECTION('',(0.,0.,-1.));
#399=DIRECTION('',(-1.,0.,0.));
#400=DIRECTION('',(-1.,0.,0.));
#401=DIRECTION('',(1.,0.,0.));
#402=DIRECTION('',(0.,0.,-1.));
#403=DIRECTION('',(-1.,0.,0.));
#404=DIRECTION('',(0.,-1.,0.));
#405=DIRECTION('',(0.,0.,-1.));
#406=DIRECTION('',(0.,1.,0.));
#407=DIRECTION('',(0.,0.,1.));
#408=DIRECTION('',(1.,0.,0.));
#409=DIRECTION('',(-1.,0.,0.));
#410=DIRECTION('',(0.,0.,-1.));
#411=DIRECTION('',(-1.,0.,0.));
#412=DIRECTION('',(0.,1.,0.));
#413=DIRECTION('',(0.,0.,1.));
#414=DIRECTION('',(0.,-1.,0.));
#415=DIRECTION('',(0.,0.,-1.));
#416=DIRECTION('',(0.,0.,1.));
#417=DIRECTION('',(1.,0.,0.));
#418=DIRECTION('',(0.,0.,1.));
#419=DIRECTION('',(1.,0.,0.));
#420=DIRECTION('',(0.,0.,-1.));
#421=DIRECTION('',(-1.,0.,0.));
#422=DIRECTION('',(0.,0.,1.));
#423=DIRECTION('',(1.,0.,0.));
#424=DIRECTION('',(0.,0.,1.));
#425=DIRECTION('',(1.,0.,0.));
#426=DIRECTION('',(0.,0.,1.));
#427=DIRECTION('',(1.,0.,0.));
#428=DIRECTION('',(0.,0.,1.));
#429=DIRECTION('',(1.,0.,0.));
#430=DIRECTION('',(0.,0.,1.));
#431=DIRECTION('',(1.,0.,0.));
#432=CARTESIAN_POINT('',(0.,0.,0.));
#433=CARTESIAN_POINT('',(0.,0.,-0.0024299095073097));
#434=CARTESIAN_POINT('',(-6.49174720352954,0.,-0.0024299095073097));
#435=CARTESIAN_POINT('',(0.,0.,-2.55031938779499));
#436=CARTESIAN_POINT('',(3.75,0.,-2.55031938779499));
#437=CARTESIAN_POINT('',(0.,0.,-0.0024299095073097));
#438=CARTESIAN_POINT('',(0.,0.,-0.00242990950730972));
#439=CARTESIAN_POINT('',(-5.19633925094905,0.,-0.00242990950730972));
#440=CARTESIAN_POINT('',(0.,0.,-2.1));
#441=CARTESIAN_POINT('',(-2.93917426054275,0.,-2.1));
#442=CARTESIAN_POINT('',(0.,0.,-2.27485455733706));
#443=CARTESIAN_POINT('',(-5.19633925094905,0.,-0.00242990950730971));
#444=CARTESIAN_POINT('',(0.,0.,-21.));
#445=CARTESIAN_POINT('',(3.41467421579278,1.55,-21.));
#446=CARTESIAN_POINT('',(3.43693177121688,-1.5,-21.));
#447=CARTESIAN_POINT('',(3.41467421579278,1.55,-30.));
#448=CARTESIAN_POINT('',(3.41467421579278,1.55,-55.));
#449=CARTESIAN_POINT('',(0.,0.,-55.));
#450=CARTESIAN_POINT('',(-3.41467421579277,1.55,-55.));
#451=CARTESIAN_POINT('',(-3.41467421579277,1.55,-45.));
#452=CARTESIAN_POINT('',(-3.41467421579277,1.55,-21.));
#453=CARTESIAN_POINT('',(0.,0.,-21.));
#454=CARTESIAN_POINT('',(-3.43693177121688,-1.5,-21.));
#455=CARTESIAN_POINT('',(-3.43693177121688,-1.5,-45.));
#456=CARTESIAN_POINT('',(-3.43693177121688,-1.5,-55.));
#457=CARTESIAN_POINT('',(0.,0.,-55.));
#458=CARTESIAN_POINT('',(3.43693177121688,-1.5,-55.));
#459=CARTESIAN_POINT('',(3.43693177121688,-1.5,-45.));
#460=CARTESIAN_POINT('',(0.,0.,-45.));
#461=CARTESIAN_POINT('',(0.,0.,-2.1));
#462=CARTESIAN_POINT('',(-2.75,0.,-2.1));
#463=CARTESIAN_POINT('',(0.,0.,-2.1));
#464=CARTESIAN_POINT('',(0.,1.55,-55.));
#465=CARTESIAN_POINT('',(-2.27156333832011,1.55,-55.));
#466=CARTESIAN_POINT('',(0.,1.55,-55.));
#467=CARTESIAN_POINT('',(2.27156333832011,1.55,-55.));
#468=CARTESIAN_POINT('',(0.,0.,-55.));
#469=CARTESIAN_POINT('',(0.,0.,-55.));
#470=CARTESIAN_POINT('',(2.27156333832011,1.55,-45.));
#471=CARTESIAN_POINT('',(2.27156333832011,1.55,-21.));
#472=CARTESIAN_POINT('',(0.,0.,-21.));
#473=CARTESIAN_POINT('',(2.30488611432322,-1.5,-21.));
#474=CARTESIAN_POINT('',(2.30488611432322,-1.5,-45.));
#475=CARTESIAN_POINT('',(2.30488611432322,-1.5,-55.));
#476=CARTESIAN_POINT('',(0.,0.,-55.));
#477=CARTESIAN_POINT('',(-2.30488611432322,-1.5,-55.));
#478=CARTESIAN_POINT('',(-2.30488611432322,-1.5,-45.));
#479=CARTESIAN_POINT('',(-2.30488611432322,-1.5,-21.));
#480=CARTESIAN_POINT('',(0.,0.,-21.));
#481=CARTESIAN_POINT('',(-2.27156333832011,1.55,-21.));
#482=CARTESIAN_POINT('',(-2.27156333832011,1.55,-45.));
#483=CARTESIAN_POINT('',(0.,0.,-45.));
#484=CARTESIAN_POINT('',(0.,-1.5,-55.));
#485=CARTESIAN_POINT('',(0.,-1.5,-55.));
#486=CARTESIAN_POINT('',(0.,0.,-55.));
#487=CARTESIAN_POINT('',(-3.4,1.55,-21.));
#488=CARTESIAN_POINT('',(3.6,-1.5,-21.));
#489=CARTESIAN_POINT('',(0.,0.,-21.));
#490=CARTESIAN_POINT('',(3.6,-1.5,-30.));
#491=CARTESIAN_POINT('',(-3.4,1.55,-30.));
#492=CARTESIAN_POINT('',(3.6,-1.5,-21.));
#493=CARTESIAN_POINT('',(-3.4,1.55,-21.));
#494=CARTESIAN_POINT('',(0.,0.,-21.));
#495=CARTESIAN_POINT('',(-3.4,1.55,-30.));
#496=CARTESIAN_POINT('',(3.6,-1.5,-30.));
#497=CARTESIAN_POINT('',(0.,0.,7.8));
#498=CARTESIAN_POINT('',(6.5,0.,7.8));
#499=CARTESIAN_POINT('',(0.,0.,0.));
#500=CARTESIAN_POINT('',(6.5,0.,0.));
#501=CARTESIAN_POINT('',(0.,0.,7.8));
#502=CARTESIAN_POINT('',(0.,0.,7.8));
#503=CARTESIAN_POINT('',(5.2,0.,7.8));
#504=CARTESIAN_POINT('',(0.,0.,7.8));
#505=CARTESIAN_POINT('',(0.,0.,0.));
#506=CARTESIAN_POINT('',(5.2,0.,0.));
#507=CARTESIAN_POINT('',(0.,0.,0.));
#508=CARTESIAN_POINT('',(0.,0.,-1.3));
#509=MECHANICAL_DESIGN_GEOMETRIC_PRESENTATION_REPRESENTATION('',(#24,#25),
#510);
#510=(
GEOMETRIC_REPRESENTATION_CONTEXT(3)
GLOBAL_UNCERTAINTY_ASSIGNED_CONTEXT((#511))
GLOBAL_UNIT_ASSIGNED_CONTEXT((#517,#513,#512))
REPRESENTATION_CONTEXT('umbrella_contain_silicone',
'TOP_LEVEL_ASSEMBLY_PART')
);
#511=UNCERTAINTY_MEASURE_WITH_UNIT(LENGTH_MEASURE(2.E-5),#517,
'DISTANCE_ACCURACY_VALUE','Maximum Tolerance applied to model');
#512=(
NAMED_UNIT(*)
SI_UNIT($,.STERADIAN.)
SOLID_ANGLE_UNIT()
);
#513=(
CONVERSION_BASED_UNIT('DEGREE',#515)
NAMED_UNIT(#514)
PLANE_ANGLE_UNIT()
);
#514=DIMENSIONAL_EXPONENTS(0.,0.,0.,0.,0.,0.,0.);
#515=PLANE_ANGLE_MEASURE_WITH_UNIT(PLANE_ANGLE_MEASURE(0.0174532925),#516);
#516=(
NAMED_UNIT(*)
PLANE_ANGLE_UNIT()
SI_UNIT($,.RADIAN.)
);
#517=(
LENGTH_UNIT()
NAMED_UNIT(*)
SI_UNIT(.MILLI.,.METRE.)
);
ENDSEC;
END-ISO-10303-21;
