ISO-10303-21;
HEADER;
/* Generated by software containing ST-Developer
 * from STEP Tools, Inc. (www.steptools.com) 
 */
/* OPTION: using custom schema-name function */

FILE_DESCRIPTION(
/* description */ (''),
/* implementation_level */ '2;1');

FILE_NAME(
/* name */ 'umbrella_top_open_Full_m.stp',
/* time_stamp */ '2026-09-08T16:17:58+02:00',
/* author */ (''),
/* organization */ (''),
/* preprocessor_version */ 'ST-DEVELOPER v20',
/* originating_system */ 'SIEMENS PLM Software NX2406.3002',
/* authorisation */ '');

FILE_SCHEMA (('AUTOMOTIVE_DESIGN { 1 0 10303 214 3 1 1 1 }'));
ENDSEC;

DATA;
#10=SHAPE_REPRESENTATION_RELATIONSHIP('None',
'relationship between umbrella_top_open_Full_m-None and umbrella_top_o
pen_Full_m-None',#22,#11);
#11=ADVANCED_BREP_SHAPE_REPRESENTATION('umbrella_top_open_Full_m-None',
(#178,#179,#180,#181,#182,#183,#184),#1051);
#12=SHAPE_DEFINITION_REPRESENTATION(#13,#22);
#13=PRODUCT_DEFINITION_SHAPE('','',#14);
#14=PRODUCT_DEFINITION(' ','',#16,#15);
#15=PRODUCT_DEFINITION_CONTEXT('part definition',#21,'design');
#16=PRODUCT_DEFINITION_FORMATION_WITH_SPECIFIED_SOURCE(' ',' ',#18,
 .NOT_KNOWN.);
#17=PRODUCT_RELATED_PRODUCT_CATEGORY('part','',(#18));
#18=PRODUCT('umbrella_top_open_Full_m','umbrella_top_open_Full_m',' ',(#19));
#19=PRODUCT_CONTEXT(' ',#21,'mechanical');
#20=APPLICATION_PROTOCOL_DEFINITION('international standard',
'automotive_design',2010,#21);
#21=APPLICATION_CONTEXT(
'core data for automotive mechanical design processes');
#22=SHAPE_REPRESENTATION('umbrella_top_open_Full_m-None',(#644),#1051);
#23=SURFACE_OF_REVOLUTION('',#71,#25);
#24=SURFACE_OF_REVOLUTION('',#72,#26);
#25=AXIS1_PLACEMENT('',#1041,#876);
#26=AXIS1_PLACEMENT('',#1048,#884);
#27=LINE('',#898,#73);
#28=LINE('',#900,#74);
#29=LINE('',#902,#75);
#30=LINE('',#904,#76);
#31=LINE('',#909,#77);
#32=LINE('',#913,#78);
#33=LINE('',#917,#79);
#34=LINE('',#919,#80);
#35=LINE('',#920,#81);
#36=LINE('',#922,#82);
#37=LINE('',#923,#83);
#38=LINE('',#930,#84);
#39=LINE('',#932,#85);
#40=LINE('',#934,#86);
#41=LINE('',#936,#87);
#42=LINE('',#941,#88);
#43=LINE('',#945,#89);
#44=LINE('',#949,#90);
#45=LINE('',#951,#91);
#46=LINE('',#952,#92);
#47=LINE('',#954,#93);
#48=LINE('',#955,#94);
#49=LINE('',#959,#95);
#50=LINE('',#964,#96);
#51=LINE('',#966,#97);
#52=LINE('',#971,#98);
#53=LINE('',#975,#99);
#54=LINE('',#977,#100);
#55=LINE('',#981,#101);
#56=LINE('',#983,#102);
#57=LINE('',#984,#103);
#58=LINE('',#986,#104);
#59=LINE('',#987,#105);
#60=LINE('',#991,#106);
#61=LINE('',#996,#107);
#62=LINE('',#998,#108);
#63=LINE('',#1000,#109);
#64=LINE('',#1005,#110);
#65=LINE('',#1012,#111);
#66=LINE('',#1013,#112);
#67=LINE('',#1015,#113);
#68=LINE('',#1016,#114);
#69=LINE('',#1018,#115);
#70=LINE('',#1019,#116);
#71=LINE('',#1040,#117);
#72=LINE('',#1047,#118);
#73=VECTOR('',#723,1.);
#74=VECTOR('',#724,1.);
#75=VECTOR('',#725,1.);
#76=VECTOR('',#728,1.);
#77=VECTOR('',#731,1.);
#78=VECTOR('',#736,1.);
#79=VECTOR('',#739,1.);
#80=VECTOR('',#742,1.);
#81=VECTOR('',#743,1.);
#82=VECTOR('',#746,1.);
#83=VECTOR('',#747,1.);
#84=VECTOR('',#756,1.);
#85=VECTOR('',#757,1.);
#86=VECTOR('',#758,1.);
#87=VECTOR('',#761,1.);
#88=VECTOR('',#764,1.);
#89=VECTOR('',#769,1.);
#90=VECTOR('',#772,1.);
#91=VECTOR('',#775,1.);
#92=VECTOR('',#776,1.);
#93=VECTOR('',#779,1.);
#94=VECTOR('',#780,1.);
#95=VECTOR('',#787,1.);
#96=VECTOR('',#790,1.);
#97=VECTOR('',#791,1.);
#98=VECTOR('',#796,1.);
#99=VECTOR('',#799,1.);
#100=VECTOR('',#802,1.);
#101=VECTOR('',#805,1.);
#102=VECTOR('',#808,1.);
#103=VECTOR('',#809,1.);
#104=VECTOR('',#812,1.);
#105=VECTOR('',#813,1.);
#106=VECTOR('',#820,1.);
#107=VECTOR('',#823,1.);
#108=VECTOR('',#824,1.);
#109=VECTOR('',#827,1.);
#110=VECTOR('',#830,1.);
#111=VECTOR('',#837,1.);
#112=VECTOR('',#838,1.);
#113=VECTOR('',#841,1.);
#114=VECTOR('',#842,1.);
#115=VECTOR('',#845,1.);
#116=VECTOR('',#846,1.);
#117=VECTOR('',#875,0.413748157659565);
#118=VECTOR('',#883,0.413748157659567);
#119=ELLIPSE('',#650,1.4142135623731,1.);
#120=ELLIPSE('',#655,1.41421356237309,1.);
#121=ELLIPSE('',#661,1.4142135623731,1.);
#122=ELLIPSE('',#666,1.41421356237309,1.);
#123=ELLIPSE('',#672,1.4142135623731,1.);
#124=ELLIPSE('',#677,1.41421356237309,1.);
#125=ELLIPSE('',#683,1.4142135623731,1.);
#126=ELLIPSE('',#688,1.41421356237309,1.);
#127=PRESENTATION_LAYER_ASSIGNMENT('1','Layer 1',(#178,#179,#180,#181,#182,
#183,#184));
#128=STYLED_ITEM('',(#135),#178);
#129=STYLED_ITEM('',(#136),#179);
#130=STYLED_ITEM('',(#137),#180);
#131=STYLED_ITEM('',(#138),#181);
#132=STYLED_ITEM('',(#139),#182);
#133=STYLED_ITEM('',(#140),#183);
#134=STYLED_ITEM('',(#141),#184);
#135=PRESENTATION_STYLE_ASSIGNMENT((#142));
#136=PRESENTATION_STYLE_ASSIGNMENT((#143));
#137=PRESENTATION_STYLE_ASSIGNMENT((#144));
#138=PRESENTATION_STYLE_ASSIGNMENT((#145));
#139=PRESENTATION_STYLE_ASSIGNMENT((#146));
#140=PRESENTATION_STYLE_ASSIGNMENT((#147));
#141=PRESENTATION_STYLE_ASSIGNMENT((#148));
#142=SURFACE_STYLE_USAGE(.BOTH.,#149);
#143=SURFACE_STYLE_USAGE(.BOTH.,#150);
#144=SURFACE_STYLE_USAGE(.BOTH.,#151);
#145=SURFACE_STYLE_USAGE(.BOTH.,#152);
#146=SURFACE_STYLE_USAGE(.BOTH.,#153);
#147=SURFACE_STYLE_USAGE(.BOTH.,#154);
#148=SURFACE_STYLE_USAGE(.BOTH.,#155);
#149=SURFACE_SIDE_STYLE('',(#156));
#150=SURFACE_SIDE_STYLE('',(#157));
#151=SURFACE_SIDE_STYLE('',(#158));
#152=SURFACE_SIDE_STYLE('',(#159));
#153=SURFACE_SIDE_STYLE('',(#160));
#154=SURFACE_SIDE_STYLE('',(#161));
#155=SURFACE_SIDE_STYLE('',(#162));
#156=SURFACE_STYLE_FILL_AREA(#163);
#157=SURFACE_STYLE_FILL_AREA(#164);
#158=SURFACE_STYLE_FILL_AREA(#165);
#159=SURFACE_STYLE_FILL_AREA(#166);
#160=SURFACE_STYLE_FILL_AREA(#167);
#161=SURFACE_STYLE_FILL_AREA(#168);
#162=SURFACE_STYLE_FILL_AREA(#169);
#163=FILL_AREA_STYLE('',(#170));
#164=FILL_AREA_STYLE('',(#171));
#165=FILL_AREA_STYLE('',(#172));
#166=FILL_AREA_STYLE('',(#173));
#167=FILL_AREA_STYLE('',(#174));
#168=FILL_AREA_STYLE('',(#175));
#169=FILL_AREA_STYLE('',(#176));
#170=FILL_AREA_STYLE_COLOUR('',#177);
#171=FILL_AREA_STYLE_COLOUR('',#177);
#172=FILL_AREA_STYLE_COLOUR('',#177);
#173=FILL_AREA_STYLE_COLOUR('',#177);
#174=FILL_AREA_STYLE_COLOUR('',#177);
#175=FILL_AREA_STYLE_COLOUR('',#177);
#176=FILL_AREA_STYLE_COLOUR('',#177);
#177=COLOUR_RGB('medium steel',0.596078431372549,0.666666666666667,0.686274509803922);
#178=MANIFOLD_SOLID_BREP('',#185);
#179=MANIFOLD_SOLID_BREP('',#186);
#180=MANIFOLD_SOLID_BREP('',#187);
#181=MANIFOLD_SOLID_BREP('',#188);
#182=MANIFOLD_SOLID_BREP('',#189);
#183=MANIFOLD_SOLID_BREP('',#190);
#184=MANIFOLD_SOLID_BREP('',#191);
#185=CLOSED_SHELL('',(#250,#251,#252));
#186=CLOSED_SHELL('',(#253,#254,#255,#256,#257,#258,#259));
#187=CLOSED_SHELL('',(#260,#261,#262,#263,#264,#265,#266));
#188=CLOSED_SHELL('',(#267,#268,#269,#270,#271,#272,#273));
#189=CLOSED_SHELL('',(#274,#275,#276,#277,#278,#279,#280));
#190=CLOSED_SHELL('',(#281,#282,#283));
#191=CLOSED_SHELL('',(#284,#285,#286,#287,#288,#289));
#192=PLANE('',#648);
#193=PLANE('',#649);
#194=PLANE('',#651);
#195=PLANE('',#654);
#196=PLANE('',#656);
#197=PLANE('',#657);
#198=PLANE('',#658);
#199=PLANE('',#662);
#200=PLANE('',#665);
#201=PLANE('',#667);
#202=PLANE('',#668);
#203=PLANE('',#669);
#204=PLANE('',#673);
#205=PLANE('',#676);
#206=PLANE('',#678);
#207=PLANE('',#679);
#208=PLANE('',#680);
#209=PLANE('',#684);
#210=PLANE('',#687);
#211=PLANE('',#689);
#212=PLANE('',#690);
#213=PLANE('',#691);
#214=PLANE('',#697);
#215=PLANE('',#698);
#216=PLANE('',#703);
#217=PLANE('',#708);
#218=FACE_OUTER_BOUND('',#320,.T.);
#219=FACE_OUTER_BOUND('',#321,.T.);
#220=FACE_OUTER_BOUND('',#322,.T.);
#221=FACE_OUTER_BOUND('',#323,.T.);
#222=FACE_OUTER_BOUND('',#324,.T.);
#223=FACE_OUTER_BOUND('',#325,.T.);
#224=FACE_OUTER_BOUND('',#326,.T.);
#225=FACE_OUTER_BOUND('',#327,.T.);
#226=FACE_OUTER_BOUND('',#328,.T.);
#227=FACE_OUTER_BOUND('',#329,.T.);
#228=FACE_OUTER_BOUND('',#330,.T.);
#229=FACE_OUTER_BOUND('',#331,.T.);
#230=FACE_OUTER_BOUND('',#332,.T.);
#231=FACE_OUTER_BOUND('',#333,.T.);
#232=FACE_OUTER_BOUND('',#334,.T.);
#233=FACE_OUTER_BOUND('',#335,.T.);
#234=FACE_OUTER_BOUND('',#336,.T.);
#235=FACE_OUTER_BOUND('',#337,.T.);
#236=FACE_OUTER_BOUND('',#338,.T.);
#237=FACE_OUTER_BOUND('',#339,.T.);
#238=FACE_OUTER_BOUND('',#340,.T.);
#239=FACE_OUTER_BOUND('',#341,.T.);
#240=FACE_OUTER_BOUND('',#342,.T.);
#241=FACE_OUTER_BOUND('',#343,.T.);
#242=FACE_OUTER_BOUND('',#344,.T.);
#243=FACE_OUTER_BOUND('',#345,.T.);
#244=FACE_OUTER_BOUND('',#346,.T.);
#245=FACE_OUTER_BOUND('',#347,.T.);
#246=FACE_OUTER_BOUND('',#348,.T.);
#247=FACE_OUTER_BOUND('',#349,.T.);
#248=FACE_OUTER_BOUND('',#352,.T.);
#249=FACE_OUTER_BOUND('',#353,.T.);
#250=ADVANCED_FACE('',(#302,#303),#290,.T.);
#251=ADVANCED_FACE('',(#218),#192,.T.);
#252=ADVANCED_FACE('',(#219),#193,.F.);
#253=ADVANCED_FACE('',(#220),#194,.F.);
#254=ADVANCED_FACE('',(#221),#195,.F.);
#255=ADVANCED_FACE('',(#222),#196,.F.);
#256=ADVANCED_FACE('',(#223),#197,.F.);
#257=ADVANCED_FACE('',(#224),#198,.T.);
#258=ADVANCED_FACE('',(#225),#291,.T.);
#259=ADVANCED_FACE('',(#226),#292,.T.);
#260=ADVANCED_FACE('',(#227),#199,.F.);
#261=ADVANCED_FACE('',(#228),#200,.F.);
#262=ADVANCED_FACE('',(#229),#201,.F.);
#263=ADVANCED_FACE('',(#230),#202,.F.);
#264=ADVANCED_FACE('',(#231),#203,.T.);
#265=ADVANCED_FACE('',(#232),#293,.T.);
#266=ADVANCED_FACE('',(#233),#294,.T.);
#267=ADVANCED_FACE('',(#234),#204,.F.);
#268=ADVANCED_FACE('',(#235),#205,.F.);
#269=ADVANCED_FACE('',(#236),#206,.F.);
#270=ADVANCED_FACE('',(#237),#207,.F.);
#271=ADVANCED_FACE('',(#238),#208,.T.);
#272=ADVANCED_FACE('',(#239),#295,.T.);
#273=ADVANCED_FACE('',(#240),#296,.T.);
#274=ADVANCED_FACE('',(#241),#209,.F.);
#275=ADVANCED_FACE('',(#242),#210,.F.);
#276=ADVANCED_FACE('',(#243),#211,.F.);
#277=ADVANCED_FACE('',(#244),#212,.F.);
#278=ADVANCED_FACE('',(#245),#213,.T.);
#279=ADVANCED_FACE('',(#246),#297,.T.);
#280=ADVANCED_FACE('',(#247),#298,.T.);
#281=ADVANCED_FACE('',(#304,#305),#299,.T.);
#282=ADVANCED_FACE('',(#248),#214,.F.);
#283=ADVANCED_FACE('',(#249),#215,.T.);
#284=ADVANCED_FACE('',(#306,#307),#300,.T.);
#285=ADVANCED_FACE('',(#308,#309),#216,.T.);
#286=ADVANCED_FACE('',(#310,#311),#23,.F.);
#287=ADVANCED_FACE('',(#312,#313),#301,.F.);
#288=ADVANCED_FACE('',(#314,#315),#24,.F.);
#289=ADVANCED_FACE('',(#316,#317),#217,.T.);
#290=CYLINDRICAL_SURFACE('',#647,1.5);
#291=CYLINDRICAL_SURFACE('',#659,1.);
#292=CYLINDRICAL_SURFACE('',#660,1.);
#293=CYLINDRICAL_SURFACE('',#670,1.);
#294=CYLINDRICAL_SURFACE('',#671,1.);
#295=CYLINDRICAL_SURFACE('',#681,1.);
#296=CYLINDRICAL_SURFACE('',#682,1.);
#297=CYLINDRICAL_SURFACE('',#692,1.);
#298=CYLINDRICAL_SURFACE('',#693,1.);
#299=CYLINDRICAL_SURFACE('',#696,1.5);
#300=CYLINDRICAL_SURFACE('',#701,17.6946900188709);
#301=CYLINDRICAL_SURFACE('',#706,1.5);
#302=FACE_BOUND('',#318,.T.);
#303=FACE_BOUND('',#319,.T.);
#304=FACE_BOUND('',#350,.T.);
#305=FACE_BOUND('',#351,.T.);
#306=FACE_BOUND('',#354,.T.);
#307=FACE_BOUND('',#355,.T.);
#308=FACE_BOUND('',#356,.T.);
#309=FACE_BOUND('',#357,.T.);
#310=FACE_BOUND('',#358,.T.);
#311=FACE_BOUND('',#359,.T.);
#312=FACE_BOUND('',#360,.T.);
#313=FACE_BOUND('',#361,.T.);
#314=FACE_BOUND('',#362,.T.);
#315=FACE_BOUND('',#363,.T.);
#316=FACE_BOUND('',#364,.T.);
#317=FACE_BOUND('',#365,.T.);
#318=EDGE_LOOP('',(#366));
#319=EDGE_LOOP('',(#367));
#320=EDGE_LOOP('',(#368));
#321=EDGE_LOOP('',(#369));
#322=EDGE_LOOP('',(#370,#371,#372,#373));
#323=EDGE_LOOP('',(#374,#375,#376,#377));
#324=EDGE_LOOP('',(#378,#379,#380,#381));
#325=EDGE_LOOP('',(#382,#383,#384,#385,#386));
#326=EDGE_LOOP('',(#387,#388,#389,#390,#391));
#327=EDGE_LOOP('',(#392,#393,#394,#395));
#328=EDGE_LOOP('',(#396,#397,#398,#399));
#329=EDGE_LOOP('',(#400,#401,#402,#403));
#330=EDGE_LOOP('',(#404,#405,#406,#407));
#331=EDGE_LOOP('',(#408,#409,#410,#411));
#332=EDGE_LOOP('',(#412,#413,#414,#415,#416));
#333=EDGE_LOOP('',(#417,#418,#419,#420,#421));
#334=EDGE_LOOP('',(#422,#423,#424,#425));
#335=EDGE_LOOP('',(#426,#427,#428,#429));
#336=EDGE_LOOP('',(#430,#431,#432,#433));
#337=EDGE_LOOP('',(#434,#435,#436,#437));
#338=EDGE_LOOP('',(#438,#439,#440,#441));
#339=EDGE_LOOP('',(#442,#443,#444,#445,#446));
#340=EDGE_LOOP('',(#447,#448,#449,#450,#451));
#341=EDGE_LOOP('',(#452,#453,#454,#455));
#342=EDGE_LOOP('',(#456,#457,#458,#459));
#343=EDGE_LOOP('',(#460,#461,#462,#463));
#344=EDGE_LOOP('',(#464,#465,#466,#467));
#345=EDGE_LOOP('',(#468,#469,#470,#471));
#346=EDGE_LOOP('',(#472,#473,#474,#475,#476));
#347=EDGE_LOOP('',(#477,#478,#479,#480,#481));
#348=EDGE_LOOP('',(#482,#483,#484,#485));
#349=EDGE_LOOP('',(#486,#487,#488,#489));
#350=EDGE_LOOP('',(#490));
#351=EDGE_LOOP('',(#491));
#352=EDGE_LOOP('',(#492));
#353=EDGE_LOOP('',(#493));
#354=EDGE_LOOP('',(#494));
#355=EDGE_LOOP('',(#495));
#356=EDGE_LOOP('',(#496));
#357=EDGE_LOOP('',(#497));
#358=EDGE_LOOP('',(#498));
#359=EDGE_LOOP('',(#499));
#360=EDGE_LOOP('',(#500));
#361=EDGE_LOOP('',(#501));
#362=EDGE_LOOP('',(#502));
#363=EDGE_LOOP('',(#503));
#364=EDGE_LOOP('',(#504));
#365=EDGE_LOOP('',(#505));
#366=ORIENTED_EDGE('',*,*,#556,.F.);
#367=ORIENTED_EDGE('',*,*,#557,.T.);
#368=ORIENTED_EDGE('',*,*,#556,.T.);
#369=ORIENTED_EDGE('',*,*,#557,.F.);
#370=ORIENTED_EDGE('',*,*,#558,.T.);
#371=ORIENTED_EDGE('',*,*,#559,.F.);
#372=ORIENTED_EDGE('',*,*,#560,.T.);
#373=ORIENTED_EDGE('',*,*,#561,.T.);
#374=ORIENTED_EDGE('',*,*,#562,.F.);
#375=ORIENTED_EDGE('',*,*,#563,.T.);
#376=ORIENTED_EDGE('',*,*,#564,.T.);
#377=ORIENTED_EDGE('',*,*,#565,.T.);
#378=ORIENTED_EDGE('',*,*,#566,.F.);
#379=ORIENTED_EDGE('',*,*,#567,.T.);
#380=ORIENTED_EDGE('',*,*,#568,.T.);
#381=ORIENTED_EDGE('',*,*,#560,.F.);
#382=ORIENTED_EDGE('',*,*,#559,.T.);
#383=ORIENTED_EDGE('',*,*,#569,.T.);
#384=ORIENTED_EDGE('',*,*,#562,.T.);
#385=ORIENTED_EDGE('',*,*,#570,.T.);
#386=ORIENTED_EDGE('',*,*,#566,.T.);
#387=ORIENTED_EDGE('',*,*,#564,.F.);
#388=ORIENTED_EDGE('',*,*,#571,.T.);
#389=ORIENTED_EDGE('',*,*,#561,.F.);
#390=ORIENTED_EDGE('',*,*,#568,.F.);
#391=ORIENTED_EDGE('',*,*,#572,.T.);
#392=ORIENTED_EDGE('',*,*,#563,.F.);
#393=ORIENTED_EDGE('',*,*,#569,.F.);
#394=ORIENTED_EDGE('',*,*,#558,.F.);
#395=ORIENTED_EDGE('',*,*,#571,.F.);
#396=ORIENTED_EDGE('',*,*,#567,.F.);
#397=ORIENTED_EDGE('',*,*,#570,.F.);
#398=ORIENTED_EDGE('',*,*,#565,.F.);
#399=ORIENTED_EDGE('',*,*,#572,.F.);
#400=ORIENTED_EDGE('',*,*,#573,.T.);
#401=ORIENTED_EDGE('',*,*,#574,.F.);
#402=ORIENTED_EDGE('',*,*,#575,.T.);
#403=ORIENTED_EDGE('',*,*,#576,.T.);
#404=ORIENTED_EDGE('',*,*,#577,.F.);
#405=ORIENTED_EDGE('',*,*,#578,.T.);
#406=ORIENTED_EDGE('',*,*,#579,.T.);
#407=ORIENTED_EDGE('',*,*,#580,.T.);
#408=ORIENTED_EDGE('',*,*,#581,.F.);
#409=ORIENTED_EDGE('',*,*,#582,.T.);
#410=ORIENTED_EDGE('',*,*,#583,.T.);
#411=ORIENTED_EDGE('',*,*,#575,.F.);
#412=ORIENTED_EDGE('',*,*,#574,.T.);
#413=ORIENTED_EDGE('',*,*,#584,.T.);
#414=ORIENTED_EDGE('',*,*,#577,.T.);
#415=ORIENTED_EDGE('',*,*,#585,.T.);
#416=ORIENTED_EDGE('',*,*,#581,.T.);
#417=ORIENTED_EDGE('',*,*,#579,.F.);
#418=ORIENTED_EDGE('',*,*,#586,.T.);
#419=ORIENTED_EDGE('',*,*,#576,.F.);
#420=ORIENTED_EDGE('',*,*,#583,.F.);
#421=ORIENTED_EDGE('',*,*,#587,.T.);
#422=ORIENTED_EDGE('',*,*,#578,.F.);
#423=ORIENTED_EDGE('',*,*,#584,.F.);
#424=ORIENTED_EDGE('',*,*,#573,.F.);
#425=ORIENTED_EDGE('',*,*,#586,.F.);
#426=ORIENTED_EDGE('',*,*,#582,.F.);
#427=ORIENTED_EDGE('',*,*,#585,.F.);
#428=ORIENTED_EDGE('',*,*,#580,.F.);
#429=ORIENTED_EDGE('',*,*,#587,.F.);
#430=ORIENTED_EDGE('',*,*,#588,.T.);
#431=ORIENTED_EDGE('',*,*,#589,.T.);
#432=ORIENTED_EDGE('',*,*,#590,.F.);
#433=ORIENTED_EDGE('',*,*,#591,.T.);
#434=ORIENTED_EDGE('',*,*,#592,.T.);
#435=ORIENTED_EDGE('',*,*,#593,.T.);
#436=ORIENTED_EDGE('',*,*,#594,.T.);
#437=ORIENTED_EDGE('',*,*,#595,.F.);
#438=ORIENTED_EDGE('',*,*,#596,.F.);
#439=ORIENTED_EDGE('',*,*,#597,.T.);
#440=ORIENTED_EDGE('',*,*,#598,.T.);
#441=ORIENTED_EDGE('',*,*,#591,.F.);
#442=ORIENTED_EDGE('',*,*,#590,.T.);
#443=ORIENTED_EDGE('',*,*,#599,.T.);
#444=ORIENTED_EDGE('',*,*,#595,.T.);
#445=ORIENTED_EDGE('',*,*,#600,.T.);
#446=ORIENTED_EDGE('',*,*,#596,.T.);
#447=ORIENTED_EDGE('',*,*,#593,.F.);
#448=ORIENTED_EDGE('',*,*,#601,.T.);
#449=ORIENTED_EDGE('',*,*,#588,.F.);
#450=ORIENTED_EDGE('',*,*,#598,.F.);
#451=ORIENTED_EDGE('',*,*,#602,.T.);
#452=ORIENTED_EDGE('',*,*,#599,.F.);
#453=ORIENTED_EDGE('',*,*,#589,.F.);
#454=ORIENTED_EDGE('',*,*,#601,.F.);
#455=ORIENTED_EDGE('',*,*,#592,.F.);
#456=ORIENTED_EDGE('',*,*,#597,.F.);
#457=ORIENTED_EDGE('',*,*,#600,.F.);
#458=ORIENTED_EDGE('',*,*,#594,.F.);
#459=ORIENTED_EDGE('',*,*,#602,.F.);
#460=ORIENTED_EDGE('',*,*,#603,.T.);
#461=ORIENTED_EDGE('',*,*,#604,.T.);
#462=ORIENTED_EDGE('',*,*,#605,.F.);
#463=ORIENTED_EDGE('',*,*,#606,.T.);
#464=ORIENTED_EDGE('',*,*,#607,.T.);
#465=ORIENTED_EDGE('',*,*,#608,.T.);
#466=ORIENTED_EDGE('',*,*,#609,.F.);
#467=ORIENTED_EDGE('',*,*,#610,.T.);
#468=ORIENTED_EDGE('',*,*,#611,.T.);
#469=ORIENTED_EDGE('',*,*,#612,.T.);
#470=ORIENTED_EDGE('',*,*,#606,.F.);
#471=ORIENTED_EDGE('',*,*,#613,.F.);
#472=ORIENTED_EDGE('',*,*,#609,.T.);
#473=ORIENTED_EDGE('',*,*,#614,.T.);
#474=ORIENTED_EDGE('',*,*,#613,.T.);
#475=ORIENTED_EDGE('',*,*,#605,.T.);
#476=ORIENTED_EDGE('',*,*,#615,.T.);
#477=ORIENTED_EDGE('',*,*,#612,.F.);
#478=ORIENTED_EDGE('',*,*,#616,.T.);
#479=ORIENTED_EDGE('',*,*,#607,.F.);
#480=ORIENTED_EDGE('',*,*,#617,.T.);
#481=ORIENTED_EDGE('',*,*,#603,.F.);
#482=ORIENTED_EDGE('',*,*,#614,.F.);
#483=ORIENTED_EDGE('',*,*,#608,.F.);
#484=ORIENTED_EDGE('',*,*,#616,.F.);
#485=ORIENTED_EDGE('',*,*,#611,.F.);
#486=ORIENTED_EDGE('',*,*,#615,.F.);
#487=ORIENTED_EDGE('',*,*,#604,.F.);
#488=ORIENTED_EDGE('',*,*,#617,.F.);
#489=ORIENTED_EDGE('',*,*,#610,.F.);
#490=ORIENTED_EDGE('',*,*,#618,.T.);
#491=ORIENTED_EDGE('',*,*,#619,.F.);
#492=ORIENTED_EDGE('',*,*,#618,.F.);
#493=ORIENTED_EDGE('',*,*,#619,.T.);
#494=ORIENTED_EDGE('',*,*,#620,.T.);
#495=ORIENTED_EDGE('',*,*,#621,.F.);
#496=ORIENTED_EDGE('',*,*,#622,.T.);
#497=ORIENTED_EDGE('',*,*,#620,.F.);
#498=ORIENTED_EDGE('',*,*,#623,.T.);
#499=ORIENTED_EDGE('',*,*,#622,.F.);
#500=ORIENTED_EDGE('',*,*,#624,.T.);
#501=ORIENTED_EDGE('',*,*,#623,.F.);
#502=ORIENTED_EDGE('',*,*,#625,.T.);
#503=ORIENTED_EDGE('',*,*,#624,.F.);
#504=ORIENTED_EDGE('',*,*,#621,.T.);
#505=ORIENTED_EDGE('',*,*,#625,.F.);
#506=VERTEX_POINT('',#889);
#507=VERTEX_POINT('',#891);
#508=VERTEX_POINT('',#896);
#509=VERTEX_POINT('',#897);
#510=VERTEX_POINT('',#899);
#511=VERTEX_POINT('',#901);
#512=VERTEX_POINT('',#905);
#513=VERTEX_POINT('',#906);
#514=VERTEX_POINT('',#908);
#515=VERTEX_POINT('',#910);
#516=VERTEX_POINT('',#914);
#517=VERTEX_POINT('',#916);
#518=VERTEX_POINT('',#928);
#519=VERTEX_POINT('',#929);
#520=VERTEX_POINT('',#931);
#521=VERTEX_POINT('',#933);
#522=VERTEX_POINT('',#937);
#523=VERTEX_POINT('',#938);
#524=VERTEX_POINT('',#940);
#525=VERTEX_POINT('',#942);
#526=VERTEX_POINT('',#946);
#527=VERTEX_POINT('',#948);
#528=VERTEX_POINT('',#960);
#529=VERTEX_POINT('',#961);
#530=VERTEX_POINT('',#963);
#531=VERTEX_POINT('',#965);
#532=VERTEX_POINT('',#969);
#533=VERTEX_POINT('',#970);
#534=VERTEX_POINT('',#972);
#535=VERTEX_POINT('',#974);
#536=VERTEX_POINT('',#978);
#537=VERTEX_POINT('',#980);
#538=VERTEX_POINT('',#992);
#539=VERTEX_POINT('',#993);
#540=VERTEX_POINT('',#995);
#541=VERTEX_POINT('',#997);
#542=VERTEX_POINT('',#1001);
#543=VERTEX_POINT('',#1002);
#544=VERTEX_POINT('',#1004);
#545=VERTEX_POINT('',#1006);
#546=VERTEX_POINT('',#1010);
#547=VERTEX_POINT('',#1011);
#548=VERTEX_POINT('',#1024);
#549=VERTEX_POINT('',#1026);
#550=VERTEX_POINT('',#1031);
#551=VERTEX_POINT('',#1033);
#552=VERTEX_POINT('',#1036);
#553=VERTEX_POINT('',#1039);
#554=VERTEX_POINT('',#1043);
#555=VERTEX_POINT('',#1046);
#556=EDGE_CURVE('',#506,#506,#626,.T.);
#557=EDGE_CURVE('',#507,#507,#627,.T.);
#558=EDGE_CURVE('',#508,#509,#119,.T.);
#559=EDGE_CURVE('',#510,#509,#27,.T.);
#560=EDGE_CURVE('',#510,#511,#28,.T.);
#561=EDGE_CURVE('',#511,#508,#29,.T.);
#562=EDGE_CURVE('',#512,#513,#30,.T.);
#563=EDGE_CURVE('',#512,#514,#628,.T.);
#564=EDGE_CURVE('',#514,#515,#31,.T.);
#565=EDGE_CURVE('',#515,#513,#629,.T.);
#566=EDGE_CURVE('',#516,#510,#32,.T.);
#567=EDGE_CURVE('',#516,#517,#120,.T.);
#568=EDGE_CURVE('',#517,#511,#33,.T.);
#569=EDGE_CURVE('',#509,#512,#34,.T.);
#570=EDGE_CURVE('',#513,#516,#35,.T.);
#571=EDGE_CURVE('',#514,#508,#36,.T.);
#572=EDGE_CURVE('',#517,#515,#37,.T.);
#573=EDGE_CURVE('',#518,#519,#121,.T.);
#574=EDGE_CURVE('',#520,#519,#38,.T.);
#575=EDGE_CURVE('',#520,#521,#39,.T.);
#576=EDGE_CURVE('',#521,#518,#40,.T.);
#577=EDGE_CURVE('',#522,#523,#41,.T.);
#578=EDGE_CURVE('',#522,#524,#630,.T.);
#579=EDGE_CURVE('',#524,#525,#42,.T.);
#580=EDGE_CURVE('',#525,#523,#631,.T.);
#581=EDGE_CURVE('',#526,#520,#43,.T.);
#582=EDGE_CURVE('',#526,#527,#122,.T.);
#583=EDGE_CURVE('',#527,#521,#44,.T.);
#584=EDGE_CURVE('',#519,#522,#45,.T.);
#585=EDGE_CURVE('',#523,#526,#46,.T.);
#586=EDGE_CURVE('',#524,#518,#47,.T.);
#587=EDGE_CURVE('',#527,#525,#48,.T.);
#588=EDGE_CURVE('',#528,#529,#49,.T.);
#589=EDGE_CURVE('',#529,#530,#123,.T.);
#590=EDGE_CURVE('',#531,#530,#50,.T.);
#591=EDGE_CURVE('',#531,#528,#51,.T.);
#592=EDGE_CURVE('',#532,#533,#632,.T.);
#593=EDGE_CURVE('',#533,#534,#52,.T.);
#594=EDGE_CURVE('',#534,#535,#633,.T.);
#595=EDGE_CURVE('',#532,#535,#53,.T.);
#596=EDGE_CURVE('',#536,#531,#54,.T.);
#597=EDGE_CURVE('',#536,#537,#124,.T.);
#598=EDGE_CURVE('',#537,#528,#55,.T.);
#599=EDGE_CURVE('',#530,#532,#56,.T.);
#600=EDGE_CURVE('',#535,#536,#57,.T.);
#601=EDGE_CURVE('',#533,#529,#58,.T.);
#602=EDGE_CURVE('',#537,#534,#59,.T.);
#603=EDGE_CURVE('',#538,#539,#60,.T.);
#604=EDGE_CURVE('',#539,#540,#125,.T.);
#605=EDGE_CURVE('',#541,#540,#61,.T.);
#606=EDGE_CURVE('',#541,#538,#62,.T.);
#607=EDGE_CURVE('',#542,#543,#63,.T.);
#608=EDGE_CURVE('',#543,#544,#634,.T.);
#609=EDGE_CURVE('',#545,#544,#64,.T.);
#610=EDGE_CURVE('',#545,#542,#635,.T.);
#611=EDGE_CURVE('',#546,#547,#126,.T.);
#612=EDGE_CURVE('',#547,#538,#65,.T.);
#613=EDGE_CURVE('',#546,#541,#66,.T.);
#614=EDGE_CURVE('',#544,#546,#67,.T.);
#615=EDGE_CURVE('',#540,#545,#68,.T.);
#616=EDGE_CURVE('',#547,#543,#69,.T.);
#617=EDGE_CURVE('',#542,#539,#70,.T.);
#618=EDGE_CURVE('',#548,#548,#636,.T.);
#619=EDGE_CURVE('',#549,#549,#637,.T.);
#620=EDGE_CURVE('',#550,#550,#638,.T.);
#621=EDGE_CURVE('',#551,#551,#639,.T.);
#622=EDGE_CURVE('',#552,#552,#640,.T.);
#623=EDGE_CURVE('',#553,#553,#641,.T.);
#624=EDGE_CURVE('',#554,#554,#642,.T.);
#625=EDGE_CURVE('',#555,#555,#643,.T.);
#626=CIRCLE('',#645,1.5);
#627=CIRCLE('',#646,1.5);
#628=CIRCLE('',#652,1.);
#629=CIRCLE('',#653,1.);
#630=CIRCLE('',#663,1.);
#631=CIRCLE('',#664,1.);
#632=CIRCLE('',#674,1.);
#633=CIRCLE('',#675,1.);
#634=CIRCLE('',#685,1.);
#635=CIRCLE('',#686,1.);
#636=CIRCLE('',#694,1.5);
#637=CIRCLE('',#695,1.5);
#638=CIRCLE('',#699,17.6946900188709);
#639=CIRCLE('',#700,17.6946900188709);
#640=CIRCLE('',#702,1.55435108271722);
#641=CIRCLE('',#704,1.5);
#642=CIRCLE('',#705,1.5);
#643=CIRCLE('',#707,1.55435110414302);
#644=AXIS2_PLACEMENT_3D('',#887,#709,#710);
#645=AXIS2_PLACEMENT_3D('',#888,#711,#712);
#646=AXIS2_PLACEMENT_3D('',#890,#713,#714);
#647=AXIS2_PLACEMENT_3D('',#892,#715,#716);
#648=AXIS2_PLACEMENT_3D('',#893,#717,#718);
#649=AXIS2_PLACEMENT_3D('',#894,#719,#720);
#650=AXIS2_PLACEMENT_3D('',#895,#721,#722);
#651=AXIS2_PLACEMENT_3D('',#903,#726,#727);
#652=AXIS2_PLACEMENT_3D('',#907,#729,#730);
#653=AXIS2_PLACEMENT_3D('',#911,#732,#733);
#654=AXIS2_PLACEMENT_3D('',#912,#734,#735);
#655=AXIS2_PLACEMENT_3D('',#915,#737,#738);
#656=AXIS2_PLACEMENT_3D('',#918,#740,#741);
#657=AXIS2_PLACEMENT_3D('',#921,#744,#745);
#658=AXIS2_PLACEMENT_3D('',#924,#748,#749);
#659=AXIS2_PLACEMENT_3D('',#925,#750,#751);
#660=AXIS2_PLACEMENT_3D('',#926,#752,#753);
#661=AXIS2_PLACEMENT_3D('',#927,#754,#755);
#662=AXIS2_PLACEMENT_3D('',#935,#759,#760);
#663=AXIS2_PLACEMENT_3D('',#939,#762,#763);
#664=AXIS2_PLACEMENT_3D('',#943,#765,#766);
#665=AXIS2_PLACEMENT_3D('',#944,#767,#768);
#666=AXIS2_PLACEMENT_3D('',#947,#770,#771);
#667=AXIS2_PLACEMENT_3D('',#950,#773,#774);
#668=AXIS2_PLACEMENT_3D('',#953,#777,#778);
#669=AXIS2_PLACEMENT_3D('',#956,#781,#782);
#670=AXIS2_PLACEMENT_3D('',#957,#783,#784);
#671=AXIS2_PLACEMENT_3D('',#958,#785,#786);
#672=AXIS2_PLACEMENT_3D('',#962,#788,#789);
#673=AXIS2_PLACEMENT_3D('',#967,#792,#793);
#674=AXIS2_PLACEMENT_3D('',#968,#794,#795);
#675=AXIS2_PLACEMENT_3D('',#973,#797,#798);
#676=AXIS2_PLACEMENT_3D('',#976,#800,#801);
#677=AXIS2_PLACEMENT_3D('',#979,#803,#804);
#678=AXIS2_PLACEMENT_3D('',#982,#806,#807);
#679=AXIS2_PLACEMENT_3D('',#985,#810,#811);
#680=AXIS2_PLACEMENT_3D('',#988,#814,#815);
#681=AXIS2_PLACEMENT_3D('',#989,#816,#817);
#682=AXIS2_PLACEMENT_3D('',#990,#818,#819);
#683=AXIS2_PLACEMENT_3D('',#994,#821,#822);
#684=AXIS2_PLACEMENT_3D('',#999,#825,#826);
#685=AXIS2_PLACEMENT_3D('',#1003,#828,#829);
#686=AXIS2_PLACEMENT_3D('',#1007,#831,#832);
#687=AXIS2_PLACEMENT_3D('',#1008,#833,#834);
#688=AXIS2_PLACEMENT_3D('',#1009,#835,#836);
#689=AXIS2_PLACEMENT_3D('',#1014,#839,#840);
#690=AXIS2_PLACEMENT_3D('',#1017,#843,#844);
#691=AXIS2_PLACEMENT_3D('',#1020,#847,#848);
#692=AXIS2_PLACEMENT_3D('',#1021,#849,#850);
#693=AXIS2_PLACEMENT_3D('',#1022,#851,#852);
#694=AXIS2_PLACEMENT_3D('',#1023,#853,#854);
#695=AXIS2_PLACEMENT_3D('',#1025,#855,#856);
#696=AXIS2_PLACEMENT_3D('',#1027,#857,#858);
#697=AXIS2_PLACEMENT_3D('',#1028,#859,#860);
#698=AXIS2_PLACEMENT_3D('',#1029,#861,#862);
#699=AXIS2_PLACEMENT_3D('',#1030,#863,#864);
#700=AXIS2_PLACEMENT_3D('',#1032,#865,#866);
#701=AXIS2_PLACEMENT_3D('',#1034,#867,#868);
#702=AXIS2_PLACEMENT_3D('',#1035,#869,#870);
#703=AXIS2_PLACEMENT_3D('',#1037,#871,#872);
#704=AXIS2_PLACEMENT_3D('',#1038,#873,#874);
#705=AXIS2_PLACEMENT_3D('',#1042,#877,#878);
#706=AXIS2_PLACEMENT_3D('',#1044,#879,#880);
#707=AXIS2_PLACEMENT_3D('',#1045,#881,#882);
#708=AXIS2_PLACEMENT_3D('',#1049,#885,#886);
#709=DIRECTION('',(0.,0.,1.));
#710=DIRECTION('',(1.,0.,0.));
#711=DIRECTION('',(0.,0.,1.));
#712=DIRECTION('',(1.,0.,0.));
#713=DIRECTION('',(0.,0.,1.));
#714=DIRECTION('',(1.,0.,0.));
#715=DIRECTION('',(0.,0.,-1.));
#716=DIRECTION('',(-1.,0.,0.));
#717=DIRECTION('',(0.,0.,1.));
#718=DIRECTION('',(1.,0.,0.));
#719=DIRECTION('',(0.,0.,1.));
#720=DIRECTION('',(1.,0.,0.));
#721=DIRECTION('',(0.,-0.707106781186547,-0.707106781186548));
#722=DIRECTION('',(0.,-0.707106781186548,0.707106781186547));
#723=DIRECTION('',(0.,0.707106781186548,-0.707106781186547));
#724=DIRECTION('',(-1.,0.,0.));
#725=DIRECTION('',(0.,0.707106781186548,-0.707106781186547));
#726=DIRECTION('',(0.,0.707106781186547,0.707106781186548));
#727=DIRECTION('',(0.,-0.707106781186548,0.707106781186547));
#728=DIRECTION('',(0.,0.,1.));
#729=DIRECTION('',(0.,1.,0.));
#730=DIRECTION('',(0.,0.,-1.));
#731=DIRECTION('',(0.,0.,1.));
#732=DIRECTION('',(0.,1.,0.));
#733=DIRECTION('',(0.,0.,-1.));
#734=DIRECTION('',(0.,-1.,0.));
#735=DIRECTION('',(0.,0.,-1.));
#736=DIRECTION('',(0.,-0.707106781186547,-0.707106781186548));
#737=DIRECTION('',(0.,-0.707106781186548,0.707106781186547));
#738=DIRECTION('',(0.,0.707106781186547,0.707106781186548));
#739=DIRECTION('',(0.,-0.707106781186547,-0.707106781186548));
#740=DIRECTION('',(0.,0.707106781186548,-0.707106781186547));
#741=DIRECTION('',(0.,0.707106781186547,0.707106781186548));
#742=DIRECTION('',(0.,1.,0.));
#743=DIRECTION('',(0.,-1.,-1.04084281276942E-16));
#744=DIRECTION('',(-1.,0.,0.));
#745=DIRECTION('',(0.,0.,1.));
#746=DIRECTION('',(0.,-1.,0.));
#747=DIRECTION('',(0.,1.,1.04084281276942E-16));
#748=DIRECTION('',(-1.,0.,0.));
#749=DIRECTION('',(0.,0.,1.));
#750=DIRECTION('',(0.,-1.,0.));
#751=DIRECTION('',(0.,0.,-1.));
#752=DIRECTION('',(0.,1.,1.04084281276942E-16));
#753=DIRECTION('',(0.,0.,1.));
#754=DIRECTION('',(0.707106781186547,-8.28344032153662E-16,-0.707106781186548));
#755=DIRECTION('',(0.707106781186548,-8.28344032153663E-16,0.707106781186547));
#756=DIRECTION('',(-0.707106781186548,8.28344032153663E-16,-0.707106781186547));
#757=DIRECTION('',(-1.17145536458252E-15,-1.,-3.48630559684209E-32));
#758=DIRECTION('',(-0.707106781186548,8.28344032153663E-16,-0.707106781186547));
#759=DIRECTION('',(-0.707106781186547,8.28344032153662E-16,0.707106781186548));
#760=DIRECTION('',(0.707106781186548,-8.28330459778925E-16,0.707106781186547));
#761=DIRECTION('',(0.,0.,1.));
#762=DIRECTION('',(-1.,1.17145536458252E-15,0.));
#763=DIRECTION('',(0.,1.,0.));
#764=DIRECTION('',(0.,0.,1.));
#765=DIRECTION('',(-1.,1.17145536458252E-15,0.));
#766=DIRECTION('',(0.,1.,0.));
#767=DIRECTION('',(1.,-1.17145536458252E-15,0.));
#768=DIRECTION('',(0.,0.,-1.));
#769=DIRECTION('',(0.707106781186547,-8.28344032153661E-16,-0.707106781186548));
#770=DIRECTION('',(0.707106781186548,-8.28344032153663E-16,0.707106781186547));
#771=DIRECTION('',(-0.707106781186547,8.28344032153661E-16,0.707106781186548));
#772=DIRECTION('',(0.707106781186547,-8.28344032153661E-16,-0.707106781186548));
#773=DIRECTION('',(-0.707106781186548,8.28344032153663E-16,-0.707106781186547));
#774=DIRECTION('',(-0.707106781186547,8.28330459778925E-16,0.707106781186548));
#775=DIRECTION('',(-1.,1.17145536458252E-15,0.));
#776=DIRECTION('',(1.,-1.17145536458252E-15,-1.04084281276942E-16));
#777=DIRECTION('',(-1.17145536458252E-15,-1.,0.));
#778=DIRECTION('',(0.,0.,1.));
#779=DIRECTION('',(1.,-1.17145536458252E-15,0.));
#780=DIRECTION('',(-1.,1.17145536458252E-15,1.04084281276942E-16));
#781=DIRECTION('',(-1.17145536458252E-15,-1.,0.));
#782=DIRECTION('',(0.,0.,1.));
#783=DIRECTION('',(1.,-1.17145536458252E-15,0.));
#784=DIRECTION('',(1.30104260698261E-15,1.,0.));
#785=DIRECTION('',(-1.,1.17145536458252E-15,1.04084281276942E-16));
#786=DIRECTION('',(0.,-1.,0.));
#787=DIRECTION('',(-1.65668806430733E-15,-0.707106781186548,-0.707106781186547));
#788=DIRECTION('',(1.65668806430732E-15,0.707106781186547,-0.707106781186548));
#789=DIRECTION('',(-1.65668806430733E-15,-0.707106781186548,-0.707106781186547));
#790=DIRECTION('',(-1.65668806430733E-15,-0.707106781186548,-0.707106781186547));
#791=DIRECTION('',(1.,-2.34291072916505E-15,-6.97261119368417E-32));
#792=DIRECTION('',(-1.65668806430732E-15,-0.707106781186547,0.707106781186548));
#793=DIRECTION('',(1.65666091955785E-15,0.707106781186548,0.707106781186547));
#794=DIRECTION('',(-2.34291072916505E-15,-1.,0.));
#795=DIRECTION('',(-1.,3.46944695195361E-15,0.));
#796=DIRECTION('',(0.,0.,1.));
#797=DIRECTION('',(-2.34291072916505E-15,-1.,0.));
#798=DIRECTION('',(-1.,3.46944695195361E-15,0.));
#799=DIRECTION('',(0.,0.,1.));
#800=DIRECTION('',(2.34291072916505E-15,1.,0.));
#801=DIRECTION('',(0.,0.,-1.));
#802=DIRECTION('',(1.65668806430732E-15,0.707106781186547,-0.707106781186548));
#803=DIRECTION('',(1.65668806430733E-15,0.707106781186548,0.707106781186547));
#804=DIRECTION('',(-1.65668806430732E-15,-0.707106781186547,0.707106781186548));
#805=DIRECTION('',(1.65668806430732E-15,0.707106781186547,-0.707106781186548));
#806=DIRECTION('',(-1.65668806430733E-15,-0.707106781186548,-0.707106781186547));
#807=DIRECTION('',(-1.65666091955785E-15,-0.707106781186547,0.707106781186548));
#808=DIRECTION('',(-2.34291072916505E-15,-1.,0.));
#809=DIRECTION('',(2.34291072916505E-15,1.,-1.04084281276942E-16));
#810=DIRECTION('',(1.,-2.34291072916505E-15,0.));
#811=DIRECTION('',(0.,0.,1.));
#812=DIRECTION('',(2.34291072916505E-15,1.,0.));
#813=DIRECTION('',(-2.34291072916505E-15,-1.,1.04084281276942E-16));
#814=DIRECTION('',(1.,-2.34291072916505E-15,0.));
#815=DIRECTION('',(0.,0.,1.));
#816=DIRECTION('',(-2.34291072916505E-15,-1.,0.));
#817=DIRECTION('',(1.,-2.34291072916505E-15,0.));
#818=DIRECTION('',(-2.34291072916505E-15,-1.,1.04084281276942E-16));
#819=DIRECTION('',(1.,-3.46944695195361E-15,0.));
#820=DIRECTION('',(0.707106781186548,-2.64204134232937E-15,-0.707106781186547));
#821=DIRECTION('',(-0.707106781186547,2.64204134232936E-15,-0.707106781186548));
#822=DIRECTION('',(0.707106781186548,-2.64204134232937E-15,-0.707106781186547));
#823=DIRECTION('',(0.707106781186548,-2.64204134232937E-15,-0.707106781186547));
#824=DIRECTION('',(3.7364106986726E-15,1.,-1.39452223873683E-31));
#825=DIRECTION('',(0.707106781186547,-2.64204134232936E-15,0.707106781186548));
#826=DIRECTION('',(-0.707106781186548,2.64198385391268E-15,0.707106781186547));
#827=DIRECTION('',(0.,0.,1.));
#828=DIRECTION('',(1.,-3.7364106986726E-15,0.));
#829=DIRECTION('',(-3.46944695195361E-15,-1.,0.));
#830=DIRECTION('',(0.,0.,1.));
#831=DIRECTION('',(1.,-3.7364106986726E-15,0.));
#832=DIRECTION('',(-3.46944695195361E-15,-1.,0.));
#833=DIRECTION('',(-1.,3.7364106986726E-15,0.));
#834=DIRECTION('',(0.,0.,-1.));
#835=DIRECTION('',(-0.707106781186548,2.64204134232937E-15,0.707106781186547));
#836=DIRECTION('',(-0.707106781186547,2.64204134232936E-15,-0.707106781186548));
#837=DIRECTION('',(-0.707106781186547,2.64204134232936E-15,-0.707106781186548));
#838=DIRECTION('',(-0.707106781186547,2.64204134232936E-15,-0.707106781186548));
#839=DIRECTION('',(0.707106781186548,-2.64204134232937E-15,-0.707106781186547));
#840=DIRECTION('',(0.707106781186547,-2.64198385391268E-15,0.707106781186548));
#841=DIRECTION('',(-1.,3.7364106986726E-15,-1.04084281276942E-16));
#842=DIRECTION('',(1.,-3.7364106986726E-15,0.));
#843=DIRECTION('',(3.7364106986726E-15,1.,0.));
#844=DIRECTION('',(0.,0.,1.));
#845=DIRECTION('',(1.,-3.7364106986726E-15,1.04084281276942E-16));
#846=DIRECTION('',(-1.,3.7364106986726E-15,0.));
#847=DIRECTION('',(3.7364106986726E-15,1.,0.));
#848=DIRECTION('',(0.,0.,1.));
#849=DIRECTION('',(-1.,3.7364106986726E-15,-1.04084281276942E-16));
#850=DIRECTION('',(-3.7364106986726E-15,-1.,0.));
#851=DIRECTION('',(1.,-3.7364106986726E-15,0.));
#852=DIRECTION('',(3.7364106986726E-15,1.,0.));
#853=DIRECTION('',(0.,0.,1.));
#854=DIRECTION('',(1.,0.,0.));
#855=DIRECTION('',(0.,0.,1.));
#856=DIRECTION('',(1.,0.,0.));
#857=DIRECTION('',(0.,0.,1.));
#858=DIRECTION('',(1.,0.,0.));
#859=DIRECTION('',(0.,0.,1.));
#860=DIRECTION('',(1.,0.,0.));
#861=DIRECTION('',(0.,0.,1.));
#862=DIRECTION('',(1.,0.,0.));
#863=DIRECTION('',(0.,0.,-1.));
#864=DIRECTION('',(-1.,0.,0.));
#865=DIRECTION('',(0.,0.,-1.));
#866=DIRECTION('',(-1.,0.,0.));
#867=DIRECTION('',(0.,0.,-1.));
#868=DIRECTION('',(-1.,0.,0.));
#869=DIRECTION('',(0.,0.,-1.));
#870=DIRECTION('',(-1.,0.,0.));
#871=DIRECTION('',(0.,0.,1.));
#872=DIRECTION('',(1.,0.,0.));
#873=DIRECTION('',(0.,0.,-1.));
#874=DIRECTION('',(-1.,0.,0.));
#875=DIRECTION('',(0.,0.17384260160126,-0.984773451037601));
#876=DIRECTION('',(0.,0.,-1.));
#877=DIRECTION('',(0.,0.,-1.));
#878=DIRECTION('',(-1.,0.,0.));
#879=DIRECTION('',(0.,0.,-1.));
#880=DIRECTION('',(-1.,0.,0.));
#881=DIRECTION('',(0.,0.,-1.));
#882=DIRECTION('',(-1.,0.,0.));
#883=DIRECTION('',(0.,-0.173842669243406,-0.984773439096693));
#884=DIRECTION('',(0.,0.,-1.));
#885=DIRECTION('',(0.,0.,-1.));
#886=DIRECTION('',(-1.,0.,0.));
#887=CARTESIAN_POINT('',(0.,0.,0.));
#888=CARTESIAN_POINT('',(0.,0.,4.1));
#889=CARTESIAN_POINT('',(1.5,0.,4.1));
#890=CARTESIAN_POINT('',(0.,0.,1.9));
#891=CARTESIAN_POINT('',(1.5,0.,1.9));
#892=CARTESIAN_POINT('',(0.,0.,3.));
#893=CARTESIAN_POINT('',(0.,0.,4.1));
#894=CARTESIAN_POINT('',(0.,0.,1.9));
#895=CARTESIAN_POINT('',(0.,-0.828543690030134,2.9074481986086));
#896=CARTESIAN_POINT('',(-1.,-0.828543690030135,2.9074481986086));
#897=CARTESIAN_POINT('',(1.,-0.828543690030135,2.9074481986086));
#898=CARTESIAN_POINT('',(1.,1.03945225428923,1.03945225428923));
#899=CARTESIAN_POINT('',(1.,-0.921095491421536,3.));
#900=CARTESIAN_POINT('',(1.,-0.921095491421536,3.));
#901=CARTESIAN_POINT('',(-1.,-0.921095491421536,3.));
#902=CARTESIAN_POINT('',(-1.,1.03945225428923,1.03945225428923));
#903=CARTESIAN_POINT('',(1.,0.49311807095156,1.5857864376269));
#904=CARTESIAN_POINT('',(1.,17.6664103559248,0.));
#905=CARTESIAN_POINT('',(1.,17.6664103559248,2.9074481986086));
#906=CARTESIAN_POINT('',(1.,17.6664103559248,3.09255180139141));
#907=CARTESIAN_POINT('',(0.,17.6664103559248,2.9074481986086));
#908=CARTESIAN_POINT('',(-1.,17.6664103559248,2.9074481986086));
#909=CARTESIAN_POINT('',(-1.,17.6664103559248,0.));
#910=CARTESIAN_POINT('',(-1.,17.6664103559248,3.09255180139141));
#911=CARTESIAN_POINT('',(0.,17.6664103559248,3.09255180139141));
#912=CARTESIAN_POINT('',(1.,17.6664103559248,1.9074481986086));
#913=CARTESIAN_POINT('',(1.,-1.96054774571077,1.96054774571077));
#914=CARTESIAN_POINT('',(1.,-0.82854369003013,3.09255180139141));
#915=CARTESIAN_POINT('',(0.,-0.828543690030131,3.09255180139141));
#916=CARTESIAN_POINT('',(-1.,-0.828543690030131,3.09255180139141));
#917=CARTESIAN_POINT('',(-1.,-1.96054774571077,1.96054774571077));
#918=CARTESIAN_POINT('',(1.,1.58566987234296,5.5067653637645));
#919=CARTESIAN_POINT('',(1.,0.,2.9074481986086));
#920=CARTESIAN_POINT('',(1.,-3.21886031559536E-16,3.09255180139141));
#921=CARTESIAN_POINT('',(1.,0.,0.));
#922=CARTESIAN_POINT('',(-1.,2.99988343471606,2.9074481986086));
#923=CARTESIAN_POINT('',(-1.,19.6664103559248,3.09255180139141));
#924=CARTESIAN_POINT('',(-1.,0.,0.));
#925=CARTESIAN_POINT('',(0.,2.99988343471606,2.9074481986086));
#926=CARTESIAN_POINT('',(0.,19.6664103559248,3.09255180139141));
#927=CARTESIAN_POINT('',(0.828543690030135,-1.01538454124356E-15,2.9074481986086));
#928=CARTESIAN_POINT('',(0.828543690030134,-1.,2.9074481986086));
#929=CARTESIAN_POINT('',(0.828543690030136,0.999999999999999,2.9074481986086));
#930=CARTESIAN_POINT('',(-1.03945225428923,1.,1.03945225428923));
#931=CARTESIAN_POINT('',(0.921095491421537,0.999999999999999,3.));
#932=CARTESIAN_POINT('',(0.921095491421537,0.999999999999999,3.));
#933=CARTESIAN_POINT('',(0.921095491421535,-1.,3.));
#934=CARTESIAN_POINT('',(-1.03945225428923,-0.999999999999999,1.03945225428923));
#935=CARTESIAN_POINT('',(-0.493118070951559,1.,1.5857864376269));
#936=CARTESIAN_POINT('',(-17.6664103559248,1.00000000000002,0.));
#937=CARTESIAN_POINT('',(-17.6664103559248,1.00000000000002,2.9074481986086));
#938=CARTESIAN_POINT('',(-17.6664103559248,1.00000000000002,3.09255180139141));
#939=CARTESIAN_POINT('',(-17.6664103559248,2.06506285935976E-14,2.9074481986086));
#940=CARTESIAN_POINT('',(-17.6664103559248,-0.999999999999979,2.9074481986086));
#941=CARTESIAN_POINT('',(-17.6664103559248,-0.999999999999979,0.));
#942=CARTESIAN_POINT('',(-17.6664103559248,-0.999999999999979,3.09255180139141));
#943=CARTESIAN_POINT('',(-17.6664103559248,2.06421753275276E-14,3.09255180139141));
#944=CARTESIAN_POINT('',(-17.6664103559248,1.00000000000002,1.9074481986086));
#945=CARTESIAN_POINT('',(1.96054774571077,0.999999999999998,1.96054774571077));
#946=CARTESIAN_POINT('',(0.828543690030131,0.999999999999999,3.09255180139141));
#947=CARTESIAN_POINT('',(0.828543690030131,-1.02383780731348E-15,3.09255180139141));
#948=CARTESIAN_POINT('',(0.828543690030128,-1.,3.09255180139141));
#949=CARTESIAN_POINT('',(1.96054774571077,-1.,1.96054774571077));
#950=CARTESIAN_POINT('',(-1.58566987234296,1.,5.5067653637645));
#951=CARTESIAN_POINT('',(1.17145536458252E-15,1.,2.9074481986086));
#952=CARTESIAN_POINT('',(1.49334139614206E-15,1.,3.09255180139141));
#953=CARTESIAN_POINT('',(1.17145536458252E-15,1.,0.));
#954=CARTESIAN_POINT('',(-2.99988343471606,-0.999999999999997,2.9074481986086));
#955=CARTESIAN_POINT('',(-19.6664103559248,-0.999999999999977,3.09255180139141));
#956=CARTESIAN_POINT('',(-1.17145536458252E-15,-1.,0.));
#957=CARTESIAN_POINT('',(-2.99988343471606,3.46944695195361E-15,2.9074481986086));
#958=CARTESIAN_POINT('',(-19.6664103559248,2.29850860566927E-14,3.09255180139141));
#959=CARTESIAN_POINT('',(0.999999999999998,-1.03945225428923,1.03945225428923));
#960=CARTESIAN_POINT('',(1.,0.921095491421534,3.));
#961=CARTESIAN_POINT('',(1.,0.828543690030132,2.9074481986086));
#962=CARTESIAN_POINT('',(1.9412039009536E-15,0.828543690030135,2.9074481986086));
#963=CARTESIAN_POINT('',(-0.999999999999998,0.828543690030137,2.9074481986086));
#964=CARTESIAN_POINT('',(-1.,-1.03945225428923,1.03945225428923));
#965=CARTESIAN_POINT('',(-0.999999999999998,0.921095491421538,3.));
#966=CARTESIAN_POINT('',(-0.999999999999998,0.921095491421538,3.));
#967=CARTESIAN_POINT('',(-1.,-0.493118070951558,1.5857864376269));
#968=CARTESIAN_POINT('',(-4.13908223687286E-14,-17.6664103559248,2.9074481986086));
#969=CARTESIAN_POINT('',(-1.00000000000004,-17.6664103559248,2.9074481986086));
#970=CARTESIAN_POINT('',(0.999999999999959,-17.6664103559248,2.9074481986086));
#971=CARTESIAN_POINT('',(0.999999999999959,-17.6664103559248,0.));
#972=CARTESIAN_POINT('',(0.999999999999959,-17.6664103559248,3.09255180139141));
#973=CARTESIAN_POINT('',(-4.12843506550553E-14,-17.6664103559248,3.09255180139141));
#974=CARTESIAN_POINT('',(-1.00000000000004,-17.6664103559248,3.09255180139141));
#975=CARTESIAN_POINT('',(-1.00000000000004,-17.6664103559248,0.));
#976=CARTESIAN_POINT('',(-1.00000000000004,-17.6664103559248,1.9074481986086));
#977=CARTESIAN_POINT('',(-0.999999999999995,1.96054774571077,1.96054774571076));
#978=CARTESIAN_POINT('',(-0.999999999999998,0.828543690030132,3.09255180139141));
#979=CARTESIAN_POINT('',(2.04767561462694E-15,0.828543690030128,3.09255180139141));
#980=CARTESIAN_POINT('',(1.,0.828543690030128,3.09255180139141));
#981=CARTESIAN_POINT('',(1.,1.96054774571077,1.96054774571077));
#982=CARTESIAN_POINT('',(-1.,-1.58566987234296,5.5067653637645));
#983=CARTESIAN_POINT('',(-1.,2.34291072916505E-15,2.9074481986086));
#984=CARTESIAN_POINT('',(-1.,2.66479676072458E-15,3.09255180139141));
#985=CARTESIAN_POINT('',(-1.,2.34291072916505E-15,0.));
#986=CARTESIAN_POINT('',(0.999999999999993,-2.99988343471606,2.9074481986086));
#987=CARTESIAN_POINT('',(0.999999999999954,-19.6664103559248,3.09255180139141));
#988=CARTESIAN_POINT('',(1.,-2.34291072916505E-15,0.));
#989=CARTESIAN_POINT('',(0.,0.,2.9074481986086));
#990=CARTESIAN_POINT('',(-4.59701721133854E-14,-19.6664103559248,3.09255180139141));
#991=CARTESIAN_POINT('',(1.03945225428924,0.999999999999996,1.03945225428923));
#992=CARTESIAN_POINT('',(-0.921095491421532,1.,3.));
#993=CARTESIAN_POINT('',(-0.828543690030131,1.,2.9074481986086));
#994=CARTESIAN_POINT('',(-0.828543690030135,3.09577950774627E-15,2.9074481986086));
#995=CARTESIAN_POINT('',(-0.828543690030138,-0.999999999999997,2.9074481986086));
#996=CARTESIAN_POINT('',(1.03945225428923,-1.,1.03945225428923));
#997=CARTESIAN_POINT('',(-0.92109549142154,-0.999999999999997,3.));
#998=CARTESIAN_POINT('',(-0.92109549142154,-0.999999999999997,3.));
#999=CARTESIAN_POINT('',(0.493118070951556,-1.,1.5857864376269));
#1000=CARTESIAN_POINT('',(17.6664103559248,0.999999999999934,0.));
#1001=CARTESIAN_POINT('',(17.6664103559248,0.999999999999934,2.9074481986086));
#1002=CARTESIAN_POINT('',(17.6664103559248,0.999999999999934,3.09255180139141));
#1003=CARTESIAN_POINT('',(17.6664103559248,-6.60089646610178E-14,3.09255180139141));
#1004=CARTESIAN_POINT('',(17.6664103559248,-1.00000000000007,3.09255180139141));
#1005=CARTESIAN_POINT('',(17.6664103559248,-1.00000000000007,0.));
#1006=CARTESIAN_POINT('',(17.6664103559248,-1.00000000000007,2.9074481986086));
#1007=CARTESIAN_POINT('',(17.6664103559248,-6.60089646610178E-14,2.9074481986086));
#1008=CARTESIAN_POINT('',(17.6664103559248,-1.00000000000007,1.9074481986086));
#1009=CARTESIAN_POINT('',(-0.82854369003013,3.09577950774626E-15,3.09255180139141));
#1010=CARTESIAN_POINT('',(-0.828543690030134,-0.999999999999997,3.09255180139141));
#1011=CARTESIAN_POINT('',(-0.828543690030128,1.,3.09255180139141));
#1012=CARTESIAN_POINT('',(-1.96054774571076,1.00000000000001,1.96054774571077));
#1013=CARTESIAN_POINT('',(-1.96054774571077,-0.999999999999993,1.96054774571077));
#1014=CARTESIAN_POINT('',(1.58566987234296,-1.00000000000001,5.5067653637645));
#1015=CARTESIAN_POINT('',(-4.05829673023214E-15,-1.,3.09255180139141));
#1016=CARTESIAN_POINT('',(-3.7364106986726E-15,-1.,2.9074481986086));
#1017=CARTESIAN_POINT('',(-3.7364106986726E-15,-1.,0.));
#1018=CARTESIAN_POINT('',(19.6664103559248,0.999999999999927,3.09255180139141));
#1019=CARTESIAN_POINT('',(2.99988343471606,0.999999999999989,2.9074481986086));
#1020=CARTESIAN_POINT('',(3.7364106986726E-15,1.,0.));
#1021=CARTESIAN_POINT('',(-3.21886031559536E-16,1.20269841207232E-30,3.09255180139141));
#1022=CARTESIAN_POINT('',(0.,0.,2.9074481986086));
#1023=CARTESIAN_POINT('',(0.,0.,-36.1));
#1024=CARTESIAN_POINT('',(1.5,0.,-36.1));
#1025=CARTESIAN_POINT('',(0.,0.,1.9));
#1026=CARTESIAN_POINT('',(1.5,0.,1.9));
#1027=CARTESIAN_POINT('',(0.,0.,-33.1));
#1028=CARTESIAN_POINT('',(0.,0.,-36.1));
#1029=CARTESIAN_POINT('',(0.,0.,1.9));
#1030=CARTESIAN_POINT('',(0.,0.,3.50000000247024));
#1031=CARTESIAN_POINT('',(-17.6946900188709,0.,3.50000000247024));
#1032=CARTESIAN_POINT('',(0.,0.,2.50000000247024));
#1033=CARTESIAN_POINT('',(-17.6946900188709,0.,2.50000000247024));
#1034=CARTESIAN_POINT('',(0.,0.,4.1));
#1035=CARTESIAN_POINT('',(0.,0.,3.50000000247027));
#1036=CARTESIAN_POINT('',(-1.55435108271722,0.,3.50000000247027));
#1037=CARTESIAN_POINT('',(-1.,-17.6664103559248,3.50000000247025));
#1038=CARTESIAN_POINT('',(0.,0.,3.09255180139141));
#1039=CARTESIAN_POINT('',(-1.5,0.,3.09255180139141));
#1040=CARTESIAN_POINT('',(-1.,-1.18996104488516,3.50000000247026));
#1041=CARTESIAN_POINT('',(0.,0.,4.1));
#1042=CARTESIAN_POINT('',(0.,0.,2.9074481986086));
#1043=CARTESIAN_POINT('',(-1.5,0.,2.9074481986086));
#1044=CARTESIAN_POINT('',(0.,0.,4.1));
#1045=CARTESIAN_POINT('',(0.,0.,2.50000000247027));
#1046=CARTESIAN_POINT('',(-1.55435110414302,0.,2.50000000247027));
#1047=CARTESIAN_POINT('',(-1.,-1.11803398874989,2.9074481986086));
#1048=CARTESIAN_POINT('',(0.,0.,4.1));
#1049=CARTESIAN_POINT('',(-1.,-1.18996107287197,2.50000000247025));
#1050=MECHANICAL_DESIGN_GEOMETRIC_PRESENTATION_REPRESENTATION('',(#128,
#129,#130,#131,#132,#133,#134),#1051);
#1051=(
GEOMETRIC_REPRESENTATION_CONTEXT(3)
GLOBAL_UNCERTAINTY_ASSIGNED_CONTEXT((#1052))
GLOBAL_UNIT_ASSIGNED_CONTEXT((#1058,#1054,#1053))
REPRESENTATION_CONTEXT('umbrella_top_open_Full_m',
'TOP_LEVEL_ASSEMBLY_PART')
);
#1052=UNCERTAINTY_MEASURE_WITH_UNIT(LENGTH_MEASURE(2.E-5),#1058,
'DISTANCE_ACCURACY_VALUE','Maximum Tolerance applied to model');
#1053=(
NAMED_UNIT(*)
SI_UNIT($,.STERADIAN.)
SOLID_ANGLE_UNIT()
);
#1054=(
CONVERSION_BASED_UNIT('DEGREE',#1056)
NAMED_UNIT(#1055)
PLANE_ANGLE_UNIT()
);
#1055=DIMENSIONAL_EXPONENTS(0.,0.,0.,0.,0.,0.,0.);
#1056=PLANE_ANGLE_MEASURE_WITH_UNIT(PLANE_ANGLE_MEASURE(0.0174532925),#1057);
#1057=(
NAMED_UNIT(*)
PLANE_ANGLE_UNIT()
SI_UNIT($,.RADIAN.)
);
#1058=(
LENGTH_UNIT()
NAMED_UNIT(*)
SI_UNIT(.MILLI.,.METRE.)
);
ENDSEC;
END-ISO-10303-21;
