ISO-10303-21;
HEADER;
/* Generated by software containing ST-Developer
 * from STEP Tools, Inc. (www.steptools.com) 
 */
/* OPTION: using custom schema-name function */

FILE_DESCRIPTION(
/* description */ (''),
/* implementation_level */ '2;1');

FILE_NAME(
/* name */ 'twister_cup_bottom_withdent.stp',
/* time_stamp */ '2026-09-08T16:14:50+02:00',
/* author */ (''),
/* organization */ (''),
/* preprocessor_version */ 'ST-DEVELOPER v20',
/* originating_system */ 'SIEMENS PLM Software NX2406.3002',
/* authorisation */ '');

FILE_SCHEMA (('AUTOMOTIVE_DESIGN { 1 0 10303 214 3 1 1 1 }'));
ENDSEC;

DATA;
#10=SHAPE_REPRESENTATION_RELATIONSHIP('None',
'relationship between twister_cup_bottom_withdent-None and twister_cup
_bottom_withdent-None',#22,#11);
#11=ADVANCED_BREP_SHAPE_REPRESENTATION(
'twister_cup_bottom_withdent-None',(#118),#1083);
#12=SHAPE_DEFINITION_REPRESENTATION(#13,#22);
#13=PRODUCT_DEFINITION_SHAPE('','',#14);
#14=PRODUCT_DEFINITION(' ','',#16,#15);
#15=PRODUCT_DEFINITION_CONTEXT('part definition',#21,'design');
#16=PRODUCT_DEFINITION_FORMATION_WITH_SPECIFIED_SOURCE(' ',' ',#18,
 .NOT_KNOWN.);
#17=PRODUCT_RELATED_PRODUCT_CATEGORY('part','',(#18));
#18=PRODUCT('twister_cup_bottom_withdent','twister_cup_bottom_withdent',
' ',(#19));
#19=PRODUCT_CONTEXT(' ',#21,'mechanical');
#20=APPLICATION_PROTOCOL_DEFINITION('international standard',
'automotive_design',2010,#21);
#21=APPLICATION_CONTEXT(
'core data for automotive mechanical design processes');
#22=SHAPE_REPRESENTATION('twister_cup_bottom_withdent-None',(#540),#1083);
#23=OVER_RIDING_STYLED_ITEM('',(#38),#153,#36);
#24=OVER_RIDING_STYLED_ITEM('',(#39),#160,#36);
#25=OVER_RIDING_STYLED_ITEM('',(#40),#161,#36);
#26=OVER_RIDING_STYLED_ITEM('',(#41),#162,#36);
#27=OVER_RIDING_STYLED_ITEM('',(#42),#163,#36);
#28=OVER_RIDING_STYLED_ITEM('',(#43),#164,#36);
#29=OVER_RIDING_STYLED_ITEM('',(#44),#165,#36);
#30=OVER_RIDING_STYLED_ITEM('',(#45),#166,#36);
#31=OVER_RIDING_STYLED_ITEM('',(#46),#167,#36);
#32=OVER_RIDING_STYLED_ITEM('',(#47),#168,#36);
#33=OVER_RIDING_STYLED_ITEM('',(#48),#175,#36);
#34=OVER_RIDING_STYLED_ITEM('',(#49),#176,#36);
#35=PRESENTATION_LAYER_ASSIGNMENT('1','Layer 1',(#118));
#36=STYLED_ITEM('',(#37),#118);
#37=PRESENTATION_STYLE_ASSIGNMENT((#50));
#38=PRESENTATION_STYLE_ASSIGNMENT((#51));
#39=PRESENTATION_STYLE_ASSIGNMENT((#52));
#40=PRESENTATION_STYLE_ASSIGNMENT((#53));
#41=PRESENTATION_STYLE_ASSIGNMENT((#54));
#42=PRESENTATION_STYLE_ASSIGNMENT((#55));
#43=PRESENTATION_STYLE_ASSIGNMENT((#56));
#44=PRESENTATION_STYLE_ASSIGNMENT((#57));
#45=PRESENTATION_STYLE_ASSIGNMENT((#58));
#46=PRESENTATION_STYLE_ASSIGNMENT((#59));
#47=PRESENTATION_STYLE_ASSIGNMENT((#60));
#48=PRESENTATION_STYLE_ASSIGNMENT((#61));
#49=PRESENTATION_STYLE_ASSIGNMENT((#62));
#50=SURFACE_STYLE_USAGE(.BOTH.,#63);
#51=SURFACE_STYLE_USAGE(.BOTH.,#64);
#52=SURFACE_STYLE_USAGE(.BOTH.,#65);
#53=SURFACE_STYLE_USAGE(.BOTH.,#66);
#54=SURFACE_STYLE_USAGE(.BOTH.,#67);
#55=SURFACE_STYLE_USAGE(.BOTH.,#68);
#56=SURFACE_STYLE_USAGE(.BOTH.,#69);
#57=SURFACE_STYLE_USAGE(.BOTH.,#70);
#58=SURFACE_STYLE_USAGE(.BOTH.,#71);
#59=SURFACE_STYLE_USAGE(.BOTH.,#72);
#60=SURFACE_STYLE_USAGE(.BOTH.,#73);
#61=SURFACE_STYLE_USAGE(.BOTH.,#74);
#62=SURFACE_STYLE_USAGE(.BOTH.,#75);
#63=SURFACE_SIDE_STYLE('',(#76));
#64=SURFACE_SIDE_STYLE('',(#77));
#65=SURFACE_SIDE_STYLE('',(#78));
#66=SURFACE_SIDE_STYLE('',(#79));
#67=SURFACE_SIDE_STYLE('',(#80));
#68=SURFACE_SIDE_STYLE('',(#81));
#69=SURFACE_SIDE_STYLE('',(#82));
#70=SURFACE_SIDE_STYLE('',(#83));
#71=SURFACE_SIDE_STYLE('',(#84));
#72=SURFACE_SIDE_STYLE('',(#85));
#73=SURFACE_SIDE_STYLE('',(#86));
#74=SURFACE_SIDE_STYLE('',(#87));
#75=SURFACE_SIDE_STYLE('',(#88));
#76=SURFACE_STYLE_FILL_AREA(#89);
#77=SURFACE_STYLE_FILL_AREA(#90);
#78=SURFACE_STYLE_FILL_AREA(#91);
#79=SURFACE_STYLE_FILL_AREA(#92);
#80=SURFACE_STYLE_FILL_AREA(#93);
#81=SURFACE_STYLE_FILL_AREA(#94);
#82=SURFACE_STYLE_FILL_AREA(#95);
#83=SURFACE_STYLE_FILL_AREA(#96);
#84=SURFACE_STYLE_FILL_AREA(#97);
#85=SURFACE_STYLE_FILL_AREA(#98);
#86=SURFACE_STYLE_FILL_AREA(#99);
#87=SURFACE_STYLE_FILL_AREA(#100);
#88=SURFACE_STYLE_FILL_AREA(#101);
#89=FILL_AREA_STYLE('',(#102));
#90=FILL_AREA_STYLE('',(#103));
#91=FILL_AREA_STYLE('',(#104));
#92=FILL_AREA_STYLE('',(#105));
#93=FILL_AREA_STYLE('',(#106));
#94=FILL_AREA_STYLE('',(#107));
#95=FILL_AREA_STYLE('',(#108));
#96=FILL_AREA_STYLE('',(#109));
#97=FILL_AREA_STYLE('',(#110));
#98=FILL_AREA_STYLE('',(#111));
#99=FILL_AREA_STYLE('',(#112));
#100=FILL_AREA_STYLE('',(#113));
#101=FILL_AREA_STYLE('',(#114));
#102=FILL_AREA_STYLE_COLOUR('',#115);
#103=FILL_AREA_STYLE_COLOUR('',#116);
#104=FILL_AREA_STYLE_COLOUR('',#116);
#105=FILL_AREA_STYLE_COLOUR('',#116);
#106=FILL_AREA_STYLE_COLOUR('',#116);
#107=FILL_AREA_STYLE_COLOUR('',#116);
#108=FILL_AREA_STYLE_COLOUR('',#116);
#109=FILL_AREA_STYLE_COLOUR('',#116);
#110=FILL_AREA_STYLE_COLOUR('',#116);
#111=FILL_AREA_STYLE_COLOUR('',#116);
#112=FILL_AREA_STYLE_COLOUR('',#116);
#113=FILL_AREA_STYLE_COLOUR('',#117);
#114=FILL_AREA_STYLE_COLOUR('',#117);
#115=COLOUR_RGB('medium royal',0.2,0.4,0.8);
#116=COLOUR_RGB('strong pink',0.933333333333333,0.584313725490196,0.741176470588235);
#117=COLOUR_RGB('medium steel',0.596078431372549,0.666666666666667,0.686274509803922);
#118=MANIFOLD_SOLID_BREP('',#119);
#119=CLOSED_SHELL('',(#153,#154,#155,#156,#157,#158,#159,#160,#161,#162,
#163,#164,#165,#166,#167,#168,#169,#170,#171,#172,#173,#174,#175,#176,#177,
#178,#179,#180,#181,#182,#183,#184,#185,#186,#187,#188,#189,#190,#191));
#120=FACE_OUTER_BOUND('',#318,.T.);
#121=FACE_OUTER_BOUND('',#319,.T.);
#122=CYLINDRICAL_SURFACE('',#576,2.);
#123=CYLINDRICAL_SURFACE('',#588,15.8147014604425);
#124=CYLINDRICAL_SURFACE('',#591,16.8147014604425);
#125=CYLINDRICAL_SURFACE('',#597,18.6147014604425);
#126=CYLINDRICAL_SURFACE('',#600,18.2147014604425);
#127=CYLINDRICAL_SURFACE('',#601,17.2147014604425);
#128=CONICAL_SURFACE('',#561,19.5,1.96910417977654);
#129=CONICAL_SURFACE('',#578,13.0064280515746,31.2856074132056);
#130=CONICAL_SURFACE('',#579,13.0982202000044,21.5087082515236);
#131=CONICAL_SURFACE('',#581,12.4076702234399,34.01741361466);
#132=CONICAL_SURFACE('',#582,10.8390950420164,41.4822894569321);
#133=CONICAL_SURFACE('',#583,6.50096024900565,56.1766370569855);
#134=PLANE('',#558);
#135=PLANE('',#573);
#136=PLANE('',#584);
#137=PLANE('',#585);
#138=PLANE('',#586);
#139=PLANE('',#594);
#140=PLANE('',#599);
#141=PLANE('',#603);
#142=TOROIDAL_SURFACE('',#545,17.0147014604425,0.3);
#143=TOROIDAL_SURFACE('',#548,18.4147014604425,0.3);
#144=TOROIDAL_SURFACE('',#551,16.8147014604425,0.4);
#145=TOROIDAL_SURFACE('',#554,18.6147014604425,0.4);
#146=TOROIDAL_SURFACE('',#556,16.4597129002293,1.);
#147=TOROIDAL_SURFACE('',#604,16.8147014604425,1.);
#148=TOROIDAL_SURFACE('',#605,16.9147014604425,0.1);
#149=TOROIDAL_SURFACE('',#606,18.5147014604425,0.1);
#150=TOROIDAL_SURFACE('',#607,17.361199934628,0.799999999999998);
#151=TOROIDAL_SURFACE('',#608,17.2147014604425,0.4);
#152=TOROIDAL_SURFACE('',#609,18.2147014604425,0.4);
#153=ADVANCED_FACE('',(#200,#201),#192,.T.);
#154=ADVANCED_FACE('',(#202,#203),#142,.F.);
#155=ADVANCED_FACE('',(#204,#205),#143,.F.);
#156=ADVANCED_FACE('',(#206,#207),#144,.F.);
#157=ADVANCED_FACE('',(#208,#209),#145,.F.);
#158=ADVANCED_FACE('',(#210,#211),#146,.F.);
#159=ADVANCED_FACE('',(#212,#213),#134,.T.);
#160=ADVANCED_FACE('',(#214,#215),#128,.T.);
#161=ADVANCED_FACE('',(#216,#217),#193,.T.);
#162=ADVANCED_FACE('',(#218,#219),#194,.T.);
#163=ADVANCED_FACE('',(#220,#221),#195,.T.);
#164=ADVANCED_FACE('',(#222,#223),#196,.T.);
#165=ADVANCED_FACE('',(#224,#225),#197,.T.);
#166=ADVANCED_FACE('',(#226,#227),#135,.T.);
#167=ADVANCED_FACE('',(#228,#229),#198,.T.);
#168=ADVANCED_FACE('',(#230,#231),#199,.T.);
#169=ADVANCED_FACE('',(#232,#233),#122,.F.);
#170=ADVANCED_FACE('',(#234,#235),#129,.F.);
#171=ADVANCED_FACE('',(#236,#237),#130,.F.);
#172=ADVANCED_FACE('',(#238,#239),#131,.F.);
#173=ADVANCED_FACE('',(#240,#241),#132,.F.);
#174=ADVANCED_FACE('',(#242,#243),#133,.F.);
#175=ADVANCED_FACE('',(#120),#136,.T.);
#176=ADVANCED_FACE('',(#121),#137,.F.);
#177=ADVANCED_FACE('',(#244,#245),#138,.T.);
#178=ADVANCED_FACE('',(#246,#247),#123,.F.);
#179=ADVANCED_FACE('',(#248,#249),#124,.F.);
#180=ADVANCED_FACE('',(#250,#251),#139,.T.);
#181=ADVANCED_FACE('',(#252,#253),#125,.T.);
#182=ADVANCED_FACE('',(#254,#255),#140,.T.);
#183=ADVANCED_FACE('',(#256,#257),#126,.T.);
#184=ADVANCED_FACE('',(#258,#259),#127,.F.);
#185=ADVANCED_FACE('',(#260,#261),#141,.T.);
#186=ADVANCED_FACE('',(#262,#263),#147,.T.);
#187=ADVANCED_FACE('',(#264,#265),#148,.T.);
#188=ADVANCED_FACE('',(#266,#267),#149,.T.);
#189=ADVANCED_FACE('',(#268,#269),#150,.F.);
#190=ADVANCED_FACE('',(#270,#271),#151,.T.);
#191=ADVANCED_FACE('',(#272,#273),#152,.T.);
#192=(
BOUNDED_SURFACE()
B_SPLINE_SURFACE(3,3,((#755,#756,#757,#758,#759,#760,#761),(#762,#763,#764,
#765,#766,#767,#768),(#769,#770,#771,#772,#773,#774,#775),(#776,#777,#778,
#779,#780,#781,#782)),.UNSPECIFIED.,.F.,.T.,.F.)
B_SPLINE_SURFACE_WITH_KNOTS((4,4),(1,3,3,3,1),(0.,1.),(-0.5,0.,0.5,1.,1.5),
 .UNSPECIFIED.)
GEOMETRIC_REPRESENTATION_ITEM()
RATIONAL_B_SPLINE_SURFACE(((1.,0.333333333333333,0.333333333333333,1.,0.333333333333333,
0.333333333333333,1.),(0.999989376458618,0.333329792152873,0.333329792152873,
0.999989376458618,0.333329792152873,0.333329792152873,0.999989376458618),
(0.999989376458618,0.333329792152873,0.333329792152873,0.999989376458618,
0.333329792152873,0.333329792152873,0.999989376458618),(1.,0.333333333333333,
0.333333333333333,1.,0.333333333333333,0.333333333333333,1.)))
REPRESENTATION_ITEM('')
SURFACE()
);
#193=(
BOUNDED_SURFACE()
B_SPLINE_SURFACE(3,3,((#818,#819,#820,#821,#822,#823,#824),(#825,#826,#827,
#828,#829,#830,#831),(#832,#833,#834,#835,#836,#837,#838),(#839,#840,#841,
#842,#843,#844,#845)),.UNSPECIFIED.,.F.,.T.,.F.)
B_SPLINE_SURFACE_WITH_KNOTS((4,4),(1,3,3,3,1),(0.,1.),(-0.5,0.,0.5,1.,1.5),
 .UNSPECIFIED.)
GEOMETRIC_REPRESENTATION_ITEM()
RATIONAL_B_SPLINE_SURFACE(((1.,0.333333333333333,0.333333333333333,1.,0.333333333333333,
0.333333333333333,1.),(0.99568587115792,0.331895290385973,0.331895290385973,
0.99568587115792,0.331895290385973,0.331895290385973,0.99568587115792),
(0.99568587115792,0.331895290385973,0.331895290385973,0.99568587115792,
0.331895290385973,0.331895290385973,0.99568587115792),(1.,0.333333333333333,
0.333333333333333,1.,0.333333333333333,0.333333333333333,1.)))
REPRESENTATION_ITEM('')
SURFACE()
);
#194=(
BOUNDED_SURFACE()
B_SPLINE_SURFACE(3,3,((#850,#851,#852,#853,#854,#855,#856),(#857,#858,#859,
#860,#861,#862,#863),(#864,#865,#866,#867,#868,#869,#870),(#871,#872,#873,
#874,#875,#876,#877)),.UNSPECIFIED.,.F.,.T.,.F.)
B_SPLINE_SURFACE_WITH_KNOTS((4,4),(1,3,3,3,1),(0.,1.),(-0.5,0.,0.5,1.,1.5),
 .UNSPECIFIED.)
GEOMETRIC_REPRESENTATION_ITEM()
RATIONAL_B_SPLINE_SURFACE(((1.,0.333333333333333,0.333333333333333,1.,0.333333333333333,
0.333333333333333,1.),(0.999242380788212,0.333080793596071,0.333080793596071,
0.999242380788212,0.333080793596071,0.333080793596071,0.999242380788212),
(0.999242380788212,0.333080793596071,0.333080793596071,0.999242380788212,
0.333080793596071,0.333080793596071,0.999242380788212),(1.,0.333333333333333,
0.333333333333333,1.,0.333333333333333,0.333333333333333,1.)))
REPRESENTATION_ITEM('')
SURFACE()
);
#195=(
BOUNDED_SURFACE()
B_SPLINE_SURFACE(3,3,((#882,#883,#884,#885,#886,#887,#888),(#889,#890,#891,
#892,#893,#894,#895),(#896,#897,#898,#899,#900,#901,#902),(#903,#904,#905,
#906,#907,#908,#909)),.UNSPECIFIED.,.F.,.T.,.F.)
B_SPLINE_SURFACE_WITH_KNOTS((4,4),(1,3,3,3,1),(0.,1.),(-0.5,0.,0.5,1.,1.5),
 .UNSPECIFIED.)
GEOMETRIC_REPRESENTATION_ITEM()
RATIONAL_B_SPLINE_SURFACE(((1.,0.333333333333333,0.333333333333333,1.,0.333333333333333,
0.333333333333333,1.),(0.998125226931807,0.332708408977269,0.332708408977269,
0.998125226931807,0.332708408977269,0.332708408977269,0.998125226931807),
(0.998125226931807,0.332708408977269,0.332708408977269,0.998125226931807,
0.332708408977269,0.332708408977269,0.998125226931807),(1.,0.333333333333333,
0.333333333333333,1.,0.333333333333333,0.333333333333333,1.)))
REPRESENTATION_ITEM('')
SURFACE()
);
#196=(
BOUNDED_SURFACE()
B_SPLINE_SURFACE(3,3,((#914,#915,#916,#917,#918,#919,#920),(#921,#922,#923,
#924,#925,#926,#927),(#928,#929,#930,#931,#932,#933,#934),(#935,#936,#937,
#938,#939,#940,#941)),.UNSPECIFIED.,.F.,.T.,.F.)
B_SPLINE_SURFACE_WITH_KNOTS((4,4),(1,3,3,3,1),(0.,1.),(-0.5,0.,0.5,1.,1.5),
 .UNSPECIFIED.)
GEOMETRIC_REPRESENTATION_ITEM()
RATIONAL_B_SPLINE_SURFACE(((1.,0.333333333333333,0.333333333333333,1.,0.333333333333333,
0.333333333333333,1.),(0.931319313369392,0.310439771123131,0.310439771123131,
0.931319313369392,0.310439771123131,0.310439771123131,0.931319313369392),
(0.931319313369392,0.310439771123131,0.310439771123131,0.931319313369392,
0.310439771123131,0.310439771123131,0.931319313369392),(1.,0.333333333333333,
0.333333333333333,1.,0.333333333333333,0.333333333333333,1.)))
REPRESENTATION_ITEM('')
SURFACE()
);
#197=(
BOUNDED_SURFACE()
B_SPLINE_SURFACE(3,3,((#946,#947,#948,#949,#950,#951,#952),(#953,#954,#955,
#956,#957,#958,#959),(#960,#961,#962,#963,#964,#965,#966),(#967,#968,#969,
#970,#971,#972,#973)),.UNSPECIFIED.,.F.,.T.,.F.)
B_SPLINE_SURFACE_WITH_KNOTS((4,4),(1,3,3,3,1),(0.,1.),(-0.5,0.,0.5,1.,1.5),
 .UNSPECIFIED.)
GEOMETRIC_REPRESENTATION_ITEM()
RATIONAL_B_SPLINE_SURFACE(((1.,0.333333333333333,0.333333333333333,1.,0.333333333333333,
0.333333333333333,1.),(0.996494513709844,0.332164837903281,0.332164837903281,
0.996494513709844,0.332164837903281,0.332164837903281,0.996494513709844),
(0.996494513709844,0.332164837903281,0.332164837903281,0.996494513709844,
0.332164837903281,0.332164837903281,0.996494513709844),(1.,0.333333333333333,
0.333333333333333,1.,0.333333333333333,0.333333333333333,1.)))
REPRESENTATION_ITEM('')
SURFACE()
);
#198=(
BOUNDED_SURFACE()
B_SPLINE_SURFACE(3,3,((#977,#978,#979,#980,#981,#982,#983),(#984,#985,#986,
#987,#988,#989,#990),(#991,#992,#993,#994,#995,#996,#997),(#998,#999,#1000,
#1001,#1002,#1003,#1004)),.UNSPECIFIED.,.F.,.T.,.F.)
B_SPLINE_SURFACE_WITH_KNOTS((4,4),(1,3,3,3,1),(0.,1.),(-0.5,0.,0.5,1.,1.5),
 .UNSPECIFIED.)
GEOMETRIC_REPRESENTATION_ITEM()
RATIONAL_B_SPLINE_SURFACE(((1.,0.333333333333333,0.333333333333333,1.,0.333333333333333,
0.333333333333333,1.),(0.995849452213467,0.331949817404489,0.331949817404489,
0.995849452213467,0.331949817404489,0.331949817404489,0.995849452213467),
(0.995849452213467,0.331949817404489,0.331949817404489,0.995849452213467,
0.331949817404489,0.331949817404489,0.995849452213467),(1.,0.333333333333333,
0.333333333333333,1.,0.333333333333333,0.333333333333333,1.)))
REPRESENTATION_ITEM('')
SURFACE()
);
#199=(
BOUNDED_SURFACE()
B_SPLINE_SURFACE(3,3,((#1007,#1008,#1009,#1010,#1011,#1012,#1013),(#1014,
#1015,#1016,#1017,#1018,#1019,#1020),(#1021,#1022,#1023,#1024,#1025,#1026,
#1027),(#1028,#1029,#1030,#1031,#1032,#1033,#1034)),.UNSPECIFIED.,.F.,.T.,
 .F.)
B_SPLINE_SURFACE_WITH_KNOTS((4,4),(1,3,3,3,1),(0.,1.),(-0.5,0.,0.5,1.,1.5),
 .UNSPECIFIED.)
GEOMETRIC_REPRESENTATION_ITEM()
RATIONAL_B_SPLINE_SURFACE(((1.,0.333333333333333,0.333333333333333,1.,0.333333333333333,
0.333333333333333,1.),(0.997357707345044,0.332452569115015,0.332452569115015,
0.997357707345044,0.332452569115015,0.332452569115015,0.997357707345044),
(0.997357707345044,0.332452569115015,0.332452569115015,0.997357707345044,
0.332452569115015,0.332452569115015,0.997357707345044),(1.,0.333333333333333,
0.333333333333333,1.,0.333333333333333,0.333333333333333,1.)))
REPRESENTATION_ITEM('')
SURFACE()
);
#200=FACE_BOUND('',#274,.T.);
#201=FACE_BOUND('',#275,.T.);
#202=FACE_BOUND('',#276,.T.);
#203=FACE_BOUND('',#277,.T.);
#204=FACE_BOUND('',#278,.T.);
#205=FACE_BOUND('',#279,.T.);
#206=FACE_BOUND('',#280,.T.);
#207=FACE_BOUND('',#281,.T.);
#208=FACE_BOUND('',#282,.T.);
#209=FACE_BOUND('',#283,.T.);
#210=FACE_BOUND('',#284,.T.);
#211=FACE_BOUND('',#285,.T.);
#212=FACE_BOUND('',#286,.T.);
#213=FACE_BOUND('',#287,.T.);
#214=FACE_BOUND('',#288,.T.);
#215=FACE_BOUND('',#289,.T.);
#216=FACE_BOUND('',#290,.T.);
#217=FACE_BOUND('',#291,.T.);
#218=FACE_BOUND('',#292,.T.);
#219=FACE_BOUND('',#293,.T.);
#220=FACE_BOUND('',#294,.T.);
#221=FACE_BOUND('',#295,.T.);
#222=FACE_BOUND('',#296,.T.);
#223=FACE_BOUND('',#297,.T.);
#224=FACE_BOUND('',#298,.T.);
#225=FACE_BOUND('',#299,.T.);
#226=FACE_BOUND('',#300,.T.);
#227=FACE_BOUND('',#301,.T.);
#228=FACE_BOUND('',#302,.T.);
#229=FACE_BOUND('',#303,.T.);
#230=FACE_BOUND('',#304,.T.);
#231=FACE_BOUND('',#305,.T.);
#232=FACE_BOUND('',#306,.T.);
#233=FACE_BOUND('',#307,.T.);
#234=FACE_BOUND('',#308,.T.);
#235=FACE_BOUND('',#309,.T.);
#236=FACE_BOUND('',#310,.T.);
#237=FACE_BOUND('',#311,.T.);
#238=FACE_BOUND('',#312,.T.);
#239=FACE_BOUND('',#313,.T.);
#240=FACE_BOUND('',#314,.T.);
#241=FACE_BOUND('',#315,.T.);
#242=FACE_BOUND('',#316,.T.);
#243=FACE_BOUND('',#317,.T.);
#244=FACE_BOUND('',#320,.T.);
#245=FACE_BOUND('',#321,.T.);
#246=FACE_BOUND('',#322,.T.);
#247=FACE_BOUND('',#323,.T.);
#248=FACE_BOUND('',#324,.T.);
#249=FACE_BOUND('',#325,.T.);
#250=FACE_BOUND('',#326,.T.);
#251=FACE_BOUND('',#327,.T.);
#252=FACE_BOUND('',#328,.T.);
#253=FACE_BOUND('',#329,.T.);
#254=FACE_BOUND('',#330,.T.);
#255=FACE_BOUND('',#331,.T.);
#256=FACE_BOUND('',#332,.T.);
#257=FACE_BOUND('',#333,.T.);
#258=FACE_BOUND('',#334,.T.);
#259=FACE_BOUND('',#335,.T.);
#260=FACE_BOUND('',#336,.T.);
#261=FACE_BOUND('',#337,.T.);
#262=FACE_BOUND('',#338,.T.);
#263=FACE_BOUND('',#339,.T.);
#264=FACE_BOUND('',#340,.T.);
#265=FACE_BOUND('',#341,.T.);
#266=FACE_BOUND('',#342,.T.);
#267=FACE_BOUND('',#343,.T.);
#268=FACE_BOUND('',#344,.T.);
#269=FACE_BOUND('',#345,.T.);
#270=FACE_BOUND('',#346,.T.);
#271=FACE_BOUND('',#347,.T.);
#272=FACE_BOUND('',#348,.T.);
#273=FACE_BOUND('',#349,.T.);
#274=EDGE_LOOP('',(#350));
#275=EDGE_LOOP('',(#351));
#276=EDGE_LOOP('',(#352));
#277=EDGE_LOOP('',(#353));
#278=EDGE_LOOP('',(#354));
#279=EDGE_LOOP('',(#355));
#280=EDGE_LOOP('',(#356));
#281=EDGE_LOOP('',(#357));
#282=EDGE_LOOP('',(#358));
#283=EDGE_LOOP('',(#359));
#284=EDGE_LOOP('',(#360));
#285=EDGE_LOOP('',(#361));
#286=EDGE_LOOP('',(#362));
#287=EDGE_LOOP('',(#363));
#288=EDGE_LOOP('',(#364));
#289=EDGE_LOOP('',(#365));
#290=EDGE_LOOP('',(#366));
#291=EDGE_LOOP('',(#367));
#292=EDGE_LOOP('',(#368));
#293=EDGE_LOOP('',(#369));
#294=EDGE_LOOP('',(#370));
#295=EDGE_LOOP('',(#371));
#296=EDGE_LOOP('',(#372));
#297=EDGE_LOOP('',(#373));
#298=EDGE_LOOP('',(#374));
#299=EDGE_LOOP('',(#375));
#300=EDGE_LOOP('',(#376));
#301=EDGE_LOOP('',(#377));
#302=EDGE_LOOP('',(#378));
#303=EDGE_LOOP('',(#379));
#304=EDGE_LOOP('',(#380));
#305=EDGE_LOOP('',(#381));
#306=EDGE_LOOP('',(#382));
#307=EDGE_LOOP('',(#383));
#308=EDGE_LOOP('',(#384));
#309=EDGE_LOOP('',(#385));
#310=EDGE_LOOP('',(#386));
#311=EDGE_LOOP('',(#387));
#312=EDGE_LOOP('',(#388));
#313=EDGE_LOOP('',(#389));
#314=EDGE_LOOP('',(#390));
#315=EDGE_LOOP('',(#391));
#316=EDGE_LOOP('',(#392));
#317=EDGE_LOOP('',(#393));
#318=EDGE_LOOP('',(#394));
#319=EDGE_LOOP('',(#395));
#320=EDGE_LOOP('',(#396));
#321=EDGE_LOOP('',(#397));
#322=EDGE_LOOP('',(#398));
#323=EDGE_LOOP('',(#399));
#324=EDGE_LOOP('',(#400));
#325=EDGE_LOOP('',(#401));
#326=EDGE_LOOP('',(#402));
#327=EDGE_LOOP('',(#403));
#328=EDGE_LOOP('',(#404));
#329=EDGE_LOOP('',(#405));
#330=EDGE_LOOP('',(#406));
#331=EDGE_LOOP('',(#407));
#332=EDGE_LOOP('',(#408));
#333=EDGE_LOOP('',(#409));
#334=EDGE_LOOP('',(#410));
#335=EDGE_LOOP('',(#411));
#336=EDGE_LOOP('',(#412));
#337=EDGE_LOOP('',(#413));
#338=EDGE_LOOP('',(#414));
#339=EDGE_LOOP('',(#415));
#340=EDGE_LOOP('',(#416));
#341=EDGE_LOOP('',(#417));
#342=EDGE_LOOP('',(#418));
#343=EDGE_LOOP('',(#419));
#344=EDGE_LOOP('',(#420));
#345=EDGE_LOOP('',(#421));
#346=EDGE_LOOP('',(#422));
#347=EDGE_LOOP('',(#423));
#348=EDGE_LOOP('',(#424));
#349=EDGE_LOOP('',(#425));
#350=ORIENTED_EDGE('',*,*,#464,.T.);
#351=ORIENTED_EDGE('',*,*,#465,.T.);
#352=ORIENTED_EDGE('',*,*,#466,.F.);
#353=ORIENTED_EDGE('',*,*,#467,.F.);
#354=ORIENTED_EDGE('',*,*,#468,.F.);
#355=ORIENTED_EDGE('',*,*,#469,.F.);
#356=ORIENTED_EDGE('',*,*,#470,.F.);
#357=ORIENTED_EDGE('',*,*,#471,.F.);
#358=ORIENTED_EDGE('',*,*,#472,.F.);
#359=ORIENTED_EDGE('',*,*,#473,.F.);
#360=ORIENTED_EDGE('',*,*,#474,.T.);
#361=ORIENTED_EDGE('',*,*,#464,.F.);
#362=ORIENTED_EDGE('',*,*,#475,.F.);
#363=ORIENTED_EDGE('',*,*,#471,.T.);
#364=ORIENTED_EDGE('',*,*,#476,.T.);
#365=ORIENTED_EDGE('',*,*,#477,.F.);
#366=ORIENTED_EDGE('',*,*,#478,.F.);
#367=ORIENTED_EDGE('',*,*,#479,.T.);
#368=ORIENTED_EDGE('',*,*,#480,.F.);
#369=ORIENTED_EDGE('',*,*,#481,.T.);
#370=ORIENTED_EDGE('',*,*,#482,.F.);
#371=ORIENTED_EDGE('',*,*,#483,.T.);
#372=ORIENTED_EDGE('',*,*,#484,.T.);
#373=ORIENTED_EDGE('',*,*,#485,.T.);
#374=ORIENTED_EDGE('',*,*,#486,.F.);
#375=ORIENTED_EDGE('',*,*,#487,.T.);
#376=ORIENTED_EDGE('',*,*,#488,.F.);
#377=ORIENTED_EDGE('',*,*,#482,.T.);
#378=ORIENTED_EDGE('',*,*,#477,.T.);
#379=ORIENTED_EDGE('',*,*,#484,.F.);
#380=ORIENTED_EDGE('',*,*,#489,.T.);
#381=ORIENTED_EDGE('',*,*,#478,.T.);
#382=ORIENTED_EDGE('',*,*,#483,.F.);
#383=ORIENTED_EDGE('',*,*,#490,.F.);
#384=ORIENTED_EDGE('',*,*,#480,.T.);
#385=ORIENTED_EDGE('',*,*,#491,.T.);
#386=ORIENTED_EDGE('',*,*,#491,.F.);
#387=ORIENTED_EDGE('',*,*,#479,.F.);
#388=ORIENTED_EDGE('',*,*,#492,.F.);
#389=ORIENTED_EDGE('',*,*,#481,.F.);
#390=ORIENTED_EDGE('',*,*,#486,.T.);
#391=ORIENTED_EDGE('',*,*,#492,.T.);
#392=ORIENTED_EDGE('',*,*,#488,.T.);
#393=ORIENTED_EDGE('',*,*,#487,.F.);
#394=ORIENTED_EDGE('',*,*,#490,.T.);
#395=ORIENTED_EDGE('',*,*,#485,.F.);
#396=ORIENTED_EDGE('',*,*,#476,.F.);
#397=ORIENTED_EDGE('',*,*,#473,.T.);
#398=ORIENTED_EDGE('',*,*,#475,.T.);
#399=ORIENTED_EDGE('',*,*,#493,.T.);
#400=ORIENTED_EDGE('',*,*,#494,.T.);
#401=ORIENTED_EDGE('',*,*,#495,.T.);
#402=ORIENTED_EDGE('',*,*,#496,.T.);
#403=ORIENTED_EDGE('',*,*,#497,.T.);
#404=ORIENTED_EDGE('',*,*,#498,.T.);
#405=ORIENTED_EDGE('',*,*,#499,.T.);
#406=ORIENTED_EDGE('',*,*,#500,.T.);
#407=ORIENTED_EDGE('',*,*,#468,.T.);
#408=ORIENTED_EDGE('',*,*,#469,.T.);
#409=ORIENTED_EDGE('',*,*,#472,.T.);
#410=ORIENTED_EDGE('',*,*,#470,.T.);
#411=ORIENTED_EDGE('',*,*,#467,.T.);
#412=ORIENTED_EDGE('',*,*,#501,.T.);
#413=ORIENTED_EDGE('',*,*,#466,.T.);
#414=ORIENTED_EDGE('',*,*,#474,.F.);
#415=ORIENTED_EDGE('',*,*,#493,.F.);
#416=ORIENTED_EDGE('',*,*,#501,.F.);
#417=ORIENTED_EDGE('',*,*,#495,.F.);
#418=ORIENTED_EDGE('',*,*,#500,.F.);
#419=ORIENTED_EDGE('',*,*,#499,.F.);
#420=ORIENTED_EDGE('',*,*,#465,.F.);
#421=ORIENTED_EDGE('',*,*,#489,.F.);
#422=ORIENTED_EDGE('',*,*,#496,.F.);
#423=ORIENTED_EDGE('',*,*,#494,.F.);
#424=ORIENTED_EDGE('',*,*,#498,.F.);
#425=ORIENTED_EDGE('',*,*,#497,.F.);
#426=VERTEX_POINT('',#752);
#427=VERTEX_POINT('',#754);
#428=VERTEX_POINT('',#784);
#429=VERTEX_POINT('',#786);
#430=VERTEX_POINT('',#789);
#431=VERTEX_POINT('',#791);
#432=VERTEX_POINT('',#794);
#433=VERTEX_POINT('',#796);
#434=VERTEX_POINT('',#799);
#435=VERTEX_POINT('',#801);
#436=VERTEX_POINT('',#804);
#437=VERTEX_POINT('',#807);
#438=VERTEX_POINT('',#810);
#439=VERTEX_POINT('',#812);
#440=VERTEX_POINT('',#815);
#441=VERTEX_POINT('',#817);
#442=VERTEX_POINT('',#847);
#443=VERTEX_POINT('',#849);
#444=VERTEX_POINT('',#879);
#445=VERTEX_POINT('',#881);
#446=VERTEX_POINT('',#911);
#447=VERTEX_POINT('',#913);
#448=VERTEX_POINT('',#943);
#449=VERTEX_POINT('',#945);
#450=VERTEX_POINT('',#975);
#451=VERTEX_POINT('',#1006);
#452=VERTEX_POINT('',#1036);
#453=VERTEX_POINT('',#1039);
#454=VERTEX_POINT('',#1043);
#455=VERTEX_POINT('',#1051);
#456=VERTEX_POINT('',#1054);
#457=VERTEX_POINT('',#1056);
#458=VERTEX_POINT('',#1059);
#459=VERTEX_POINT('',#1061);
#460=VERTEX_POINT('',#1064);
#461=VERTEX_POINT('',#1066);
#462=VERTEX_POINT('',#1069);
#463=VERTEX_POINT('',#1074);
#464=EDGE_CURVE('',#426,#426,#502,.T.);
#465=EDGE_CURVE('',#427,#427,#503,.T.);
#466=EDGE_CURVE('',#428,#428,#504,.T.);
#467=EDGE_CURVE('',#429,#429,#505,.T.);
#468=EDGE_CURVE('',#430,#430,#506,.T.);
#469=EDGE_CURVE('',#431,#431,#507,.T.);
#470=EDGE_CURVE('',#432,#432,#508,.T.);
#471=EDGE_CURVE('',#433,#433,#509,.T.);
#472=EDGE_CURVE('',#434,#434,#510,.T.);
#473=EDGE_CURVE('',#435,#435,#511,.T.);
#474=EDGE_CURVE('',#436,#436,#512,.T.);
#475=EDGE_CURVE('',#437,#437,#513,.T.);
#476=EDGE_CURVE('',#438,#438,#514,.T.);
#477=EDGE_CURVE('',#439,#439,#515,.T.);
#478=EDGE_CURVE('',#440,#440,#516,.T.);
#479=EDGE_CURVE('',#441,#441,#517,.T.);
#480=EDGE_CURVE('',#442,#442,#518,.T.);
#481=EDGE_CURVE('',#443,#443,#519,.T.);
#482=EDGE_CURVE('',#444,#444,#520,.T.);
#483=EDGE_CURVE('',#445,#445,#521,.T.);
#484=EDGE_CURVE('',#446,#446,#522,.T.);
#485=EDGE_CURVE('',#447,#447,#523,.T.);
#486=EDGE_CURVE('',#448,#448,#524,.T.);
#487=EDGE_CURVE('',#449,#449,#525,.T.);
#488=EDGE_CURVE('',#450,#450,#526,.T.);
#489=EDGE_CURVE('',#451,#451,#527,.T.);
#490=EDGE_CURVE('',#452,#452,#528,.T.);
#491=EDGE_CURVE('',#453,#453,#529,.T.);
#492=EDGE_CURVE('',#454,#454,#530,.T.);
#493=EDGE_CURVE('',#455,#455,#531,.T.);
#494=EDGE_CURVE('',#456,#456,#532,.T.);
#495=EDGE_CURVE('',#457,#457,#533,.T.);
#496=EDGE_CURVE('',#458,#458,#534,.T.);
#497=EDGE_CURVE('',#459,#459,#535,.T.);
#498=EDGE_CURVE('',#460,#460,#536,.T.);
#499=EDGE_CURVE('',#461,#461,#537,.T.);
#500=EDGE_CURVE('',#462,#462,#538,.T.);
#501=EDGE_CURVE('',#463,#463,#539,.T.);
#502=CIRCLE('',#541,17.45858533762);
#503=CIRCLE('',#542,17.4123415616224);
#504=CIRCLE('',#543,17.0147014604425);
#505=CIRCLE('',#544,17.2147014604425);
#506=CIRCLE('',#546,18.4147014604425);
#507=CIRCLE('',#547,18.2147014604425);
#508=CIRCLE('',#549,17.2147014604425);
#509=CIRCLE('',#550,16.8147014604425);
#510=CIRCLE('',#552,18.2147014604425);
#511=CIRCLE('',#553,18.6147014604425);
#512=CIRCLE('',#555,16.6372071803355);
#513=CIRCLE('',#557,15.8147014604425);
#514=CIRCLE('',#559,19.6147014604425);
#515=CIRCLE('',#560,19.5);
#516=CIRCLE('',#562,15.);
#517=CIRCLE('',#563,13.0982202000044);
#518=CIRCLE('',#564,12.4076702234397);
#519=CIRCLE('',#565,11.1777620827283);
#520=CIRCLE('',#566,5.04984193569704);
#521=CIRCLE('',#567,2.);
#522=CIRCLE('',#568,17.);
#523=CIRCLE('',#569,2.);
#524=CIRCLE('',#570,9.97612712302337);
#525=CIRCLE('',#571,6.50096024900558);
#526=CIRCLE('',#572,5.0084949118349);
#527=CIRCLE('',#574,17.3017786584456);
#528=CIRCLE('',#575,1.99999999999999);
#529=CIRCLE('',#577,13.0064280515746);
#530=CIRCLE('',#580,10.8390950420164);
#531=CIRCLE('',#587,15.8147014604425);
#532=CIRCLE('',#589,16.8147014604425);
#533=CIRCLE('',#590,16.8147014604425);
#534=CIRCLE('',#592,17.2147014604425);
#535=CIRCLE('',#593,18.2147014604425);
#536=CIRCLE('',#595,18.6147014604425);
#537=CIRCLE('',#596,18.6147014604425);
#538=CIRCLE('',#598,18.5147014604425);
#539=CIRCLE('',#602,16.9147014604425);
#540=AXIS2_PLACEMENT_3D('',#750,#610,#611);
#541=AXIS2_PLACEMENT_3D('',#751,#612,#613);
#542=AXIS2_PLACEMENT_3D('',#753,#614,#615);
#543=AXIS2_PLACEMENT_3D('',#783,#616,#617);
#544=AXIS2_PLACEMENT_3D('',#785,#618,#619);
#545=AXIS2_PLACEMENT_3D('',#787,#620,#621);
#546=AXIS2_PLACEMENT_3D('',#788,#622,#623);
#547=AXIS2_PLACEMENT_3D('',#790,#624,#625);
#548=AXIS2_PLACEMENT_3D('',#792,#626,#627);
#549=AXIS2_PLACEMENT_3D('',#793,#628,#629);
#550=AXIS2_PLACEMENT_3D('',#795,#630,#631);
#551=AXIS2_PLACEMENT_3D('',#797,#632,#633);
#552=AXIS2_PLACEMENT_3D('',#798,#634,#635);
#553=AXIS2_PLACEMENT_3D('',#800,#636,#637);
#554=AXIS2_PLACEMENT_3D('',#802,#638,#639);
#555=AXIS2_PLACEMENT_3D('',#803,#640,#641);
#556=AXIS2_PLACEMENT_3D('',#805,#642,#643);
#557=AXIS2_PLACEMENT_3D('',#806,#644,#645);
#558=AXIS2_PLACEMENT_3D('',#808,#646,#647);
#559=AXIS2_PLACEMENT_3D('',#809,#648,#649);
#560=AXIS2_PLACEMENT_3D('',#811,#650,#651);
#561=AXIS2_PLACEMENT_3D('',#813,#652,#653);
#562=AXIS2_PLACEMENT_3D('',#814,#654,#655);
#563=AXIS2_PLACEMENT_3D('',#816,#656,#657);
#564=AXIS2_PLACEMENT_3D('',#846,#658,#659);
#565=AXIS2_PLACEMENT_3D('',#848,#660,#661);
#566=AXIS2_PLACEMENT_3D('',#878,#662,#663);
#567=AXIS2_PLACEMENT_3D('',#880,#664,#665);
#568=AXIS2_PLACEMENT_3D('',#910,#666,#667);
#569=AXIS2_PLACEMENT_3D('',#912,#668,#669);
#570=AXIS2_PLACEMENT_3D('',#942,#670,#671);
#571=AXIS2_PLACEMENT_3D('',#944,#672,#673);
#572=AXIS2_PLACEMENT_3D('',#974,#674,#675);
#573=AXIS2_PLACEMENT_3D('',#976,#676,#677);
#574=AXIS2_PLACEMENT_3D('',#1005,#678,#679);
#575=AXIS2_PLACEMENT_3D('',#1035,#680,#681);
#576=AXIS2_PLACEMENT_3D('',#1037,#682,#683);
#577=AXIS2_PLACEMENT_3D('',#1038,#684,#685);
#578=AXIS2_PLACEMENT_3D('',#1040,#686,#687);
#579=AXIS2_PLACEMENT_3D('',#1041,#688,#689);
#580=AXIS2_PLACEMENT_3D('',#1042,#690,#691);
#581=AXIS2_PLACEMENT_3D('',#1044,#692,#693);
#582=AXIS2_PLACEMENT_3D('',#1045,#694,#695);
#583=AXIS2_PLACEMENT_3D('',#1046,#696,#697);
#584=AXIS2_PLACEMENT_3D('',#1047,#698,#699);
#585=AXIS2_PLACEMENT_3D('',#1048,#700,#701);
#586=AXIS2_PLACEMENT_3D('',#1049,#702,#703);
#587=AXIS2_PLACEMENT_3D('',#1050,#704,#705);
#588=AXIS2_PLACEMENT_3D('',#1052,#706,#707);
#589=AXIS2_PLACEMENT_3D('',#1053,#708,#709);
#590=AXIS2_PLACEMENT_3D('',#1055,#710,#711);
#591=AXIS2_PLACEMENT_3D('',#1057,#712,#713);
#592=AXIS2_PLACEMENT_3D('',#1058,#714,#715);
#593=AXIS2_PLACEMENT_3D('',#1060,#716,#717);
#594=AXIS2_PLACEMENT_3D('',#1062,#718,#719);
#595=AXIS2_PLACEMENT_3D('',#1063,#720,#721);
#596=AXIS2_PLACEMENT_3D('',#1065,#722,#723);
#597=AXIS2_PLACEMENT_3D('',#1067,#724,#725);
#598=AXIS2_PLACEMENT_3D('',#1068,#726,#727);
#599=AXIS2_PLACEMENT_3D('',#1070,#728,#729);
#600=AXIS2_PLACEMENT_3D('',#1071,#730,#731);
#601=AXIS2_PLACEMENT_3D('',#1072,#732,#733);
#602=AXIS2_PLACEMENT_3D('',#1073,#734,#735);
#603=AXIS2_PLACEMENT_3D('',#1075,#736,#737);
#604=AXIS2_PLACEMENT_3D('',#1076,#738,#739);
#605=AXIS2_PLACEMENT_3D('',#1077,#740,#741);
#606=AXIS2_PLACEMENT_3D('',#1078,#742,#743);
#607=AXIS2_PLACEMENT_3D('',#1079,#744,#745);
#608=AXIS2_PLACEMENT_3D('',#1080,#746,#747);
#609=AXIS2_PLACEMENT_3D('',#1081,#748,#749);
#610=DIRECTION('',(0.,0.,1.));
#611=DIRECTION('',(1.,0.,0.));
#612=DIRECTION('',(0.,1.,0.));
#613=DIRECTION('',(4.67002347522531E-15,0.,-1.));
#614=DIRECTION('',(0.,-1.,0.));
#615=DIRECTION('',(0.,0.,1.));
#616=DIRECTION('',(0.,-1.,0.));
#617=DIRECTION('',(0.,0.,-1.));
#618=DIRECTION('',(0.,1.,0.));
#619=DIRECTION('',(0.,0.,-1.));
#620=DIRECTION('',(0.,-1.,0.));
#621=DIRECTION('',(-4.70883102184462E-15,0.,1.));
#622=DIRECTION('',(0.,1.,0.));
#623=DIRECTION('',(0.,0.,-1.));
#624=DIRECTION('',(0.,-1.,0.));
#625=DIRECTION('',(0.,0.,-1.));
#626=DIRECTION('',(0.,-1.,0.));
#627=DIRECTION('',(-4.68100096183727E-15,0.,1.));
#628=DIRECTION('',(0.,-1.,0.));
#629=DIRECTION('',(4.68579962413406E-15,0.,-1.));
#630=DIRECTION('',(0.,1.,0.));
#631=DIRECTION('',(4.69410166708173E-15,0.,-1.));
#632=DIRECTION('',(0.,1.,0.));
#633=DIRECTION('',(4.68579962413406E-15,0.,-1.));
#634=DIRECTION('',(0.,1.,0.));
#635=DIRECTION('',(4.66663977487988E-15,0.,-1.));
#636=DIRECTION('',(0.,-1.,0.));
#637=DIRECTION('',(4.70614775762008E-15,0.,-1.));
#638=DIRECTION('',(0.,1.,0.));
#639=DIRECTION('',(4.69837821007401E-15,0.,-1.));
#640=DIRECTION('',(0.,1.,0.));
#641=DIRECTION('',(-4.69204690263297E-15,0.,1.));
#642=DIRECTION('',(0.,-1.,0.));
#643=DIRECTION('',(-4.66972188127098E-15,0.,1.));
#644=DIRECTION('',(0.,1.,0.));
#645=DIRECTION('',(4.66184884447077E-15,0.,-1.));
#646=DIRECTION('',(0.,1.,0.));
#647=DIRECTION('',(4.68548810861336E-15,0.,-1.));
#648=DIRECTION('',(0.,-1.,0.));
#649=DIRECTION('',(4.68731805131929E-15,0.,-1.));
#650=DIRECTION('',(0.,-1.,0.));
#651=DIRECTION('',(-4.6704093583991E-15,0.,1.));
#652=DIRECTION('',(0.,1.,0.));
#653=DIRECTION('',(4.68444886457486E-15,-1.80294939117658E-15,-1.));
#654=DIRECTION('',(0.,-1.,0.));
#655=DIRECTION('',(-4.68375338513738E-15,0.,1.));
#656=DIRECTION('',(-3.88578058618805E-16,-1.,-5.31020079391842E-30));
#657=DIRECTION('',(1.,-3.97318898939313E-16,4.6858214583301E-15));
#658=DIRECTION('',(0.,-1.,0.));
#659=DIRECTION('',(-4.68365417509564E-15,0.,1.));
#660=DIRECTION('',(-3.88578058618805E-16,-1.,-5.31020079391842E-30));
#661=DIRECTION('',(-1.,3.87985417639476E-16,-4.6858214583301E-15));
#662=DIRECTION('',(0.,-1.,0.));
#663=DIRECTION('',(-4.63752474312928E-15,0.,1.));
#664=DIRECTION('',(0.,-1.,0.));
#665=DIRECTION('',(4.77048955893622E-15,0.,-1.));
#666=DIRECTION('',(0.,-1.,0.));
#667=DIRECTION('',(-4.69395764087842E-15,0.,1.));
#668=DIRECTION('',(0.,1.,0.));
#669=DIRECTION('',(4.77048955893622E-15,0.,-1.));
#670=DIRECTION('',(0.,-1.,0.));
#671=DIRECTION('',(-4.69496160922809E-15,0.,1.));
#672=DIRECTION('',(0.,-1.,0.));
#673=DIRECTION('',(-4.66971949785999E-15,0.,1.));
#674=DIRECTION('',(-3.88578058618805E-16,-1.,-5.31020079391842E-30));
#675=DIRECTION('',(1.,-3.4635624204743E-16,4.6858214583301E-15));
#676=DIRECTION('',(0.,-1.,0.));
#677=DIRECTION('',(-4.68548810861336E-15,0.,1.));
#678=DIRECTION('',(0.,1.,0.));
#679=DIRECTION('',(0.,0.,-1.));
#680=DIRECTION('',(0.,1.,0.));
#681=DIRECTION('',(1.,0.,4.62458911837273E-15));
#682=DIRECTION('',(0.,1.,0.));
#683=DIRECTION('',(4.77048955893622E-15,0.,-1.));
#684=DIRECTION('',(3.88578058618805E-16,1.,5.31020079391842E-30));
#685=DIRECTION('',(1.,-4.00122955149118E-16,4.6858214583301E-15));
#686=DIRECTION('',(3.88578058618805E-16,1.,5.31020079391842E-30));
#687=DIRECTION('',(-1.,4.2063425409379E-16,-4.6858214583301E-15));
#688=DIRECTION('',(3.88578058618805E-16,1.,5.31020079391842E-30));
#689=DIRECTION('',(-1.,2.1833990926578E-16,-4.6858214583301E-15));
#690=DIRECTION('',(3.88578058618805E-16,1.,5.31020079391842E-30));
#691=DIRECTION('',(1.,-4.00108004693282E-16,4.6858214583301E-15));
#692=DIRECTION('',(3.88578058618805E-16,1.,5.31020079391842E-30));
#693=DIRECTION('',(-1.,3.98753079258332E-16,-4.6858214583301E-15));
#694=DIRECTION('',(3.88578058618805E-16,1.,5.31020079391842E-30));
#695=DIRECTION('',(-1.,3.36279328739982E-16,-4.6858214583301E-15));
#696=DIRECTION('',(3.88578058618805E-16,1.,5.31020079391842E-30));
#697=DIRECTION('',(-1.,3.65700429257331E-16,-4.6858214583301E-15));
#698=DIRECTION('',(0.,1.,0.));
#699=DIRECTION('',(4.68548810861336E-15,0.,-1.));
#700=DIRECTION('',(0.,1.,0.));
#701=DIRECTION('',(4.68548810861336E-15,0.,-1.));
#702=DIRECTION('',(0.,1.,0.));
#703=DIRECTION('',(4.68548810861336E-15,0.,-1.));
#704=DIRECTION('',(0.,-1.,0.));
#705=DIRECTION('',(-4.66184884447077E-15,0.,1.));
#706=DIRECTION('',(0.,1.,0.));
#707=DIRECTION('',(4.66184884447077E-15,0.,-1.));
#708=DIRECTION('',(0.,1.,0.));
#709=DIRECTION('',(0.,0.,1.));
#710=DIRECTION('',(0.,-1.,0.));
#711=DIRECTION('',(0.,0.,1.));
#712=DIRECTION('',(0.,1.,0.));
#713=DIRECTION('',(4.69410166708173E-15,0.,-1.));
#714=DIRECTION('',(0.,-1.,0.));
#715=DIRECTION('',(0.,0.,1.));
#716=DIRECTION('',(0.,1.,0.));
#717=DIRECTION('',(0.,0.,1.));
#718=DIRECTION('',(0.,1.,0.));
#719=DIRECTION('',(4.68548810861336E-15,0.,-1.));
#720=DIRECTION('',(0.,-1.,0.));
#721=DIRECTION('',(0.,0.,1.));
#722=DIRECTION('',(0.,1.,0.));
#723=DIRECTION('',(0.,0.,1.));
#724=DIRECTION('',(0.,1.,0.));
#725=DIRECTION('',(4.70614775762008E-15,0.,-1.));
#726=DIRECTION('',(0.,-1.,0.));
#727=DIRECTION('',(0.,0.,-1.));
#728=DIRECTION('',(0.,-1.,0.));
#729=DIRECTION('',(-4.68548810861336E-15,0.,1.));
#730=DIRECTION('',(0.,1.,0.));
#731=DIRECTION('',(4.66663977487988E-15,0.,-1.));
#732=DIRECTION('',(0.,1.,0.));
#733=DIRECTION('',(4.68579962413406E-15,0.,-1.));
#734=DIRECTION('',(0.,1.,0.));
#735=DIRECTION('',(0.,0.,-1.));
#736=DIRECTION('',(0.,-1.,0.));
#737=DIRECTION('',(-4.68548810861336E-15,0.,1.));
#738=DIRECTION('',(0.,-1.,0.));
#739=DIRECTION('',(-4.67404559272464E-15,0.,1.));
#740=DIRECTION('',(0.,-1.,0.));
#741=DIRECTION('',(-4.68990185225723E-15,0.,1.));
#742=DIRECTION('',(0.,-1.,0.));
#743=DIRECTION('',(-4.70614775762008E-15,0.,1.));
#744=DIRECTION('',(0.,1.,0.));
#745=DIRECTION('',(4.68038734383355E-15,0.,-1.));
#746=DIRECTION('',(0.,1.,0.));
#747=DIRECTION('',(0.,0.,1.));
#748=DIRECTION('',(0.,1.,0.));
#749=DIRECTION('',(0.,0.,1.));
#750=CARTESIAN_POINT('',(0.,0.,0.));
#751=CARTESIAN_POINT('',(6.69999999999984,17.0887235160227,3.13950037708109E-14));
#752=CARTESIAN_POINT('',(6.69999999999993,17.0887235160227,-17.45858533762));
#753=CARTESIAN_POINT('',(6.69999999999984,16.2192852546667,3.13950037708109E-14));
#754=CARTESIAN_POINT('',(6.69999999999984,16.2192852546667,17.4123415616225));
#755=CARTESIAN_POINT('',(6.69999999999976,17.0887235160227,17.4585853376201));
#756=CARTESIAN_POINT('',(-28.2171706752403,17.0887235160227,17.4585853376199));
#757=CARTESIAN_POINT('',(-28.2171706752401,17.0887235160227,-17.4585853376201));
#758=CARTESIAN_POINT('',(6.69999999999993,17.0887235160227,-17.45858533762));
#759=CARTESIAN_POINT('',(41.61717067524,17.0887235160227,-17.4585853376198));
#760=CARTESIAN_POINT('',(41.6171706752398,17.0887235160227,17.4585853376202));
#761=CARTESIAN_POINT('',(6.69999999999976,17.0887235160227,17.4585853376201));
#762=CARTESIAN_POINT('',(6.69999999999976,16.7988252794439,17.4448069494141));
#763=CARTESIAN_POINT('',(-28.1896138988284,16.7988252794439,17.444806949414));
#764=CARTESIAN_POINT('',(-28.1896138988283,16.7988252794439,-17.4448069494142));
#765=CARTESIAN_POINT('',(6.69999999999993,16.7988252794439,-17.4448069494141));
#766=CARTESIAN_POINT('',(41.5896138988281,16.7988252794439,-17.4448069494139));
#767=CARTESIAN_POINT('',(41.589613898828,16.7988252794439,17.4448069494143));
#768=CARTESIAN_POINT('',(6.69999999999976,16.7988252794439,17.4448069494141));
#769=CARTESIAN_POINT('',(6.69999999999976,16.5090094467881,17.4293921936556));
#770=CARTESIAN_POINT('',(-28.1587843873113,16.5090094467881,17.4293921936554));
#771=CARTESIAN_POINT('',(-28.1587843873111,16.5090094467881,-17.4293921936557));
#772=CARTESIAN_POINT('',(6.69999999999993,16.5090094467881,-17.4293921936555));
#773=CARTESIAN_POINT('',(41.558784387311,16.5090094467881,-17.4293921936553));
#774=CARTESIAN_POINT('',(41.5587843873108,16.5090094467881,17.4293921936557));
#775=CARTESIAN_POINT('',(6.69999999999976,16.5090094467881,17.4293921936556));
#776=CARTESIAN_POINT('',(6.69999999999976,16.2192852546668,17.4123415616222));
#777=CARTESIAN_POINT('',(-28.1246831232446,16.2192852546668,17.412341561622));
#778=CARTESIAN_POINT('',(-28.1246831232444,16.2192852546668,-17.4123415616223));
#779=CARTESIAN_POINT('',(6.69999999999993,16.2192852546668,-17.4123415616221));
#780=CARTESIAN_POINT('',(41.5246831232443,16.2192852546668,-17.412341561622));
#781=CARTESIAN_POINT('',(41.5246831232441,16.2192852546668,17.4123415616224));
#782=CARTESIAN_POINT('',(6.69999999999976,16.2192852546668,17.4123415616222));
#783=CARTESIAN_POINT('',(6.69999999999984,22.2361982863869,3.13950037708109E-14));
#784=CARTESIAN_POINT('',(6.69999999999984,22.2361982863869,-17.0147014604425));
#785=CARTESIAN_POINT('',(6.69999999999984,22.1598050841368,3.13950037708109E-14));
#786=CARTESIAN_POINT('',(6.69999999999984,22.1598050841368,-17.2147014604425));
#787=CARTESIAN_POINT('',(6.69999999999984,21.9361982863868,3.13950037708109E-14));
#788=CARTESIAN_POINT('',(6.69999999999984,22.2361982863869,3.13950037708109E-14));
#789=CARTESIAN_POINT('',(6.69999999999984,22.2361982863869,-18.4147014604425));
#790=CARTESIAN_POINT('',(6.69999999999984,22.1598050841368,3.13950037708109E-14));
#791=CARTESIAN_POINT('',(6.69999999999984,22.1598050841368,-18.2147014604425));
#792=CARTESIAN_POINT('',(6.69999999999984,21.9361982863868,3.13950037708109E-14));
#793=CARTESIAN_POINT('',(6.69999999999984,21.8361982863868,3.13950037708109E-14));
#794=CARTESIAN_POINT('',(6.69999999999993,21.8361982863868,-17.2147014604425));
#795=CARTESIAN_POINT('',(6.69999999999984,21.4361982863868,3.13950037708109E-14));
#796=CARTESIAN_POINT('',(6.69999999999992,21.4361982863868,-16.8147014604425));
#797=CARTESIAN_POINT('',(6.69999999999984,21.8361982863868,3.13950037708109E-14));
#798=CARTESIAN_POINT('',(6.69999999999984,21.8361982863868,3.13950037708109E-14));
#799=CARTESIAN_POINT('',(6.69999999999993,21.8361982863868,-18.2147014604425));
#800=CARTESIAN_POINT('',(6.69999999999984,21.4361982863868,3.13950037708109E-14));
#801=CARTESIAN_POINT('',(6.69999999999993,21.4361982863868,-18.6147014604425));
#802=CARTESIAN_POINT('',(6.69999999999984,21.8361982863868,3.13950037708109E-14));
#803=CARTESIAN_POINT('',(6.69999999999984,18.1203201185424,3.13950037708109E-14));
#804=CARTESIAN_POINT('',(6.69999999999977,18.1203201185424,16.6372071803356));
#805=CARTESIAN_POINT('',(6.69999999999984,17.1361982863869,3.13950037708109E-14));
#806=CARTESIAN_POINT('',(6.69999999999984,21.4361982863869,3.13950037708109E-14));
#807=CARTESIAN_POINT('',(6.69999999999992,21.4361982863869,-15.8147014604425));
#808=CARTESIAN_POINT('',(6.69999999999984,21.4361982863868,3.13950037708109E-14));
#809=CARTESIAN_POINT('',(6.69999999999984,21.4361982863868,3.13950037708109E-14));
#810=CARTESIAN_POINT('',(6.69999999999994,21.4361982863868,-19.6147014604424));
#811=CARTESIAN_POINT('',(6.69999999999984,18.1000000000001,3.13950037708109E-14));
#812=CARTESIAN_POINT('',(6.69999999999975,18.1000000000001,19.5));
#813=CARTESIAN_POINT('',(6.69999999999984,18.1000000000001,3.13950037708109E-14));
#814=CARTESIAN_POINT('',(6.69999999999984,1.10000000000015,3.13950037708109E-14));
#815=CARTESIAN_POINT('',(6.69999999999977,1.10000000000015,15.));
#816=CARTESIAN_POINT('',(6.69999999999985,-3.78173475703822,3.13950037708109E-14));
#817=CARTESIAN_POINT('',(19.7982202000043,-3.78173475703823,9.27709250499244E-14));
#818=CARTESIAN_POINT('',(6.69999999999977,1.10000000000015,15.));
#819=CARTESIAN_POINT('',(-23.3000000000002,1.10000000000015,14.9999999999999));
#820=CARTESIAN_POINT('',(-23.3000000000001,1.10000000000015,-15.0000000000001));
#821=CARTESIAN_POINT('',(6.69999999999991,1.10000000000015,-15.));
#822=CARTESIAN_POINT('',(36.6999999999999,1.10000000000015,-14.9999999999998));
#823=CARTESIAN_POINT('',(36.6999999999998,1.10000000000015,15.0000000000002));
#824=CARTESIAN_POINT('',(6.69999999999977,1.10000000000015,15.));
#825=CARTESIAN_POINT('',(6.69999999999978,-0.596033253578374,14.5530707006795));
#826=CARTESIAN_POINT('',(-22.4061414013593,-0.596033253578374,14.5530707006794));
#827=CARTESIAN_POINT('',(-22.4061414013591,-0.596033253578374,-14.5530707006796));
#828=CARTESIAN_POINT('',(6.69999999999991,-0.596033253578374,-14.5530707006795));
#829=CARTESIAN_POINT('',(35.8061414013589,-0.596033253578374,-14.5530707006793));
#830=CARTESIAN_POINT('',(35.8061414013588,-0.596033253578374,14.5530707006797));
#831=CARTESIAN_POINT('',(6.69999999999978,-0.596033253578374,14.5530707006795));
#832=CARTESIAN_POINT('',(6.69999999999978,-2.23032873385912,13.916397410075));
#833=CARTESIAN_POINT('',(-21.1327948201502,-2.23032873385912,13.9163974100749));
#834=CARTESIAN_POINT('',(-21.1327948201501,-2.23032873385912,-13.9163974100751));
#835=CARTESIAN_POINT('',(6.69999999999991,-2.23032873385912,-13.916397410075));
#836=CARTESIAN_POINT('',(34.5327948201499,-2.23032873385912,-13.9163974100748));
#837=CARTESIAN_POINT('',(34.5327948201498,-2.23032873385912,13.9163974100752));
#838=CARTESIAN_POINT('',(6.69999999999978,-2.23032873385912,13.916397410075));
#839=CARTESIAN_POINT('',(6.69999999999978,-3.78173475703821,13.0982202000044));
#840=CARTESIAN_POINT('',(-19.496440400009,-3.78173475703821,13.0982202000043));
#841=CARTESIAN_POINT('',(-19.4964404000089,-3.78173475703821,-13.0982202000045));
#842=CARTESIAN_POINT('',(6.69999999999991,-3.78173475703821,-13.0982202000044));
#843=CARTESIAN_POINT('',(32.8964404000087,-3.78173475703821,-13.0982202000043));
#844=CARTESIAN_POINT('',(32.8964404000086,-3.78173475703821,13.0982202000046));
#845=CARTESIAN_POINT('',(6.69999999999978,-3.78173475703821,13.0982202000044));
#846=CARTESIAN_POINT('',(6.69999999999984,-4.99999999999995,3.13950037708109E-14));
#847=CARTESIAN_POINT('',(6.69999999999979,-4.99999999999995,12.4076702234397));
#848=CARTESIAN_POINT('',(6.69999999999984,-6.82221893597095,3.13950037708108E-14));
#849=CARTESIAN_POINT('',(-4.47776208272842,-6.82221893597094,-2.09819936525457E-14));
#850=CARTESIAN_POINT('',(6.69999999999979,-4.99999999999995,12.4076702234397));
#851=CARTESIAN_POINT('',(-18.1153404468795,-4.99999999999995,12.4076702234396));
#852=CARTESIAN_POINT('',(-18.1153404468794,-4.99999999999995,-12.4076702234397));
#853=CARTESIAN_POINT('',(6.6999999999999,-4.99999999999995,-12.4076702234396));
#854=CARTESIAN_POINT('',(31.5153404468792,-4.99999999999995,-12.4076702234395));
#855=CARTESIAN_POINT('',(31.5153404468791,-4.99999999999995,12.4076702234398));
#856=CARTESIAN_POINT('',(6.69999999999979,-4.99999999999995,12.4076702234397));
#857=CARTESIAN_POINT('',(6.69999999999979,-5.62673039111426,12.0268277725924));
#858=CARTESIAN_POINT('',(-17.3536555451849,-5.62673039111426,12.0268277725923));
#859=CARTESIAN_POINT('',(-17.3536555451848,-5.62673039111426,-12.0268277725924));
#860=CARTESIAN_POINT('',(6.6999999999999,-5.62673039111426,-12.0268277725923));
#861=CARTESIAN_POINT('',(30.7536555451846,-5.62673039111426,-12.0268277725922));
#862=CARTESIAN_POINT('',(30.7536555451845,-5.62673039111426,12.0268277725925));
#863=CARTESIAN_POINT('',(6.69999999999979,-5.62673039111426,12.0268277725924));
#864=CARTESIAN_POINT('',(6.69999999999979,-6.2345972347035,11.6165475561811));
#865=CARTESIAN_POINT('',(-16.5330951123623,-6.2345972347035,11.616547556181));
#866=CARTESIAN_POINT('',(-16.5330951123622,-6.2345972347035,-11.6165475561811));
#867=CARTESIAN_POINT('',(6.6999999999999,-6.2345972347035,-11.616547556181));
#868=CARTESIAN_POINT('',(29.933095112362,-6.2345972347035,-11.6165475561809));
#869=CARTESIAN_POINT('',(29.9330951123619,-6.2345972347035,11.6165475561812));
#870=CARTESIAN_POINT('',(6.69999999999979,-6.2345972347035,11.6165475561811));
#871=CARTESIAN_POINT('',(6.69999999999979,-6.82221893597095,11.1777620827283));
#872=CARTESIAN_POINT('',(-15.6555241654567,-6.82221893597095,11.1777620827282));
#873=CARTESIAN_POINT('',(-15.6555241654566,-6.82221893597095,-11.1777620827283));
#874=CARTESIAN_POINT('',(6.6999999999999,-6.82221893597095,-11.1777620827282));
#875=CARTESIAN_POINT('',(29.0555241654564,-6.82221893597095,-11.1777620827281));
#876=CARTESIAN_POINT('',(29.0555241654563,-6.82221893597095,11.1777620827284));
#877=CARTESIAN_POINT('',(6.69999999999979,-6.82221893597095,11.1777620827283));
#878=CARTESIAN_POINT('',(6.69999999999984,-12.4999999999999,3.13950037708109E-14));
#879=CARTESIAN_POINT('',(6.69999999999982,-12.4999999999999,5.04984193569708));
#880=CARTESIAN_POINT('',(6.69999999999984,-14.1273797003287,3.13950037708109E-14));
#881=CARTESIAN_POINT('',(6.69999999999985,-14.1273797003287,-1.99999999999997));
#882=CARTESIAN_POINT('',(6.69999999999982,-12.4999999999999,5.04984193569707));
#883=CARTESIAN_POINT('',(-3.39968387139426,-12.4999999999999,5.04984193569702));
#884=CARTESIAN_POINT('',(-3.39968387139421,-12.4999999999999,-5.04984193569706));
#885=CARTESIAN_POINT('',(6.69999999999987,-12.4999999999999,-5.04984193569701));
#886=CARTESIAN_POINT('',(16.7996838713939,-12.4999999999999,-5.04984193569696));
#887=CARTESIAN_POINT('',(16.7996838713939,-12.4999999999999,5.04984193569712));
#888=CARTESIAN_POINT('',(6.69999999999982,-12.4999999999999,5.04984193569707));
#889=CARTESIAN_POINT('',(6.69999999999983,-13.1182813681366,4.0749124856708));
#890=CARTESIAN_POINT('',(-1.44982497134172,-13.1182813681366,4.07491248567076));
#891=CARTESIAN_POINT('',(-1.44982497134168,-13.1182813681366,-4.07491248567078));
#892=CARTESIAN_POINT('',(6.69999999999987,-13.1182813681366,-4.07491248567074));
#893=CARTESIAN_POINT('',(14.8498249713414,-13.1182813681366,-4.0749124856707));
#894=CARTESIAN_POINT('',(14.8498249713414,-13.1182813681366,4.07491248567084));
#895=CARTESIAN_POINT('',(6.69999999999983,-13.1182813681366,4.0749124856708));
#896=CARTESIAN_POINT('',(6.69999999999983,-13.6617601676627,3.05638900671746));
#897=CARTESIAN_POINT('',(0.587221986564974,-13.6617601676627,3.05638900671743));
#898=CARTESIAN_POINT('',(0.587221986565004,-13.6617601676627,-3.05638900671743));
#899=CARTESIAN_POINT('',(6.69999999999986,-13.6617601676627,-3.0563890067174));
#900=CARTESIAN_POINT('',(12.8127780134347,-13.6617601676627,-3.05638900671737));
#901=CARTESIAN_POINT('',(12.8127780134347,-13.6617601676627,3.05638900671749));
#902=CARTESIAN_POINT('',(6.69999999999983,-13.6617601676627,3.05638900671746));
#903=CARTESIAN_POINT('',(6.69999999999984,-14.1273797003287,2.00000000000003));
#904=CARTESIAN_POINT('',(2.69999999999984,-14.1273797003287,2.00000000000001));
#905=CARTESIAN_POINT('',(2.69999999999986,-14.1273797003287,-1.99999999999999));
#906=CARTESIAN_POINT('',(6.69999999999985,-14.1273797003287,-1.99999999999997));
#907=CARTESIAN_POINT('',(10.6999999999998,-14.1273797003287,-1.99999999999995));
#908=CARTESIAN_POINT('',(10.6999999999998,-14.1273797003287,2.00000000000005));
#909=CARTESIAN_POINT('',(6.69999999999984,-14.1273797003287,2.00000000000003));
#910=CARTESIAN_POINT('',(6.69999999999984,1.10000000000013,3.13950037708109E-14));
#911=CARTESIAN_POINT('',(6.69999999999976,1.10000000000013,17.));
#912=CARTESIAN_POINT('',(6.69999999999984,-16.1561930921632,3.13950037708109E-14));
#913=CARTESIAN_POINT('',(6.69999999999985,-16.1561930921632,-1.99999999999997));
#914=CARTESIAN_POINT('',(6.69999999999984,-16.1561930921632,2.00000000000004));
#915=CARTESIAN_POINT('',(2.69999999999981,-16.1561930921632,2.00000000000002));
#916=CARTESIAN_POINT('',(2.69999999999983,-16.1561930921632,-2.));
#917=CARTESIAN_POINT('',(6.69999999999985,-16.1561930921632,-1.99999999999998));
#918=CARTESIAN_POINT('',(10.6999999999999,-16.1561930921632,-1.99999999999996));
#919=CARTESIAN_POINT('',(10.6999999999999,-16.1561930921632,2.00000000000006));
#920=CARTESIAN_POINT('',(6.69999999999984,-16.1561930921632,2.00000000000004));
#921=CARTESIAN_POINT('',(6.6999999999998,-12.9895942120487,9.54599237316417));
#922=CARTESIAN_POINT('',(-12.3919847463285,-12.9895942120487,9.54599237316408));
#923=CARTESIAN_POINT('',(-12.3919847463284,-12.9895942120487,-9.5459923731642));
#924=CARTESIAN_POINT('',(6.69999999999989,-12.9895942120487,-9.54599237316411));
#925=CARTESIAN_POINT('',(25.7919847463282,-12.9895942120487,-9.54599237316402));
#926=CARTESIAN_POINT('',(25.7919847463281,-12.9895942120487,9.54599237316426));
#927=CARTESIAN_POINT('',(6.6999999999998,-12.9895942120487,9.54599237316417));
#928=CARTESIAN_POINT('',(6.69999999999977,-6.81334050241149,14.9147202930337));
#929=CARTESIAN_POINT('',(-23.1294405860676,-6.81334050241149,14.9147202930336));
#930=CARTESIAN_POINT('',(-23.1294405860675,-6.81334050241149,-14.9147202930338));
#931=CARTESIAN_POINT('',(6.69999999999991,-6.81334050241149,-14.9147202930337));
#932=CARTESIAN_POINT('',(36.5294405860673,-6.81334050241149,-14.9147202930335));
#933=CARTESIAN_POINT('',(36.5294405860672,-6.81334050241149,14.9147202930339));
#934=CARTESIAN_POINT('',(6.69999999999977,-6.81334050241149,14.9147202930337));
#935=CARTESIAN_POINT('',(6.69999999999976,1.10000000000014,17.));
#936=CARTESIAN_POINT('',(-27.3000000000002,1.10000000000014,16.9999999999999));
#937=CARTESIAN_POINT('',(-27.3000000000001,1.10000000000014,-17.0000000000001));
#938=CARTESIAN_POINT('',(6.69999999999992,1.10000000000014,-17.));
#939=CARTESIAN_POINT('',(40.6999999999999,1.10000000000014,-16.9999999999998));
#940=CARTESIAN_POINT('',(40.6999999999997,1.10000000000014,17.0000000000002));
#941=CARTESIAN_POINT('',(6.69999999999976,1.10000000000014,17.));
#942=CARTESIAN_POINT('',(6.69999999999984,-8.29999999999995,3.13950037708109E-14));
#943=CARTESIAN_POINT('',(6.6999999999998,-8.29999999999995,9.9761271230234));
#944=CARTESIAN_POINT('',(6.69999999999984,-11.4999999999999,3.13950037708109E-14));
#945=CARTESIAN_POINT('',(6.69999999999981,-11.4999999999999,6.50096024900561));
#946=CARTESIAN_POINT('',(6.6999999999998,-8.29999999999995,9.9761271230234));
#947=CARTESIAN_POINT('',(-13.2522542460469,-8.29999999999995,9.97612712302331));
#948=CARTESIAN_POINT('',(-13.2522542460468,-8.29999999999995,-9.97612712302343));
#949=CARTESIAN_POINT('',(6.69999999999989,-8.29999999999995,-9.97612712302334));
#950=CARTESIAN_POINT('',(26.6522542460466,-8.29999999999995,-9.97612712302324));
#951=CARTESIAN_POINT('',(26.6522542460465,-8.29999999999995,9.9761271230235));
#952=CARTESIAN_POINT('',(6.6999999999998,-8.29999999999995,9.9761271230234));
#953=CARTESIAN_POINT('',(6.6999999999998,-9.48384411676561,8.92940251153341));
#954=CARTESIAN_POINT('',(-11.158805023067,-9.48384411676561,8.92940251153333));
#955=CARTESIAN_POINT('',(-11.1588050230669,-9.48384411676561,-8.92940251153343));
#956=CARTESIAN_POINT('',(6.69999999999989,-9.48384411676561,-8.92940251153335));
#957=CARTESIAN_POINT('',(24.5588050230666,-9.48384411676561,-8.92940251153326));
#958=CARTESIAN_POINT('',(24.5588050230666,-9.48384411676561,8.92940251153349));
#959=CARTESIAN_POINT('',(6.6999999999998,-9.48384411676561,8.92940251153341));
#960=CARTESIAN_POINT('',(6.69999999999981,-10.5542631225819,7.76693855205473));
#961=CARTESIAN_POINT('',(-8.83387710410959,-10.5542631225819,7.76693855205465));
#962=CARTESIAN_POINT('',(-8.83387710410951,-10.5542631225819,-7.76693855205474));
#963=CARTESIAN_POINT('',(6.69999999999988,-10.5542631225819,-7.76693855205466));
#964=CARTESIAN_POINT('',(22.2338771041093,-10.5542631225819,-7.76693855205459));
#965=CARTESIAN_POINT('',(22.2338771041092,-10.5542631225819,7.7669385520548));
#966=CARTESIAN_POINT('',(6.69999999999981,-10.5542631225819,7.76693855205473));
#967=CARTESIAN_POINT('',(6.69999999999981,-11.4999999999999,6.50096024900561));
#968=CARTESIAN_POINT('',(-6.30192049801135,-11.4999999999999,6.50096024900555));
#969=CARTESIAN_POINT('',(-6.30192049801129,-11.4999999999999,-6.50096024900561));
#970=CARTESIAN_POINT('',(6.69999999999988,-11.4999999999999,-6.50096024900555));
#971=CARTESIAN_POINT('',(19.701920498011,-11.4999999999999,-6.50096024900549));
#972=CARTESIAN_POINT('',(19.701920498011,-11.4999999999999,6.50096024900567));
#973=CARTESIAN_POINT('',(6.69999999999981,-11.4999999999999,6.50096024900561));
#974=CARTESIAN_POINT('',(6.69999999999984,-12.5,3.13950037708109E-14));
#975=CARTESIAN_POINT('',(11.7084949118347,-12.5,5.4863916702624E-14));
#976=CARTESIAN_POINT('',(11.3222324457713,-12.4999999999999,4.22244817607036E-14));
#977=CARTESIAN_POINT('',(6.69999999999976,1.10000000000013,17.));
#978=CARTESIAN_POINT('',(-27.3000000000002,1.10000000000013,16.9999999999999));
#979=CARTESIAN_POINT('',(-27.3000000000001,1.10000000000013,-17.0000000000001));
#980=CARTESIAN_POINT('',(6.69999999999992,1.10000000000013,-17.));
#981=CARTESIAN_POINT('',(40.6999999999999,1.10000000000013,-16.9999999999998));
#982=CARTESIAN_POINT('',(40.6999999999998,1.10000000000013,17.0000000000002));
#983=CARTESIAN_POINT('',(6.69999999999976,1.10000000000013,17.));
#984=CARTESIAN_POINT('',(6.69999999999976,6.6616265435618,18.4655690558848));
#985=CARTESIAN_POINT('',(-30.2311381117698,6.6616265435618,18.4655690558847));
#986=CARTESIAN_POINT('',(-30.2311381117697,6.6616265435618,-18.4655690558849));
#987=CARTESIAN_POINT('',(6.69999999999993,6.6616265435618,-18.4655690558848));
#988=CARTESIAN_POINT('',(43.6311381117695,6.6616265435618,-18.4655690558846));
#989=CARTESIAN_POINT('',(43.6311381117693,6.6616265435618,18.465569055885));
#990=CARTESIAN_POINT('',(6.69999999999976,6.6616265435618,18.4655690558848));
#991=CARTESIAN_POINT('',(6.69999999999975,12.3519110078163,19.3023755947458));
#992=CARTESIAN_POINT('',(-31.9047511894917,12.3519110078163,19.3023755947456));
#993=CARTESIAN_POINT('',(-31.9047511894915,12.3519110078163,-19.3023755947459));
#994=CARTESIAN_POINT('',(6.69999999999994,12.3519110078163,-19.3023755947457));
#995=CARTESIAN_POINT('',(45.3047511894914,12.3519110078163,-19.3023755947455));
#996=CARTESIAN_POINT('',(45.3047511894912,12.3519110078163,19.3023755947459));
#997=CARTESIAN_POINT('',(6.69999999999975,12.3519110078163,19.3023755947458));
#998=CARTESIAN_POINT('',(6.69999999999975,18.1000000000001,19.5));
#999=CARTESIAN_POINT('',(-32.3000000000002,18.1000000000001,19.4999999999998));
#1000=CARTESIAN_POINT('',(-32.3,18.1000000000001,-19.5000000000001));
#1001=CARTESIAN_POINT('',(6.69999999999994,18.1000000000001,-19.4999999999999));
#1002=CARTESIAN_POINT('',(45.6999999999999,18.1000000000001,-19.4999999999998));
#1003=CARTESIAN_POINT('',(45.6999999999997,18.1000000000001,19.5000000000002));
#1004=CARTESIAN_POINT('',(6.69999999999975,18.1000000000001,19.5));
#1005=CARTESIAN_POINT('',(6.69999999999984,14.6231314515858,3.13950037708109E-14));
#1006=CARTESIAN_POINT('',(6.69999999999984,14.6231314515858,-17.3017786584456));
#1007=CARTESIAN_POINT('',(6.69999999999976,14.6231314515859,17.3017786584454));
#1008=CARTESIAN_POINT('',(-27.9035573168909,14.6231314515859,17.3017786584452));
#1009=CARTESIAN_POINT('',(-27.9035573168908,14.6231314515859,-17.3017786584455));
#1010=CARTESIAN_POINT('',(6.69999999999993,14.6231314515859,-17.3017786584453));
#1011=CARTESIAN_POINT('',(41.3035573168906,14.6231314515859,-17.3017786584452));
#1012=CARTESIAN_POINT('',(41.3035573168904,14.6231314515859,17.3017786584455));
#1013=CARTESIAN_POINT('',(6.69999999999976,14.6231314515859,17.3017786584454));
#1014=CARTESIAN_POINT('',(6.69999999999977,10.0529675812089,16.9375348496555));
#1015=CARTESIAN_POINT('',(-27.1750696993112,10.0529675812089,16.9375348496553));
#1016=CARTESIAN_POINT('',(-27.175069699311,10.0529675812089,-16.9375348496556));
#1017=CARTESIAN_POINT('',(6.69999999999992,10.0529675812089,-16.9375348496554));
#1018=CARTESIAN_POINT('',(40.5750696993109,10.0529675812089,-16.9375348496553));
#1019=CARTESIAN_POINT('',(40.5750696993107,10.0529675812089,16.9375348496557));
#1020=CARTESIAN_POINT('',(6.69999999999977,10.0529675812089,16.9375348496555));
#1021=CARTESIAN_POINT('',(6.69999999999977,5.533314852138,16.1682426015838));
#1022=CARTESIAN_POINT('',(-25.6364852031678,5.533314852138,16.1682426015836));
#1023=CARTESIAN_POINT('',(-25.6364852031676,5.533314852138,-16.1682426015839));
#1024=CARTESIAN_POINT('',(6.69999999999992,5.533314852138,-16.1682426015837));
#1025=CARTESIAN_POINT('',(39.0364852031674,5.533314852138,-16.1682426015836));
#1026=CARTESIAN_POINT('',(39.0364852031673,5.533314852138,16.1682426015839));
#1027=CARTESIAN_POINT('',(6.69999999999977,5.533314852138,16.1682426015838));
#1028=CARTESIAN_POINT('',(6.69999999999977,1.10000000000018,15.));
#1029=CARTESIAN_POINT('',(-23.3000000000003,1.10000000000018,14.9999999999999));
#1030=CARTESIAN_POINT('',(-23.3000000000001,1.10000000000018,-15.0000000000001));
#1031=CARTESIAN_POINT('',(6.69999999999991,1.10000000000018,-15.));
#1032=CARTESIAN_POINT('',(36.6999999999999,1.10000000000018,-14.9999999999998));
#1033=CARTESIAN_POINT('',(36.6999999999998,1.10000000000018,15.0000000000002));
#1034=CARTESIAN_POINT('',(6.69999999999977,1.10000000000018,15.));
#1035=CARTESIAN_POINT('',(6.69999999999983,-14.1561930921632,3.13950037708109E-14));
#1036=CARTESIAN_POINT('',(8.69999999999982,-14.1561930921632,4.06441820075563E-14));
#1037=CARTESIAN_POINT('',(6.69999999999982,-50.,3.13950037708108E-14));
#1038=CARTESIAN_POINT('',(6.69999999999985,-4.01465887803524,3.13950037708109E-14));
#1039=CARTESIAN_POINT('',(19.7064280515745,-4.01465887803525,9.23408034311059E-14));
#1040=CARTESIAN_POINT('',(6.69999999999985,-4.01465887803524,3.13950037708109E-14));
#1041=CARTESIAN_POINT('',(6.69999999999985,-3.78173475703822,3.13950037708109E-14));
#1042=CARTESIAN_POINT('',(6.69999999999984,-7.32398445336754,3.13950037708109E-14));
#1043=CARTESIAN_POINT('',(17.5390950420162,-7.32398445336754,8.21850679075706E-14));
#1044=CARTESIAN_POINT('',(6.69999999999985,-4.99999999999995,3.13950037708109E-14));
#1045=CARTESIAN_POINT('',(6.69999999999984,-7.32398445336754,3.13950037708109E-14));
#1046=CARTESIAN_POINT('',(6.69999999999984,-11.4999999999999,3.13950037708109E-14));
#1047=CARTESIAN_POINT('',(6.69999999999983,-14.1561930921632,3.13950037708109E-14));
#1048=CARTESIAN_POINT('',(6.69999999999983,-16.1561930921632,3.13950037708109E-14));
#1049=CARTESIAN_POINT('',(6.69999999999984,21.4361982863868,3.13950037708109E-14));
#1050=CARTESIAN_POINT('',(6.69999999999984,19.1044419507023,3.13950037708109E-14));
#1051=CARTESIAN_POINT('',(6.69999999999977,19.1044419507023,15.8147014604426));
#1052=CARTESIAN_POINT('',(6.69999999999984,18.5361982863869,3.13950037708109E-14));
#1053=CARTESIAN_POINT('',(6.69999999999984,23.1361982863868,3.13950037708109E-14));
#1054=CARTESIAN_POINT('',(6.69999999999984,23.1361982863868,16.8147014604425));
#1055=CARTESIAN_POINT('',(6.69999999999984,22.3361982863868,3.13950037708109E-14));
#1056=CARTESIAN_POINT('',(6.69999999999984,22.3361982863868,16.8147014604425));
#1057=CARTESIAN_POINT('',(6.69999999999984,21.4361982863868,3.13950037708109E-14));
#1058=CARTESIAN_POINT('',(6.69999999999984,23.5361982863868,3.13950037708109E-14));
#1059=CARTESIAN_POINT('',(6.69999999999984,23.5361982863868,17.2147014604425));
#1060=CARTESIAN_POINT('',(6.69999999999984,23.5361982863868,3.13950037708109E-14));
#1061=CARTESIAN_POINT('',(6.69999999999984,23.5361982863868,18.2147014604425));
#1062=CARTESIAN_POINT('',(-10.0147014604427,23.5361982863868,-4.69271030021119E-14));
#1063=CARTESIAN_POINT('',(6.69999999999984,23.1361982863868,3.13950037708109E-14));
#1064=CARTESIAN_POINT('',(6.69999999999984,23.1361982863868,18.6147014604425));
#1065=CARTESIAN_POINT('',(6.69999999999984,22.3361982863868,3.13950037708109E-14));
#1066=CARTESIAN_POINT('',(6.69999999999984,22.3361982863868,18.6147014604425));
#1067=CARTESIAN_POINT('',(6.69999999999984,21.4361982863868,3.13950037708109E-14));
#1068=CARTESIAN_POINT('',(6.69999999999984,22.2361982863868,3.13950037708109E-14));
#1069=CARTESIAN_POINT('',(6.69999999999984,22.2361982863868,-18.5147014604425));
#1070=CARTESIAN_POINT('',(-12.0147014604427,22.2361982863868,-5.62987459187721E-14));
#1071=CARTESIAN_POINT('',(6.69999999999984,21.4361982863868,3.13950037708109E-14));
#1072=CARTESIAN_POINT('',(6.69999999999984,21.4361982863868,3.13950037708109E-14));
#1073=CARTESIAN_POINT('',(6.69999999999984,22.2361982863868,3.13950037708109E-14));
#1074=CARTESIAN_POINT('',(6.69999999999984,22.2361982863868,-16.9147014604425));
#1075=CARTESIAN_POINT('',(-10.5147014604427,22.2361982863868,-4.9270013731277E-14));
#1076=CARTESIAN_POINT('',(6.69999999999984,19.1044419507023,3.13950037708109E-14));
#1077=CARTESIAN_POINT('',(6.69999999999984,22.3361982863868,3.13950037708109E-14));
#1078=CARTESIAN_POINT('',(6.69999999999984,22.3361982863868,3.13950037708109E-14));
#1079=CARTESIAN_POINT('',(6.69999999999984,15.4209215944036,3.13950037708109E-14));
#1080=CARTESIAN_POINT('',(6.69999999999984,23.1361982863868,3.13950037708109E-14));
#1081=CARTESIAN_POINT('',(6.69999999999984,23.1361982863868,3.13950037708109E-14));
#1082=MECHANICAL_DESIGN_GEOMETRIC_PRESENTATION_REPRESENTATION('',(#36,#23,
#24,#25,#26,#27,#28,#29,#30,#31,#32,#33,#34),#1083);
#1083=(
GEOMETRIC_REPRESENTATION_CONTEXT(3)
GLOBAL_UNCERTAINTY_ASSIGNED_CONTEXT((#1084))
GLOBAL_UNIT_ASSIGNED_CONTEXT((#1090,#1086,#1085))
REPRESENTATION_CONTEXT('twister_cup_bottom_withdent',
'TOP_LEVEL_ASSEMBLY_PART')
);
#1084=UNCERTAINTY_MEASURE_WITH_UNIT(LENGTH_MEASURE(0.0254),#1090,
'DISTANCE_ACCURACY_VALUE','Maximum Tolerance applied to model');
#1085=(
NAMED_UNIT(*)
SI_UNIT($,.STERADIAN.)
SOLID_ANGLE_UNIT()
);
#1086=(
CONVERSION_BASED_UNIT('DEGREE',#1088)
NAMED_UNIT(#1087)
PLANE_ANGLE_UNIT()
);
#1087=DIMENSIONAL_EXPONENTS(0.,0.,0.,0.,0.,0.,0.);
#1088=PLANE_ANGLE_MEASURE_WITH_UNIT(PLANE_ANGLE_MEASURE(0.0174532925),#1089);
#1089=(
NAMED_UNIT(*)
PLANE_ANGLE_UNIT()
SI_UNIT($,.RADIAN.)
);
#1090=(
LENGTH_UNIT()
NAMED_UNIT(*)
SI_UNIT(.MILLI.,.METRE.)
);
ENDSEC;
END-ISO-10303-21;
