ISO-10303-21;
HEADER;
/* Generated by software containing ST-Developer
 * from STEP Tools, Inc. (www.steptools.com) 
 */
/* OPTION: using custom schema-name function */

FILE_DESCRIPTION(
/* description */ (''),
/* implementation_level */ '2;1');

FILE_NAME(
/* name */ 'Twister_Cup_Top_m.stp',
/* time_stamp */ '2026-09-08T16:15:29+02:00',
/* author */ (''),
/* organization */ (''),
/* preprocessor_version */ 'ST-DEVELOPER v20',
/* originating_system */ 'SIEMENS PLM Software NX2406.3002',
/* authorisation */ '');

FILE_SCHEMA (('AUTOMOTIVE_DESIGN { 1 0 10303 214 3 1 1 1 }'));
ENDSEC;

DATA;
#10=SHAPE_REPRESENTATION_RELATIONSHIP('None',
'relationship between Twister_Cup_Top_m-None and Twister_Cup_Top_m-Non
e',#22,#11);
#11=ADVANCED_BREP_SHAPE_REPRESENTATION('Twister_Cup_Top_m-None',(#118),
#585);
#12=SHAPE_DEFINITION_REPRESENTATION(#13,#22);
#13=PRODUCT_DEFINITION_SHAPE('','',#14);
#14=PRODUCT_DEFINITION(' ','',#16,#15);
#15=PRODUCT_DEFINITION_CONTEXT('part definition',#21,'design');
#16=PRODUCT_DEFINITION_FORMATION_WITH_SPECIFIED_SOURCE(' ',' ',#18,
 .NOT_KNOWN.);
#17=PRODUCT_RELATED_PRODUCT_CATEGORY('part','',(#18));
#18=PRODUCT('Twister_Cup_Top_m','Twister_Cup_Top_m',' ',(#19));
#19=PRODUCT_CONTEXT(' ',#21,'mechanical');
#20=APPLICATION_PROTOCOL_DEFINITION('international standard',
'automotive_design',2010,#21);
#21=APPLICATION_CONTEXT(
'core data for automotive mechanical design processes');
#22=SHAPE_REPRESENTATION('Twister_Cup_Top_m-None',(#373),#585);
#23=OVER_RIDING_STYLED_ITEM('',(#38),#135,#36);
#24=OVER_RIDING_STYLED_ITEM('',(#39),#136,#36);
#25=OVER_RIDING_STYLED_ITEM('',(#40),#138,#36);
#26=OVER_RIDING_STYLED_ITEM('',(#41),#139,#36);
#27=OVER_RIDING_STYLED_ITEM('',(#42),#140,#36);
#28=OVER_RIDING_STYLED_ITEM('',(#43),#141,#36);
#29=OVER_RIDING_STYLED_ITEM('',(#44),#142,#36);
#30=OVER_RIDING_STYLED_ITEM('',(#45),#144,#36);
#31=OVER_RIDING_STYLED_ITEM('',(#46),#145,#36);
#32=OVER_RIDING_STYLED_ITEM('',(#47),#146,#36);
#33=OVER_RIDING_STYLED_ITEM('',(#48),#147,#36);
#34=OVER_RIDING_STYLED_ITEM('',(#49),#148,#36);
#35=PRESENTATION_LAYER_ASSIGNMENT('1','Layer 1',(#118));
#36=STYLED_ITEM('',(#37),#118);
#37=PRESENTATION_STYLE_ASSIGNMENT((#50));
#38=PRESENTATION_STYLE_ASSIGNMENT((#51));
#39=PRESENTATION_STYLE_ASSIGNMENT((#52));
#40=PRESENTATION_STYLE_ASSIGNMENT((#53));
#41=PRESENTATION_STYLE_ASSIGNMENT((#54));
#42=PRESENTATION_STYLE_ASSIGNMENT((#55));
#43=PRESENTATION_STYLE_ASSIGNMENT((#56));
#44=PRESENTATION_STYLE_ASSIGNMENT((#57));
#45=PRESENTATION_STYLE_ASSIGNMENT((#58));
#46=PRESENTATION_STYLE_ASSIGNMENT((#59));
#47=PRESENTATION_STYLE_ASSIGNMENT((#60));
#48=PRESENTATION_STYLE_ASSIGNMENT((#61));
#49=PRESENTATION_STYLE_ASSIGNMENT((#62));
#50=SURFACE_STYLE_USAGE(.BOTH.,#63);
#51=SURFACE_STYLE_USAGE(.BOTH.,#64);
#52=SURFACE_STYLE_USAGE(.BOTH.,#65);
#53=SURFACE_STYLE_USAGE(.BOTH.,#66);
#54=SURFACE_STYLE_USAGE(.BOTH.,#67);
#55=SURFACE_STYLE_USAGE(.BOTH.,#68);
#56=SURFACE_STYLE_USAGE(.BOTH.,#69);
#57=SURFACE_STYLE_USAGE(.BOTH.,#70);
#58=SURFACE_STYLE_USAGE(.BOTH.,#71);
#59=SURFACE_STYLE_USAGE(.BOTH.,#72);
#60=SURFACE_STYLE_USAGE(.BOTH.,#73);
#61=SURFACE_STYLE_USAGE(.BOTH.,#74);
#62=SURFACE_STYLE_USAGE(.BOTH.,#75);
#63=SURFACE_SIDE_STYLE('',(#76));
#64=SURFACE_SIDE_STYLE('',(#77));
#65=SURFACE_SIDE_STYLE('',(#78));
#66=SURFACE_SIDE_STYLE('',(#79));
#67=SURFACE_SIDE_STYLE('',(#80));
#68=SURFACE_SIDE_STYLE('',(#81));
#69=SURFACE_SIDE_STYLE('',(#82));
#70=SURFACE_SIDE_STYLE('',(#83));
#71=SURFACE_SIDE_STYLE('',(#84));
#72=SURFACE_SIDE_STYLE('',(#85));
#73=SURFACE_SIDE_STYLE('',(#86));
#74=SURFACE_SIDE_STYLE('',(#87));
#75=SURFACE_SIDE_STYLE('',(#88));
#76=SURFACE_STYLE_FILL_AREA(#89);
#77=SURFACE_STYLE_FILL_AREA(#90);
#78=SURFACE_STYLE_FILL_AREA(#91);
#79=SURFACE_STYLE_FILL_AREA(#92);
#80=SURFACE_STYLE_FILL_AREA(#93);
#81=SURFACE_STYLE_FILL_AREA(#94);
#82=SURFACE_STYLE_FILL_AREA(#95);
#83=SURFACE_STYLE_FILL_AREA(#96);
#84=SURFACE_STYLE_FILL_AREA(#97);
#85=SURFACE_STYLE_FILL_AREA(#98);
#86=SURFACE_STYLE_FILL_AREA(#99);
#87=SURFACE_STYLE_FILL_AREA(#100);
#88=SURFACE_STYLE_FILL_AREA(#101);
#89=FILL_AREA_STYLE('',(#102));
#90=FILL_AREA_STYLE('',(#103));
#91=FILL_AREA_STYLE('',(#104));
#92=FILL_AREA_STYLE('',(#105));
#93=FILL_AREA_STYLE('',(#106));
#94=FILL_AREA_STYLE('',(#107));
#95=FILL_AREA_STYLE('',(#108));
#96=FILL_AREA_STYLE('',(#109));
#97=FILL_AREA_STYLE('',(#110));
#98=FILL_AREA_STYLE('',(#111));
#99=FILL_AREA_STYLE('',(#112));
#100=FILL_AREA_STYLE('',(#113));
#101=FILL_AREA_STYLE('',(#114));
#102=FILL_AREA_STYLE_COLOUR('',#115);
#103=FILL_AREA_STYLE_COLOUR('',#116);
#104=FILL_AREA_STYLE_COLOUR('',#117);
#105=FILL_AREA_STYLE_COLOUR('',#117);
#106=FILL_AREA_STYLE_COLOUR('',#116);
#107=FILL_AREA_STYLE_COLOUR('',#116);
#108=FILL_AREA_STYLE_COLOUR('',#116);
#109=FILL_AREA_STYLE_COLOUR('',#117);
#110=FILL_AREA_STYLE_COLOUR('',#117);
#111=FILL_AREA_STYLE_COLOUR('',#117);
#112=FILL_AREA_STYLE_COLOUR('',#117);
#113=FILL_AREA_STYLE_COLOUR('',#117);
#114=FILL_AREA_STYLE_COLOUR('',#117);
#115=COLOUR_RGB('medium royal',0.2,0.4,0.8);
#116=COLOUR_RGB('strong pink',0.933333333333333,0.584313725490196,0.741176470588235);
#117=COLOUR_RGB('medium steel',0.596078431372549,0.666666666666667,0.686274509803922);
#118=MANIFOLD_SOLID_BREP('',#119);
#119=CLOSED_SHELL('',(#131,#132,#133,#134,#135,#136,#137,#138,#139,#140,
#141,#142,#143,#144,#145,#146,#147,#148,#149,#150,#151,#152,#153));
#120=CYLINDRICAL_SURFACE('',#404,15.8147014604425);
#121=CYLINDRICAL_SURFACE('',#406,16.4147014604425);
#122=CYLINDRICAL_SURFACE('',#408,19.0147014604425);
#123=PLANE('',#391);
#124=PLANE('',#397);
#125=PLANE('',#407);
#126=PLANE('',#410);
#127=PLANE('',#412);
#128=CONICAL_SURFACE('',#388,17.6376830081336,1.96910417977823);
#129=CONICAL_SURFACE('',#399,19.5,1.96910417977654);
#130=CONICAL_SURFACE('',#402,17.6376830081336,1.96910417977823);
#131=ADVANCED_FACE('',(#166,#167),#154,.F.);
#132=ADVANCED_FACE('',(#168,#169),#155,.F.);
#133=ADVANCED_FACE('',(#170,#171),#156,.F.);
#134=ADVANCED_FACE('',(#172,#173),#157,.F.);
#135=ADVANCED_FACE('',(#174,#175),#128,.F.);
#136=ADVANCED_FACE('',(#176,#177),#123,.T.);
#137=ADVANCED_FACE('',(#178,#179),#158,.F.);
#138=ADVANCED_FACE('',(#180,#181),#124,.T.);
#139=ADVANCED_FACE('',(#182,#183),#129,.T.);
#140=ADVANCED_FACE('',(#184,#185),#159,.T.);
#141=ADVANCED_FACE('',(#186,#187),#130,.F.);
#142=ADVANCED_FACE('',(#188,#189),#120,.F.);
#143=ADVANCED_FACE('',(#190,#191),#160,.T.);
#144=ADVANCED_FACE('',(#192,#193),#121,.T.);
#145=ADVANCED_FACE('',(#194,#195),#125,.F.);
#146=ADVANCED_FACE('',(#196,#197),#122,.F.);
#147=ADVANCED_FACE('',(#198,#199),#126,.F.);
#148=ADVANCED_FACE('',(#200,#201),#127,.F.);
#149=ADVANCED_FACE('',(#202,#203),#161,.F.);
#150=ADVANCED_FACE('',(#204,#205),#162,.T.);
#151=ADVANCED_FACE('',(#206,#207),#163,.T.);
#152=ADVANCED_FACE('',(#208,#209),#164,.T.);
#153=ADVANCED_FACE('',(#210,#211),#165,.T.);
#154=TOROIDAL_SURFACE('',#376,16.9147014604425,0.5);
#155=TOROIDAL_SURFACE('',#379,18.5147014604425,0.5);
#156=TOROIDAL_SURFACE('',#382,16.6147014604425,0.2);
#157=TOROIDAL_SURFACE('',#385,18.8147014604425,0.2);
#158=TOROIDAL_SURFACE('',#394,16.7619484317024,1.);
#159=TOROIDAL_SURFACE('',#400,20.5,2.5);
#160=TOROIDAL_SURFACE('',#405,16.8147014604425,1.);
#161=TOROIDAL_SURFACE('',#413,17.8213875113653,0.800000000000001);
#162=TOROIDAL_SURFACE('',#415,16.6147014604425,0.4);
#163=TOROIDAL_SURFACE('',#417,18.8147014604425,0.4);
#164=TOROIDAL_SURFACE('',#418,16.8147014604425,0.2);
#165=TOROIDAL_SURFACE('',#419,18.6147014604425,0.2);
#166=FACE_BOUND('',#212,.T.);
#167=FACE_BOUND('',#213,.T.);
#168=FACE_BOUND('',#214,.T.);
#169=FACE_BOUND('',#215,.T.);
#170=FACE_BOUND('',#216,.T.);
#171=FACE_BOUND('',#217,.T.);
#172=FACE_BOUND('',#218,.T.);
#173=FACE_BOUND('',#219,.T.);
#174=FACE_BOUND('',#220,.T.);
#175=FACE_BOUND('',#221,.T.);
#176=FACE_BOUND('',#222,.T.);
#177=FACE_BOUND('',#223,.T.);
#178=FACE_BOUND('',#224,.T.);
#179=FACE_BOUND('',#225,.T.);
#180=FACE_BOUND('',#226,.T.);
#181=FACE_BOUND('',#227,.T.);
#182=FACE_BOUND('',#228,.T.);
#183=FACE_BOUND('',#229,.T.);
#184=FACE_BOUND('',#230,.T.);
#185=FACE_BOUND('',#231,.T.);
#186=FACE_BOUND('',#232,.T.);
#187=FACE_BOUND('',#233,.T.);
#188=FACE_BOUND('',#234,.T.);
#189=FACE_BOUND('',#235,.T.);
#190=FACE_BOUND('',#236,.T.);
#191=FACE_BOUND('',#237,.T.);
#192=FACE_BOUND('',#238,.T.);
#193=FACE_BOUND('',#239,.T.);
#194=FACE_BOUND('',#240,.T.);
#195=FACE_BOUND('',#241,.T.);
#196=FACE_BOUND('',#242,.T.);
#197=FACE_BOUND('',#243,.T.);
#198=FACE_BOUND('',#244,.T.);
#199=FACE_BOUND('',#245,.T.);
#200=FACE_BOUND('',#246,.T.);
#201=FACE_BOUND('',#247,.T.);
#202=FACE_BOUND('',#248,.T.);
#203=FACE_BOUND('',#249,.T.);
#204=FACE_BOUND('',#250,.T.);
#205=FACE_BOUND('',#251,.T.);
#206=FACE_BOUND('',#252,.T.);
#207=FACE_BOUND('',#253,.T.);
#208=FACE_BOUND('',#254,.T.);
#209=FACE_BOUND('',#255,.T.);
#210=FACE_BOUND('',#256,.T.);
#211=FACE_BOUND('',#257,.T.);
#212=EDGE_LOOP('',(#258));
#213=EDGE_LOOP('',(#259));
#214=EDGE_LOOP('',(#260));
#215=EDGE_LOOP('',(#261));
#216=EDGE_LOOP('',(#262));
#217=EDGE_LOOP('',(#263));
#218=EDGE_LOOP('',(#264));
#219=EDGE_LOOP('',(#265));
#220=EDGE_LOOP('',(#266));
#221=EDGE_LOOP('',(#267));
#222=EDGE_LOOP('',(#268));
#223=EDGE_LOOP('',(#269));
#224=EDGE_LOOP('',(#270));
#225=EDGE_LOOP('',(#271));
#226=EDGE_LOOP('',(#272));
#227=EDGE_LOOP('',(#273));
#228=EDGE_LOOP('',(#274));
#229=EDGE_LOOP('',(#275));
#230=EDGE_LOOP('',(#276));
#231=EDGE_LOOP('',(#277));
#232=EDGE_LOOP('',(#278));
#233=EDGE_LOOP('',(#279));
#234=EDGE_LOOP('',(#280));
#235=EDGE_LOOP('',(#281));
#236=EDGE_LOOP('',(#282));
#237=EDGE_LOOP('',(#283));
#238=EDGE_LOOP('',(#284));
#239=EDGE_LOOP('',(#285));
#240=EDGE_LOOP('',(#286));
#241=EDGE_LOOP('',(#287));
#242=EDGE_LOOP('',(#288));
#243=EDGE_LOOP('',(#289));
#244=EDGE_LOOP('',(#290));
#245=EDGE_LOOP('',(#291));
#246=EDGE_LOOP('',(#292));
#247=EDGE_LOOP('',(#293));
#248=EDGE_LOOP('',(#294));
#249=EDGE_LOOP('',(#295));
#250=EDGE_LOOP('',(#296));
#251=EDGE_LOOP('',(#297));
#252=EDGE_LOOP('',(#298));
#253=EDGE_LOOP('',(#299));
#254=EDGE_LOOP('',(#300));
#255=EDGE_LOOP('',(#301));
#256=EDGE_LOOP('',(#302));
#257=EDGE_LOOP('',(#303));
#258=ORIENTED_EDGE('',*,*,#327,.F.);
#259=ORIENTED_EDGE('',*,*,#328,.F.);
#260=ORIENTED_EDGE('',*,*,#329,.F.);
#261=ORIENTED_EDGE('',*,*,#330,.F.);
#262=ORIENTED_EDGE('',*,*,#331,.F.);
#263=ORIENTED_EDGE('',*,*,#332,.F.);
#264=ORIENTED_EDGE('',*,*,#333,.F.);
#265=ORIENTED_EDGE('',*,*,#334,.F.);
#266=ORIENTED_EDGE('',*,*,#335,.F.);
#267=ORIENTED_EDGE('',*,*,#336,.F.);
#268=ORIENTED_EDGE('',*,*,#337,.T.);
#269=ORIENTED_EDGE('',*,*,#338,.T.);
#270=ORIENTED_EDGE('',*,*,#339,.T.);
#271=ORIENTED_EDGE('',*,*,#340,.F.);
#272=ORIENTED_EDGE('',*,*,#341,.T.);
#273=ORIENTED_EDGE('',*,*,#342,.F.);
#274=ORIENTED_EDGE('',*,*,#343,.T.);
#275=ORIENTED_EDGE('',*,*,#342,.T.);
#276=ORIENTED_EDGE('',*,*,#336,.T.);
#277=ORIENTED_EDGE('',*,*,#343,.F.);
#278=ORIENTED_EDGE('',*,*,#340,.T.);
#279=ORIENTED_EDGE('',*,*,#344,.F.);
#280=ORIENTED_EDGE('',*,*,#337,.F.);
#281=ORIENTED_EDGE('',*,*,#345,.T.);
#282=ORIENTED_EDGE('',*,*,#339,.F.);
#283=ORIENTED_EDGE('',*,*,#345,.F.);
#284=ORIENTED_EDGE('',*,*,#327,.T.);
#285=ORIENTED_EDGE('',*,*,#332,.T.);
#286=ORIENTED_EDGE('',*,*,#330,.T.);
#287=ORIENTED_EDGE('',*,*,#328,.T.);
#288=ORIENTED_EDGE('',*,*,#334,.T.);
#289=ORIENTED_EDGE('',*,*,#329,.T.);
#290=ORIENTED_EDGE('',*,*,#333,.T.);
#291=ORIENTED_EDGE('',*,*,#346,.T.);
#292=ORIENTED_EDGE('',*,*,#331,.T.);
#293=ORIENTED_EDGE('',*,*,#347,.T.);
#294=ORIENTED_EDGE('',*,*,#335,.T.);
#295=ORIENTED_EDGE('',*,*,#344,.T.);
#296=ORIENTED_EDGE('',*,*,#338,.F.);
#297=ORIENTED_EDGE('',*,*,#348,.F.);
#298=ORIENTED_EDGE('',*,*,#349,.F.);
#299=ORIENTED_EDGE('',*,*,#341,.F.);
#300=ORIENTED_EDGE('',*,*,#348,.T.);
#301=ORIENTED_EDGE('',*,*,#347,.F.);
#302=ORIENTED_EDGE('',*,*,#346,.F.);
#303=ORIENTED_EDGE('',*,*,#349,.T.);
#304=VERTEX_POINT('',#516);
#305=VERTEX_POINT('',#518);
#306=VERTEX_POINT('',#521);
#307=VERTEX_POINT('',#523);
#308=VERTEX_POINT('',#526);
#309=VERTEX_POINT('',#528);
#310=VERTEX_POINT('',#531);
#311=VERTEX_POINT('',#533);
#312=VERTEX_POINT('',#536);
#313=VERTEX_POINT('',#538);
#314=VERTEX_POINT('',#541);
#315=VERTEX_POINT('',#543);
#316=VERTEX_POINT('',#546);
#317=VERTEX_POINT('',#548);
#318=VERTEX_POINT('',#551);
#319=VERTEX_POINT('',#553);
#320=VERTEX_POINT('',#556);
#321=VERTEX_POINT('',#560);
#322=VERTEX_POINT('',#563);
#323=VERTEX_POINT('',#570);
#324=VERTEX_POINT('',#573);
#325=VERTEX_POINT('',#577);
#326=VERTEX_POINT('',#580);
#327=EDGE_CURVE('',#304,#304,#350,.T.);
#328=EDGE_CURVE('',#305,#305,#351,.T.);
#329=EDGE_CURVE('',#306,#306,#352,.T.);
#330=EDGE_CURVE('',#307,#307,#353,.T.);
#331=EDGE_CURVE('',#308,#308,#354,.T.);
#332=EDGE_CURVE('',#309,#309,#355,.T.);
#333=EDGE_CURVE('',#310,#310,#356,.T.);
#334=EDGE_CURVE('',#311,#311,#357,.T.);
#335=EDGE_CURVE('',#312,#312,#358,.T.);
#336=EDGE_CURVE('',#313,#313,#359,.T.);
#337=EDGE_CURVE('',#314,#314,#360,.T.);
#338=EDGE_CURVE('',#315,#315,#361,.T.);
#339=EDGE_CURVE('',#316,#316,#362,.T.);
#340=EDGE_CURVE('',#317,#317,#363,.T.);
#341=EDGE_CURVE('',#318,#318,#364,.T.);
#342=EDGE_CURVE('',#319,#319,#365,.T.);
#343=EDGE_CURVE('',#320,#320,#366,.T.);
#344=EDGE_CURVE('',#321,#321,#367,.T.);
#345=EDGE_CURVE('',#322,#322,#368,.T.);
#346=EDGE_CURVE('',#323,#323,#369,.T.);
#347=EDGE_CURVE('',#324,#324,#370,.T.);
#348=EDGE_CURVE('',#325,#325,#371,.T.);
#349=EDGE_CURVE('',#326,#326,#372,.T.);
#350=CIRCLE('',#374,16.4147014604425);
#351=CIRCLE('',#375,16.9147014604425);
#352=CIRCLE('',#377,19.0147014604425);
#353=CIRCLE('',#378,18.5147014604425);
#354=CIRCLE('',#380,16.6147014604425);
#355=CIRCLE('',#381,16.4147014604425);
#356=CIRCLE('',#383,18.8147014604425);
#357=CIRCLE('',#384,19.0147014604425);
#358=CIRCLE('',#386,17.8488759804479);
#359=CIRCLE('',#387,18.0014762482299);
#360=CIRCLE('',#389,15.8147014604425);
#361=CIRCLE('',#390,16.6147014604425);
#362=CIRCLE('',#392,16.7883249460739);
#363=CIRCLE('',#393,17.7613579324104);
#364=CIRCLE('',#395,18.8147014604425);
#365=CIRCLE('',#396,19.6147014604425);
#366=CIRCLE('',#398,19.9149573381208);
#367=CIRCLE('',#401,17.7938990422826);
#368=CIRCLE('',#403,15.8147014604425);
#369=CIRCLE('',#409,18.6147014604425);
#370=CIRCLE('',#411,16.8147014604425);
#371=CIRCLE('',#414,17.0147014604425);
#372=CIRCLE('',#416,18.4147014604425);
#373=AXIS2_PLACEMENT_3D('',#514,#420,#421);
#374=AXIS2_PLACEMENT_3D('',#515,#422,#423);
#375=AXIS2_PLACEMENT_3D('',#517,#424,#425);
#376=AXIS2_PLACEMENT_3D('',#519,#426,#427);
#377=AXIS2_PLACEMENT_3D('',#520,#428,#429);
#378=AXIS2_PLACEMENT_3D('',#522,#430,#431);
#379=AXIS2_PLACEMENT_3D('',#524,#432,#433);
#380=AXIS2_PLACEMENT_3D('',#525,#434,#435);
#381=AXIS2_PLACEMENT_3D('',#527,#436,#437);
#382=AXIS2_PLACEMENT_3D('',#529,#438,#439);
#383=AXIS2_PLACEMENT_3D('',#530,#440,#441);
#384=AXIS2_PLACEMENT_3D('',#532,#442,#443);
#385=AXIS2_PLACEMENT_3D('',#534,#444,#445);
#386=AXIS2_PLACEMENT_3D('',#535,#446,#447);
#387=AXIS2_PLACEMENT_3D('',#537,#448,#449);
#388=AXIS2_PLACEMENT_3D('',#539,#450,#451);
#389=AXIS2_PLACEMENT_3D('',#540,#452,#453);
#390=AXIS2_PLACEMENT_3D('',#542,#454,#455);
#391=AXIS2_PLACEMENT_3D('',#544,#456,#457);
#392=AXIS2_PLACEMENT_3D('',#545,#458,#459);
#393=AXIS2_PLACEMENT_3D('',#547,#460,#461);
#394=AXIS2_PLACEMENT_3D('',#549,#462,#463);
#395=AXIS2_PLACEMENT_3D('',#550,#464,#465);
#396=AXIS2_PLACEMENT_3D('',#552,#466,#467);
#397=AXIS2_PLACEMENT_3D('',#554,#468,#469);
#398=AXIS2_PLACEMENT_3D('',#555,#470,#471);
#399=AXIS2_PLACEMENT_3D('',#557,#472,#473);
#400=AXIS2_PLACEMENT_3D('',#558,#474,#475);
#401=AXIS2_PLACEMENT_3D('',#559,#476,#477);
#402=AXIS2_PLACEMENT_3D('',#561,#478,#479);
#403=AXIS2_PLACEMENT_3D('',#562,#480,#481);
#404=AXIS2_PLACEMENT_3D('',#564,#482,#483);
#405=AXIS2_PLACEMENT_3D('',#565,#484,#485);
#406=AXIS2_PLACEMENT_3D('',#566,#486,#487);
#407=AXIS2_PLACEMENT_3D('',#567,#488,#489);
#408=AXIS2_PLACEMENT_3D('',#568,#490,#491);
#409=AXIS2_PLACEMENT_3D('',#569,#492,#493);
#410=AXIS2_PLACEMENT_3D('',#571,#494,#495);
#411=AXIS2_PLACEMENT_3D('',#572,#496,#497);
#412=AXIS2_PLACEMENT_3D('',#574,#498,#499);
#413=AXIS2_PLACEMENT_3D('',#575,#500,#501);
#414=AXIS2_PLACEMENT_3D('',#576,#502,#503);
#415=AXIS2_PLACEMENT_3D('',#578,#504,#505);
#416=AXIS2_PLACEMENT_3D('',#579,#506,#507);
#417=AXIS2_PLACEMENT_3D('',#581,#508,#509);
#418=AXIS2_PLACEMENT_3D('',#582,#510,#511);
#419=AXIS2_PLACEMENT_3D('',#583,#512,#513);
#420=DIRECTION('',(0.,0.,1.));
#421=DIRECTION('',(1.,0.,0.));
#422=DIRECTION('',(0.,-1.,0.));
#423=DIRECTION('',(0.,0.,1.));
#424=DIRECTION('',(0.,1.,0.));
#425=DIRECTION('',(0.,0.,1.));
#426=DIRECTION('',(0.,1.,0.));
#427=DIRECTION('',(0.,0.,1.));
#428=DIRECTION('',(0.,1.,0.));
#429=DIRECTION('',(0.,0.,1.));
#430=DIRECTION('',(0.,-1.,0.));
#431=DIRECTION('',(0.,0.,1.));
#432=DIRECTION('',(0.,1.,0.));
#433=DIRECTION('',(0.,0.,1.));
#434=DIRECTION('',(0.,-1.,0.));
#435=DIRECTION('',(-4.69840259271666E-15,0.,1.));
#436=DIRECTION('',(0.,1.,0.));
#437=DIRECTION('',(-4.70280832502493E-15,0.,1.));
#438=DIRECTION('',(0.,-1.,0.));
#439=DIRECTION('',(-4.69410166708173E-15,0.,1.));
#440=DIRECTION('',(0.,1.,0.));
#441=DIRECTION('',(-4.70222168875894E-15,0.,1.));
#442=DIRECTION('',(0.,-1.,0.));
#443=DIRECTION('',(-4.69837821007401E-15,0.,1.));
#444=DIRECTION('',(0.,-1.,0.));
#445=DIRECTION('',(-4.69837821007401E-15,0.,1.));
#446=DIRECTION('',(0.,1.,0.));
#447=DIRECTION('',(0.,0.,-1.));
#448=DIRECTION('',(0.,-1.,0.));
#449=DIRECTION('',(-4.67373272195652E-15,0.,1.));
#450=DIRECTION('',(0.,1.,0.));
#451=DIRECTION('',(4.68541604488747E-15,1.06714102089964E-15,-1.));
#452=DIRECTION('',(0.,1.,0.));
#453=DIRECTION('',(4.66184884447077E-15,0.,-1.));
#454=DIRECTION('',(0.,-1.,0.));
#455=DIRECTION('',(-4.69840259271666E-15,0.,1.));
#456=DIRECTION('',(0.,-1.,0.));
#457=DIRECTION('',(-4.68548810861336E-15,0.,1.));
#458=DIRECTION('',(0.,-1.,0.));
#459=DIRECTION('',(4.70147667563483E-15,0.,-1.));
#460=DIRECTION('',(0.,-1.,0.));
#461=DIRECTION('',(4.6880833753676E-15,0.,-1.));
#462=DIRECTION('',(0.,1.,0.));
#463=DIRECTION('',(4.68792751916047E-15,0.,-1.));
#464=DIRECTION('',(0.,1.,0.));
#465=DIRECTION('',(-4.70222168875894E-15,0.,1.));
#466=DIRECTION('',(0.,1.,0.));
#467=DIRECTION('',(-4.68731805131929E-15,0.,1.));
#468=DIRECTION('',(0.,-1.,0.));
#469=DIRECTION('',(-4.68548810861336E-15,0.,1.));
#470=DIRECTION('',(0.,-1.,0.));
#471=DIRECTION('',(-4.70375437478024E-15,0.,1.));
#472=DIRECTION('',(0.,1.,0.));
#473=DIRECTION('',(4.68444886457486E-15,-1.80294939117658E-15,-1.));
#474=DIRECTION('',(0.,-1.,0.));
#475=DIRECTION('',(-4.67621110915488E-15,0.,1.));
#476=DIRECTION('',(0.,-1.,0.));
#477=DIRECTION('',(0.,0.,1.));
#478=DIRECTION('',(0.,1.,0.));
#479=DIRECTION('',(4.68541604488747E-15,1.06714102089964E-15,-1.));
#480=DIRECTION('',(0.,1.,0.));
#481=DIRECTION('',(-4.66184884447077E-15,0.,1.));
#482=DIRECTION('',(0.,1.,0.));
#483=DIRECTION('',(4.66184884447077E-15,0.,-1.));
#484=DIRECTION('',(0.,-1.,0.));
#485=DIRECTION('',(-4.67404559272465E-15,0.,1.));
#486=DIRECTION('',(0.,1.,0.));
#487=DIRECTION('',(4.70280832502493E-15,0.,-1.));
#488=DIRECTION('',(0.,1.,0.));
#489=DIRECTION('',(4.68548810861336E-15,0.,-1.));
#490=DIRECTION('',(0.,1.,0.));
#491=DIRECTION('',(4.69837821007401E-15,0.,-1.));
#492=DIRECTION('',(0.,-1.,0.));
#493=DIRECTION('',(-4.70614775762008E-15,0.,1.));
#494=DIRECTION('',(0.,-1.,0.));
#495=DIRECTION('',(-4.68548810861336E-15,0.,1.));
#496=DIRECTION('',(0.,1.,0.));
#497=DIRECTION('',(-4.69410166708173E-15,0.,1.));
#498=DIRECTION('',(0.,-1.,0.));
#499=DIRECTION('',(-4.68548810861336E-15,0.,1.));
#500=DIRECTION('',(0.,1.,0.));
#501=DIRECTION('',(4.70445800471964E-15,0.,-1.));
#502=DIRECTION('',(0.,1.,0.));
#503=DIRECTION('',(-4.68990185225723E-15,0.,1.));
#504=DIRECTION('',(0.,-1.,0.));
#505=DIRECTION('',(-4.68990185225723E-15,0.,1.));
#506=DIRECTION('',(0.,-1.,0.));
#507=DIRECTION('',(-4.66305751658863E-15,0.,1.));
#508=DIRECTION('',(0.,-1.,0.));
#509=DIRECTION('',(-4.69461474259703E-15,0.,1.));
#510=DIRECTION('',(0.,-1.,0.));
#511=DIRECTION('',(-4.68990185225723E-15,0.,1.));
#512=DIRECTION('',(0.,-1.,0.));
#513=DIRECTION('',(-4.70222168875894E-15,0.,1.));
#514=CARTESIAN_POINT('',(0.,0.,0.));
#515=CARTESIAN_POINT('',(6.69999999999984,23.1361982863868,3.13950037708109E-14));
#516=CARTESIAN_POINT('',(6.69999999999984,23.1361982863868,16.4147014604425));
#517=CARTESIAN_POINT('',(6.69999999999984,23.6361982863868,3.13950037708109E-14));
#518=CARTESIAN_POINT('',(6.69999999999984,23.6361982863868,16.9147014604425));
#519=CARTESIAN_POINT('',(6.69999999999984,23.1361982863868,3.13950037708109E-14));
#520=CARTESIAN_POINT('',(6.69999999999984,23.1361982863868,3.13950037708109E-14));
#521=CARTESIAN_POINT('',(6.69999999999984,23.1361982863868,19.0147014604425));
#522=CARTESIAN_POINT('',(6.69999999999984,23.6361982863868,3.13950037708109E-14));
#523=CARTESIAN_POINT('',(6.69999999999984,23.6361982863868,18.5147014604425));
#524=CARTESIAN_POINT('',(6.69999999999984,23.1361982863868,3.13950037708109E-14));
#525=CARTESIAN_POINT('',(6.69999999999984,22.0361982863868,3.13950037708109E-14));
#526=CARTESIAN_POINT('',(6.69999999999977,22.0361982863868,16.6147014604425));
#527=CARTESIAN_POINT('',(6.69999999999984,22.2361982863868,3.13950037708109E-14));
#528=CARTESIAN_POINT('',(6.69999999999977,22.2361982863868,16.4147014604425));
#529=CARTESIAN_POINT('',(6.69999999999984,22.2361982863868,3.13950037708109E-14));
#530=CARTESIAN_POINT('',(6.69999999999984,22.0361982863868,3.13950037708109E-14));
#531=CARTESIAN_POINT('',(6.69999999999976,22.0361982863868,18.8147014604425));
#532=CARTESIAN_POINT('',(6.69999999999984,22.2361982863868,3.13950037708109E-14));
#533=CARTESIAN_POINT('',(6.69999999999976,22.2361982863868,19.0147014604425));
#534=CARTESIAN_POINT('',(6.69999999999984,22.2361982863868,3.13950037708109E-14));
#535=CARTESIAN_POINT('',(6.69999999999984,28.2473812420611,3.13950037708109E-14));
#536=CARTESIAN_POINT('',(6.69999999999984,28.2473812420611,-17.8488759804479));
#537=CARTESIAN_POINT('',(6.69999999999984,32.6859014658836,3.13950037708109E-14));
#538=CARTESIAN_POINT('',(6.69999999999976,32.6859014658836,18.0014762482299));
#539=CARTESIAN_POINT('',(6.69999999999984,22.1046379011011,3.13950037708109E-14));
#540=CARTESIAN_POINT('',(6.69999999999984,21.4361982863868,3.13950037708109E-14));
#541=CARTESIAN_POINT('',(6.69999999999992,21.4361982863868,-15.8147014604425));
#542=CARTESIAN_POINT('',(6.69999999999984,21.4361982863868,3.13950037708109E-14));
#543=CARTESIAN_POINT('',(6.69999999999977,21.4361982863868,16.6147014604425));
#544=CARTESIAN_POINT('',(6.69999999999984,21.4361982863868,3.13950037708109E-14));
#545=CARTESIAN_POINT('',(6.69999999999984,24.736546207112,3.13950037708109E-14));
#546=CARTESIAN_POINT('',(6.69999999999992,24.736546207112,-16.7883249460739));
#547=CARTESIAN_POINT('',(6.69999999999984,25.7018377000335,3.13950037708109E-14));
#548=CARTESIAN_POINT('',(6.69999999999993,25.7018377000335,-17.7613579324104));
#549=CARTESIAN_POINT('',(6.69999999999984,25.7361982863868,3.13950037708109E-14));
#550=CARTESIAN_POINT('',(6.69999999999984,21.4361982863868,3.13950037708109E-14));
#551=CARTESIAN_POINT('',(6.69999999999976,21.4361982863868,18.8147014604425));
#552=CARTESIAN_POINT('',(6.69999999999984,21.4361982863868,3.13950037708109E-14));
#553=CARTESIAN_POINT('',(6.69999999999975,21.4361982863868,19.6147014604425));
#554=CARTESIAN_POINT('',(6.69999999999984,21.4361982863868,3.13950037708109E-14));
#555=CARTESIAN_POINT('',(6.69999999999984,30.1694187765514,3.13950037708109E-14));
#556=CARTESIAN_POINT('',(6.69999999999975,30.1694187765514,19.9149573381208));
#557=CARTESIAN_POINT('',(6.69999999999984,18.1000000000001,3.13950037708109E-14));
#558=CARTESIAN_POINT('',(6.69999999999984,32.6000000000001,3.13950037708109E-14));
#559=CARTESIAN_POINT('',(6.69999999999984,26.6483260409296,3.13950037708109E-14));
#560=CARTESIAN_POINT('',(6.69999999999984,26.6483260409296,17.7938990422826));
#561=CARTESIAN_POINT('',(6.69999999999984,22.1046379011011,3.13950037708109E-14));
#562=CARTESIAN_POINT('',(6.69999999999984,23.736894127946,3.13950037708109E-14));
#563=CARTESIAN_POINT('',(6.69999999999977,23.736894127946,15.8147014604426));
#564=CARTESIAN_POINT('',(6.69999999999984,21.4361982863868,3.13950037708109E-14));
#565=CARTESIAN_POINT('',(6.69999999999984,23.736894127946,3.13950037708109E-14));
#566=CARTESIAN_POINT('',(6.69999999999984,21.4361982863868,3.13950037708109E-14));
#567=CARTESIAN_POINT('',(-9.71470146044265,23.6361982863868,-4.55213565646129E-14));
#568=CARTESIAN_POINT('',(6.69999999999984,21.4361982863868,3.13950037708109E-14));
#569=CARTESIAN_POINT('',(6.69999999999984,22.0361982863868,3.13950037708109E-14));
#570=CARTESIAN_POINT('',(6.69999999999976,22.0361982863868,18.6147014604425));
#571=CARTESIAN_POINT('',(-12.3147014604427,22.0361982863868,-5.77044923562712E-14));
#572=CARTESIAN_POINT('',(6.69999999999984,22.0361982863868,3.13950037708109E-14));
#573=CARTESIAN_POINT('',(6.69999999999977,22.0361982863868,16.8147014604425));
#574=CARTESIAN_POINT('',(-10.3147014604427,22.0361982863868,-4.8332849439611E-14));
#575=CARTESIAN_POINT('',(6.69999999999984,27.447853641496,3.13950037708109E-14));
#576=CARTESIAN_POINT('',(6.69999999999984,21.8361982863868,3.13950037708109E-14));
#577=CARTESIAN_POINT('',(6.69999999999976,21.8361982863868,17.0147014604425));
#578=CARTESIAN_POINT('',(6.69999999999984,21.8361982863868,3.13950037708109E-14));
#579=CARTESIAN_POINT('',(6.69999999999984,21.8361982863868,3.13950037708109E-14));
#580=CARTESIAN_POINT('',(6.69999999999976,21.8361982863868,18.4147014604425));
#581=CARTESIAN_POINT('',(6.69999999999984,21.8361982863868,3.13950037708109E-14));
#582=CARTESIAN_POINT('',(6.69999999999984,21.8361982863868,3.13950037708109E-14));
#583=CARTESIAN_POINT('',(6.69999999999984,21.8361982863868,3.13950037708109E-14));
#584=MECHANICAL_DESIGN_GEOMETRIC_PRESENTATION_REPRESENTATION('',(#36,#23,
#24,#25,#26,#27,#28,#29,#30,#31,#32,#33,#34),#585);
#585=(
GEOMETRIC_REPRESENTATION_CONTEXT(3)
GLOBAL_UNCERTAINTY_ASSIGNED_CONTEXT((#586))
GLOBAL_UNIT_ASSIGNED_CONTEXT((#592,#588,#587))
REPRESENTATION_CONTEXT('Twister_Cup_Top_m','TOP_LEVEL_ASSEMBLY_PART')
);
#586=UNCERTAINTY_MEASURE_WITH_UNIT(LENGTH_MEASURE(2.E-5),#592,
'DISTANCE_ACCURACY_VALUE','Maximum Tolerance applied to model');
#587=(
NAMED_UNIT(*)
SI_UNIT($,.STERADIAN.)
SOLID_ANGLE_UNIT()
);
#588=(
CONVERSION_BASED_UNIT('DEGREE',#590)
NAMED_UNIT(#589)
PLANE_ANGLE_UNIT()
);
#589=DIMENSIONAL_EXPONENTS(0.,0.,0.,0.,0.,0.,0.);
#590=PLANE_ANGLE_MEASURE_WITH_UNIT(PLANE_ANGLE_MEASURE(0.0174532925),#591);
#591=(
NAMED_UNIT(*)
PLANE_ANGLE_UNIT()
SI_UNIT($,.RADIAN.)
);
#592=(
LENGTH_UNIT()
NAMED_UNIT(*)
SI_UNIT(.MILLI.,.METRE.)
);
ENDSEC;
END-ISO-10303-21;
