ISO-10303-21;
HEADER;
/* Generated by software containing ST-Developer
 * from STEP Tools, Inc. (www.steptools.com) 
 */
/* OPTION: using custom schema-name function */

FILE_DESCRIPTION(
/* description */ (''),
/* implementation_level */ '2;1');

FILE_NAME(
/* name */ 'twister_skin.stp',
/* time_stamp */ '2026-09-08T16:15:54+02:00',
/* author */ (''),
/* organization */ (''),
/* preprocessor_version */ 'ST-DEVELOPER v20',
/* originating_system */ 'SIEMENS PLM Software NX2406.3002',
/* authorisation */ '');

FILE_SCHEMA (('AUTOMOTIVE_DESIGN { 1 0 10303 214 3 1 1 1 }'));
ENDSEC;

DATA;
#10=SHAPE_REPRESENTATION_RELATIONSHIP('None',
'relationship between twister_skin-None and twister_skin-None',#22,#11);
#11=ADVANCED_BREP_SHAPE_REPRESENTATION('twister_skin-None',(#32),#439);
#12=SHAPE_DEFINITION_REPRESENTATION(#13,#22);
#13=PRODUCT_DEFINITION_SHAPE('','',#14);
#14=PRODUCT_DEFINITION(' ','',#16,#15);
#15=PRODUCT_DEFINITION_CONTEXT('part definition',#21,'design');
#16=PRODUCT_DEFINITION_FORMATION_WITH_SPECIFIED_SOURCE(' ',' ',#18,
 .NOT_KNOWN.);
#17=PRODUCT_RELATED_PRODUCT_CATEGORY('part','',(#18));
#18=PRODUCT('twister_skin','twister_skin',' ',(#19));
#19=PRODUCT_CONTEXT(' ',#21,'mechanical');
#20=APPLICATION_PROTOCOL_DEFINITION('international standard',
'automotive_design',2010,#21);
#21=APPLICATION_CONTEXT(
'core data for automotive mechanical design processes');
#22=SHAPE_REPRESENTATION('twister_skin-None',(#254),#439);
#23=PRESENTATION_LAYER_ASSIGNMENT('1','Layer 1',(#32));
#24=STYLED_ITEM('',(#25),#32);
#25=PRESENTATION_STYLE_ASSIGNMENT((#26));
#26=SURFACE_STYLE_USAGE(.BOTH.,#27);
#27=SURFACE_SIDE_STYLE('',(#28));
#28=SURFACE_STYLE_FILL_AREA(#29);
#29=FILL_AREA_STYLE('',(#30));
#30=FILL_AREA_STYLE_COLOUR('',#31);
#31=COLOUR_RGB('medium steel',0.596078431372549,0.666666666666667,0.686274509803922);
#32=MANIFOLD_SOLID_BREP('',#33);
#33=CLOSED_SHELL('',(#48,#49,#50,#51,#52,#53,#54,#55,#56,#57,#58,#59,#60,
#61,#62,#63,#64,#65,#66,#67));
#34=PLANE('',#265);
#35=PLANE('',#281);
#36=PLANE('',#285);
#37=CONICAL_SURFACE('',#261,16.5876523027603,89.7555577773418);
#38=TOROIDAL_SURFACE('',#259,16.5910653496996,0.8);
#39=TOROIDAL_SURFACE('',#263,17.78891399389,0.5);
#40=TOROIDAL_SURFACE('',#267,15.78891399389,1.);
#41=TOROIDAL_SURFACE('',#271,14.28891399389,0.5);
#42=TOROIDAL_SURFACE('',#275,14.28891399389,0.5);
#43=TOROIDAL_SURFACE('',#279,15.78891399389,1.);
#44=TOROIDAL_SURFACE('',#283,17.7899896717948,0.495737133544157);
#45=TOROIDAL_SURFACE('',#287,16.5910653496995,0.799999999999997);
#46=TOROIDAL_SURFACE('',#291,14.2910653496995,1.5);
#47=TOROIDAL_SURFACE('',#294,14.2910653496995,1.5);
#48=ADVANCED_FACE('',(#74,#75),#68,.T.);
#49=ADVANCED_FACE('',(#76,#77),#38,.F.);
#50=ADVANCED_FACE('',(#78,#79),#37,.T.);
#51=ADVANCED_FACE('',(#80,#81),#39,.T.);
#52=ADVANCED_FACE('',(#82,#83),#34,.F.);
#53=ADVANCED_FACE('',(#84,#85),#40,.T.);
#54=ADVANCED_FACE('',(#86,#87),#69,.F.);
#55=ADVANCED_FACE('',(#88,#89),#41,.F.);
#56=ADVANCED_FACE('',(#90,#91),#70,.T.);
#57=ADVANCED_FACE('',(#92,#93),#42,.F.);
#58=ADVANCED_FACE('',(#94,#95),#71,.F.);
#59=ADVANCED_FACE('',(#96,#97),#43,.T.);
#60=ADVANCED_FACE('',(#98,#99),#35,.F.);
#61=ADVANCED_FACE('',(#100,#101),#44,.T.);
#62=ADVANCED_FACE('',(#102,#103),#36,.F.);
#63=ADVANCED_FACE('',(#104,#105),#45,.F.);
#64=ADVANCED_FACE('',(#106,#107),#72,.T.);
#65=ADVANCED_FACE('',(#108,#109),#46,.T.);
#66=ADVANCED_FACE('',(#110,#111),#73,.F.);
#67=ADVANCED_FACE('',(#112,#113),#47,.T.);
#68=CYLINDRICAL_SURFACE('',#257,15.7910653496996);
#69=CYLINDRICAL_SURFACE('',#269,14.78891399389);
#70=CYLINDRICAL_SURFACE('',#273,13.78891399389);
#71=CYLINDRICAL_SURFACE('',#277,14.78891399389);
#72=CYLINDRICAL_SURFACE('',#289,15.7910653496995);
#73=CYLINDRICAL_SURFACE('',#293,12.7910653496995);
#74=FACE_BOUND('',#114,.T.);
#75=FACE_BOUND('',#115,.T.);
#76=FACE_BOUND('',#116,.T.);
#77=FACE_BOUND('',#117,.T.);
#78=FACE_BOUND('',#118,.T.);
#79=FACE_BOUND('',#119,.T.);
#80=FACE_BOUND('',#120,.T.);
#81=FACE_BOUND('',#121,.T.);
#82=FACE_BOUND('',#122,.T.);
#83=FACE_BOUND('',#123,.T.);
#84=FACE_BOUND('',#124,.T.);
#85=FACE_BOUND('',#125,.T.);
#86=FACE_BOUND('',#126,.T.);
#87=FACE_BOUND('',#127,.T.);
#88=FACE_BOUND('',#128,.T.);
#89=FACE_BOUND('',#129,.T.);
#90=FACE_BOUND('',#130,.T.);
#91=FACE_BOUND('',#131,.T.);
#92=FACE_BOUND('',#132,.T.);
#93=FACE_BOUND('',#133,.T.);
#94=FACE_BOUND('',#134,.T.);
#95=FACE_BOUND('',#135,.T.);
#96=FACE_BOUND('',#136,.T.);
#97=FACE_BOUND('',#137,.T.);
#98=FACE_BOUND('',#138,.T.);
#99=FACE_BOUND('',#139,.T.);
#100=FACE_BOUND('',#140,.T.);
#101=FACE_BOUND('',#141,.T.);
#102=FACE_BOUND('',#142,.T.);
#103=FACE_BOUND('',#143,.T.);
#104=FACE_BOUND('',#144,.T.);
#105=FACE_BOUND('',#145,.T.);
#106=FACE_BOUND('',#146,.T.);
#107=FACE_BOUND('',#147,.T.);
#108=FACE_BOUND('',#148,.T.);
#109=FACE_BOUND('',#149,.T.);
#110=FACE_BOUND('',#150,.T.);
#111=FACE_BOUND('',#151,.T.);
#112=FACE_BOUND('',#152,.T.);
#113=FACE_BOUND('',#153,.T.);
#114=EDGE_LOOP('',(#154));
#115=EDGE_LOOP('',(#155));
#116=EDGE_LOOP('',(#156));
#117=EDGE_LOOP('',(#157));
#118=EDGE_LOOP('',(#158));
#119=EDGE_LOOP('',(#159));
#120=EDGE_LOOP('',(#160));
#121=EDGE_LOOP('',(#161));
#122=EDGE_LOOP('',(#162));
#123=EDGE_LOOP('',(#163));
#124=EDGE_LOOP('',(#164));
#125=EDGE_LOOP('',(#165));
#126=EDGE_LOOP('',(#166));
#127=EDGE_LOOP('',(#167));
#128=EDGE_LOOP('',(#168));
#129=EDGE_LOOP('',(#169));
#130=EDGE_LOOP('',(#170));
#131=EDGE_LOOP('',(#171));
#132=EDGE_LOOP('',(#172));
#133=EDGE_LOOP('',(#173));
#134=EDGE_LOOP('',(#174));
#135=EDGE_LOOP('',(#175));
#136=EDGE_LOOP('',(#176));
#137=EDGE_LOOP('',(#177));
#138=EDGE_LOOP('',(#178));
#139=EDGE_LOOP('',(#179));
#140=EDGE_LOOP('',(#180));
#141=EDGE_LOOP('',(#181));
#142=EDGE_LOOP('',(#182));
#143=EDGE_LOOP('',(#183));
#144=EDGE_LOOP('',(#184));
#145=EDGE_LOOP('',(#185));
#146=EDGE_LOOP('',(#186));
#147=EDGE_LOOP('',(#187));
#148=EDGE_LOOP('',(#188));
#149=EDGE_LOOP('',(#189));
#150=EDGE_LOOP('',(#190));
#151=EDGE_LOOP('',(#191));
#152=EDGE_LOOP('',(#192));
#153=EDGE_LOOP('',(#193));
#154=ORIENTED_EDGE('',*,*,#214,.F.);
#155=ORIENTED_EDGE('',*,*,#215,.T.);
#156=ORIENTED_EDGE('',*,*,#216,.F.);
#157=ORIENTED_EDGE('',*,*,#214,.T.);
#158=ORIENTED_EDGE('',*,*,#217,.F.);
#159=ORIENTED_EDGE('',*,*,#216,.T.);
#160=ORIENTED_EDGE('',*,*,#218,.F.);
#161=ORIENTED_EDGE('',*,*,#217,.T.);
#162=ORIENTED_EDGE('',*,*,#219,.F.);
#163=ORIENTED_EDGE('',*,*,#218,.T.);
#164=ORIENTED_EDGE('',*,*,#220,.F.);
#165=ORIENTED_EDGE('',*,*,#219,.T.);
#166=ORIENTED_EDGE('',*,*,#221,.F.);
#167=ORIENTED_EDGE('',*,*,#220,.T.);
#168=ORIENTED_EDGE('',*,*,#222,.F.);
#169=ORIENTED_EDGE('',*,*,#221,.T.);
#170=ORIENTED_EDGE('',*,*,#223,.F.);
#171=ORIENTED_EDGE('',*,*,#222,.T.);
#172=ORIENTED_EDGE('',*,*,#224,.F.);
#173=ORIENTED_EDGE('',*,*,#223,.T.);
#174=ORIENTED_EDGE('',*,*,#225,.F.);
#175=ORIENTED_EDGE('',*,*,#224,.T.);
#176=ORIENTED_EDGE('',*,*,#226,.F.);
#177=ORIENTED_EDGE('',*,*,#225,.T.);
#178=ORIENTED_EDGE('',*,*,#227,.F.);
#179=ORIENTED_EDGE('',*,*,#226,.T.);
#180=ORIENTED_EDGE('',*,*,#228,.F.);
#181=ORIENTED_EDGE('',*,*,#227,.T.);
#182=ORIENTED_EDGE('',*,*,#229,.F.);
#183=ORIENTED_EDGE('',*,*,#228,.T.);
#184=ORIENTED_EDGE('',*,*,#230,.F.);
#185=ORIENTED_EDGE('',*,*,#229,.T.);
#186=ORIENTED_EDGE('',*,*,#231,.F.);
#187=ORIENTED_EDGE('',*,*,#230,.T.);
#188=ORIENTED_EDGE('',*,*,#232,.F.);
#189=ORIENTED_EDGE('',*,*,#231,.T.);
#190=ORIENTED_EDGE('',*,*,#233,.F.);
#191=ORIENTED_EDGE('',*,*,#232,.T.);
#192=ORIENTED_EDGE('',*,*,#215,.F.);
#193=ORIENTED_EDGE('',*,*,#233,.T.);
#194=VERTEX_POINT('',#379);
#195=VERTEX_POINT('',#381);
#196=VERTEX_POINT('',#384);
#197=VERTEX_POINT('',#387);
#198=VERTEX_POINT('',#390);
#199=VERTEX_POINT('',#393);
#200=VERTEX_POINT('',#396);
#201=VERTEX_POINT('',#399);
#202=VERTEX_POINT('',#402);
#203=VERTEX_POINT('',#405);
#204=VERTEX_POINT('',#408);
#205=VERTEX_POINT('',#411);
#206=VERTEX_POINT('',#414);
#207=VERTEX_POINT('',#417);
#208=VERTEX_POINT('',#420);
#209=VERTEX_POINT('',#423);
#210=VERTEX_POINT('',#426);
#211=VERTEX_POINT('',#429);
#212=VERTEX_POINT('',#432);
#213=VERTEX_POINT('',#435);
#214=EDGE_CURVE('',#194,#194,#234,.T.);
#215=EDGE_CURVE('',#195,#195,#235,.T.);
#216=EDGE_CURVE('',#196,#196,#236,.T.);
#217=EDGE_CURVE('',#197,#197,#237,.T.);
#218=EDGE_CURVE('',#198,#198,#238,.T.);
#219=EDGE_CURVE('',#199,#199,#239,.T.);
#220=EDGE_CURVE('',#200,#200,#240,.T.);
#221=EDGE_CURVE('',#201,#201,#241,.T.);
#222=EDGE_CURVE('',#202,#202,#242,.T.);
#223=EDGE_CURVE('',#203,#203,#243,.T.);
#224=EDGE_CURVE('',#204,#204,#244,.T.);
#225=EDGE_CURVE('',#205,#205,#245,.T.);
#226=EDGE_CURVE('',#206,#206,#246,.T.);
#227=EDGE_CURVE('',#207,#207,#247,.T.);
#228=EDGE_CURVE('',#208,#208,#248,.T.);
#229=EDGE_CURVE('',#209,#209,#249,.T.);
#230=EDGE_CURVE('',#210,#210,#250,.T.);
#231=EDGE_CURVE('',#211,#211,#251,.T.);
#232=EDGE_CURVE('',#212,#212,#252,.T.);
#233=EDGE_CURVE('',#213,#213,#253,.T.);
#234=CIRCLE('',#255,15.7910653496996);
#235=CIRCLE('',#256,15.7910653496996);
#236=CIRCLE('',#258,16.5876523027603);
#237=CIRCLE('',#260,17.791047148227);
#238=CIRCLE('',#262,17.78891399389);
#239=CIRCLE('',#264,15.78891399389);
#240=CIRCLE('',#266,14.78891399389);
#241=CIRCLE('',#268,14.78891399389);
#242=CIRCLE('',#270,13.78891399389);
#243=CIRCLE('',#272,13.78891399389);
#244=CIRCLE('',#274,14.78891399389);
#245=CIRCLE('',#276,14.78891399389);
#246=CIRCLE('',#278,15.78891399389);
#247=CIRCLE('',#280,17.78891399389);
#248=CIRCLE('',#282,17.7910653496995);
#249=CIRCLE('',#284,16.5910653496995);
#250=CIRCLE('',#286,15.7910653496995);
#251=CIRCLE('',#288,15.7910653496995);
#252=CIRCLE('',#290,12.7910653496995);
#253=CIRCLE('',#292,12.7910653496996);
#254=AXIS2_PLACEMENT_3D('',#377,#295,#296);
#255=AXIS2_PLACEMENT_3D('',#378,#297,#298);
#256=AXIS2_PLACEMENT_3D('',#380,#299,#300);
#257=AXIS2_PLACEMENT_3D('',#382,#301,#302);
#258=AXIS2_PLACEMENT_3D('',#383,#303,#304);
#259=AXIS2_PLACEMENT_3D('',#385,#305,#306);
#260=AXIS2_PLACEMENT_3D('',#386,#307,#308);
#261=AXIS2_PLACEMENT_3D('',#388,#309,#310);
#262=AXIS2_PLACEMENT_3D('',#389,#311,#312);
#263=AXIS2_PLACEMENT_3D('',#391,#313,#314);
#264=AXIS2_PLACEMENT_3D('',#392,#315,#316);
#265=AXIS2_PLACEMENT_3D('',#394,#317,#318);
#266=AXIS2_PLACEMENT_3D('',#395,#319,#320);
#267=AXIS2_PLACEMENT_3D('',#397,#321,#322);
#268=AXIS2_PLACEMENT_3D('',#398,#323,#324);
#269=AXIS2_PLACEMENT_3D('',#400,#325,#326);
#270=AXIS2_PLACEMENT_3D('',#401,#327,#328);
#271=AXIS2_PLACEMENT_3D('',#403,#329,#330);
#272=AXIS2_PLACEMENT_3D('',#404,#331,#332);
#273=AXIS2_PLACEMENT_3D('',#406,#333,#334);
#274=AXIS2_PLACEMENT_3D('',#407,#335,#336);
#275=AXIS2_PLACEMENT_3D('',#409,#337,#338);
#276=AXIS2_PLACEMENT_3D('',#410,#339,#340);
#277=AXIS2_PLACEMENT_3D('',#412,#341,#342);
#278=AXIS2_PLACEMENT_3D('',#413,#343,#344);
#279=AXIS2_PLACEMENT_3D('',#415,#345,#346);
#280=AXIS2_PLACEMENT_3D('',#416,#347,#348);
#281=AXIS2_PLACEMENT_3D('',#418,#349,#350);
#282=AXIS2_PLACEMENT_3D('',#419,#351,#352);
#283=AXIS2_PLACEMENT_3D('',#421,#353,#354);
#284=AXIS2_PLACEMENT_3D('',#422,#355,#356);
#285=AXIS2_PLACEMENT_3D('',#424,#357,#358);
#286=AXIS2_PLACEMENT_3D('',#425,#359,#360);
#287=AXIS2_PLACEMENT_3D('',#427,#361,#362);
#288=AXIS2_PLACEMENT_3D('',#428,#363,#364);
#289=AXIS2_PLACEMENT_3D('',#430,#365,#366);
#290=AXIS2_PLACEMENT_3D('',#431,#367,#368);
#291=AXIS2_PLACEMENT_3D('',#433,#369,#370);
#292=AXIS2_PLACEMENT_3D('',#434,#371,#372);
#293=AXIS2_PLACEMENT_3D('',#436,#373,#374);
#294=AXIS2_PLACEMENT_3D('',#437,#375,#376);
#295=DIRECTION('',(0.,0.,1.));
#296=DIRECTION('',(1.,0.,0.));
#297=DIRECTION('',(0.,0.,-1.));
#298=DIRECTION('',(-1.,0.,0.));
#299=DIRECTION('',(0.,0.,-1.));
#300=DIRECTION('',(-1.,0.,0.));
#301=DIRECTION('',(0.,0.,-1.));
#302=DIRECTION('',(-1.,0.,0.));
#303=DIRECTION('',(0.,0.,-1.));
#304=DIRECTION('',(-1.,0.,0.));
#305=DIRECTION('',(0.,0.,-1.));
#306=DIRECTION('',(-1.,0.,0.));
#307=DIRECTION('',(0.,0.,-1.));
#308=DIRECTION('',(-1.,0.,0.));
#309=DIRECTION('',(0.,0.,-1.));
#310=DIRECTION('',(-1.,0.,1.08693513786625E-19));
#311=DIRECTION('',(0.,0.,-1.));
#312=DIRECTION('',(-1.,0.,0.));
#313=DIRECTION('',(0.,0.,-1.));
#314=DIRECTION('',(-1.,0.,0.));
#315=DIRECTION('',(0.,0.,-1.));
#316=DIRECTION('',(-1.,0.,0.));
#317=DIRECTION('',(0.,0.,1.));
#318=DIRECTION('',(1.,0.,0.));
#319=DIRECTION('',(0.,0.,-1.));
#320=DIRECTION('',(-1.,0.,0.));
#321=DIRECTION('',(0.,0.,-1.));
#322=DIRECTION('',(-1.,0.,0.));
#323=DIRECTION('',(0.,0.,-1.));
#324=DIRECTION('',(-1.,0.,0.));
#325=DIRECTION('',(0.,0.,-1.));
#326=DIRECTION('',(-1.,0.,0.));
#327=DIRECTION('',(0.,0.,-1.));
#328=DIRECTION('',(-1.,0.,0.));
#329=DIRECTION('',(0.,0.,-1.));
#330=DIRECTION('',(-1.,0.,0.));
#331=DIRECTION('',(0.,0.,-1.));
#332=DIRECTION('',(-1.,0.,0.));
#333=DIRECTION('',(0.,0.,-1.));
#334=DIRECTION('',(-1.,0.,0.));
#335=DIRECTION('',(0.,0.,-1.));
#336=DIRECTION('',(-1.,0.,0.));
#337=DIRECTION('',(0.,0.,-1.));
#338=DIRECTION('',(-1.,0.,0.));
#339=DIRECTION('',(0.,0.,-1.));
#340=DIRECTION('',(-1.,0.,0.));
#341=DIRECTION('',(0.,0.,-1.));
#342=DIRECTION('',(-1.,0.,0.));
#343=DIRECTION('',(0.,0.,-1.));
#344=DIRECTION('',(-1.,0.,0.));
#345=DIRECTION('',(0.,0.,-1.));
#346=DIRECTION('',(-1.,0.,0.));
#347=DIRECTION('',(0.,0.,-1.));
#348=DIRECTION('',(-1.,0.,0.));
#349=DIRECTION('',(0.,0.,-1.));
#350=DIRECTION('',(-1.,0.,0.));
#351=DIRECTION('',(0.,0.,-1.));
#352=DIRECTION('',(-1.,0.,0.));
#353=DIRECTION('',(0.,0.,-1.));
#354=DIRECTION('',(-1.,0.,0.));
#355=DIRECTION('',(0.,0.,-1.));
#356=DIRECTION('',(-1.,0.,0.));
#357=DIRECTION('',(0.,0.,1.));
#358=DIRECTION('',(1.,0.,0.));
#359=DIRECTION('',(0.,0.,-1.));
#360=DIRECTION('',(-1.,0.,0.));
#361=DIRECTION('',(0.,0.,-1.));
#362=DIRECTION('',(-1.,0.,0.));
#363=DIRECTION('',(0.,0.,-1.));
#364=DIRECTION('',(-1.,0.,0.));
#365=DIRECTION('',(0.,0.,-1.));
#366=DIRECTION('',(-1.,0.,0.));
#367=DIRECTION('',(0.,0.,-1.));
#368=DIRECTION('',(-1.,0.,0.));
#369=DIRECTION('',(0.,0.,-1.));
#370=DIRECTION('',(-1.,0.,0.));
#371=DIRECTION('',(0.,0.,-1.));
#372=DIRECTION('',(-1.,0.,0.));
#373=DIRECTION('',(0.,0.,-1.));
#374=DIRECTION('',(-1.,0.,0.));
#375=DIRECTION('',(0.,0.,-1.));
#376=DIRECTION('',(-1.,0.,0.));
#377=CARTESIAN_POINT('',(0.,0.,0.));
#378=CARTESIAN_POINT('',(0.,0.,0.805126818978336));
#379=CARTESIAN_POINT('',(-15.7910653496996,0.,0.805126818978336));
#380=CARTESIAN_POINT('',(0.,0.,5.00853261632382));
#381=CARTESIAN_POINT('',(-15.7910653496996,0.,5.00853261632382));
#382=CARTESIAN_POINT('',(0.,0.,0.));
#383=CARTESIAN_POINT('',(0.,0.,0.00513409956734662));
#384=CARTESIAN_POINT('',(-16.5876523027603,0.,0.00513409956734662));
#385=CARTESIAN_POINT('',(0.,0.,0.805126818978336));
#386=CARTESIAN_POINT('',(0.,0.,-1.02426883757245E-9));
#387=CARTESIAN_POINT('',(-17.791047148227,0.,-1.02426883757245E-9));
#388=CARTESIAN_POINT('',(0.,0.,0.00513409956734662));
#389=CARTESIAN_POINT('',(0.,0.,-0.999995450656137));
#390=CARTESIAN_POINT('',(-17.78891399389,0.,-0.999995450656137));
#391=CARTESIAN_POINT('',(0.,0.,-0.499995450656137));
#392=CARTESIAN_POINT('',(0.,0.,-0.999995450656136));
#393=CARTESIAN_POINT('',(-15.78891399389,0.,-0.999995450656136));
#394=CARTESIAN_POINT('',(-17.78891399389,0.,-0.999995450656137));
#395=CARTESIAN_POINT('',(0.,0.,4.54934386336908E-6));
#396=CARTESIAN_POINT('',(-14.78891399389,0.,4.54934386336908E-6));
#397=CARTESIAN_POINT('',(0.,0.,4.54934386343031E-6));
#398=CARTESIAN_POINT('',(0.,0.,5.00000454934264));
#399=CARTESIAN_POINT('',(-14.78891399389,0.,5.00000454934264));
#400=CARTESIAN_POINT('',(0.,0.,0.));
#401=CARTESIAN_POINT('',(0.,0.,5.00000454934386));
#402=CARTESIAN_POINT('',(-13.78891399389,0.,5.00000454934386));
#403=CARTESIAN_POINT('',(0.,0.,5.00000454934386));
#404=CARTESIAN_POINT('',(0.,0.,-18.2299954506561));
#405=CARTESIAN_POINT('',(-13.78891399389,0.,-18.2299954506561));
#406=CARTESIAN_POINT('',(0.,0.,0.));
#407=CARTESIAN_POINT('',(0.,0.,-18.2299954506561));
#408=CARTESIAN_POINT('',(-14.78891399389,0.,-18.2299954506561));
#409=CARTESIAN_POINT('',(0.,0.,-18.2299954506561));
#410=CARTESIAN_POINT('',(0.,0.,-13.2299954506561));
#411=CARTESIAN_POINT('',(-14.78891399389,0.,-13.2299954506561));
#412=CARTESIAN_POINT('',(0.,0.,0.));
#413=CARTESIAN_POINT('',(0.,0.,-12.2299954506561));
#414=CARTESIAN_POINT('',(-15.78891399389,0.,-12.2299954506561));
#415=CARTESIAN_POINT('',(0.,0.,-13.2299954506561));
#416=CARTESIAN_POINT('',(0.,0.,-12.2299954506561));
#417=CARTESIAN_POINT('',(-17.78891399389,0.,-12.2299954506561));
#418=CARTESIAN_POINT('',(-15.78891399389,0.,-12.2299954506561));
#419=CARTESIAN_POINT('',(0.,0.,-13.2214673836762));
#420=CARTESIAN_POINT('',(-17.7910653496995,0.,-13.2214673836762));
#421=CARTESIAN_POINT('',(0.,0.,-12.7257314171662));
#422=CARTESIAN_POINT('',(0.,0.,-13.2214673836762));
#423=CARTESIAN_POINT('',(-16.5910653496995,0.,-13.2214673836762));
#424=CARTESIAN_POINT('',(-17.7910653496995,0.,-13.2214673836762));
#425=CARTESIAN_POINT('',(0.,0.,-14.0214673836762));
#426=CARTESIAN_POINT('',(-15.7910653496995,0.,-14.0214673836762));
#427=CARTESIAN_POINT('',(0.,0.,-14.0214673836762));
#428=CARTESIAN_POINT('',(0.,0.,-18.2214673836762));
#429=CARTESIAN_POINT('',(-15.7910653496995,0.,-18.2214673836762));
#430=CARTESIAN_POINT('',(0.,0.,0.));
#431=CARTESIAN_POINT('',(0.,0.,-18.2214673836762));
#432=CARTESIAN_POINT('',(-12.7910653496995,0.,-18.2214673836762));
#433=CARTESIAN_POINT('',(0.,0.,-18.2214673836762));
#434=CARTESIAN_POINT('',(0.,0.,5.00853261632382));
#435=CARTESIAN_POINT('',(-12.7910653496996,0.,5.00853261632382));
#436=CARTESIAN_POINT('',(0.,0.,0.));
#437=CARTESIAN_POINT('',(0.,0.,5.00853261632383));
#438=MECHANICAL_DESIGN_GEOMETRIC_PRESENTATION_REPRESENTATION('',(#24),#439);
#439=(
GEOMETRIC_REPRESENTATION_CONTEXT(3)
GLOBAL_UNCERTAINTY_ASSIGNED_CONTEXT((#440))
GLOBAL_UNIT_ASSIGNED_CONTEXT((#446,#442,#441))
REPRESENTATION_CONTEXT('twister_skin','TOP_LEVEL_ASSEMBLY_PART')
);
#440=UNCERTAINTY_MEASURE_WITH_UNIT(LENGTH_MEASURE(2.E-5),#446,
'DISTANCE_ACCURACY_VALUE','Maximum Tolerance applied to model');
#441=(
NAMED_UNIT(*)
SI_UNIT($,.STERADIAN.)
SOLID_ANGLE_UNIT()
);
#442=(
CONVERSION_BASED_UNIT('DEGREE',#444)
NAMED_UNIT(#443)
PLANE_ANGLE_UNIT()
);
#443=DIMENSIONAL_EXPONENTS(0.,0.,0.,0.,0.,0.,0.);
#444=PLANE_ANGLE_MEASURE_WITH_UNIT(PLANE_ANGLE_MEASURE(0.0174532925),#445);
#445=(
NAMED_UNIT(*)
PLANE_ANGLE_UNIT()
SI_UNIT($,.RADIAN.)
);
#446=(
LENGTH_UNIT()
NAMED_UNIT(*)
SI_UNIT(.MILLI.,.METRE.)
);
ENDSEC;
END-ISO-10303-21;
