ISO-10303-21;
HEADER;
/* Generated by software containing ST-Developer
 * from STEP Tools, Inc. (www.steptools.com) 
 */
/* OPTION: using custom schema-name function */

FILE_DESCRIPTION(
/* description */ (''),
/* implementation_level */ '2;1');

FILE_NAME(
/* name */ 'cup_valve_button.stp',
/* time_stamp */ '2026-09-08T16:10:16+02:00',
/* author */ (''),
/* organization */ (''),
/* preprocessor_version */ 'ST-DEVELOPER v20',
/* originating_system */ 'SIEMENS PLM Software NX2406.3002',
/* authorisation */ '');

FILE_SCHEMA (('AUTOMOTIVE_DESIGN { 1 0 10303 214 3 1 1 1 }'));
ENDSEC;

DATA;
#10=SHAPE_REPRESENTATION_RELATIONSHIP('None',
'relationship between cup_valve_button-None and cup_valve_button-None',
#22,#11);
#11=ADVANCED_BREP_SHAPE_REPRESENTATION('cup_valve_button-None',(#49,#50),
#622);
#12=SHAPE_DEFINITION_REPRESENTATION(#13,#22);
#13=PRODUCT_DEFINITION_SHAPE('','',#14);
#14=PRODUCT_DEFINITION(' ','',#16,#15);
#15=PRODUCT_DEFINITION_CONTEXT('part definition',#21,'design');
#16=PRODUCT_DEFINITION_FORMATION_WITH_SPECIFIED_SOURCE(' ',' ',#18,
 .NOT_KNOWN.);
#17=PRODUCT_RELATED_PRODUCT_CATEGORY('part','',(#18));
#18=PRODUCT('cup_valve_button','cup_valve_button',' ',(#19));
#19=PRODUCT_CONTEXT(' ',#21,'mechanical');
#20=APPLICATION_PROTOCOL_DEFINITION('international standard',
'automotive_design',2010,#21);
#21=APPLICATION_CONTEXT(
'core data for automotive mechanical design processes');
#22=SHAPE_REPRESENTATION('cup_valve_button-None',(#262),#622);
#23=TOROIDAL_SURFACE('',#286,4.8,0.2);
#24=TOROIDAL_SURFACE('',#287,4.8,0.2);
#25=OVER_RIDING_STYLED_ITEM('',(#30),#79,#27);
#26=PRESENTATION_LAYER_ASSIGNMENT('1','Layer 1',(#49,#50));
#27=STYLED_ITEM('',(#29),#49);
#28=STYLED_ITEM('',(#31),#50);
#29=PRESENTATION_STYLE_ASSIGNMENT((#32));
#30=PRESENTATION_STYLE_ASSIGNMENT((#33));
#31=PRESENTATION_STYLE_ASSIGNMENT((#34));
#32=SURFACE_STYLE_USAGE(.BOTH.,#35);
#33=SURFACE_STYLE_USAGE(.BOTH.,#36);
#34=SURFACE_STYLE_USAGE(.BOTH.,#37);
#35=SURFACE_SIDE_STYLE('',(#38));
#36=SURFACE_SIDE_STYLE('',(#39));
#37=SURFACE_SIDE_STYLE('',(#40));
#38=SURFACE_STYLE_FILL_AREA(#41);
#39=SURFACE_STYLE_FILL_AREA(#42);
#40=SURFACE_STYLE_FILL_AREA(#43);
#41=FILL_AREA_STYLE('',(#44));
#42=FILL_AREA_STYLE('',(#45));
#43=FILL_AREA_STYLE('',(#46));
#44=FILL_AREA_STYLE_COLOUR('',#47);
#45=FILL_AREA_STYLE_COLOUR('',#48);
#46=FILL_AREA_STYLE_COLOUR('',#47);
#47=COLOUR_RGB('medium steel',0.596078431372549,0.666666666666667,0.686274509803922);
#48=COLOUR_RGB('medium royal',0.2,0.4,0.8);
#49=MANIFOLD_SOLID_BREP('',#51);
#50=MANIFOLD_SOLID_BREP('',#52);
#51=CLOSED_SHELL('',(#73,#74,#75,#76,#77,#78,#79,#80,#81,#82,#83));
#52=CLOSED_SHELL('',(#84,#85,#86,#87,#88));
#53=SURFACE_OF_REVOLUTION('',#261,#54);
#54=AXIS1_PLACEMENT('',#583,#322);
#55=(
BOUNDED_SURFACE()
B_SPLINE_SURFACE(3,3,((#531,#532,#533,#534),(#535,#536,#537,#538),(#539,
#540,#541,#542),(#543,#544,#545,#546)),.UNSPECIFIED.,.F.,.F.,.F.)
B_SPLINE_SURFACE_WITH_KNOTS((4,4),(4,4),(0.,1.),(0.,1.),.UNSPECIFIED.)
GEOMETRIC_REPRESENTATION_ITEM()
RATIONAL_B_SPLINE_SURFACE(((1.,0.916123750958606,0.916123750958606,1.),
(1.,0.916123750958606,0.916123750958606,1.),(1.,0.916123750958606,0.916123750958606,
1.),(1.,0.916123750958606,0.916123750958606,1.)))
REPRESENTATION_ITEM('')
SURFACE()
);
#56=(
BOUNDED_SURFACE()
B_SPLINE_SURFACE(3,2,((#584,#585,#586),(#587,#588,#589),(#590,#591,#592),
(#593,#594,#595)),.UNSPECIFIED.,.F.,.F.,.F.)
B_SPLINE_SURFACE_WITH_KNOTS((4,4),(3,3),(0.,1.),(0.,1.),.UNSPECIFIED.)
GEOMETRIC_REPRESENTATION_ITEM()
RATIONAL_B_SPLINE_SURFACE(((1.,0.844063844337715,1.),(1.,0.848265040641881,
1.),(1.,0.852814124651439,1.),(1.,0.857769759917424,1.)))
REPRESENTATION_ITEM('')
SURFACE()
);
#57=(
BOUNDED_SURFACE()
B_SPLINE_SURFACE(3,2,((#596,#597,#598),(#599,#600,#601),(#602,#603,#604),
(#605,#606,#607)),.UNSPECIFIED.,.F.,.F.,.F.)
B_SPLINE_SURFACE_WITH_KNOTS((4,4),(3,3),(0.,1.),(0.,1.),.UNSPECIFIED.)
GEOMETRIC_REPRESENTATION_ITEM()
RATIONAL_B_SPLINE_SURFACE(((1.,0.549950443877297,1.),(1.,0.544459110803956,
1.),(1.,0.538429325837978,1.),(1.,0.531692619707596,1.)))
REPRESENTATION_ITEM('')
SURFACE()
);
#58=FACE_BOUND('',#110,.T.);
#59=FACE_BOUND('',#111,.T.);
#60=FACE_BOUND('',#116,.T.);
#61=FACE_BOUND('',#117,.T.);
#62=FACE_BOUND('',#120,.T.);
#63=FACE_BOUND('',#121,.T.);
#64=FACE_BOUND('',#122,.T.);
#65=FACE_BOUND('',#123,.T.);
#66=CYLINDRICAL_SURFACE('',#272,4.5);
#67=CYLINDRICAL_SURFACE('',#278,3.5);
#68=CYLINDRICAL_SURFACE('',#281,5.);
#69=PLANE('',#271);
#70=PLANE('',#273);
#71=PLANE('',#283);
#72=PLANE('',#285);
#73=ADVANCED_FACE('',(#92),#89,.F.);
#74=ADVANCED_FACE('',(#93),#69,.F.);
#75=ADVANCED_FACE('',(#94),#66,.T.);
#76=ADVANCED_FACE('',(#95),#70,.T.);
#77=ADVANCED_FACE('',(#96),#90,.F.);
#78=ADVANCED_FACE('',(#97),#91,.T.);
#79=ADVANCED_FACE('',(#58,#59),#67,.T.);
#80=ADVANCED_FACE('',(#98),#55,.T.);
#81=ADVANCED_FACE('',(#99),#53,.T.);
#82=ADVANCED_FACE('',(#100),#56,.T.);
#83=ADVANCED_FACE('',(#101),#57,.T.);
#84=ADVANCED_FACE('',(#60,#61),#68,.T.);
#85=ADVANCED_FACE('',(#102),#71,.T.);
#86=ADVANCED_FACE('',(#103),#72,.F.);
#87=ADVANCED_FACE('',(#62,#63),#23,.T.);
#88=ADVANCED_FACE('',(#64,#65),#24,.T.);
#89=CONICAL_SURFACE('',#266,6.65201770151248,50.5839644347205);
#90=CONICAL_SURFACE('',#275,6.96593837279441,39.4160355652795);
#91=CONICAL_SURFACE('',#277,9.93037228468044,39.4160355652795);
#92=FACE_OUTER_BOUND('',#104,.T.);
#93=FACE_OUTER_BOUND('',#105,.T.);
#94=FACE_OUTER_BOUND('',#106,.T.);
#95=FACE_OUTER_BOUND('',#107,.T.);
#96=FACE_OUTER_BOUND('',#108,.T.);
#97=FACE_OUTER_BOUND('',#109,.T.);
#98=FACE_OUTER_BOUND('',#112,.T.);
#99=FACE_OUTER_BOUND('',#113,.T.);
#100=FACE_OUTER_BOUND('',#114,.T.);
#101=FACE_OUTER_BOUND('',#115,.T.);
#102=FACE_OUTER_BOUND('',#118,.T.);
#103=FACE_OUTER_BOUND('',#119,.T.);
#104=EDGE_LOOP('',(#137,#138,#139,#140,#141,#142,#143));
#105=EDGE_LOOP('',(#144,#145,#146,#147,#148));
#106=EDGE_LOOP('',(#149,#150,#151,#152));
#107=EDGE_LOOP('',(#153,#154,#155,#156));
#108=EDGE_LOOP('',(#157,#158,#159,#160,#161));
#109=EDGE_LOOP('',(#162,#163,#164,#165,#166,#167));
#110=EDGE_LOOP('',(#168,#169,#170));
#111=EDGE_LOOP('',(#171));
#112=EDGE_LOOP('',(#172));
#113=EDGE_LOOP('',(#173,#174,#175,#176,#177,#178));
#114=EDGE_LOOP('',(#179,#180,#181,#182));
#115=EDGE_LOOP('',(#183,#184,#185,#186));
#116=EDGE_LOOP('',(#187));
#117=EDGE_LOOP('',(#188));
#118=EDGE_LOOP('',(#189));
#119=EDGE_LOOP('',(#190));
#120=EDGE_LOOP('',(#191));
#121=EDGE_LOOP('',(#192));
#122=EDGE_LOOP('',(#193));
#123=EDGE_LOOP('',(#194));
#124=ELLIPSE('',#264,6.58201508343047,3.16663853317878);
#125=ELLIPSE('',#268,28.0748996741868,19.4683800146304);
#126=ELLIPSE('',#270,17.114972427462,11.8682806002727);
#127=CIRCLE('',#263,6.65201770151248);
#128=CIRCLE('',#265,10.438329689418);
#129=CIRCLE('',#267,4.5);
#130=CIRCLE('',#269,3.5);
#131=CIRCLE('',#274,7.13108329503152);
#132=CIRCLE('',#276,10.8262358606216);
#133=CIRCLE('',#279,5.);
#134=CIRCLE('',#280,5.);
#135=CIRCLE('',#282,4.8);
#136=CIRCLE('',#284,4.8);
#137=ORIENTED_EDGE('',*,*,#216,.F.);
#138=ORIENTED_EDGE('',*,*,#217,.T.);
#139=ORIENTED_EDGE('',*,*,#218,.T.);
#140=ORIENTED_EDGE('',*,*,#219,.F.);
#141=ORIENTED_EDGE('',*,*,#220,.F.);
#142=ORIENTED_EDGE('',*,*,#221,.F.);
#143=ORIENTED_EDGE('',*,*,#222,.T.);
#144=ORIENTED_EDGE('',*,*,#223,.T.);
#145=ORIENTED_EDGE('',*,*,#224,.T.);
#146=ORIENTED_EDGE('',*,*,#225,.T.);
#147=ORIENTED_EDGE('',*,*,#219,.T.);
#148=ORIENTED_EDGE('',*,*,#226,.T.);
#149=ORIENTED_EDGE('',*,*,#227,.F.);
#150=ORIENTED_EDGE('',*,*,#228,.F.);
#151=ORIENTED_EDGE('',*,*,#229,.F.);
#152=ORIENTED_EDGE('',*,*,#223,.F.);
#153=ORIENTED_EDGE('',*,*,#230,.F.);
#154=ORIENTED_EDGE('',*,*,#231,.T.);
#155=ORIENTED_EDGE('',*,*,#216,.T.);
#156=ORIENTED_EDGE('',*,*,#232,.T.);
#157=ORIENTED_EDGE('',*,*,#218,.F.);
#158=ORIENTED_EDGE('',*,*,#233,.T.);
#159=ORIENTED_EDGE('',*,*,#234,.T.);
#160=ORIENTED_EDGE('',*,*,#227,.T.);
#161=ORIENTED_EDGE('',*,*,#226,.F.);
#162=ORIENTED_EDGE('',*,*,#235,.T.);
#163=ORIENTED_EDGE('',*,*,#236,.T.);
#164=ORIENTED_EDGE('',*,*,#221,.T.);
#165=ORIENTED_EDGE('',*,*,#237,.F.);
#166=ORIENTED_EDGE('',*,*,#224,.F.);
#167=ORIENTED_EDGE('',*,*,#229,.T.);
#168=ORIENTED_EDGE('',*,*,#225,.F.);
#169=ORIENTED_EDGE('',*,*,#237,.T.);
#170=ORIENTED_EDGE('',*,*,#220,.T.);
#171=ORIENTED_EDGE('',*,*,#238,.T.);
#172=ORIENTED_EDGE('',*,*,#238,.F.);
#173=ORIENTED_EDGE('',*,*,#234,.F.);
#174=ORIENTED_EDGE('',*,*,#239,.T.);
#175=ORIENTED_EDGE('',*,*,#230,.T.);
#176=ORIENTED_EDGE('',*,*,#240,.T.);
#177=ORIENTED_EDGE('',*,*,#235,.F.);
#178=ORIENTED_EDGE('',*,*,#228,.T.);
#179=ORIENTED_EDGE('',*,*,#239,.F.);
#180=ORIENTED_EDGE('',*,*,#233,.F.);
#181=ORIENTED_EDGE('',*,*,#217,.F.);
#182=ORIENTED_EDGE('',*,*,#231,.F.);
#183=ORIENTED_EDGE('',*,*,#222,.F.);
#184=ORIENTED_EDGE('',*,*,#236,.F.);
#185=ORIENTED_EDGE('',*,*,#240,.F.);
#186=ORIENTED_EDGE('',*,*,#232,.F.);
#187=ORIENTED_EDGE('',*,*,#241,.T.);
#188=ORIENTED_EDGE('',*,*,#242,.T.);
#189=ORIENTED_EDGE('',*,*,#243,.T.);
#190=ORIENTED_EDGE('',*,*,#244,.T.);
#191=ORIENTED_EDGE('',*,*,#241,.F.);
#192=ORIENTED_EDGE('',*,*,#243,.F.);
#193=ORIENTED_EDGE('',*,*,#244,.F.);
#194=ORIENTED_EDGE('',*,*,#242,.F.);
#195=VERTEX_POINT('',#346);
#196=VERTEX_POINT('',#347);
#197=VERTEX_POINT('',#361);
#198=VERTEX_POINT('',#363);
#199=VERTEX_POINT('',#365);
#200=VERTEX_POINT('',#372);
#201=VERTEX_POINT('',#374);
#202=VERTEX_POINT('',#396);
#203=VERTEX_POINT('',#397);
#204=VERTEX_POINT('',#399);
#205=VERTEX_POINT('',#407);
#206=VERTEX_POINT('',#426);
#207=VERTEX_POINT('',#436);
#208=VERTEX_POINT('',#437);
#209=VERTEX_POINT('',#457);
#210=VERTEX_POINT('',#461);
#211=VERTEX_POINT('',#529);
#212=VERTEX_POINT('',#609);
#213=VERTEX_POINT('',#611);
#214=VERTEX_POINT('',#614);
#215=VERTEX_POINT('',#617);
#216=EDGE_CURVE('',#195,#196,#245,.T.);
#217=EDGE_CURVE('',#195,#197,#246,.T.);
#218=EDGE_CURVE('',#197,#198,#127,.T.);
#219=EDGE_CURVE('',#199,#198,#124,.T.);
#220=EDGE_CURVE('',#200,#199,#247,.T.);
#221=EDGE_CURVE('',#201,#200,#128,.T.);
#222=EDGE_CURVE('',#201,#196,#248,.T.);
#223=EDGE_CURVE('',#202,#203,#129,.T.);
#224=EDGE_CURVE('',#203,#204,#125,.T.);
#225=EDGE_CURVE('',#204,#199,#130,.T.);
#226=EDGE_CURVE('',#198,#202,#126,.T.);
#227=EDGE_CURVE('',#205,#202,#249,.T.);
#228=EDGE_CURVE('',#206,#205,#250,.T.);
#229=EDGE_CURVE('',#203,#206,#251,.T.);
#230=EDGE_CURVE('',#207,#208,#252,.T.);
#231=EDGE_CURVE('',#207,#195,#253,.T.);
#232=EDGE_CURVE('',#196,#208,#254,.T.);
#233=EDGE_CURVE('',#197,#209,#255,.T.);
#234=EDGE_CURVE('',#209,#205,#131,.T.);
#235=EDGE_CURVE('',#206,#210,#132,.T.);
#236=EDGE_CURVE('',#210,#201,#256,.T.);
#237=EDGE_CURVE('',#204,#200,#257,.T.);
#238=EDGE_CURVE('',#211,#211,#258,.T.);
#239=EDGE_CURVE('',#209,#207,#259,.T.);
#240=EDGE_CURVE('',#208,#210,#260,.T.);
#241=EDGE_CURVE('',#212,#212,#133,.T.);
#242=EDGE_CURVE('',#213,#213,#134,.T.);
#243=EDGE_CURVE('',#214,#214,#135,.T.);
#244=EDGE_CURVE('',#215,#215,#136,.T.);
#245=B_SPLINE_CURVE_WITH_KNOTS('',3,(#342,#343,#344,#345),.UNSPECIFIED.,
 .F.,.F.,(4,4),(0.,1.),.UNSPECIFIED.);
#246=B_SPLINE_CURVE_WITH_KNOTS('',3,(#348,#349,#350,#351,#352,#353,#354,
#355,#356,#357,#358,#359,#360),.UNSPECIFIED.,.F.,.F.,(4,3,3,3,4),(0.,0.299951601051779,
0.599304909134343,0.908137742888919,1.),.UNSPECIFIED.);
#247=B_SPLINE_CURVE_WITH_KNOTS('',3,(#366,#367,#368,#369,#370,#371),
 .UNSPECIFIED.,.F.,.F.,(4,2,4),(0.,0.5,1.),.UNSPECIFIED.);
#248=B_SPLINE_CURVE_WITH_KNOTS('',3,(#375,#376,#377,#378,#379,#380,#381,
#382,#383,#384,#385,#386,#387,#388,#389,#390,#391,#392,#393),
 .UNSPECIFIED.,.F.,.F.,(4,3,3,3,3,3,4),(0.,0.181410828248513,0.36351695740298,
0.535003255074959,0.696737835942466,0.854226182206726,1.),.UNSPECIFIED.);
#249=B_SPLINE_CURVE_WITH_KNOTS('',3,(#403,#404,#405,#406),.UNSPECIFIED.,
 .F.,.F.,(4,4),(0.,1.),.UNSPECIFIED.);
#250=B_SPLINE_CURVE_WITH_KNOTS('',3,(#408,#409,#410,#411,#412,#413,#414,
#415,#416,#417,#418,#419,#420,#421,#422,#423,#424,#425),.UNSPECIFIED.,.F.,
 .F.,(4,2,2,2,2,2,2,2,4),(0.,0.125,0.25,0.375,0.5,0.625,0.75,0.875,1.),
 .UNSPECIFIED.);
#251=B_SPLINE_CURVE_WITH_KNOTS('',3,(#427,#428,#429,#430),.UNSPECIFIED.,
 .F.,.F.,(4,4),(0.,1.),.UNSPECIFIED.);
#252=B_SPLINE_CURVE_WITH_KNOTS('',3,(#432,#433,#434,#435),.UNSPECIFIED.,
 .F.,.F.,(4,4),(0.,1.),.UNSPECIFIED.);
#253=B_SPLINE_CURVE_WITH_KNOTS('',3,(#438,#439,#440,#441,#442,#443,#444),
 .UNSPECIFIED.,.F.,.F.,(4,3,4),(0.,0.693317435218693,1.),.UNSPECIFIED.);
#254=B_SPLINE_CURVE_WITH_KNOTS('',3,(#445,#446,#447,#448,#449,#450,#451),
 .UNSPECIFIED.,.F.,.F.,(4,3,4),(0.,0.56846715353284,1.),.UNSPECIFIED.);
#255=B_SPLINE_CURVE_WITH_KNOTS('',3,(#453,#454,#455,#456),.UNSPECIFIED.,
 .F.,.F.,(4,4),(0.,1.),.UNSPECIFIED.);
#256=B_SPLINE_CURVE_WITH_KNOTS('',3,(#462,#463,#464,#465),.UNSPECIFIED.,
 .F.,.F.,(4,4),(0.,1.),.UNSPECIFIED.);
#257=B_SPLINE_CURVE_WITH_KNOTS('',3,(#466,#467,#468,#469),.UNSPECIFIED.,
 .F.,.F.,(4,4),(0.,1.),.UNSPECIFIED.);
#258=B_SPLINE_CURVE_WITH_KNOTS('',3,(#471,#472,#473,#474,#475,#476,#477,
#478,#479,#480,#481,#482,#483,#484,#485,#486,#487,#488,#489,#490,#491,#492,
#493,#494,#495,#496,#497,#498,#499,#500,#501,#502,#503,#504,#505,#506,#507,
#508,#509,#510,#511,#512,#513,#514,#515,#516,#517,#518,#519,#520,#521,#522,
#523,#524,#525,#526,#527,#528),.UNSPECIFIED.,.T.,.F.,(1,3,3,3,3,3,3,3,3,
3,3,3,3,3,3,3,3,3,3,3,3,1),(-0.038414966244646,0.,0.0534112513207955,0.106823079057282,
0.160221874224535,0.213523370623962,0.266697170158372,0.320022474762614,
0.374082751362166,0.42910581984546,0.483746419080879,0.535490426244498,
0.585674203684684,0.638186526241804,0.693036877220135,0.747932120069052,
0.801825250065201,0.85508025759977,0.90826530734683,0.961585033755354,1.,
1.0534112513208),.UNSPECIFIED.);
#259=B_SPLINE_CURVE_WITH_KNOTS('',3,(#547,#548,#549,#550,#551,#552,#553,
#554,#555,#556),.UNSPECIFIED.,.F.,.F.,(4,3,3,4),(0.,0.329567679045018,0.660469982723899,
1.),.UNSPECIFIED.);
#260=B_SPLINE_CURVE_WITH_KNOTS('',3,(#557,#558,#559,#560,#561,#562,#563,
#564,#565,#566,#567,#568,#569,#570,#571,#572,#573,#574,#575,#576,#577,#578),
 .UNSPECIFIED.,.F.,.F.,(4,3,3,3,3,3,3,4),(0.,0.156041903332952,0.312090143033276,
0.468301467333965,0.628731684385671,0.797041079979428,0.975231078707793,
1.),.UNSPECIFIED.);
#261=B_SPLINE_CURVE_WITH_KNOTS('',3,(#579,#580,#581,#582),.UNSPECIFIED.,
 .F.,.F.,(4,4),(0.,1.),.UNSPECIFIED.);
#262=AXIS2_PLACEMENT_3D('',#341,#288,#289);
#263=AXIS2_PLACEMENT_3D('',#362,#290,#291);
#264=AXIS2_PLACEMENT_3D('',#364,#292,#293);
#265=AXIS2_PLACEMENT_3D('',#373,#294,#295);
#266=AXIS2_PLACEMENT_3D('',#394,#296,#297);
#267=AXIS2_PLACEMENT_3D('',#395,#298,#299);
#268=AXIS2_PLACEMENT_3D('',#398,#300,#301);
#269=AXIS2_PLACEMENT_3D('',#400,#302,#303);
#270=AXIS2_PLACEMENT_3D('',#401,#304,#305);
#271=AXIS2_PLACEMENT_3D('',#402,#306,#307);
#272=AXIS2_PLACEMENT_3D('',#431,#308,#309);
#273=AXIS2_PLACEMENT_3D('',#452,#310,#311);
#274=AXIS2_PLACEMENT_3D('',#458,#312,#313);
#275=AXIS2_PLACEMENT_3D('',#459,#314,#315);
#276=AXIS2_PLACEMENT_3D('',#460,#316,#317);
#277=AXIS2_PLACEMENT_3D('',#470,#318,#319);
#278=AXIS2_PLACEMENT_3D('',#530,#320,#321);
#279=AXIS2_PLACEMENT_3D('',#608,#323,#324);
#280=AXIS2_PLACEMENT_3D('',#610,#325,#326);
#281=AXIS2_PLACEMENT_3D('',#612,#327,#328);
#282=AXIS2_PLACEMENT_3D('',#613,#329,#330);
#283=AXIS2_PLACEMENT_3D('',#615,#331,#332);
#284=AXIS2_PLACEMENT_3D('',#616,#333,#334);
#285=AXIS2_PLACEMENT_3D('',#618,#335,#336);
#286=AXIS2_PLACEMENT_3D('',#619,#337,#338);
#287=AXIS2_PLACEMENT_3D('',#620,#339,#340);
#288=DIRECTION('',(0.,0.,1.));
#289=DIRECTION('',(1.,0.,0.));
#290=DIRECTION('',(1.38777878078145E-15,-0.999999999999999,2.22130410481684E-18));
#291=DIRECTION('',(5.21563096737515E-16,0.,0.999999999999999));
#292=DIRECTION('',(0.556634411702383,0.83075756494223,2.99710678957212E-15));
#293=DIRECTION('',(-0.83075756494223,0.556634411702383,-4.38538094726937E-15));
#294=DIRECTION('',(1.38777878078145E-15,-0.999999999999999,2.22130410481684E-18));
#295=DIRECTION('',(-4.9856352335817E-16,0.,-0.999999999999999));
#296=DIRECTION('',(-1.38777878078145E-15,0.999999999999999,-2.22130410481684E-18));
#297=DIRECTION('',(5.20398253762863E-16,9.35866069437301E-17,0.999999999999999));
#298=DIRECTION('',(0.556634411702382,0.830757564942228,2.99710678957212E-15));
#299=DIRECTION('',(0.830757564942231,-0.556634411702383,2.77555491458493E-16));
#300=DIRECTION('',(-0.556634411702383,-0.83075756494223,-2.99710678957212E-15));
#301=DIRECTION('',(0.83075756494223,-0.556634411702383,4.38538094726937E-15));
#302=DIRECTION('',(-0.556634411702382,-0.830757564942228,-2.99710678957212E-15));
#303=DIRECTION('',(0.830757564942231,-0.556634411702383,2.7755575615629E-16));
#304=DIRECTION('',(0.556634411702383,0.83075756494223,2.99710678957212E-15));
#305=DIRECTION('',(0.83075756494223,-0.556634411702383,4.38538094726937E-15));
#306=DIRECTION('',(-0.556634411702382,-0.830757564942228,-2.99710678957212E-15));
#307=DIRECTION('',(0.830757564942231,-0.556634411702383,2.77555756156289E-16));
#308=DIRECTION('',(-0.556634411702382,-0.830757564942228,-2.99710678957212E-15));
#309=DIRECTION('',(0.830757564942231,-0.556634411702383,2.77555491458493E-16));
#310=DIRECTION('',(1.,-1.55431223447522E-15,1.72664374503655E-15));
#311=DIRECTION('',(6.13224748757801E-16,1.32219544037855E-17,-0.999999999999999));
#312=DIRECTION('',(1.38777878078145E-15,-0.999999999999999,2.22130410481684E-18));
#313=DIRECTION('',(4.86524530483454E-16,0.,0.999999999999999));
#314=DIRECTION('',(1.38777878078145E-15,-0.999999999999999,2.22130410481684E-18));
#315=DIRECTION('',(-5.20096394852192E-16,4.18588647768364E-17,-0.999999999999998));
#316=DIRECTION('',(-1.38777878078145E-15,0.999999999999999,-2.22130410481684E-18));
#317=DIRECTION('',(4.80699893751585E-16,0.,0.999999999999999));
#318=DIRECTION('',(1.38777878078145E-15,-0.999999999999999,2.22130410481684E-18));
#319=DIRECTION('',(-5.203283377785E-16,1.00103247348168E-16,-0.999999999999999));
#320=DIRECTION('',(0.556634411702382,0.830757564942228,2.99710678957212E-15));
#321=DIRECTION('',(-0.830757564942231,0.556634411702383,-1.66533453693774E-16));
#322=DIRECTION('',(-1.38777878078145E-15,0.999999999999999,-2.22130410481684E-18));
#323=DIRECTION('',(-0.556634411702383,-0.830757564942229,-2.60828947079998E-15));
#324=DIRECTION('',(-0.830757564942229,0.556634411702383,0.));
#325=DIRECTION('',(0.556634411702383,0.830757564942229,2.60828947079998E-15));
#326=DIRECTION('',(-0.830757564942229,0.556634411702383,0.));
#327=DIRECTION('',(-0.556634411702383,-0.830757564942229,-2.60828947079998E-15));
#328=DIRECTION('',(0.830757564942229,-0.556634411702383,0.));
#329=DIRECTION('',(0.556634411702383,0.830757564942229,2.60828947079998E-15));
#330=DIRECTION('',(-0.830757564942229,0.556634411702383,0.));
#331=DIRECTION('',(0.556634411702383,0.830757564942229,2.60828947079998E-15));
#332=DIRECTION('',(-0.830757564942229,0.556634411702383,0.));
#333=DIRECTION('',(-0.556634411702383,-0.830757564942229,-2.60828947079998E-15));
#334=DIRECTION('',(-0.830757564942229,0.556634411702383,0.));
#335=DIRECTION('',(0.556634411702383,0.830757564942229,2.60828947079998E-15));
#336=DIRECTION('',(-0.830757564942229,0.556634411702383,0.));
#337=DIRECTION('',(0.556634411702383,0.830757564942229,2.60828947079998E-15));
#338=DIRECTION('',(-0.830757564942229,0.556634411702383,0.));
#339=DIRECTION('',(0.556634411702383,0.830757564942229,2.60828947079998E-15));
#340=DIRECTION('',(-0.830757564942229,0.556634411702383,0.));
#341=CARTESIAN_POINT('',(0.,0.,0.));
#342=CARTESIAN_POINT('',(3.69999999999979,-11.8326320655535,6.99128601549853));
#343=CARTESIAN_POINT('',(3.69999999999979,-11.6300772311397,7.25947146186622));
#344=CARTESIAN_POINT('',(3.69999999999979,-11.426374211612,7.52679857398735));
#345=CARTESIAN_POINT('',(3.69999999999979,-11.2218191873904,7.79348876371843));
#346=CARTESIAN_POINT('',(3.69999999999983,-11.8326320655535,6.99128601549854));
#347=CARTESIAN_POINT('',(3.69999999999982,-11.2218191873904,7.79348876371843));
#348=CARTESIAN_POINT('',(3.69999999999983,-11.8326320655535,6.99128601549854));
#349=CARTESIAN_POINT('',(3.69999999999983,-11.9688437117307,6.81093988238239));
#350=CARTESIAN_POINT('',(3.66131056926755,-12.0984957797445,6.62178875430859));
#351=CARTESIAN_POINT('',(3.58926089667572,-12.2086782643343,6.43808517499322));
#352=CARTESIAN_POINT('',(3.51729452849055,-12.3187333550559,6.25459399522282));
#353=CARTESIAN_POINT('',(3.41028406170253,-12.4121860395232,6.07151373841604));
#354=CARTESIAN_POINT('',(3.27967529282726,-12.48005419542,5.90035428905647));
#355=CARTESIAN_POINT('',(3.14486826222497,-12.5501038915292,5.72369312513627));
#356=CARTESIAN_POINT('',(2.98182697726827,-12.5946203780455,5.55515027378736));
#357=CARTESIAN_POINT('',(2.80548300801643,-12.6108423126509,5.40372796496664));
#358=CARTESIAN_POINT('',(2.75245406899372,-12.6157204606515,5.35819329533662));
#359=CARTESIAN_POINT('',(2.69799344828373,-12.6181393764522,5.31396201831523));
#360=CARTESIAN_POINT('',(2.64247126275082,-12.6181393764522,5.27122377134891));
#361=CARTESIAN_POINT('',(2.64247126275082,-12.6181393764522,5.27122377134891));
#362=CARTESIAN_POINT('',(6.69999999999987,-12.6181393764522,3.44611722454441E-14));
#363=CARTESIAN_POINT('',(0.789917243892264,-12.6181393764522,3.05291030284139));
#364=CARTESIAN_POINT('',(2.24219025828492,-13.5912092215085,1.28865162404542E-14));
#365=CARTESIAN_POINT('',(0.103346523046357,-12.1581148092167,2.91433966987433));
#366=CARTESIAN_POINT('',(-3.44293098734104,-9.50625256462294,2.46570024354645));
#367=CARTESIAN_POINT('',(-2.9494885728954,-9.78933160109788,3.03741771667298));
#368=CARTESIAN_POINT('',(-2.28736256226167,-10.1910270214563,3.40449362919971));
#369=CARTESIAN_POINT('',(-0.987673578553145,-11.1267868290374,3.56190066243479));
#370=CARTESIAN_POINT('',(-0.359384766600276,-11.664659051882,3.3526732439463));
#371=CARTESIAN_POINT('',(0.103346523046352,-12.1581148092167,2.91433966987433));
#372=CARTESIAN_POINT('',(-3.44293098734103,-9.50625256462293,2.46570024354645));
#373=CARTESIAN_POINT('',(6.69999999999987,-9.50625256462295,3.16503130382372E-14));
#374=CARTESIAN_POINT('',(0.831297682704146,-9.50625256462294,8.6323264428515));
#375=CARTESIAN_POINT('',(0.831297682704146,-9.50625256462294,8.6323264428515));
#376=CARTESIAN_POINT('',(1.03750752734406,-9.50625256462294,8.77251856847362));
#377=CARTESIAN_POINT('',(1.26641251644843,-9.52740380294804,8.88571078392727));
#378=CARTESIAN_POINT('',(1.50021933807,-9.57032827224801,8.96099818135475));
#379=CARTESIAN_POINT('',(1.73455130507063,-9.61334915270718,9.03645467918994));
#380=CARTESIAN_POINT('',(1.98069524712937,-9.67974539282765,9.07569473110283));
#381=CARTESIAN_POINT('',(2.21498455585605,-9.76669154946563,9.07349572185403));
#382=CARTESIAN_POINT('',(2.43576686824482,-9.84862517938744,9.07142348753163));
#383=CARTESIAN_POINT('',(2.65251466796894,-9.9513864481244,9.03242192775079));
#384=CARTESIAN_POINT('',(2.84380063534274,-10.0681610484294,8.9600643798345));
#385=CARTESIAN_POINT('',(3.02444245135464,-10.1784376994183,8.89173318420517));
#386=CARTESIAN_POINT('',(3.18754992403866,-10.3044349908454,8.79180343942093));
#387=CARTESIAN_POINT('',(3.31813514805455,-10.436835831529,8.66982362799074));
#388=CARTESIAN_POINT('',(3.44538811695186,-10.5658580864469,8.5509564799883));
#389=CARTESIAN_POINT('',(3.54533093624195,-10.7045818462738,8.4079570837913));
#390=CARTESIAN_POINT('',(3.60966706899101,-10.8421370118869,8.25333206101833));
#391=CARTESIAN_POINT('',(3.66934888287794,-10.9697409172278,8.10989319646314));
#392=CARTESIAN_POINT('',(3.70000000000146,-11.099461765008,7.95301319639611));
#393=CARTESIAN_POINT('',(3.69999999999983,-11.2218191873885,7.79348876372091));
#394=CARTESIAN_POINT('',(6.69999999999987,-12.6181393764522,3.44611722454441E-14));
#395=CARTESIAN_POINT('',(-1.5069490073209,-11.0791647724809,2.90689074047462E-5));
#396=CARTESIAN_POINT('',(0.916795823813567,-12.7031521246624,3.42612394113491));
#397=CARTESIAN_POINT('',(-3.29378867188595,-9.88192446139111,3.95272683760142));
#398=CARTESIAN_POINT('',(19.5438628652465,-25.1838889146666,1.0222477525326E-13));
#399=CARTESIAN_POINT('',(-3.59664615615816,-9.67900016108786,2.43351132273297));
#400=CARTESIAN_POINT('',(-1.50682887129726,-11.0792452674985,1.17713277761069E-15));
#401=CARTESIAN_POINT('',(14.5298537608991,-21.8243408035846,7.44691996376308E-14));
#402=CARTESIAN_POINT('',(-1.5069490073209,-11.0791647724809,2.90689074047462E-5));
#403=CARTESIAN_POINT('',(0.48392538021484,-13.2010306926913,3.49467670635528));
#404=CARTESIAN_POINT('',(0.628116632704789,-13.0348908622059,3.47252238410779));
#405=CARTESIAN_POINT('',(0.772403967689295,-12.8689222036147,3.4496961148085));
#406=CARTESIAN_POINT('',(0.916795823813567,-12.7031521246624,3.42612394113491));
#407=CARTESIAN_POINT('',(0.48392538021484,-13.2010306926913,3.49467670635528));
#408=CARTESIAN_POINT('',(-3.38330689371168,-9.97822788861631,3.9413582680061));
#409=CARTESIAN_POINT('',(-4.06388371661685,-9.47364263192894,3.47507858766445));
#410=CARTESIAN_POINT('',(-4.61344860649398,-9.07967761157581,2.74558682353801));
#411=CARTESIAN_POINT('',(-5.26489201066236,-8.61276007152975,0.989111725419312));
#412=CARTESIAN_POINT('',(-5.35108747860594,-8.5517010878476,-0.0144569421923138));
#413=CARTESIAN_POINT('',(-5.02278343889545,-8.7862055316206,-1.883595724528));
#414=CARTESIAN_POINT('',(-4.60203850847858,-9.08594477843071,-2.75924646150943));
#415=CARTESIAN_POINT('',(-3.43950227983449,-9.93354347658787,-4.0161616327171));
#416=CARTESIAN_POINT('',(-2.68525244824774,-10.4908767406829,-4.41031043828288));
#417=CARTESIAN_POINT('',(-1.18860426523785,-11.669480244657,-4.56132130371943));
#418=CARTESIAN_POINT('',(-0.435120094900727,-12.3053363197849,-4.32098763392532));
#419=CARTESIAN_POINT('',(0.740049925583171,-13.4385442484353,-3.32154266935479));
#420=CARTESIAN_POINT('',(1.16717628202696,-13.9491211106547,-2.56308366267752));
#421=CARTESIAN_POINT('',(1.61481943892666,-14.5575443970049,-0.798325404575945));
#422=CARTESIAN_POINT('',(1.65038258308347,-14.6224843177918,0.212601235743846));
#423=CARTESIAN_POINT('',(1.35498630552674,-14.1966324335644,2.06071232113657));
#424=CARTESIAN_POINT('',(1.01341481770668,-13.7434532786548,2.89288362807105));
#425=CARTESIAN_POINT('',(0.483925380214845,-13.2010306926913,3.49467670635529));
#426=CARTESIAN_POINT('',(-3.38330689371168,-9.97822788861632,3.94135826800609));
#427=CARTESIAN_POINT('',(-3.29378867188595,-9.88192446139111,3.95272683760142));
#428=CARTESIAN_POINT('',(-3.32364319117375,-9.91401308273502,3.94895031607024));
#429=CARTESIAN_POINT('',(-3.35348249386043,-9.9461143416974,3.94516081114632));
#430=CARTESIAN_POINT('',(-3.38330689371168,-9.97822788861632,3.94135826800609));
#431=CARTESIAN_POINT('',(-1.5069490073209,-11.0791647724809,2.90689074047462E-5));
#432=CARTESIAN_POINT('',(3.69999999999979,-12.4296360745411,7.58640798832073));
#433=CARTESIAN_POINT('',(3.69999999999979,-12.2337339276377,7.85378623783908));
#434=CARTESIAN_POINT('',(3.69999999999979,-12.0322354575801,8.11715188392134));
#435=CARTESIAN_POINT('',(3.69999999999979,-11.8248217493151,8.37627626221005));
#436=CARTESIAN_POINT('',(3.69999999999982,-12.4296360745411,7.58640798832074));
#437=CARTESIAN_POINT('',(3.69999999999983,-11.8248217493151,8.37627626221006));
#438=CARTESIAN_POINT('',(3.69999999999982,-12.4296360745411,7.58640798832074));
#439=CARTESIAN_POINT('',(3.69999999999982,-12.2907982285555,7.44974621876261));
#440=CARTESIAN_POINT('',(3.69999999999983,-12.1525166419768,7.31251628086214));
#441=CARTESIAN_POINT('',(3.69999999999983,-12.0148844430089,7.17464037816723));
#442=CARTESIAN_POINT('',(3.69999999999983,-11.9540036338371,7.11365176805779));
#443=CARTESIAN_POINT('',(3.69999999999983,-11.8932497236647,7.05253618296));
#444=CARTESIAN_POINT('',(3.69999999999983,-11.8326320655553,6.99128601550039));
#445=CARTESIAN_POINT('',(3.69999999999982,-11.2218191873904,7.79348876371843));
#446=CARTESIAN_POINT('',(3.69999999999982,-11.3355119415609,7.90450746091163));
#447=CARTESIAN_POINT('',(3.69999999999982,-11.449550457114,8.0151729510784));
#448=CARTESIAN_POINT('',(3.69999999999982,-11.5638964909339,8.12551867155274));
#449=CARTESIAN_POINT('',(3.69999999999982,-11.6506986412016,8.20928411133266));
#450=CARTESIAN_POINT('',(3.69999999999983,-11.7376786024928,8.29286562647019));
#451=CARTESIAN_POINT('',(3.69999999999983,-11.8248217493151,8.37627626221006));
#452=CARTESIAN_POINT('',(3.69999999999981,-4.77048955893622E-15,6.69999999999986));
#453=CARTESIAN_POINT('',(2.64247126275082,-12.6181393764522,5.27122377134891));
#454=CARTESIAN_POINT('',(2.6242020042599,-12.8114729170408,5.45768046269024));
#455=CARTESIAN_POINT('',(2.60689553141303,-13.005842881651,5.64316215753924));
#456=CARTESIAN_POINT('',(2.59043168203384,-13.2010306926913,5.82784670359882));
#457=CARTESIAN_POINT('',(2.59043168203384,-13.2010306926913,5.82784670359882));
#458=CARTESIAN_POINT('',(6.69999999999987,-13.2010306926913,3.4935268748016E-14));
#459=CARTESIAN_POINT('',(6.69999999999987,-13.0000946572188,3.45024741054512E-14));
#460=CARTESIAN_POINT('',(6.69999999999987,-9.97822788860329,3.14969273270612E-14));
#461=CARTESIAN_POINT('',(0.867605244971556,-9.97822788860328,9.12088561113056));
#462=CARTESIAN_POINT('',(0.867605244971556,-9.97822788860328,9.12088561113056));
#463=CARTESIAN_POINT('',(0.855934964817261,-9.81990448082078,8.95897118434318));
#464=CARTESIAN_POINT('',(0.843843306054316,-9.6625215535539,8.79615986107221));
#465=CARTESIAN_POINT('',(0.831297682704146,-9.50625256462294,8.6323264428515));
#466=CARTESIAN_POINT('',(-3.59664615615814,-9.67900016108788,2.433511322733));
#467=CARTESIAN_POINT('',(-3.5454454135135,-9.62140341845755,2.44433956080898));
#468=CARTESIAN_POINT('',(-3.49420732452908,-9.56382036099892,2.45506786903148));
#469=CARTESIAN_POINT('',(-3.44293098734101,-9.50625256462295,2.46570024354647));
#470=CARTESIAN_POINT('',(6.69999999999986,-8.88820784538954,3.4721690230147E-14));
#471=CARTESIAN_POINT('',(-3.06140504630594,-7.11160683929188,2.42856888753096E-17));
#472=CARTESIAN_POINT('',(-3.06140504630594,-7.11160683929188,-0.391722650543557));
#473=CARTESIAN_POINT('',(-3.00490989036299,-7.14878696549813,-0.788846923074271));
#474=CARTESIAN_POINT('',(-2.89710411446921,-7.22082433068289,-1.15848886827266));
#475=CARTESIAN_POINT('',(-2.78929776616822,-7.29286207835835,-1.52813277612759));
#476=CARTESIAN_POINT('',(-2.62723224935867,-7.40179256963756,-1.88049516441816));
#477=CARTESIAN_POINT('',(-2.42577024423158,-7.54071225379057,-2.18637528192077));
#478=CARTESIAN_POINT('',(-2.2243630929903,-7.67959411302227,-2.49217211467189));
#479=CARTESIAN_POINT('',(-1.97805887203188,-7.85238736076445,-2.75995546253565));
#480=CARTESIAN_POINT('',(-1.70946804113662,-8.04771322791537,-2.96749217132746));
#481=CARTESIAN_POINT('',(-1.44136473641509,-8.24268455402585,-3.1746521748639));
#482=CARTESIAN_POINT('',(-1.14372685579888,-8.46562402353756,-3.32748704756964));
#483=CARTESIAN_POINT('',(-0.843680580916516,-8.70092752081207,-3.41358561998931));
#484=CARTESIAN_POINT('',(-0.544315370503957,-8.935696910967,-3.4994887602924));
#485=CARTESIAN_POINT('',(-0.234457525839029,-9.1893214756161,-3.521341427725));
#486=CARTESIAN_POINT('',(0.0587819296827309,-9.44283206731385,-3.47823056023939));
#487=CARTESIAN_POINT('',(0.352910181205523,-9.69711103855903,-3.43498902559457));
#488=CARTESIAN_POINT('',(0.638210098362826,-9.95823136733239,-3.32535169055212));
#489=CARTESIAN_POINT('',(0.892058396390821,-10.2052278649969,-3.15924080707504));
#490=CARTESIAN_POINT('',(1.14939130460265,-10.4556149172479,-2.99084969686133));
#491=CARTESIAN_POINT('',(1.38139884295104,-10.6983210467232,-2.76001374380135));
#492=CARTESIAN_POINT('',(1.5724304952702,-10.9110573147387,-2.48520534570231));
#493=CARTESIAN_POINT('',(1.7667396486265,-11.1274434665854,-2.2056821016662));
#494=CARTESIAN_POINT('',(1.92421333809753,-11.3187844663837,-1.87272071185974));
#495=CARTESIAN_POINT('',(2.03630588317679,-11.4615934798008,-1.51250812911169));
#496=CARTESIAN_POINT('',(2.14751798353201,-11.6032807822039,-1.15512488053379));
#497=CARTESIAN_POINT('',(2.21753656433292,-11.7004377667286,-0.759971261580399));
#498=CARTESIAN_POINT('',(2.24337948029303,-11.736218350239,-0.362204869297042));
#499=CARTESIAN_POINT('',(2.26787911831952,-11.7701391100222,0.0148861929147898));
#500=CARTESIAN_POINT('',(2.25353083360784,-11.7494672080836,0.404870634187602));
#501=CARTESIAN_POINT('',(2.20084928680487,-11.677890871073,0.773720199748338));
#502=CARTESIAN_POINT('',(2.14966589824374,-11.6083500224967,1.13208041846608));
#503=CARTESIAN_POINT('',(2.06089423177082,-11.4898877636783,1.48006124723528));
#504=CARTESIAN_POINT('',(1.93792612398399,-11.3383515063771,1.79278048622647));
#505=CARTESIAN_POINT('',(1.80930841121798,-11.1798531187384,2.11986719172166));
#506=CARTESIAN_POINT('',(1.63969693549482,-10.9814506170191,2.41714118082064));
#507=CARTESIAN_POINT('',(1.43805770933076,-10.7637410052179,2.66329990041896));
#508=CARTESIAN_POINT('',(1.22769250405862,-10.5366099650551,2.92011118938757));
#509=CARTESIAN_POINT('',(0.97647520949012,-10.2822294160585,3.1281829667881));
#510=CARTESIAN_POINT('',(0.702738104936264,-10.0238096315256,3.26989139874879));
#511=CARTESIAN_POINT('',(0.428882578235823,-9.76527805131313,3.41166113557618));
#512=CARTESIAN_POINT('',(0.124745439971967,-9.49535492305578,3.49078171271952));
#513=CARTESIAN_POINT('',(-0.183288735930103,-9.23655421010916,3.49922109695526));
#514=CARTESIAN_POINT('',(-0.485795397756685,-8.98239754219218,3.50750904080288));
#515=CARTESIAN_POINT('',(-0.800427960209799,-8.7317425673556,3.44781431199319));
#516=CARTESIAN_POINT('',(-1.09849898534561,-8.50346701365564,3.32445095492633));
#517=CARTESIAN_POINT('',(-1.39313641029025,-8.2778210580002,3.202508670056));
#518=CARTESIAN_POINT('',(-1.67964617370784,-8.06765648966954,3.01502716938251));
#519=CARTESIAN_POINT('',(-1.93187794840202,-7.88737149276909,2.77738524957818));
#520=CARTESIAN_POINT('',(-2.18380012218074,-7.70730778599021,2.54003502242841));
#521=CARTESIAN_POINT('',(-2.40839638982621,-7.55196910561013,2.24614663599205));
#522=CARTESIAN_POINT('',(-2.58521075018502,-7.43136983343828,1.91993298209185));
#523=CARTESIAN_POINT('',(-2.7624647156266,-7.31047072106727,1.59290827879479));
#524=CARTESIAN_POINT('',(-2.89653071222603,-7.22107672865087,1.22439832221752));
#525=CARTESIAN_POINT('',(-2.97514990939106,-7.16880263959032,0.844836520064816));
#526=CARTESIAN_POINT('',(-3.03217897043994,-7.13088388280055,0.569508687075803));
#527=CARTESIAN_POINT('',(-3.06140504630595,-7.11160683929188,0.283717397314693));
#528=CARTESIAN_POINT('',(-3.06140504630594,-7.11160683929188,2.42856888753096E-17));
#529=CARTESIAN_POINT('',(-3.06140504630594,-7.11160683929188,2.42856888753096E-17));
#530=CARTESIAN_POINT('',(-2.56443425353179,-12.6576846408888,-4.20282363775522E-15));
#531=CARTESIAN_POINT('',(2.87262363302728,-11.7919739157972,-2.13045869387792));
#532=CARTESIAN_POINT('',(2.11978976622615,-11.7919739157972,-0.777990064314187));
#533=CARTESIAN_POINT('',(2.11842102837128,-11.7919739157972,0.769888597439836));
#534=CARTESIAN_POINT('',(2.86886183325422,-11.7919739157972,2.12368652302673));
#535=CARTESIAN_POINT('',(1.1067591692102,-10.5610754929884,-3.11340391233443));
#536=CARTESIAN_POINT('',(0.00658486732307015,-10.5610754929884,-1.136936997161));
#537=CARTESIAN_POINT('',(0.00458462493181308,-10.5610754929884,1.12509769760793));
#538=CARTESIAN_POINT('',(1.10126176052328,-10.5610754929884,3.10350721577623));
#539=CARTESIAN_POINT('',(-0.47693990212965,-8.91194011183361,-3.99494916200925));
#540=CARTESIAN_POINT('',(-1.88862323302538,-8.91194011183361,-1.45885520541408));
#541=CARTESIAN_POINT('',(-1.89118983436905,-8.91194011183361,1.44366366549183));
#542=CARTESIAN_POINT('',(-0.483993875480164,-8.91194011183361,3.98225026371814));
#543=CARTESIAN_POINT('',(-1.85359291792977,-7.07902475816194,-4.76124494918957));
#544=CARTESIAN_POINT('',(-3.53605991725997,-7.07902475816194,-1.73868720143694));
#545=CARTESIAN_POINT('',(-3.53911883420447,-7.07902475816194,1.72058167874016));
#546=CARTESIAN_POINT('',(-1.86199995732497,-7.07902475816194,4.7461101970571));
#547=CARTESIAN_POINT('',(2.59043168203384,-13.2010306926913,5.82784670359882));
#548=CARTESIAN_POINT('',(2.79900168079325,-13.2010306926913,5.97492206480395));
#549=CARTESIAN_POINT('',(2.99419056274305,-13.1702997562007,6.14737807871722));
#550=CARTESIAN_POINT('',(3.15792416513389,-13.1103289314558,6.33373100701097));
#551=CARTESIAN_POINT('',(3.32204642282559,-13.0502157536532,6.52052628221676));
#552=CARTESIAN_POINT('',(3.45901234202744,-12.9587964097187,6.72702299328348));
#553=CARTESIAN_POINT('',(3.55222852624212,-12.8449707931948,6.93629950051244));
#554=CARTESIAN_POINT('',(3.64763478163588,-12.728470896402,7.1504928625859));
#555=CARTESIAN_POINT('',(3.69999999999987,-12.5843810187002,7.37520339998384));
#556=CARTESIAN_POINT('',(3.69999999999982,-12.4296360745411,7.58640798832074));
#557=CARTESIAN_POINT('',(3.69999999999983,-11.8248217493151,8.37627626221006));
#558=CARTESIAN_POINT('',(3.69999999999982,-11.6913116667068,8.54307197422227));
#559=CARTESIAN_POINT('',(3.66497308041424,-11.5474522138269,8.70539627435059));
#560=CARTESIAN_POINT('',(3.59744265298853,-11.4051529809794,8.84974419226577));
#561=CARTESIAN_POINT('',(3.52990734329698,-11.2628434602852,8.99410254614197));
#562=CARTESIAN_POINT('',(3.42803833025018,-11.1182091704788,9.12438262606604));
#563=CARTESIAN_POINT('',(3.30083827503673,-10.98269324426,9.22977679935821));
#564=CARTESIAN_POINT('',(3.17344431801692,-10.846970739649,9.33533163390596));
#565=CARTESIAN_POINT('',(3.01735620087026,-10.7167488945073,9.41876129595155));
#566=CARTESIAN_POINT('',(2.84591773981637,-10.6012018348978,9.47398242167801));
#567=CARTESIAN_POINT('',(2.66982259405003,-10.4825162366969,9.53070348721023));
#568=CARTESIAN_POINT('',(2.47307571671674,-10.3761792906715,9.55921003175881));
#569=CARTESIAN_POINT('',(2.27144502361891,-10.2886725161015,9.55838610026093));
#570=CARTESIAN_POINT('',(2.05996478559672,-10.1968910852573,9.55752192017699));
#571=CARTESIAN_POINT('',(1.83775916438274,-10.1233977839511,9.52446808263192));
#572=CARTESIAN_POINT('',(1.62163528266134,-10.071968059734,9.46287327647447));
#573=CARTESIAN_POINT('',(1.39297361270218,-10.0175547920684,9.39770522968301));
#574=CARTESIAN_POINT('',(1.16519662708974,-9.98636343426143,9.29896464036953));
#575=CARTESIAN_POINT('',(0.955328807843348,-9.97964609318849,9.17485092999535));
#576=CARTESIAN_POINT('',(0.925786803322513,-9.97870052792242,9.15738008665148));
#577=CARTESIAN_POINT('',(0.896531327838033,-9.97822788860326,9.13938253579194));
#578=CARTESIAN_POINT('',(0.867605244971556,-9.97822788860328,9.12088561113056));
#579=CARTESIAN_POINT('',(1.76555476112984,-14.6467396437739,1.23940209354517E-15));
#580=CARTESIAN_POINT('',(-1.11326921918805,-12.8995513477317,-8.88322755432243E-16));
#581=CARTESIAN_POINT('',(-3.85105392494693,-10.7337579956679,-1.25582513705568E-15));
#582=CARTESIAN_POINT('',(-5.7535651917035,-7.93451785320219,-3.02742181005067E-15));
#583=CARTESIAN_POINT('',(6.69999999999988,-16.5,3.12699899331472E-14));
#584=CARTESIAN_POINT('',(2.54977509327244,-13.7060975285971,6.30242542569361));
#585=CARTESIAN_POINT('',(3.69999999999979,-13.3274276889944,6.68722403375679));
#586=CARTESIAN_POINT('',(3.69999999999979,-12.4362040167533,7.59287215432301));
#587=CARTESIAN_POINT('',(2.57814368826995,-13.3368204519072,5.95771097260369));
#588=CARTESIAN_POINT('',(3.70000000000046,-12.951148222192,6.3476416390301));
#589=CARTESIAN_POINT('',(3.69999999999979,-12.0669204808285,7.22947027584179));
#590=CARTESIAN_POINT('',(2.60906996052549,-12.9711498825943,5.6117585174138));
#591=CARTESIAN_POINT('',(3.69999999999945,-12.5763398716626,6.00473943532483));
#592=CARTESIAN_POINT('',(3.69999999999979,-11.7012474978833,6.86187140908603));
#593=CARTESIAN_POINT('',(2.64307584411498,-12.611745525093,5.26505662383854));
#594=CARTESIAN_POINT('',(3.69999999999979,-12.204822306307,5.65724791477023));
#595=CARTESIAN_POINT('',(3.69999999999979,-11.3418520132491,6.48897591072935));
#596=CARTESIAN_POINT('',(3.69999999999979,-11.8508461496977,8.40117628511171));
#597=CARTESIAN_POINT('',(3.69999999999979,-9.75147031040639,10.596203566778));
#598=CARTESIAN_POINT('',(0.909781962883135,-10.5809526378538,9.72892849181006));
#599=CARTESIAN_POINT('',(3.69999999999979,-11.4872269922867,8.05340235129029));
#600=CARTESIAN_POINT('',(3.70000000000001,-9.34182074870986,10.265167583928));
#601=CARTESIAN_POINT('',(0.885626098501885,-10.2173297355752,9.36677449826228));
#602=CARTESIAN_POINT('',(3.69999999999979,-11.12635946595,7.7026910797292));
#603=CARTESIAN_POINT('',(3.70000000000022,-8.93205427569467,9.93512302147398));
#604=CARTESIAN_POINT('',(0.859446476385733,-9.85646087072367,8.99962156756337));
#605=CARTESIAN_POINT('',(3.69999999999979,-10.7698032455277,7.34823994909894));
#606=CARTESIAN_POINT('',(3.69999999999979,-8.52377070212596,9.60761170292523));
#607=CARTESIAN_POINT('',(0.830788167405896,-9.49990973368383,8.6256753715981));
#608=CARTESIAN_POINT('',(-0.226597445940469,-9.16848429379141,9.32710510374955E-6));
#609=CARTESIAN_POINT('',(-4.38038527065162,-6.38531223527949,9.32710510374955E-6));
#610=CARTESIAN_POINT('',(-0.560578092961898,-9.66693883275674,9.32710510218458E-6));
#611=CARTESIAN_POINT('',(-4.71436591767305,-6.88376677424483,9.32710510218458E-6));
#612=CARTESIAN_POINT('',(-0.115270563599992,-9.00233278080296,9.32710510427121E-6));
#613=CARTESIAN_POINT('',(-0.115270563599992,-9.00233278080296,9.32710510427121E-6));
#614=CARTESIAN_POINT('',(-4.10290687532269,-6.33048760463152,9.32710510427121E-6));
#615=CARTESIAN_POINT('',(-0.115270563599992,-9.00233278080296,9.32710510427121E-6));
#616=CARTESIAN_POINT('',(-0.671904975302375,-9.83309034574519,9.32710510166292E-6));
#617=CARTESIAN_POINT('',(-4.65954128702508,-7.16124516957375,9.32710510166292E-6));
#618=CARTESIAN_POINT('',(-0.671904975302375,-9.83309034574519,9.32710510166292E-6));
#619=CARTESIAN_POINT('',(-0.226597445940469,-9.16848429379141,9.32710510374955E-6));
#620=CARTESIAN_POINT('',(-0.560578092961899,-9.66693883275674,9.32710510218458E-6));
#621=MECHANICAL_DESIGN_GEOMETRIC_PRESENTATION_REPRESENTATION('',(#27,#25,
#28),#622);
#622=(
GEOMETRIC_REPRESENTATION_CONTEXT(3)
GLOBAL_UNCERTAINTY_ASSIGNED_CONTEXT((#623))
GLOBAL_UNIT_ASSIGNED_CONTEXT((#629,#625,#624))
REPRESENTATION_CONTEXT('cup_valve_button','TOP_LEVEL_ASSEMBLY_PART')
);
#623=UNCERTAINTY_MEASURE_WITH_UNIT(LENGTH_MEASURE(0.0508),#629,
'DISTANCE_ACCURACY_VALUE','Maximum Tolerance applied to model');
#624=(
NAMED_UNIT(*)
SI_UNIT($,.STERADIAN.)
SOLID_ANGLE_UNIT()
);
#625=(
CONVERSION_BASED_UNIT('DEGREE',#627)
NAMED_UNIT(#626)
PLANE_ANGLE_UNIT()
);
#626=DIMENSIONAL_EXPONENTS(0.,0.,0.,0.,0.,0.,0.);
#627=PLANE_ANGLE_MEASURE_WITH_UNIT(PLANE_ANGLE_MEASURE(0.0174532925),#628);
#628=(
NAMED_UNIT(*)
PLANE_ANGLE_UNIT()
SI_UNIT($,.RADIAN.)
);
#629=(
LENGTH_UNIT()
NAMED_UNIT(*)
SI_UNIT(.MILLI.,.METRE.)
);
ENDSEC;
END-ISO-10303-21;
