ISO-10303-21;
HEADER;
/* Generated by software containing ST-Developer
 * from STEP Tools, Inc. (www.steptools.com) 
 */
/* OPTION: using custom schema-name function */

FILE_DESCRIPTION(
/* description */ (''),
/* implementation_level */ '2;1');

FILE_NAME(
/* name */ 'menstrual_cup_valve.stp',
/* time_stamp */ '2026-09-08T16:10:45+02:00',
/* author */ (''),
/* organization */ (''),
/* preprocessor_version */ 'ST-DEVELOPER v20',
/* originating_system */ 'SIEMENS PLM Software NX2406.3002',
/* authorisation */ '');

FILE_SCHEMA (('AUTOMOTIVE_DESIGN { 1 0 10303 214 3 1 1 1 }'));
ENDSEC;

DATA;
#10=SHAPE_REPRESENTATION_RELATIONSHIP('None',
'relationship between menstrual_cup_valve-None and menstrual_cup_valve
-None',#22,#11);
#11=ADVANCED_BREP_SHAPE_REPRESENTATION('menstrual_cup_valve-None',(#160),
#1211);
#12=SHAPE_DEFINITION_REPRESENTATION(#13,#22);
#13=PRODUCT_DEFINITION_SHAPE('','',#14);
#14=PRODUCT_DEFINITION(' ','',#16,#15);
#15=PRODUCT_DEFINITION_CONTEXT('part definition',#21,'design');
#16=PRODUCT_DEFINITION_FORMATION_WITH_SPECIFIED_SOURCE(' ',' ',#18,
 .NOT_KNOWN.);
#17=PRODUCT_RELATED_PRODUCT_CATEGORY('part','',(#18));
#18=PRODUCT('menstrual_cup_valve','menstrual_cup_valve',' ',(#19));
#19=PRODUCT_CONTEXT(' ',#21,'mechanical');
#20=APPLICATION_PROTOCOL_DEFINITION('international standard',
'automotive_design',2010,#21);
#21=APPLICATION_CONTEXT(
'core data for automotive mechanical design processes');
#22=SHAPE_REPRESENTATION('menstrual_cup_valve-None',(#551),#1211);
#23=OVER_RIDING_STYLED_ITEM('',(#44),#253,#42);
#24=OVER_RIDING_STYLED_ITEM('',(#45),#254,#42);
#25=OVER_RIDING_STYLED_ITEM('',(#46),#255,#42);
#26=OVER_RIDING_STYLED_ITEM('',(#47),#256,#42);
#27=OVER_RIDING_STYLED_ITEM('',(#48),#259,#42);
#28=OVER_RIDING_STYLED_ITEM('',(#49),#260,#42);
#29=OVER_RIDING_STYLED_ITEM('',(#50),#261,#42);
#30=OVER_RIDING_STYLED_ITEM('',(#51),#262,#42);
#31=OVER_RIDING_STYLED_ITEM('',(#52),#263,#42);
#32=OVER_RIDING_STYLED_ITEM('',(#53),#264,#42);
#33=OVER_RIDING_STYLED_ITEM('',(#54),#265,#42);
#34=OVER_RIDING_STYLED_ITEM('',(#55),#266,#42);
#35=OVER_RIDING_STYLED_ITEM('',(#56),#267,#42);
#36=OVER_RIDING_STYLED_ITEM('',(#57),#273,#42);
#37=OVER_RIDING_STYLED_ITEM('',(#58),#274,#42);
#38=OVER_RIDING_STYLED_ITEM('',(#59),#275,#42);
#39=OVER_RIDING_STYLED_ITEM('',(#60),#276,#42);
#40=OVER_RIDING_STYLED_ITEM('',(#61),#277,#42);
#41=PRESENTATION_LAYER_ASSIGNMENT('1','Layer 1',(#160));
#42=STYLED_ITEM('',(#43),#160);
#43=PRESENTATION_STYLE_ASSIGNMENT((#62));
#44=PRESENTATION_STYLE_ASSIGNMENT((#63));
#45=PRESENTATION_STYLE_ASSIGNMENT((#64));
#46=PRESENTATION_STYLE_ASSIGNMENT((#65));
#47=PRESENTATION_STYLE_ASSIGNMENT((#66));
#48=PRESENTATION_STYLE_ASSIGNMENT((#67));
#49=PRESENTATION_STYLE_ASSIGNMENT((#68));
#50=PRESENTATION_STYLE_ASSIGNMENT((#69));
#51=PRESENTATION_STYLE_ASSIGNMENT((#70));
#52=PRESENTATION_STYLE_ASSIGNMENT((#71));
#53=PRESENTATION_STYLE_ASSIGNMENT((#72));
#54=PRESENTATION_STYLE_ASSIGNMENT((#73));
#55=PRESENTATION_STYLE_ASSIGNMENT((#74));
#56=PRESENTATION_STYLE_ASSIGNMENT((#75));
#57=PRESENTATION_STYLE_ASSIGNMENT((#76));
#58=PRESENTATION_STYLE_ASSIGNMENT((#77));
#59=PRESENTATION_STYLE_ASSIGNMENT((#78));
#60=PRESENTATION_STYLE_ASSIGNMENT((#79));
#61=PRESENTATION_STYLE_ASSIGNMENT((#80));
#62=SURFACE_STYLE_USAGE(.BOTH.,#81);
#63=SURFACE_STYLE_USAGE(.BOTH.,#82);
#64=SURFACE_STYLE_USAGE(.BOTH.,#83);
#65=SURFACE_STYLE_USAGE(.BOTH.,#84);
#66=SURFACE_STYLE_USAGE(.BOTH.,#85);
#67=SURFACE_STYLE_USAGE(.BOTH.,#86);
#68=SURFACE_STYLE_USAGE(.BOTH.,#87);
#69=SURFACE_STYLE_USAGE(.BOTH.,#88);
#70=SURFACE_STYLE_USAGE(.BOTH.,#89);
#71=SURFACE_STYLE_USAGE(.BOTH.,#90);
#72=SURFACE_STYLE_USAGE(.BOTH.,#91);
#73=SURFACE_STYLE_USAGE(.BOTH.,#92);
#74=SURFACE_STYLE_USAGE(.BOTH.,#93);
#75=SURFACE_STYLE_USAGE(.BOTH.,#94);
#76=SURFACE_STYLE_USAGE(.BOTH.,#95);
#77=SURFACE_STYLE_USAGE(.BOTH.,#96);
#78=SURFACE_STYLE_USAGE(.BOTH.,#97);
#79=SURFACE_STYLE_USAGE(.BOTH.,#98);
#80=SURFACE_STYLE_USAGE(.BOTH.,#99);
#81=SURFACE_SIDE_STYLE('',(#100));
#82=SURFACE_SIDE_STYLE('',(#101));
#83=SURFACE_SIDE_STYLE('',(#102));
#84=SURFACE_SIDE_STYLE('',(#103));
#85=SURFACE_SIDE_STYLE('',(#104));
#86=SURFACE_SIDE_STYLE('',(#105));
#87=SURFACE_SIDE_STYLE('',(#106));
#88=SURFACE_SIDE_STYLE('',(#107));
#89=SURFACE_SIDE_STYLE('',(#108));
#90=SURFACE_SIDE_STYLE('',(#109));
#91=SURFACE_SIDE_STYLE('',(#110));
#92=SURFACE_SIDE_STYLE('',(#111));
#93=SURFACE_SIDE_STYLE('',(#112));
#94=SURFACE_SIDE_STYLE('',(#113));
#95=SURFACE_SIDE_STYLE('',(#114));
#96=SURFACE_SIDE_STYLE('',(#115));
#97=SURFACE_SIDE_STYLE('',(#116));
#98=SURFACE_SIDE_STYLE('',(#117));
#99=SURFACE_SIDE_STYLE('',(#118));
#100=SURFACE_STYLE_FILL_AREA(#119);
#101=SURFACE_STYLE_FILL_AREA(#120);
#102=SURFACE_STYLE_FILL_AREA(#121);
#103=SURFACE_STYLE_FILL_AREA(#122);
#104=SURFACE_STYLE_FILL_AREA(#123);
#105=SURFACE_STYLE_FILL_AREA(#124);
#106=SURFACE_STYLE_FILL_AREA(#125);
#107=SURFACE_STYLE_FILL_AREA(#126);
#108=SURFACE_STYLE_FILL_AREA(#127);
#109=SURFACE_STYLE_FILL_AREA(#128);
#110=SURFACE_STYLE_FILL_AREA(#129);
#111=SURFACE_STYLE_FILL_AREA(#130);
#112=SURFACE_STYLE_FILL_AREA(#131);
#113=SURFACE_STYLE_FILL_AREA(#132);
#114=SURFACE_STYLE_FILL_AREA(#133);
#115=SURFACE_STYLE_FILL_AREA(#134);
#116=SURFACE_STYLE_FILL_AREA(#135);
#117=SURFACE_STYLE_FILL_AREA(#136);
#118=SURFACE_STYLE_FILL_AREA(#137);
#119=FILL_AREA_STYLE('',(#138));
#120=FILL_AREA_STYLE('',(#139));
#121=FILL_AREA_STYLE('',(#140));
#122=FILL_AREA_STYLE('',(#141));
#123=FILL_AREA_STYLE('',(#142));
#124=FILL_AREA_STYLE('',(#143));
#125=FILL_AREA_STYLE('',(#144));
#126=FILL_AREA_STYLE('',(#145));
#127=FILL_AREA_STYLE('',(#146));
#128=FILL_AREA_STYLE('',(#147));
#129=FILL_AREA_STYLE('',(#148));
#130=FILL_AREA_STYLE('',(#149));
#131=FILL_AREA_STYLE('',(#150));
#132=FILL_AREA_STYLE('',(#151));
#133=FILL_AREA_STYLE('',(#152));
#134=FILL_AREA_STYLE('',(#153));
#135=FILL_AREA_STYLE('',(#154));
#136=FILL_AREA_STYLE('',(#155));
#137=FILL_AREA_STYLE('',(#156));
#138=FILL_AREA_STYLE_COLOUR('',#157);
#139=FILL_AREA_STYLE_COLOUR('',#158);
#140=FILL_AREA_STYLE_COLOUR('',#159);
#141=FILL_AREA_STYLE_COLOUR('',#159);
#142=FILL_AREA_STYLE_COLOUR('',#159);
#143=FILL_AREA_STYLE_COLOUR('',#159);
#144=FILL_AREA_STYLE_COLOUR('',#159);
#145=FILL_AREA_STYLE_COLOUR('',#159);
#146=FILL_AREA_STYLE_COLOUR('',#159);
#147=FILL_AREA_STYLE_COLOUR('',#159);
#148=FILL_AREA_STYLE_COLOUR('',#159);
#149=FILL_AREA_STYLE_COLOUR('',#159);
#150=FILL_AREA_STYLE_COLOUR('',#159);
#151=FILL_AREA_STYLE_COLOUR('',#159);
#152=FILL_AREA_STYLE_COLOUR('',#158);
#153=FILL_AREA_STYLE_COLOUR('',#158);
#154=FILL_AREA_STYLE_COLOUR('',#158);
#155=FILL_AREA_STYLE_COLOUR('',#158);
#156=FILL_AREA_STYLE_COLOUR('',#158);
#157=COLOUR_RGB('medium royal',0.2,0.4,0.8);
#158=COLOUR_RGB('medium steel',0.596078431372549,0.666666666666667,0.686274509803922);
#159=COLOUR_RGB('strong pink',0.933333333333333,0.584313725490196,0.741176470588235);
#160=MANIFOLD_SOLID_BREP('',#161);
#161=CLOSED_SHELL('',(#250,#251,#252,#253,#254,#255,#256,#257,#258,#259,
#260,#261,#262,#263,#264,#265,#266,#267,#268,#269,#270,#271,#272,#273,#274,
#275,#276,#277));
#162=TOROIDAL_SURFACE('',#580,20.5,2.5);
#163=PLANE('',#575);
#164=PLANE('',#588);
#165=PLANE('',#597);
#166=PLANE('',#600);
#167=VERTEX_LOOP('',#464);
#168=VERTEX_LOOP('',#466);
#169=CONICAL_SURFACE('',#559,6.65201770151248,50.5839644347205);
#170=CONICAL_SURFACE('',#568,10.8390950420164,41.4822894569321);
#171=CONICAL_SURFACE('',#570,6.50096024900565,56.1766370569855);
#172=CONICAL_SURFACE('',#578,19.5,1.96910417977654);
#173=CONICAL_SURFACE('',#582,17.6376830081336,1.96910417977823);
#174=CONICAL_SURFACE('',#585,17.5174738306614,1.96910417977811);
#175=CONICAL_SURFACE('',#590,13.0064280515746,31.2856074132056);
#176=CONICAL_SURFACE('',#591,13.0982202000044,21.5087082515236);
#177=CONICAL_SURFACE('',#592,12.4076702234399,34.01741361466);
#178=CONICAL_SURFACE('',#594,9.93037228468044,39.4160355652795);
#179=CONICAL_SURFACE('',#596,6.96593837279441,39.4160355652795);
#180=LINE('',#923,#181);
#181=VECTOR('',#613,1.);
#182=CYLINDRICAL_SURFACE('',#555,3.5);
#183=CYLINDRICAL_SURFACE('',#587,17.6147014604425);
#184=CYLINDRICAL_SURFACE('',#599,4.5);
#185=CIRCLE('',#554,3.5);
#186=CIRCLE('',#556,6.65201770151248);
#187=CIRCLE('',#557,10.438329689418);
#188=CIRCLE('',#560,7.17030983901613);
#189=CIRCLE('',#561,10.850088188915);
#190=CIRCLE('',#562,25.8603087862362);
#191=CIRCLE('',#563,17.);
#192=CIRCLE('',#564,5.04984193569704);
#193=CIRCLE('',#565,9.97612712302337);
#194=CIRCLE('',#566,6.50096024900558);
#195=CIRCLE('',#567,10.8390950420164);
#196=CIRCLE('',#569,5.0084949118349);
#197=CIRCLE('',#571,13.0982202000044);
#198=CIRCLE('',#572,15.);
#199=CIRCLE('',#573,12.4076702234397);
#200=CIRCLE('',#574,11.1777620827283);
#201=CIRCLE('',#576,19.5);
#202=CIRCLE('',#577,19.9149573381208);
#203=CIRCLE('',#579,18.0014762482299);
#204=CIRCLE('',#581,17.6147014604426);
#205=CIRCLE('',#583,17.5);
#206=CIRCLE('',#584,17.5149968845363);
#207=CIRCLE('',#586,17.6147014604425);
#208=CIRCLE('',#589,13.0064280515746);
#209=CIRCLE('',#598,4.5);
#210=FACE_BOUND('',#300,.T.);
#211=FACE_BOUND('',#301,.T.);
#212=FACE_BOUND('',#303,.T.);
#213=FACE_BOUND('',#167,.T.);
#214=FACE_BOUND('',#304,.T.);
#215=FACE_BOUND('',#168,.T.);
#216=FACE_BOUND('',#305,.T.);
#217=FACE_BOUND('',#307,.T.);
#218=FACE_BOUND('',#308,.T.);
#219=FACE_BOUND('',#310,.T.);
#220=FACE_BOUND('',#311,.T.);
#221=FACE_BOUND('',#312,.T.);
#222=FACE_BOUND('',#313,.T.);
#223=FACE_BOUND('',#315,.T.);
#224=FACE_BOUND('',#316,.T.);
#225=FACE_BOUND('',#317,.T.);
#226=FACE_BOUND('',#318,.T.);
#227=FACE_BOUND('',#319,.T.);
#228=FACE_BOUND('',#320,.T.);
#229=FACE_BOUND('',#321,.T.);
#230=FACE_BOUND('',#322,.T.);
#231=FACE_BOUND('',#323,.T.);
#232=FACE_BOUND('',#324,.T.);
#233=FACE_BOUND('',#325,.T.);
#234=FACE_BOUND('',#326,.T.);
#235=FACE_BOUND('',#327,.T.);
#236=FACE_BOUND('',#328,.T.);
#237=FACE_BOUND('',#329,.T.);
#238=FACE_BOUND('',#330,.T.);
#239=FACE_BOUND('',#331,.T.);
#240=FACE_BOUND('',#332,.T.);
#241=FACE_BOUND('',#333,.T.);
#242=FACE_BOUND('',#334,.T.);
#243=FACE_BOUND('',#335,.T.);
#244=FACE_BOUND('',#336,.T.);
#245=ELLIPSE('',#552,4.21302212305872,3.5);
#246=ELLIPSE('',#553,4.21302212305872,3.5);
#247=ELLIPSE('',#558,6.58201508343048,3.16663853317878);
#248=ELLIPSE('',#593,28.0748996741868,19.4683800146304);
#249=ELLIPSE('',#595,17.114972427462,11.8682806002727);
#250=ADVANCED_FACE('',(#287),#278,.T.);
#251=ADVANCED_FACE('',(#288),#279,.T.);
#252=ADVANCED_FACE('',(#210,#211),#182,.F.);
#253=ADVANCED_FACE('',(#289),#169,.T.);
#254=ADVANCED_FACE('',(#212,#213,#214),#280,.T.);
#255=ADVANCED_FACE('',(#215,#216),#281,.T.);
#256=ADVANCED_FACE('',(#290),#282,.T.);
#257=ADVANCED_FACE('',(#217,#218),#170,.F.);
#258=ADVANCED_FACE('',(#291),#171,.F.);
#259=ADVANCED_FACE('',(#219,#220),#283,.T.);
#260=ADVANCED_FACE('',(#221,#222),#284,.T.);
#261=ADVANCED_FACE('',(#292),#163,.T.);
#262=ADVANCED_FACE('',(#223,#224),#285,.T.);
#263=ADVANCED_FACE('',(#225,#226),#172,.T.);
#264=ADVANCED_FACE('',(#227,#228),#162,.T.);
#265=ADVANCED_FACE('',(#229,#230),#173,.F.);
#266=ADVANCED_FACE('',(#231,#232),#174,.F.);
#267=ADVANCED_FACE('',(#233,#234),#286,.T.);
#268=ADVANCED_FACE('',(#235,#236),#183,.F.);
#269=ADVANCED_FACE('',(#237,#238),#164,.F.);
#270=ADVANCED_FACE('',(#239,#240),#175,.F.);
#271=ADVANCED_FACE('',(#241,#242),#176,.F.);
#272=ADVANCED_FACE('',(#243,#244),#177,.F.);
#273=ADVANCED_FACE('',(#293),#178,.F.);
#274=ADVANCED_FACE('',(#294),#179,.T.);
#275=ADVANCED_FACE('',(#295),#165,.F.);
#276=ADVANCED_FACE('',(#296),#184,.F.);
#277=ADVANCED_FACE('',(#297),#166,.T.);
#278=(
BOUNDED_SURFACE()
B_SPLINE_SURFACE(3,2,((#750,#751,#752),(#753,#754,#755),(#756,#757,#758),
(#759,#760,#761)),.UNSPECIFIED.,.F.,.F.,.F.)
B_SPLINE_SURFACE_WITH_KNOTS((4,4),(3,3),(0.,1.),(0.,1.),.UNSPECIFIED.)
GEOMETRIC_REPRESENTATION_ITEM()
RATIONAL_B_SPLINE_SURFACE(((1.,0.770902891406956,1.),(1.,0.769292636805533,
1.),(1.,0.767802059423903,1.),(1.,0.766408108838373,1.)))
REPRESENTATION_ITEM('')
SURFACE()
);
#279=(
BOUNDED_SURFACE()
B_SPLINE_SURFACE(3,2,((#815,#816,#817),(#818,#819,#820),(#821,#822,#823),
(#824,#825,#826)),.UNSPECIFIED.,.F.,.F.,.F.)
B_SPLINE_SURFACE_WITH_KNOTS((4,4),(3,3),(0.,1.),(0.,1.),.UNSPECIFIED.)
GEOMETRIC_REPRESENTATION_ITEM()
RATIONAL_B_SPLINE_SURFACE(((1.,0.642723567393745,1.),(1.,0.644306724137943,
1.),(1.,0.645774687399471,1.),(1.,0.647149358288765,1.)))
REPRESENTATION_ITEM('')
SURFACE()
);
#280=(
BOUNDED_SURFACE()
B_SPLINE_SURFACE(3,3,((#953,#954,#955,#956,#957,#958,#959),(#960,#961,#962,
#963,#964,#965,#966),(#967,#968,#969,#970,#971,#972,#973),(#974,#975,#976,
#977,#978,#979,#980)),.UNSPECIFIED.,.F.,.T.,.F.)
B_SPLINE_SURFACE_WITH_KNOTS((4,4),(1,3,3,3,1),(0.,1.),(-0.5,0.,0.5,1.,1.5),
 .UNSPECIFIED.)
GEOMETRIC_REPRESENTATION_ITEM()
RATIONAL_B_SPLINE_SURFACE(((1.,0.333333333333333,0.333333333333333,1.,0.333333333333333,
0.333333333333333,1.),(0.918651112289654,0.306217037429885,0.306217037429885,
0.918651112289654,0.306217037429885,0.306217037429885,0.918651112289654),
(0.918651112289654,0.306217037429885,0.306217037429885,0.918651112289654,
0.306217037429885,0.306217037429885,0.918651112289654),(1.,0.333333333333333,
0.333333333333333,1.,0.333333333333333,0.333333333333333,1.)))
REPRESENTATION_ITEM('')
SURFACE()
);
#281=(
BOUNDED_SURFACE()
B_SPLINE_SURFACE(3,3,((#983,#984,#985,#986,#987,#988,#989),(#990,#991,#992,
#993,#994,#995,#996),(#997,#998,#999,#1000,#1001,#1002,#1003),(#1004,#1005,
#1006,#1007,#1008,#1009,#1010)),.UNSPECIFIED.,.F.,.T.,.F.)
B_SPLINE_SURFACE_WITH_KNOTS((4,4),(1,3,3,3,1),(0.,1.),(-0.5,0.,0.5,1.,1.5),
 .UNSPECIFIED.)
GEOMETRIC_REPRESENTATION_ITEM()
RATIONAL_B_SPLINE_SURFACE(((1.,0.333333333333333,0.333333333333333,1.,0.333333333333333,
0.333333333333333,1.),(0.995084372766623,0.331694790922208,0.331694790922208,
0.995084372766623,0.331694790922208,0.331694790922208,0.995084372766623),
(0.995084372766623,0.331694790922208,0.331694790922208,0.995084372766623,
0.331694790922208,0.331694790922208,0.995084372766623),(1.,0.333333333333333,
0.333333333333333,1.,0.333333333333333,0.333333333333333,1.)))
REPRESENTATION_ITEM('')
SURFACE()
);
#282=(
BOUNDED_SURFACE()
B_SPLINE_SURFACE(3,3,((#1013,#1014,#1015,#1016,#1017,#1018,#1019),(#1020,
#1021,#1022,#1023,#1024,#1025,#1026),(#1027,#1028,#1029,#1030,#1031,#1032,
#1033),(#1034,#1035,#1036,#1037,#1038,#1039,#1040)),.UNSPECIFIED.,.F.,.F.,
 .F.)
B_SPLINE_SURFACE_WITH_KNOTS((4,4),(4,3,4),(0.,1.),(0.,0.5,1.),
 .UNSPECIFIED.)
GEOMETRIC_REPRESENTATION_ITEM()
RATIONAL_B_SPLINE_SURFACE(((1.,0.390311264366574,0.390311264366574,1.,0.390311264366574,
0.390311264366574,1.),(0.996494513709844,0.388943033580444,0.388943033580444,
0.996494513709844,0.388943033580444,0.388943033580444,0.996494513709844),
(0.996494513709844,0.388943033580444,0.388943033580444,0.996494513709844,
0.388943033580444,0.388943033580444,0.996494513709844),(1.,0.390311264366574,
0.390311264366574,1.,0.390311264366574,0.390311264366574,1.)))
REPRESENTATION_ITEM('')
SURFACE()
);
#283=(
BOUNDED_SURFACE()
B_SPLINE_SURFACE(3,3,((#1050,#1051,#1052,#1053,#1054,#1055,#1056),(#1057,
#1058,#1059,#1060,#1061,#1062,#1063),(#1064,#1065,#1066,#1067,#1068,#1069,
#1070),(#1071,#1072,#1073,#1074,#1075,#1076,#1077)),.UNSPECIFIED.,.F.,.T.,
 .F.)
B_SPLINE_SURFACE_WITH_KNOTS((4,4),(1,3,3,3,1),(0.,1.),(-0.5,0.,0.5,1.,1.5),
 .UNSPECIFIED.)
GEOMETRIC_REPRESENTATION_ITEM()
RATIONAL_B_SPLINE_SURFACE(((1.,0.333333333333333,0.333333333333333,1.,0.333333333333333,
0.333333333333333,1.),(0.99568587115792,0.331895290385973,0.331895290385973,
0.99568587115792,0.331895290385973,0.331895290385973,0.99568587115792),
(0.99568587115792,0.331895290385973,0.331895290385973,0.99568587115792,
0.331895290385973,0.331895290385973,0.99568587115792),(1.,0.333333333333333,
0.333333333333333,1.,0.333333333333333,0.333333333333333,1.)))
REPRESENTATION_ITEM('')
SURFACE()
);
#284=(
BOUNDED_SURFACE()
B_SPLINE_SURFACE(3,3,((#1082,#1083,#1084,#1085,#1086,#1087,#1088),(#1089,
#1090,#1091,#1092,#1093,#1094,#1095),(#1096,#1097,#1098,#1099,#1100,#1101,
#1102),(#1103,#1104,#1105,#1106,#1107,#1108,#1109)),.UNSPECIFIED.,.F.,.T.,
 .F.)
B_SPLINE_SURFACE_WITH_KNOTS((4,4),(1,3,3,3,1),(0.,1.),(-0.5,0.,0.5,1.,1.5),
 .UNSPECIFIED.)
GEOMETRIC_REPRESENTATION_ITEM()
RATIONAL_B_SPLINE_SURFACE(((1.,0.333333333333333,0.333333333333333,1.,0.333333333333333,
0.333333333333333,1.),(0.999242380788212,0.333080793596071,0.333080793596071,
0.999242380788212,0.333080793596071,0.333080793596071,0.999242380788212),
(0.999242380788212,0.333080793596071,0.333080793596071,0.999242380788212,
0.333080793596071,0.333080793596071,0.999242380788212),(1.,0.333333333333333,
0.333333333333333,1.,0.333333333333333,0.333333333333333,1.)))
REPRESENTATION_ITEM('')
SURFACE()
);
#285=(
BOUNDED_SURFACE()
B_SPLINE_SURFACE(3,3,((#1113,#1114,#1115,#1116,#1117,#1118,#1119),(#1120,
#1121,#1122,#1123,#1124,#1125,#1126),(#1127,#1128,#1129,#1130,#1131,#1132,
#1133),(#1134,#1135,#1136,#1137,#1138,#1139,#1140)),.UNSPECIFIED.,.F.,.T.,
 .F.)
B_SPLINE_SURFACE_WITH_KNOTS((4,4),(1,3,3,3,1),(0.,1.),(-0.5,0.,0.5,1.,1.5),
 .UNSPECIFIED.)
GEOMETRIC_REPRESENTATION_ITEM()
RATIONAL_B_SPLINE_SURFACE(((1.,0.333333333333333,0.333333333333333,1.,0.333333333333333,
0.333333333333333,1.),(0.995849452213467,0.331949817404489,0.331949817404489,
0.995849452213467,0.331949817404489,0.331949817404489,0.995849452213467),
(0.995849452213467,0.331949817404489,0.331949817404489,0.995849452213467,
0.331949817404489,0.331949817404489,0.995849452213467),(1.,0.333333333333333,
0.333333333333333,1.,0.333333333333333,0.333333333333333,1.)))
REPRESENTATION_ITEM('')
SURFACE()
);
#286=(
BOUNDED_SURFACE()
B_SPLINE_SURFACE(3,3,((#1155,#1156,#1157,#1158,#1159,#1160,#1161),(#1162,
#1163,#1164,#1165,#1166,#1167,#1168),(#1169,#1170,#1171,#1172,#1173,#1174,
#1175),(#1176,#1177,#1178,#1179,#1180,#1181,#1182)),.UNSPECIFIED.,.F.,.T.,
 .F.)
B_SPLINE_SURFACE_WITH_KNOTS((4,4),(1,3,3,3,1),(0.,1.),(-0.5,0.,0.5,1.,1.5),
 .UNSPECIFIED.)
GEOMETRIC_REPRESENTATION_ITEM()
RATIONAL_B_SPLINE_SURFACE(((1.,0.333333333333333,0.333333333333333,1.,0.333333333333333,
0.333333333333333,1.),(0.995849452213467,0.331949817404489,0.331949817404489,
0.995849452213467,0.331949817404489,0.331949817404489,0.995849452213467),
(0.995849452213467,0.331949817404489,0.331949817404489,0.995849452213467,
0.331949817404489,0.331949817404489,0.995849452213467),(1.,0.333333333333333,
0.333333333333333,1.,0.333333333333333,0.333333333333333,1.)))
REPRESENTATION_ITEM('')
SURFACE()
);
#287=FACE_OUTER_BOUND('',#298,.T.);
#288=FACE_OUTER_BOUND('',#299,.T.);
#289=FACE_OUTER_BOUND('',#302,.T.);
#290=FACE_OUTER_BOUND('',#306,.T.);
#291=FACE_OUTER_BOUND('',#309,.T.);
#292=FACE_OUTER_BOUND('',#314,.T.);
#293=FACE_OUTER_BOUND('',#337,.T.);
#294=FACE_OUTER_BOUND('',#338,.T.);
#295=FACE_OUTER_BOUND('',#339,.T.);
#296=FACE_OUTER_BOUND('',#340,.T.);
#297=FACE_OUTER_BOUND('',#341,.T.);
#298=EDGE_LOOP('',(#342,#343,#344,#345));
#299=EDGE_LOOP('',(#346,#347,#348,#349));
#300=EDGE_LOOP('',(#350,#351,#352,#353,#354,#355,#356,#357));
#301=EDGE_LOOP('',(#358,#359,#360));
#302=EDGE_LOOP('',(#361,#362,#363,#364,#365,#366,#367));
#303=EDGE_LOOP('',(#368,#369,#370,#371,#372,#373));
#304=EDGE_LOOP('',(#374));
#305=EDGE_LOOP('',(#375,#376));
#306=EDGE_LOOP('',(#377,#378,#379,#380));
#307=EDGE_LOOP('',(#381));
#308=EDGE_LOOP('',(#382,#383));
#309=EDGE_LOOP('',(#384,#385,#386,#387));
#310=EDGE_LOOP('',(#388));
#311=EDGE_LOOP('',(#389));
#312=EDGE_LOOP('',(#390));
#313=EDGE_LOOP('',(#391));
#314=EDGE_LOOP('',(#392,#393,#394,#395));
#315=EDGE_LOOP('',(#396));
#316=EDGE_LOOP('',(#397));
#317=EDGE_LOOP('',(#398));
#318=EDGE_LOOP('',(#399));
#319=EDGE_LOOP('',(#400));
#320=EDGE_LOOP('',(#401));
#321=EDGE_LOOP('',(#402));
#322=EDGE_LOOP('',(#403));
#323=EDGE_LOOP('',(#404));
#324=EDGE_LOOP('',(#405));
#325=EDGE_LOOP('',(#406));
#326=EDGE_LOOP('',(#407));
#327=EDGE_LOOP('',(#408));
#328=EDGE_LOOP('',(#409));
#329=EDGE_LOOP('',(#410));
#330=EDGE_LOOP('',(#411));
#331=EDGE_LOOP('',(#412));
#332=EDGE_LOOP('',(#413));
#333=EDGE_LOOP('',(#414));
#334=EDGE_LOOP('',(#415));
#335=EDGE_LOOP('',(#416));
#336=EDGE_LOOP('',(#417));
#337=EDGE_LOOP('',(#418,#419,#420,#421,#422,#423));
#338=EDGE_LOOP('',(#424,#425,#426,#427,#428));
#339=EDGE_LOOP('',(#429,#430,#431,#432));
#340=EDGE_LOOP('',(#433,#434,#435,#436));
#341=EDGE_LOOP('',(#437,#438,#439,#440,#441));
#342=ORIENTED_EDGE('',*,*,#482,.F.);
#343=ORIENTED_EDGE('',*,*,#483,.T.);
#344=ORIENTED_EDGE('',*,*,#484,.F.);
#345=ORIENTED_EDGE('',*,*,#485,.F.);
#346=ORIENTED_EDGE('',*,*,#486,.F.);
#347=ORIENTED_EDGE('',*,*,#487,.F.);
#348=ORIENTED_EDGE('',*,*,#488,.F.);
#349=ORIENTED_EDGE('',*,*,#489,.T.);
#350=ORIENTED_EDGE('',*,*,#490,.F.);
#351=ORIENTED_EDGE('',*,*,#491,.F.);
#352=ORIENTED_EDGE('',*,*,#492,.F.);
#353=ORIENTED_EDGE('',*,*,#493,.F.);
#354=ORIENTED_EDGE('',*,*,#494,.F.);
#355=ORIENTED_EDGE('',*,*,#495,.F.);
#356=ORIENTED_EDGE('',*,*,#496,.F.);
#357=ORIENTED_EDGE('',*,*,#497,.F.);
#358=ORIENTED_EDGE('',*,*,#498,.T.);
#359=ORIENTED_EDGE('',*,*,#499,.T.);
#360=ORIENTED_EDGE('',*,*,#500,.T.);
#361=ORIENTED_EDGE('',*,*,#501,.T.);
#362=ORIENTED_EDGE('',*,*,#485,.T.);
#363=ORIENTED_EDGE('',*,*,#502,.F.);
#364=ORIENTED_EDGE('',*,*,#487,.T.);
#365=ORIENTED_EDGE('',*,*,#503,.F.);
#366=ORIENTED_EDGE('',*,*,#500,.F.);
#367=ORIENTED_EDGE('',*,*,#504,.T.);
#368=ORIENTED_EDGE('',*,*,#483,.F.);
#369=ORIENTED_EDGE('',*,*,#505,.T.);
#370=ORIENTED_EDGE('',*,*,#506,.F.);
#371=ORIENTED_EDGE('',*,*,#507,.T.);
#372=ORIENTED_EDGE('',*,*,#489,.F.);
#373=ORIENTED_EDGE('',*,*,#508,.F.);
#374=ORIENTED_EDGE('',*,*,#509,.T.);
#375=ORIENTED_EDGE('',*,*,#510,.F.);
#376=ORIENTED_EDGE('',*,*,#495,.T.);
#377=ORIENTED_EDGE('',*,*,#511,.F.);
#378=ORIENTED_EDGE('',*,*,#490,.T.);
#379=ORIENTED_EDGE('',*,*,#512,.T.);
#380=ORIENTED_EDGE('',*,*,#492,.T.);
#381=ORIENTED_EDGE('',*,*,#513,.T.);
#382=ORIENTED_EDGE('',*,*,#511,.T.);
#383=ORIENTED_EDGE('',*,*,#491,.T.);
#384=ORIENTED_EDGE('',*,*,#512,.F.);
#385=ORIENTED_EDGE('',*,*,#497,.T.);
#386=ORIENTED_EDGE('',*,*,#514,.T.);
#387=ORIENTED_EDGE('',*,*,#493,.T.);
#388=ORIENTED_EDGE('',*,*,#515,.T.);
#389=ORIENTED_EDGE('',*,*,#516,.F.);
#390=ORIENTED_EDGE('',*,*,#517,.F.);
#391=ORIENTED_EDGE('',*,*,#518,.T.);
#392=ORIENTED_EDGE('',*,*,#514,.F.);
#393=ORIENTED_EDGE('',*,*,#496,.T.);
#394=ORIENTED_EDGE('',*,*,#510,.T.);
#395=ORIENTED_EDGE('',*,*,#494,.T.);
#396=ORIENTED_EDGE('',*,*,#519,.T.);
#397=ORIENTED_EDGE('',*,*,#509,.F.);
#398=ORIENTED_EDGE('',*,*,#520,.T.);
#399=ORIENTED_EDGE('',*,*,#519,.F.);
#400=ORIENTED_EDGE('',*,*,#521,.T.);
#401=ORIENTED_EDGE('',*,*,#520,.F.);
#402=ORIENTED_EDGE('',*,*,#522,.T.);
#403=ORIENTED_EDGE('',*,*,#521,.F.);
#404=ORIENTED_EDGE('',*,*,#523,.T.);
#405=ORIENTED_EDGE('',*,*,#524,.F.);
#406=ORIENTED_EDGE('',*,*,#516,.T.);
#407=ORIENTED_EDGE('',*,*,#523,.F.);
#408=ORIENTED_EDGE('',*,*,#522,.F.);
#409=ORIENTED_EDGE('',*,*,#525,.F.);
#410=ORIENTED_EDGE('',*,*,#524,.T.);
#411=ORIENTED_EDGE('',*,*,#525,.T.);
#412=ORIENTED_EDGE('',*,*,#517,.T.);
#413=ORIENTED_EDGE('',*,*,#526,.T.);
#414=ORIENTED_EDGE('',*,*,#515,.F.);
#415=ORIENTED_EDGE('',*,*,#526,.F.);
#416=ORIENTED_EDGE('',*,*,#513,.F.);
#417=ORIENTED_EDGE('',*,*,#518,.F.);
#418=ORIENTED_EDGE('',*,*,#503,.T.);
#419=ORIENTED_EDGE('',*,*,#486,.T.);
#420=ORIENTED_EDGE('',*,*,#507,.F.);
#421=ORIENTED_EDGE('',*,*,#527,.F.);
#422=ORIENTED_EDGE('',*,*,#528,.T.);
#423=ORIENTED_EDGE('',*,*,#498,.F.);
#424=ORIENTED_EDGE('',*,*,#505,.F.);
#425=ORIENTED_EDGE('',*,*,#482,.T.);
#426=ORIENTED_EDGE('',*,*,#501,.F.);
#427=ORIENTED_EDGE('',*,*,#529,.T.);
#428=ORIENTED_EDGE('',*,*,#530,.F.);
#429=ORIENTED_EDGE('',*,*,#502,.T.);
#430=ORIENTED_EDGE('',*,*,#484,.T.);
#431=ORIENTED_EDGE('',*,*,#508,.T.);
#432=ORIENTED_EDGE('',*,*,#488,.T.);
#433=ORIENTED_EDGE('',*,*,#527,.T.);
#434=ORIENTED_EDGE('',*,*,#506,.T.);
#435=ORIENTED_EDGE('',*,*,#530,.T.);
#436=ORIENTED_EDGE('',*,*,#531,.T.);
#437=ORIENTED_EDGE('',*,*,#531,.F.);
#438=ORIENTED_EDGE('',*,*,#529,.F.);
#439=ORIENTED_EDGE('',*,*,#504,.F.);
#440=ORIENTED_EDGE('',*,*,#499,.F.);
#441=ORIENTED_EDGE('',*,*,#528,.F.);
#442=VERTEX_POINT('',#707);
#443=VERTEX_POINT('',#708);
#444=VERTEX_POINT('',#725);
#445=VERTEX_POINT('',#733);
#446=VERTEX_POINT('',#769);
#447=VERTEX_POINT('',#770);
#448=VERTEX_POINT('',#790);
#449=VERTEX_POINT('',#795);
#450=VERTEX_POINT('',#843);
#451=VERTEX_POINT('',#844);
#452=VERTEX_POINT('',#858);
#453=VERTEX_POINT('',#875);
#454=VERTEX_POINT('',#886);
#455=VERTEX_POINT('',#888);
#456=VERTEX_POINT('',#893);
#457=VERTEX_POINT('',#895);
#458=VERTEX_POINT('',#910);
#459=VERTEX_POINT('',#911);
#460=VERTEX_POINT('',#913);
#461=VERTEX_POINT('',#922);
#462=VERTEX_POINT('',#928);
#463=VERTEX_POINT('',#947);
#464=VERTEX_POINT('',#950);
#465=VERTEX_POINT('',#952);
#466=VERTEX_POINT('',#981);
#467=VERTEX_POINT('',#1042);
#468=VERTEX_POINT('',#1047);
#469=VERTEX_POINT('',#1049);
#470=VERTEX_POINT('',#1079);
#471=VERTEX_POINT('',#1081);
#472=VERTEX_POINT('',#1112);
#473=VERTEX_POINT('',#1142);
#474=VERTEX_POINT('',#1145);
#475=VERTEX_POINT('',#1148);
#476=VERTEX_POINT('',#1151);
#477=VERTEX_POINT('',#1153);
#478=VERTEX_POINT('',#1184);
#479=VERTEX_POINT('',#1188);
#480=VERTEX_POINT('',#1196);
#481=VERTEX_POINT('',#1200);
#482=EDGE_CURVE('',#442,#443,#532,.T.);
#483=EDGE_CURVE('',#442,#444,#533,.T.);
#484=EDGE_CURVE('',#445,#444,#534,.T.);
#485=EDGE_CURVE('',#443,#445,#535,.T.);
#486=EDGE_CURVE('',#446,#447,#536,.T.);
#487=EDGE_CURVE('',#448,#446,#537,.T.);
#488=EDGE_CURVE('',#449,#448,#538,.T.);
#489=EDGE_CURVE('',#449,#447,#539,.T.);
#490=EDGE_CURVE('',#450,#451,#540,.T.);
#491=EDGE_CURVE('',#452,#450,#541,.T.);
#492=EDGE_CURVE('',#453,#452,#542,.T.);
#493=EDGE_CURVE('',#454,#453,#543,.T.);
#494=EDGE_CURVE('',#455,#454,#245,.T.);
#495=EDGE_CURVE('',#456,#455,#544,.T.);
#496=EDGE_CURVE('',#457,#456,#246,.T.);
#497=EDGE_CURVE('',#451,#457,#545,.T.);
#498=EDGE_CURVE('',#458,#459,#546,.T.);
#499=EDGE_CURVE('',#459,#460,#185,.T.);
#500=EDGE_CURVE('',#460,#458,#547,.T.);
#501=EDGE_CURVE('',#461,#443,#186,.T.);
#502=EDGE_CURVE('',#448,#445,#180,.T.);
#503=EDGE_CURVE('',#458,#446,#187,.T.);
#504=EDGE_CURVE('',#460,#461,#247,.T.);
#505=EDGE_CURVE('',#442,#462,#188,.T.);
#506=EDGE_CURVE('',#463,#462,#548,.T.);
#507=EDGE_CURVE('',#463,#447,#189,.T.);
#508=EDGE_CURVE('',#444,#449,#190,.T.);
#509=EDGE_CURVE('',#465,#465,#191,.T.);
#510=EDGE_CURVE('',#456,#455,#192,.T.);
#511=EDGE_CURVE('',#450,#452,#193,.T.);
#512=EDGE_CURVE('',#451,#453,#194,.T.);
#513=EDGE_CURVE('',#467,#467,#195,.T.);
#514=EDGE_CURVE('',#457,#454,#196,.T.);
#515=EDGE_CURVE('',#468,#468,#197,.T.);
#516=EDGE_CURVE('',#469,#469,#198,.T.);
#517=EDGE_CURVE('',#470,#470,#199,.T.);
#518=EDGE_CURVE('',#471,#471,#200,.T.);
#519=EDGE_CURVE('',#472,#472,#201,.T.);
#520=EDGE_CURVE('',#473,#473,#202,.T.);
#521=EDGE_CURVE('',#474,#474,#203,.T.);
#522=EDGE_CURVE('',#475,#475,#204,.T.);
#523=EDGE_CURVE('',#476,#476,#205,.T.);
#524=EDGE_CURVE('',#477,#477,#206,.T.);
#525=EDGE_CURVE('',#478,#478,#207,.T.);
#526=EDGE_CURVE('',#479,#479,#208,.T.);
#527=EDGE_CURVE('',#480,#463,#549,.T.);
#528=EDGE_CURVE('',#480,#459,#248,.T.);
#529=EDGE_CURVE('',#461,#481,#249,.T.);
#530=EDGE_CURVE('',#462,#481,#550,.T.);
#531=EDGE_CURVE('',#481,#480,#209,.T.);
#532=B_SPLINE_CURVE_WITH_KNOTS('',3,(#703,#704,#705,#706),.UNSPECIFIED.,
 .F.,.F.,(4,4),(0.,1.),.UNSPECIFIED.);
#533=B_SPLINE_CURVE_WITH_KNOTS('',3,(#709,#710,#711,#712,#713,#714,#715,
#716,#717,#718,#719,#720,#721,#722,#723,#724),.UNSPECIFIED.,.F.,.F.,(4,
3,3,3,3,4),(0.,0.0358642504773683,0.277282896410064,0.518232924444953,0.759114005571029,
1.),.UNSPECIFIED.);
#534=B_SPLINE_CURVE_WITH_KNOTS('',3,(#726,#727,#728,#729,#730,#731,#732),
 .UNSPECIFIED.,.F.,.F.,(4,3,4),(0.,0.774991307697614,1.),.UNSPECIFIED.);
#535=B_SPLINE_CURVE_WITH_KNOTS('',3,(#734,#735,#736,#737,#738,#739,#740,
#741,#742,#743,#744,#745,#746,#747,#748,#749),.UNSPECIFIED.,.F.,.F.,(4,
3,3,3,3,4),(0.,0.242439722245731,0.484943296460802,0.726837770453436,0.970152187898387,
1.),.UNSPECIFIED.);
#536=B_SPLINE_CURVE_WITH_KNOTS('',3,(#762,#763,#764,#765,#766,#767,#768),
 .UNSPECIFIED.,.F.,.F.,(4,3,4),(0.,0.220863462161261,1.),.UNSPECIFIED.);
#537=B_SPLINE_CURVE_WITH_KNOTS('',3,(#771,#772,#773,#774,#775,#776,#777,
#778,#779,#780,#781,#782,#783,#784,#785,#786,#787,#788,#789),
 .UNSPECIFIED.,.F.,.F.,(4,3,3,3,3,3,4),(0.,0.192916363532396,0.385843272754306,
0.578571892793389,0.770634346634749,0.962478537901201,1.),.UNSPECIFIED.);
#538=B_SPLINE_CURVE_WITH_KNOTS('',3,(#791,#792,#793,#794),.UNSPECIFIED.,
 .F.,.F.,(4,4),(0.,1.),.UNSPECIFIED.);
#539=B_SPLINE_CURVE_WITH_KNOTS('',3,(#796,#797,#798,#799,#800,#801,#802,
#803,#804,#805,#806,#807,#808,#809,#810,#811,#812,#813,#814),
 .UNSPECIFIED.,.F.,.F.,(4,3,3,3,3,3,4),(0.,0.0227678204178316,0.216583522277799,
0.411252865389627,0.607025183912433,0.803536522555377,1.),.UNSPECIFIED.);
#540=B_SPLINE_CURVE_WITH_KNOTS('',3,(#827,#828,#829,#830,#831,#832,#833,
#834,#835,#836,#837,#838,#839,#840,#841,#842),.UNSPECIFIED.,.F.,.F.,(4,
3,3,3,3,4),(0.,0.207935829903011,0.415981636244608,0.623925818553485,0.832409224216782,
1.),.UNSPECIFIED.);
#541=B_SPLINE_CURVE_WITH_KNOTS('',3,(#845,#846,#847,#848,#849,#850,#851,
#852,#853,#854,#855,#856,#857),.UNSPECIFIED.,.F.,.F.,(4,3,3,3,4),(0.,0.270427503616659,
0.540973605791447,0.81167330694124,1.),.UNSPECIFIED.);
#542=B_SPLINE_CURVE_WITH_KNOTS('',3,(#859,#860,#861,#862,#863,#864,#865,
#866,#867,#868,#869,#870,#871,#872,#873,#874),.UNSPECIFIED.,.F.,.F.,(4,
3,3,3,3,4),(0.,0.21201110802504,0.424229193589808,0.634325766980234,0.842656093626085,
1.),.UNSPECIFIED.);
#543=B_SPLINE_CURVE_WITH_KNOTS('',3,(#876,#877,#878,#879,#880,#881,#882,
#883,#884,#885),.UNSPECIFIED.,.F.,.F.,(4,3,3,4),(0.,0.42945869081359,0.858499941273477,
1.),.UNSPECIFIED.);
#544=B_SPLINE_CURVE_WITH_KNOTS('',3,(#889,#890,#891,#892),.UNSPECIFIED.,
 .F.,.F.,(4,4),(0.,1.),.UNSPECIFIED.);
#545=B_SPLINE_CURVE_WITH_KNOTS('',3,(#896,#897,#898,#899,#900,#901,#902,
#903,#904,#905),.UNSPECIFIED.,.F.,.F.,(4,3,3,4),(0.,0.442659269788544,0.885595338086287,
1.),.UNSPECIFIED.);
#546=B_SPLINE_CURVE_WITH_KNOTS('',3,(#906,#907,#908,#909),.UNSPECIFIED.,
 .F.,.F.,(4,4),(0.,1.),.UNSPECIFIED.);
#547=B_SPLINE_CURVE_WITH_KNOTS('',3,(#914,#915,#916,#917,#918,#919),
 .UNSPECIFIED.,.F.,.F.,(4,2,4),(0.,0.5,1.),.UNSPECIFIED.);
#548=B_SPLINE_CURVE_WITH_KNOTS('',3,(#929,#930,#931,#932,#933,#934,#935,
#936,#937,#938,#939,#940,#941,#942,#943,#944,#945,#946),.UNSPECIFIED.,.F.,
 .F.,(4,2,2,2,2,2,2,2,4),(0.,0.125,0.25,0.375,0.5,0.625,0.75,0.875,1.),
 .UNSPECIFIED.);
#549=B_SPLINE_CURVE_WITH_KNOTS('',3,(#1192,#1193,#1194,#1195),
 .UNSPECIFIED.,.F.,.F.,(4,4),(0.,1.),.UNSPECIFIED.);
#550=B_SPLINE_CURVE_WITH_KNOTS('',3,(#1201,#1202,#1203,#1204),
 .UNSPECIFIED.,.F.,.F.,(4,4),(0.,1.),.UNSPECIFIED.);
#551=AXIS2_PLACEMENT_3D('',#702,#601,#602);
#552=AXIS2_PLACEMENT_3D('',#887,#603,#604);
#553=AXIS2_PLACEMENT_3D('',#894,#605,#606);
#554=AXIS2_PLACEMENT_3D('',#912,#607,#608);
#555=AXIS2_PLACEMENT_3D('',#920,#609,#610);
#556=AXIS2_PLACEMENT_3D('',#921,#611,#612);
#557=AXIS2_PLACEMENT_3D('',#924,#614,#615);
#558=AXIS2_PLACEMENT_3D('',#925,#616,#617);
#559=AXIS2_PLACEMENT_3D('',#926,#618,#619);
#560=AXIS2_PLACEMENT_3D('',#927,#620,#621);
#561=AXIS2_PLACEMENT_3D('',#948,#622,#623);
#562=AXIS2_PLACEMENT_3D('',#949,#624,#625);
#563=AXIS2_PLACEMENT_3D('',#951,#626,#627);
#564=AXIS2_PLACEMENT_3D('',#982,#628,#629);
#565=AXIS2_PLACEMENT_3D('',#1011,#630,#631);
#566=AXIS2_PLACEMENT_3D('',#1012,#632,#633);
#567=AXIS2_PLACEMENT_3D('',#1041,#634,#635);
#568=AXIS2_PLACEMENT_3D('',#1043,#636,#637);
#569=AXIS2_PLACEMENT_3D('',#1044,#638,#639);
#570=AXIS2_PLACEMENT_3D('',#1045,#640,#641);
#571=AXIS2_PLACEMENT_3D('',#1046,#642,#643);
#572=AXIS2_PLACEMENT_3D('',#1048,#644,#645);
#573=AXIS2_PLACEMENT_3D('',#1078,#646,#647);
#574=AXIS2_PLACEMENT_3D('',#1080,#648,#649);
#575=AXIS2_PLACEMENT_3D('',#1110,#650,#651);
#576=AXIS2_PLACEMENT_3D('',#1111,#652,#653);
#577=AXIS2_PLACEMENT_3D('',#1141,#654,#655);
#578=AXIS2_PLACEMENT_3D('',#1143,#656,#657);
#579=AXIS2_PLACEMENT_3D('',#1144,#658,#659);
#580=AXIS2_PLACEMENT_3D('',#1146,#660,#661);
#581=AXIS2_PLACEMENT_3D('',#1147,#662,#663);
#582=AXIS2_PLACEMENT_3D('',#1149,#664,#665);
#583=AXIS2_PLACEMENT_3D('',#1150,#666,#667);
#584=AXIS2_PLACEMENT_3D('',#1152,#668,#669);
#585=AXIS2_PLACEMENT_3D('',#1154,#670,#671);
#586=AXIS2_PLACEMENT_3D('',#1183,#672,#673);
#587=AXIS2_PLACEMENT_3D('',#1185,#674,#675);
#588=AXIS2_PLACEMENT_3D('',#1186,#676,#677);
#589=AXIS2_PLACEMENT_3D('',#1187,#678,#679);
#590=AXIS2_PLACEMENT_3D('',#1189,#680,#681);
#591=AXIS2_PLACEMENT_3D('',#1190,#682,#683);
#592=AXIS2_PLACEMENT_3D('',#1191,#684,#685);
#593=AXIS2_PLACEMENT_3D('',#1197,#686,#687);
#594=AXIS2_PLACEMENT_3D('',#1198,#688,#689);
#595=AXIS2_PLACEMENT_3D('',#1199,#690,#691);
#596=AXIS2_PLACEMENT_3D('',#1205,#692,#693);
#597=AXIS2_PLACEMENT_3D('',#1206,#694,#695);
#598=AXIS2_PLACEMENT_3D('',#1207,#696,#697);
#599=AXIS2_PLACEMENT_3D('',#1208,#698,#699);
#600=AXIS2_PLACEMENT_3D('',#1209,#700,#701);
#601=DIRECTION('',(0.,0.,1.));
#602=DIRECTION('',(1.,0.,0.));
#603=DIRECTION('',(0.,1.,0.));
#604=DIRECTION('',(1.,0.,4.68582145833011E-15));
#605=DIRECTION('',(0.,1.,0.));
#606=DIRECTION('',(1.,0.,4.68582145833011E-15));
#607=DIRECTION('',(-0.556634411702383,-0.830757564942229,-2.60828947079998E-15));
#608=DIRECTION('',(0.830757564942229,-0.556634411702383,0.));
#609=DIRECTION('',(0.556634411702383,0.830757564942229,2.60828947079998E-15));
#610=DIRECTION('',(-0.830757564942229,0.556634411702383,0.));
#611=DIRECTION('',(0.,1.,0.));
#612=DIRECTION('',(0.,0.,1.));
#613=DIRECTION('',(9.05014752372339E-16,-0.634946755921931,-0.772555899041756));
#614=DIRECTION('',(0.,1.,0.));
#615=DIRECTION('',(0.,0.,-1.));
#616=DIRECTION('',(0.556634411702382,0.830757564942229,2.60828947079998E-15));
#617=DIRECTION('',(-0.830757564942229,0.556634411702383,-3.89278162447636E-15));
#618=DIRECTION('',(0.,1.,0.));
#619=DIRECTION('',(0.,8.50787335852092E-18,1.));
#620=DIRECTION('',(0.,-1.,0.));
#621=DIRECTION('',(0.,0.,1.));
#622=DIRECTION('',(0.,1.,0.));
#623=DIRECTION('',(0.,0.,1.));
#624=DIRECTION('',(-1.,0.,-1.17145536458252E-15));
#625=DIRECTION('',(1.17390944866643E-15,0.,-1.));
#626=DIRECTION('',(0.,-1.,0.));
#627=DIRECTION('',(-4.69395764087842E-15,0.,1.));
#628=DIRECTION('',(0.,-1.,0.));
#629=DIRECTION('',(-4.63752474312928E-15,0.,1.));
#630=DIRECTION('',(0.,-1.,0.));
#631=DIRECTION('',(-4.69496160922809E-15,0.,1.));
#632=DIRECTION('',(0.,-1.,0.));
#633=DIRECTION('',(-4.66971949785999E-15,0.,1.));
#634=DIRECTION('',(3.88578058618805E-16,1.,5.31020079391842E-30));
#635=DIRECTION('',(1.,-4.00108004693282E-16,4.6858214583301E-15));
#636=DIRECTION('',(3.88578058618805E-16,1.,5.31020079391842E-30));
#637=DIRECTION('',(-1.,3.36279328739982E-16,-4.6858214583301E-15));
#638=DIRECTION('',(-3.88578058618805E-16,-1.,-5.31020079391842E-30));
#639=DIRECTION('',(1.,-3.4635624204743E-16,4.6858214583301E-15));
#640=DIRECTION('',(3.88578058618805E-16,1.,5.31020079391842E-30));
#641=DIRECTION('',(-1.,3.65700429257331E-16,-4.6858214583301E-15));
#642=DIRECTION('',(-3.88578058618805E-16,-1.,-5.31020079391842E-30));
#643=DIRECTION('',(1.,-3.97318898939313E-16,4.6858214583301E-15));
#644=DIRECTION('',(0.,-1.,0.));
#645=DIRECTION('',(-4.68375338513738E-15,0.,1.));
#646=DIRECTION('',(0.,-1.,0.));
#647=DIRECTION('',(-4.68365417509564E-15,0.,1.));
#648=DIRECTION('',(-3.88578058618805E-16,-1.,-5.31020079391842E-30));
#649=DIRECTION('',(-1.,3.87985417639476E-16,-4.6858214583301E-15));
#650=DIRECTION('',(0.,-1.,0.));
#651=DIRECTION('',(-4.68548810861336E-15,0.,1.));
#652=DIRECTION('',(0.,-1.,0.));
#653=DIRECTION('',(-4.6704093583991E-15,0.,1.));
#654=DIRECTION('',(0.,-1.,0.));
#655=DIRECTION('',(-4.70375437478024E-15,0.,1.));
#656=DIRECTION('',(0.,1.,0.));
#657=DIRECTION('',(4.68444886457486E-15,-1.80294939117658E-15,-1.));
#658=DIRECTION('',(0.,-1.,0.));
#659=DIRECTION('',(-4.67373272195652E-15,0.,1.));
#660=DIRECTION('',(0.,-1.,0.));
#661=DIRECTION('',(-4.67621110915488E-15,0.,1.));
#662=DIRECTION('',(0.,-1.,0.));
#663=DIRECTION('',(-4.67787463182065E-15,0.,1.));
#664=DIRECTION('',(0.,1.,0.));
#665=DIRECTION('',(4.68541604488747E-15,1.06714102089964E-15,-1.));
#666=DIRECTION('',(0.,-1.,0.));
#667=DIRECTION('',(-4.70853514907991E-15,0.,1.));
#668=DIRECTION('',(0.,-1.,0.));
#669=DIRECTION('',(-4.70450355498764E-15,0.,1.));
#670=DIRECTION('',(0.,1.,0.));
#671=DIRECTION('',(4.67955590370088E-15,-1.06961277798877E-15,-1.));
#672=DIRECTION('',(0.,1.,0.));
#673=DIRECTION('',(1.,0.,4.74705379828746E-15));
#674=DIRECTION('',(0.,1.,0.));
#675=DIRECTION('',(4.67787463182067E-15,0.,-1.));
#676=DIRECTION('',(0.,-1.,0.));
#677=DIRECTION('',(-4.68548810861336E-15,0.,1.));
#678=DIRECTION('',(3.88578058618805E-16,1.,5.31020079391842E-30));
#679=DIRECTION('',(1.,-4.00122955149118E-16,4.6858214583301E-15));
#680=DIRECTION('',(3.88578058618805E-16,1.,5.31020079391842E-30));
#681=DIRECTION('',(-1.,4.2063425409379E-16,-4.6858214583301E-15));
#682=DIRECTION('',(3.88578058618805E-16,1.,5.31020079391842E-30));
#683=DIRECTION('',(-1.,2.1833990926578E-16,-4.6858214583301E-15));
#684=DIRECTION('',(3.88578058618805E-16,1.,5.31020079391842E-30));
#685=DIRECTION('',(-1.,3.98753079258332E-16,-4.6858214583301E-15));
#686=DIRECTION('',(-0.556634411702382,-0.830757564942229,-2.60828947079998E-15));
#687=DIRECTION('',(0.830757564942229,-0.556634411702383,3.89278162447636E-15));
#688=DIRECTION('',(0.,-1.,0.));
#689=DIRECTION('',(0.,-3.12822647963026E-17,-1.));
#690=DIRECTION('',(0.556634411702382,0.830757564942229,2.60828947079998E-15));
#691=DIRECTION('',(0.830757564942229,-0.556634411702383,3.89278162447636E-15));
#692=DIRECTION('',(0.,-1.,0.));
#693=DIRECTION('',(0.,-8.58106727925145E-17,-1.));
#694=DIRECTION('',(1.,0.,1.17145536458252E-15));
#695=DIRECTION('',(1.17180570802233E-15,0.,-1.));
#696=DIRECTION('',(0.556634411702383,0.830757564942229,2.60828947079998E-15));
#697=DIRECTION('',(0.83075756494223,-0.556634411702383,0.));
#698=DIRECTION('',(-0.556634411702383,-0.830757564942229,-2.60828947079998E-15));
#699=DIRECTION('',(0.83075756494223,-0.556634411702383,0.));
#700=DIRECTION('',(-0.556634411702383,-0.830757564942229,-2.60828947079998E-15));
#701=DIRECTION('',(0.830757564942229,-0.556634411702383,0.));
#702=CARTESIAN_POINT('',(0.,0.,0.));
#703=CARTESIAN_POINT('',(5.0545696037253,-13.2487586284145,6.97896138393871));
#704=CARTESIAN_POINT('',(5.0616009219404,-13.0384697726266,6.80304867354584));
#705=CARTESIAN_POINT('',(5.06904631697758,-12.828258926533,6.62705852047882));
#706=CARTESIAN_POINT('',(5.07698850510021,-12.6181393764522,6.45098234291952));
#707=CARTESIAN_POINT('',(5.0545696037253,-13.2487586284145,6.97896138393871));
#708=CARTESIAN_POINT('',(5.07698850510021,-12.6181393764522,6.45098234291952));
#709=CARTESIAN_POINT('',(5.0545696037253,-13.2487586284145,6.97896138393871));
#710=CARTESIAN_POINT('',(5.08737014587912,-13.2487586284145,6.98669477091494));
#711=CARTESIAN_POINT('',(5.1200460838988,-13.2481605037221,6.99500222415322));
#712=CARTESIAN_POINT('',(5.15253624373146,-13.2469644953133,7.00387013922066));
#713=CARTESIAN_POINT('',(5.36826709947068,-13.239023139567,7.06275205657581));
#714=CARTESIAN_POINT('',(5.5790124088358,-13.203779858547,7.14790126900671));
#715=CARTESIAN_POINT('',(5.76727234168131,-13.1445349371952,7.25334407065531));
#716=CARTESIAN_POINT('',(5.95514971760006,-13.0854104055338,7.35857260539359));
#717=CARTESIAN_POINT('',(6.12570938629336,-13.0008341856693,7.48695311593761));
#718=CARTESIAN_POINT('',(6.26454838299156,-12.8989654909807,7.62912612739807));
#719=CARTESIAN_POINT('',(6.40334345704793,-12.7971290231325,7.77125416147892));
#720=CARTESIAN_POINT('',(6.51424295873832,-12.6752874379038,7.93112485372016));
#721=CARTESIAN_POINT('',(6.58789858732909,-12.5445617632868,8.09641479053005));
#722=CARTESIAN_POINT('',(6.66155506825516,-12.4138345759258,8.26170664005796));
#723=CARTESIAN_POINT('',(6.69999999999984,-12.2706459219355,8.43699369649769));
#724=CARTESIAN_POINT('',(6.69999999999984,-12.127218589138,8.60806347882261));
#725=CARTESIAN_POINT('',(6.69999999999984,-12.127218589138,8.60806347882261));
#726=CARTESIAN_POINT('',(6.6999999999998,-11.4682766735745,8.05108495543746));
#727=CARTESIAN_POINT('',(6.6999999999998,-11.6383675743779,8.19512767209749));
#728=CARTESIAN_POINT('',(6.6999999999998,-11.8085690426154,8.33903990072689));
#729=CARTESIAN_POINT('',(6.6999999999998,-11.9788651165707,8.48283999097148));
#730=CARTESIAN_POINT('',(6.6999999999998,-12.0283083878493,8.5245904947073));
#731=CARTESIAN_POINT('',(6.69999999999984,-12.0777596593609,8.56633152581017));
#732=CARTESIAN_POINT('',(6.69999999999984,-12.127218589138,8.60806347882261));
#733=CARTESIAN_POINT('',(6.6999999999998,-11.4682766735745,8.05108495543746));
#734=CARTESIAN_POINT('',(5.07698850510021,-12.6181393764522,6.45098234291952));
#735=CARTESIAN_POINT('',(5.29294900912469,-12.6181393764522,6.50531614230758));
#736=CARTESIAN_POINT('',(5.50605772536389,-12.5885756948109,6.58373135186111));
#737=CARTESIAN_POINT('',(5.6982144682452,-12.532621918946,6.68138411519204));
#738=CARTESIAN_POINT('',(5.89041074691214,-12.476656630727,6.77905697034312));
#739=CARTESIAN_POINT('',(6.06686130108315,-12.3929151881369,6.89878554838189));
#740=CARTESIAN_POINT('',(6.21247564651115,-12.2910762523616,7.03308671448978));
#741=CARTESIAN_POINT('',(6.35775105101211,-12.1894743631712,7.16707527292423));
#742=CARTESIAN_POINT('',(6.47634757929776,-12.0672628029134,7.31936175718806));
#743=CARTESIAN_POINT('',(6.55844739838247,-11.9369267332988,7.47952713888769));
#744=CARTESIAN_POINT('',(6.64101795401416,-11.8058433544691,7.64061086242495));
#745=CARTESIAN_POINT('',(6.68894434637698,-11.6630073397249,7.8141489694455));
#746=CARTESIAN_POINT('',(6.6982610612725,-11.5212261142775,7.98665983225));
#747=CARTESIAN_POINT('',(6.69942010180348,-11.5035879028834,8.00812094641591));
#748=CARTESIAN_POINT('',(6.6999999999998,-11.4859303550149,8.02960527133889));
#749=CARTESIAN_POINT('',(6.6999999999998,-11.4682766735745,8.05108495543746));
#750=CARTESIAN_POINT('',(5.07716507191822,-12.6134702888338,6.44706970970041));
#751=CARTESIAN_POINT('',(6.6999999999998,-12.4119868145133,6.68480388273702));
#752=CARTESIAN_POINT('',(6.6999999999998,-11.3435767769899,7.9454411513335));
#753=CARTESIAN_POINT('',(5.06723353318257,-12.8759744061476,6.66704616996206));
#754=CARTESIAN_POINT('',(6.7000000000004,-12.6795133642571,6.90036037143003));
#755=CARTESIAN_POINT('',(6.6999999999998,-11.6060806421415,8.16791733167083));
#756=CARTESIAN_POINT('',(5.05807153984545,-13.1387715291564,6.88701440523448));
#757=CARTESIAN_POINT('',(6.69999999999995,-12.9464093878274,7.11566951061329));
#758=CARTESIAN_POINT('',(6.6999999999998,-11.8688777702599,8.39008845104864));
#759=CARTESIAN_POINT('',(5.04952555717265,-13.4017902415357,7.10695178611197));
#760=CARTESIAN_POINT('',(6.6999999999998,-13.2128754046988,7.3308508435521));
#761=CARTESIAN_POINT('',(6.6999999999998,-12.1318967296918,8.61201070637385));
#762=CARTESIAN_POINT('',(4.35251907308153,-9.50625256462295,10.1709419427475));
#763=CARTESIAN_POINT('',(4.35370262754751,-9.54310861684554,10.2023026279546));
#764=CARTESIAN_POINT('',(4.35487429800585,-9.57997117044789,10.2336561245619));
#765=CARTESIAN_POINT('',(4.35603442827386,-9.61683999706555,10.2650026663945));
#766=CARTESIAN_POINT('',(4.36012699941106,-9.74690150812076,10.3755833105626));
#767=CARTESIAN_POINT('',(4.3640761025983,-9.87704106529663,10.4860775928108));
#768=CARTESIAN_POINT('',(4.3678956005505,-10.0072496242979,10.5964948344867));
#769=CARTESIAN_POINT('',(4.35251907308153,-9.50625256462295,10.1709419427475));
#770=CARTESIAN_POINT('',(4.3678956005505,-10.0072496242979,10.5964948344867));
#771=CARTESIAN_POINT('',(6.6999999999998,-10.8867335089094,8.7586633440491));
#772=CARTESIAN_POINT('',(6.6999999999998,-10.7446225179943,8.93157340828074));
#773=CARTESIAN_POINT('',(6.66137100096621,-10.6006517703542,9.10694962215666));
#774=CARTESIAN_POINT('',(6.58730512868256,-10.4661123809916,9.26975878444266));
#775=CARTESIAN_POINT('',(6.51323711790477,-10.331569107091,9.43257264749609));
#776=CARTESIAN_POINT('',(6.40167685630759,-10.2026771067314,9.58726360017852));
#777=CARTESIAN_POINT('',(6.26188048806038,-10.0886974543159,9.71978503631244));
#778=CARTESIAN_POINT('',(6.12223301492064,-9.97483919999405,9.85216532576478));
#779=CARTESIAN_POINT('',(5.95052892826683,-9.87264609493658,9.96602104599726));
#780=CARTESIAN_POINT('',(5.76118320257024,-9.78901136060304,10.0505378327346));
#781=CARTESIAN_POINT('',(5.57247688451891,-9.70565905508243,10.1347692120281));
#782=CARTESIAN_POINT('',(5.36105165973479,-9.63838880555524,10.1921317752423));
#783=CARTESIAN_POINT('',(5.14466636497413,-9.59138387597692,10.2170425635165));
#784=CARTESIAN_POINT('',(4.92848720952152,-9.54442372561369,10.2419296205447));
#785=CARTESIAN_POINT('',(4.70148577185832,-9.51635797517265,10.2351129506762));
#786=CARTESIAN_POINT('',(4.48227090456716,-9.50856817352388,10.1971365167907));
#787=CARTESIAN_POINT('',(4.43881526631742,-9.50702397715313,10.1896083313471));
#788=CARTESIAN_POINT('',(4.39551857174862,-9.50625256462295,10.1808663434133));
#789=CARTESIAN_POINT('',(4.35251907308153,-9.50625256462295,10.1709419427475));
#790=CARTESIAN_POINT('',(6.6999999999998,-10.8867335089094,8.7586633440491));
#791=CARTESIAN_POINT('',(6.69999999999983,-11.5275688784027,9.2981308386662));
#792=CARTESIAN_POINT('',(6.69999999999983,-11.3138367501463,9.11845138806932));
#793=CARTESIAN_POINT('',(6.6999999999998,-11.1002175920548,8.93863743623843));
#794=CARTESIAN_POINT('',(6.6999999999998,-10.8867335089094,8.7586633440491));
#795=CARTESIAN_POINT('',(6.69999999999983,-11.5275688784027,9.2981308386662));
#796=CARTESIAN_POINT('',(6.69999999999983,-11.5275688784027,9.2981308386662));
#797=CARTESIAN_POINT('',(6.69999999999983,-11.509666857362,9.31801126435497));
#798=CARTESIAN_POINT('',(6.69946361841076,-11.4917303711152,9.33786792124532));
#799=CARTESIAN_POINT('',(6.69839168084115,-11.4737810831746,9.35767669948072));
#800=CARTESIAN_POINT('',(6.68939525148346,-11.3231384473011,9.52392544297902));
#801=CARTESIAN_POINT('',(6.64146970197266,-11.169262607239,9.68933398396898));
#802=CARTESIAN_POINT('',(6.5587447881384,-11.0246214601964,9.83982754333999));
#803=CARTESIAN_POINT('',(6.47566103318396,-10.8793528940508,9.99097390819511));
#804=CARTESIAN_POINT('',(6.35516405752823,-10.7393262752165,10.1312551114914));
#805=CARTESIAN_POINT('',(6.20752474213157,-10.6154992057588,10.2483899896233));
#806=CARTESIAN_POINT('',(6.05906068846769,-10.4909804172803,10.3661792030599));
#807=CARTESIAN_POINT('',(5.8790130992672,-10.379333063943,10.4638224014497));
#808=CARTESIAN_POINT('',(5.68269997264077,-10.2890437736024,10.5325959652693));
#809=CARTESIAN_POINT('',(5.48564592772142,-10.1984137165081,10.6016290919228));
#810=CARTESIAN_POINT('',(5.26672201809723,-10.1267396833878,10.6434883706493));
#811=CARTESIAN_POINT('',(5.04437200364303,-10.0792837210341,10.6543547938352));
#812=CARTESIAN_POINT('',(4.82205300535596,-10.0318343784328,10.6652197012361));
#813=CARTESIAN_POINT('',(4.59016200169073,-10.0072496242979,10.645411807509));
#814=CARTESIAN_POINT('',(4.3678956005505,-10.0072496242979,10.5964948344867));
#815=CARTESIAN_POINT('',(6.6999999999998,-10.7716408303811,8.66160950500291));
#816=CARTESIAN_POINT('',(6.6999999999998,-9.2345877741569,10.4838344611706));
#817=CARTESIAN_POINT('',(4.35237433633317,-9.50174731853729,10.1671083813018));
#818=CARTESIAN_POINT('',(6.6999999999998,-11.0249364466297,8.87526523376341));
#819=CARTESIAN_POINT('',(6.69999999999823,-9.49481479954673,10.6902790265654));
#820=CARTESIAN_POINT('',(4.36051516363671,-9.75504277136378,10.3826437215976));
#821=CARTESIAN_POINT('',(6.6999999999998,-11.278430477503,9.0886899975905));
#822=CARTESIAN_POINT('',(6.70000000000009,-9.75533464199033,10.8975468251511));
#823=CARTESIAN_POINT('',(4.36809277281011,-10.0085368236912,10.5977495341896));
#824=CARTESIAN_POINT('',(6.6999999999998,-11.5320804309454,9.30192355799555));
#825=CARTESIAN_POINT('',(6.6999999999998,-10.0159789956107,11.1053875983458));
#826=CARTESIAN_POINT('',(4.37520916773404,-10.2621869191015,10.8125133050324));
#827=CARTESIAN_POINT('',(-3.06445505554098,-8.30000000000013,-2.04414525977195));
#828=CARTESIAN_POINT('',(-2.8783635067298,-8.4324611104014,-2.36148638325264));
#829=CARTESIAN_POINT('',(-2.64601938019324,-8.59974083841051,-2.64381209418247));
#830=CARTESIAN_POINT('',(-2.38826350043544,-8.79019609818855,-2.86779892288636));
#831=CARTESIAN_POINT('',(-2.13037428267561,-8.98074988112672,-3.09190162074618));
#832=CARTESIAN_POINT('',(-1.83999508645813,-9.19984321146921,-3.26376602655298));
#833=CARTESIAN_POINT('',(-1.54317486511755,-9.43175456059269,-3.36938086626754));
#834=CARTESIAN_POINT('',(-1.24648021680974,-9.66356779708991,-3.47495102447197));
#835=CARTESIAN_POINT('',(-0.935296230534496,-9.9146434186975,-3.51723997153395));
#836=CARTESIAN_POINT('',(-0.6369391771179,-10.1662898267307,-3.49342184285746));
#837=CARTESIAN_POINT('',(-0.337776665818395,-10.4186155905249,-3.46953941370849));
#838=CARTESIAN_POINT('',(-0.0434578311210929,-10.6784731433558,-3.37862717131465));
#839=CARTESIAN_POINT('',(0.221747928789067,-10.9254737173916,-3.22898262246673));
#840=CARTESIAN_POINT('',(0.43601138488685,-11.125028948277,-3.10808269090714));
#841=CARTESIAN_POINT('',(0.635678371248935,-11.3201782248581,-2.94690025527323));
#842=CARTESIAN_POINT('',(0.811212913569441,-11.4999999999999,-2.75402810621843));
#843=CARTESIAN_POINT('',(-3.06445505554098,-8.30000000000013,-2.04414525977195));
#844=CARTESIAN_POINT('',(0.811212913569441,-11.4999999999999,-2.75402810621843));
#845=CARTESIAN_POINT('',(-3.06445505554087,-8.29999999999995,2.04414525977195));
#846=CARTESIAN_POINT('',(-3.25070545708328,-8.16742581724637,1.72653324540709));
#847=CARTESIAN_POINT('',(-3.39685607275955,-8.06768413341712,1.36507350380393));
#848=CARTESIAN_POINT('',(-3.48846483823851,-8.00560634552829,0.989711411931768));
#849=CARTESIAN_POINT('',(-3.58011528282675,-7.9435003141969,0.61417854210439));
#850=CARTESIAN_POINT('',(-3.61967443131987,-7.9173195157915,0.214368943898393));
#851=CARTESIAN_POINT('',(-3.60325270216731,-7.92830893255034,-0.176644430518242));
#852=CARTESIAN_POINT('',(-3.58682192099018,-7.93930440692161,-0.56787334025621));
#853=CARTESIAN_POINT('',(-3.51389914616556,-7.98782493804639,-0.961086153740805));
#854=CARTESIAN_POINT('',(-3.39166727602489,-8.07155507190234,-1.32371484186114));
#855=CARTESIAN_POINT('',(-3.30600663615137,-8.13023352323048,-1.57784664419005));
#856=CARTESIAN_POINT('',(-3.19511153372966,-8.20699791423883,-1.82133732548744));
#857=CARTESIAN_POINT('',(-3.06445505554098,-8.30000000000013,-2.04414525977195));
#858=CARTESIAN_POINT('',(-3.06445505554087,-8.29999999999995,2.04414525977195));
#859=CARTESIAN_POINT('',(0.811212913569424,-11.4999999999999,2.75402810621845));
#860=CARTESIAN_POINT('',(0.590308464227554,-11.2737002091311,2.99675136351638));
#861=CARTESIAN_POINT('',(0.330108294732486,-11.02236885393,3.18945220439597));
#862=CARTESIAN_POINT('',(0.0505263703168087,-10.7678265888904,3.31581332803821));
#863=CARTESIAN_POINT('',(-0.229249581768743,-10.5131076735087,3.44226214531241));
#864=CARTESIAN_POINT('',(-0.53617377751271,-10.247994826354,3.50562707540605));
#865=CARTESIAN_POINT('',(-0.843527552966454,-9.99374515728665,3.49959589790205));
#866=CARTESIAN_POINT('',(-1.14784978832416,-9.74200324354144,3.49362420805653));
#867=CARTESIAN_POINT('',(-1.46097118428674,-9.49379382536838,3.41941313165149));
#868=CARTESIAN_POINT('',(-1.754635258286,-9.26779067559367,3.28264448362536));
#869=CARTESIAN_POINT('',(-2.04589169867047,-9.04364043473301,3.14699714672849));
#870=CARTESIAN_POINT('',(-2.32599584486926,-8.83502268196737,2.94608583298394));
#871=CARTESIAN_POINT('',(-2.56972041989537,-8.65682909148891,2.69644765403033));
#872=CARTESIAN_POINT('',(-2.75492431867712,-8.52142154101522,2.50675006599667));
#873=CARTESIAN_POINT('',(-2.92277219527796,-8.40085073242249,2.2857564363193));
#874=CARTESIAN_POINT('',(-3.06445505554087,-8.29999999999995,2.04414525977195));
#875=CARTESIAN_POINT('',(0.811212913569424,-11.4999999999999,2.75402810621845));
#876=CARTESIAN_POINT('',(1.71451327316565,-12.5,0.479524116636675));
#877=CARTESIAN_POINT('',(1.68196153677296,-12.4538258589124,0.860872377588527));
#878=CARTESIAN_POINT('',(1.60896970489956,-12.3509687350031,1.23689212531637));
#879=CARTESIAN_POINT('',(1.49505509826559,-12.2116552510391,1.57782229200686));
#880=CARTESIAN_POINT('',(1.38115655123192,-12.0723614073911,1.91870439460474));
#881=CARTESIAN_POINT('',(1.22271904888273,-11.8938354663468,2.23429132031312));
#882=CARTESIAN_POINT('',(1.02399546148844,-11.6997749418319,2.50154720968566));
#883=CARTESIAN_POINT('',(0.957674779717041,-11.6350104794975,2.59073940384346));
#884=CARTESIAN_POINT('',(0.886604133177765,-11.5681450108179,2.67515772256691));
#885=CARTESIAN_POINT('',(0.811212913569424,-11.4999999999999,2.75402810621845));
#886=CARTESIAN_POINT('',(1.71451327316565,-12.5,0.479524116636675));
#887=CARTESIAN_POINT('',(-2.4587804490771,-12.4999999999999,-1.68084627573347E-15));
#888=CARTESIAN_POINT('',(1.68809064360683,-12.4999999999999,0.617792990268301));
#889=CARTESIAN_POINT('',(1.68809064360683,-12.4999999999999,-0.617792990268267));
#890=CARTESIAN_POINT('',(1.73473588589942,-12.5607561718399,-0.213116316052099));
#891=CARTESIAN_POINT('',(1.73473588589942,-12.5607561718399,0.213116316052133));
#892=CARTESIAN_POINT('',(1.68809064360683,-12.4999999999999,0.617792990268301));
#893=CARTESIAN_POINT('',(1.68809064360683,-12.4999999999999,-0.617792990268267));
#894=CARTESIAN_POINT('',(-2.4587804490771,-12.4999999999999,-1.68084627573347E-15));
#895=CARTESIAN_POINT('',(1.71451327316566,-12.5,-0.479524116636694));
#896=CARTESIAN_POINT('',(0.811212913569441,-11.4999999999999,-2.75402810621843));
#897=CARTESIAN_POINT('',(1.04418831754296,-11.710583029517,-2.51030132227433));
#898=CARTESIAN_POINT('',(1.23662299293162,-11.9109749482011,-2.21033904691675));
#899=CARTESIAN_POINT('',(1.38032422355982,-12.0758234369078,-1.87837454809801));
#900=CARTESIAN_POINT('',(1.52407374995062,-12.2407273286438,-1.54629848114199));
#901=CARTESIAN_POINT('',(1.62381871472797,-12.3740795187974,-1.17230540199273));
#902=CARTESIAN_POINT('',(1.67946374752398,-12.450942455057,-0.786135163047652));
#903=CARTESIAN_POINT('',(1.69403918595938,-12.471075626683,-0.684983267532371));
#904=CARTESIAN_POINT('',(1.70571812911515,-12.4875242224447,-0.5825604907342));
#905=CARTESIAN_POINT('',(1.71451327316566,-12.5,-0.479524116636694));
#906=CARTESIAN_POINT('',(-3.44293098734105,-9.50625256462295,2.46570024354645));
#907=CARTESIAN_POINT('',(-3.49420732452911,-9.56382036099892,2.45506786903146));
#908=CARTESIAN_POINT('',(-3.54544541351354,-9.62140341845755,2.44433956080895));
#909=CARTESIAN_POINT('',(-3.59664615615817,-9.67900016108788,2.43351132273297));
#910=CARTESIAN_POINT('',(-3.44293098734104,-9.50625256462295,2.46570024354645));
#911=CARTESIAN_POINT('',(-3.59664615615817,-9.67900016108788,2.43351132273297));
#912=CARTESIAN_POINT('',(-1.50682887129727,-11.0792452674986,2.77982885471845E-15));
#913=CARTESIAN_POINT('',(0.103346523046341,-12.1581148092167,2.91433966987434));
#914=CARTESIAN_POINT('',(0.103346523046339,-12.1581148092167,2.91433966987434));
#915=CARTESIAN_POINT('',(-0.359384766600288,-11.664659051882,3.3526732439463));
#916=CARTESIAN_POINT('',(-0.987673578553154,-11.1267868290374,3.5619006624348));
#917=CARTESIAN_POINT('',(-2.28736256226167,-10.1910270214563,3.40449362919972));
#918=CARTESIAN_POINT('',(-2.94948857289541,-9.78933160109788,3.03741771667298));
#919=CARTESIAN_POINT('',(-3.44293098734105,-9.50625256462295,2.46570024354645));
#920=CARTESIAN_POINT('',(-2.5644342535318,-12.6576846408888,-2.17592113980151E-15));
#921=CARTESIAN_POINT('',(6.69999999999984,-12.6181393764522,3.13950037708109E-14));
#922=CARTESIAN_POINT('',(0.789917243892242,-12.6181393764522,3.05291030284139));
#923=CARTESIAN_POINT('',(6.69999999999981,-18.0852868866187,3.13950037708109E-14));
#924=CARTESIAN_POINT('',(6.69999999999984,-9.50625256462295,3.13950037708109E-14));
#925=CARTESIAN_POINT('',(2.2421902582849,-13.5912092215085,1.050650322593E-14));
#926=CARTESIAN_POINT('',(6.69999999999984,-12.6181393764522,3.13950037708109E-14));
#927=CARTESIAN_POINT('',(6.69999999999984,-13.2487586284145,3.13950037708109E-14));
#928=CARTESIAN_POINT('',(0.442488798607777,-13.2487586284145,3.5009851116428));
#929=CARTESIAN_POINT('',(-3.41037259781239,-10.0072496242979,3.93761090518624));
#930=CARTESIAN_POINT('',(-4.08710525672473,-9.51426976906178,3.47485497739614));
#931=CARTESIAN_POINT('',(-4.65513800219413,-9.12504584915768,2.73019809167511));
#932=CARTESIAN_POINT('',(-5.30950910477973,-8.68020271691578,0.983916437533564));
#933=CARTESIAN_POINT('',(-5.39891781379396,-8.62125809422083,-0.0191695106228648));
#934=CARTESIAN_POINT('',(-5.05901828516327,-8.85015995418904,-1.8985071375108));
#935=CARTESIAN_POINT('',(-4.62810693465521,-9.13972409390168,-2.77087622270553));
#936=CARTESIAN_POINT('',(-3.44800073287428,-9.97396385076988,-4.02527961597386));
#937=CARTESIAN_POINT('',(-2.69272694802459,-10.5254135552544,-4.4149686967826));
#938=CARTESIAN_POINT('',(-1.19574712196988,-11.7160394084316,-4.55954413712504));
#939=CARTESIAN_POINT('',(-0.457709424371239,-12.3565126197215,-4.31858114102431));
#940=CARTESIAN_POINT('',(0.711893215873673,-13.5053088294796,-3.30981602005237));
#941=CARTESIAN_POINT('',(1.13339004524488,-14.00651658786,-2.56153369199452));
#942=CARTESIAN_POINT('',(1.59024275873013,-14.6055498380665,-0.775554464559685));
#943=CARTESIAN_POINT('',(1.62459964751157,-14.6629760196917,0.219723740686097));
#944=CARTESIAN_POINT('',(1.3164944890008,-14.240635974634,2.0786120977725));
#945=CARTESIAN_POINT('',(0.968181073277718,-13.7926054200961,2.90390882362548));
#946=CARTESIAN_POINT('',(0.442488798607692,-13.2487586284146,3.50098511164281));
#947=CARTESIAN_POINT('',(-3.41037259781239,-10.0072496242979,3.93761090518624));
#948=CARTESIAN_POINT('',(6.69999999999984,-10.0072496242979,3.13950037708109E-14));
#949=CARTESIAN_POINT('',(6.69999999999985,7.68961411709585,-8.00665024163085));
#950=CARTESIAN_POINT('',(6.69999999999984,-16.8999999999999,3.31297272467877E-14));
#951=CARTESIAN_POINT('',(6.69999999999984,1.10000000000013,3.13950037708109E-14));
#952=CARTESIAN_POINT('',(6.69999999999976,1.10000000000013,17.));
#953=CARTESIAN_POINT('',(6.69999999999984,-16.8999999999999,3.46944695195361E-14));
#954=CARTESIAN_POINT('',(6.69999999999984,-16.8999999999999,3.46944695195361E-14));
#955=CARTESIAN_POINT('',(6.69999999999984,-16.8999999999999,2.80955380220857E-14));
#956=CARTESIAN_POINT('',(6.69999999999984,-16.8999999999999,2.80955380220857E-14));
#957=CARTESIAN_POINT('',(6.69999999999985,-16.8999999999999,2.80955380220857E-14));
#958=CARTESIAN_POINT('',(6.69999999999985,-16.8999999999999,3.46944695195361E-14));
#959=CARTESIAN_POINT('',(6.69999999999984,-16.8999999999999,3.46944695195361E-14));
#960=CARTESIAN_POINT('',(6.6999999999998,-14.1185226455004,8.54233078234871));
#961=CARTESIAN_POINT('',(-10.3846615646976,-14.1185226455004,8.54233078234863));
#962=CARTESIAN_POINT('',(-10.3846615646975,-14.1185226455004,-8.54233078234873));
#963=CARTESIAN_POINT('',(6.69999999999989,-14.1185226455004,-8.54233078234865));
#964=CARTESIAN_POINT('',(23.7846615646972,-14.1185226455004,-8.54233078234857));
#965=CARTESIAN_POINT('',(23.7846615646972,-14.1185226455004,8.54233078234879));
#966=CARTESIAN_POINT('',(6.6999999999998,-14.1185226455004,8.54233078234871));
#967=CARTESIAN_POINT('',(6.69999999999978,-7.58720741632103,14.7107951654626));
#968=CARTESIAN_POINT('',(-22.7215903309253,-7.58720741632103,14.7107951654624));
#969=CARTESIAN_POINT('',(-22.7215903309252,-7.58720741632103,-14.7107951654627));
#970=CARTESIAN_POINT('',(6.69999999999991,-7.58720741632103,-14.7107951654625));
#971=CARTESIAN_POINT('',(36.121590330925,-7.58720741632103,-14.7107951654624));
#972=CARTESIAN_POINT('',(36.1215903309249,-7.58720741632103,14.7107951654627));
#973=CARTESIAN_POINT('',(6.69999999999978,-7.58720741632103,14.7107951654626));
#974=CARTESIAN_POINT('',(6.69999999999976,1.10000000000014,17.));
#975=CARTESIAN_POINT('',(-27.3000000000002,1.10000000000014,16.9999999999999));
#976=CARTESIAN_POINT('',(-27.3000000000001,1.10000000000014,-17.0000000000001));
#977=CARTESIAN_POINT('',(6.69999999999992,1.10000000000014,-17.));
#978=CARTESIAN_POINT('',(40.6999999999999,1.10000000000014,-16.9999999999998));
#979=CARTESIAN_POINT('',(40.6999999999997,1.10000000000014,17.0000000000002));
#980=CARTESIAN_POINT('',(6.69999999999976,1.10000000000014,17.));
#981=CARTESIAN_POINT('',(6.69999999999984,-14.9,3.13950037708109E-14));
#982=CARTESIAN_POINT('',(6.69999999999984,-12.4999999999999,3.13950037708109E-14));
#983=CARTESIAN_POINT('',(6.69999999999982,-12.4999999999999,5.04984193569707));
#984=CARTESIAN_POINT('',(-3.39968387139426,-12.4999999999999,5.04984193569702));
#985=CARTESIAN_POINT('',(-3.39968387139421,-12.4999999999999,-5.04984193569706));
#986=CARTESIAN_POINT('',(6.69999999999987,-12.4999999999999,-5.04984193569701));
#987=CARTESIAN_POINT('',(16.7996838713939,-12.4999999999999,-5.04984193569696));
#988=CARTESIAN_POINT('',(16.7996838713939,-12.4999999999999,5.04984193569712));
#989=CARTESIAN_POINT('',(6.69999999999982,-12.4999999999999,5.04984193569707));
#990=CARTESIAN_POINT('',(6.69999999999983,-13.5030669104686,3.46816808660484));
#991=CARTESIAN_POINT('',(-0.236336173209784,-13.5030669104686,3.4681680866048));
#992=CARTESIAN_POINT('',(-0.23633617320975,-13.5030669104686,-3.46816808660481));
#993=CARTESIAN_POINT('',(6.69999999999986,-13.5030669104686,-3.46816808660477));
#994=CARTESIAN_POINT('',(13.6363361732095,-13.5030669104686,-3.46816808660474));
#995=CARTESIAN_POINT('',(13.6363361732094,-13.5030669104686,3.46816808660487));
#996=CARTESIAN_POINT('',(6.69999999999983,-13.5030669104686,3.46816808660484));
#997=CARTESIAN_POINT('',(6.69999999999984,-14.3070188384602,1.77657218649806));
#998=CARTESIAN_POINT('',(3.14685562700378,-14.3070188384602,1.77657218649804));
#999=CARTESIAN_POINT('',(3.1468556270038,-14.3070188384602,-1.77657218649801));
#1000=CARTESIAN_POINT('',(6.69999999999985,-14.3070188384602,-1.776572186498));
#1001=CARTESIAN_POINT('',(10.2531443729959,-14.3070188384602,-1.77657218649798));
#1002=CARTESIAN_POINT('',(10.2531443729959,-14.3070188384602,1.77657218649808));
#1003=CARTESIAN_POINT('',(6.69999999999984,-14.3070188384602,1.77657218649806));
#1004=CARTESIAN_POINT('',(6.69999999999984,-14.9,3.38271077815477E-14));
#1005=CARTESIAN_POINT('',(6.69999999999984,-14.9,3.38271077815477E-14));
#1006=CARTESIAN_POINT('',(6.69999999999984,-14.9,2.89628997600741E-14));
#1007=CARTESIAN_POINT('',(6.69999999999984,-14.9,2.89628997600741E-14));
#1008=CARTESIAN_POINT('',(6.69999999999985,-14.9,2.89628997600741E-14));
#1009=CARTESIAN_POINT('',(6.69999999999985,-14.9,3.38271077815477E-14));
#1010=CARTESIAN_POINT('',(6.69999999999984,-14.9,3.38271077815477E-14));
#1011=CARTESIAN_POINT('',(6.69999999999984,-8.29999999999995,3.13950037708109E-14));
#1012=CARTESIAN_POINT('',(6.69999999999984,-11.4999999999999,3.13950037708109E-14));
#1013=CARTESIAN_POINT('',(-3.13038407808248,-8.29999999999994,-1.6990177315461));
#1014=CARTESIAN_POINT('',(-0.239014721737628,-8.29999999999994,-18.4282553120168));
#1015=CARTESIAN_POINT('',(16.6761271230233,-8.29999999999994,-16.9772614628697));
#1016=CARTESIAN_POINT('',(16.6761271230232,-8.29999999999994,4.96564594998361E-14));
#1017=CARTESIAN_POINT('',(16.6761271230232,-8.29999999999994,16.9772614628698));
#1018=CARTESIAN_POINT('',(-0.239014721737696,-8.29999999999994,18.4282553120168));
#1019=CARTESIAN_POINT('',(-3.13038407808249,-8.29999999999994,1.69901773154613));
#1020=CARTESIAN_POINT('',(-2.09895125570183,-9.4838441167656,-1.5207517919649));
#1021=CARTESIAN_POINT('',(0.489047120214203,-9.4838441167656,-16.4947085414076));
#1022=CARTESIAN_POINT('',(15.6294025115333,-9.4838441167656,-15.1959572363152));
#1023=CARTESIAN_POINT('',(15.6294025115332,-9.4838441167656,4.77048955893622E-14));
#1024=CARTESIAN_POINT('',(15.6294025115332,-9.4838441167656,15.1959572363153));
#1025=CARTESIAN_POINT('',(0.489047120214141,-9.4838441167656,16.4947085414076));
#1026=CARTESIAN_POINT('',(-2.09895125570184,-9.4838441167656,1.52075179196493));
#1027=CARTESIAN_POINT('',(-0.953469942394291,-10.5542631225819,-1.32277447520843));
#1028=CARTESIAN_POINT('',(1.2976128520698,-10.5542631225819,-14.347363948449));
#1029=CARTESIAN_POINT('',(14.4669385520546,-10.5542631225819,-13.2176890829668));
#1030=CARTESIAN_POINT('',(14.4669385520545,-10.5542631225819,4.55364912443912E-14));
#1031=CARTESIAN_POINT('',(14.4669385520545,-10.5542631225819,13.2176890829669));
#1032=CARTESIAN_POINT('',(1.29761285206974,-10.5542631225819,14.3473639484491));
#1033=CARTESIAN_POINT('',(-0.953469942394296,-10.5542631225819,1.32277447520847));
#1034=CARTESIAN_POINT('',(0.294013454721855,-11.4999999999999,-1.10716780158565));
#1035=CARTESIAN_POINT('',(2.17817922556602,-11.4999999999999,-12.0088039942338));
#1036=CARTESIAN_POINT('',(13.2009602490054,-11.4999999999999,-11.0632613784939));
#1037=CARTESIAN_POINT('',(13.2009602490054,-11.4999999999999,4.31512464649231E-14));
#1038=CARTESIAN_POINT('',(13.2009602490054,-11.4999999999999,11.063261378494));
#1039=CARTESIAN_POINT('',(2.17817922556598,-11.4999999999999,12.0088039942338));
#1040=CARTESIAN_POINT('',(0.294013454721851,-11.4999999999999,1.10716780158568));
#1041=CARTESIAN_POINT('',(6.69999999999984,-7.32398445336754,3.13950037708109E-14));
#1042=CARTESIAN_POINT('',(17.5390950420162,-7.32398445336754,8.21850679075706E-14));
#1043=CARTESIAN_POINT('',(6.69999999999984,-7.32398445336754,3.13950037708109E-14));
#1044=CARTESIAN_POINT('',(6.69999999999984,-12.5,3.13950037708109E-14));
#1045=CARTESIAN_POINT('',(6.69999999999984,-11.4999999999999,3.13950037708109E-14));
#1046=CARTESIAN_POINT('',(6.69999999999985,-3.78173475703822,3.13950037708109E-14));
#1047=CARTESIAN_POINT('',(19.7982202000043,-3.78173475703823,9.27709250499244E-14));
#1048=CARTESIAN_POINT('',(6.69999999999984,1.10000000000015,3.13950037708109E-14));
#1049=CARTESIAN_POINT('',(6.69999999999977,1.10000000000015,15.));
#1050=CARTESIAN_POINT('',(6.69999999999977,1.10000000000015,15.));
#1051=CARTESIAN_POINT('',(-23.3000000000002,1.10000000000015,14.9999999999999));
#1052=CARTESIAN_POINT('',(-23.3000000000001,1.10000000000015,-15.0000000000001));
#1053=CARTESIAN_POINT('',(6.69999999999991,1.10000000000015,-15.));
#1054=CARTESIAN_POINT('',(36.6999999999999,1.10000000000015,-14.9999999999998));
#1055=CARTESIAN_POINT('',(36.6999999999998,1.10000000000015,15.0000000000002));
#1056=CARTESIAN_POINT('',(6.69999999999977,1.10000000000015,15.));
#1057=CARTESIAN_POINT('',(6.69999999999978,-0.596033253578374,14.5530707006795));
#1058=CARTESIAN_POINT('',(-22.4061414013593,-0.596033253578374,14.5530707006794));
#1059=CARTESIAN_POINT('',(-22.4061414013591,-0.596033253578374,-14.5530707006796));
#1060=CARTESIAN_POINT('',(6.69999999999991,-0.596033253578374,-14.5530707006795));
#1061=CARTESIAN_POINT('',(35.8061414013589,-0.596033253578374,-14.5530707006793));
#1062=CARTESIAN_POINT('',(35.8061414013588,-0.596033253578374,14.5530707006797));
#1063=CARTESIAN_POINT('',(6.69999999999978,-0.596033253578374,14.5530707006795));
#1064=CARTESIAN_POINT('',(6.69999999999978,-2.23032873385912,13.916397410075));
#1065=CARTESIAN_POINT('',(-21.1327948201502,-2.23032873385912,13.9163974100749));
#1066=CARTESIAN_POINT('',(-21.1327948201501,-2.23032873385912,-13.9163974100751));
#1067=CARTESIAN_POINT('',(6.69999999999991,-2.23032873385912,-13.916397410075));
#1068=CARTESIAN_POINT('',(34.5327948201499,-2.23032873385912,-13.9163974100748));
#1069=CARTESIAN_POINT('',(34.5327948201498,-2.23032873385912,13.9163974100752));
#1070=CARTESIAN_POINT('',(6.69999999999978,-2.23032873385912,13.916397410075));
#1071=CARTESIAN_POINT('',(6.69999999999978,-3.78173475703821,13.0982202000044));
#1072=CARTESIAN_POINT('',(-19.496440400009,-3.78173475703821,13.0982202000043));
#1073=CARTESIAN_POINT('',(-19.4964404000089,-3.78173475703821,-13.0982202000045));
#1074=CARTESIAN_POINT('',(6.69999999999991,-3.78173475703821,-13.0982202000044));
#1075=CARTESIAN_POINT('',(32.8964404000087,-3.78173475703821,-13.0982202000043));
#1076=CARTESIAN_POINT('',(32.8964404000086,-3.78173475703821,13.0982202000046));
#1077=CARTESIAN_POINT('',(6.69999999999978,-3.78173475703821,13.0982202000044));
#1078=CARTESIAN_POINT('',(6.69999999999984,-4.99999999999995,3.13950037708109E-14));
#1079=CARTESIAN_POINT('',(6.69999999999979,-4.99999999999995,12.4076702234397));
#1080=CARTESIAN_POINT('',(6.69999999999984,-6.82221893597095,3.13950037708108E-14));
#1081=CARTESIAN_POINT('',(-4.47776208272842,-6.82221893597094,-2.09819936525457E-14));
#1082=CARTESIAN_POINT('',(6.69999999999979,-4.99999999999995,12.4076702234397));
#1083=CARTESIAN_POINT('',(-18.1153404468795,-4.99999999999995,12.4076702234396));
#1084=CARTESIAN_POINT('',(-18.1153404468794,-4.99999999999995,-12.4076702234397));
#1085=CARTESIAN_POINT('',(6.6999999999999,-4.99999999999995,-12.4076702234396));
#1086=CARTESIAN_POINT('',(31.5153404468792,-4.99999999999995,-12.4076702234395));
#1087=CARTESIAN_POINT('',(31.5153404468791,-4.99999999999995,12.4076702234398));
#1088=CARTESIAN_POINT('',(6.69999999999979,-4.99999999999995,12.4076702234397));
#1089=CARTESIAN_POINT('',(6.69999999999979,-5.62673039111426,12.0268277725924));
#1090=CARTESIAN_POINT('',(-17.3536555451849,-5.62673039111426,12.0268277725923));
#1091=CARTESIAN_POINT('',(-17.3536555451848,-5.62673039111426,-12.0268277725924));
#1092=CARTESIAN_POINT('',(6.6999999999999,-5.62673039111426,-12.0268277725923));
#1093=CARTESIAN_POINT('',(30.7536555451846,-5.62673039111426,-12.0268277725922));
#1094=CARTESIAN_POINT('',(30.7536555451845,-5.62673039111426,12.0268277725925));
#1095=CARTESIAN_POINT('',(6.69999999999979,-5.62673039111426,12.0268277725924));
#1096=CARTESIAN_POINT('',(6.69999999999979,-6.2345972347035,11.6165475561811));
#1097=CARTESIAN_POINT('',(-16.5330951123623,-6.2345972347035,11.616547556181));
#1098=CARTESIAN_POINT('',(-16.5330951123622,-6.2345972347035,-11.6165475561811));
#1099=CARTESIAN_POINT('',(6.6999999999999,-6.2345972347035,-11.616547556181));
#1100=CARTESIAN_POINT('',(29.933095112362,-6.2345972347035,-11.6165475561809));
#1101=CARTESIAN_POINT('',(29.9330951123619,-6.2345972347035,11.6165475561812));
#1102=CARTESIAN_POINT('',(6.69999999999979,-6.2345972347035,11.6165475561811));
#1103=CARTESIAN_POINT('',(6.69999999999979,-6.82221893597095,11.1777620827283));
#1104=CARTESIAN_POINT('',(-15.6555241654567,-6.82221893597095,11.1777620827282));
#1105=CARTESIAN_POINT('',(-15.6555241654566,-6.82221893597095,-11.1777620827283));
#1106=CARTESIAN_POINT('',(6.6999999999999,-6.82221893597095,-11.1777620827282));
#1107=CARTESIAN_POINT('',(29.0555241654564,-6.82221893597095,-11.1777620827281));
#1108=CARTESIAN_POINT('',(29.0555241654563,-6.82221893597095,11.1777620827284));
#1109=CARTESIAN_POINT('',(6.69999999999979,-6.82221893597095,11.1777620827283));
#1110=CARTESIAN_POINT('',(11.3222324457713,-12.4999999999999,4.22244817607036E-14));
#1111=CARTESIAN_POINT('',(6.69999999999984,18.1000000000001,3.13950037708109E-14));
#1112=CARTESIAN_POINT('',(6.69999999999975,18.1000000000001,19.5));
#1113=CARTESIAN_POINT('',(6.69999999999976,1.10000000000013,17.));
#1114=CARTESIAN_POINT('',(-27.3000000000002,1.10000000000013,16.9999999999999));
#1115=CARTESIAN_POINT('',(-27.3000000000001,1.10000000000013,-17.0000000000001));
#1116=CARTESIAN_POINT('',(6.69999999999992,1.10000000000013,-17.));
#1117=CARTESIAN_POINT('',(40.6999999999999,1.10000000000013,-16.9999999999998));
#1118=CARTESIAN_POINT('',(40.6999999999998,1.10000000000013,17.0000000000002));
#1119=CARTESIAN_POINT('',(6.69999999999976,1.10000000000013,17.));
#1120=CARTESIAN_POINT('',(6.69999999999976,6.6616265435618,18.4655690558848));
#1121=CARTESIAN_POINT('',(-30.2311381117698,6.6616265435618,18.4655690558847));
#1122=CARTESIAN_POINT('',(-30.2311381117697,6.6616265435618,-18.4655690558849));
#1123=CARTESIAN_POINT('',(6.69999999999993,6.6616265435618,-18.4655690558848));
#1124=CARTESIAN_POINT('',(43.6311381117695,6.6616265435618,-18.4655690558846));
#1125=CARTESIAN_POINT('',(43.6311381117693,6.6616265435618,18.465569055885));
#1126=CARTESIAN_POINT('',(6.69999999999976,6.6616265435618,18.4655690558848));
#1127=CARTESIAN_POINT('',(6.69999999999975,12.3519110078163,19.3023755947458));
#1128=CARTESIAN_POINT('',(-31.9047511894917,12.3519110078163,19.3023755947456));
#1129=CARTESIAN_POINT('',(-31.9047511894915,12.3519110078163,-19.3023755947459));
#1130=CARTESIAN_POINT('',(6.69999999999994,12.3519110078163,-19.3023755947457));
#1131=CARTESIAN_POINT('',(45.3047511894914,12.3519110078163,-19.3023755947455));
#1132=CARTESIAN_POINT('',(45.3047511894912,12.3519110078163,19.3023755947459));
#1133=CARTESIAN_POINT('',(6.69999999999975,12.3519110078163,19.3023755947458));
#1134=CARTESIAN_POINT('',(6.69999999999975,18.1000000000001,19.5));
#1135=CARTESIAN_POINT('',(-32.3000000000002,18.1000000000001,19.4999999999998));
#1136=CARTESIAN_POINT('',(-32.3,18.1000000000001,-19.5000000000001));
#1137=CARTESIAN_POINT('',(6.69999999999994,18.1000000000001,-19.4999999999999));
#1138=CARTESIAN_POINT('',(45.6999999999999,18.1000000000001,-19.4999999999998));
#1139=CARTESIAN_POINT('',(45.6999999999997,18.1000000000001,19.5000000000002));
#1140=CARTESIAN_POINT('',(6.69999999999975,18.1000000000001,19.5));
#1141=CARTESIAN_POINT('',(6.69999999999984,30.1694187765514,3.13950037708109E-14));
#1142=CARTESIAN_POINT('',(6.69999999999975,30.1694187765514,19.9149573381208));
#1143=CARTESIAN_POINT('',(6.69999999999984,18.1000000000001,3.13950037708109E-14));
#1144=CARTESIAN_POINT('',(6.69999999999984,32.6859014658836,3.13950037708109E-14));
#1145=CARTESIAN_POINT('',(6.69999999999976,32.6859014658836,18.0014762482299));
#1146=CARTESIAN_POINT('',(6.69999999999984,32.6000000000001,3.13950037708109E-14));
#1147=CARTESIAN_POINT('',(6.69999999999984,21.4361982863868,3.13950037708109E-14));
#1148=CARTESIAN_POINT('',(6.69999999999976,21.4361982863868,17.6147014604426));
#1149=CARTESIAN_POINT('',(6.69999999999984,22.1046379011011,3.13950037708109E-14));
#1150=CARTESIAN_POINT('',(6.69999999999984,18.1000000000001,3.13950037708109E-14));
#1151=CARTESIAN_POINT('',(6.69999999999976,18.1000000000001,17.5));
#1152=CARTESIAN_POINT('',(6.69999999999984,18.5361982863869,3.13950037708109E-14));
#1153=CARTESIAN_POINT('',(6.69999999999976,18.5361982863869,17.5149968845363));
#1154=CARTESIAN_POINT('',(6.69999999999984,18.6082425601573,3.13950037708109E-14));
#1155=CARTESIAN_POINT('',(6.69999999999976,18.1000000000001,17.5));
#1156=CARTESIAN_POINT('',(-28.3000000000002,18.1000000000001,17.4999999999999));
#1157=CARTESIAN_POINT('',(-28.3000000000001,18.1000000000001,-17.5000000000001));
#1158=CARTESIAN_POINT('',(6.69999999999993,18.1000000000001,-17.5));
#1159=CARTESIAN_POINT('',(41.6999999999999,18.1000000000001,-17.4999999999998));
#1160=CARTESIAN_POINT('',(41.6999999999997,18.1000000000001,17.5000000000002));
#1161=CARTESIAN_POINT('',(6.69999999999976,18.1000000000001,17.5));
#1162=CARTESIAN_POINT('',(6.69999999999976,12.3519110078163,17.3023755947458));
#1163=CARTESIAN_POINT('',(-27.9047511894918,12.3519110078163,17.3023755947456));
#1164=CARTESIAN_POINT('',(-27.9047511894916,12.3519110078163,-17.3023755947459));
#1165=CARTESIAN_POINT('',(6.69999999999993,12.3519110078163,-17.3023755947457));
#1166=CARTESIAN_POINT('',(41.3047511894914,12.3519110078163,-17.3023755947456));
#1167=CARTESIAN_POINT('',(41.3047511894913,12.3519110078163,17.302375594746));
#1168=CARTESIAN_POINT('',(6.69999999999976,12.3519110078163,17.3023755947458));
#1169=CARTESIAN_POINT('',(6.69999999999977,6.66162654356183,16.4655690558848));
#1170=CARTESIAN_POINT('',(-26.2311381117698,6.66162654356183,16.4655690558847));
#1171=CARTESIAN_POINT('',(-26.2311381117697,6.66162654356183,-16.4655690558849));
#1172=CARTESIAN_POINT('',(6.69999999999992,6.66162654356183,-16.4655690558848));
#1173=CARTESIAN_POINT('',(39.6311381117695,6.66162654356183,-16.4655690558846));
#1174=CARTESIAN_POINT('',(39.6311381117694,6.66162654356183,16.465569055885));
#1175=CARTESIAN_POINT('',(6.69999999999977,6.66162654356183,16.4655690558848));
#1176=CARTESIAN_POINT('',(6.69999999999977,1.10000000000018,15.));
#1177=CARTESIAN_POINT('',(-23.3000000000003,1.10000000000018,14.9999999999999));
#1178=CARTESIAN_POINT('',(-23.3000000000001,1.10000000000018,-15.0000000000001));
#1179=CARTESIAN_POINT('',(6.69999999999991,1.10000000000018,-15.));
#1180=CARTESIAN_POINT('',(36.6999999999999,1.10000000000018,-14.9999999999998));
#1181=CARTESIAN_POINT('',(36.6999999999998,1.10000000000018,15.0000000000002));
#1182=CARTESIAN_POINT('',(6.69999999999977,1.10000000000018,15.));
#1183=CARTESIAN_POINT('',(6.69999999999997,18.5361982863869,-1.80446152945275E-14));
#1184=CARTESIAN_POINT('',(24.3147014604424,18.5361982863869,6.55733201789657E-14));
#1185=CARTESIAN_POINT('',(6.69999999999997,18.5361982863869,-1.80446152945275E-14));
#1186=CARTESIAN_POINT('',(6.69999999999993,18.5361982863869,-1.80446152945277E-14));
#1187=CARTESIAN_POINT('',(6.69999999999985,-4.01465887803524,3.13950037708109E-14));
#1188=CARTESIAN_POINT('',(19.7064280515745,-4.01465887803525,9.23408034311059E-14));
#1189=CARTESIAN_POINT('',(6.69999999999985,-4.01465887803524,3.13950037708109E-14));
#1190=CARTESIAN_POINT('',(6.69999999999985,-3.78173475703822,3.13950037708109E-14));
#1191=CARTESIAN_POINT('',(6.69999999999985,-4.99999999999995,3.13950037708109E-14));
#1192=CARTESIAN_POINT('',(-3.29386324546183,-9.8818744946857,3.95242662328109));
#1193=CARTESIAN_POINT('',(-3.33272524654836,-9.92364504660757,3.94751009123406));
#1194=CARTESIAN_POINT('',(-3.37156146774227,-9.9654370123753,3.9425715594341));
#1195=CARTESIAN_POINT('',(-3.41037259781239,-10.0072496242979,3.93761090518624));
#1196=CARTESIAN_POINT('',(-3.29386324546183,-9.8818744946857,3.95242662328109));
#1197=CARTESIAN_POINT('',(19.5438628652465,-25.1838889146666,9.15790519926327E-14));
#1198=CARTESIAN_POINT('',(6.69999999999984,-8.88820784538955,3.13950037708109E-14));
#1199=CARTESIAN_POINT('',(14.5298537608991,-21.8243408035846,6.80843005392191E-14));
#1200=CARTESIAN_POINT('',(0.916784162115663,-12.703144310948,3.42609165684519));
#1201=CARTESIAN_POINT('',(0.442488798607777,-13.2487586284145,3.5009851116428));
#1202=CARTESIAN_POINT('',(0.600469193937896,-13.066672561051,3.47685160862318));
#1203=CARTESIAN_POINT('',(0.758563958678052,-12.8847892071705,3.45191927975235));
#1204=CARTESIAN_POINT('',(0.916784162115663,-12.703144310948,3.42609165684519));
#1205=CARTESIAN_POINT('',(6.69999999999984,-13.0000946572188,3.13950037708109E-14));
#1206=CARTESIAN_POINT('',(6.69999999999981,0.,6.69999999999988));
#1207=CARTESIAN_POINT('',(-1.50682571980009,-11.0792473791035,-0.00014153647754223));
#1208=CARTESIAN_POINT('',(-1.50682571980009,-11.0792473791035,-0.00014153647754223));
#1209=CARTESIAN_POINT('',(-1.50682571980009,-11.0792473791035,-0.00014153647754223));
#1210=MECHANICAL_DESIGN_GEOMETRIC_PRESENTATION_REPRESENTATION('',(#42,#23,
#24,#25,#26,#27,#28,#29,#30,#31,#32,#33,#34,#35,#36,#37,#38,#39,#40),#1211);
#1211=(
GEOMETRIC_REPRESENTATION_CONTEXT(3)
GLOBAL_UNCERTAINTY_ASSIGNED_CONTEXT((#1212))
GLOBAL_UNIT_ASSIGNED_CONTEXT((#1218,#1214,#1213))
REPRESENTATION_CONTEXT('menstrual_cup_valve','TOP_LEVEL_ASSEMBLY_PART')
);
#1212=UNCERTAINTY_MEASURE_WITH_UNIT(LENGTH_MEASURE(0.0508),#1218,
'DISTANCE_ACCURACY_VALUE','Maximum Tolerance applied to model');
#1213=(
NAMED_UNIT(*)
SI_UNIT($,.STERADIAN.)
SOLID_ANGLE_UNIT()
);
#1214=(
CONVERSION_BASED_UNIT('DEGREE',#1216)
NAMED_UNIT(#1215)
PLANE_ANGLE_UNIT()
);
#1215=DIMENSIONAL_EXPONENTS(0.,0.,0.,0.,0.,0.,0.);
#1216=PLANE_ANGLE_MEASURE_WITH_UNIT(PLANE_ANGLE_MEASURE(0.0174532925),#1217);
#1217=(
NAMED_UNIT(*)
PLANE_ANGLE_UNIT()
SI_UNIT($,.RADIAN.)
);
#1218=(
LENGTH_UNIT()
NAMED_UNIT(*)
SI_UNIT(.MILLI.,.METRE.)
);
ENDSEC;
END-ISO-10303-21;
