ISO-10303-21;
HEADER;
/* Generated by software containing ST-Developer
 * from STEP Tools, Inc. (www.steptools.com) 
 */
/* OPTION: using custom schema-name function */

FILE_DESCRIPTION(
/* description */ (''),
/* implementation_level */ '2;1');

FILE_NAME(
/* name */ 'parabolicflight_vagina.stp',
/* time_stamp */ '2026-09-08T16:02:27+02:00',
/* author */ (''),
/* organization */ (''),
/* preprocessor_version */ 'ST-DEVELOPER v20',
/* originating_system */ 'SIEMENS PLM Software NX2406.3002',
/* authorisation */ '');

FILE_SCHEMA (('AUTOMOTIVE_DESIGN { 1 0 10303 214 3 1 1 1 }'));
ENDSEC;

DATA;
#10=SHAPE_REPRESENTATION_RELATIONSHIP('None',
'relationship between parabolicflight_vagina-None and parabolicflight_
vagina-None',#22,#11);
#11=ADVANCED_BREP_SHAPE_REPRESENTATION('parabolicflight_vagina-None',(#32),
#905);
#12=SHAPE_DEFINITION_REPRESENTATION(#13,#22);
#13=PRODUCT_DEFINITION_SHAPE('','',#14);
#14=PRODUCT_DEFINITION(' ','',#16,#15);
#15=PRODUCT_DEFINITION_CONTEXT('part definition',#21,'design');
#16=PRODUCT_DEFINITION_FORMATION_WITH_SPECIFIED_SOURCE(' ',' ',#18,
 .NOT_KNOWN.);
#17=PRODUCT_RELATED_PRODUCT_CATEGORY('part','',(#18));
#18=PRODUCT('parabolicflight_vagina','parabolicflight_vagina',' ',(#19));
#19=PRODUCT_CONTEXT(' ',#21,'mechanical');
#20=APPLICATION_PROTOCOL_DEFINITION('international standard',
'automotive_design',2010,#21);
#21=APPLICATION_CONTEXT(
'core data for automotive mechanical design processes');
#22=SHAPE_REPRESENTATION('parabolicflight_vagina-None',(#269),#905);
#23=PRESENTATION_LAYER_ASSIGNMENT('1','Layer 1',(#32));
#24=STYLED_ITEM('',(#25),#32);
#25=PRESENTATION_STYLE_ASSIGNMENT((#26));
#26=SURFACE_STYLE_USAGE(.BOTH.,#27);
#27=SURFACE_SIDE_STYLE('',(#28));
#28=SURFACE_STYLE_FILL_AREA(#29);
#29=FILL_AREA_STYLE('',(#30));
#30=FILL_AREA_STYLE_COLOUR('',#31);
#31=COLOUR_RGB('medium steel',0.596078431372549,0.666666666666667,0.686274509803922);
#32=MANIFOLD_SOLID_BREP('',#33);
#33=CLOSED_SHELL('',(#88,#89,#90,#91,#92,#93,#94,#95,#96,#97,#98,#99,#100,
#101,#102,#103,#104,#105));
#34=CONICAL_SURFACE('',#292,20.441462105957,47.9408210140824);
#35=PLANE('',#284);
#36=LINE('',#888,#40);
#37=LINE('',#889,#41);
#38=LINE('',#891,#42);
#39=LINE('',#892,#43);
#40=VECTOR('',#325,1.);
#41=VECTOR('',#326,1.);
#42=VECTOR('',#329,1.);
#43=VECTOR('',#330,1.);
#44=SURFACE_OF_REVOLUTION('',#46,#45);
#45=AXIS1_PLACEMENT('',#887,#324);
#46=ELLIPSE('',#283,25.,6.);
#47=CYLINDRICAL_SURFACE('',#275,15.);
#48=CYLINDRICAL_SURFACE('',#277,25.);
#49=CYLINDRICAL_SURFACE('',#279,20.8949254109542);
#50=CYLINDRICAL_SURFACE('',#285,19.);
#51=CYLINDRICAL_SURFACE('',#286,5.2);
#52=CYLINDRICAL_SURFACE('',#288,5.2);
#53=TOROIDAL_SURFACE('',#272,19.9960094648139,7.5);
#54=TOROIDAL_SURFACE('',#281,20.5,2.5);
#55=TOROIDAL_SURFACE('',#287,19.8,5.2);
#56=TOROIDAL_SURFACE('',#290,30.,15.);
#57=TOROIDAL_SURFACE('',#293,28.1692908556596,15.);
#58=FACE_BOUND('',#122,.T.);
#59=FACE_BOUND('',#123,.T.);
#60=FACE_BOUND('',#124,.T.);
#61=FACE_BOUND('',#125,.T.);
#62=FACE_BOUND('',#126,.T.);
#63=FACE_BOUND('',#127,.T.);
#64=FACE_BOUND('',#128,.T.);
#65=FACE_BOUND('',#129,.T.);
#66=FACE_BOUND('',#130,.T.);
#67=FACE_BOUND('',#131,.T.);
#68=FACE_BOUND('',#132,.T.);
#69=FACE_BOUND('',#133,.T.);
#70=FACE_BOUND('',#137,.T.);
#71=FACE_BOUND('',#138,.T.);
#72=FACE_BOUND('',#140,.T.);
#73=FACE_BOUND('',#141,.T.);
#74=FACE_BOUND('',#142,.T.);
#75=FACE_BOUND('',#143,.T.);
#76=FACE_BOUND('',#144,.T.);
#77=FACE_BOUND('',#145,.T.);
#78=CIRCLE('',#270,25.);
#79=CIRCLE('',#271,20.8949254109542);
#80=CIRCLE('',#273,15.);
#81=CIRCLE('',#274,15.);
#82=CIRCLE('',#276,25.);
#83=CIRCLE('',#278,20.8949254109542);
#84=CIRCLE('',#280,21.5956129793799);
#85=CIRCLE('',#282,19.);
#86=CIRCLE('',#289,15.0470638029599);
#87=CIRCLE('',#291,18.1208235567795);
#88=ADVANCED_FACE('',(#110),#106,.T.);
#89=ADVANCED_FACE('',(#111),#107,.T.);
#90=ADVANCED_FACE('',(#112),#108,.T.);
#91=ADVANCED_FACE('',(#113),#109,.T.);
#92=ADVANCED_FACE('',(#58,#59),#53,.T.);
#93=ADVANCED_FACE('',(#60,#61),#47,.F.);
#94=ADVANCED_FACE('',(#62,#63),#48,.T.);
#95=ADVANCED_FACE('',(#64,#65),#49,.F.);
#96=ADVANCED_FACE('',(#66,#67),#54,.F.);
#97=ADVANCED_FACE('',(#68,#69),#44,.T.);
#98=ADVANCED_FACE('',(#114),#35,.T.);
#99=ADVANCED_FACE('',(#115),#50,.T.);
#100=ADVANCED_FACE('',(#116),#51,.T.);
#101=ADVANCED_FACE('',(#70,#71),#55,.T.);
#102=ADVANCED_FACE('',(#117),#52,.T.);
#103=ADVANCED_FACE('',(#72,#73),#56,.T.);
#104=ADVANCED_FACE('',(#74,#75),#34,.F.);
#105=ADVANCED_FACE('',(#76,#77),#57,.T.);
#106=(
BOUNDED_SURFACE()
B_SPLINE_SURFACE(2,3,((#396,#397,#398,#399,#400,#401,#402,#403,#404,#405,
#406,#407,#408,#409,#410,#411,#412,#413,#414,#415,#416,#417,#418,#419,#420,
#421,#422,#423,#424,#425,#426,#427,#428,#429,#430,#431,#432,#433,#434,#435,
#436,#437,#438,#439,#440,#441,#442,#443,#444,#445,#446,#447,#448,#449,#450,
#451,#452,#453,#454,#455,#456,#457,#458,#459,#460,#461,#462,#463,#464,#465,
#466,#467,#468,#469,#470,#471,#472,#473),(#474,#475,#476,#477,#478,#479,
#480,#481,#482,#483,#484,#485,#486,#487,#488,#489,#490,#491,#492,#493,#494,
#495,#496,#497,#498,#499,#500,#501,#502,#503,#504,#505,#506,#507,#508,#509,
#510,#511,#512,#513,#514,#515,#516,#517,#518,#519,#520,#521,#522,#523,#524,
#525,#526,#527,#528,#529,#530,#531,#532,#533,#534,#535,#536,#537,#538,#539,
#540,#541,#542,#543,#544,#545,#546,#547,#548,#549,#550,#551),(#552,#553,
#554,#555,#556,#557,#558,#559,#560,#561,#562,#563,#564,#565,#566,#567,#568,
#569,#570,#571,#572,#573,#574,#575,#576,#577,#578,#579,#580,#581,#582,#583,
#584,#585,#586,#587,#588,#589,#590,#591,#592,#593,#594,#595,#596,#597,#598,
#599,#600,#601,#602,#603,#604,#605,#606,#607,#608,#609,#610,#611,#612,#613,
#614,#615,#616,#617,#618,#619,#620,#621,#622,#623,#624,#625,#626,#627,#628,
#629)),.UNSPECIFIED.,.F.,.F.,.F.)
B_SPLINE_SURFACE_WITH_KNOTS((3,3),(4,2,2,2,2,2,2,2,2,2,2,2,2,2,2,2,2,2,
2,2,2,2,2,2,2,2,2,2,2,2,2,2,2,2,2,2,2,2,4),(0.,1.),(0.,0.00390625,0.005859375,
0.0078125,0.015625,0.03125,0.0625,0.09375,0.125,0.15625,0.1875,0.21875,
0.25,0.28125,0.3125,0.34375,0.375,0.40625,0.4375,0.46875,0.5,0.53125,0.5625,
0.59375,0.625,0.65625,0.6875,0.71875,0.75,0.78125,0.8125,0.84375,0.875,
0.90625,0.9375,0.96875,0.984375,0.9921875,1.),.UNSPECIFIED.)
GEOMETRIC_REPRESENTATION_ITEM()
RATIONAL_B_SPLINE_SURFACE(((1.,1.,1.,1.,1.,1.,1.,1.,1.,1.,1.,1.,1.,1.,1.,
1.,1.,1.,1.,1.,1.,1.,1.,1.,1.,1.,1.,1.,1.,1.,1.,1.,1.,1.,1.,1.,1.,1.,1.,
1.,1.,1.,1.,1.,1.,1.,1.,1.,1.,1.,1.,1.,1.,1.,1.,1.,1.,1.,1.,1.,1.,1.,1.,
1.,1.,1.,1.,1.,1.,1.,1.,1.,1.,1.,1.,1.,1.,1.),(0.763750821973632,0.763764601829462,
0.763762660282275,0.763762578395273,0.763762578876013,0.763762566807893,
0.763762563164963,0.763762563164963,0.763762594434162,0.763762602679425,
0.76376259755227,0.76376259755227,0.76376261677538,0.763762609030149,0.763762615807843,
0.763762615807843,0.76376261418011,0.76376261418011,0.763762615078412,0.763762615078412,
0.763762611182386,0.763762611182386,0.763762612919019,0.763762612919019,
0.763762614820714,0.763762614820714,0.763762598799802,0.763762623512656,
0.763762615407995,0.763762615407995,0.763762615634288,0.763762615634288,
0.763762607888581,0.763762620079592,0.763762618738083,0.763762610744556,
0.763762604682378,0.763762604682378,0.763762597539922,0.76376260874157,
0.763762615577464,0.763762615577464,0.763762598970131,0.763762612625543,
0.763762600379116,0.763762600379116,0.763762615819708,0.763762615819708,
0.763762596084532,0.763762617769323,0.763762615476861,0.763762615476861,
0.763762609127243,0.763762617380787,0.76376262977551,0.763762588492742,
0.763762598563129,0.763762622102902,0.76376260176925,0.76376260176925,0.763762619288122,
0.763762588635336,0.763762615810845,0.763762615810845,0.763762615265453,
0.763762615265453,0.763762615373588,0.763762615373588,0.763762611529674,
0.763762611529674,0.763762619809555,0.763762613082708,0.763762675754743,
0.763762551224277,0.76376249231641,0.763761308717721,0.763770665934977,
0.763750511369162),(1.,1.,1.,1.,1.,1.,1.,1.,1.,1.,1.,1.,1.,1.,1.,1.,1.,
1.,1.,1.,1.,1.,1.,1.,1.,1.,1.,1.,1.,1.,1.,1.,1.,1.,1.,1.,1.,1.,1.,1.,1.,
1.,1.,1.,1.,1.,1.,1.,1.,1.,1.,1.,1.,1.,1.,1.,1.,1.,1.,1.,1.,1.,1.,1.,1.,
1.,1.,1.,1.,1.,1.,1.,1.,1.,1.,1.,1.,1.)))
REPRESENTATION_ITEM('')
SURFACE()
);
#107=(
BOUNDED_SURFACE()
B_SPLINE_SURFACE(2,3,((#647,#648,#649,#650,#651,#652,#653,#654,#655,#656),
(#657,#658,#659,#660,#661,#662,#663,#664,#665,#666),(#667,#668,#669,#670,
#671,#672,#673,#674,#675,#676)),.UNSPECIFIED.,.F.,.F.,.F.)
B_SPLINE_SURFACE_WITH_KNOTS((3,3),(4,2,2,2,4),(0.,1.),(0.,0.25,0.375,0.5,
1.),.UNSPECIFIED.)
GEOMETRIC_REPRESENTATION_ITEM()
RATIONAL_B_SPLINE_SURFACE(((1.,1.,1.,1.,1.,1.,1.,1.,1.,1.),(0.755918050052779,
0.757044348138608,0.758130288023754,0.759623565309291,0.760098790701659,
0.760960335242774,0.76135142973591,0.763098311973755,0.763736894920754,
0.763750821973632),(1.,1.,1.,1.,1.,1.,1.,1.,1.,1.)))
REPRESENTATION_ITEM('')
SURFACE()
);
#108=(
BOUNDED_SURFACE()
B_SPLINE_SURFACE(2,3,((#708,#709,#710,#711,#712,#713,#714,#715,#716,#717,
#718,#719,#720,#721,#722,#723,#724,#725),(#726,#727,#728,#729,#730,#731,
#732,#733,#734,#735,#736,#737,#738,#739,#740,#741,#742,#743),(#744,#745,
#746,#747,#748,#749,#750,#751,#752,#753,#754,#755,#756,#757,#758,#759,#760,
#761)),.UNSPECIFIED.,.F.,.F.,.F.)
B_SPLINE_SURFACE_WITH_KNOTS((3,3),(4,2,2,2,2,2,2,2,4),(0.,1.),(0.,0.0624999999999995,
0.124999999999999,0.25,0.5,0.75,0.875000000000001,0.9375,1.),
 .UNSPECIFIED.)
GEOMETRIC_REPRESENTATION_ITEM()
RATIONAL_B_SPLINE_SURFACE(((1.,1.,1.,1.,1.,1.,1.,1.,1.,1.,1.,1.,1.,1.,1.,
1.,1.,1.),(0.755915692243534,0.754465624659727,0.753212286560804,0.751065429535342,
0.750069036192964,0.747289124711925,0.745727758744008,0.741962325039297,
0.740683008034309,0.740682728208054,0.741961765475748,0.745726795290156,
0.747288029230781,0.750067748208377,0.75106523048061,0.753209572635828,
0.754445427048152,0.755918050052779),(1.,1.,1.,1.,1.,1.,1.,1.,1.,1.,1.,
1.,1.,1.,1.,1.,1.,1.)))
REPRESENTATION_ITEM('')
SURFACE()
);
#109=(
BOUNDED_SURFACE()
B_SPLINE_SURFACE(2,3,((#774,#775,#776,#777,#778,#779,#780,#781,#782,#783),
(#784,#785,#786,#787,#788,#789,#790,#791,#792,#793),(#794,#795,#796,#797,
#798,#799,#800,#801,#802,#803)),.UNSPECIFIED.,.F.,.F.,.F.)
B_SPLINE_SURFACE_WITH_KNOTS((3,3),(4,2,2,2,4),(0.,1.),(0.,0.500000000000005,
0.625000000000004,0.750000000000002,1.),.UNSPECIFIED.)
GEOMETRIC_REPRESENTATION_ITEM()
RATIONAL_B_SPLINE_SURFACE(((1.,1.,1.,1.,1.,1.,1.,1.,1.,1.),(0.763750511369162,
0.763718540739563,0.763119840037897,0.761357504089959,0.760955335583659,
0.760066388824044,0.759577022110487,0.758063923381444,0.75701147607531,
0.755915692243534),(1.,1.,1.,1.,1.,1.,1.,1.,1.,1.)))
REPRESENTATION_ITEM('')
SURFACE()
);
#110=FACE_OUTER_BOUND('',#118,.T.);
#111=FACE_OUTER_BOUND('',#119,.T.);
#112=FACE_OUTER_BOUND('',#120,.T.);
#113=FACE_OUTER_BOUND('',#121,.T.);
#114=FACE_OUTER_BOUND('',#134,.T.);
#115=FACE_OUTER_BOUND('',#135,.T.);
#116=FACE_OUTER_BOUND('',#136,.T.);
#117=FACE_OUTER_BOUND('',#139,.T.);
#118=EDGE_LOOP('',(#157,#158,#159,#160));
#119=EDGE_LOOP('',(#161,#162,#163,#164));
#120=EDGE_LOOP('',(#165,#166,#167,#168));
#121=EDGE_LOOP('',(#169,#170,#171,#172));
#122=EDGE_LOOP('',(#173));
#123=EDGE_LOOP('',(#174));
#124=EDGE_LOOP('',(#175));
#125=EDGE_LOOP('',(#176));
#126=EDGE_LOOP('',(#177));
#127=EDGE_LOOP('',(#178));
#128=EDGE_LOOP('',(#179));
#129=EDGE_LOOP('',(#180));
#130=EDGE_LOOP('',(#181));
#131=EDGE_LOOP('',(#182));
#132=EDGE_LOOP('',(#183));
#133=EDGE_LOOP('',(#184,#185,#186,#187));
#134=EDGE_LOOP('',(#188,#189,#190,#191));
#135=EDGE_LOOP('',(#192,#193,#194,#195));
#136=EDGE_LOOP('',(#196,#197,#198,#199));
#137=EDGE_LOOP('',(#200,#201,#202,#203));
#138=EDGE_LOOP('',(#204));
#139=EDGE_LOOP('',(#205,#206,#207,#208));
#140=EDGE_LOOP('',(#209));
#141=EDGE_LOOP('',(#210));
#142=EDGE_LOOP('',(#211));
#143=EDGE_LOOP('',(#212));
#144=EDGE_LOOP('',(#213));
#145=EDGE_LOOP('',(#214));
#146=B_SPLINE_CURVE_WITH_KNOTS('',3,(#355,#356,#357,#358,#359,#360,#361,
#362,#363,#364,#365,#366,#367,#368,#369,#370,#371,#372),.UNSPECIFIED.,.F.,
 .F.,(4,2,2,2,2,2,2,2,4),(0.,0.125,0.25,0.375,0.5,0.625,0.75,0.875,1.),
 .UNSPECIFIED.);
#147=B_SPLINE_CURVE_WITH_KNOTS('',3,(#378,#379,#380,#381,#382,#383,#384,
#385,#386,#387,#388,#389,#390,#391,#392,#393,#394,#395),.UNSPECIFIED.,.F.,
 .F.,(4,2,2,2,2,2,2,2,4),(0.,0.125,0.25,0.375,0.5,0.625,0.75,0.875,1.),
 .UNSPECIFIED.);
#148=B_SPLINE_CURVE_WITH_KNOTS('',3,(#630,#631,#632,#633),.UNSPECIFIED.,
 .F.,.F.,(4,4),(0.,1.),.UNSPECIFIED.);
#149=B_SPLINE_CURVE_WITH_KNOTS('',3,(#639,#640,#641,#642,#643,#644,#645,
#646),.UNSPECIFIED.,.F.,.F.,(4,2,2,4),(0.,0.25,0.500000000000001,1.),
 .UNSPECIFIED.);
#150=B_SPLINE_CURVE_WITH_KNOTS('',3,(#677,#678,#679,#680,#681,#682,#683,
#684,#685,#686),.UNSPECIFIED.,.F.,.F.,(4,2,2,2,4),(0.,0.25,0.5,0.75,1.),
 .UNSPECIFIED.);
#151=B_SPLINE_CURVE_WITH_KNOTS('',3,(#692,#693,#694,#695,#696,#697,#698,
#699,#700,#701,#702,#703,#704,#705,#706,#707),.UNSPECIFIED.,.F.,.F.,(4,
1,2,2,2,1,2,2,4),(0.,0.125,0.1875,0.25,0.5,0.625,0.6875,0.75,1.),
 .UNSPECIFIED.);
#152=B_SPLINE_CURVE_WITH_KNOTS('',3,(#762,#763,#764,#765),.UNSPECIFIED.,
 .F.,.F.,(4,4),(0.,1.),.UNSPECIFIED.);
#153=B_SPLINE_CURVE_WITH_KNOTS('',3,(#766,#767,#768,#769,#770,#771,#772,
#773),.UNSPECIFIED.,.F.,.F.,(4,2,2,4),(0.,0.250000000000001,0.500000000000001,
1.),.UNSPECIFIED.);
#154=B_SPLINE_CURVE_WITH_KNOTS('',3,(#823,#824,#825,#826,#827,#828,#829,
#830,#831,#832,#833,#834,#835,#836,#837,#838,#839,#840,#841,#842,#843,#844,
#845,#846,#847,#848,#849,#850,#851,#852,#853,#854,#855,#856,#857,#858,#859,
#860,#861,#862,#863,#864,#865,#866,#867,#868,#869,#870,#871,#872),
 .UNSPECIFIED.,.F.,.F.,(4,2,2,2,2,2,2,2,2,2,2,2,2,2,2,2,2,2,2,2,2,2,2,2,
4),(0.,0.03125,0.0625000000000001,0.0937500000000001,0.125,0.1875,0.25,
0.3125,0.375,0.40625,0.4375,0.46875,0.5,0.53125,0.5625,0.593750000000001,
0.625000000000001,0.6875,0.75,0.8125,0.875,0.90625,0.9375,0.96875,1.),
 .UNSPECIFIED.);
#155=B_SPLINE_CURVE_WITH_KNOTS('',3,(#875,#876,#877,#878),.UNSPECIFIED.,
 .F.,.F.,(4,4),(0.,1.),.UNSPECIFIED.);
#156=B_SPLINE_CURVE_WITH_KNOTS('',3,(#882,#883,#884,#885),.UNSPECIFIED.,
 .F.,.F.,(4,4),(0.,1.),.UNSPECIFIED.);
#157=ORIENTED_EDGE('',*,*,#236,.F.);
#158=ORIENTED_EDGE('',*,*,#237,.F.);
#159=ORIENTED_EDGE('',*,*,#238,.T.);
#160=ORIENTED_EDGE('',*,*,#239,.F.);
#161=ORIENTED_EDGE('',*,*,#238,.F.);
#162=ORIENTED_EDGE('',*,*,#240,.F.);
#163=ORIENTED_EDGE('',*,*,#241,.T.);
#164=ORIENTED_EDGE('',*,*,#242,.F.);
#165=ORIENTED_EDGE('',*,*,#241,.F.);
#166=ORIENTED_EDGE('',*,*,#243,.F.);
#167=ORIENTED_EDGE('',*,*,#244,.T.);
#168=ORIENTED_EDGE('',*,*,#245,.F.);
#169=ORIENTED_EDGE('',*,*,#246,.F.);
#170=ORIENTED_EDGE('',*,*,#236,.T.);
#171=ORIENTED_EDGE('',*,*,#247,.F.);
#172=ORIENTED_EDGE('',*,*,#244,.F.);
#173=ORIENTED_EDGE('',*,*,#248,.T.);
#174=ORIENTED_EDGE('',*,*,#249,.F.);
#175=ORIENTED_EDGE('',*,*,#250,.T.);
#176=ORIENTED_EDGE('',*,*,#251,.T.);
#177=ORIENTED_EDGE('',*,*,#252,.T.);
#178=ORIENTED_EDGE('',*,*,#248,.F.);
#179=ORIENTED_EDGE('',*,*,#253,.F.);
#180=ORIENTED_EDGE('',*,*,#249,.T.);
#181=ORIENTED_EDGE('',*,*,#254,.T.);
#182=ORIENTED_EDGE('',*,*,#253,.T.);
#183=ORIENTED_EDGE('',*,*,#251,.F.);
#184=ORIENTED_EDGE('',*,*,#255,.F.);
#185=ORIENTED_EDGE('',*,*,#256,.T.);
#186=ORIENTED_EDGE('',*,*,#257,.T.);
#187=ORIENTED_EDGE('',*,*,#258,.T.);
#188=ORIENTED_EDGE('',*,*,#259,.T.);
#189=ORIENTED_EDGE('',*,*,#245,.T.);
#190=ORIENTED_EDGE('',*,*,#260,.T.);
#191=ORIENTED_EDGE('',*,*,#255,.T.);
#192=ORIENTED_EDGE('',*,*,#261,.T.);
#193=ORIENTED_EDGE('',*,*,#239,.T.);
#194=ORIENTED_EDGE('',*,*,#262,.T.);
#195=ORIENTED_EDGE('',*,*,#257,.F.);
#196=ORIENTED_EDGE('',*,*,#262,.F.);
#197=ORIENTED_EDGE('',*,*,#242,.T.);
#198=ORIENTED_EDGE('',*,*,#259,.F.);
#199=ORIENTED_EDGE('',*,*,#258,.F.);
#200=ORIENTED_EDGE('',*,*,#237,.T.);
#201=ORIENTED_EDGE('',*,*,#246,.T.);
#202=ORIENTED_EDGE('',*,*,#243,.T.);
#203=ORIENTED_EDGE('',*,*,#240,.T.);
#204=ORIENTED_EDGE('',*,*,#252,.F.);
#205=ORIENTED_EDGE('',*,*,#260,.F.);
#206=ORIENTED_EDGE('',*,*,#247,.T.);
#207=ORIENTED_EDGE('',*,*,#261,.F.);
#208=ORIENTED_EDGE('',*,*,#256,.F.);
#209=ORIENTED_EDGE('',*,*,#263,.T.);
#210=ORIENTED_EDGE('',*,*,#250,.F.);
#211=ORIENTED_EDGE('',*,*,#264,.T.);
#212=ORIENTED_EDGE('',*,*,#263,.F.);
#213=ORIENTED_EDGE('',*,*,#264,.F.);
#214=ORIENTED_EDGE('',*,*,#254,.F.);
#215=VERTEX_POINT('',#353);
#216=VERTEX_POINT('',#354);
#217=VERTEX_POINT('',#373);
#218=VERTEX_POINT('',#377);
#219=VERTEX_POINT('',#634);
#220=VERTEX_POINT('',#638);
#221=VERTEX_POINT('',#687);
#222=VERTEX_POINT('',#691);
#223=VERTEX_POINT('',#805);
#224=VERTEX_POINT('',#807);
#225=VERTEX_POINT('',#810);
#226=VERTEX_POINT('',#812);
#227=VERTEX_POINT('',#815);
#228=VERTEX_POINT('',#818);
#229=VERTEX_POINT('',#821);
#230=VERTEX_POINT('',#873);
#231=VERTEX_POINT('',#874);
#232=VERTEX_POINT('',#879);
#233=VERTEX_POINT('',#881);
#234=VERTEX_POINT('',#898);
#235=VERTEX_POINT('',#901);
#236=EDGE_CURVE('',#215,#216,#265,.T.);
#237=EDGE_CURVE('',#217,#215,#146,.T.);
#238=EDGE_CURVE('',#217,#218,#266,.T.);
#239=EDGE_CURVE('',#216,#218,#147,.T.);
#240=EDGE_CURVE('',#219,#217,#148,.T.);
#241=EDGE_CURVE('',#219,#220,#267,.T.);
#242=EDGE_CURVE('',#218,#220,#149,.T.);
#243=EDGE_CURVE('',#221,#219,#150,.T.);
#244=EDGE_CURVE('',#221,#222,#268,.T.);
#245=EDGE_CURVE('',#220,#222,#151,.T.);
#246=EDGE_CURVE('',#215,#221,#152,.T.);
#247=EDGE_CURVE('',#222,#216,#153,.T.);
#248=EDGE_CURVE('',#223,#223,#78,.T.);
#249=EDGE_CURVE('',#224,#224,#79,.T.);
#250=EDGE_CURVE('',#225,#225,#80,.T.);
#251=EDGE_CURVE('',#226,#226,#81,.T.);
#252=EDGE_CURVE('',#227,#227,#82,.T.);
#253=EDGE_CURVE('',#228,#228,#83,.T.);
#254=EDGE_CURVE('',#229,#229,#84,.T.);
#255=EDGE_CURVE('',#230,#231,#154,.T.);
#256=EDGE_CURVE('',#230,#232,#155,.T.);
#257=EDGE_CURVE('',#232,#233,#85,.T.);
#258=EDGE_CURVE('',#233,#231,#156,.T.);
#259=EDGE_CURVE('',#231,#220,#36,.T.);
#260=EDGE_CURVE('',#222,#230,#37,.T.);
#261=EDGE_CURVE('',#232,#216,#38,.T.);
#262=EDGE_CURVE('',#218,#233,#39,.T.);
#263=EDGE_CURVE('',#234,#234,#86,.T.);
#264=EDGE_CURVE('',#235,#235,#87,.T.);
#265=(
BOUNDED_CURVE()
B_SPLINE_CURVE(2,(#350,#351,#352),.UNSPECIFIED.,.F.,.F.)
B_SPLINE_CURVE_WITH_KNOTS((3,3),(0.,1.),.UNSPECIFIED.)
CURVE()
GEOMETRIC_REPRESENTATION_ITEM()
RATIONAL_B_SPLINE_CURVE((1.,0.763750511369162,1.))
REPRESENTATION_ITEM('')
);
#266=(
BOUNDED_CURVE()
B_SPLINE_CURVE(2,(#374,#375,#376),.UNSPECIFIED.,.F.,.F.)
B_SPLINE_CURVE_WITH_KNOTS((3,3),(0.,1.),.UNSPECIFIED.)
CURVE()
GEOMETRIC_REPRESENTATION_ITEM()
RATIONAL_B_SPLINE_CURVE((1.,0.763750821973632,1.))
REPRESENTATION_ITEM('')
);
#267=(
BOUNDED_CURVE()
B_SPLINE_CURVE(2,(#635,#636,#637),.UNSPECIFIED.,.F.,.F.)
B_SPLINE_CURVE_WITH_KNOTS((3,3),(0.,1.),.UNSPECIFIED.)
CURVE()
GEOMETRIC_REPRESENTATION_ITEM()
RATIONAL_B_SPLINE_CURVE((1.,0.755918050052779,1.))
REPRESENTATION_ITEM('')
);
#268=(
BOUNDED_CURVE()
B_SPLINE_CURVE(2,(#688,#689,#690),.UNSPECIFIED.,.F.,.F.)
B_SPLINE_CURVE_WITH_KNOTS((3,3),(0.,1.),.UNSPECIFIED.)
CURVE()
GEOMETRIC_REPRESENTATION_ITEM()
RATIONAL_B_SPLINE_CURVE((1.,0.755915692243534,1.))
REPRESENTATION_ITEM('')
);
#269=AXIS2_PLACEMENT_3D('',#349,#294,#295);
#270=AXIS2_PLACEMENT_3D('',#804,#296,#297);
#271=AXIS2_PLACEMENT_3D('',#806,#298,#299);
#272=AXIS2_PLACEMENT_3D('',#808,#300,#301);
#273=AXIS2_PLACEMENT_3D('',#809,#302,#303);
#274=AXIS2_PLACEMENT_3D('',#811,#304,#305);
#275=AXIS2_PLACEMENT_3D('',#813,#306,#307);
#276=AXIS2_PLACEMENT_3D('',#814,#308,#309);
#277=AXIS2_PLACEMENT_3D('',#816,#310,#311);
#278=AXIS2_PLACEMENT_3D('',#817,#312,#313);
#279=AXIS2_PLACEMENT_3D('',#819,#314,#315);
#280=AXIS2_PLACEMENT_3D('',#820,#316,#317);
#281=AXIS2_PLACEMENT_3D('',#822,#318,#319);
#282=AXIS2_PLACEMENT_3D('',#880,#320,#321);
#283=AXIS2_PLACEMENT_3D('',#886,#322,#323);
#284=AXIS2_PLACEMENT_3D('',#890,#327,#328);
#285=AXIS2_PLACEMENT_3D('',#893,#331,#332);
#286=AXIS2_PLACEMENT_3D('',#894,#333,#334);
#287=AXIS2_PLACEMENT_3D('',#895,#335,#336);
#288=AXIS2_PLACEMENT_3D('',#896,#337,#338);
#289=AXIS2_PLACEMENT_3D('',#897,#339,#340);
#290=AXIS2_PLACEMENT_3D('',#899,#341,#342);
#291=AXIS2_PLACEMENT_3D('',#900,#343,#344);
#292=AXIS2_PLACEMENT_3D('',#902,#345,#346);
#293=AXIS2_PLACEMENT_3D('',#903,#347,#348);
#294=DIRECTION('',(0.,0.,1.));
#295=DIRECTION('',(1.,0.,0.));
#296=DIRECTION('',(0.,0.,1.));
#297=DIRECTION('',(1.,0.,0.));
#298=DIRECTION('',(0.,0.,1.));
#299=DIRECTION('',(-1.,0.,0.));
#300=DIRECTION('',(0.,0.,-1.));
#301=DIRECTION('',(-1.,0.,0.));
#302=DIRECTION('',(0.,0.,1.));
#303=DIRECTION('',(1.,0.,0.));
#304=DIRECTION('',(0.,0.,-1.));
#305=DIRECTION('',(1.,0.,0.));
#306=DIRECTION('',(0.,0.,-1.));
#307=DIRECTION('',(-1.,0.,0.));
#308=DIRECTION('',(0.,0.,1.));
#309=DIRECTION('',(1.,0.,0.));
#310=DIRECTION('',(0.,0.,-1.));
#311=DIRECTION('',(-1.,0.,0.));
#312=DIRECTION('',(0.,0.,1.));
#313=DIRECTION('',(-1.,0.,0.));
#314=DIRECTION('',(0.,0.,-1.));
#315=DIRECTION('',(-1.,0.,0.));
#316=DIRECTION('',(0.,0.,-1.));
#317=DIRECTION('',(1.,0.,0.));
#318=DIRECTION('',(0.,0.,-1.));
#319=DIRECTION('',(-1.,0.,0.));
#320=DIRECTION('',(0.,0.,-1.));
#321=DIRECTION('',(1.,0.,0.));
#322=DIRECTION('',(1.,0.,0.));
#323=DIRECTION('',(0.,0.,1.));
#324=DIRECTION('',(0.,0.,1.));
#325=DIRECTION('',(0.,0.,1.));
#326=DIRECTION('',(0.,0.,-1.));
#327=DIRECTION('',(0.,-1.,0.));
#328=DIRECTION('',(0.,0.,-1.));
#329=DIRECTION('',(0.,0.,1.));
#330=DIRECTION('',(0.,0.,-1.));
#331=DIRECTION('',(0.,0.,-1.));
#332=DIRECTION('',(-1.,0.,0.));
#333=DIRECTION('',(0.,0.,-1.));
#334=DIRECTION('',(-1.,0.,0.));
#335=DIRECTION('',(0.,0.,1.));
#336=DIRECTION('',(1.,0.,0.));
#337=DIRECTION('',(0.,0.,-1.));
#338=DIRECTION('',(-1.,0.,0.));
#339=DIRECTION('',(0.,0.,1.));
#340=DIRECTION('',(-1.,0.,0.));
#341=DIRECTION('',(0.,0.,1.));
#342=DIRECTION('',(1.,0.,0.));
#343=DIRECTION('',(0.,0.,1.));
#344=DIRECTION('',(-1.,0.,0.));
#345=DIRECTION('',(0.,0.,1.));
#346=DIRECTION('',(1.,0.,-8.60638194610083E-17));
#347=DIRECTION('',(0.,0.,1.));
#348=DIRECTION('',(1.,0.,0.));
#349=CARTESIAN_POINT('',(0.,0.,0.));
#350=CARTESIAN_POINT('',(-5.48788216436334,-19.9246029812994,66.0727126311095));
#351=CARTESIAN_POINT('',(-5.06808817488137,-18.3115942028985,65.7910463396667));
#352=CARTESIAN_POINT('',(-5.06808817488137,-18.3115942028986,64.1006735368393));
#353=CARTESIAN_POINT('',(-5.48788216436335,-19.9246029812994,66.0727126311095));
#354=CARTESIAN_POINT('',(-5.06808817488137,-18.3115942028986,64.1007692187451));
#355=CARTESIAN_POINT('',(5.48820252853525,-19.9245176097586,66.0727130987372));
#356=CARTESIAN_POINT('',(10.258159282347,-18.6106343021384,66.0727130792527));
#357=CARTESIAN_POINT('',(14.516408849271,-15.5196459214211,66.0727130597682));
#358=CARTESIAN_POINT('',(19.9706975194474,-7.26338533067918,66.0727130207992));
#359=CARTESIAN_POINT('',(21.1431375756694,-2.13383545453873,66.0727130013147));
#360=CARTESIAN_POINT('',(19.8172597337921,7.67213968876111,66.0727129623457));
#361=CARTESIAN_POINT('',(17.3246785102809,12.3061374805985,66.0727129428612));
#362=CARTESIAN_POINT('',(9.8736479877574,18.8174538941789,66.0727129038922));
#363=CARTESIAN_POINT('',(4.94743703713613,20.6666000306003,66.0727128844077));
#364=CARTESIAN_POINT('',(-4.94776856970926,20.6665204306759,66.0727128454387));
#365=CARTESIAN_POINT('',(-9.87394967697162,18.817295042676,66.0727128259542));
#366=CARTESIAN_POINT('',(-17.3248751912828,12.3058589713467,66.0727127869852));
#367=CARTESIAN_POINT('',(-19.8173817094663,7.67182129699684,66.0727127675008));
#368=CARTESIAN_POINT('',(-21.1431016981702,-2.13417452011,66.0727127285319));
#369=CARTESIAN_POINT('',(-19.9705791848969,-7.26370509703963,66.0727127090474));
#370=CARTESIAN_POINT('',(-14.5161582315675,-15.5198771059182,66.0727126700785));
#371=CARTESIAN_POINT('',(-10.2578594174678,-18.6107965915948,66.072712650594));
#372=CARTESIAN_POINT('',(-5.48788216436335,-19.9246029812994,66.0727126311095));
#373=CARTESIAN_POINT('',(5.48820252853525,-19.9245176097586,66.0727130987372));
#374=CARTESIAN_POINT('',(5.48820252853525,-19.9245176097586,66.0727130987372));
#375=CARTESIAN_POINT('',(5.06808817488136,-18.3115942028986,65.7910454782107));
#376=CARTESIAN_POINT('',(5.06808817488137,-18.3115942028986,64.1006743251806));
#377=CARTESIAN_POINT('',(5.06808817488137,-18.3115942028986,64.1006743251806));
#378=CARTESIAN_POINT('',(-5.06808817488136,-18.3115942028986,64.1006735368393));
#379=CARTESIAN_POINT('',(-9.45002555080158,-17.098808207758,64.1006735696869));
#380=CARTESIAN_POINT('',(-13.3599614883762,-14.2542503859586,64.1006736025344));
#381=CARTESIAN_POINT('',(-18.365295338611,-6.66244340779617,64.1006736682295));
#382=CARTESIAN_POINT('',(-19.439073426107,-1.94798597811124,64.1006737010771));
#383=CARTESIAN_POINT('',(-18.2151505030905,7.06261404766381,64.1006737667722));
#384=CARTESIAN_POINT('',(-15.9227360529559,11.3198366430083,64.1006737996198));
#385=CARTESIAN_POINT('',(-9.07370502729594,17.3014479773839,64.1006738653149));
#386=CARTESIAN_POINT('',(-4.54667186373678,19.,64.1006738981624));
#387=CARTESIAN_POINT('',(4.54667186373677,19.,64.1006739638575));
#388=CARTESIAN_POINT('',(9.07370502729593,17.3014479773839,64.1006739967051));
#389=CARTESIAN_POINT('',(15.9227360529559,11.3198366430083,64.1006740624002));
#390=CARTESIAN_POINT('',(18.2151505030905,7.06261404766382,64.1006740952478));
#391=CARTESIAN_POINT('',(19.439073426107,-1.94798597811122,64.1006741609429));
#392=CARTESIAN_POINT('',(18.3652953386111,-6.66244340779616,64.1006741937904));
#393=CARTESIAN_POINT('',(13.3599614883762,-14.2542503859586,64.1006742594855));
#394=CARTESIAN_POINT('',(9.4500255508016,-17.098808207758,64.1006742923331));
#395=CARTESIAN_POINT('',(5.06808817488136,-18.3115942028986,64.1006743251806));
#396=CARTESIAN_POINT('',(5.48820252853525,-19.9245176097586,66.0727130987372));
#397=CARTESIAN_POINT('',(5.65293673064768,-19.8792821071808,66.0727359895667));
#398=CARTESIAN_POINT('',(5.80906792153862,-19.8340723549979,66.0727309214471));
#399=CARTESIAN_POINT('',(6.03419823957924,-19.7662766136196,66.0727307983594));
#400=CARTESIAN_POINT('',(6.10784811289474,-19.7436392431091,66.0727307990163));
#401=CARTESIAN_POINT('',(6.25569462059074,-19.6972937101647,66.0727307808524));
#402=CARTESIAN_POINT('',(6.32943162105535,-19.6737228456621,66.0727307755288));
#403=CARTESIAN_POINT('',(6.69716582496384,-19.5538946838438,66.072730774713));
#404=CARTESIAN_POINT('',(6.98850679570653,-19.4516696313825,66.0727308224414));
#405=CARTESIAN_POINT('',(7.85655401188648,-19.1250612316587,66.0727308348551));
#406=CARTESIAN_POINT('',(8.42552017916204,-18.8813093848426,66.0727308266628));
#407=CARTESIAN_POINT('',(10.0957044915655,-18.0752973935181,66.0727308280819));
#408=CARTESIAN_POINT('',(11.1603780333419,-17.4380239429671,66.0727308444148));
#409=CARTESIAN_POINT('',(13.1591494869476,-15.9836011122227,66.0727308560774));
#410=CARTESIAN_POINT('',(14.0932425318496,-15.1664118330546,66.0727308546601));
#411=CARTESIAN_POINT('',(15.8007958402353,-13.3781308016779,66.0727308545793));
#412=CARTESIAN_POINT('',(16.5742270343475,-12.4070371524322,66.072730852324));
#413=CARTESIAN_POINT('',(17.9351454193486,-10.342636578698,66.0727308520143));
#414=CARTESIAN_POINT('',(18.5227385045283,-9.24921142037002,66.0727308532999));
#415=CARTESIAN_POINT('',(19.4933456723112,-6.97489987125571,66.0727308537432));
#416=CARTESIAN_POINT('',(19.8761048153677,-5.79483655004362,66.072730845215));
#417=CARTESIAN_POINT('',(20.4252069100634,-3.38387309870644,66.0727308500972));
#418=CARTESIAN_POINT('',(20.5913706399412,-2.15284501606649,66.0727308461568));
#419=CARTESIAN_POINT('',(20.7011770925086,0.317104858227179,66.0727308543843));
#420=CARTESIAN_POINT('',(20.644965225602,1.55709595212804,66.0727308570702));
#421=CARTESIAN_POINT('',(20.312168813136,4.0068607602285,66.072730849197));
#422=CARTESIAN_POINT('',(20.0357227097064,5.21639908632924,66.072730829017));
#423=CARTESIAN_POINT('',(19.2705307279359,7.56886110905786,66.0727308662164));
#424=CARTESIAN_POINT('',(18.782206037698,8.71021766103083,66.0727308521253));
#425=CARTESIAN_POINT('',(17.6100347719547,10.8869569486211,66.0727308559102));
#426=CARTESIAN_POINT('',(16.9257502293691,11.9230043431033,66.0727308559723));
#427=CARTESIAN_POINT('',(15.3839060898365,13.8554857736004,66.0727308527445));
#428=CARTESIAN_POINT('',(14.525845559211,14.7526462490933,66.0727308610496));
#429=CARTESIAN_POINT('',(12.6627390172277,16.3797373805289,66.0727308426985));
#430=CARTESIAN_POINT('',(11.6584318970979,17.109056686623,66.0727308469958));
#431=CARTESIAN_POINT('',(9.53612325396384,18.3766485310532,66.0727308590323));
#432=CARTESIAN_POINT('',(8.41809354245375,18.9149499507132,66.0727308359898));
#433=CARTESIAN_POINT('',(6.10304092390013,19.7836428123934,66.0727308397507));
#434=CARTESIAN_POINT('',(4.90540486953241,20.1140968304221,66.0727308439788));
#435=CARTESIAN_POINT('',(2.4722389506537,20.555483907852,66.0727308271199));
#436=CARTESIAN_POINT('',(1.23653555949648,20.6666444382482,66.0727308564867));
#437=CARTESIAN_POINT('',(-1.23579206071975,20.6666888839713,66.0727308520591));
#438=CARTESIAN_POINT('',(-2.47171002775043,20.5555499837036,66.0727308292727));
#439=CARTESIAN_POINT('',(-4.90496678043102,20.114206211102,66.0727308498265));
#440=CARTESIAN_POINT('',(-6.1026528282512,19.7837583592519,66.0727308305146));
#441=CARTESIAN_POINT('',(-8.4176018929682,18.9151644232848,66.0727308322688));
#442=CARTESIAN_POINT('',(-9.53586311110542,18.3767799715466,66.0727308540947));
#443=CARTESIAN_POINT('',(-11.6581029912922,17.1092770831001,66.0727308551804));
#444=CARTESIAN_POINT('',(-12.6621227204717,16.3802055953392,66.0727308249297));
#445=CARTESIAN_POINT('',(-14.5251373818965,14.7533345096044,66.0727308575692));
#446=CARTESIAN_POINT('',(-15.383485073384,13.8559608417842,66.0727308526685));
#447=CARTESIAN_POINT('',(-16.9254870920197,11.9233867361807,66.0727308555743));
#448=CARTESIAN_POINT('',(-17.609676833146,10.887531785921,66.0727308569897));
#449=CARTESIAN_POINT('',(-18.7818885551229,8.71089695845537,66.0727308445602));
#450=CARTESIAN_POINT('',(-19.2703117530949,7.56944996312024,66.0727308756441));
#451=CARTESIAN_POINT('',(-20.0356714618415,5.21664084280456,66.0727308135008));
#452=CARTESIAN_POINT('',(-20.3121421226972,4.00693273038239,66.0727308286556));
#453=CARTESIAN_POINT('',(-20.6449169401724,1.55757526909774,66.0727308640991));
#454=CARTESIAN_POINT('',(-20.7011661219296,0.318036346970951,66.0727308377062));
#455=CARTESIAN_POINT('',(-20.5914589074955,-2.15203250950705,66.0727308292629));
#456=CARTESIAN_POINT('',(-20.4253517178487,-3.38312781857835,66.0727308598563));
#457=CARTESIAN_POINT('',(-19.8761406914935,-5.79478787907437,66.0727308137144));
#458=CARTESIAN_POINT('',(-19.493293970009,-6.97495796217731,66.0727308536882));
#459=CARTESIAN_POINT('',(-18.5231150705025,-9.24839212609611,66.0727308555603));
#460=CARTESIAN_POINT('',(-17.9354770496783,-10.3420827929833,66.072730851916));
#461=CARTESIAN_POINT('',(-16.574409021257,-12.4068118392862,66.0727308556903));
#462=CARTESIAN_POINT('',(-15.8009287093228,-13.377960033196,66.0727308525184));
#463=CARTESIAN_POINT('',(-14.0936135023925,-15.1660549214359,66.0727308554135));
#464=CARTESIAN_POINT('',(-13.1596364398094,-15.9832041431042,66.0727308528234));
#465=CARTESIAN_POINT('',(-11.1608224658013,-17.4377431315966,66.0727308435345));
#466=CARTESIAN_POINT('',(-10.0962433079948,-18.0750342882405,66.0727308471446));
#467=CARTESIAN_POINT('',(-8.42531600168793,-18.88140972142,66.0727308572669));
#468=CARTESIAN_POINT('',(-7.85598844433468,-19.1252383718867,66.0727309448635));
#469=CARTESIAN_POINT('',(-6.99038917696451,-19.4509790883544,66.0727307573921));
#470=CARTESIAN_POINT('',(-6.69977784281344,-19.5529622839943,66.0727306686934));
#471=CARTESIAN_POINT('',(-6.11590186039497,-19.7433701764366,66.0727288867972));
#472=CARTESIAN_POINT('',(-5.82178053040497,-19.8329433681044,66.072762626632));
#473=CARTESIAN_POINT('',(-5.48788216436334,-19.9246029812994,66.0727126311095));
#474=CARTESIAN_POINT('',(5.06808817488136,-18.3115942028986,65.7910454782107));
#475=CARTESIAN_POINT('',(5.20503772684946,-18.2736907633198,65.7910032906194));
#476=CARTESIAN_POINT('',(5.34170061216909,-18.2342116282068,65.7910126464507));
#477=CARTESIAN_POINT('',(5.54603553381458,-18.1726869131062,65.7910128735409));
#478=CARTESIAN_POINT('',(5.61403036156799,-18.15179665213,65.7910128722081));
#479=CARTESIAN_POINT('',(5.74976854795534,-18.1092578601689,65.7910129056752));
#480=CARTESIAN_POINT('',(5.81751330551683,-18.0876089087008,65.7910129154742));
#481=CARTESIAN_POINT('',(6.15559283542241,-17.9774745264496,65.7910129169939));
#482=CARTESIAN_POINT('',(6.42398188426134,-17.8833239977104,65.7910128290596));
#483=CARTESIAN_POINT('',(7.22223161468646,-17.5830217062729,65.7910128061999));
#484=CARTESIAN_POINT('',(7.74519790289225,-17.3590005429951,65.791012821282));
#485=CARTESIAN_POINT('',(9.28074696670206,-16.6180533567218,65.7910128186795));
#486=CARTESIAN_POINT('',(10.2598415991613,-16.032072777837,65.7910127885911));
#487=CARTESIAN_POINT('',(12.0978405960863,-14.6946915629833,65.7910127670973));
#488=CARTESIAN_POINT('',(12.9566844962021,-13.9433181149842,65.7910127697247));
#489=CARTESIAN_POINT('',(14.5265044344921,-12.2992870567545,65.7910127698509));
#490=CARTESIAN_POINT('',(15.237435342472,-11.406683181495,65.7910127740101));
#491=CARTESIAN_POINT('',(16.4886202726844,-9.50879900524902,65.7910127745936));
#492=CARTESIAN_POINT('',(17.028879168265,-8.50349014583925,65.7910127722128));
#493=CARTESIAN_POINT('',(17.9212461707167,-6.41256626292618,65.7910127714085));
#494=CARTESIAN_POINT('',(18.2733407337584,-5.32698769223194,65.7910127871173));
#495=CARTESIAN_POINT('',(18.7780705792884,-3.11060199389421,65.7910127781131));
#496=CARTESIAN_POINT('',(18.9307305384083,-1.97976461904005,65.7910127853848));
#497=CARTESIAN_POINT('',(19.0317405741153,0.291337235109046,65.7910127702135));
#498=CARTESIAN_POINT('',(18.9800701211848,1.43146131665418,65.7910127652784));
#499=CARTESIAN_POINT('',(18.6740113451231,3.68421546444198,65.7910127797722));
#500=CARTESIAN_POINT('',(18.4196320117152,4.79675443875505,65.7910128169549));
#501=CARTESIAN_POINT('',(17.7164755669212,6.95831804359149,65.7910127484206));
#502=CARTESIAN_POINT('',(17.2676693373956,8.00747110759722,65.7910127743821));
#503=CARTESIAN_POINT('',(16.1898448610545,10.0090419751421,65.7910127674112));
#504=CARTESIAN_POINT('',(15.5608800191892,10.9613433052564,65.7910127672883));
#505=CARTESIAN_POINT('',(14.1430417046072,12.7383831536413,65.7910127732499));
#506=CARTESIAN_POINT('',(13.3542513437393,13.5630289564632,65.7910127579478));
#507=CARTESIAN_POINT('',(11.6421440489484,15.0582955651661,65.7910127917431));
#508=CARTESIAN_POINT('',(10.7187742168112,15.7289569336061,65.7910127838252));
#509=CARTESIAN_POINT('',(8.76692623043751,16.8947687592097,65.7910127616658));
#510=CARTESIAN_POINT('',(7.73852207020413,17.3898566343713,65.7910128041106));
#511=CARTESIAN_POINT('',(5.61021228722688,18.1883851863643,65.7910127971717));
#512=CARTESIAN_POINT('',(4.51038540258807,18.4918410432078,65.791012789391));
#513=CARTESIAN_POINT('',(2.27379073971325,18.8976622173362,65.7910128204419));
#514=CARTESIAN_POINT('',(1.13702426473302,18.9999859484621,65.7910127663574));
#515=CARTESIAN_POINT('',(-1.13655460581424,19.0000140486355,65.7910127744959));
#516=CARTESIAN_POINT('',(-2.27328179588546,18.897721940157,65.7910128164871));
#517=CARTESIAN_POINT('',(-4.50983857029069,18.4919728713544,65.7910127786083));
#518=CARTESIAN_POINT('',(-5.60968147903208,18.188548622681,65.7910128141915));
#519=CARTESIAN_POINT('',(-7.73800626712551,17.3900858625136,65.7910128109586));
#520=CARTESIAN_POINT('',(-8.76640765762247,16.8950397527521,65.7910127707564));
#521=CARTESIAN_POINT('',(-10.7183384762198,15.7292559193344,65.7910127687534));
#522=CARTESIAN_POINT('',(-11.6417846958696,15.0585729082669,65.7910128244817));
#523=CARTESIAN_POINT('',(-13.3539185372123,13.5633560952734,65.7910127643513));
#524=CARTESIAN_POINT('',(-14.142687231258,12.7387759012091,65.791012773379));
#525=CARTESIAN_POINT('',(-15.56056455877,10.9617901911482,65.7910127680324));
#526=CARTESIAN_POINT('',(-16.189591919982,10.0094549750866,65.7910127654197));
#527=CARTESIAN_POINT('',(-17.2674960850114,8.00784954657048,65.7910127883206));
#528=CARTESIAN_POINT('',(-17.7163157660595,6.95871396385712,65.7910127310531));
#529=CARTESIAN_POINT('',(-18.4194868721663,4.79729589030655,65.7910128455379));
#530=CARTESIAN_POINT('',(-18.6738962566435,3.68482099563719,65.7910128176194));
#531=CARTESIAN_POINT('',(-18.9800388713433,1.43193279728351,65.7910127523219));
#532=CARTESIAN_POINT('',(-19.0317332555906,0.291662750790393,65.7910128009529));
#533=CARTESIAN_POINT('',(-18.9307701902872,-1.97936299719473,65.7910128164869));
#534=CARTESIAN_POINT('',(-18.7781608907915,-3.11003001271877,65.7910127601264));
#535=CARTESIAN_POINT('',(-18.2735394572553,-5.32629035332657,65.7910128451529));
#536=CARTESIAN_POINT('',(-17.9214759014978,-6.41193767219009,65.7910127714986));
#537=CARTESIAN_POINT('',(-17.029114411737,-8.50302919858821,65.7910127680603));
#538=CARTESIAN_POINT('',(-16.4888884297275,-9.50833315555607,65.7910127747692));
#539=CARTESIAN_POINT('',(-15.2377655306097,-11.40624139142,65.7910127678147));
#540=CARTESIAN_POINT('',(-14.5268595542325,-12.2988710874393,65.7910127736651));
#541=CARTESIAN_POINT('',(-12.957031766172,-13.9429984703533,65.7910127683191));
#542=CARTESIAN_POINT('',(-12.0981606383502,-14.6944252755075,65.7910127731055));
#543=CARTESIAN_POINT('',(-10.2602519115495,-16.031807624874,65.7910127901987));
#544=CARTESIAN_POINT('',(-9.28128532931151,-16.6177397999751,65.7910127835607));
#545=CARTESIAN_POINT('',(-7.74602231540596,-17.3586296017503,65.7910127649099));
#546=CARTESIAN_POINT('',(-7.2232211791957,-17.5826192514743,65.7910126035441));
#547=CARTESIAN_POINT('',(-6.42481086582071,-17.8830271864352,65.7910129488911));
#548=CARTESIAN_POINT('',(-6.15630148766598,-17.9772354407354,65.7910131122544));
#549=CARTESIAN_POINT('',(-5.6149489945566,-18.1536054308078,65.791016394652));
#550=CARTESIAN_POINT('',(-5.34198897701759,-18.2357868537363,65.7909548023488));
#551=CARTESIAN_POINT('',(-5.06808817488136,-18.3115942028986,65.7910463396667));
#552=CARTESIAN_POINT('',(5.06808817488137,-18.3115942028986,64.1006743251806));
#553=CARTESIAN_POINT('',(5.20504019791997,-18.27369007938,64.1007129329485));
#554=CARTESIAN_POINT('',(5.34170060243173,-18.2342116311373,64.1007043731251));
#555=CARTESIAN_POINT('',(5.54603553138066,-18.1726869138398,64.1007041652695));
#556=CARTESIAN_POINT('',(5.61403036103186,-18.1517966522994,64.1007041664898));
#557=CARTESIAN_POINT('',(5.7497685474191,-18.1092578603356,64.1007041358584));
#558=CARTESIAN_POINT('',(5.81751330551733,-18.087608908702,64.1007041268898));
#559=CARTESIAN_POINT('',(6.1555928354204,-17.9774745264446,64.1007041254959));
#560=CARTESIAN_POINT('',(6.4239818852369,-17.8833239973472,64.1007042059791));
#561=CARTESIAN_POINT('',(7.22223161848037,-17.583021704838,64.1007042269156));
#562=CARTESIAN_POINT('',(7.74519790289128,-17.3590005429961,64.1007042130998));
#563=CARTESIAN_POINT('',(9.280746966704,-16.6180533567197,64.1007042154893));
#564=CARTESIAN_POINT('',(10.2598415945021,-16.0320727812205,64.1007042430282));
#565=CARTESIAN_POINT('',(12.0978405914261,-14.694691566381,64.1007042626928));
#566=CARTESIAN_POINT('',(12.9566844962006,-13.9433181149857,64.1007042602975));
#567=CARTESIAN_POINT('',(14.5265044344935,-12.2992870567531,64.1007042601714));
#568=CARTESIAN_POINT('',(15.2374353424703,-11.4066831814972,64.1007042563551));
#569=CARTESIAN_POINT('',(16.488620272686,-9.50879900524683,64.1007042558505));
#570=CARTESIAN_POINT('',(17.0288791682605,-8.50349014585283,64.1007042580123));
#571=CARTESIAN_POINT('',(17.9212461707212,-6.41256626291263,64.1007042587535));
#572=CARTESIAN_POINT('',(18.273340733758,-5.32698769222987,64.1007042443779));
#573=CARTESIAN_POINT('',(18.7780705792889,-3.11060199389629,64.1007042526094));
#574=CARTESIAN_POINT('',(18.9307305384121,-1.9797646190626,64.1007042459627));
#575=CARTESIAN_POINT('',(19.0317405741116,0.291337235131576,64.1007042598408));
#576=CARTESIAN_POINT('',(18.9800701211854,1.4314613166545,64.1007042643764));
#577=CARTESIAN_POINT('',(18.6740113451225,3.68421546444166,64.1007042510813));
#578=CARTESIAN_POINT('',(18.4196320060295,4.79675445623155,64.1007042170775));
#579=CARTESIAN_POINT('',(17.716475561231,6.95831806108555,64.1007042797771));
#580=CARTESIAN_POINT('',(17.2676693374014,8.00747110760112,64.1007042560259));
#581=CARTESIAN_POINT('',(16.1898448610486,10.0090419751382,64.1007042624132));
#582=CARTESIAN_POINT('',(15.5608800191891,10.9613433052553,64.1007042625066));
#583=CARTESIAN_POINT('',(14.1430417046073,12.7383831536424,64.1007042570812));
#584=CARTESIAN_POINT('',(13.3542513369071,13.5630289624298,64.1007042710756));
#585=CARTESIAN_POINT('',(11.6421440421164,15.0582955711332,64.1007042401348));
#586=CARTESIAN_POINT('',(10.7187742219186,15.7289569305531,64.1007042474018));
#587=CARTESIAN_POINT('',(8.76692623554416,16.894768756162,64.1007042676528));
#588=CARTESIAN_POINT('',(7.73852207020394,17.3898566343754,64.1007042288249));
#589=CARTESIAN_POINT('',(5.61021228722708,18.1883851863603,64.1007042351645));
#590=CARTESIAN_POINT('',(4.51038539438697,18.4918410446863,64.1007042422981));
#591=CARTESIAN_POINT('',(2.27379073151295,18.8976622188336,64.100704213865));
#592=CARTESIAN_POINT('',(1.13702426473331,18.9999859484621,64.1007042633798));
#593=CARTESIAN_POINT('',(-1.13655460581453,19.0000140486356,64.1007042559195));
#594=CARTESIAN_POINT('',(-2.27328180588234,18.8977219383459,64.1007042175031));
#595=CARTESIAN_POINT('',(-4.50983858028766,18.4919728695384,64.1007042521491));
#596=CARTESIAN_POINT('',(-5.60968147903136,18.188548622679,64.1007042196051));
#597=CARTESIAN_POINT('',(-7.73800626712624,17.3900858625155,64.1007042225383));
#598=CARTESIAN_POINT('',(-8.76640765762341,16.895039752752,64.1007042593498));
#599=CARTESIAN_POINT('',(-10.7183384762188,15.7292559193344,64.1007042611793));
#600=CARTESIAN_POINT('',(-11.6417847080246,15.0585728976601,64.1007042101658));
#601=CARTESIAN_POINT('',(-13.3539185493628,13.5633560846541,64.1007042652183));
#602=CARTESIAN_POINT('',(-14.1426872312591,12.7387759012075,64.1007042569498));
#603=CARTESIAN_POINT('',(-15.5605645587689,10.9617901911499,64.1007042618389));
#604=CARTESIAN_POINT('',(-16.1895919229002,10.0094549696811,64.1007042642247));
#605=CARTESIAN_POINT('',(-17.2674960879174,8.00784954116083,64.1007042432795));
#606=CARTESIAN_POINT('',(-17.7163157565573,6.9587139930622,64.1007042956879));
#607=CARTESIAN_POINT('',(-18.4194868626647,4.79729591951576,64.1007041909012));
#608=CARTESIAN_POINT('',(-18.6738962589957,3.6848209782811,64.1007042164728));
#609=CARTESIAN_POINT('',(-18.9800388737088,1.43193277992171,64.1007042762026));
#610=CARTESIAN_POINT('',(-19.0317332555902,0.291662750786873,64.1007042317207));
#611=CARTESIAN_POINT('',(-18.9307701902877,-1.97936299719122,64.1007042174799));
#612=CARTESIAN_POINT('',(-18.7781608958499,-3.11002999048283,64.1007042690676));
#613=CARTESIAN_POINT('',(-18.2735394623231,-5.3262903310889,64.1007041912633));
#614=CARTESIAN_POINT('',(-17.9214759015118,-6.4119376721592,64.1007042586491));
#615=CARTESIAN_POINT('',(-17.029114411723,-8.50302919861922,64.100704261835));
#616=CARTESIAN_POINT('',(-16.4888884297295,-9.50833315555613,64.100704255688));
#617=CARTESIAN_POINT('',(-15.2377655306077,-11.4062413914199,64.1007042620274));
#618=CARTESIAN_POINT('',(-14.5268595542312,-12.298871087441,64.1007042566879));
#619=CARTESIAN_POINT('',(-12.9570317661732,-13.9429984703516,64.1007042615765));
#620=CARTESIAN_POINT('',(-12.0981606383519,-14.6944252755164,64.1007042572043));
#621=CARTESIAN_POINT('',(-10.2602519115478,-16.0318076248651,64.1007042415461));
#622=CARTESIAN_POINT('',(-9.28128533532287,-16.6177397970702,64.1007042476237));
#623=CARTESIAN_POINT('',(-7.74602231690757,-17.3586296010276,64.1007042647014));
#624=CARTESIAN_POINT('',(-7.22322123703142,-17.5826192296947,64.1007044123917));
#625=CARTESIAN_POINT('',(-6.42481088029611,-17.883027180998,64.100704096305));
#626=CARTESIAN_POINT('',(-6.15630169739453,-17.977235372394,64.1007039467737));
#627=CARTESIAN_POINT('',(-5.6149492042939,-18.1536053624892,64.1007009424588));
#628=CARTESIAN_POINT('',(-5.34199620675504,-18.2357848527151,64.1007573070862));
#629=CARTESIAN_POINT('',(-5.06808817488136,-18.3115942028986,64.1006735368393));
#630=CARTESIAN_POINT('',(3.71397906638622,-20.214034991419,66.054720121737));
#631=CARTESIAN_POINT('',(4.29059312850951,-20.183537798326,66.0655708911396));
#632=CARTESIAN_POINT('',(4.91529336269947,-20.0818366951561,66.0726334894512));
#633=CARTESIAN_POINT('',(5.48820252853525,-19.9245176097586,66.0727130987372));
#634=CARTESIAN_POINT('',(3.71397906638622,-20.214034991419,66.054720121737));
#635=CARTESIAN_POINT('',(3.71397906638622,-20.214034991419,66.054720121737));
#636=CARTESIAN_POINT('',(3.68103246386121,-18.5,65.8073330362924));
#637=CARTESIAN_POINT('',(3.68103246386121,-18.5,64.0752239749249));
#638=CARTESIAN_POINT('',(3.6810324638612,-18.5,64.0752239749249));
#639=CARTESIAN_POINT('',(5.06808817488136,-18.3115942028986,64.1006743251806));
#640=CARTESIAN_POINT('',(4.95383391353092,-18.3432162814824,64.1006421160612));
#641=CARTESIAN_POINT('',(4.83926876653935,-18.3707165986738,64.1000486456313));
#642=CARTESIAN_POINT('',(4.6101210381814,-18.4176628042472,64.0977391821506));
#643=CARTESIAN_POINT('',(4.46514332274596,-18.4412392871192,64.0954176488526));
#644=CARTESIAN_POINT('',(4.21340738492884,-18.4754479930896,64.0904025065104));
#645=CARTESIAN_POINT('',(3.97988756411777,-18.5,64.0842285199059));
#646=CARTESIAN_POINT('',(3.68103246386121,-18.5,64.0752239749249));
#647=CARTESIAN_POINT('',(3.71397906638622,-20.214034991419,66.054720121737));
#648=CARTESIAN_POINT('',(3.84952763963482,-20.2068658096675,66.0572708855976));
#649=CARTESIAN_POINT('',(3.99339436174595,-20.1955540411437,66.059731065534));
#650=CARTESIAN_POINT('',(4.21966066584293,-20.171223714344,66.0631096141651));
#651=CARTESIAN_POINT('',(4.29698365739276,-20.1618448903694,66.0641835000881));
#652=CARTESIAN_POINT('',(4.4510633524089,-20.1409926564677,66.0661501882441));
#653=CARTESIAN_POINT('',(4.52832695608662,-20.1294636298155,66.0670499299416));
#654=CARTESIAN_POINT('',(4.9156914223146,-20.0661755635184,66.0710895269005));
#655=CARTESIAN_POINT('',(5.21773372209327,-19.998787507668,66.0726755154171));
#656=CARTESIAN_POINT('',(5.48820252853525,-19.9245176097586,66.0727130987372));
#657=CARTESIAN_POINT('',(3.68103246386121,-18.5,65.8073330362924));
#658=CARTESIAN_POINT('',(3.79807635989602,-18.4999999999677,65.8048460695122));
#659=CARTESIAN_POINT('',(3.91526866128506,-18.4960438487401,65.8024980675481));
#660=CARTESIAN_POINT('',(4.09056790126459,-18.484178025912,65.7993126978348));
#661=CARTESIAN_POINT('',(4.14887513712392,-18.4792419107776,65.7983075903879));
#662=CARTESIAN_POINT('',(4.26523088692178,-18.467410182341,65.7965185017715));
#663=CARTESIAN_POINT('',(4.32329219424619,-18.4605156112941,65.7957200277212));
#664=CARTESIAN_POINT('',(4.61245740391461,-18.4212205956229,65.7922001395126));
#665=CARTESIAN_POINT('',(4.84229577536722,-18.3740866201688,65.7911150340259));
#666=CARTESIAN_POINT('',(5.06808817488136,-18.3115942028986,65.7910454782107));
#667=CARTESIAN_POINT('',(3.68103246386121,-18.5,64.0752239749249));
#668=CARTESIAN_POINT('',(3.79825073316371,-18.5,64.0787557773858));
#669=CARTESIAN_POINT('',(3.91542202015582,-18.4960334680953,64.0822045289298));
#670=CARTESIAN_POINT('',(4.09060616561108,-18.4841754358096,64.0869828323376));
#671=CARTESIAN_POINT('',(4.1489081083764,-18.4792385580945,64.0885099246313));
#672=CARTESIAN_POINT('',(4.26526382083981,-18.4674068334036,64.0913088842069));
#673=CARTESIAN_POINT('',(4.32331876974034,-18.4605119999278,64.0925921028975));
#674=CARTESIAN_POINT('',(4.61288163840654,-18.4211629458355,64.0983612621027));
#675=CARTESIAN_POINT('',(4.84229990021946,-18.3740854787624,64.1006106737998));
#676=CARTESIAN_POINT('',(5.06808817488136,-18.3115942028986,64.1006743251806));
#677=CARTESIAN_POINT('',(-3.7137514749109,-20.2140536120499,66.0547167859614));
#678=CARTESIAN_POINT('',(-3.0290605305888,-20.2499685982117,66.0417907989738));
#679=CARTESIAN_POINT('',(-2.45356530890002,-20.2681041375313,66.0353769794932));
#680=CARTESIAN_POINT('',(-1.22755960047121,-20.2979800764071,66.0264969274387));
#681=CARTESIAN_POINT('',(-0.615007138697957,-20.3055556780226,66.0246342781438));
#682=CARTESIAN_POINT('',(0.614804572425173,-20.3055554329517,66.0246336549808));
#683=CARTESIAN_POINT('',(1.22558099098422,-20.2980285978418,66.0264834036784));
#684=CARTESIAN_POINT('',(2.45513878584174,-20.2680654886764,66.0353875691139));
#685=CARTESIAN_POINT('',(3.01955468270741,-20.2507631882228,66.0416523883675));
#686=CARTESIAN_POINT('',(3.71397906638618,-20.214034991419,66.054720121737));
#687=CARTESIAN_POINT('',(-3.7137514749109,-20.2140536120499,66.0547167859614));
#688=CARTESIAN_POINT('',(-3.7137514749109,-20.2140536120499,66.0547167859614));
#689=CARTESIAN_POINT('',(-3.68103246386138,-18.5,65.8073402488022));
#690=CARTESIAN_POINT('',(-3.68103246386138,-18.5,64.0752185816546));
#691=CARTESIAN_POINT('',(-3.6810324638612,-18.5,64.0752185816546));
#692=CARTESIAN_POINT('',(3.68103246386116,-18.5,64.0752239749249));
#693=CARTESIAN_POINT('',(3.44608922969208,-18.5,64.0681451044152));
#694=CARTESIAN_POINT('',(3.03979773213425,-18.5,64.0587751364633));
#695=CARTESIAN_POINT('',(2.5526912651201,-18.5,64.0512776752303));
#696=CARTESIAN_POINT('',(2.2099947383426,-18.5,64.0466954803459));
#697=CARTESIAN_POINT('',(1.98552932385151,-18.5,64.0441752790716));
#698=CARTESIAN_POINT('',(1.25968214665892,-18.5,64.0369861555527));
#699=CARTESIAN_POINT('',(0.645468273030202,-18.5,64.0341098590065));
#700=CARTESIAN_POINT('',(-0.322886061219649,-18.5,64.0341079241258));
#701=CARTESIAN_POINT('',(-0.795032291225773,-18.5,64.0351863017816));
#702=CARTESIAN_POINT('',(-1.24913211555369,-18.5,64.0378836970816));
#703=CARTESIAN_POINT('',(-1.54785501939937,-18.5,64.0400417423136));
#704=CARTESIAN_POINT('',(-1.65361856134656,-18.5,64.0408889367254));
#705=CARTESIAN_POINT('',(-2.58833802804203,-18.5,64.050141553567));
#706=CARTESIAN_POINT('',(-3.20182803110061,-18.5,64.0609679274206));
#707=CARTESIAN_POINT('',(-3.68103246386138,-18.5,64.0752185816546));
#708=CARTESIAN_POINT('',(-3.7137514749109,-20.2140536120499,66.0547167859614));
#709=CARTESIAN_POINT('',(-3.53902497117309,-20.2232187689954,66.0514181991575));
#710=CARTESIAN_POINT('',(-3.37461399577192,-20.2306896130575,66.0486188227049));
#711=CARTESIAN_POINT('',(-3.0672175839011,-20.2436074926236,66.043845187124));
#712=CARTESIAN_POINT('',(-2.91416480475668,-20.2495891984026,66.0417300381039));
#713=CARTESIAN_POINT('',(-2.45404951186767,-20.2662495948546,66.0360490075798));
#714=CARTESIAN_POINT('',(-2.14730598327655,-20.2755667409023,66.033158667475));
#715=CARTESIAN_POINT('',(-1.22707539750375,-20.2979928391029,66.0264935254477));
#716=CARTESIAN_POINT('',(-0.613588340314046,-20.3055547264366,66.0246341844969));
#717=CARTESIAN_POINT('',(0.613385774041262,-20.3055563845376,66.0246337486277));
#718=CARTESIAN_POINT('',(1.22687283122687,-20.297996155094,66.0264926539182));
#719=CARTESIAN_POINT('',(2.14710341700603,-20.2755724873416,66.0331569026351));
#720=CARTESIAN_POINT('',(2.45384694559234,-20.266256142076,66.0360469049637));
#721=CARTESIAN_POINT('',(2.91396223848518,-20.2495969265393,66.0417273379891));
#722=CARTESIAN_POINT('',(3.06713189571098,-20.2436086768218,66.0438438258169));
#723=CARTESIAN_POINT('',(3.3742858006727,-20.2307059565907,66.0486137749892));
#724=CARTESIAN_POINT('',(3.53704674669008,-20.2233929650321,66.0513905952506));
#725=CARTESIAN_POINT('',(3.71397906638618,-20.214034991419,66.054720121737));
#726=CARTESIAN_POINT('',(-3.68103246386138,-18.5,65.8073402488022));
#727=CARTESIAN_POINT('',(-3.52733708043226,-18.5,65.8105257291154));
#728=CARTESIAN_POINT('',(-3.37406151148981,-18.4999999999997,65.8134164292814));
#729=CARTESIAN_POINT('',(-3.0673173794719,-18.5000000000003,65.8184474513422));
#730=CARTESIAN_POINT('',(-2.91397532889514,-18.5,65.8209243395076));
#731=CARTESIAN_POINT('',(-2.45328878903045,-18.5,65.8281527754771));
#732=CARTESIAN_POINT('',(-2.14678969905695,-18.5,65.8326261279502));
#733=CARTESIAN_POINT('',(-1.22499978012719,-18.5,65.8438843443536));
#734=CARTESIAN_POINT('',(-0.613588224430016,-18.5,65.8482578381081));
#735=CARTESIAN_POINT('',(0.613385889929566,-18.5,65.8482587586419));
#736=CARTESIAN_POINT('',(1.22479743492231,-18.4999999999989,65.8438861794627));
#737=CARTESIAN_POINT('',(2.14658718749695,-18.5000000000005,65.8326289176582));
#738=CARTESIAN_POINT('',(2.45308627431901,-18.5,65.8281558110683));
#739=CARTESIAN_POINT('',(2.91377277541891,-18.5,65.8209275883452));
#740=CARTESIAN_POINT('',(3.06711503964032,-18.5,65.81844702787));
#741=CARTESIAN_POINT('',(3.37385923137818,-18.5,65.8134237278914));
#742=CARTESIAN_POINT('',(3.52716074522802,-18.5,65.8106025273617));
#743=CARTESIAN_POINT('',(3.68103246386116,-18.5,65.8073330362924));
#744=CARTESIAN_POINT('',(-3.68103246386138,-18.5,64.0752185816546));
#745=CARTESIAN_POINT('',(-3.52763195778854,-18.5,64.0706567340966));
#746=CARTESIAN_POINT('',(-3.37428008680608,-18.5,64.0668230799136));
#747=CARTESIAN_POINT('',(-3.06753657956624,-18.5,64.060336847384));
#748=CARTESIAN_POINT('',(-2.91416480475508,-18.5,64.0574604645715));
#749=CARTESIAN_POINT('',(-2.45404951187098,-18.5,64.0497242632897));
#750=CARTESIAN_POINT('',(-2.14730598327977,-18.5,64.0457769078854));
#751=CARTESIAN_POINT('',(-1.22707539749741,-18.5,64.0366645645102));
#752=CARTESIAN_POINT('',(-0.613588340319451,-18.5,64.0341088680028));
#753=CARTESIAN_POINT('',(0.61338577404672,-18.5,64.0341082701693));
#754=CARTESIAN_POINT('',(1.22687283122994,-18.5,64.0366633686935));
#755=CARTESIAN_POINT('',(2.14710341700452,-18.5,64.045774497205));
#756=CARTESIAN_POINT('',(2.45384694559593,-18.5,64.0497213947044));
#757=CARTESIAN_POINT('',(2.91396223848342,-18.5,64.0574567903234));
#758=CARTESIAN_POINT('',(3.06733398306069,-18.5,64.060335357991));
#759=CARTESIAN_POINT('',(3.37407755148165,-18.5,64.0668158365759));
#760=CARTESIAN_POINT('',(3.5274606290367,-18.5,64.0705968353671));
#761=CARTESIAN_POINT('',(3.68103246386116,-18.5,64.0752239749249));
#762=CARTESIAN_POINT('',(-5.48788216436334,-19.9246029812994,66.0727126311095));
#763=CARTESIAN_POINT('',(-4.91676411487694,-20.081382602703,66.0726271159867));
#764=CARTESIAN_POINT('',(-4.28827871043108,-20.1839171868841,66.0655630395541));
#765=CARTESIAN_POINT('',(-3.71375147491092,-20.2140536120499,66.0547167859614));
#766=CARTESIAN_POINT('',(-3.68103246386139,-18.5,64.0752185816546));
#767=CARTESIAN_POINT('',(-3.83614841044442,-18.5,64.0798314440604));
#768=CARTESIAN_POINT('',(-3.97217503244255,-18.4931626019805,64.0836837105518));
#769=CARTESIAN_POINT('',(-4.20556331080757,-18.4748013678257,64.0898670517059));
#770=CARTESIAN_POINT('',(-4.26827302681976,-18.4679921448948,64.0915023068237));
#771=CARTESIAN_POINT('',(-4.60713605985957,-18.421943896939,64.0983012017033));
#772=CARTESIAN_POINT('',(-4.83694545322317,-18.375567425621,64.1006028456108));
#773=CARTESIAN_POINT('',(-5.06808817488137,-18.3115942028986,64.1006735368393));
#774=CARTESIAN_POINT('',(-5.48788216436334,-19.9246029812994,66.0727126311095));
#775=CARTESIAN_POINT('',(-5.21365639821873,-19.9998816593834,66.072671570509));
#776=CARTESIAN_POINT('',(-4.91976303327458,-20.0654165374247,66.071121247798));
#777=CARTESIAN_POINT('',(-4.52920363183304,-20.1293263938102,66.0670589938238));
#778=CARTESIAN_POINT('',(-4.45025397248662,-20.141132617438,66.0661429084097));
#779=CARTESIAN_POINT('',(-4.29290091800494,-20.1624163767848,66.0641361013869));
#780=CARTESIAN_POINT('',(-4.21423866522585,-20.1719180253522,66.0630416676679));
#781=CARTESIAN_POINT('',(-3.98652773436338,-20.1962775988897,66.0596346873937));
#782=CARTESIAN_POINT('',(-3.84646587728775,-20.2070921706971,66.0572222443185));
#783=CARTESIAN_POINT('',(-3.71375147491092,-20.2140536120499,66.0547167859614));
#784=CARTESIAN_POINT('',(-5.06808817488137,-18.3115942028985,65.7910463396667));
#785=CARTESIAN_POINT('',(-4.84219233470968,-18.3741152493441,65.7911218337893));
#786=CARTESIAN_POINT('',(-4.61237517618977,-18.4212319511496,65.792139073114));
#787=CARTESIAN_POINT('',(-4.32330665880489,-18.4605136002054,65.7957027160299));
#788=CARTESIAN_POINT('',(-4.2652605349834,-18.4674067541814,65.7965328541793));
#789=CARTESIAN_POINT('',(-4.14891619057961,-18.4792381498208,65.7984016934806));
#790=CARTESIAN_POINT('',(-4.09060108311724,-18.4841756539321,65.7994486657343));
#791=CARTESIAN_POINT('',(-3.91523255951089,-18.4960465447678,65.8026947693128));
#792=CARTESIAN_POINT('',(-3.79798267034841,-18.5000000000051,65.8049163473581));
#793=CARTESIAN_POINT('',(-3.68103246386139,-18.5,65.8073402488022));
#794=CARTESIAN_POINT('',(-5.06808817488137,-18.3115942028986,64.1006735368393));
#795=CARTESIAN_POINT('',(-4.84220180155608,-18.3741126294665,64.1006044531791));
#796=CARTESIAN_POINT('',(-4.61280301365341,-18.4211738120728,64.0984145645492));
#797=CARTESIAN_POINT('',(-4.3233334605446,-18.4605099581187,64.0926071152588));
#798=CARTESIAN_POINT('',(-4.26529451328564,-18.467403298792,64.0912966079468));
#799=CARTESIAN_POINT('',(-4.14895020862897,-18.479234690463,64.0884313987858));
#800=CARTESIAN_POINT('',(-4.090639872736,-18.4841730281817,64.0868707412471));
#801=CARTESIAN_POINT('',(-3.91538802769699,-18.4960360210287,64.0820470613832));
#802=CARTESIAN_POINT('',(-3.79815216637383,-18.5,64.0787015057807));
#803=CARTESIAN_POINT('',(-3.68103246386139,-18.5,64.0752185816546));
#804=CARTESIAN_POINT('',(0.,0.,114.41340186484));
#805=CARTESIAN_POINT('',(25.,0.,114.41340186484));
#806=CARTESIAN_POINT('',(0.,0.,127.445935140852));
#807=CARTESIAN_POINT('',(-20.8949254109542,0.,127.445935140852));
#808=CARTESIAN_POINT('',(0.,0.,120.));
#809=CARTESIAN_POINT('',(0.,0.,61.9281014161458));
#810=CARTESIAN_POINT('',(15.,0.,61.9281014161458));
#811=CARTESIAN_POINT('',(0.,0.,13.8440255903927));
#812=CARTESIAN_POINT('',(15.,0.,13.8440255903927));
#813=CARTESIAN_POINT('',(0.,0.,120.));
#814=CARTESIAN_POINT('',(0.,0.,71.2));
#815=CARTESIAN_POINT('',(25.,0.,71.2));
#816=CARTESIAN_POINT('',(0.,0.,120.));
#817=CARTESIAN_POINT('',(0.,0.,72.9505694715308));
#818=CARTESIAN_POINT('',(-20.8949254109542,0.,72.9505694715308));
#819=CARTESIAN_POINT('',(0.,0.,131.));
#820=CARTESIAN_POINT('',(0.,0.,68.2348210882081));
#821=CARTESIAN_POINT('',(21.5956129793799,0.,68.2348210882081));
#822=CARTESIAN_POINT('',(0.,0.,70.481959757586));
#823=CARTESIAN_POINT('',(-3.68103246384532,-18.5,24.5499143655493));
#824=CARTESIAN_POINT('',(-5.1584945930013,-18.5,24.7810095203747));
#825=CARTESIAN_POINT('',(-6.64222223757549,-18.5,25.0721369287205));
#826=CARTESIAN_POINT('',(-9.61430102838588,-18.5,24.8969824839486));
#827=CARTESIAN_POINT('',(-11.0697172629182,-18.5,24.3146751492323));
#828=CARTESIAN_POINT('',(-13.3030051247953,-18.5,22.3426078371713));
#829=CARTESIAN_POINT('',(-14.1211115753804,-18.5,21.0684726286014));
#830=CARTESIAN_POINT('',(-15.4398350499598,-18.5,18.4012846511617));
#831=CARTESIAN_POINT('',(-15.932033814236,-18.5,17.0169976725406));
#832=CARTESIAN_POINT('',(-17.1572858964394,-18.5,12.7879153743669));
#833=CARTESIAN_POINT('',(-17.6365579656476,-18.5,9.84857035413081));
#834=CARTESIAN_POINT('',(-18.2173713697444,-18.5,4.01104471109792));
#835=CARTESIAN_POINT('',(-18.3136300894961,-18.5,1.09049349073376));
#836=CARTESIAN_POINT('',(-18.1668694035776,-18.5,-4.75373421867554));
#837=CARTESIAN_POINT('',(-17.9247776087714,-18.5,-7.68956032633362));
#838=CARTESIAN_POINT('',(-16.9710838674246,-18.5,-13.5125345602306));
#839=CARTESIAN_POINT('',(-16.3026778845971,-18.5,-16.368101891654));
#840=CARTESIAN_POINT('',(-14.4910930341012,-18.5,-20.4152972865503));
#841=CARTESIAN_POINT('',(-13.7429224890387,-18.5,-21.7305278932676));
#842=CARTESIAN_POINT('',(-11.6869703058828,-18.5,-23.9032637205628));
#843=CARTESIAN_POINT('',(-10.3278388566352,-18.5,-24.681374742896));
#844=CARTESIAN_POINT('',(-7.37219675197739,-18.5,-25.1363779557386));
#845=CARTESIAN_POINT('',(-5.88712392967397,-18.5,-24.9014527386378));
#846=CARTESIAN_POINT('',(-2.96502574548428,-18.5,-24.4354039692036));
#847=CARTESIAN_POINT('',(-1.50119132827047,-18.5,-24.2113044067757));
#848=CARTESIAN_POINT('',(1.48000116256395,-18.5,-24.209472747528));
#849=CARTESIAN_POINT('',(2.96368717072147,-18.5,-24.4352876199998));
#850=CARTESIAN_POINT('',(5.91383724064525,-18.5,-24.9056153030491));
#851=CARTESIAN_POINT('',(7.40217537243104,-18.5,-25.1391771344671));
#852=CARTESIAN_POINT('',(10.367385333106,-18.5,-24.6676969605039));
#853=CARTESIAN_POINT('',(11.7073593003616,-18.5,-23.8883054170836));
#854=CARTESIAN_POINT('',(13.7595305445077,-18.5,-21.706267837663));
#855=CARTESIAN_POINT('',(14.498967117081,-18.5,-20.4011323824168));
#856=CARTESIAN_POINT('',(16.3108671261534,-18.5,-16.3428857011563));
#857=CARTESIAN_POINT('',(16.9785905275255,-18.5,-13.4803005693211));
#858=CARTESIAN_POINT('',(17.9300679055582,-18.5,-7.64347605239238));
#859=CARTESIAN_POINT('',(18.169038091808,-18.5,-4.71894739343127));
#860=CARTESIAN_POINT('',(18.3130704427502,-18.5,1.12035527643267));
#861=CARTESIAN_POINT('',(18.2158123517292,-18.5,4.03887890389829));
#862=CARTESIAN_POINT('',(17.6328722775104,-18.5,9.87333847357531));
#863=CARTESIAN_POINT('',(17.1526116159554,-18.5,12.8139332832494));
#864=CARTESIAN_POINT('',(15.9210725354352,-18.5,17.0498089996691));
#865=CARTESIAN_POINT('',(15.4241653932594,-18.5,18.4407681640248));
#866=CARTESIAN_POINT('',(14.0989965045125,-18.5,21.1051851113969));
#867=CARTESIAN_POINT('',(13.2726321894282,-18.5,22.3780341585162));
#868=CARTESIAN_POINT('',(11.0492840399999,-18.5,24.3239132288199));
#869=CARTESIAN_POINT('',(9.58554986015574,-18.5,24.9016080034238));
#870=CARTESIAN_POINT('',(6.63718031564279,-18.5,25.0694691304606));
#871=CARTESIAN_POINT('',(5.15254883345864,-18.5,24.7800795227832));
#872=CARTESIAN_POINT('',(3.6810324638612,-18.5,24.5499143655518));
#873=CARTESIAN_POINT('',(-3.68103246384532,-18.5,24.5499143655493));
#874=CARTESIAN_POINT('',(3.6810324638612,-18.5,24.5499143655518));
#875=CARTESIAN_POINT('',(-3.68103246384532,-18.5,24.5499143655493));
#876=CARTESIAN_POINT('',(-4.14327598781896,-18.5,24.6222155343116));
#877=CARTESIAN_POINT('',(-4.61717596275505,-18.4363928864466,24.6531060330447));
#878=CARTESIAN_POINT('',(-5.06808817488137,-18.3115942028986,24.6531060330447));
#879=CARTESIAN_POINT('',(-5.06808817488137,-18.3115942028986,24.6531060330447));
#880=CARTESIAN_POINT('',(0.,0.,24.6531060330447));
#881=CARTESIAN_POINT('',(5.06808817488137,-18.3115942028986,24.6531060330447));
#882=CARTESIAN_POINT('',(5.06808817488137,-18.3115942028986,24.6531060330447));
#883=CARTESIAN_POINT('',(4.61717596276016,-18.4363928864451,24.6531060330447));
#884=CARTESIAN_POINT('',(4.14327598782963,-18.5,24.6222155343132));
#885=CARTESIAN_POINT('',(3.6810324638612,-18.5,24.5499143655518));
#886=CARTESIAN_POINT('',(0.,19.9960538662095,0.));
#887=CARTESIAN_POINT('',(0.,0.,0.));
#888=CARTESIAN_POINT('',(3.6810324638612,-18.5,66.));
#889=CARTESIAN_POINT('',(-3.6810324638612,-18.5,24.6531060330487));
#890=CARTESIAN_POINT('',(0.,-18.5,42.25));
#891=CARTESIAN_POINT('',(-5.06808817488137,-18.3115942028986,120.));
#892=CARTESIAN_POINT('',(5.06808817488137,-18.3115942028986,120.));
#893=CARTESIAN_POINT('',(0.,0.,120.));
#894=CARTESIAN_POINT('',(3.6810324638612,-13.3,120.));
#895=CARTESIAN_POINT('',(0.,0.,71.2));
#896=CARTESIAN_POINT('',(-3.6810324638612,-13.3,120.));
#897=CARTESIAN_POINT('',(0.,0.,63.1154089109627));
#898=CARTESIAN_POINT('',(-15.0470638029599,0.,63.1154089109627));
#899=CARTESIAN_POINT('',(0.,0.,61.9281014161458));
#900=CARTESIAN_POINT('',(0.,0.,65.8887886545548));
#901=CARTESIAN_POINT('',(-18.1208235567795,0.,65.8887886545548));
#902=CARTESIAN_POINT('',(0.,0.,67.9826451885569));
#903=CARTESIAN_POINT('',(0.,0.,54.7519890719396));
#904=MECHANICAL_DESIGN_GEOMETRIC_PRESENTATION_REPRESENTATION('',(#24),#905);
#905=(
GEOMETRIC_REPRESENTATION_CONTEXT(3)
GLOBAL_UNCERTAINTY_ASSIGNED_CONTEXT((#906))
GLOBAL_UNIT_ASSIGNED_CONTEXT((#912,#908,#907))
REPRESENTATION_CONTEXT('parabolicflight_vagina',
'TOP_LEVEL_ASSEMBLY_PART')
);
#906=UNCERTAINTY_MEASURE_WITH_UNIT(LENGTH_MEASURE(0.0508),#912,
'DISTANCE_ACCURACY_VALUE','Maximum Tolerance applied to model');
#907=(
NAMED_UNIT(*)
SI_UNIT($,.STERADIAN.)
SOLID_ANGLE_UNIT()
);
#908=(
CONVERSION_BASED_UNIT('DEGREE',#910)
NAMED_UNIT(#909)
PLANE_ANGLE_UNIT()
);
#909=DIMENSIONAL_EXPONENTS(0.,0.,0.,0.,0.,0.,0.);
#910=PLANE_ANGLE_MEASURE_WITH_UNIT(PLANE_ANGLE_MEASURE(0.0174532925),#911);
#911=(
NAMED_UNIT(*)
PLANE_ANGLE_UNIT()
SI_UNIT($,.RADIAN.)
);
#912=(
LENGTH_UNIT()
NAMED_UNIT(*)
SI_UNIT(.MILLI.,.METRE.)
);
ENDSEC;
END-ISO-10303-21;
