ISO-10303-21;
HEADER;
/* Generated by software containing ST-Developer
 * from STEP Tools, Inc. (www.steptools.com) 
 */
/* OPTION: using custom schema-name function */

FILE_DESCRIPTION(
/* description */ (''),
/* implementation_level */ '2;1');

FILE_NAME(
/* name */ 'flower_stopper_mold_m.stp',
/* time_stamp */ '2026-09-08T16:14:08+02:00',
/* author */ (''),
/* organization */ (''),
/* preprocessor_version */ 'ST-DEVELOPER v20',
/* originating_system */ 'SIEMENS PLM Software NX2406.3002',
/* authorisation */ '');

FILE_SCHEMA (('AUTOMOTIVE_DESIGN { 1 0 10303 214 3 1 1 1 }'));
ENDSEC;

DATA;
#10=SHAPE_REPRESENTATION_RELATIONSHIP('None',
'relationship between flower_stopper_mold_m-None and flower_stopper_mo
ld_m-None',#22,#11);
#11=ADVANCED_BREP_SHAPE_REPRESENTATION('flower_stopper_mold_m-None',(#39,
#40),#1547);
#12=SHAPE_DEFINITION_REPRESENTATION(#13,#22);
#13=PRODUCT_DEFINITION_SHAPE('','',#14);
#14=PRODUCT_DEFINITION(' ','',#16,#15);
#15=PRODUCT_DEFINITION_CONTEXT('part definition',#21,'design');
#16=PRODUCT_DEFINITION_FORMATION_WITH_SPECIFIED_SOURCE(' ',' ',#18,
 .NOT_KNOWN.);
#17=PRODUCT_RELATED_PRODUCT_CATEGORY('part','',(#18));
#18=PRODUCT('flower_stopper_mold_m','flower_stopper_mold_m',' ',(#19));
#19=PRODUCT_CONTEXT(' ',#21,'mechanical');
#20=APPLICATION_PROTOCOL_DEFINITION('international standard',
'automotive_design',2010,#21);
#21=APPLICATION_CONTEXT(
'core data for automotive mechanical design processes');
#22=SHAPE_REPRESENTATION('flower_stopper_mold_m-None',(#607),#1547);
#23=PRESENTATION_LAYER_ASSIGNMENT('1','Layer 1',(#39,#40));
#24=STYLED_ITEM('',(#26),#39);
#25=STYLED_ITEM('',(#27),#40);
#26=PRESENTATION_STYLE_ASSIGNMENT((#28));
#27=PRESENTATION_STYLE_ASSIGNMENT((#29));
#28=SURFACE_STYLE_USAGE(.BOTH.,#30);
#29=SURFACE_STYLE_USAGE(.BOTH.,#31);
#30=SURFACE_SIDE_STYLE('',(#32));
#31=SURFACE_SIDE_STYLE('',(#33));
#32=SURFACE_STYLE_FILL_AREA(#34);
#33=SURFACE_STYLE_FILL_AREA(#35);
#34=FILL_AREA_STYLE('',(#36));
#35=FILL_AREA_STYLE('',(#37));
#36=FILL_AREA_STYLE_COLOUR('',#38);
#37=FILL_AREA_STYLE_COLOUR('',#38);
#38=COLOUR_RGB('medium steel',0.596078431372549,0.666666666666667,0.686274509803922);
#39=MANIFOLD_SOLID_BREP('',#41);
#40=MANIFOLD_SOLID_BREP('',#42);
#41=CLOSED_SHELL('',(#91,#92,#93,#94,#95,#96,#97,#98,#99,#100,#101,#102,
#103,#104,#105,#106,#107,#108,#109,#110));
#42=CLOSED_SHELL('',(#111,#112,#113,#114,#115,#116,#117,#118,#119,#120,
#121,#122,#123,#124,#125,#126,#127,#128,#129,#130));
#43=SPHERICAL_SURFACE('',#638,1.5);
#44=SPHERICAL_SURFACE('',#639,1.5);
#45=SPHERICAL_SURFACE('',#670,1.5);
#46=SPHERICAL_SURFACE('',#671,1.5);
#47=(
BOUNDED_SURFACE()
B_SPLINE_SURFACE(3,3,((#995,#996,#997,#998,#999,#1000,#1001),(#1002,#1003,
#1004,#1005,#1006,#1007,#1008),(#1009,#1010,#1011,#1012,#1013,#1014,#1015),
(#1016,#1017,#1018,#1019,#1020,#1021,#1022)),.UNSPECIFIED.,.F.,.T.,.F.)
B_SPLINE_SURFACE_WITH_KNOTS((4,4),(1,3,3,3,1),(0.,1.),(-0.5,0.,0.5,1.,1.5),
 .UNSPECIFIED.)
GEOMETRIC_REPRESENTATION_ITEM()
RATIONAL_B_SPLINE_SURFACE(((1.,0.333333333333333,0.333333333333333,1.,0.333333333333333,
0.333333333333333,1.),(0.989388474519083,0.329796158173028,0.329796158173028,
0.989388474519083,0.329796158173028,0.329796158173028,0.989388474519083),
(0.989388474519083,0.329796158173028,0.329796158173028,0.989388474519083,
0.329796158173028,0.329796158173028,0.989388474519083),(1.,0.333333333333333,
0.333333333333333,1.,0.333333333333333,0.333333333333333,1.)))
REPRESENTATION_ITEM('')
SURFACE()
);
#48=(
BOUNDED_SURFACE()
B_SPLINE_SURFACE(3,3,((#1153,#1154,#1155,#1156,#1157,#1158,#1159),(#1160,
#1161,#1162,#1163,#1164,#1165,#1166),(#1167,#1168,#1169,#1170,#1171,#1172,
#1173),(#1174,#1175,#1176,#1177,#1178,#1179,#1180)),.UNSPECIFIED.,.F.,.T.,
 .F.)
B_SPLINE_SURFACE_WITH_KNOTS((4,4),(1,3,3,3,1),(0.,1.),(-0.5,0.,0.5,1.,1.5),
 .UNSPECIFIED.)
GEOMETRIC_REPRESENTATION_ITEM()
RATIONAL_B_SPLINE_SURFACE(((1.,0.333333333333333,0.333333333333333,1.,0.333333333333333,
0.333333333333333,1.),(0.989021469938512,0.329673823312837,0.329673823312837,
0.989021469938512,0.329673823312837,0.329673823312837,0.989021469938512),
(0.989021469938512,0.329673823312837,0.329673823312837,0.989021469938512,
0.329673823312837,0.329673823312837,0.989021469938512),(1.,0.333333333333333,
0.333333333333333,1.,0.333333333333333,0.333333333333333,1.)))
REPRESENTATION_ITEM('')
SURFACE()
);
#49=(
BOUNDED_SURFACE()
B_SPLINE_SURFACE(3,3,((#1355,#1356,#1357,#1358,#1359,#1360,#1361),(#1362,
#1363,#1364,#1365,#1366,#1367,#1368),(#1369,#1370,#1371,#1372,#1373,#1374,
#1375),(#1376,#1377,#1378,#1379,#1380,#1381,#1382)),.UNSPECIFIED.,.F.,.T.,
 .F.)
B_SPLINE_SURFACE_WITH_KNOTS((4,4),(1,3,3,3,1),(0.,1.),(-0.5,0.,0.5,1.,1.5),
 .UNSPECIFIED.)
GEOMETRIC_REPRESENTATION_ITEM()
RATIONAL_B_SPLINE_SURFACE(((1.,0.333333333333333,0.333333333333333,1.,0.333333333333333,
0.333333333333333,1.),(0.989388474519083,0.329796158173028,0.329796158173028,
0.989388474519083,0.329796158173028,0.329796158173028,0.989388474519083),
(0.989388474519083,0.329796158173028,0.329796158173028,0.989388474519083,
0.329796158173028,0.329796158173028,0.989388474519083),(1.,0.333333333333333,
0.333333333333333,1.,0.333333333333333,0.333333333333333,1.)))
REPRESENTATION_ITEM('')
SURFACE()
);
#50=(
BOUNDED_SURFACE()
B_SPLINE_SURFACE(3,3,((#1510,#1511,#1512,#1513,#1514,#1515,#1516),(#1517,
#1518,#1519,#1520,#1521,#1522,#1523),(#1524,#1525,#1526,#1527,#1528,#1529,
#1530),(#1531,#1532,#1533,#1534,#1535,#1536,#1537)),.UNSPECIFIED.,.F.,.T.,
 .F.)
B_SPLINE_SURFACE_WITH_KNOTS((4,4),(1,3,3,3,1),(0.,1.),(-0.5,0.,0.5,1.,1.5),
 .UNSPECIFIED.)
GEOMETRIC_REPRESENTATION_ITEM()
RATIONAL_B_SPLINE_SURFACE(((1.,0.333333333333333,0.333333333333333,1.,0.333333333333333,
0.333333333333333,1.),(0.989021469938512,0.329673823312837,0.329673823312837,
0.989021469938512,0.329673823312837,0.329673823312837,0.989021469938512),
(0.989021469938512,0.329673823312837,0.329673823312837,0.989021469938512,
0.329673823312837,0.329673823312837,0.989021469938512),(1.,0.333333333333333,
0.333333333333333,1.,0.333333333333333,0.333333333333333,1.)))
REPRESENTATION_ITEM('')
SURFACE()
);
#51=B_SPLINE_CURVE_WITH_KNOTS('',3,(#877,#878,#879,#880,#881,#882,#883,
#884,#885,#886,#887,#888,#889,#890,#891,#892,#893,#894,#895,#896,#897,#898,
#899,#900,#901,#902,#903,#904,#905,#906,#907,#908,#909,#910,#911,#912,#913,
#914,#915,#916,#917,#918,#919,#920,#921,#922,#923,#924,#925,#926,#927,#928,
#929,#930,#931,#932,#933,#934),.UNSPECIFIED.,.T.,.F.,(1,3,3,3,3,3,3,3,3,
3,3,3,3,3,3,3,3,3,3,3,3,1),(-0.0688221224702348,0.,0.0486496472869178,0.0977243108187483,
0.141401411830084,0.18193435084118,0.224550021182926,0.27307500432189,0.329991471770977,
0.395320885141117,0.464724509742454,0.519318529655288,0.574424256115433,
0.621793226731336,0.664139891226855,0.706298067248808,0.75199515514,0.804028264572655,
0.864043236568137,0.931177877529765,1.,1.04864964728692),.UNSPECIFIED.);
#52=B_SPLINE_CURVE_WITH_KNOTS('',3,(#936,#937,#938,#939,#940,#941,#942,
#943,#944,#945,#946,#947,#948,#949,#950,#951,#952,#953,#954,#955,#956,#957,
#958,#959,#960,#961,#962,#963,#964,#965,#966,#967,#968,#969,#970,#971,#972,
#973,#974,#975,#976,#977,#978,#979,#980,#981,#982,#983,#984,#985,#986,#987,
#988,#989,#990,#991,#992,#993),.UNSPECIFIED.,.T.,.F.,(1,3,3,3,3,3,3,3,3,
3,3,3,3,3,3,3,3,3,3,3,3,1),(-0.0330125295270542,0.,0.0600034220776401,0.119620483699178,
0.186560542935791,0.255424037152574,0.3071807357912,0.359370999133093,0.404996799767085,
0.447084765089629,0.490083160345638,0.537398893278815,0.591548013748359,
0.653638146955354,0.72177928574389,0.789562303957114,0.836646462009227,
0.884094682671292,0.9261917462361,0.966987470472946,1.,1.06000342207764),
 .UNSPECIFIED.);
#53=B_SPLINE_CURVE_WITH_KNOTS('',3,(#1032,#1033,#1034,#1035,#1036,#1037,
#1038,#1039,#1040,#1041,#1042,#1043,#1044,#1045,#1046,#1047,#1048,#1049,
#1050,#1051,#1052,#1053,#1054,#1055,#1056,#1057,#1058,#1059,#1060,#1061,
#1062,#1063,#1064,#1065,#1066,#1067,#1068,#1069,#1070,#1071,#1072,#1073,
#1074,#1075,#1076,#1077,#1078,#1079,#1080,#1081,#1082,#1083,#1084,#1085,
#1086,#1087,#1088,#1089,#1090,#1091,#1092),.UNSPECIFIED.,.T.,.F.,(1,3,3,
3,3,3,3,3,3,3,3,3,3,3,3,3,3,3,3,3,3,3,1),(-0.00992508476894916,0.,0.0430926736849942,
0.0863919181421287,0.127432292859532,0.169217228945549,0.215860373439961,
0.270230740485332,0.333214802007214,0.401891425532972,0.469014109630901,
0.517007872472057,0.56531842750325,0.608790095506272,0.650780288275277,
0.695243852576347,0.745201297649283,0.802696516999802,0.86780382079769,
0.936792216361797,0.990074915231051,1.,1.04309267368499),.UNSPECIFIED.);
#54=B_SPLINE_CURVE_WITH_KNOTS('',3,(#1094,#1095,#1096,#1097,#1098,#1099,
#1100,#1101,#1102,#1103,#1104,#1105,#1106,#1107,#1108,#1109,#1110,#1111,
#1112,#1113,#1114,#1115,#1116,#1117,#1118,#1119,#1120,#1121,#1122,#1123,
#1124,#1125,#1126,#1127,#1128,#1129,#1130,#1131,#1132,#1133,#1134,#1135,
#1136,#1137,#1138,#1139,#1140,#1141,#1142,#1143,#1144,#1145,#1146,#1147,
#1148,#1149,#1150,#1151),.UNSPECIFIED.,.T.,.F.,(1,3,3,3,3,3,3,3,3,3,3,3,
3,3,3,3,3,3,3,3,3,1),(-0.0374716753364172,0.,0.0545736333782325,0.108694074841106,
0.171185045248064,0.240448994239169,0.309108239817817,0.357636476208143,
0.406529393835942,0.449949836797652,0.491292935026976,0.534802714936076,
0.583713782985091,0.640346635356214,0.705216409293113,0.775063818317905,
0.829651422205365,0.875417170539457,0.921524825226429,0.962528324663583,
1.,1.05457363337823),.UNSPECIFIED.);
#55=B_SPLINE_CURVE_WITH_KNOTS('',3,(#1235,#1236,#1237,#1238,#1239,#1240,
#1241,#1242,#1243,#1244,#1245,#1246,#1247,#1248,#1249,#1250,#1251,#1252,
#1253,#1254,#1255,#1256,#1257,#1258,#1259,#1260,#1261,#1262,#1263,#1264,
#1265,#1266,#1267,#1268,#1269,#1270,#1271,#1272,#1273,#1274,#1275,#1276,
#1277,#1278,#1279,#1280,#1281,#1282,#1283,#1284,#1285,#1286,#1287,#1288,
#1289,#1290,#1291,#1292),.UNSPECIFIED.,.T.,.F.,(1,3,3,3,3,3,3,3,3,3,3,3,
3,3,3,3,3,3,3,3,3,1),(-0.0435159595890463,0.,0.0745452223369636,0.143726035565688,
0.209968879752794,0.256471332486949,0.303243201562505,0.345889444950976,
0.387898125752269,0.433070067096989,0.484304923156471,0.543431219332843,
0.609978133652837,0.679261589781589,0.730214956663477,0.781675096927714,
0.825757428233336,0.866208562027701,0.908486765187574,0.956484040410954,
1.,1.07454522233696),.UNSPECIFIED.);
#56=B_SPLINE_CURVE_WITH_KNOTS('',3,(#1294,#1295,#1296,#1297,#1298,#1299,
#1300,#1301,#1302,#1303,#1304,#1305,#1306,#1307,#1308,#1309,#1310,#1311,
#1312,#1313,#1314,#1315,#1316,#1317,#1318,#1319,#1320,#1321,#1322,#1323,
#1324,#1325,#1326,#1327,#1328,#1329,#1330,#1331,#1332,#1333,#1334,#1335,
#1336,#1337,#1338,#1339,#1340,#1341,#1342,#1343,#1344,#1345,#1346,#1347,
#1348,#1349,#1350,#1351),.UNSPECIFIED.,.T.,.F.,(1,3,3,3,3,3,3,3,3,3,3,3,
3,3,3,3,3,3,3,3,3,1),(-0.0406772992298087,0.,0.0574218256396469,0.114456235293676,
0.178758052099318,0.247757354638044,0.302563590280292,0.348888833172577,
0.395541660027359,0.43724499645148,0.47833363531808,0.523341642793492,0.575472228917529,
0.636269644158586,0.703962359706851,0.772231713392395,0.822332711506398,
0.872821723712973,0.917426153019203,0.959322700770191,1.,1.05742182563965),
 .UNSPECIFIED.);
#57=B_SPLINE_CURVE_WITH_KNOTS('',3,(#1390,#1391,#1392,#1393,#1394,#1395,
#1396,#1397,#1398,#1399,#1400,#1401,#1402,#1403,#1404,#1405,#1406,#1407,
#1408,#1409,#1410,#1411,#1412,#1413,#1414,#1415,#1416,#1417,#1418,#1419,
#1420,#1421,#1422,#1423,#1424,#1425,#1426,#1427,#1428,#1429,#1430,#1431,
#1432,#1433,#1434,#1435,#1436,#1437,#1438,#1439,#1440,#1441,#1442,#1443,
#1444,#1445,#1446,#1447),.UNSPECIFIED.,.T.,.F.,(1,3,3,3,3,3,3,3,3,3,3,3,
3,3,3,3,3,3,3,3,3,1),(-0.0687140395860608,0.,0.0513920405865626,0.103197926702879,
0.14941752304343,0.191693558780758,0.234484864345799,0.281296130241797,
0.334737626992907,0.396111839621042,0.463914703782404,0.532182877505825,
0.580262499709242,0.628741561960537,0.671361968882516,0.712104485922821,
0.755854532941174,0.806096236716316,0.864853077148741,0.931285960413939,
1.,1.05139204058656),.UNSPECIFIED.);
#58=B_SPLINE_CURVE_WITH_KNOTS('',3,(#1449,#1450,#1451,#1452,#1453,#1454,
#1455,#1456,#1457,#1458,#1459,#1460,#1461,#1462,#1463,#1464,#1465,#1466,
#1467,#1468,#1469,#1470,#1471,#1472,#1473,#1474,#1475,#1476,#1477,#1478,
#1479,#1480,#1481,#1482,#1483,#1484,#1485,#1486,#1487,#1488,#1489,#1490,
#1491,#1492,#1493,#1494,#1495,#1496,#1497,#1498,#1499,#1500,#1501,#1502,
#1503,#1504,#1505,#1506),.UNSPECIFIED.,.T.,.F.,(1,3,3,3,3,3,3,3,3,3,3,3,
3,3,3,3,3,3,3,3,3,1),(-0.0397868069040082,0.,0.0562682591904515,0.112124958918888,
0.175721151861481,0.245280031255995,0.302181526565293,0.349476930913415,
0.397175325075216,0.438921822731931,0.479110529362419,0.522712438002623,
0.573269825898566,0.632848424658956,0.700442922337161,0.770179226326981,
0.821686097561285,0.873650857127522,0.918784243957773,0.960213193095992,
1.,1.05626825919045),.UNSPECIFIED.);
#59=CYLINDRICAL_SURFACE('',#624,2.5);
#60=CYLINDRICAL_SURFACE('',#626,3.97649852608033);
#61=CYLINDRICAL_SURFACE('',#630,2.5);
#62=CYLINDRICAL_SURFACE('',#632,3.9985093130935);
#63=CYLINDRICAL_SURFACE('',#634,0.25);
#64=CYLINDRICAL_SURFACE('',#635,0.25);
#65=CYLINDRICAL_SURFACE('',#636,0.25);
#66=CYLINDRICAL_SURFACE('',#637,0.25);
#67=CYLINDRICAL_SURFACE('',#656,2.5);
#68=CYLINDRICAL_SURFACE('',#658,3.97649852608033);
#69=CYLINDRICAL_SURFACE('',#662,2.5);
#70=CYLINDRICAL_SURFACE('',#664,3.9985093130935);
#71=CYLINDRICAL_SURFACE('',#666,0.25);
#72=CYLINDRICAL_SURFACE('',#667,0.25);
#73=CYLINDRICAL_SURFACE('',#668,0.25);
#74=CYLINDRICAL_SURFACE('',#669,0.25);
#75=FACE_OUTER_BOUND('',#268,.T.);
#76=FACE_OUTER_BOUND('',#269,.T.);
#77=FACE_OUTER_BOUND('',#270,.T.);
#78=FACE_OUTER_BOUND('',#271,.T.);
#79=FACE_OUTER_BOUND('',#285,.T.);
#80=FACE_OUTER_BOUND('',#294,.T.);
#81=FACE_OUTER_BOUND('',#303,.T.);
#82=FACE_OUTER_BOUND('',#304,.T.);
#83=FACE_OUTER_BOUND('',#305,.T.);
#84=FACE_OUTER_BOUND('',#306,.T.);
#85=FACE_OUTER_BOUND('',#307,.T.);
#86=FACE_OUTER_BOUND('',#308,.T.);
#87=FACE_OUTER_BOUND('',#327,.T.);
#88=FACE_OUTER_BOUND('',#336,.T.);
#89=FACE_OUTER_BOUND('',#345,.T.);
#90=FACE_OUTER_BOUND('',#346,.T.);
#91=ADVANCED_FACE('',(#195,#196,#197,#198,#199),#131,.T.);
#92=ADVANCED_FACE('',(#75),#132,.F.);
#93=ADVANCED_FACE('',(#76),#133,.F.);
#94=ADVANCED_FACE('',(#77),#134,.F.);
#95=ADVANCED_FACE('',(#78),#135,.F.);
#96=ADVANCED_FACE('',(#200,#201,#202,#203,#204),#136,.F.);
#97=ADVANCED_FACE('',(#205,#206),#59,.T.);
#98=ADVANCED_FACE('',(#207,#208),#60,.F.);
#99=ADVANCED_FACE('',(#209,#210,#211,#212),#47,.T.);
#100=ADVANCED_FACE('',(#79),#137,.F.);
#101=ADVANCED_FACE('',(#213,#214),#61,.T.);
#102=ADVANCED_FACE('',(#215,#216),#62,.F.);
#103=ADVANCED_FACE('',(#217,#218,#219,#220),#48,.T.);
#104=ADVANCED_FACE('',(#80),#138,.F.);
#105=ADVANCED_FACE('',(#221,#222),#63,.F.);
#106=ADVANCED_FACE('',(#223,#224),#64,.F.);
#107=ADVANCED_FACE('',(#225,#226),#65,.F.);
#108=ADVANCED_FACE('',(#227,#228),#66,.F.);
#109=ADVANCED_FACE('',(#81),#43,.T.);
#110=ADVANCED_FACE('',(#82),#44,.T.);
#111=ADVANCED_FACE('',(#83),#139,.F.);
#112=ADVANCED_FACE('',(#84),#140,.F.);
#113=ADVANCED_FACE('',(#85),#141,.F.);
#114=ADVANCED_FACE('',(#86),#142,.F.);
#115=ADVANCED_FACE('',(#229,#230,#231,#232,#233),#143,.F.);
#116=ADVANCED_FACE('',(#234,#235,#236,#237,#238),#144,.T.);
#117=ADVANCED_FACE('',(#239,#240),#67,.T.);
#118=ADVANCED_FACE('',(#241,#242,#243,#244),#49,.T.);
#119=ADVANCED_FACE('',(#245,#246),#68,.F.);
#120=ADVANCED_FACE('',(#87),#145,.T.);
#121=ADVANCED_FACE('',(#247,#248),#69,.T.);
#122=ADVANCED_FACE('',(#249,#250,#251,#252),#50,.T.);
#123=ADVANCED_FACE('',(#253,#254),#70,.F.);
#124=ADVANCED_FACE('',(#88),#146,.T.);
#125=ADVANCED_FACE('',(#255,#256),#71,.F.);
#126=ADVANCED_FACE('',(#257,#258),#72,.F.);
#127=ADVANCED_FACE('',(#259,#260),#73,.F.);
#128=ADVANCED_FACE('',(#261,#262),#74,.F.);
#129=ADVANCED_FACE('',(#89),#45,.F.);
#130=ADVANCED_FACE('',(#90),#46,.F.);
#131=PLANE('',#612);
#132=PLANE('',#613);
#133=PLANE('',#614);
#134=PLANE('',#615);
#135=PLANE('',#616);
#136=PLANE('',#621);
#137=PLANE('',#627);
#138=PLANE('',#633);
#139=PLANE('',#640);
#140=PLANE('',#641);
#141=PLANE('',#642);
#142=PLANE('',#643);
#143=PLANE('',#648);
#144=PLANE('',#653);
#145=PLANE('',#659);
#146=PLANE('',#665);
#147=LINE('',#835,#171);
#148=LINE('',#838,#172);
#149=LINE('',#840,#173);
#150=LINE('',#842,#174);
#151=LINE('',#844,#175);
#152=LINE('',#846,#176);
#153=LINE('',#848,#177);
#154=LINE('',#850,#178);
#155=LINE('',#852,#179);
#156=LINE('',#854,#180);
#157=LINE('',#856,#181);
#158=LINE('',#858,#182);
#159=LINE('',#1188,#183);
#160=LINE('',#1191,#184);
#161=LINE('',#1193,#185);
#162=LINE('',#1195,#186);
#163=LINE('',#1197,#187);
#164=LINE('',#1199,#188);
#165=LINE('',#1201,#189);
#166=LINE('',#1203,#190);
#167=LINE('',#1205,#191);
#168=LINE('',#1207,#192);
#169=LINE('',#1209,#193);
#170=LINE('',#1210,#194);
#171=VECTOR('',#682,1.);
#172=VECTOR('',#683,1.);
#173=VECTOR('',#684,1.);
#174=VECTOR('',#685,1.);
#175=VECTOR('',#688,1.);
#176=VECTOR('',#689,1.);
#177=VECTOR('',#690,1.);
#178=VECTOR('',#693,1.);
#179=VECTOR('',#694,1.);
#180=VECTOR('',#697,1.);
#181=VECTOR('',#698,1.);
#182=VECTOR('',#701,1.);
#183=VECTOR('',#750,1.);
#184=VECTOR('',#751,1.);
#185=VECTOR('',#752,1.);
#186=VECTOR('',#753,1.);
#187=VECTOR('',#756,1.);
#188=VECTOR('',#757,1.);
#189=VECTOR('',#758,1.);
#190=VECTOR('',#761,1.);
#191=VECTOR('',#762,1.);
#192=VECTOR('',#763,1.);
#193=VECTOR('',#766,1.);
#194=VECTOR('',#767,1.);
#195=FACE_BOUND('',#263,.T.);
#196=FACE_BOUND('',#264,.T.);
#197=FACE_BOUND('',#265,.T.);
#198=FACE_BOUND('',#266,.T.);
#199=FACE_BOUND('',#267,.T.);
#200=FACE_BOUND('',#272,.T.);
#201=FACE_BOUND('',#273,.T.);
#202=FACE_BOUND('',#274,.T.);
#203=FACE_BOUND('',#275,.T.);
#204=FACE_BOUND('',#276,.T.);
#205=FACE_BOUND('',#277,.T.);
#206=FACE_BOUND('',#278,.T.);
#207=FACE_BOUND('',#279,.T.);
#208=FACE_BOUND('',#280,.T.);
#209=FACE_BOUND('',#281,.T.);
#210=FACE_BOUND('',#282,.T.);
#211=FACE_BOUND('',#283,.T.);
#212=FACE_BOUND('',#284,.T.);
#213=FACE_BOUND('',#286,.T.);
#214=FACE_BOUND('',#287,.T.);
#215=FACE_BOUND('',#288,.T.);
#216=FACE_BOUND('',#289,.T.);
#217=FACE_BOUND('',#290,.T.);
#218=FACE_BOUND('',#291,.T.);
#219=FACE_BOUND('',#292,.T.);
#220=FACE_BOUND('',#293,.T.);
#221=FACE_BOUND('',#295,.T.);
#222=FACE_BOUND('',#296,.T.);
#223=FACE_BOUND('',#297,.T.);
#224=FACE_BOUND('',#298,.T.);
#225=FACE_BOUND('',#299,.T.);
#226=FACE_BOUND('',#300,.T.);
#227=FACE_BOUND('',#301,.T.);
#228=FACE_BOUND('',#302,.T.);
#229=FACE_BOUND('',#309,.T.);
#230=FACE_BOUND('',#310,.T.);
#231=FACE_BOUND('',#311,.T.);
#232=FACE_BOUND('',#312,.T.);
#233=FACE_BOUND('',#313,.T.);
#234=FACE_BOUND('',#314,.T.);
#235=FACE_BOUND('',#315,.T.);
#236=FACE_BOUND('',#316,.T.);
#237=FACE_BOUND('',#317,.T.);
#238=FACE_BOUND('',#318,.T.);
#239=FACE_BOUND('',#319,.T.);
#240=FACE_BOUND('',#320,.T.);
#241=FACE_BOUND('',#321,.T.);
#242=FACE_BOUND('',#322,.T.);
#243=FACE_BOUND('',#323,.T.);
#244=FACE_BOUND('',#324,.T.);
#245=FACE_BOUND('',#325,.T.);
#246=FACE_BOUND('',#326,.T.);
#247=FACE_BOUND('',#328,.T.);
#248=FACE_BOUND('',#329,.T.);
#249=FACE_BOUND('',#330,.T.);
#250=FACE_BOUND('',#331,.T.);
#251=FACE_BOUND('',#332,.T.);
#252=FACE_BOUND('',#333,.T.);
#253=FACE_BOUND('',#334,.T.);
#254=FACE_BOUND('',#335,.T.);
#255=FACE_BOUND('',#337,.T.);
#256=FACE_BOUND('',#338,.T.);
#257=FACE_BOUND('',#339,.T.);
#258=FACE_BOUND('',#340,.T.);
#259=FACE_BOUND('',#341,.T.);
#260=FACE_BOUND('',#342,.T.);
#261=FACE_BOUND('',#343,.T.);
#262=FACE_BOUND('',#344,.T.);
#263=EDGE_LOOP('',(#347));
#264=EDGE_LOOP('',(#348));
#265=EDGE_LOOP('',(#349));
#266=EDGE_LOOP('',(#350));
#267=EDGE_LOOP('',(#351,#352,#353,#354));
#268=EDGE_LOOP('',(#355,#356,#357,#358));
#269=EDGE_LOOP('',(#359,#360,#361,#362));
#270=EDGE_LOOP('',(#363,#364,#365,#366));
#271=EDGE_LOOP('',(#367,#368,#369,#370));
#272=EDGE_LOOP('',(#371));
#273=EDGE_LOOP('',(#372));
#274=EDGE_LOOP('',(#373));
#275=EDGE_LOOP('',(#374));
#276=EDGE_LOOP('',(#375,#376,#377,#378));
#277=EDGE_LOOP('',(#379));
#278=EDGE_LOOP('',(#380));
#279=EDGE_LOOP('',(#381));
#280=EDGE_LOOP('',(#382));
#281=EDGE_LOOP('',(#383));
#282=EDGE_LOOP('',(#384));
#283=EDGE_LOOP('',(#385));
#284=EDGE_LOOP('',(#386));
#285=EDGE_LOOP('',(#387));
#286=EDGE_LOOP('',(#388));
#287=EDGE_LOOP('',(#389));
#288=EDGE_LOOP('',(#390));
#289=EDGE_LOOP('',(#391));
#290=EDGE_LOOP('',(#392));
#291=EDGE_LOOP('',(#393));
#292=EDGE_LOOP('',(#394));
#293=EDGE_LOOP('',(#395));
#294=EDGE_LOOP('',(#396));
#295=EDGE_LOOP('',(#397));
#296=EDGE_LOOP('',(#398));
#297=EDGE_LOOP('',(#399));
#298=EDGE_LOOP('',(#400));
#299=EDGE_LOOP('',(#401));
#300=EDGE_LOOP('',(#402));
#301=EDGE_LOOP('',(#403));
#302=EDGE_LOOP('',(#404));
#303=EDGE_LOOP('',(#405));
#304=EDGE_LOOP('',(#406));
#305=EDGE_LOOP('',(#407,#408,#409,#410));
#306=EDGE_LOOP('',(#411,#412,#413,#414));
#307=EDGE_LOOP('',(#415,#416,#417,#418));
#308=EDGE_LOOP('',(#419,#420,#421,#422));
#309=EDGE_LOOP('',(#423));
#310=EDGE_LOOP('',(#424));
#311=EDGE_LOOP('',(#425));
#312=EDGE_LOOP('',(#426));
#313=EDGE_LOOP('',(#427,#428,#429,#430));
#314=EDGE_LOOP('',(#431));
#315=EDGE_LOOP('',(#432));
#316=EDGE_LOOP('',(#433));
#317=EDGE_LOOP('',(#434));
#318=EDGE_LOOP('',(#435,#436,#437,#438));
#319=EDGE_LOOP('',(#439));
#320=EDGE_LOOP('',(#440));
#321=EDGE_LOOP('',(#441));
#322=EDGE_LOOP('',(#442));
#323=EDGE_LOOP('',(#443));
#324=EDGE_LOOP('',(#444));
#325=EDGE_LOOP('',(#445));
#326=EDGE_LOOP('',(#446));
#327=EDGE_LOOP('',(#447));
#328=EDGE_LOOP('',(#448));
#329=EDGE_LOOP('',(#449));
#330=EDGE_LOOP('',(#450));
#331=EDGE_LOOP('',(#451));
#332=EDGE_LOOP('',(#452));
#333=EDGE_LOOP('',(#453));
#334=EDGE_LOOP('',(#454));
#335=EDGE_LOOP('',(#455));
#336=EDGE_LOOP('',(#456));
#337=EDGE_LOOP('',(#457));
#338=EDGE_LOOP('',(#458));
#339=EDGE_LOOP('',(#459));
#340=EDGE_LOOP('',(#460));
#341=EDGE_LOOP('',(#461));
#342=EDGE_LOOP('',(#462));
#343=EDGE_LOOP('',(#463));
#344=EDGE_LOOP('',(#464));
#345=EDGE_LOOP('',(#465));
#346=EDGE_LOOP('',(#466));
#347=ORIENTED_EDGE('',*,*,#519,.T.);
#348=ORIENTED_EDGE('',*,*,#520,.T.);
#349=ORIENTED_EDGE('',*,*,#521,.T.);
#350=ORIENTED_EDGE('',*,*,#522,.T.);
#351=ORIENTED_EDGE('',*,*,#523,.T.);
#352=ORIENTED_EDGE('',*,*,#524,.T.);
#353=ORIENTED_EDGE('',*,*,#525,.T.);
#354=ORIENTED_EDGE('',*,*,#526,.T.);
#355=ORIENTED_EDGE('',*,*,#527,.T.);
#356=ORIENTED_EDGE('',*,*,#528,.T.);
#357=ORIENTED_EDGE('',*,*,#529,.F.);
#358=ORIENTED_EDGE('',*,*,#526,.F.);
#359=ORIENTED_EDGE('',*,*,#530,.T.);
#360=ORIENTED_EDGE('',*,*,#531,.F.);
#361=ORIENTED_EDGE('',*,*,#527,.F.);
#362=ORIENTED_EDGE('',*,*,#525,.F.);
#363=ORIENTED_EDGE('',*,*,#532,.T.);
#364=ORIENTED_EDGE('',*,*,#533,.T.);
#365=ORIENTED_EDGE('',*,*,#530,.F.);
#366=ORIENTED_EDGE('',*,*,#524,.F.);
#367=ORIENTED_EDGE('',*,*,#529,.T.);
#368=ORIENTED_EDGE('',*,*,#534,.F.);
#369=ORIENTED_EDGE('',*,*,#532,.F.);
#370=ORIENTED_EDGE('',*,*,#523,.F.);
#371=ORIENTED_EDGE('',*,*,#535,.T.);
#372=ORIENTED_EDGE('',*,*,#536,.T.);
#373=ORIENTED_EDGE('',*,*,#537,.F.);
#374=ORIENTED_EDGE('',*,*,#538,.T.);
#375=ORIENTED_EDGE('',*,*,#528,.F.);
#376=ORIENTED_EDGE('',*,*,#531,.T.);
#377=ORIENTED_EDGE('',*,*,#533,.F.);
#378=ORIENTED_EDGE('',*,*,#534,.T.);
#379=ORIENTED_EDGE('',*,*,#539,.T.);
#380=ORIENTED_EDGE('',*,*,#540,.T.);
#381=ORIENTED_EDGE('',*,*,#541,.T.);
#382=ORIENTED_EDGE('',*,*,#538,.F.);
#383=ORIENTED_EDGE('',*,*,#542,.T.);
#384=ORIENTED_EDGE('',*,*,#543,.T.);
#385=ORIENTED_EDGE('',*,*,#541,.F.);
#386=ORIENTED_EDGE('',*,*,#539,.F.);
#387=ORIENTED_EDGE('',*,*,#540,.F.);
#388=ORIENTED_EDGE('',*,*,#544,.T.);
#389=ORIENTED_EDGE('',*,*,#545,.F.);
#390=ORIENTED_EDGE('',*,*,#546,.T.);
#391=ORIENTED_EDGE('',*,*,#537,.T.);
#392=ORIENTED_EDGE('',*,*,#547,.T.);
#393=ORIENTED_EDGE('',*,*,#548,.T.);
#394=ORIENTED_EDGE('',*,*,#546,.F.);
#395=ORIENTED_EDGE('',*,*,#544,.F.);
#396=ORIENTED_EDGE('',*,*,#545,.T.);
#397=ORIENTED_EDGE('',*,*,#522,.F.);
#398=ORIENTED_EDGE('',*,*,#548,.F.);
#399=ORIENTED_EDGE('',*,*,#521,.F.);
#400=ORIENTED_EDGE('',*,*,#547,.F.);
#401=ORIENTED_EDGE('',*,*,#520,.F.);
#402=ORIENTED_EDGE('',*,*,#543,.F.);
#403=ORIENTED_EDGE('',*,*,#519,.F.);
#404=ORIENTED_EDGE('',*,*,#542,.F.);
#405=ORIENTED_EDGE('',*,*,#536,.F.);
#406=ORIENTED_EDGE('',*,*,#535,.F.);
#407=ORIENTED_EDGE('',*,*,#549,.F.);
#408=ORIENTED_EDGE('',*,*,#550,.T.);
#409=ORIENTED_EDGE('',*,*,#551,.T.);
#410=ORIENTED_EDGE('',*,*,#552,.F.);
#411=ORIENTED_EDGE('',*,*,#553,.T.);
#412=ORIENTED_EDGE('',*,*,#552,.T.);
#413=ORIENTED_EDGE('',*,*,#554,.T.);
#414=ORIENTED_EDGE('',*,*,#555,.F.);
#415=ORIENTED_EDGE('',*,*,#556,.F.);
#416=ORIENTED_EDGE('',*,*,#555,.T.);
#417=ORIENTED_EDGE('',*,*,#557,.T.);
#418=ORIENTED_EDGE('',*,*,#558,.F.);
#419=ORIENTED_EDGE('',*,*,#559,.T.);
#420=ORIENTED_EDGE('',*,*,#558,.T.);
#421=ORIENTED_EDGE('',*,*,#560,.T.);
#422=ORIENTED_EDGE('',*,*,#550,.F.);
#423=ORIENTED_EDGE('',*,*,#561,.T.);
#424=ORIENTED_EDGE('',*,*,#562,.T.);
#425=ORIENTED_EDGE('',*,*,#563,.T.);
#426=ORIENTED_EDGE('',*,*,#564,.T.);
#427=ORIENTED_EDGE('',*,*,#551,.F.);
#428=ORIENTED_EDGE('',*,*,#560,.F.);
#429=ORIENTED_EDGE('',*,*,#557,.F.);
#430=ORIENTED_EDGE('',*,*,#554,.F.);
#431=ORIENTED_EDGE('',*,*,#565,.F.);
#432=ORIENTED_EDGE('',*,*,#566,.F.);
#433=ORIENTED_EDGE('',*,*,#567,.F.);
#434=ORIENTED_EDGE('',*,*,#568,.T.);
#435=ORIENTED_EDGE('',*,*,#559,.F.);
#436=ORIENTED_EDGE('',*,*,#549,.T.);
#437=ORIENTED_EDGE('',*,*,#553,.F.);
#438=ORIENTED_EDGE('',*,*,#556,.T.);
#439=ORIENTED_EDGE('',*,*,#569,.T.);
#440=ORIENTED_EDGE('',*,*,#570,.F.);
#441=ORIENTED_EDGE('',*,*,#571,.T.);
#442=ORIENTED_EDGE('',*,*,#572,.T.);
#443=ORIENTED_EDGE('',*,*,#573,.F.);
#444=ORIENTED_EDGE('',*,*,#570,.T.);
#445=ORIENTED_EDGE('',*,*,#568,.F.);
#446=ORIENTED_EDGE('',*,*,#573,.T.);
#447=ORIENTED_EDGE('',*,*,#569,.F.);
#448=ORIENTED_EDGE('',*,*,#574,.F.);
#449=ORIENTED_EDGE('',*,*,#575,.F.);
#450=ORIENTED_EDGE('',*,*,#576,.T.);
#451=ORIENTED_EDGE('',*,*,#577,.T.);
#452=ORIENTED_EDGE('',*,*,#578,.F.);
#453=ORIENTED_EDGE('',*,*,#575,.T.);
#454=ORIENTED_EDGE('',*,*,#567,.T.);
#455=ORIENTED_EDGE('',*,*,#578,.T.);
#456=ORIENTED_EDGE('',*,*,#574,.T.);
#457=ORIENTED_EDGE('',*,*,#577,.F.);
#458=ORIENTED_EDGE('',*,*,#564,.F.);
#459=ORIENTED_EDGE('',*,*,#576,.F.);
#460=ORIENTED_EDGE('',*,*,#563,.F.);
#461=ORIENTED_EDGE('',*,*,#572,.F.);
#462=ORIENTED_EDGE('',*,*,#562,.F.);
#463=ORIENTED_EDGE('',*,*,#571,.F.);
#464=ORIENTED_EDGE('',*,*,#561,.F.);
#465=ORIENTED_EDGE('',*,*,#566,.T.);
#466=ORIENTED_EDGE('',*,*,#565,.T.);
#467=VERTEX_POINT('',#828);
#468=VERTEX_POINT('',#830);
#469=VERTEX_POINT('',#832);
#470=VERTEX_POINT('',#834);
#471=VERTEX_POINT('',#836);
#472=VERTEX_POINT('',#837);
#473=VERTEX_POINT('',#839);
#474=VERTEX_POINT('',#841);
#475=VERTEX_POINT('',#845);
#476=VERTEX_POINT('',#847);
#477=VERTEX_POINT('',#851);
#478=VERTEX_POINT('',#855);
#479=VERTEX_POINT('',#861);
#480=VERTEX_POINT('',#863);
#481=VERTEX_POINT('',#865);
#482=VERTEX_POINT('',#867);
#483=VERTEX_POINT('',#870);
#484=VERTEX_POINT('',#872);
#485=VERTEX_POINT('',#875);
#486=VERTEX_POINT('',#935);
#487=VERTEX_POINT('',#994);
#488=VERTEX_POINT('',#1025);
#489=VERTEX_POINT('',#1027);
#490=VERTEX_POINT('',#1030);
#491=VERTEX_POINT('',#1093);
#492=VERTEX_POINT('',#1152);
#493=VERTEX_POINT('',#1189);
#494=VERTEX_POINT('',#1190);
#495=VERTEX_POINT('',#1192);
#496=VERTEX_POINT('',#1194);
#497=VERTEX_POINT('',#1198);
#498=VERTEX_POINT('',#1200);
#499=VERTEX_POINT('',#1204);
#500=VERTEX_POINT('',#1206);
#501=VERTEX_POINT('',#1213);
#502=VERTEX_POINT('',#1215);
#503=VERTEX_POINT('',#1217);
#504=VERTEX_POINT('',#1219);
#505=VERTEX_POINT('',#1222);
#506=VERTEX_POINT('',#1224);
#507=VERTEX_POINT('',#1226);
#508=VERTEX_POINT('',#1228);
#509=VERTEX_POINT('',#1231);
#510=VERTEX_POINT('',#1233);
#511=VERTEX_POINT('',#1293);
#512=VERTEX_POINT('',#1352);
#513=VERTEX_POINT('',#1354);
#514=VERTEX_POINT('',#1386);
#515=VERTEX_POINT('',#1388);
#516=VERTEX_POINT('',#1448);
#517=VERTEX_POINT('',#1507);
#518=VERTEX_POINT('',#1509);
#519=EDGE_CURVE('',#467,#467,#579,.T.);
#520=EDGE_CURVE('',#468,#468,#580,.T.);
#521=EDGE_CURVE('',#469,#469,#581,.T.);
#522=EDGE_CURVE('',#470,#470,#582,.T.);
#523=EDGE_CURVE('',#471,#472,#147,.T.);
#524=EDGE_CURVE('',#472,#473,#148,.T.);
#525=EDGE_CURVE('',#473,#474,#149,.T.);
#526=EDGE_CURVE('',#474,#471,#150,.T.);
#527=EDGE_CURVE('',#474,#475,#151,.T.);
#528=EDGE_CURVE('',#475,#476,#152,.T.);
#529=EDGE_CURVE('',#471,#476,#153,.T.);
#530=EDGE_CURVE('',#473,#477,#154,.T.);
#531=EDGE_CURVE('',#475,#477,#155,.T.);
#532=EDGE_CURVE('',#472,#478,#156,.T.);
#533=EDGE_CURVE('',#478,#477,#157,.T.);
#534=EDGE_CURVE('',#478,#476,#158,.T.);
#535=EDGE_CURVE('',#479,#479,#583,.T.);
#536=EDGE_CURVE('',#480,#480,#584,.T.);
#537=EDGE_CURVE('',#481,#481,#585,.T.);
#538=EDGE_CURVE('',#482,#482,#586,.T.);
#539=EDGE_CURVE('',#483,#483,#587,.T.);
#540=EDGE_CURVE('',#484,#484,#588,.T.);
#541=EDGE_CURVE('',#485,#485,#589,.T.);
#542=EDGE_CURVE('',#486,#486,#51,.T.);
#543=EDGE_CURVE('',#487,#487,#52,.T.);
#544=EDGE_CURVE('',#488,#488,#590,.T.);
#545=EDGE_CURVE('',#489,#489,#591,.T.);
#546=EDGE_CURVE('',#490,#490,#592,.T.);
#547=EDGE_CURVE('',#491,#491,#53,.T.);
#548=EDGE_CURVE('',#492,#492,#54,.T.);
#549=EDGE_CURVE('',#493,#494,#159,.T.);
#550=EDGE_CURVE('',#493,#495,#160,.T.);
#551=EDGE_CURVE('',#495,#496,#161,.T.);
#552=EDGE_CURVE('',#494,#496,#162,.T.);
#553=EDGE_CURVE('',#497,#494,#163,.T.);
#554=EDGE_CURVE('',#496,#498,#164,.T.);
#555=EDGE_CURVE('',#497,#498,#165,.T.);
#556=EDGE_CURVE('',#497,#499,#166,.T.);
#557=EDGE_CURVE('',#498,#500,#167,.T.);
#558=EDGE_CURVE('',#499,#500,#168,.T.);
#559=EDGE_CURVE('',#493,#499,#169,.T.);
#560=EDGE_CURVE('',#500,#495,#170,.T.);
#561=EDGE_CURVE('',#501,#501,#593,.T.);
#562=EDGE_CURVE('',#502,#502,#594,.T.);
#563=EDGE_CURVE('',#503,#503,#595,.T.);
#564=EDGE_CURVE('',#504,#504,#596,.T.);
#565=EDGE_CURVE('',#505,#505,#597,.T.);
#566=EDGE_CURVE('',#506,#506,#598,.T.);
#567=EDGE_CURVE('',#507,#507,#599,.T.);
#568=EDGE_CURVE('',#508,#508,#600,.T.);
#569=EDGE_CURVE('',#509,#509,#601,.T.);
#570=EDGE_CURVE('',#510,#510,#602,.T.);
#571=EDGE_CURVE('',#511,#511,#55,.T.);
#572=EDGE_CURVE('',#512,#512,#56,.T.);
#573=EDGE_CURVE('',#513,#513,#603,.T.);
#574=EDGE_CURVE('',#514,#514,#604,.T.);
#575=EDGE_CURVE('',#515,#515,#605,.T.);
#576=EDGE_CURVE('',#516,#516,#57,.T.);
#577=EDGE_CURVE('',#517,#517,#58,.T.);
#578=EDGE_CURVE('',#518,#518,#606,.T.);
#579=CIRCLE('',#608,0.25);
#580=CIRCLE('',#609,0.25);
#581=CIRCLE('',#610,0.25);
#582=CIRCLE('',#611,0.25);
#583=CIRCLE('',#617,1.5);
#584=CIRCLE('',#618,1.5);
#585=CIRCLE('',#619,3.9985093130935);
#586=CIRCLE('',#620,3.97649852608033);
#587=CIRCLE('',#622,2.5);
#588=CIRCLE('',#623,2.5);
#589=CIRCLE('',#625,3.97649852608033);
#590=CIRCLE('',#628,2.5);
#591=CIRCLE('',#629,2.5);
#592=CIRCLE('',#631,3.9985093130935);
#593=CIRCLE('',#644,0.25);
#594=CIRCLE('',#645,0.25);
#595=CIRCLE('',#646,0.25);
#596=CIRCLE('',#647,0.25);
#597=CIRCLE('',#649,1.5);
#598=CIRCLE('',#650,1.5);
#599=CIRCLE('',#651,3.9985093130935);
#600=CIRCLE('',#652,3.97649852608033);
#601=CIRCLE('',#654,2.5);
#602=CIRCLE('',#655,2.5);
#603=CIRCLE('',#657,3.97649852608033);
#604=CIRCLE('',#660,2.5);
#605=CIRCLE('',#661,2.5);
#606=CIRCLE('',#663,3.9985093130935);
#607=AXIS2_PLACEMENT_3D('',#826,#672,#673);
#608=AXIS2_PLACEMENT_3D('',#827,#674,#675);
#609=AXIS2_PLACEMENT_3D('',#829,#676,#677);
#610=AXIS2_PLACEMENT_3D('',#831,#678,#679);
#611=AXIS2_PLACEMENT_3D('',#833,#680,#681);
#612=AXIS2_PLACEMENT_3D('',#843,#686,#687);
#613=AXIS2_PLACEMENT_3D('',#849,#691,#692);
#614=AXIS2_PLACEMENT_3D('',#853,#695,#696);
#615=AXIS2_PLACEMENT_3D('',#857,#699,#700);
#616=AXIS2_PLACEMENT_3D('',#859,#702,#703);
#617=AXIS2_PLACEMENT_3D('',#860,#704,#705);
#618=AXIS2_PLACEMENT_3D('',#862,#706,#707);
#619=AXIS2_PLACEMENT_3D('',#864,#708,#709);
#620=AXIS2_PLACEMENT_3D('',#866,#710,#711);
#621=AXIS2_PLACEMENT_3D('',#868,#712,#713);
#622=AXIS2_PLACEMENT_3D('',#869,#714,#715);
#623=AXIS2_PLACEMENT_3D('',#871,#716,#717);
#624=AXIS2_PLACEMENT_3D('',#873,#718,#719);
#625=AXIS2_PLACEMENT_3D('',#874,#720,#721);
#626=AXIS2_PLACEMENT_3D('',#876,#722,#723);
#627=AXIS2_PLACEMENT_3D('',#1023,#724,#725);
#628=AXIS2_PLACEMENT_3D('',#1024,#726,#727);
#629=AXIS2_PLACEMENT_3D('',#1026,#728,#729);
#630=AXIS2_PLACEMENT_3D('',#1028,#730,#731);
#631=AXIS2_PLACEMENT_3D('',#1029,#732,#733);
#632=AXIS2_PLACEMENT_3D('',#1031,#734,#735);
#633=AXIS2_PLACEMENT_3D('',#1181,#736,#737);
#634=AXIS2_PLACEMENT_3D('',#1182,#738,#739);
#635=AXIS2_PLACEMENT_3D('',#1183,#740,#741);
#636=AXIS2_PLACEMENT_3D('',#1184,#742,#743);
#637=AXIS2_PLACEMENT_3D('',#1185,#744,#745);
#638=AXIS2_PLACEMENT_3D('',#1186,#746,#747);
#639=AXIS2_PLACEMENT_3D('',#1187,#748,#749);
#640=AXIS2_PLACEMENT_3D('',#1196,#754,#755);
#641=AXIS2_PLACEMENT_3D('',#1202,#759,#760);
#642=AXIS2_PLACEMENT_3D('',#1208,#764,#765);
#643=AXIS2_PLACEMENT_3D('',#1211,#768,#769);
#644=AXIS2_PLACEMENT_3D('',#1212,#770,#771);
#645=AXIS2_PLACEMENT_3D('',#1214,#772,#773);
#646=AXIS2_PLACEMENT_3D('',#1216,#774,#775);
#647=AXIS2_PLACEMENT_3D('',#1218,#776,#777);
#648=AXIS2_PLACEMENT_3D('',#1220,#778,#779);
#649=AXIS2_PLACEMENT_3D('',#1221,#780,#781);
#650=AXIS2_PLACEMENT_3D('',#1223,#782,#783);
#651=AXIS2_PLACEMENT_3D('',#1225,#784,#785);
#652=AXIS2_PLACEMENT_3D('',#1227,#786,#787);
#653=AXIS2_PLACEMENT_3D('',#1229,#788,#789);
#654=AXIS2_PLACEMENT_3D('',#1230,#790,#791);
#655=AXIS2_PLACEMENT_3D('',#1232,#792,#793);
#656=AXIS2_PLACEMENT_3D('',#1234,#794,#795);
#657=AXIS2_PLACEMENT_3D('',#1353,#796,#797);
#658=AXIS2_PLACEMENT_3D('',#1383,#798,#799);
#659=AXIS2_PLACEMENT_3D('',#1384,#800,#801);
#660=AXIS2_PLACEMENT_3D('',#1385,#802,#803);
#661=AXIS2_PLACEMENT_3D('',#1387,#804,#805);
#662=AXIS2_PLACEMENT_3D('',#1389,#806,#807);
#663=AXIS2_PLACEMENT_3D('',#1508,#808,#809);
#664=AXIS2_PLACEMENT_3D('',#1538,#810,#811);
#665=AXIS2_PLACEMENT_3D('',#1539,#812,#813);
#666=AXIS2_PLACEMENT_3D('',#1540,#814,#815);
#667=AXIS2_PLACEMENT_3D('',#1541,#816,#817);
#668=AXIS2_PLACEMENT_3D('',#1542,#818,#819);
#669=AXIS2_PLACEMENT_3D('',#1543,#820,#821);
#670=AXIS2_PLACEMENT_3D('',#1544,#822,#823);
#671=AXIS2_PLACEMENT_3D('',#1545,#824,#825);
#672=DIRECTION('',(0.,0.,1.));
#673=DIRECTION('',(1.,0.,0.));
#674=DIRECTION('',(0.,0.,-1.));
#675=DIRECTION('',(-1.,0.,0.));
#676=DIRECTION('',(0.,0.,-1.));
#677=DIRECTION('',(-1.,0.,0.));
#678=DIRECTION('',(0.,0.,-1.));
#679=DIRECTION('',(-1.,0.,0.));
#680=DIRECTION('',(0.,0.,-1.));
#681=DIRECTION('',(-1.,0.,0.));
#682=DIRECTION('',(2.21336217981533E-16,-1.,0.));
#683=DIRECTION('',(1.,3.81817258303571E-16,0.));
#684=DIRECTION('',(-4.42672435963066E-16,1.,0.));
#685=DIRECTION('',(-1.,0.,0.));
#686=DIRECTION('',(0.,0.,1.));
#687=DIRECTION('',(1.,0.,0.));
#688=DIRECTION('',(0.,0.,-1.));
#689=DIRECTION('',(-1.,0.,0.));
#690=DIRECTION('',(0.,0.,-1.));
#691=DIRECTION('',(0.,-1.,0.));
#692=DIRECTION('',(0.,0.,-1.));
#693=DIRECTION('',(0.,0.,-1.));
#694=DIRECTION('',(4.42672435963066E-16,-1.,0.));
#695=DIRECTION('',(-1.,-4.42672435963066E-16,0.));
#696=DIRECTION('',(4.44089209850063E-16,-1.,0.));
#697=DIRECTION('',(0.,0.,-1.));
#698=DIRECTION('',(1.,3.81817258303571E-16,0.));
#699=DIRECTION('',(-3.81817258303571E-16,1.,0.));
#700=DIRECTION('',(-1.,-3.81639164714898E-16,0.));
#701=DIRECTION('',(-2.21336217981533E-16,1.,0.));
#702=DIRECTION('',(1.,2.21336217981533E-16,0.));
#703=DIRECTION('',(-2.22044604925031E-16,1.,0.));
#704=DIRECTION('',(0.,0.,1.));
#705=DIRECTION('',(1.,0.,0.));
#706=DIRECTION('',(0.,0.,1.));
#707=DIRECTION('',(1.,0.,0.));
#708=DIRECTION('',(0.,0.,-1.));
#709=DIRECTION('',(1.,0.,0.));
#710=DIRECTION('',(0.,0.,1.));
#711=DIRECTION('',(1.,0.,0.));
#712=DIRECTION('',(0.,0.,1.));
#713=DIRECTION('',(1.,0.,0.));
#714=DIRECTION('',(0.,0.,-1.));
#715=DIRECTION('',(0.999999999999999,0.,0.));
#716=DIRECTION('',(0.,0.,1.));
#717=DIRECTION('',(0.999999999999999,0.,0.));
#718=DIRECTION('',(0.,0.,-1.));
#719=DIRECTION('',(-1.,0.,0.));
#720=DIRECTION('',(0.,0.,1.));
#721=DIRECTION('',(-1.,0.,0.));
#722=DIRECTION('',(0.,0.,-1.));
#723=DIRECTION('',(-1.,0.,0.));
#724=DIRECTION('',(0.,0.,1.));
#725=DIRECTION('',(1.,0.,0.));
#726=DIRECTION('',(0.,0.,-1.));
#727=DIRECTION('',(1.,0.,0.));
#728=DIRECTION('',(0.,0.,-1.));
#729=DIRECTION('',(1.,0.,0.));
#730=DIRECTION('',(0.,0.,-1.));
#731=DIRECTION('',(-1.,0.,0.));
#732=DIRECTION('',(0.,0.,1.));
#733=DIRECTION('',(-1.,0.,0.));
#734=DIRECTION('',(0.,0.,-1.));
#735=DIRECTION('',(-1.,0.,0.));
#736=DIRECTION('',(0.,0.,1.));
#737=DIRECTION('',(1.,0.,0.));
#738=DIRECTION('',(0.,0.,-1.));
#739=DIRECTION('',(-1.,0.,0.));
#740=DIRECTION('',(0.,0.,-1.));
#741=DIRECTION('',(-1.,0.,0.));
#742=DIRECTION('',(0.,0.,-1.));
#743=DIRECTION('',(-1.,0.,0.));
#744=DIRECTION('',(0.,0.,-1.));
#745=DIRECTION('',(-1.,0.,0.));
#746=DIRECTION('',(0.,0.,1.));
#747=DIRECTION('',(1.,0.,0.));
#748=DIRECTION('',(0.,0.,1.));
#749=DIRECTION('',(1.,0.,0.));
#750=DIRECTION('',(2.21336217981533E-16,-1.,0.));
#751=DIRECTION('',(0.,0.,-1.));
#752=DIRECTION('',(2.21336217981533E-16,-1.,0.));
#753=DIRECTION('',(0.,0.,-1.));
#754=DIRECTION('',(1.,2.21336217981533E-16,0.));
#755=DIRECTION('',(-2.22044604925031E-16,1.,0.));
#756=DIRECTION('',(-1.,-3.81817258303571E-16,0.));
#757=DIRECTION('',(1.,3.81817258303571E-16,0.));
#758=DIRECTION('',(0.,0.,-1.));
#759=DIRECTION('',(-3.81817258303571E-16,1.,0.));
#760=DIRECTION('',(-1.,-3.81639164714898E-16,0.));
#761=DIRECTION('',(-4.42672435963066E-16,1.,0.));
#762=DIRECTION('',(-4.42672435963066E-16,1.,0.));
#763=DIRECTION('',(0.,0.,-1.));
#764=DIRECTION('',(-1.,-4.42672435963066E-16,0.));
#765=DIRECTION('',(4.44089209850063E-16,-1.,0.));
#766=DIRECTION('',(1.,0.,0.));
#767=DIRECTION('',(-1.,0.,0.));
#768=DIRECTION('',(0.,-1.,0.));
#769=DIRECTION('',(0.,0.,-1.));
#770=DIRECTION('',(0.,0.,1.));
#771=DIRECTION('',(1.,0.,0.));
#772=DIRECTION('',(0.,0.,1.));
#773=DIRECTION('',(1.,0.,0.));
#774=DIRECTION('',(0.,0.,1.));
#775=DIRECTION('',(1.,0.,0.));
#776=DIRECTION('',(0.,0.,1.));
#777=DIRECTION('',(1.,0.,0.));
#778=DIRECTION('',(0.,0.,1.));
#779=DIRECTION('',(1.,0.,0.));
#780=DIRECTION('',(0.,0.,1.));
#781=DIRECTION('',(1.,0.,0.));
#782=DIRECTION('',(0.,0.,1.));
#783=DIRECTION('',(1.,0.,0.));
#784=DIRECTION('',(0.,0.,1.));
#785=DIRECTION('',(1.,0.,0.));
#786=DIRECTION('',(0.,0.,-1.));
#787=DIRECTION('',(1.,0.,0.));
#788=DIRECTION('',(0.,0.,1.));
#789=DIRECTION('',(1.,0.,0.));
#790=DIRECTION('',(0.,0.,-1.));
#791=DIRECTION('',(0.999999999999999,0.,0.));
#792=DIRECTION('',(0.,0.,-1.));
#793=DIRECTION('',(0.999999999999999,0.,0.));
#794=DIRECTION('',(0.,0.,-1.));
#795=DIRECTION('',(-1.,0.,0.));
#796=DIRECTION('',(0.,0.,-1.));
#797=DIRECTION('',(1.,0.,0.));
#798=DIRECTION('',(0.,0.,-1.));
#799=DIRECTION('',(-1.,0.,0.));
#800=DIRECTION('',(0.,0.,1.));
#801=DIRECTION('',(1.,0.,0.));
#802=DIRECTION('',(0.,0.,1.));
#803=DIRECTION('',(1.,0.,0.));
#804=DIRECTION('',(0.,0.,-1.));
#805=DIRECTION('',(1.,0.,0.));
#806=DIRECTION('',(0.,0.,-1.));
#807=DIRECTION('',(-1.,0.,0.));
#808=DIRECTION('',(0.,0.,-1.));
#809=DIRECTION('',(1.,0.,0.));
#810=DIRECTION('',(0.,0.,-1.));
#811=DIRECTION('',(-1.,0.,0.));
#812=DIRECTION('',(0.,0.,1.));
#813=DIRECTION('',(1.,0.,0.));
#814=DIRECTION('',(0.,0.,-1.));
#815=DIRECTION('',(-1.,0.,0.));
#816=DIRECTION('',(0.,0.,-1.));
#817=DIRECTION('',(-1.,0.,0.));
#818=DIRECTION('',(0.,0.,-1.));
#819=DIRECTION('',(-1.,0.,0.));
#820=DIRECTION('',(0.,0.,-1.));
#821=DIRECTION('',(-1.,0.,0.));
#822=DIRECTION('',(0.,0.,1.));
#823=DIRECTION('',(1.,0.,0.));
#824=DIRECTION('',(0.,0.,1.));
#825=DIRECTION('',(1.,0.,0.));
#826=CARTESIAN_POINT('',(0.,0.,0.));
#827=CARTESIAN_POINT('',(18.4241847580071,-2.89194091843183,9.));
#828=CARTESIAN_POINT('',(18.1741847580071,-2.89194091843183,9.));
#829=CARTESIAN_POINT('',(18.2184695571755,3.48523030734816,9.));
#830=CARTESIAN_POINT('',(17.9684695571755,3.48523030734816,9.));
#831=CARTESIAN_POINT('',(0.056756112327399,-3.18581977676271,9.));
#832=CARTESIAN_POINT('',(-0.193243887672601,-3.18581977676271,9.));
#833=CARTESIAN_POINT('',(-0.0314075451718629,3.25012722068347,9.));
#834=CARTESIAN_POINT('',(-0.281407545171863,3.25012722068347,9.));
#835=CARTESIAN_POINT('',(-7.99850931309351,7.9985093130935,9.));
#836=CARTESIAN_POINT('',(-7.99850931309351,7.9985093130935,9.));
#837=CARTESIAN_POINT('',(-7.9985093130935,-7.67649852608034,9.));
#838=CARTESIAN_POINT('',(-7.9985093130935,-7.67649852608034,9.));
#839=CARTESIAN_POINT('',(26.0764985260803,-7.67649852608033,9.));
#840=CARTESIAN_POINT('',(26.0764985260803,-7.67649852608033,9.));
#841=CARTESIAN_POINT('',(26.0764985260803,7.99850931309351,9.));
#842=CARTESIAN_POINT('',(26.0764985260803,7.9985093130935,9.));
#843=CARTESIAN_POINT('',(0.,0.,9.));
#844=CARTESIAN_POINT('',(26.0764985260803,7.99850931309351,9.));
#845=CARTESIAN_POINT('',(26.0764985260803,7.9985093130935,0.));
#846=CARTESIAN_POINT('',(26.0764985260803,7.9985093130935,0.));
#847=CARTESIAN_POINT('',(-7.99850931309351,7.9985093130935,0.));
#848=CARTESIAN_POINT('',(-7.99850931309351,7.9985093130935,9.));
#849=CARTESIAN_POINT('',(26.0764985260803,7.9985093130935,9.));
#850=CARTESIAN_POINT('',(26.0764985260803,-7.67649852608033,9.));
#851=CARTESIAN_POINT('',(26.0764985260803,-7.67649852608033,0.));
#852=CARTESIAN_POINT('',(26.0764985260803,-7.67649852608033,0.));
#853=CARTESIAN_POINT('',(26.0764985260803,-7.67649852608033,9.));
#854=CARTESIAN_POINT('',(-7.9985093130935,-7.67649852608034,9.));
#855=CARTESIAN_POINT('',(-7.9985093130935,-7.67649852608034,0.));
#856=CARTESIAN_POINT('',(-7.9985093130935,-7.67649852608034,0.));
#857=CARTESIAN_POINT('',(-7.9985093130935,-7.67649852608034,9.));
#858=CARTESIAN_POINT('',(-7.99850931309351,7.9985093130935,0.));
#859=CARTESIAN_POINT('',(-7.99850931309351,7.9985093130935,9.));
#860=CARTESIAN_POINT('',(9.2421887538798,5.05247783292467,0.));
#861=CARTESIAN_POINT('',(10.7421887538798,5.05247783292467,0.));
#862=CARTESIAN_POINT('',(9.288107325494,-4.77409649251398,0.));
#863=CARTESIAN_POINT('',(10.788107325494,-4.77409649251398,0.));
#864=CARTESIAN_POINT('',(0.,0.,0.));
#865=CARTESIAN_POINT('',(3.9985093130935,0.,0.));
#866=CARTESIAN_POINT('',(18.1,0.3,0.));
#867=CARTESIAN_POINT('',(22.0764985260803,0.3,0.));
#868=CARTESIAN_POINT('',(0.,0.,0.));
#869=CARTESIAN_POINT('',(18.1,0.3,5.));
#870=CARTESIAN_POINT('',(20.6,0.3,5.));
#871=CARTESIAN_POINT('',(18.1,0.3,0.));
#872=CARTESIAN_POINT('',(20.6,0.3,0.));
#873=CARTESIAN_POINT('',(18.1,0.3,5.));
#874=CARTESIAN_POINT('',(18.1,0.3,4.01102389294503));
#875=CARTESIAN_POINT('',(14.1235014739197,0.3,4.01102389294503));
#876=CARTESIAN_POINT('',(18.1,0.3,20.));
#877=CARTESIAN_POINT('',(18.2644437635958,-3.08425008281171,4.49885206850141));
#878=CARTESIAN_POINT('',(18.2837519727716,-3.10028838581737,4.48685271518495));
#879=CARTESIAN_POINT('',(18.3063448976007,-3.1140177750545,4.47609930837167));
#880=CARTESIAN_POINT('',(18.3309709337309,-3.12391329386437,4.46775331311131));
#881=CARTESIAN_POINT('',(18.3557230602714,-3.13385947978199,4.45936458462499));
#882=CARTESIAN_POINT('',(18.3833268059158,-3.14014287662497,4.45321487142067));
#883=CARTESIAN_POINT('',(18.4111020797519,-3.14159837081343,4.45031990195704));
#884=CARTESIAN_POINT('',(18.435883293161,-3.14289696870711,4.44773699830993));
#885=CARTESIAN_POINT('',(18.4615254880505,-3.14038008104479,4.44767768035321));
#886=CARTESIAN_POINT('',(18.4855912740033,-3.13428208248205,4.4501512700058));
#887=CARTESIAN_POINT('',(18.5079975506651,-3.12860458484502,4.45245428783421));
#888=CARTESIAN_POINT('',(18.529629609692,-3.11971805145012,4.4569817774433));
#889=CARTESIAN_POINT('',(18.5490229925371,-3.10854058417356,4.46318983925762));
#890=CARTESIAN_POINT('',(18.5694313085471,-3.09677815540114,4.4697227937364));
#891=CARTESIAN_POINT('',(18.587863659756,-3.08223700787133,4.47824369632747));
#892=CARTESIAN_POINT('',(18.6034975564341,-3.06614459325035,4.48794673984664));
#893=CARTESIAN_POINT('',(18.6212907042856,-3.04782959996789,4.49898990403662));
#894=CARTESIAN_POINT('',(18.6358872076088,-3.0271150727426,4.51179469243286));
#895=CARTESIAN_POINT('',(18.6469179240441,-3.00547477570414,4.52535962530183));
#896=CARTESIAN_POINT('',(18.6598377358326,-2.98012841072201,4.54124765765389));
#897=CARTESIAN_POINT('',(18.6681846830405,-2.95293556695353,4.5585367297689));
#898=CARTESIAN_POINT('',(18.6718968071989,-2.92568615046804,4.57601468050431));
#899=CARTESIAN_POINT('',(18.6761478218326,-2.89448092583332,4.59602991199168));
#900=CARTESIAN_POINT('',(18.6744246055304,-2.86239811470571,4.61680651529886));
#901=CARTESIAN_POINT('',(18.6668467817522,-2.83181486557676,4.63679871680133));
#902=CARTESIAN_POINT('',(18.6588199343601,-2.79941940736884,4.65797555532253));
#903=CARTESIAN_POINT('',(18.6439191438374,-2.76771680503977,4.67892042323368));
#904=CARTESIAN_POINT('',(18.6227407157867,-2.74003459325007,4.69756241392788));
#905=CARTESIAN_POINT('',(18.6060141647382,-2.71817140644847,4.71228570728309));
#906=CARTESIAN_POINT('',(18.5849094552768,-2.69825502801605,4.72595549454425));
#907=CARTESIAN_POINT('',(18.5605196623696,-2.68238712139518,4.73726475427859));
#908=CARTESIAN_POINT('',(18.535997374093,-2.66643301379027,4.74863545055533));
#909=CARTESIAN_POINT('',(18.5072707029408,-2.65414359200132,4.75794215731482));
#910=CARTESIAN_POINT('',(18.4771345288096,-2.64761261108295,4.76380101407897));
#911=CARTESIAN_POINT('',(18.4511520880193,-2.64198180923416,4.76885233208338));
#912=CARTESIAN_POINT('',(18.4232980106792,-2.64048218531781,4.77148598677789));
#913=CARTESIAN_POINT('',(18.3964049088071,-2.64348915253264,4.77131808105974));
#914=CARTESIAN_POINT('',(18.372276372615,-2.64618700857084,4.77116743576726));
#915=CARTESIAN_POINT('',(18.348251408119,-2.65255693339051,4.76877546788651));
#916=CARTESIAN_POINT('',(18.3262730464658,-2.66191201428486,4.76442558737277));
#917=CARTESIAN_POINT('',(18.3043578573,-2.67124020583512,4.76008820973691));
#918=CARTESIAN_POINT('',(18.2839160975764,-2.68373422861247,4.75371657801364));
#919=CARTESIAN_POINT('',(18.2661560313907,-2.6982222524133,4.74592037804461));
#920=CARTESIAN_POINT('',(18.2469020475497,-2.71392896055467,4.73746838768286));
#921=CARTESIAN_POINT('',(18.2303265956405,-2.73231874237821,4.72716127064454));
#922=CARTESIAN_POINT('',(18.2170706360076,-2.75192756025351,4.71581990779841));
#923=CARTESIAN_POINT('',(18.2019879022855,-2.774238625375,4.70291561715552));
#924=CARTESIAN_POINT('',(18.1908306202895,-2.79862234729073,4.68838729449012));
#925=CARTESIAN_POINT('',(18.1837712369799,-2.82337460813803,4.67324517143495));
#926=CARTESIAN_POINT('',(18.1756411991087,-2.85188089675584,4.65580653288958));
#927=CARTESIAN_POINT('',(18.1727335737708,-2.88155095111876,4.63714089213533));
#928=CARTESIAN_POINT('',(18.1748656714155,-2.91037981918949,4.61850859098226));
#929=CARTESIAN_POINT('',(18.1772450778138,-2.9425526389057,4.59771507025072));
#930=CARTESIAN_POINT('',(18.1859731088816,-2.97454804429114,4.57639828221518));
#931=CARTESIAN_POINT('',(18.2005985186565,-3.00378542465844,4.55628869778671));
#932=CARTESIAN_POINT('',(18.2155466954665,-3.03366804250745,4.53573531649779));
#933=CARTESIAN_POINT('',(18.2372188881361,-3.0616358259462,4.51577134344109));
#934=CARTESIAN_POINT('',(18.2644437635958,-3.08425008281171,4.49885206850141));
#935=CARTESIAN_POINT('',(18.2644437635958,-3.08425008281171,4.49885206850141));
#936=CARTESIAN_POINT('',(18.0597676245264,3.67839784234172,4.50563256375777));
#937=CARTESIAN_POINT('',(18.0356100652441,3.65855055616959,4.51940412388238));
#938=CARTESIAN_POINT('',(18.0157805853043,3.63452950839394,4.53574249155047));
#939=CARTESIAN_POINT('',(18.0011702340267,3.60884666613231,4.55289147274604));
#940=CARTESIAN_POINT('',(17.9866197430064,3.58326904937286,4.56997019263097));
#941=CARTESIAN_POINT('',(17.9768030805704,3.55537563681437,4.58830073084917));
#942=CARTESIAN_POINT('',(17.9719992410951,3.52709178476161,4.60659173356319));
#943=CARTESIAN_POINT('',(17.9666184234655,3.49541082403372,4.62707962671069));
#944=CARTESIAN_POINT('',(17.9673979979401,3.46238104380655,4.64807079908223));
#945=CARTESIAN_POINT('',(17.9745060724164,3.43062428108572,4.66790444562951));
#946=CARTESIAN_POINT('',(17.9817975744335,3.3980480186658,4.68824990969169));
#947=CARTESIAN_POINT('',(17.9960613178924,3.3657637549157,4.70802770117018));
#948=CARTESIAN_POINT('',(18.0168653391181,3.33739344029042,4.72507571371503));
#949=CARTESIAN_POINT('',(18.0325858257746,3.31595551020601,4.73795798540788));
#950=CARTESIAN_POINT('',(18.0524702274793,3.29620409879902,4.74961409199266));
#951=CARTESIAN_POINT('',(18.0754772228242,3.28016155712826,4.75888698220738));
#952=CARTESIAN_POINT('',(18.0985971647392,3.26404025897356,4.76820539514813));
#953=CARTESIAN_POINT('',(18.125670332595,3.25123468551956,4.77536466948463));
#954=CARTESIAN_POINT('',(18.1541002364012,3.24365921937805,4.77931608320535));
#955=CARTESIAN_POINT('',(18.179028451533,3.2370168173852,4.78278080443607));
#956=CARTESIAN_POINT('',(18.2057519099729,3.23420482511833,4.78387962818252));
#957=CARTESIAN_POINT('',(18.2317064368968,3.23558098326487,4.78246173255519));
#958=CARTESIAN_POINT('',(18.255719351047,3.23685419342688,4.78114990722033));
#959=CARTESIAN_POINT('',(18.2797189394131,3.24171284435736,4.77766801840907));
#960=CARTESIAN_POINT('',(18.3018724700316,3.24955265858375,4.77240300275433));
#961=CARTESIAN_POINT('',(18.3245303675242,3.25757096095559,4.76701811909598));
#962=CARTESIAN_POINT('',(18.3458237730364,3.26886866930878,4.75965570504952));
#963=CARTESIAN_POINT('',(18.3645331543904,3.28233766192047,4.75098300356144));
#964=CARTESIAN_POINT('',(18.3851187871856,3.29715737887312,4.74144056895081));
#965=CARTESIAN_POINT('',(18.403074571416,3.31492154706301,4.73010548788197));
#966=CARTESIAN_POINT('',(18.4176768950183,3.3341792015939,4.71784313762527));
#967=CARTESIAN_POINT('',(18.4343723820114,3.3561973357961,4.70382304638553));
#968=CARTESIAN_POINT('',(18.4470926131166,3.38065913298677,4.68827572635774));
#969=CARTESIAN_POINT('',(18.4555193272285,3.40581112504429,4.67226109982854));
#970=CARTESIAN_POINT('',(18.4651653497767,3.43460249962958,4.65392922733941));
#971=CARTESIAN_POINT('',(18.4694350807142,3.46499952666139,4.63453685545474));
#972=CARTESIAN_POINT('',(18.4682840226985,3.49486009527141,4.61543010119875));
#973=CARTESIAN_POINT('',(18.4670240310794,3.52754660253568,4.59451512566892));
#974=CARTESIAN_POINT('',(18.4592126072601,3.56052103586546,4.5733453138319));
#975=CARTESIAN_POINT('',(18.445025898919,3.59092904913736,4.5538127366151));
#976=CARTESIAN_POINT('',(18.4309556983328,3.62108733785905,4.53444056988011));
#977=CARTESIAN_POINT('',(18.4100271738155,3.64974863635291,4.51602085902677));
#978=CARTESIAN_POINT('',(18.3833370040872,3.67316307444541,4.5011154004344));
#979=CARTESIAN_POINT('',(18.3646552125049,3.68955201677554,4.49068232062657));
#980=CARTESIAN_POINT('',(18.3426549764659,3.7037778868626,4.4817162222286));
#981=CARTESIAN_POINT('',(18.3186758148637,3.71426896329978,4.47528247948083));
#982=CARTESIAN_POINT('',(18.2945861051919,3.72480840540828,4.46881907606963));
#983=CARTESIAN_POINT('',(18.2677269370953,3.73181898938806,4.46477260337253));
#984=CARTESIAN_POINT('',(18.2407744110445,3.7342333063138,4.46382289344073));
#985=CARTESIAN_POINT('',(18.2167794790003,3.73638269188372,4.46297739846811));
#986=CARTESIAN_POINT('',(18.1920412567384,3.73496707063775,4.46455071322243));
#987=CARTESIAN_POINT('',(18.1687079021217,3.73022781281772,4.468317075065));
#988=CARTESIAN_POINT('',(18.1460420721615,3.72562413650752,4.47197568817465));
#989=CARTESIAN_POINT('',(18.1241242683968,3.71781204389515,4.47776506366555));
#990=CARTESIAN_POINT('',(18.104324152776,3.70765069007977,4.48504664613684));
#991=CARTESIAN_POINT('',(18.0882192681649,3.69938571659055,4.49096929061692));
#992=CARTESIAN_POINT('',(18.0732353657427,3.68946262379743,4.49795497490415));
#993=CARTESIAN_POINT('',(18.0597676245264,3.67839784234172,4.50563256375777));
#994=CARTESIAN_POINT('',(18.0597676245264,3.67839784234172,4.50563256375777));
#995=CARTESIAN_POINT('',(22.0764985260803,0.3,4.01102389294503));
#996=CARTESIAN_POINT('',(22.0764985260803,8.25299705216066,4.01102389294503));
#997=CARTESIAN_POINT('',(14.1235014739197,8.25299705216066,4.01102389294503));
#998=CARTESIAN_POINT('',(14.1235014739197,0.3,4.01102389294503));
#999=CARTESIAN_POINT('',(14.1235014739197,-7.65299705216066,4.01102389294503));
#1000=CARTESIAN_POINT('',(22.0764985260803,-7.65299705216066,4.01102389294503));
#1001=CARTESIAN_POINT('',(22.0764985260803,0.3,4.01102389294503));
#1002=CARTESIAN_POINT('',(21.6461840013312,0.3,4.42731618551937));
#1003=CARTESIAN_POINT('',(21.6461840013312,7.39236800266232,4.42731618551937));
#1004=CARTESIAN_POINT('',(14.5538159986688,7.39236800266232,4.42731618551937));
#1005=CARTESIAN_POINT('',(14.5538159986688,0.3,4.42731618551937));
#1006=CARTESIAN_POINT('',(14.5538159986688,-6.79236800266232,4.42731618551937));
#1007=CARTESIAN_POINT('',(21.6461840013312,-6.79236800266232,4.42731618551937));
#1008=CARTESIAN_POINT('',(21.6461840013312,0.3,4.42731618551937));
#1009=CARTESIAN_POINT('',(21.1487391775481,0.3,4.76051058877123));
#1010=CARTESIAN_POINT('',(21.1487391775481,6.39747835509625,4.76051058877123));
#1011=CARTESIAN_POINT('',(15.0512608224519,6.39747835509625,4.76051058877123));
#1012=CARTESIAN_POINT('',(15.0512608224519,0.3,4.76051058877123));
#1013=CARTESIAN_POINT('',(15.0512608224519,-5.79747835509625,4.76051058877123));
#1014=CARTESIAN_POINT('',(21.1487391775481,-5.79747835509625,4.76051058877123));
#1015=CARTESIAN_POINT('',(21.1487391775481,0.3,4.76051058877123));
#1016=CARTESIAN_POINT('',(20.6,0.3,5.));
#1017=CARTESIAN_POINT('',(20.6,5.3,5.));
#1018=CARTESIAN_POINT('',(15.6,5.3,5.));
#1019=CARTESIAN_POINT('',(15.6,0.3,5.));
#1020=CARTESIAN_POINT('',(15.6,-4.7,5.));
#1021=CARTESIAN_POINT('',(20.6,-4.7,5.));
#1022=CARTESIAN_POINT('',(20.6,0.3,5.));
#1023=CARTESIAN_POINT('',(0.,0.,0.));
#1024=CARTESIAN_POINT('',(0.,0.,5.));
#1025=CARTESIAN_POINT('',(2.5,0.,5.));
#1026=CARTESIAN_POINT('',(0.,0.,0.));
#1027=CARTESIAN_POINT('',(2.5,0.,0.));
#1028=CARTESIAN_POINT('',(0.,0.,5.));
#1029=CARTESIAN_POINT('',(0.,0.,3.98959907487248));
#1030=CARTESIAN_POINT('',(-3.9985093130935,0.,3.98959907487248));
#1031=CARTESIAN_POINT('',(0.,0.,20.));
#1032=CARTESIAN_POINT('',(-0.063891539393297,-3.40478128966916,4.48667029756731));
#1033=CARTESIAN_POINT('',(-0.0434354111439569,-3.41605260307879,4.4788981901237));
#1034=CARTESIAN_POINT('',(-0.0205472248376732,-3.42480885762657,4.47274872166182));
#1035=CARTESIAN_POINT('',(0.00321090210841553,-3.43001828302883,4.46896525314228));
#1036=CARTESIAN_POINT('',(0.0270393894579233,-3.43524313630021,4.46517057976758));
#1037=CARTESIAN_POINT('',(0.052400958892845,-3.43699587051685,4.46368555838896));
#1038=CARTESIAN_POINT('',(0.0769857865049184,-3.4349999531064,4.46473341909966));
#1039=CARTESIAN_POINT('',(0.100335682642438,-3.43310429351633,4.4657286442502));
#1040=CARTESIAN_POINT('',(0.123598093932372,-3.42780188586738,4.4690176006732));
#1041=CARTESIAN_POINT('',(0.144999202646725,-3.41972821400022,4.4741760904127));
#1042=CARTESIAN_POINT('',(0.166819841389185,-3.41149627239898,4.47943570301338));
#1043=CARTESIAN_POINT('',(0.187248574510171,-3.40022402146596,4.48673759825758));
#1044=CARTESIAN_POINT('',(0.205195268860167,-3.38698094798579,4.49534607251676));
#1045=CARTESIAN_POINT('',(0.225225562582389,-3.37220036241277,4.50495398495728));
#1046=CARTESIAN_POINT('',(0.242643903690856,-3.35465689651126,4.51638729090375));
#1047=CARTESIAN_POINT('',(0.25683555386862,-3.33571379623164,4.52870582876231));
#1048=CARTESIAN_POINT('',(0.273359135353434,-3.31365801997416,4.54304851347691));
#1049=CARTESIAN_POINT('',(0.285908319739247,-3.28921597297223,4.55890734370895));
#1050=CARTESIAN_POINT('',(0.294197451047349,-3.26406049932378,4.57514591088426));
#1051=CARTESIAN_POINT('',(0.303780312150657,-3.23497887412073,4.59391891953543));
#1052=CARTESIAN_POINT('',(0.307911154942315,-3.20422481241979,4.61366178201963));
#1053=CARTESIAN_POINT('',(0.306474975310837,-3.17396695135023,4.63295937867711));
#1054=CARTESIAN_POINT('',(0.304913334048577,-3.1410658272023,4.65394277277508));
#1055=CARTESIAN_POINT('',(0.296684782195575,-3.10779271999272,4.675008965985));
#1056=CARTESIAN_POINT('',(0.281924866832433,-3.07719642754786,4.69427648550882));
#1057=CARTESIAN_POINT('',(0.26753426310311,-3.04736569279581,4.71306190747721));
#1058=CARTESIAN_POINT('',(0.246335982332413,-3.01907907056385,4.73076858412111));
#1059=CARTESIAN_POINT('',(0.219583216764895,-2.99611649777022,4.74515135420405));
#1060=CARTESIAN_POINT('',(0.200315583118513,-2.9795786023123,4.75550998214024));
#1061=CARTESIAN_POINT('',(0.177656829080164,-2.96538223917006,4.76441181021283));
#1062=CARTESIAN_POINT('',(0.153073289693713,-2.9551186685205,4.77091977256559));
#1063=CARTESIAN_POINT('',(0.128392677545119,-2.94481457021799,4.77745343284052));
#1064=CARTESIAN_POINT('',(0.100998374038974,-2.93823420600426,4.78173171148275));
#1065=CARTESIAN_POINT('',(0.0735652753699374,-2.93638551280162,4.78314705783706));
#1066=CARTESIAN_POINT('',(0.0488103255560948,-2.93471729777405,4.78442423138544));
#1067=CARTESIAN_POINT('',(0.0233237524952936,-2.93684298489357,4.78341379187879));
#1068=CARTESIAN_POINT('',(-0.000658365582057603,-2.94250192347943,4.78024265950341));
#1069=CARTESIAN_POINT('',(-0.0238716080289371,-2.94797943438826,4.77717319481212));
#1070=CARTESIAN_POINT('',(-0.0462789937322267,-2.95687219359087,4.77202086087054));
#1071=CARTESIAN_POINT('',(-0.0663756763115899,-2.96824550754283,4.765308898177));
#1072=CARTESIAN_POINT('',(-0.0876671084400351,-2.98029496601079,4.75819790871027));
#1073=CARTESIAN_POINT('',(-0.106889761095147,-2.99538369459766,4.74918494326966));
#1074=CARTESIAN_POINT('',(-0.123116104156255,-3.01219378292176,4.73902583779494));
#1075=CARTESIAN_POINT('',(-0.141338445170851,-3.03107167554203,4.72761706357721));
#1076=CARTESIAN_POINT('',(-0.156225266067151,-3.0525323275808,4.71451287293748));
#1077=CARTESIAN_POINT('',(-0.16732459960034,-3.07496927138742,4.70065729576714));
#1078=CARTESIAN_POINT('',(-0.180082566812954,-3.10075908954002,4.68473120446423));
#1079=CARTESIAN_POINT('',(-0.18815725812392,-3.12843349999707,4.66744412363246));
#1080=CARTESIAN_POINT('',(-0.191469635860666,-3.15608801030871,4.64995764185126));
#1081=CARTESIAN_POINT('',(-0.195212830425178,-3.18733934119842,4.63019682084656));
#1082=CARTESIAN_POINT('',(-0.192973880964909,-3.21937169334257,4.60966993278764));
#1083=CARTESIAN_POINT('',(-0.184918210866181,-3.24980041062113,4.58991274222957));
#1084=CARTESIAN_POINT('',(-0.17640700808884,-3.281949813444,4.56903832047578));
#1085=CARTESIAN_POINT('',(-0.1610917991732,-3.3133004547147,4.54837676606396));
#1086=CARTESIAN_POINT('',(-0.139563460377969,-3.34060551697408,4.53013586800852));
#1087=CARTESIAN_POINT('',(-0.12286497040323,-3.36178473162389,4.51598728663371));
#1088=CARTESIAN_POINT('',(-0.101965167267721,-3.38107323922313,4.50293488385615));
#1089=CARTESIAN_POINT('',(-0.0778913087701522,-3.39646182382782,4.49238870651825));
#1090=CARTESIAN_POINT('',(-0.0733436376066722,-3.39936880371476,4.49039648135961));
#1091=CARTESIAN_POINT('',(-0.0686727928459212,-3.40214682212169,4.48848688841981));
#1092=CARTESIAN_POINT('',(-0.063891539393297,-3.40478128966916,4.48667029756731));
#1093=CARTESIAN_POINT('',(-0.063891539393297,-3.40478128966916,4.48667029756731));
#1094=CARTESIAN_POINT('',(-0.158331310049827,3.46551143066462,4.44039437248444));
#1095=CARTESIAN_POINT('',(-0.183781938188696,3.45051362956222,4.45059457720783));
#1096=CARTESIAN_POINT('',(-0.205971778014251,3.43122206702006,4.46373289286374));
#1097=CARTESIAN_POINT('',(-0.223683824948981,3.40990779595804,4.47817927405231));
#1098=CARTESIAN_POINT('',(-0.24130407894643,3.3887039864115,4.49255078666318));
#1099=CARTESIAN_POINT('',(-0.255025959434863,3.36497337381015,4.50857166963862));
#1100=CARTESIAN_POINT('',(-0.264543351356549,3.3403918088375,4.52505745683393));
#1101=CARTESIAN_POINT('',(-0.275514156541931,3.31205636119745,4.54406080997265));
#1102=CARTESIAN_POINT('',(-0.281176788600077,3.28190097563518,4.56414260427851));
#1103=CARTESIAN_POINT('',(-0.281400546500272,3.25199785876024,4.58389449338965));
#1104=CARTESIAN_POINT('',(-0.281647844685889,3.21894880645383,4.60572436547672));
#1105=CARTESIAN_POINT('',(-0.275224512301932,3.18526250899684,4.62777309164715));
#1106=CARTESIAN_POINT('',(-0.262149051139805,3.15390686200795,4.64813727705654));
#1107=CARTESIAN_POINT('',(-0.249224232941936,3.12291246480979,4.66826684578843));
#1108=CARTESIAN_POINT('',(-0.229249148696594,3.09314917838163,4.68742938149731));
#1109=CARTESIAN_POINT('',(-0.20322620321827,3.06852780232776,4.70322486408894));
#1110=CARTESIAN_POINT('',(-0.184697874250571,3.05099739034793,4.71447124270911));
#1111=CARTESIAN_POINT('',(-0.162612402510803,3.03563257082769,4.72429802876841));
#1112=CARTESIAN_POINT('',(-0.138311681658495,3.02413716426052,4.73167542292215));
#1113=CARTESIAN_POINT('',(-0.113902523500701,3.01259046164658,4.73908573728219));
#1114=CARTESIAN_POINT('',(-0.0864684020456761,3.0046724645601,4.74420595953255));
#1115=CARTESIAN_POINT('',(-0.0587117025147458,3.00162272778285,4.74628221550922));
#1116=CARTESIAN_POINT('',(-0.0339869743591196,2.99890612551968,4.74813167403535));
#1117=CARTESIAN_POINT('',(-0.00829576561515304,2.99996700973915,4.74762421080498));
#1118=CARTESIAN_POINT('',(0.0160385736752451,3.00467077687654,4.74482651298663));
#1119=CARTESIAN_POINT('',(0.0392651026209652,3.00916040703524,4.74215617915986));
#1120=CARTESIAN_POINT('',(0.0618631830881376,3.01704794694799,4.73735212999497));
#1121=CARTESIAN_POINT('',(0.0822772742814466,3.02747106912716,4.73091920582597));
#1122=CARTESIAN_POINT('',(0.103775796997595,3.03844788542626,4.72414455369627));
#1123=CARTESIAN_POINT('',(0.123381411106634,3.0524646263486,4.71542157248029));
#1124=CARTESIAN_POINT('',(0.140130668339635,3.06826287204613,4.70549933979089));
#1125=CARTESIAN_POINT('',(0.158951518725999,3.08601508723418,4.69434989869341));
#1126=CARTESIAN_POINT('',(0.174619959813418,3.10639781352869,4.68144559381365));
#1127=CARTESIAN_POINT('',(0.186654122054747,3.12786067053033,4.66772698241848));
#1128=CARTESIAN_POINT('',(0.200571449292613,3.15268214113718,4.65186161512436));
#1129=CARTESIAN_POINT('',(0.209972990284661,3.17950951752225,4.63454724823994));
#1130=CARTESIAN_POINT('',(0.214756533548093,3.20650100897588,4.61693803522899));
#1131=CARTESIAN_POINT('',(0.220224760961258,3.23735588063917,4.59680835812398));
#1132=CARTESIAN_POINT('',(0.21980370448137,3.26920243028463,4.57578481371134));
#1133=CARTESIAN_POINT('',(0.213619590732659,3.29974276935954,4.55538449648134));
#1134=CARTESIAN_POINT('',(0.206980679461252,3.3325291328638,4.533483881211));
#1135=CARTESIAN_POINT('',(0.193459481007855,3.3648028143134,4.51163556013054));
#1136=CARTESIAN_POINT('',(0.173480913005198,3.39337776939386,4.49206551959313));
#1137=CARTESIAN_POINT('',(0.157806885010539,3.41579602508754,4.47671199860007));
#1138=CARTESIAN_POINT('',(0.137721897999113,3.43651296330502,4.4623695303484));
#1139=CARTESIAN_POINT('',(0.114091534801506,3.45342507538662,4.45055554080644));
#1140=CARTESIAN_POINT('',(0.0942514960706928,3.46762447452039,4.44063652229123));
#1141=CARTESIAN_POINT('',(0.0713919350404788,3.47945824960958,4.43228064110938));
#1142=CARTESIAN_POINT('',(0.0469889124545757,3.48751718557589,4.42652016884852));
#1143=CARTESIAN_POINT('',(0.0224763660183654,3.4956122910656,4.42073384285994));
#1144=CARTESIAN_POINT('',(-0.00436145486619477,3.50006388684673,4.41744934055486));
#1145=CARTESIAN_POINT('',(-0.0308156449069816,3.50012651999064,4.41722766399266));
#1146=CARTESIAN_POINT('',(-0.0544271925811137,3.50018242287261,4.41702980774726));
#1147=CARTESIAN_POINT('',(-0.0783814830064678,3.49676930841265,4.41924810450677));
#1148=CARTESIAN_POINT('',(-0.100685952700564,3.49033650911813,4.42356981489682));
#1149=CARTESIAN_POINT('',(-0.121145979554346,3.48443566287001,4.42753414634461));
#1150=CARTESIAN_POINT('',(-0.140692458403946,3.47590582986049,4.43332500284481));
#1151=CARTESIAN_POINT('',(-0.158331310049827,3.46551143066462,4.44039437248444));
#1152=CARTESIAN_POINT('',(-0.158331310049827,3.46551143066462,4.44039437248444));
#1153=CARTESIAN_POINT('',(3.9985093130935,0.,3.98959907487248));
#1154=CARTESIAN_POINT('',(3.9985093130935,7.99701862618701,3.98959907487248));
#1155=CARTESIAN_POINT('',(-3.9985093130935,7.99701862618701,3.98959907487248));
#1156=CARTESIAN_POINT('',(-3.9985093130935,0.,3.98959907487248));
#1157=CARTESIAN_POINT('',(-3.9985093130935,-7.99701862618701,3.98959907487248));
#1158=CARTESIAN_POINT('',(3.9985093130935,-7.99701862618701,3.98959907487248));
#1159=CARTESIAN_POINT('',(3.9985093130935,0.,3.98959907487248));
#1160=CARTESIAN_POINT('',(3.56332515696268,0.,4.41580885497448));
#1161=CARTESIAN_POINT('',(3.56332515696268,7.12665031392536,4.41580885497448));
#1162=CARTESIAN_POINT('',(-3.56332515696268,7.12665031392536,4.41580885497448));
#1163=CARTESIAN_POINT('',(-3.56332515696268,0.,4.41580885497448));
#1164=CARTESIAN_POINT('',(-3.56332515696268,-7.12665031392536,4.41580885497448));
#1165=CARTESIAN_POINT('',(3.56332515696268,-7.12665031392536,4.41580885497448));
#1166=CARTESIAN_POINT('',(3.56332515696268,0.,4.41580885497448));
#1167=CARTESIAN_POINT('',(3.0582773702897,0.,4.75634778017777));
#1168=CARTESIAN_POINT('',(3.0582773702897,6.1165547405794,4.75634778017777));
#1169=CARTESIAN_POINT('',(-3.0582773702897,6.1165547405794,4.75634778017777));
#1170=CARTESIAN_POINT('',(-3.0582773702897,0.,4.75634778017777));
#1171=CARTESIAN_POINT('',(-3.0582773702897,-6.1165547405794,4.75634778017777));
#1172=CARTESIAN_POINT('',(3.0582773702897,-6.1165547405794,4.75634778017777));
#1173=CARTESIAN_POINT('',(3.0582773702897,0.,4.75634778017777));
#1174=CARTESIAN_POINT('',(2.5,0.,5.));
#1175=CARTESIAN_POINT('',(2.5,5.,5.));
#1176=CARTESIAN_POINT('',(-2.5,5.,5.));
#1177=CARTESIAN_POINT('',(-2.5,0.,5.));
#1178=CARTESIAN_POINT('',(-2.5,-5.,5.));
#1179=CARTESIAN_POINT('',(2.5,-5.,5.));
#1180=CARTESIAN_POINT('',(2.5,0.,5.));
#1181=CARTESIAN_POINT('',(0.,0.,0.));
#1182=CARTESIAN_POINT('',(-0.0314075451718629,3.25012722068347,9.));
#1183=CARTESIAN_POINT('',(0.056756112327399,-3.18581977676271,9.));
#1184=CARTESIAN_POINT('',(18.2184695571755,3.48523030734816,9.));
#1185=CARTESIAN_POINT('',(18.4241847580071,-2.89194091843183,9.));
#1186=CARTESIAN_POINT('',(9.288107325494,-4.77409649251398,0.));
#1187=CARTESIAN_POINT('',(9.2421887538798,5.05247783292467,0.));
#1188=CARTESIAN_POINT('',(-7.99850931309351,7.9985093130935,0.));
#1189=CARTESIAN_POINT('',(-7.9985093130935,7.9985093130935,0.));
#1190=CARTESIAN_POINT('',(-7.9985093130935,-7.67649852608034,0.));
#1191=CARTESIAN_POINT('',(-7.99850931309351,7.9985093130935,9.));
#1192=CARTESIAN_POINT('',(-7.99850931309351,7.9985093130935,-9.));
#1193=CARTESIAN_POINT('',(-7.99850931309351,7.9985093130935,-9.));
#1194=CARTESIAN_POINT('',(-7.9985093130935,-7.67649852608034,-9.));
#1195=CARTESIAN_POINT('',(-7.9985093130935,-7.67649852608034,9.));
#1196=CARTESIAN_POINT('',(-7.99850931309351,7.9985093130935,9.));
#1197=CARTESIAN_POINT('',(-7.9985093130935,-7.67649852608034,0.));
#1198=CARTESIAN_POINT('',(26.0764985260803,-7.67649852608033,0.));
#1199=CARTESIAN_POINT('',(-7.9985093130935,-7.67649852608034,-9.));
#1200=CARTESIAN_POINT('',(26.0764985260803,-7.67649852608033,-9.));
#1201=CARTESIAN_POINT('',(26.0764985260803,-7.67649852608033,9.));
#1202=CARTESIAN_POINT('',(-7.9985093130935,-7.67649852608034,9.));
#1203=CARTESIAN_POINT('',(26.0764985260803,-7.67649852608033,0.));
#1204=CARTESIAN_POINT('',(26.0764985260803,7.99850931309351,0.));
#1205=CARTESIAN_POINT('',(26.0764985260803,-7.67649852608033,-9.));
#1206=CARTESIAN_POINT('',(26.0764985260803,7.99850931309351,-9.));
#1207=CARTESIAN_POINT('',(26.0764985260803,7.99850931309351,9.));
#1208=CARTESIAN_POINT('',(26.0764985260803,-7.67649852608033,9.));
#1209=CARTESIAN_POINT('',(26.0764985260803,7.9985093130935,0.));
#1210=CARTESIAN_POINT('',(26.0764985260803,7.9985093130935,-9.));
#1211=CARTESIAN_POINT('',(26.0764985260803,7.9985093130935,9.));
#1212=CARTESIAN_POINT('',(18.4241847580071,-2.89194091843183,-9.));
#1213=CARTESIAN_POINT('',(18.6741847580071,-2.89194091843183,-9.));
#1214=CARTESIAN_POINT('',(18.2184695571755,3.48523030734816,-9.));
#1215=CARTESIAN_POINT('',(18.4684695571755,3.48523030734816,-9.));
#1216=CARTESIAN_POINT('',(0.056756112327399,-3.18581977676271,-9.));
#1217=CARTESIAN_POINT('',(0.306756112327399,-3.18581977676271,-9.));
#1218=CARTESIAN_POINT('',(-0.0314075451718629,3.25012722068347,-9.));
#1219=CARTESIAN_POINT('',(0.218592454828137,3.25012722068347,-9.));
#1220=CARTESIAN_POINT('',(0.,0.,-9.));
#1221=CARTESIAN_POINT('',(9.2421887538798,5.05247783292467,0.));
#1222=CARTESIAN_POINT('',(10.7421887538798,5.05247783292467,0.));
#1223=CARTESIAN_POINT('',(9.288107325494,-4.77409649251398,0.));
#1224=CARTESIAN_POINT('',(10.788107325494,-4.77409649251398,0.));
#1225=CARTESIAN_POINT('',(0.,0.,0.));
#1226=CARTESIAN_POINT('',(3.9985093130935,0.,0.));
#1227=CARTESIAN_POINT('',(18.1,0.3,0.));
#1228=CARTESIAN_POINT('',(22.0764985260803,0.3,0.));
#1229=CARTESIAN_POINT('',(0.,0.,0.));
#1230=CARTESIAN_POINT('',(18.1,0.3,0.));
#1231=CARTESIAN_POINT('',(20.6,0.3,0.));
#1232=CARTESIAN_POINT('',(18.1,0.3,-5.));
#1233=CARTESIAN_POINT('',(20.6,0.3,-5.));
#1234=CARTESIAN_POINT('',(18.1,0.3,5.));
#1235=CARTESIAN_POINT('',(18.1970536513615,-2.99639885443457,-4.56135510427668));
#1236=CARTESIAN_POINT('',(18.1820167987217,-2.96370304298025,-4.58371931172859));
#1237=CARTESIAN_POINT('',(18.1742032395954,-2.92777310279871,-4.60745960010558));
#1238=CARTESIAN_POINT('',(18.1741847913812,-2.89207009671278,-4.63027573069365));
#1239=CARTESIAN_POINT('',(18.1741676492733,-2.85889481088676,-4.65147651283174));
#1240=CARTESIAN_POINT('',(18.18089818784,-2.82484653209758,-4.67256227898106));
#1241=CARTESIAN_POINT('',(18.1945289768204,-2.79315720435135,-4.69153755619959));
#1242=CARTESIAN_POINT('',(18.2075511520235,-2.76288280287881,-4.70966558861375));
#1243=CARTESIAN_POINT('',(18.2274501652403,-2.73371595080848,-4.72648589648828));
#1244=CARTESIAN_POINT('',(18.2531264499422,-2.70962510660532,-4.73971849337024));
#1245=CARTESIAN_POINT('',(18.2712967131126,-2.69257680759114,-4.74908276746853));
#1246=CARTESIAN_POINT('',(18.2928381451148,-2.67763439843955,-4.7568930303547));
#1247=CARTESIAN_POINT('',(18.3163508787047,-2.66639302002751,-4.76230370155853));
#1248=CARTESIAN_POINT('',(18.3399460503078,-2.65511222821005,-4.76773334312079));
#1249=CARTESIAN_POINT('',(18.3662482611718,-2.64728469802854,-4.77087168353457));
#1250=CARTESIAN_POINT('',(18.3927439582043,-2.64392584609194,-4.77127855812849));
#1251=CARTESIAN_POINT('',(18.4169682535961,-2.64085493909185,-4.77165055250698));
#1252=CARTESIAN_POINT('',(18.4420214341785,-2.6414157565027,-4.76976100836364));
#1253=CARTESIAN_POINT('',(18.4657893295452,-2.64542710618771,-4.765839075117));
#1254=CARTESIAN_POINT('',(18.4892430874169,-2.64938543833278,-4.76196897760368));
#1255=CARTESIAN_POINT('',(18.5120419429594,-2.65676638565314,-4.75604306036135));
#1256=CARTESIAN_POINT('',(18.5327022623759,-2.66672113411978,-4.74864177729618));
#1257=CARTESIAN_POINT('',(18.5549247334146,-2.67742857310163,-4.74068087430868));
#1258=CARTESIAN_POINT('',(18.5752115181028,-2.69133275741123,-4.73084329234057));
#1259=CARTESIAN_POINT('',(18.5925873860251,-2.70716928944994,-4.71992784860594));
#1260=CARTESIAN_POINT('',(18.6122825979894,-2.7251196938082,-4.70755540315465));
#1261=CARTESIAN_POINT('',(18.6287113133477,-2.74594082222565,-4.69352615536814));
#1262=CARTESIAN_POINT('',(18.6413194031299,-2.76803552755878,-4.67882731644544));
#1263=CARTESIAN_POINT('',(18.6558488661669,-2.79349729139444,-4.66188849061974));
#1264=CARTESIAN_POINT('',(18.6656669393084,-2.8212423485672,-4.64366376311513));
#1265=CARTESIAN_POINT('',(18.6705248160677,-2.849319611616,-4.62537718696758));
#1266=CARTESIAN_POINT('',(18.6759800601386,-2.8808495022166,-4.60484193235998));
#1267=CARTESIAN_POINT('',(18.6753218930624,-2.91363548915013,-4.5836819020891));
#1268=CARTESIAN_POINT('',(18.6684559984636,-2.94515333320356,-4.56355541783228));
#1269=CARTESIAN_POINT('',(18.6613295822466,-2.97786710003427,-4.54266524806104));
#1270=CARTESIAN_POINT('',(18.6472212653368,-3.01027051359784,-4.52221649120588));
#1271=CARTESIAN_POINT('',(18.6264692897872,-3.03884554124034,-4.50460402836155));
#1272=CARTESIAN_POINT('',(18.6111222892079,-3.05997803364973,-4.49157883580443));
#1273=CARTESIAN_POINT('',(18.5917203300347,-3.07955197288043,-4.47978078684481));
#1274=CARTESIAN_POINT('',(18.5691723379999,-3.09560387934477,-4.47052375398211));
#1275=CARTESIAN_POINT('',(18.5464936494775,-3.11174882858609,-4.46121306393882));
#1276=CARTESIAN_POINT('',(18.5198111156918,-3.12476207621454,-4.45424255087018));
#1277=CARTESIAN_POINT('',(18.4917394274846,-3.13264066216202,-4.45083969135947));
#1278=CARTESIAN_POINT('',(18.4676027104536,-3.13941486107075,-4.44791383038166));
#1279=CARTESIAN_POINT('',(18.4417152652,-3.14258942130476,-4.44754380313943));
#1280=CARTESIAN_POINT('',(18.4165874513621,-3.14182545363107,-4.44978899076487));
#1281=CARTESIAN_POINT('',(18.3934477584268,-3.14112193133122,-4.45185653840629));
#1282=CARTESIAN_POINT('',(18.3703453429166,-3.13710464401183,-4.45616450578129));
#1283=CARTESIAN_POINT('',(18.3489378285259,-3.13034792253122,-4.46218780458344));
#1284=CARTESIAN_POINT('',(18.3265408381591,-3.1232788988627,-4.46848950606945));
#1285=CARTESIAN_POINT('',(18.305454982962,-3.11308383001393,-4.47679039241166));
#1286=CARTESIAN_POINT('',(18.2867581355343,-3.10078038653047,-4.48629622690691));
#1287=CARTESIAN_POINT('',(18.2655411782976,-3.08681858707396,-4.49708333338388));
#1288=CARTESIAN_POINT('',(18.2469002033805,-3.06985515315783,-4.50964640656585));
#1289=CARTESIAN_POINT('',(18.2315108704656,-3.05124180687773,-4.52299423625045));
#1290=CARTESIAN_POINT('',(18.2175169776627,-3.03431624070864,-4.53513174076687));
#1291=CARTESIAN_POINT('',(18.2059585911472,-3.01576156551465,-4.54811084857178));
#1292=CARTESIAN_POINT('',(18.1970536513615,-2.99639885443457,-4.56135510427668));
#1293=CARTESIAN_POINT('',(18.1970536513615,-2.99639885443457,-4.56135510427668));
#1294=CARTESIAN_POINT('',(18.0520119799732,3.29870450486508,-4.7480774771277));
#1295=CARTESIAN_POINT('',(18.0292852156094,3.31898610709948,-4.73616522844277));
#1296=CARTESIAN_POINT('',(18.0107764594713,3.34313031650143,-4.72171040894281));
#1297=CARTESIAN_POINT('',(17.9973449549382,3.36859450544592,-4.70618879034968));
#1298=CARTESIAN_POINT('',(17.9839699651962,3.39395155052461,-4.6907324809727));
#1299=CARTESIAN_POINT('',(17.975213579925,3.4212658321584,-4.67382497121797));
#1300=CARTESIAN_POINT('',(17.9711639708648,3.44862502112431,-4.65662488311166));
#1301=CARTESIAN_POINT('',(17.9666063095119,3.47941661516358,-4.63726692147512));
#1302=CARTESIAN_POINT('',(17.9678858088475,3.51104834985497,-4.61704485876703));
#1303=CARTESIAN_POINT('',(17.974821262718,3.5412259197471,-4.5974275456425));
#1304=CARTESIAN_POINT('',(17.982242419417,3.57351688139843,-4.57643639532554));
#1305=CARTESIAN_POINT('',(17.9964008922221,3.60511283035573,-4.55550405459068));
#1306=CARTESIAN_POINT('',(18.0167461919717,3.63290455673121,-4.53673980971059));
#1307=CARTESIAN_POINT('',(18.0329643663968,3.65505862039608,-4.52178196685908));
#1308=CARTESIAN_POINT('',(18.0535655238649,3.67536685506809,-4.50781793320272));
#1309=CARTESIAN_POINT('',(18.0775823353419,3.69175098603195,-4.49631481187168));
#1310=CARTESIAN_POINT('',(18.0979110560481,3.70561912263689,-4.48657814299654));
#1311=CARTESIAN_POINT('',(18.1212204848947,3.71698688716913,-4.47838658268036));
#1312=CARTESIAN_POINT('',(18.1459644968283,3.72448543524314,-4.47273941795424));
#1313=CARTESIAN_POINT('',(18.1708137605721,3.73201587934764,-4.4670682322928));
#1314=CARTESIAN_POINT('',(18.197880921813,3.73579448618614,-4.46384589056023));
#1315=CARTESIAN_POINT('',(18.2244496156842,3.73515877491485,-4.46360878090813));
#1316=CARTESIAN_POINT('',(18.2482817626067,3.7345885412221,-4.46339609329568));
#1317=CARTESIAN_POINT('',(18.2723686110469,3.73047551308609,-4.46556255533938));
#1318=CARTESIAN_POINT('',(18.2947100151604,3.72332145074971,-4.46980786849018));
#1319=CARTESIAN_POINT('',(18.3167674192474,3.71625832960404,-4.4739992159618));
#1320=CARTESIAN_POINT('',(18.3376834873295,3.70609778303328,-4.48029076633855));
#1321=CARTESIAN_POINT('',(18.3562377859332,3.69384458093689,-4.48800965166724));
#1322=CARTESIAN_POINT('',(18.3765655634445,3.68042017878969,-4.49646633262013));
#1323=CARTESIAN_POINT('',(18.3945489131068,3.66420668923431,-4.50680755824454));
#1324=CARTESIAN_POINT('',(18.409491136198,3.64650881288365,-4.51814174132337));
#1325=CARTESIAN_POINT('',(18.4267819812843,3.6260291803371,-4.53125743385452));
#1326=CARTESIAN_POINT('',(18.4404168393238,3.60311584477019,-4.54598597332796));
#1327=CARTESIAN_POINT('',(18.4500720795978,3.57935932310652,-4.5612442195348));
#1328=CARTESIAN_POINT('',(18.461312153303,3.55170335112618,-4.5790069895034));
#1329=CARTESIAN_POINT('',(18.4674404073562,3.52224354389381,-4.5979103957913));
#1330=CARTESIAN_POINT('',(18.468349032682,3.49299224786648,-4.61662520599001));
#1331=CARTESIAN_POINT('',(18.4693580551805,3.46050887439617,-4.63740788066339));
#1332=CARTESIAN_POINT('',(18.4639329043145,3.42737860417044,-4.65853455477723));
#1333=CARTESIAN_POINT('',(18.4521518903598,3.39639018602047,-4.67825847162346));
#1334=CARTESIAN_POINT('',(18.4403031443859,3.36522360764201,-4.69809578624027));
#1335=CARTESIAN_POINT('',(18.4215436635622,3.33520516799571,-4.71716309042805));
#1336=CARTESIAN_POINT('',(18.396798502815,3.31001961376152,-4.73324513997696));
#1337=CARTESIAN_POINT('',(18.3785259920729,3.29142190429461,-4.74512056993026));
#1338=CARTESIAN_POINT('',(18.3564993845562,3.27498762135126,-4.75567399148528));
#1339=CARTESIAN_POINT('',(18.3320333120503,3.26251238355498,-4.76383273041179));
#1340=CARTESIAN_POINT('',(18.3074553861434,3.24998011176708,-4.77202876926438));
#1341=CARTESIAN_POINT('',(18.2796042741591,3.24113529918801,-4.77801753603058));
#1342=CARTESIAN_POINT('',(18.2512183869974,3.23738456067234,-4.78092970044072));
#1343=CARTESIAN_POINT('',(18.2260668785477,3.2340611932915,-4.78351004352991));
#1344=CARTESIAN_POINT('',(18.1997575678074,3.23463974428822,-4.78375177740349));
#1345=CARTESIAN_POINT('',(18.1747374097963,3.23908502649638,-4.78162281575785));
#1346=CARTESIAN_POINT('',(18.151174759516,3.24327135617589,-4.77961787323533));
#1347=CARTESIAN_POINT('',(18.1281293341019,3.25096255407188,-4.77547755932282));
#1348=CARTESIAN_POINT('',(18.1072643551539,3.26132541002938,-4.769645963586));
#1349=CARTESIAN_POINT('',(18.0869605784949,3.27140953776489,-4.76397121942734));
#1350=CARTESIAN_POINT('',(18.0682505045167,3.28421307558286,-4.75658891055084));
#1351=CARTESIAN_POINT('',(18.0520119799732,3.29870450486508,-4.7480774771277));
#1352=CARTESIAN_POINT('',(18.0520119799732,3.29870450486508,-4.7480774771277));
#1353=CARTESIAN_POINT('',(18.1,0.3,-4.01102389294503));
#1354=CARTESIAN_POINT('',(22.0764985260803,0.3,-4.01102389294503));
#1355=CARTESIAN_POINT('',(14.1235014739197,0.3,-4.01102389294503));
#1356=CARTESIAN_POINT('',(14.1235014739197,8.25299705216066,-4.01102389294503));
#1357=CARTESIAN_POINT('',(22.0764985260803,8.25299705216066,-4.01102389294503));
#1358=CARTESIAN_POINT('',(22.0764985260803,0.3,-4.01102389294503));
#1359=CARTESIAN_POINT('',(22.0764985260803,-7.65299705216066,-4.01102389294503));
#1360=CARTESIAN_POINT('',(14.1235014739197,-7.65299705216066,-4.01102389294503));
#1361=CARTESIAN_POINT('',(14.1235014739197,0.3,-4.01102389294503));
#1362=CARTESIAN_POINT('',(14.5538159986688,0.3,-4.42731618551936));
#1363=CARTESIAN_POINT('',(14.5538159986688,7.39236800266233,-4.42731618551936));
#1364=CARTESIAN_POINT('',(21.6461840013312,7.39236800266232,-4.42731618551936));
#1365=CARTESIAN_POINT('',(21.6461840013312,0.3,-4.42731618551936));
#1366=CARTESIAN_POINT('',(21.6461840013312,-6.79236800266232,-4.42731618551936));
#1367=CARTESIAN_POINT('',(14.5538159986688,-6.79236800266232,-4.42731618551936));
#1368=CARTESIAN_POINT('',(14.5538159986688,0.3,-4.42731618551936));
#1369=CARTESIAN_POINT('',(15.0512608224519,0.3,-4.76051058877123));
#1370=CARTESIAN_POINT('',(15.0512608224519,6.39747835509626,-4.76051058877123));
#1371=CARTESIAN_POINT('',(21.1487391775481,6.39747835509625,-4.76051058877123));
#1372=CARTESIAN_POINT('',(21.1487391775481,0.3,-4.76051058877123));
#1373=CARTESIAN_POINT('',(21.1487391775481,-5.79747835509625,-4.76051058877123));
#1374=CARTESIAN_POINT('',(15.0512608224519,-5.79747835509625,-4.76051058877123));
#1375=CARTESIAN_POINT('',(15.0512608224519,0.3,-4.76051058877123));
#1376=CARTESIAN_POINT('',(15.6,0.3,-5.));
#1377=CARTESIAN_POINT('',(15.6,5.3,-5.));
#1378=CARTESIAN_POINT('',(20.6,5.3,-5.));
#1379=CARTESIAN_POINT('',(20.6,0.3,-5.));
#1380=CARTESIAN_POINT('',(20.6,-4.7,-5.));
#1381=CARTESIAN_POINT('',(15.6,-4.7,-5.));
#1382=CARTESIAN_POINT('',(15.6,0.3,-5.));
#1383=CARTESIAN_POINT('',(18.1,0.3,20.));
#1384=CARTESIAN_POINT('',(0.,0.,0.));
#1385=CARTESIAN_POINT('',(0.,0.,0.));
#1386=CARTESIAN_POINT('',(2.5,0.,0.));
#1387=CARTESIAN_POINT('',(0.,0.,-5.));
#1388=CARTESIAN_POINT('',(2.5,0.,-5.));
#1389=CARTESIAN_POINT('',(0.,0.,5.));
#1390=CARTESIAN_POINT('',(-0.145662852778231,-3.03910044413894,-4.72268156171905));
#1391=CARTESIAN_POINT('',(-0.130239126687106,-3.01782134875341,-4.73567019824602));
#1392=CARTESIAN_POINT('',(-0.110756073356527,-2.99818325366883,-4.74750936211864));
#1393=CARTESIAN_POINT('',(-0.0881785897437901,-2.98211918242009,-4.75708008593778));
#1394=CARTESIAN_POINT('',(-0.0654947798192804,-2.96597945909794,-4.76669588208572));
#1395=CARTESIAN_POINT('',(-0.0389292114739427,-2.95302845524605,-4.77427262862822));
#1396=CARTESIAN_POINT('',(-0.0109041233853887,-2.94514968617543,-4.77874799148795));
#1397=CARTESIAN_POINT('',(0.0141497481208455,-2.93810622328607,-4.78274887689737));
#1398=CARTESIAN_POINT('',(0.0411339119593556,-2.93492471350573,-4.78438134095369));
#1399=CARTESIAN_POINT('',(0.0674231753060799,-2.93604745290074,-4.78341800304752));
#1400=CARTESIAN_POINT('',(0.0915436901233264,-2.93707757123673,-4.78253413627905));
#1401=CARTESIAN_POINT('',(0.115733108589376,-2.9417272009122,-4.77945954100351));
#1402=CARTESIAN_POINT('',(0.138099198865083,-2.9494232829805,-4.77454324912075));
#1403=CARTESIAN_POINT('',(0.160766614558407,-2.95722304991793,-4.76956072287667));
#1404=CARTESIAN_POINT('',(0.182131931177252,-2.96830879227453,-4.76258343639992));
#1405=CARTESIAN_POINT('',(0.200941219427921,-2.98158791125096,-4.75425581122954));
#1406=CARTESIAN_POINT('',(0.221517222400408,-2.99611430841652,-4.7451459906996));
#1407=CARTESIAN_POINT('',(0.239534236129161,-3.01357516444403,-4.73422370158229));
#1408=CARTESIAN_POINT('',(0.254250162377275,-3.03253539988464,-4.72233555918239));
#1409=CARTESIAN_POINT('',(0.27103588576804,-3.05416239516607,-4.70877534784468));
#1410=CARTESIAN_POINT('',(0.283937023360038,-3.07822080175696,-4.69365531759333));
#1411=CARTESIAN_POINT('',(0.29263279669717,-3.1029814416109,-4.67801367425669));
#1412=CARTESIAN_POINT('',(0.302603122907451,-3.13137128653302,-4.66007941119751));
#1413=CARTESIAN_POINT('',(0.307302099636871,-3.16136831101522,-4.64102583923829));
#1414=CARTESIAN_POINT('',(0.306704940099663,-3.19087778973928,-4.62216151956228));
#1415=CARTESIAN_POINT('',(0.306046866193136,-3.22339743772871,-4.60137290986977));
#1416=CARTESIAN_POINT('',(0.298923390500566,-3.25623366398443,-4.58023150230104));
#1417=CARTESIAN_POINT('',(0.285530946289,-3.28662689628232,-4.56055865990099));
#1418=CARTESIAN_POINT('',(0.272087159940282,-3.31713664603412,-4.54081039842459));
#1419=CARTESIAN_POINT('',(0.251779069702019,-3.34620800879855,-4.52187962422602));
#1420=CARTESIAN_POINT('',(0.225621380400584,-3.37016868844534,-4.50628362557504));
#1421=CARTESIAN_POINT('',(0.207068109568815,-3.3871636520936,-4.49522160921996));
#1422=CARTESIAN_POINT('',(0.185076933978099,-3.40201060991254,-4.48556613553067));
#1423=CARTESIAN_POINT('',(0.160945833125952,-3.41307404422521,-4.47844495257592));
#1424=CARTESIAN_POINT('',(0.136695979294069,-3.42419192345521,-4.47128872514887));
#1425=CARTESIAN_POINT('',(0.109488474283143,-3.43174613969135,-4.46653232863815));
#1426=CARTESIAN_POINT('',(0.0820532532835549,-3.43453659296026,-4.46498434295153));
#1427=CARTESIAN_POINT('',(0.0578487064168341,-3.43699845236819,-4.46361864255855));
#1428=CARTESIAN_POINT('',(0.0327804611673791,-3.43583490213762,-4.46470332207127));
#1429=CARTESIAN_POINT('',(0.00909030957710056,-3.43123365421908,-4.46807840926316));
#1430=CARTESIAN_POINT('',(-0.0136160496699849,-3.42682348454055,-4.47131333758252));
#1431=CARTESIAN_POINT('',(-0.0356407901282481,-3.41918684728419,-4.47670381495809));
#1432=CARTESIAN_POINT('',(-0.0555651013979013,-3.40916691676516,-4.48364037901433));
#1433=CARTESIAN_POINT('',(-0.0769712012593358,-3.39840179518118,-4.4910928214538));
#1434=CARTESIAN_POINT('',(-0.0964706438481038,-3.38467032317999,-4.50047841467714));
#1435=CARTESIAN_POINT('',(-0.113194302139504,-3.36916877900305,-4.51095072262678));
#1436=CARTESIAN_POINT('',(-0.132385852011465,-3.35137968926082,-4.52296841736726));
#1437=CARTESIAN_POINT('',(-0.148379674141276,-3.33088008677622,-4.53667267385866));
#1438=CARTESIAN_POINT('',(-0.160696412019327,-3.3091664413112,-4.55102564762312));
#1439=CARTESIAN_POINT('',(-0.175077432462198,-3.28381359363241,-4.56778417663999));
#1440=CARTESIAN_POINT('',(-0.184799765460646,-3.25621629411034,-4.58581543238468));
#1441=CARTESIAN_POINT('',(-0.189615713213749,-3.22825706672711,-4.6038575270686));
#1442=CARTESIAN_POINT('',(-0.195047450442664,-3.19672284250896,-4.62420656788182));
#1443=CARTESIAN_POINT('',(-0.194368448316314,-3.16388334447847,-4.64511223086877));
#1444=CARTESIAN_POINT('',(-0.187450116889275,-3.13230980001282,-4.6649425739955));
#1445=CARTESIAN_POINT('',(-0.18031442425942,-3.09974427306201,-4.68539594989824));
#1446=CARTESIAN_POINT('',(-0.166240989692919,-3.06749073938867,-4.70535229000015));
#1447=CARTESIAN_POINT('',(-0.145662852778231,-3.03910044413894,-4.72268156171905));
#1448=CARTESIAN_POINT('',(-0.145662852778231,-3.03910044413894,-4.72268156171905));
#1449=CARTESIAN_POINT('',(-0.178585070764717,3.04804115990647,-4.71635682340097));
#1450=CARTESIAN_POINT('',(-0.202960301412666,3.0657934237585,-4.70498448967024));
#1451=CARTESIAN_POINT('',(-0.223565232764822,3.08770216212965,-4.69093650568313));
#1452=CARTESIAN_POINT('',(-0.23933277567577,3.11132124631674,-4.67570009638795));
#1453=CARTESIAN_POINT('',(-0.255028591711112,3.13483288680617,-4.66053299783068));
#1454=CARTESIAN_POINT('',(-0.266408672994862,3.1606284755223,-4.64380766354786));
#1455=CARTESIAN_POINT('',(-0.273271431050159,3.18686695900324,-4.62667169860099));
#1456=CARTESIAN_POINT('',(-0.281072419139038,3.21669259112605,-4.60719302000489));
#1457=CARTESIAN_POINT('',(-0.283243935280941,3.24782764680515,-4.586700978204));
#1458=CARTESIAN_POINT('',(-0.279839798452178,3.27808103133721,-4.56662643603378));
#1459=CARTESIAN_POINT('',(-0.276126998072696,3.31107758324493,-4.54473167341501));
#1460=CARTESIAN_POINT('',(-0.265645762873146,3.34398908607115,-4.5226917336904));
#1461=CARTESIAN_POINT('',(-0.248668367775608,3.37381123323782,-4.50258338844122));
#1462=CARTESIAN_POINT('',(-0.234741467563028,3.39827494309018,-4.48608810656102));
#1463=CARTESIAN_POINT('',(-0.216048232261508,3.42129812688869,-4.47046477143511));
#1464=CARTESIAN_POINT('',(-0.193293525421855,3.44063425309566,-4.45731701445803));
#1465=CARTESIAN_POINT('',(-0.1743498229695,3.45673192572345,-4.44637127044802));
#1466=CARTESIAN_POINT('',(-0.152088568965088,3.47064186061836,-4.43689410511132));
#1467=CARTESIAN_POINT('',(-0.127842850984857,3.48077897505086,-4.43002443924076));
#1468=CARTESIAN_POINT('',(-0.103474468636013,3.4909673753534,-4.42312001823417));
#1469=CARTESIAN_POINT('',(-0.0763016688788861,3.49757107856865,-4.41870124825085));
#1470=CARTESIAN_POINT('',(-0.0490946578769331,3.49950076788557,-4.41754045544408));
#1471=CARTESIAN_POINT('',(-0.0251913078041784,3.50119614115795,-4.41652061402084));
#1472=CARTESIAN_POINT('',(-0.000589763803191817,3.49934954342113,-4.4179743415159));
#1473=CARTESIAN_POINT('',(0.0225478174009381,3.49423543203581,-4.42168684909472));
#1474=CARTESIAN_POINT('',(0.044879919873127,3.48929935602581,-4.42527011473288));
#1475=CARTESIAN_POINT('',(0.066418767031364,3.48124017534962,-4.43101490628877));
#1476=CARTESIAN_POINT('',(0.0858331963044885,3.47093167837868,-4.43827729336448));
#1477=CARTESIAN_POINT('',(0.106905276947165,3.45974301676929,-4.44615976077904));
#1478=CARTESIAN_POINT('',(0.125980423029798,3.44568208106341,-4.45598569403712));
#1479=CARTESIAN_POINT('',(0.142267087429622,3.42995247472399,-4.46687954876797));
#1480=CARTESIAN_POINT('',(0.161136935022687,3.41172803864322,-4.47950124793397));
#1481=CARTESIAN_POINT('',(0.176710869968938,3.39087769440012,-4.49382261103828));
#1482=CARTESIAN_POINT('',(0.188578088183143,3.36889725527721,-4.50877379615201));
#1483=CARTESIAN_POINT('',(0.202538971972629,3.34303893273709,-4.52636273351883));
#1484=CARTESIAN_POINT('',(0.211712529138604,3.31501724853852,-4.54522962325595));
#1485=CARTESIAN_POINT('',(0.215899426268709,3.28672314773679,-4.56406691580848));
#1486=CARTESIAN_POINT('',(0.220637287885529,3.25470575394723,-4.58538305579857));
#1487=CARTESIAN_POINT('',(0.219099894124508,3.22147580061579,-4.60723379456214));
#1488=CARTESIAN_POINT('',(0.211170620923547,3.18966373307493,-4.62789916770499));
#1489=CARTESIAN_POINT('',(0.203014971797657,3.15694345036341,-4.6491545246762));
#1490=CARTESIAN_POINT('',(0.187749462687536,3.1246623166529,-4.66984197191608));
#1491=CARTESIAN_POINT('',(0.165843908081349,3.09653078781637,-4.68766570542159));
#1492=CARTESIAN_POINT('',(0.149571297299554,3.07563319231225,-4.70090612244037));
#1493=CARTESIAN_POINT('',(0.12919216498079,3.05649566255497,-4.71290561511487));
#1494=CARTESIAN_POINT('',(0.105761597750092,3.04111854567199,-4.7224643178488));
#1495=CARTESIAN_POINT('',(0.0822091730813777,3.02566145564755,-4.73207273337946));
#1496=CARTESIAN_POINT('',(0.0547512175898039,3.01359804220226,-4.73946947280825));
#1497=CARTESIAN_POINT('',(0.0260553366667954,3.00682079411237,-4.74354075211451));
#1498=CARTESIAN_POINT('',(0.0010534117904072,3.0009159658875,-4.74708794481577));
#1499=CARTESIAN_POINT('',(-0.0256459793518933,2.99885598720379,-4.7482132081002));
#1500=CARTESIAN_POINT('',(-0.0514552255714874,3.0009323360839,-4.74675807757198));
#1501=CARTESIAN_POINT('',(-0.0752207898525987,3.00284427114625,-4.7454181702453));
#1502=CARTESIAN_POINT('',(-0.0988703504013081,3.00827924793811,-4.74187553017756));
#1503=CARTESIAN_POINT('',(-0.120612168072029,3.01658378734988,-4.73652942108237));
#1504=CARTESIAN_POINT('',(-0.141544792701862,3.02457924609502,-4.73138228496824));
#1505=CARTESIAN_POINT('',(-0.161195838147273,3.03537662819491,-4.72446978217345));
#1506=CARTESIAN_POINT('',(-0.178585070764717,3.04804115990647,-4.71635682340097));
#1507=CARTESIAN_POINT('',(-0.178585070764717,3.04804115990647,-4.71635682340097));
#1508=CARTESIAN_POINT('',(0.,0.,-3.98959907487248));
#1509=CARTESIAN_POINT('',(3.9985093130935,0.,-3.98959907487248));
#1510=CARTESIAN_POINT('',(-3.99850931309351,0.,-3.98959907487248));
#1511=CARTESIAN_POINT('',(-3.99850931309351,7.99701862618701,-3.98959907487248));
#1512=CARTESIAN_POINT('',(3.99850931309351,7.99701862618701,-3.98959907487248));
#1513=CARTESIAN_POINT('',(3.99850931309351,0.,-3.98959907487248));
#1514=CARTESIAN_POINT('',(3.99850931309351,-7.99701862618701,-3.98959907487248));
#1515=CARTESIAN_POINT('',(-3.99850931309351,-7.99701862618701,-3.98959907487248));
#1516=CARTESIAN_POINT('',(-3.99850931309351,0.,-3.98959907487248));
#1517=CARTESIAN_POINT('',(-3.56332515696268,0.,-4.41580885497447));
#1518=CARTESIAN_POINT('',(-3.56332515696268,7.12665031392536,-4.41580885497447));
#1519=CARTESIAN_POINT('',(3.56332515696268,7.12665031392536,-4.41580885497447));
#1520=CARTESIAN_POINT('',(3.56332515696268,0.,-4.41580885497447));
#1521=CARTESIAN_POINT('',(3.56332515696268,-7.12665031392536,-4.41580885497447));
#1522=CARTESIAN_POINT('',(-3.56332515696268,-7.12665031392536,-4.41580885497447));
#1523=CARTESIAN_POINT('',(-3.56332515696268,0.,-4.41580885497447));
#1524=CARTESIAN_POINT('',(-3.0582773702897,0.,-4.75634778017777));
#1525=CARTESIAN_POINT('',(-3.0582773702897,6.11655474057941,-4.75634778017777));
#1526=CARTESIAN_POINT('',(3.0582773702897,6.11655474057941,-4.75634778017777));
#1527=CARTESIAN_POINT('',(3.0582773702897,0.,-4.75634778017777));
#1528=CARTESIAN_POINT('',(3.0582773702897,-6.11655474057941,-4.75634778017777));
#1529=CARTESIAN_POINT('',(-3.0582773702897,-6.11655474057941,-4.75634778017777));
#1530=CARTESIAN_POINT('',(-3.0582773702897,0.,-4.75634778017777));
#1531=CARTESIAN_POINT('',(-2.5,0.,-5.));
#1532=CARTESIAN_POINT('',(-2.5,5.,-5.));
#1533=CARTESIAN_POINT('',(2.5,5.,-5.));
#1534=CARTESIAN_POINT('',(2.5,0.,-5.));
#1535=CARTESIAN_POINT('',(2.5,-5.,-5.));
#1536=CARTESIAN_POINT('',(-2.5,-5.,-5.));
#1537=CARTESIAN_POINT('',(-2.5,0.,-5.));
#1538=CARTESIAN_POINT('',(0.,0.,20.));
#1539=CARTESIAN_POINT('',(0.,0.,0.));
#1540=CARTESIAN_POINT('',(-0.0314075451718629,3.25012722068347,9.));
#1541=CARTESIAN_POINT('',(0.056756112327399,-3.18581977676271,9.));
#1542=CARTESIAN_POINT('',(18.2184695571755,3.48523030734816,9.));
#1543=CARTESIAN_POINT('',(18.4241847580071,-2.89194091843183,9.));
#1544=CARTESIAN_POINT('',(9.288107325494,-4.77409649251398,0.));
#1545=CARTESIAN_POINT('',(9.2421887538798,5.05247783292467,0.));
#1546=MECHANICAL_DESIGN_GEOMETRIC_PRESENTATION_REPRESENTATION('',(#24,#25),
#1547);
#1547=(
GEOMETRIC_REPRESENTATION_CONTEXT(3)
GLOBAL_UNCERTAINTY_ASSIGNED_CONTEXT((#1548))
GLOBAL_UNIT_ASSIGNED_CONTEXT((#1554,#1550,#1549))
REPRESENTATION_CONTEXT('flower_stopper_mold_m',
'TOP_LEVEL_ASSEMBLY_PART')
);
#1548=UNCERTAINTY_MEASURE_WITH_UNIT(LENGTH_MEASURE(0.0508),#1554,
'DISTANCE_ACCURACY_VALUE','Maximum Tolerance applied to model');
#1549=(
NAMED_UNIT(*)
SI_UNIT($,.STERADIAN.)
SOLID_ANGLE_UNIT()
);
#1550=(
CONVERSION_BASED_UNIT('DEGREE',#1552)
NAMED_UNIT(#1551)
PLANE_ANGLE_UNIT()
);
#1551=DIMENSIONAL_EXPONENTS(0.,0.,0.,0.,0.,0.,0.);
#1552=PLANE_ANGLE_MEASURE_WITH_UNIT(PLANE_ANGLE_MEASURE(0.0174532925),#1553);
#1553=(
NAMED_UNIT(*)
PLANE_ANGLE_UNIT()
SI_UNIT($,.RADIAN.)
);
#1554=(
LENGTH_UNIT()
NAMED_UNIT(*)
SI_UNIT(.MILLI.,.METRE.)
);
ENDSEC;
END-ISO-10303-21;
