ISO-10303-21;
HEADER;
/* Generated by software containing ST-Developer
 * from STEP Tools, Inc. (www.steptools.com) 
 */
/* OPTION: using custom schema-name function */

FILE_DESCRIPTION(
/* description */ (''),
/* implementation_level */ '2;1');

FILE_NAME(
/* name */ 'flower_stopper_m.stp',
/* time_stamp */ '2026-09-08T16:13:46+02:00',
/* author */ (''),
/* organization */ (''),
/* preprocessor_version */ 'ST-DEVELOPER v20',
/* originating_system */ 'SIEMENS PLM Software NX2406.3002',
/* authorisation */ '');

FILE_SCHEMA (('AUTOMOTIVE_DESIGN { 1 0 10303 214 3 1 1 1 }'));
ENDSEC;

DATA;
#10=SHAPE_REPRESENTATION_RELATIONSHIP('None',
'relationship between flower_stopper_m-None and flower_stopper_m-None',
#22,#11);
#11=ADVANCED_BREP_SHAPE_REPRESENTATION('flower_stopper_m-None',(#39,#40),
#304);
#12=SHAPE_DEFINITION_REPRESENTATION(#13,#22);
#13=PRODUCT_DEFINITION_SHAPE('','',#14);
#14=PRODUCT_DEFINITION(' ','',#16,#15);
#15=PRODUCT_DEFINITION_CONTEXT('part definition',#21,'design');
#16=PRODUCT_DEFINITION_FORMATION_WITH_SPECIFIED_SOURCE(' ',' ',#18,
 .NOT_KNOWN.);
#17=PRODUCT_RELATED_PRODUCT_CATEGORY('part','',(#18));
#18=PRODUCT('flower_stopper_m','flower_stopper_m',' ',(#19));
#19=PRODUCT_CONTEXT(' ',#21,'mechanical');
#20=APPLICATION_PROTOCOL_DEFINITION('international standard',
'automotive_design',2010,#21);
#21=APPLICATION_CONTEXT(
'core data for automotive mechanical design processes');
#22=SHAPE_REPRESENTATION('flower_stopper_m-None',(#131),#304);
#23=PRESENTATION_LAYER_ASSIGNMENT('1','Layer 1',(#39,#40));
#24=STYLED_ITEM('',(#26),#39);
#25=STYLED_ITEM('',(#27),#40);
#26=PRESENTATION_STYLE_ASSIGNMENT((#28));
#27=PRESENTATION_STYLE_ASSIGNMENT((#29));
#28=SURFACE_STYLE_USAGE(.BOTH.,#30);
#29=SURFACE_STYLE_USAGE(.BOTH.,#31);
#30=SURFACE_SIDE_STYLE('',(#32));
#31=SURFACE_SIDE_STYLE('',(#33));
#32=SURFACE_STYLE_FILL_AREA(#34);
#33=SURFACE_STYLE_FILL_AREA(#35);
#34=FILL_AREA_STYLE('',(#36));
#35=FILL_AREA_STYLE('',(#37));
#36=FILL_AREA_STYLE_COLOUR('',#38);
#37=FILL_AREA_STYLE_COLOUR('',#38);
#38=COLOUR_RGB('medium steel',0.596078431372549,0.666666666666667,0.686274509803922);
#39=MANIFOLD_SOLID_BREP('',#41);
#40=MANIFOLD_SOLID_BREP('',#42);
#41=CLOSED_SHELL('',(#47,#48,#49,#50));
#42=CLOSED_SHELL('',(#51,#52,#53,#54));
#43=(
BOUNDED_SURFACE()
B_SPLINE_SURFACE(3,3,((#178,#179,#180,#181,#182,#183,#184),(#185,#186,#187,
#188,#189,#190,#191),(#192,#193,#194,#195,#196,#197,#198),(#199,#200,#201,
#202,#203,#204,#205)),.UNSPECIFIED.,.F.,.T.,.F.)
B_SPLINE_SURFACE_WITH_KNOTS((4,4),(1,3,3,3,1),(0.,1.),(-0.5,0.,0.5,1.,1.5),
 .UNSPECIFIED.)
GEOMETRIC_REPRESENTATION_ITEM()
RATIONAL_B_SPLINE_SURFACE(((1.,0.333333333333333,0.333333333333333,1.,0.333333333333333,
0.333333333333333,1.),(0.989021469938512,0.329673823312837,0.329673823312837,
0.989021469938512,0.329673823312837,0.329673823312837,0.989021469938512),
(0.989021469938512,0.329673823312837,0.329673823312837,0.989021469938512,
0.329673823312837,0.329673823312837,0.989021469938512),(1.,0.333333333333333,
0.333333333333333,1.,0.333333333333333,0.333333333333333,1.)))
REPRESENTATION_ITEM('')
SURFACE()
);
#44=(
BOUNDED_SURFACE()
B_SPLINE_SURFACE(3,3,((#208,#209,#210,#211,#212,#213,#214),(#215,#216,#217,
#218,#219,#220,#221),(#222,#223,#224,#225,#226,#227,#228),(#229,#230,#231,
#232,#233,#234,#235)),.UNSPECIFIED.,.F.,.T.,.F.)
B_SPLINE_SURFACE_WITH_KNOTS((4,4),(1,3,3,3,1),(0.,1.),(-0.5,0.,0.5,1.,1.5),
 .UNSPECIFIED.)
GEOMETRIC_REPRESENTATION_ITEM()
RATIONAL_B_SPLINE_SURFACE(((1.,0.333333333333333,0.333333333333333,1.,0.333333333333333,
0.333333333333333,1.),(0.989021469938512,0.329673823312837,0.329673823312837,
0.989021469938512,0.329673823312837,0.329673823312837,0.989021469938512),
(0.989021469938512,0.329673823312837,0.329673823312837,0.989021469938512,
0.329673823312837,0.329673823312837,0.989021469938512),(1.,0.333333333333333,
0.333333333333333,1.,0.333333333333333,0.333333333333333,1.)))
REPRESENTATION_ITEM('')
SURFACE()
);
#45=(
BOUNDED_SURFACE()
B_SPLINE_SURFACE(3,3,((#244,#245,#246,#247,#248,#249,#250),(#251,#252,#253,
#254,#255,#256,#257),(#258,#259,#260,#261,#262,#263,#264),(#265,#266,#267,
#268,#269,#270,#271)),.UNSPECIFIED.,.F.,.T.,.F.)
B_SPLINE_SURFACE_WITH_KNOTS((4,4),(1,3,3,3,1),(0.,1.),(-0.5,0.,0.5,1.,1.5),
 .UNSPECIFIED.)
GEOMETRIC_REPRESENTATION_ITEM()
RATIONAL_B_SPLINE_SURFACE(((1.,0.333333333333333,0.333333333333333,1.,0.333333333333333,
0.333333333333333,1.),(0.989388474519083,0.329796158173028,0.329796158173028,
0.989388474519083,0.329796158173028,0.329796158173028,0.989388474519083),
(0.989388474519083,0.329796158173028,0.329796158173028,0.989388474519083,
0.329796158173028,0.329796158173028,0.989388474519083),(1.,0.333333333333333,
0.333333333333333,1.,0.333333333333333,0.333333333333333,1.)))
REPRESENTATION_ITEM('')
SURFACE()
);
#46=(
BOUNDED_SURFACE()
B_SPLINE_SURFACE(3,3,((#274,#275,#276,#277,#278,#279,#280),(#281,#282,#283,
#284,#285,#286,#287),(#288,#289,#290,#291,#292,#293,#294),(#295,#296,#297,
#298,#299,#300,#301)),.UNSPECIFIED.,.F.,.T.,.F.)
B_SPLINE_SURFACE_WITH_KNOTS((4,4),(1,3,3,3,1),(0.,1.),(-0.5,0.,0.5,1.,1.5),
 .UNSPECIFIED.)
GEOMETRIC_REPRESENTATION_ITEM()
RATIONAL_B_SPLINE_SURFACE(((1.,0.333333333333333,0.333333333333333,1.,0.333333333333333,
0.333333333333333,1.),(0.989388474519083,0.329796158173028,0.329796158173028,
0.989388474519083,0.329796158173028,0.329796158173028,0.989388474519083),
(0.989388474519083,0.329796158173028,0.329796158173028,0.989388474519083,
0.329796158173028,0.329796158173028,0.989388474519083),(1.,0.333333333333333,
0.333333333333333,1.,0.333333333333333,0.333333333333333,1.)))
REPRESENTATION_ITEM('')
SURFACE()
);
#47=ADVANCED_FACE('',(#59,#60),#55,.F.);
#48=ADVANCED_FACE('',(#61,#62),#43,.T.);
#49=ADVANCED_FACE('',(#63,#64),#44,.T.);
#50=ADVANCED_FACE('',(#65,#66),#56,.T.);
#51=ADVANCED_FACE('',(#67,#68),#57,.F.);
#52=ADVANCED_FACE('',(#69,#70),#45,.T.);
#53=ADVANCED_FACE('',(#71,#72),#46,.T.);
#54=ADVANCED_FACE('',(#73,#74),#58,.T.);
#55=CYLINDRICAL_SURFACE('',#134,2.5);
#56=CYLINDRICAL_SURFACE('',#137,3.9985093130935);
#57=CYLINDRICAL_SURFACE('',#140,2.5);
#58=CYLINDRICAL_SURFACE('',#143,3.97649852608033);
#59=FACE_BOUND('',#75,.T.);
#60=FACE_BOUND('',#76,.T.);
#61=FACE_BOUND('',#77,.T.);
#62=FACE_BOUND('',#78,.T.);
#63=FACE_BOUND('',#79,.T.);
#64=FACE_BOUND('',#80,.T.);
#65=FACE_BOUND('',#81,.T.);
#66=FACE_BOUND('',#82,.T.);
#67=FACE_BOUND('',#83,.T.);
#68=FACE_BOUND('',#84,.T.);
#69=FACE_BOUND('',#85,.T.);
#70=FACE_BOUND('',#86,.T.);
#71=FACE_BOUND('',#87,.T.);
#72=FACE_BOUND('',#88,.T.);
#73=FACE_BOUND('',#89,.T.);
#74=FACE_BOUND('',#90,.T.);
#75=EDGE_LOOP('',(#91));
#76=EDGE_LOOP('',(#92));
#77=EDGE_LOOP('',(#93));
#78=EDGE_LOOP('',(#94));
#79=EDGE_LOOP('',(#95));
#80=EDGE_LOOP('',(#96));
#81=EDGE_LOOP('',(#97));
#82=EDGE_LOOP('',(#98));
#83=EDGE_LOOP('',(#99));
#84=EDGE_LOOP('',(#100));
#85=EDGE_LOOP('',(#101));
#86=EDGE_LOOP('',(#102));
#87=EDGE_LOOP('',(#103));
#88=EDGE_LOOP('',(#104));
#89=EDGE_LOOP('',(#105));
#90=EDGE_LOOP('',(#106));
#91=ORIENTED_EDGE('',*,*,#115,.T.);
#92=ORIENTED_EDGE('',*,*,#116,.F.);
#93=ORIENTED_EDGE('',*,*,#117,.F.);
#94=ORIENTED_EDGE('',*,*,#116,.T.);
#95=ORIENTED_EDGE('',*,*,#118,.F.);
#96=ORIENTED_EDGE('',*,*,#115,.F.);
#97=ORIENTED_EDGE('',*,*,#117,.T.);
#98=ORIENTED_EDGE('',*,*,#118,.T.);
#99=ORIENTED_EDGE('',*,*,#119,.T.);
#100=ORIENTED_EDGE('',*,*,#120,.F.);
#101=ORIENTED_EDGE('',*,*,#121,.F.);
#102=ORIENTED_EDGE('',*,*,#119,.F.);
#103=ORIENTED_EDGE('',*,*,#122,.F.);
#104=ORIENTED_EDGE('',*,*,#120,.T.);
#105=ORIENTED_EDGE('',*,*,#121,.T.);
#106=ORIENTED_EDGE('',*,*,#122,.T.);
#107=VERTEX_POINT('',#172);
#108=VERTEX_POINT('',#174);
#109=VERTEX_POINT('',#177);
#110=VERTEX_POINT('',#207);
#111=VERTEX_POINT('',#238);
#112=VERTEX_POINT('',#240);
#113=VERTEX_POINT('',#243);
#114=VERTEX_POINT('',#273);
#115=EDGE_CURVE('',#107,#107,#123,.T.);
#116=EDGE_CURVE('',#108,#108,#124,.T.);
#117=EDGE_CURVE('',#109,#109,#125,.T.);
#118=EDGE_CURVE('',#110,#110,#126,.T.);
#119=EDGE_CURVE('',#111,#111,#127,.T.);
#120=EDGE_CURVE('',#112,#112,#128,.T.);
#121=EDGE_CURVE('',#113,#113,#129,.T.);
#122=EDGE_CURVE('',#114,#114,#130,.T.);
#123=CIRCLE('',#132,2.5);
#124=CIRCLE('',#133,2.5);
#125=CIRCLE('',#135,3.9985093130935);
#126=CIRCLE('',#136,3.9985093130935);
#127=CIRCLE('',#138,2.5);
#128=CIRCLE('',#139,2.5);
#129=CIRCLE('',#141,3.97649852608033);
#130=CIRCLE('',#142,3.97649852608033);
#131=AXIS2_PLACEMENT_3D('',#170,#144,#145);
#132=AXIS2_PLACEMENT_3D('',#171,#146,#147);
#133=AXIS2_PLACEMENT_3D('',#173,#148,#149);
#134=AXIS2_PLACEMENT_3D('',#175,#150,#151);
#135=AXIS2_PLACEMENT_3D('',#176,#152,#153);
#136=AXIS2_PLACEMENT_3D('',#206,#154,#155);
#137=AXIS2_PLACEMENT_3D('',#236,#156,#157);
#138=AXIS2_PLACEMENT_3D('',#237,#158,#159);
#139=AXIS2_PLACEMENT_3D('',#239,#160,#161);
#140=AXIS2_PLACEMENT_3D('',#241,#162,#163);
#141=AXIS2_PLACEMENT_3D('',#242,#164,#165);
#142=AXIS2_PLACEMENT_3D('',#272,#166,#167);
#143=AXIS2_PLACEMENT_3D('',#302,#168,#169);
#144=DIRECTION('',(0.,0.,1.));
#145=DIRECTION('',(1.,0.,0.));
#146=DIRECTION('',(0.,0.,1.));
#147=DIRECTION('',(1.,0.,0.));
#148=DIRECTION('',(0.,0.,1.));
#149=DIRECTION('',(1.,0.,0.));
#150=DIRECTION('',(0.,0.,-1.));
#151=DIRECTION('',(-1.,0.,0.));
#152=DIRECTION('',(0.,0.,1.));
#153=DIRECTION('',(1.,0.,0.));
#154=DIRECTION('',(0.,0.,-1.));
#155=DIRECTION('',(-1.,0.,0.));
#156=DIRECTION('',(0.,0.,-1.));
#157=DIRECTION('',(-1.,0.,0.));
#158=DIRECTION('',(0.,0.,1.));
#159=DIRECTION('',(0.999999999999999,0.,0.));
#160=DIRECTION('',(0.,0.,1.));
#161=DIRECTION('',(0.999999999999999,0.,0.));
#162=DIRECTION('',(0.,0.,-1.));
#163=DIRECTION('',(-1.,0.,0.));
#164=DIRECTION('',(0.,0.,-1.));
#165=DIRECTION('',(-1.,0.,0.));
#166=DIRECTION('',(0.,0.,1.));
#167=DIRECTION('',(1.,0.,0.));
#168=DIRECTION('',(0.,0.,-1.));
#169=DIRECTION('',(-1.,0.,0.));
#170=CARTESIAN_POINT('',(0.,0.,0.));
#171=CARTESIAN_POINT('',(0.,0.,5.));
#172=CARTESIAN_POINT('',(2.5,0.,5.));
#173=CARTESIAN_POINT('',(0.,0.,-5.));
#174=CARTESIAN_POINT('',(2.5,0.,-5.));
#175=CARTESIAN_POINT('',(0.,0.,5.));
#176=CARTESIAN_POINT('',(0.,0.,-3.98959907487248));
#177=CARTESIAN_POINT('',(3.9985093130935,0.,-3.98959907487248));
#178=CARTESIAN_POINT('',(-2.5,0.,-5.));
#179=CARTESIAN_POINT('',(-2.5,5.,-5.));
#180=CARTESIAN_POINT('',(2.5,5.,-5.));
#181=CARTESIAN_POINT('',(2.5,0.,-5.));
#182=CARTESIAN_POINT('',(2.5,-5.,-5.));
#183=CARTESIAN_POINT('',(-2.5,-5.,-5.));
#184=CARTESIAN_POINT('',(-2.5,0.,-5.));
#185=CARTESIAN_POINT('',(-3.0582773702897,0.,-4.75634778017777));
#186=CARTESIAN_POINT('',(-3.0582773702897,6.11655474057941,-4.75634778017777));
#187=CARTESIAN_POINT('',(3.0582773702897,6.11655474057941,-4.75634778017777));
#188=CARTESIAN_POINT('',(3.0582773702897,0.,-4.75634778017777));
#189=CARTESIAN_POINT('',(3.0582773702897,-6.11655474057941,-4.75634778017777));
#190=CARTESIAN_POINT('',(-3.0582773702897,-6.11655474057941,-4.75634778017777));
#191=CARTESIAN_POINT('',(-3.0582773702897,0.,-4.75634778017777));
#192=CARTESIAN_POINT('',(-3.56332515696268,0.,-4.41580885497447));
#193=CARTESIAN_POINT('',(-3.56332515696268,7.12665031392536,-4.41580885497447));
#194=CARTESIAN_POINT('',(3.56332515696268,7.12665031392536,-4.41580885497447));
#195=CARTESIAN_POINT('',(3.56332515696268,0.,-4.41580885497447));
#196=CARTESIAN_POINT('',(3.56332515696268,-7.12665031392536,-4.41580885497447));
#197=CARTESIAN_POINT('',(-3.56332515696268,-7.12665031392536,-4.41580885497447));
#198=CARTESIAN_POINT('',(-3.56332515696268,0.,-4.41580885497447));
#199=CARTESIAN_POINT('',(-3.99850931309351,0.,-3.98959907487248));
#200=CARTESIAN_POINT('',(-3.99850931309351,7.99701862618701,-3.98959907487248));
#201=CARTESIAN_POINT('',(3.99850931309351,7.99701862618701,-3.98959907487248));
#202=CARTESIAN_POINT('',(3.99850931309351,0.,-3.98959907487248));
#203=CARTESIAN_POINT('',(3.99850931309351,-7.99701862618701,-3.98959907487248));
#204=CARTESIAN_POINT('',(-3.99850931309351,-7.99701862618701,-3.98959907487248));
#205=CARTESIAN_POINT('',(-3.99850931309351,0.,-3.98959907487248));
#206=CARTESIAN_POINT('',(0.,0.,3.98959907487248));
#207=CARTESIAN_POINT('',(-3.9985093130935,0.,3.98959907487248));
#208=CARTESIAN_POINT('',(2.5,0.,5.));
#209=CARTESIAN_POINT('',(2.5,5.,5.));
#210=CARTESIAN_POINT('',(-2.5,5.,5.));
#211=CARTESIAN_POINT('',(-2.5,0.,5.));
#212=CARTESIAN_POINT('',(-2.5,-5.,5.));
#213=CARTESIAN_POINT('',(2.5,-5.,5.));
#214=CARTESIAN_POINT('',(2.5,0.,5.));
#215=CARTESIAN_POINT('',(3.0582773702897,0.,4.75634778017777));
#216=CARTESIAN_POINT('',(3.0582773702897,6.1165547405794,4.75634778017777));
#217=CARTESIAN_POINT('',(-3.0582773702897,6.1165547405794,4.75634778017777));
#218=CARTESIAN_POINT('',(-3.0582773702897,0.,4.75634778017777));
#219=CARTESIAN_POINT('',(-3.0582773702897,-6.1165547405794,4.75634778017777));
#220=CARTESIAN_POINT('',(3.0582773702897,-6.1165547405794,4.75634778017777));
#221=CARTESIAN_POINT('',(3.0582773702897,0.,4.75634778017777));
#222=CARTESIAN_POINT('',(3.56332515696268,0.,4.41580885497448));
#223=CARTESIAN_POINT('',(3.56332515696268,7.12665031392536,4.41580885497448));
#224=CARTESIAN_POINT('',(-3.56332515696268,7.12665031392536,4.41580885497448));
#225=CARTESIAN_POINT('',(-3.56332515696268,0.,4.41580885497448));
#226=CARTESIAN_POINT('',(-3.56332515696268,-7.12665031392536,4.41580885497448));
#227=CARTESIAN_POINT('',(3.56332515696268,-7.12665031392536,4.41580885497448));
#228=CARTESIAN_POINT('',(3.56332515696268,0.,4.41580885497448));
#229=CARTESIAN_POINT('',(3.9985093130935,0.,3.98959907487248));
#230=CARTESIAN_POINT('',(3.9985093130935,7.99701862618701,3.98959907487248));
#231=CARTESIAN_POINT('',(-3.9985093130935,7.99701862618701,3.98959907487248));
#232=CARTESIAN_POINT('',(-3.9985093130935,0.,3.98959907487248));
#233=CARTESIAN_POINT('',(-3.9985093130935,-7.99701862618701,3.98959907487248));
#234=CARTESIAN_POINT('',(3.9985093130935,-7.99701862618701,3.98959907487248));
#235=CARTESIAN_POINT('',(3.9985093130935,0.,3.98959907487248));
#236=CARTESIAN_POINT('',(0.,0.,20.));
#237=CARTESIAN_POINT('',(18.1,0.3,5.));
#238=CARTESIAN_POINT('',(20.6,0.3,5.));
#239=CARTESIAN_POINT('',(18.1,0.3,-5.));
#240=CARTESIAN_POINT('',(20.6,0.3,-5.));
#241=CARTESIAN_POINT('',(18.1,0.3,5.));
#242=CARTESIAN_POINT('',(18.1,0.3,4.01102389294503));
#243=CARTESIAN_POINT('',(14.1235014739197,0.3,4.01102389294503));
#244=CARTESIAN_POINT('',(20.6,0.3,5.));
#245=CARTESIAN_POINT('',(20.6,5.3,5.));
#246=CARTESIAN_POINT('',(15.6,5.3,5.));
#247=CARTESIAN_POINT('',(15.6,0.3,5.));
#248=CARTESIAN_POINT('',(15.6,-4.7,5.));
#249=CARTESIAN_POINT('',(20.6,-4.7,5.));
#250=CARTESIAN_POINT('',(20.6,0.3,5.));
#251=CARTESIAN_POINT('',(21.1487391775481,0.3,4.76051058877123));
#252=CARTESIAN_POINT('',(21.1487391775481,6.39747835509625,4.76051058877123));
#253=CARTESIAN_POINT('',(15.0512608224519,6.39747835509625,4.76051058877123));
#254=CARTESIAN_POINT('',(15.0512608224519,0.3,4.76051058877123));
#255=CARTESIAN_POINT('',(15.0512608224519,-5.79747835509625,4.76051058877123));
#256=CARTESIAN_POINT('',(21.1487391775481,-5.79747835509625,4.76051058877123));
#257=CARTESIAN_POINT('',(21.1487391775481,0.3,4.76051058877123));
#258=CARTESIAN_POINT('',(21.6461840013312,0.3,4.42731618551937));
#259=CARTESIAN_POINT('',(21.6461840013312,7.39236800266232,4.42731618551937));
#260=CARTESIAN_POINT('',(14.5538159986688,7.39236800266232,4.42731618551937));
#261=CARTESIAN_POINT('',(14.5538159986688,0.3,4.42731618551937));
#262=CARTESIAN_POINT('',(14.5538159986688,-6.79236800266232,4.42731618551937));
#263=CARTESIAN_POINT('',(21.6461840013312,-6.79236800266232,4.42731618551937));
#264=CARTESIAN_POINT('',(21.6461840013312,0.3,4.42731618551937));
#265=CARTESIAN_POINT('',(22.0764985260803,0.3,4.01102389294503));
#266=CARTESIAN_POINT('',(22.0764985260803,8.25299705216066,4.01102389294503));
#267=CARTESIAN_POINT('',(14.1235014739197,8.25299705216066,4.01102389294503));
#268=CARTESIAN_POINT('',(14.1235014739197,0.3,4.01102389294503));
#269=CARTESIAN_POINT('',(14.1235014739197,-7.65299705216066,4.01102389294503));
#270=CARTESIAN_POINT('',(22.0764985260803,-7.65299705216066,4.01102389294503));
#271=CARTESIAN_POINT('',(22.0764985260803,0.3,4.01102389294503));
#272=CARTESIAN_POINT('',(18.1,0.3,-4.01102389294503));
#273=CARTESIAN_POINT('',(22.0764985260803,0.3,-4.01102389294503));
#274=CARTESIAN_POINT('',(15.6,0.3,-5.));
#275=CARTESIAN_POINT('',(15.6,5.3,-5.));
#276=CARTESIAN_POINT('',(20.6,5.3,-5.));
#277=CARTESIAN_POINT('',(20.6,0.3,-5.));
#278=CARTESIAN_POINT('',(20.6,-4.7,-5.));
#279=CARTESIAN_POINT('',(15.6,-4.7,-5.));
#280=CARTESIAN_POINT('',(15.6,0.3,-5.));
#281=CARTESIAN_POINT('',(15.0512608224519,0.3,-4.76051058877123));
#282=CARTESIAN_POINT('',(15.0512608224519,6.39747835509626,-4.76051058877123));
#283=CARTESIAN_POINT('',(21.1487391775481,6.39747835509625,-4.76051058877123));
#284=CARTESIAN_POINT('',(21.1487391775481,0.3,-4.76051058877123));
#285=CARTESIAN_POINT('',(21.1487391775481,-5.79747835509625,-4.76051058877123));
#286=CARTESIAN_POINT('',(15.0512608224519,-5.79747835509625,-4.76051058877123));
#287=CARTESIAN_POINT('',(15.0512608224519,0.3,-4.76051058877123));
#288=CARTESIAN_POINT('',(14.5538159986688,0.3,-4.42731618551936));
#289=CARTESIAN_POINT('',(14.5538159986688,7.39236800266233,-4.42731618551936));
#290=CARTESIAN_POINT('',(21.6461840013312,7.39236800266232,-4.42731618551936));
#291=CARTESIAN_POINT('',(21.6461840013312,0.3,-4.42731618551936));
#292=CARTESIAN_POINT('',(21.6461840013312,-6.79236800266232,-4.42731618551936));
#293=CARTESIAN_POINT('',(14.5538159986688,-6.79236800266232,-4.42731618551936));
#294=CARTESIAN_POINT('',(14.5538159986688,0.3,-4.42731618551936));
#295=CARTESIAN_POINT('',(14.1235014739197,0.3,-4.01102389294503));
#296=CARTESIAN_POINT('',(14.1235014739197,8.25299705216066,-4.01102389294503));
#297=CARTESIAN_POINT('',(22.0764985260803,8.25299705216066,-4.01102389294503));
#298=CARTESIAN_POINT('',(22.0764985260803,0.3,-4.01102389294503));
#299=CARTESIAN_POINT('',(22.0764985260803,-7.65299705216066,-4.01102389294503));
#300=CARTESIAN_POINT('',(14.1235014739197,-7.65299705216066,-4.01102389294503));
#301=CARTESIAN_POINT('',(14.1235014739197,0.3,-4.01102389294503));
#302=CARTESIAN_POINT('',(18.1,0.3,20.));
#303=MECHANICAL_DESIGN_GEOMETRIC_PRESENTATION_REPRESENTATION('',(#24,#25),
#304);
#304=(
GEOMETRIC_REPRESENTATION_CONTEXT(3)
GLOBAL_UNCERTAINTY_ASSIGNED_CONTEXT((#305))
GLOBAL_UNIT_ASSIGNED_CONTEXT((#311,#307,#306))
REPRESENTATION_CONTEXT('flower_stopper_m','TOP_LEVEL_ASSEMBLY_PART')
);
#305=UNCERTAINTY_MEASURE_WITH_UNIT(LENGTH_MEASURE(0.0254),#311,
'DISTANCE_ACCURACY_VALUE','Maximum Tolerance applied to model');
#306=(
NAMED_UNIT(*)
SI_UNIT($,.STERADIAN.)
SOLID_ANGLE_UNIT()
);
#307=(
CONVERSION_BASED_UNIT('DEGREE',#309)
NAMED_UNIT(#308)
PLANE_ANGLE_UNIT()
);
#308=DIMENSIONAL_EXPONENTS(0.,0.,0.,0.,0.,0.,0.);
#309=PLANE_ANGLE_MEASURE_WITH_UNIT(PLANE_ANGLE_MEASURE(0.0174532925),#310);
#310=(
NAMED_UNIT(*)
PLANE_ANGLE_UNIT()
SI_UNIT($,.RADIAN.)
);
#311=(
LENGTH_UNIT()
NAMED_UNIT(*)
SI_UNIT(.MILLI.,.METRE.)
);
ENDSEC;
END-ISO-10303-21;
